<?xml version="1.0" encoding="utf-8"?>
<!-- Generator: Adobe Illustrator 22.1.0, SVG Export Plug-In . SVG Version: 6.00 Build 0)  -->
<svg version="1.1" id="Layer_1" xmlns="http://www.w3.org/2000/svg" xmlns:xlink="http://www.w3.org/1999/xlink" x="0px" y="0px"
	 viewBox="0 0 792 306" style="enable-background:new 0 0 792 306;" xml:space="preserve" preserveAspectRatio="none">
<style type="text/css">
	.st0{fill:#FFFE5C;}
	.st1{fill:#FF0000;}
</style>
<path class="st0" d="M26.1,41.2c0,7.3,0,14.5,0,21.8c-0.1,11.6-0.5,23.2-1.4,34.7c-0.4,5.3-0.4,10.5-0.7,15.8
	c-0.3,5.8-0.9,11.6-1.2,17.5c-0.2,4.4-0.4,8.8-0.3,13.2c0.1,7.1-0.1,14.2,0.9,21.3c0.2,1.7-0.2,3.5-0.2,5.3
	c0.1,6.2,0.5,12.4,1.5,18.6c0.9,6.1,1.2,12.4,1.7,18.6c0.7,9.3,1.4,18.6,2.1,28c0.1,1.6,0.6,3.1,0.9,4.7c1.3,6.6,1,13.2,1,19.8
	c0,1.9-0.1,3.8-0.1,5.8c0,3.9,2,6.5,5.3,8.2c0.6,0.3,1.4,0.4,2,0.2c3.3-0.8,5.9-3.8,6.1-7.2c0.5-7.7,1.2-15.3,1-23
	c-0.2-5.7-0.1-11.4-0.2-17c-0.3-12.9-0.8-25.7-0.9-38.6c-0.1-13.8-0.5-27.5,0.7-41.2c1-10.8,2.4-21.6,3.7-32.4
	c0.6-4.9,1.7-9.8,2.3-14.7c0.7-5.4,1-10.8,1.6-16.2c0.7-6.8,1.2-13.7,2.2-20.5c1.4-9.6,3.1-19.1,4.7-28.6c0.9-5.4,1.7-10.7,2.7-16
	c0.6-2.8,1.4-5.6,2.5-8.2c2.6-5.8,8.2-6.5,12.6-2.9c2.4,2,4,4.4,4.7,7.6c1,4.7,1.3,9.3,1,14c-0.4,6.8-0.6,13.7-0.4,20.6
	c0.2,5.3-0.1,10.6-0.5,15.8c-0.6,8-1.2,15.9-2.1,23.9c-0.5,4.8-1.5,9.5-2.2,14.2c-0.1,0.8-0.3,1.6-0.3,2.4c-0.2,9-0.4,18.1-0.5,27.1
	c0,6.2,0.3,12.3,0.4,18.5c0.2,9.5-0.4,19-1.3,28.5c-0.8,9.4-1.5,18.8-1.6,28.2c0,2.2-0.5,4.5-0.4,6.7c0.1,3.9,0.3,7.8,0.8,11.7
	c0.5,3.9,0.4,7.8,0.1,11.7c-0.5,5.8,0,11.7,0.4,17.5c0.6,8.5,1.1,16.9,1.6,25.4c0.1,1.7,0.1,3.4,0.3,5c0.3,3.3,1.6,6.2,4.1,8.4
	c2.3,2.1,4.5,1.6,5.6-1.2c0.2-0.5,0.3-1.1,0.4-1.6c1.4-10.3,1-20.6,0.8-30.9c-0.1-8.7-0.3-17.4-0.6-26.1c-0.2-5.9-0.6-11.8-0.8-17.7
	c-0.4-11-0.8-22.1-1.1-33.1c-0.3-10.1-0.6-20.3-0.8-30.4c-0.1-6.5-0.1-12.9-0.2-19.4c0-2.3,0-4.6-0.1-7c-0.5-6.6,0.2-13.1,0.5-19.6
	c0.3-7.3,0.7-14.5,1-21.8c0.4-12.3,0.5-24.6,1-36.9c0.3-7.7,0.9-15.3,1.9-22.9c0.8-6.2,2.4-12.4,5.6-18c1.1-1.8,2.5-3.5,3.9-5.1
	c0.3-0.3,0.8-0.6,1.2-0.7c2.4-0.3,4.7-0.7,7.1-0.8c1.9,0,3.7,0.8,5.3,2c2.3,1.8,4.7,3.4,5.6,6.4c0.4,1.3,0.8,2.6,1,3.9
	c1.3,8,2.6,15.9,3.8,23.9c1.1,7.5,0.8,15.1,0.6,22.7c-0.2,5.8-0.1,11.5-0.4,17.3c-0.5,10.6-1.1,21.2-1.8,31.8
	c-0.6,7.7-1.5,15.4-2.2,23.1c-0.4,4.9-0.7,9.9-1,14.8c-0.5,6.2-1.1,12.4-1.5,18.6c-0.4,5.8-0.7,11.6-1.1,17.5
	c-0.8,10.8-1.8,21.5-2.4,32.3c-0.7,13.6-1,27.2-1.2,40.7c-0.1,6.2,0.2,12.5,1.7,18.6c0.2,0.8,0.4,1.7,0.8,2.5c0.8,1.7,3.2,2.1,4.7,1
	c1.4-1.1,2.2-2.5,2.7-4.1c1.9-6.6,3.2-13.4,3.2-20.3c0-3.7-0.5-7.5-0.9-11.2c-0.9-10.5-2.1-21-1.6-31.6c0.5-10.3,0.5-20.6,0.9-30.9
	c0.4-11.5,1-23,1.4-34.5c0.4-9.2,1-18.3,1.8-27.5c0.4-4.4,0.4-8.8,0.6-13.2c0.5-8.6,1.1-17.2,1.6-25.8c0.3-4.9,0.4-9.9,0.9-14.8
	c0.8-8.5,1.8-17,2.7-25.5c0.3-2.5,0.3-4.9,0.5-7.4c0.1-1.5,0.3-3,0.6-4.5c0.7-4.8,1.6-9.6,2.3-14.4c0.8-5.5,6.6-10,11.4-10.4
	c0.2,0,0.5-0.1,0.7,0c3,1.2,6.4,1.8,8.3,4.8c1.2,1.9,2.2,3.9,3.2,5.8c0.2,0.4,0.3,1,0.5,1.3c2.8,3.8,2.7,8.3,2.8,12.6
	c0.2,6-0.1,12,0.1,18c0.2,10.9,0.6,21.7,0.8,32.6c0.1,3.4,0.1,6.9,0.1,10.3c0.1,11.6,0.2,23.2-0.5,34.8c-0.3,5-0.7,10-1,15.1
	c-0.1,2.3,0,4.6,0,7c-0.1,5.1-0.5,10.2-1.9,15.2c-0.9,3.2-1.3,6.4-1.3,9.7c-0.2,6.7-0.3,13.4-0.5,20.1c-0.2,5.1-0.5,10.2-0.7,15.3
	c-0.4,6.8-0.3,13.6,0.7,20.3c0.9,6.6,1.3,13.2,2,19.8c0.8,7.4,1.6,14.8,3.7,22c1.2,4.3,2.4,8.6,3.8,12.8c0.7,2,2.1,3.7,3.2,5.6
	c0.4,0.7,1.1,0.9,1.9,0.5c0.1-0.1,0.3-0.1,0.4-0.2c4.6-1.5,6.9-4.3,6.9-9.4c0-3.5,1-6.9,1.4-10.4c0.9-8.2,1.8-16.4,2.6-24.6
	c1.6-15,1.1-30,0.9-45.1c-0.1-6.7-0.5-13.4-0.6-20.1c-0.1-5,0.1-10.1,0.3-15.1c0.2-6.3,0.3-12.6,0.6-18.9c0.4-8.5,0.9-16.9,1.4-25.4
	c0.4-7.5,0.7-15,1.3-22.5c0.3-4.5,1-8.9,1.5-13.3c1-8.9,1.9-17.8,3.1-26.7c0.5-3.9,1.5-7.8,2.5-11.7c1.3-5.5,2.6-11,4.1-16.5
	c1-3.8,2.1-7.5,3.2-11.3c0.2-0.6,0.5-1.3,0.9-1.6c2-1.6,3.9-3.3,6-4.7c0.9-0.6,2.3-0.4,3.5-0.5c4.3-0.6,7.6,1.3,10.4,4.2
	c4.3,4.4,6.6,9.6,6.6,15.9c0,6.1-0.6,12.1-1.2,18.2c-1,9.6-2.1,19.2-3.2,28.8c-0.7,6.2-1.4,12.4-2,18.6c-0.5,5.2-0.9,10.5-1.3,15.8
	c-0.5,5.9-0.9,11.8-1.3,17.7c-0.4,5.6-0.6,11.2-1.1,16.8c-0.7,9.5-1.4,19-2.3,28.4c-0.7,6.8-1.8,13.6-2.5,20.4
	c-0.6,5.6-1.1,11.1-1.7,16.7c-0.8,8.4-1.5,16.9-2.3,25.3c-0.8,8.9-1.8,17.8-2.7,26.7c-0.2,2.1-0.7,4.3-0.9,6.4
	c-0.4,3.8-0.2,7.5,1.8,10.9c0.7,1.2,1.4,1.7,2.8,1.7c6.6,0,7.5,0.3,11.5-5.7c1.9-2.9,2.8-5.9,2.8-9.2c0-5,0.1-10.1,0.2-15.1
	c0.2-8.8,0.5-17.6,0.9-26.4c0.4-11.3,0.9-22.7,1.4-34c0.2-5.3,0.4-10.5,0.6-15.8c0.3-7.3,0.6-14.5,1-21.8c0.3-4.1,0.9-8.2,1.4-12.4
	c0.8-7.7,1.6-15.4,2.4-23.1c0.8-8,1.5-15.9,2.3-23.9c0.1-1.3,0.2-2.6,0.3-3.8c1.4-13.3,2.6-26.5,4.2-39.8c0.9-7.4,2.2-14.7,5.4-21.5
	c0.8-1.7,1.8-3.4,2.7-5.1c0.9-1.7,2.1-3.3,2.8-5c1.3-3,3.9-4.4,6.6-5.4c0.8-0.3,1.9-0.2,2.8,0c4.4,0.8,8,3.1,10.8,6.7
	c1.2,1.5,2.2,3.1,3.3,4.7c1.3,1.8,1.7,3.7,1.7,5.9c0,4.8-1.1,9.3-1.8,14c-1,6.2-1.5,12.5-2.2,18.8c-0.5,4.4-0.9,8.9-1.3,13.4
	c-0.8,9.5-1.6,19-2.4,28.4c-0.7,7.7-1.4,15.4-2.1,23.1c-0.2,1.7-0.6,3.5-0.9,5.2c-1,6.3-2.1,12.6-3,18.9c-0.6,3.9-0.9,7.8-1.3,11.7
	c-0.5,3.6-1,7.3-1.5,10.9c-0.7,4.7-1.4,9.3-2.1,14c-0.9,5.7-1.8,11.4-2.6,17c-1.2,8.1-2.3,16.1-3.4,24.2c-0.7,5.1-1.2,10.1-1.7,15.2
	c-0.5,5.6-0.8,11.3-1.4,16.9c-0.8,7.4-1.7,14.8-2.5,22.1c-0.2,2-0.4,4-0.6,6.1c1.3,0.2,2.5,0.4,3.8,0.5c0.4,0,0.8-0.1,1.1-0.3
	c1.5-1.2,3-2.4,4.3-3.7c0.7-0.7,1.1-1.8,1.2-2.7c0.3-2.2,0.5-4.4,0.6-6.7c0.2-4.5,0.3-9.1,0.5-13.6c0.4-8.7,1.2-17.4,2.4-26
	c1.3-9.4,2.2-18.9,3.5-28.3c0.6-4.6,0.9-9.2,0.9-13.9c0.1-2.8,0.5-5.6,0.7-8.4c0.8-8.1,1.5-16.2,2.4-24.3c0.8-7.2,1.6-14.5,2.4-21.7
	c0.9-8.4,1.7-16.8,2.7-25.2c1.3-10.3,2.6-20.6,4.2-30.8c1.6-10,3.5-20,5.4-30c1.6-8.5,3.4-16.9,4.9-25.4c0.6-3.2,2-5.5,4.8-7.3
	c2.2-1.4,4.3-2.6,6.8-3.4c3.9-1.2,7.2-0.3,10.2,2.3c3.5,3,5.3,6.8,6,11.2c1,6.2,1.9,12.5,1.6,18.8c-0.2,5-1,10-1.9,14.9
	c-1.5,7.5-2.8,15.1-4.1,22.6c-0.9,5-1.8,10.1-2.8,15.1c-1.7,8.5-3.6,16.9-5,25.4c-1.9,10.9-3.4,21.9-5.1,32.9
	c-1.9,12.3-3.9,24.6-5.8,36.9c-1.3,8.1-2.6,16.2-3.7,24.4c-0.6,4.7-1.9,9.2-3,13.8c-0.5,2-0.8,4.1-1,6.1c-0.3,5-0.4,10.1-0.7,15.1
	c-0.3,4.8-0.7,9.6-1,14.3c-0.2,2.5,0,5,0.9,7.3c0.5,1.3,1.2,2.3,2.7,2.4c1.4,0.1,2.5-0.5,3.2-1.7c0.5-1,1.2-2,1.3-3
	c0.5-2.8,0.9-5.7,1.1-8.6c0.6-10.4,1.1-20.7,1.8-31.1c0.6-8.6,1.4-17.2,2.2-25.8c0.5-6,1-11.9,1.7-17.9c0.9-7.1,1.9-14.2,3.1-21.4
	c1.4-8.6,3-17.2,4.3-25.8c1-7,1.8-13.9,2.5-20.9c1-10.4,3.1-20.5,5.3-30.7c1.3-5.9,2.3-11.7,2.2-17.8c-0.1-2.5,0.8-5,1-7.6
	c1-11.5,3.4-22.8,4.9-34.2c0.6-4.8,2.5-9.2,5.2-13.3c1.5-2.3,3.6-3.9,6.3-4.4c4.4-0.8,8.8-0.8,12.8,1.6c2.6,1.6,4,4.1,5.4,6.6
	c1.3,2.4,2.3,5,3,7.6c0.5,2,0.5,4.3,0.4,6.4c-0.2,8.7-1.4,17.3-2.6,26c-0.3,2.2-0.4,4.5-0.7,6.7c-1.1,7.7-2.4,15.3-3.4,23
	c-0.9,6.7-1.3,13.5-2.1,20.3c-0.8,6.9-1.6,13.8-2.4,20.7c-0.6,5.3-1.2,10.6-1.9,15.9c-0.2,1.3-0.6,2.7-1,3.9c-1.1,2.9-1.6,5.8-1,8.9
	c0.2,0.8,0.1,1.6,0.1,2.4c0.2,5.2,0.2,10.4,0.5,15.5c0.4,6.2,1.2,12.4,1.8,18.6c0.5,4.9,0.8,9.9,1.2,14.8c0.1,1.1,0.2,2.2,0.3,3.3
	c0.6,5.2,1.4,10.3,1.7,15.5c0.4,6.9,2.1,13.6,3,20.4c0.7,5.5,1.5,10.9,2.2,16.4c0.3,2.8,0.4,5.6,0.6,8.4c0.1,1.8,0.1,3.5,0.3,5.3
	c0.4,3,1.6,5.7,4.1,7.6c1.5,1.1,2.8,2.3,4.4,3.5c1.4-1.1,2-2.6,2-4.4c0-3.8-0.1-7.5-0.2-11.3c-0.2-7.2-0.2-14.4-0.5-21.6
	c-0.4-8-1.1-15.9-1.6-23.9c-0.2-2.7-0.2-5.4-0.2-8.2c-0.2-6.3-0.2-12.6-0.5-18.9c-0.3-5.7-0.8-11.5-1.2-17.2
	c-0.5-6.9-1.1-13.9-1.6-20.8c-0.5-6.9-1-13.9-1.5-20.8c-0.8-10.4-1.7-20.7-2.3-31.1c-0.3-5.7-0.2-11.3-0.1-17c0-7,0.3-13.9,0.2-20.9
	c-0.1-7.1,0.6-14.2,1.4-21.3c1-8.1,1.9-16.2,3.8-24.1c0.9-4,1.9-8,3.7-11.6c1.8-3.6,4.4-6.5,8.1-8.5c3.5-1.8,7.4-2.8,11.1-2.7
	c6.3,0.1,11.9,2.4,13.9,9.7c1.8,6.6,2.1,13.4,2.3,20.2c0.3,9.5,0.7,19,0.8,28.5c0.1,7.8,0,15.7,0.1,23.5c0.1,11.9,0.1,23.8,0.3,35.7
	c0.1,7-0.1,13.9-0.8,20.8c-0.1,0.8-0.2,1.6-0.1,2.4c0.6,4.1-0.3,8.1-0.4,12.2c0,1.1-0.1,2.2-0.1,3.4c-0.1,4.9-0.2,9.8-0.2,14.6
	c0,7,0.2,14.1,0.1,21.1c-0.1,7.8-0.4,15.5-0.6,23.3c-0.2,10.3-0.2,20.6-0.3,30.9c-0.2,14.5-0.4,28.9-0.4,43.4c0,0.9,0,1.8,0.1,2.7
	h23.6c-1.1-7-0.7-14-1-21.1c-0.6-12.1-1-24.3-1.4-36.4c-0.5-12.9-0.8-25.9-1.3-38.8c-0.3-6.3-0.9-12.6-1.2-18.9
	c-0.3-7.2-0.3-14.4-0.5-21.6c-0.2-6.4-0.7-12.8-0.9-19.1c-0.4-9.6-0.8-19.2-1.2-28.7c-0.5-13.7-0.9-27.3-1.5-41
	c-0.2-5.9-0.8-11.8-1.2-17.7c-0.7-10.6-1.3-21.2-2-31.8c-0.2-3.8,0.1-7.6,1.1-11.2c1.9-7.1,8.9-10.4,15.8-9.5
	c1.4,0.2,2.8,0.6,4.2,0.8c6.5,1.1,10.7,4.9,13.5,10.7c3.2,6.6,4.5,13.6,5.7,20.7c1.8,10.7,3.5,21.5,3.7,32.4
	c0.1,5.6-0.1,11.2,0,16.8c0,3.7,0.4,7.3,0.4,11c0.1,5.6,0.1,11.2,0,16.8c-0.3,9.5-0.9,19-1.2,28.5c-0.3,9.1-0.5,18.2-0.9,27.3
	c-0.3,6.9-0.6,13.7-1,20.6c-0.2,4-0.7,8-0.9,12c-0.3,5.7-0.3,11.3-0.5,17c-0.2,5.5-0.7,11-1,16.5c-0.2,4.1-0.3,8.2-0.2,12.2
	c0.1,5.3,0.5,10.5,0.7,15.8c0,1.8,0.8,3.2,1.8,4.6c0.6,0.8,1.3,1,2.1,0.5c4.5-2.4,7.2-6.3,6.7-11.2c-0.4-4.5-0.5-9.1-0.4-13.7
	c0.1-3.6,0.7-7.1,1-10.7c0.3-3.4,0.6-6.9,0.6-10.3c0.2-6.9,0-13.8,0.3-20.6c0.5-12.1-0.4-24.1-1-36.2c-0.3-6.9-0.5-13.9-0.7-20.9
	c-0.3-12.9-0.6-25.9-1-38.8c0-1.7,0-3.4,0-5c-0.1-11.1-0.1-22.2-0.3-33.3c-0.2-11.9-0.7-23.8-0.9-35.7c-0.1-5.3,0.5-10.5,0.8-15.8
	c0-0.5,0.2-1.1,0.5-1.6c1.9-3.9,4.1-7.7,7.2-10.9c2.5-2.6,5.7-3.5,9.1-3.4c2.6,0.1,5.2,0.5,7.6,1.9c1.8,1,3,2.3,4,4
	c2.4,4.3,3.5,8.9,4.1,13.7c0.7,5.7,1.2,11.5,1.4,17.2c0.5,11.5,0.8,23,1.1,34.5c0.3,10.5,0.6,20.9,0.7,31.4
	c0.1,5.3-0.1,10.6-0.2,15.8c-0.2,8,0.2,16,0.6,24c0.5,9,0.7,18.1,0.8,27.1c0.1,17.7,0.1,35.3-0.1,53c-0.1,7.3-0.9,14.7-1.2,22
	c-0.2,5.8-0.1,11.7,0,17.5c0,1.2,1,2.5,1.5,3.7c0.1,0.2,0.4,0.3,0.6,0.4c1.6,0.5,4.1-0.5,4.9-2c1-2,2-4,2.9-6
	c0.9-2.1,1.2-4.4,1.1-6.8c-0.1-5.2,0.1-10.4-0.1-15.6c-0.2-4.9-0.8-9.9-1.2-14.8c-0.7-6.5-1-13.1-0.9-19.6c0.1-7.2,0-14.4,0-21.6
	c-0.1-10.6-0.3-21.3-0.5-31.9c-0.2-8.8-0.5-17.6-0.8-26.4c-0.3-7.4-0.6-14.9-1.1-22.3c-0.6-9.6-1.4-19.1-2.2-28.7
	c-1.1-12.9-2.2-25.8-3.2-38.7c-0.2-2.4-0.2-4.8,0-7.2c0.1-2.3,0.3-4.6,1.5-6.7c0.3-0.5,0.5-1.2,0.7-1.8c1.7-6.5,6.5-10.2,12.2-13
	c1.6-0.8,3.2-0.7,4.9-0.2c4.3,1.1,7.6,3.6,10.4,6.9c0.6,0.7,1.1,1.8,1.2,2.8c0.7,7.2,1.3,14.5,2,21.7c0.3,3.4,0.7,6.8,0.9,10.3
	c0.4,5.9,0.8,11.8,1.2,17.7c0.7,10.8,1.6,21.5,2,32.3c0.4,9,0.2,18.1,0.2,27.1c0,6.6-0.3,13.1-0.4,19.7c-0.3,12.4-0.5,24.8-0.9,37.1
	c-0.1,3-0.5,6-0.7,9.1c-0.2,3.2-0.5,6.4-0.4,9.6c0.2,11.2-0.3,22.4-1.4,33.5c-1.1,11.4-2.6,22.9-4,34.3c-0.3,2.4-0.7,4.7-0.9,7.1
	c-0.2,3.1,1.1,5.6,3.3,7.7c1.2,1.2,2.7,1.9,4.4,1.2c1.8-0.7,2.3-2.3,2.4-4.1c0.2-2.1,0.2-4.1,0.5-6.2c0.7-4.6,1.6-9.1,2.3-13.7
	c0.3-1.7,0.3-3.5,0.6-5.2c0.6-3.5,1.4-6.9,1.9-10.4c0.7-4.5,1.6-9,1.8-13.5c0.6-9.6,1-19.2,1.2-28.7c0.2-7.9-0.1-15.8-0.2-23.7
	c0-4.8,0-9.6,0-14.4c-0.2-15.7-0.5-31.5-0.6-47.2c0-11,0.4-21.9,0.5-32.9c0.1-5,0-10.1,0.1-15.1c0.4-13.4-0.1-26.8-0.3-40.3
	c0-2.6,0-5.1,0.3-7.7c0.1-1.2,0.6-2.6,1.3-3.5c2.2-2.6,4.5-5.2,7-7.5c2.3-2.2,5.4-3.1,8.6-3.4c3.2-0.3,5.8,1.2,7.3,3.7
	c3.6,6.5,6.8,13.3,8.5,20.5c1.4,5.9,1.7,12,2.1,18.1c0.3,6.4,0.8,12.7,1.2,19.1c0.2,2.9,0.1,5.8,0.2,8.6c0.4,14.2,0.9,28.4,1.3,42.7
	c0.2,6,0.5,12,0.6,18c0.1,7.8,0.1,15.7,0,23.5c-0.1,7.2-0.3,14.4-0.4,21.6c-0.3,11.7-0.4,23.5-0.9,35.2c-0.3,5.2,0,10.4,0.4,15.6
	c0.4,6.5,0.5,12.9,0.2,19.4c-0.2,4.8-0.5,9.6-0.6,14.4c-0.1,4.6-0.2,9.2,0.1,13.8c0.2,4.2,2.7,7.4,5.6,10.3c0.8,0.9,2,1.4,3.3,1.3
	c0.7,0,1.4,0,2.2,0.1c4,0.4,5.4-2,6-5.1c0.6-2.6,0.9-5.2,0.4-8c-0.7-3.6-0.7-7.3-0.9-11c-0.5-7-1.1-14-1.6-21
	c-0.4-5.7-0.8-11.3-1.1-17c-0.5-8.2-1.1-16.4-1.6-24.6c-0.3-4.9-0.5-9.7-0.8-14.6c-0.5-7.5-1.1-15-1.5-22.5
	c-0.4-7.8-0.6-15.7-1-23.5c-0.3-7.7-0.6-15.5-0.9-23.2c-0.2-6.3-0.3-12.6-0.5-18.9c-0.4-9.7-0.8-19.5-1.3-29.2
	c-0.4-7.3-0.9-14.7-1.5-22c-0.4-4.9-1.1-9.7-1.8-14.5c-0.8-5.6-1.5-11.3-1.2-16.9c0.3-5.5,2.8-10.1,6.8-13.9
	c1.6-1.5,3.5-3.1,5.5-3.7c3.4-0.9,7-1,10,1.6c0.7,0.6,1.4,1.1,2.1,1.6c1.6,1.4,2.7,3,3.1,5.2c0.9,4.5,2.2,8.8,3,13.3
	c1.8,10.2,4.5,20.3,5.1,30.7c0.3,5.5,0.7,11,1,16.5c0.4,5.7,1,11.5,1.2,17.2c0.3,7.4,0.4,14.9,0.5,22.3c0.2,7.1,0.4,14.2,0.5,21.3
	c0,1.8,0.1,3.5,0.1,5.3c0.2,7.3,0.4,14.5,0.4,21.8c0,6-0.4,12-0.7,18c-0.3,7.2-0.6,14.4-0.8,21.6c-0.2,7.6-0.5,15.2-0.4,22.8
	c0.1,9.7,0.4,19.5,2,29.1c1.1,6.6,2.2,13.2,3.3,19.8c0.3,1.6,0.9,3.2,1.4,4.8c0.4,1.3,1.3,2.2,2.6,2.6c1.5,0.5,3,1.1,4.7,1.7
	c1-2.4,2.1-4.4,2.8-6.6c1.5-5,2.1-10.1,2.9-15.3c1.3-7.9,1.2-15.7,1.1-23.7c-0.1-7.6,0-15.2-0.2-22.8c-0.2-4.7-0.8-9.4-1.2-14.1
	c-0.8-8.7-1.6-17.3-2.3-26c-0.5-6.5-0.8-13.1-1.3-19.6c0-0.6-0.1-1.1,0-1.7c1.2-5.1,0-10.2-0.4-15.3c-0.6-6.2-1.5-12.4-2-18.6
	c-0.9-9.4-1.6-18.8-2.4-28.2c-0.2-2.5-0.9-4.9-1.2-7.3c-0.2-2.9-0.2-5.7-0.2-8.6c-0.1-8.9,0-17.7-0.2-26.6c-0.2-8.6-0.7-17.2-1-25.9
	c-0.1-2.5-0.1-5,0.3-7.4c0.6-4,1.8-7.8,4-11.2c0.6-1,1.6-1.8,2.7-2.3c4.8-2.2,9.7-2.4,14.5,0.2c1.7,0.9,3,2,3.7,3.9
	c0.9,2.4,2.1,4.7,2.8,7.1c0.8,2.6,1.4,5.2,1.9,7.9c0.7,3.8,1.3,7.6,1.9,11.3c1.3,7.7,1.8,15.4,1.9,23.2c0.2,12.1,0.5,24.1,0.7,36.2
	c0.2,10.2,0.4,20.4,0.6,30.6c0.2,7,0.4,14.1,0.6,21.1c0.1,5.7,0,11.3,0.2,17c0.2,5.3,0.6,10.5,0.9,15.8c0.1,2.5,0.3,4.9,0.4,7.4
	c0.2,4.4,0.3,8.8,0.5,13.2c0.2,5.5,0.4,11,0.6,16.5c0.2,4.5,0.6,9.1,0.8,13.6c0.3,7.2,0.4,14.4,0.9,21.5c0.3,5.7,1,11.3,1.6,16.9
	c0.3,2.4,0.8,4.7,1.5,7c1.4,4.1,5.9,5.2,9.2,3.7c1-0.4,1.6-1.1,1.9-2.3c1.4-5,2.1-10.2,2.4-15.4c0.4-6.9,1-13.9,1-20.8
	c0-9.3,0.1-18.7-0.8-28c-0.5-5.2-0.5-10.4-0.8-15.6c-0.4-6.9-1-13.9-1.3-20.8c-0.5-8.7-1.9-17.3-3.2-25.9c-0.3-1.7-0.2-3.5-0.4-5.3
	c-1.1-7.5-2.3-15-3.3-22.5c-1.1-8.1-2-16.2-2.8-24.3c-0.9-9.7-1.6-19.4-2.3-29.1c-0.4-5.8-0.9-11.7-0.8-17.5
	c0.1-5.4,1-10.8,1.6-16.2c0.5-3.8,1.1-7.6,1.7-11.4c0.5-2.8,1-5.5,1.6-8.2c0.1-0.7,0.4-1.4,0.8-2c2.9-4.2,8.1-7.9,13.9-7.2
	c3.4,0.4,5.7,2.1,7.2,4.8c1.6,2.9,3.1,6,4,9.2c2.4,8.4,3.6,17,3.7,25.8c0,3.5,0.7,7,0.8,10.5c0.2,5.5,0.1,11,0.3,16.5
	c0.1,5.6,0.5,11.2,0.6,16.8c0.1,2.8,0,5.6,0,8.4c0.1,3.5,0.2,7,0.4,10.5c0.2,3,0.4,6,0.7,9.1c0.3,4.7,0.8,9.4,0.9,14.1
	c0.2,5.6,0.1,11.2,0.1,16.8c0,7.9-0.1,15.8,0,23.8c0.2,7.7,0.7,15.5,0.9,23.2c0.2,7.4,0,14.8,0.2,22.3c0.1,7.9,0.5,15.8,0.7,23.7
	c0.1,4.2,0.2,8.5,0.3,12.7c0.2,5.8,0.6,11.6,0.8,17.5c0.2,3.8,0.1,7.7,0.4,11.5c0.3,3.5,0.9,7,1.4,10.4c0.4,2.3,2,3.6,4,4.4
	c1,0.4,2.1,0.6,3.4,1c0.2-1.8,0.4-3.3,0.5-4.9c0.6-7.1,1.1-14.2,1.6-21.3c0.7-9.7,1.5-19.4,1.8-29.2c0.3-11.5,1.1-23-0.3-34.5
	c-1.1-8.4-1.5-16.9-1.9-25.3c-0.5-9.9-0.9-19.8-1-29.7c-0.1-13.2,0.2-26.4,0.4-39.6c0.1-6-0.7-12-1.2-17.9
	c-0.6-8.1-0.7-16.3-1.1-24.4c-0.2-3.7-0.7-7.5-0.9-11.2c-0.3-4.9-0.6-9.9-0.9-14.8c-0.4-8.2-0.7-16.5-1.1-24.7
	c-0.2-4.9,4-10.5,7.8-11.7c5-1.7,8.9-0.3,10.4,5c1.2,4.1,2.1,8.3,2.6,12.7c0.6,4.8,1.6,9.6,2.4,14.4c0.8,4.5,1.5,9,2.2,13.5
	c0.9,5.8,1.9,11.7,2.7,17.5c0.6,4.7,0.9,9.4,1.3,14.1c0.6,6.6,1,13.2,2.3,19.7c0.5,2.7,0.9,5.5,1.2,8.3c1.1,7.9,2.1,15.8,3.1,23.7
	c0.7,5.7,1.3,11.4,1.7,17.2c0.3,4.6,0.4,9.3,0.4,13.9c0.1,10.3,0.2,20.6,0.2,30.9c0,8.8-0.2,17.6-0.2,26.4c0,3.7,0.1,7.4,0.4,11
	c0.5,6.4,1.2,12.9,1.9,19.3c0.4,3.1,0.9,6.2,1.8,9.1c0.8,2.8,2,5.4,5.2,6.3c1.5,0.4,2.6,0.3,3.7-0.7c5-4.4,7.2-10,6.5-16.6
	c-0.5-4.1-1-8.3-1.8-12.3c-0.9-5-1.4-10.1-1.4-15.2c0.1-6.5-0.1-13.1-0.4-19.6c-0.4-10.8-0.5-21.6-1.3-32.3
	c-0.7-9.5-2.1-19-3.3-28.5c-1.1-8.6-2.4-17.1-3.5-25.6c-0.3-2.1-0.4-4.3-0.4-6.5c-0.1-5.6-1.3-11.1-2.3-16.6
	c-0.8-4.3-1.9-8.6-2.6-12.9c-0.6-3.5-0.8-7.1-1.2-10.7c-1.1-9.6-2.3-19.2-3.5-28.8c-0.4-3.4-0.7-6.8-1.2-10.2
	c-1-7.1-2.1-14.2-3.1-21.3c-0.4-3.1-0.9-6.2-1.3-9.3c-0.1-0.9-0.3-1.9-0.5-3.1c-0.9,0-1.8,0-2.7,0c-6.1,0-12.2,0-18.2,0
	c-0.8,0-1.7-0.3-2.5-0.4C485.6,0,256,0,26.4,0c-0.1,3.7-0.3,7.5-0.3,11.2C26.1,21.2,26.1,31.2,26.1,41.2z"/>
<path class="st1" d="M151.3,299.3c-3.7-2.4-7.9-3.5-12.1-4.5c-2.4-0.6-4.6,0.4-6.2,2.3c-1.5,1.8-3.3,3.5-4.6,5.5
	c-0.7,1.1-1.3,2.2-1.8,3.4h29.7c-0.1-0.4-0.3-0.9-0.4-1.3C155.1,302.3,153.3,300.7,151.3,299.3z"/>
<path class="st1" d="M17.4,4.3c-0.5,8.6-1.2,17.2-1.6,25.8c-0.4,8.4-0.4,16.8-0.7,25.2c-0.2,6.3-0.9,12.6-1.1,18.9
	c-0.2,5.5,0.1,11,0,16.5c0,7.7-0.1,15.3-1,23c-0.8,7.3-1.4,14.6-2.1,22c-0.2,2.6-0.6,5.3-0.6,7.9c-0.1,4.3,0,8.6,0.1,12.9
	c0.2,10.4,0.6,20.8,0.8,31.2c0.1,9.3-0.1,18.7,0.1,28.1c0.1,6.7,0.5,13.4,1,20.1c0.4,5.3-0.1,10.6-0.9,15.8c-0.4,2.5-0.1,5,0.4,7.3
	c0.9,4.4,2,8.8,3.4,13c1.3,3.7,3,7.2,4.8,10.7c1.4,2.6,3.8,4.5,6.2,6.2c0.6,0.4,1.3,0.6,2,0.6c3.4,0,6.9,0.1,10.3-0.3
	c4.4-0.5,8.6-2.2,11-6c2.5-4,4.3-8.3,4-13.3c-0.6-7.9-0.9-15.8-1.3-23.7c-0.3-5.2-0.7-10.4-1-15.6c-0.4-6.9-0.5-13.7-1-20.6
	c-0.3-5.3-0.9-10.7-1.3-16c-0.3-2.9-0.7-5.7-0.8-8.6c-0.1-2.7,0.1-5.4,0.3-8.1c1-10.8,2.2-21.6,3-32.5c0.5-6.9,1.1-13.7,2.1-20.5
	c0.7-5.2,1.4-10.5,1.9-15.7c0.7-7.2,1-14.3,1.7-21.5c0.5-5.3,1.1-10.7,2-15.9c0.8-5,2.2-10,3.2-15c0.9-4.1,1.8-8.3,2.5-12.5
	c0.5-3.1,0.8-6.3,1.2-9.5c0.3-1.9,0.6-3.8,1.1-5.6c0.5-1.8,1.7-2.5,2.9-2.3c1.1,0.2,2.1,1.5,2.2,3.1c0.1,2.7,0.1,5.4-0.1,8.2
	c-0.2,3.7-0.6,7.5-0.8,11.2c-0.5,6-0.9,11.9-1.3,17.9c-0.3,4.7-0.5,9.4-0.8,14.1c-0.6,9-1.2,18-1.9,27c-0.7,8.3-1.8,16.5-2.4,24.8
	c-0.6,7.2-0.9,14.4-1.3,21.5c-0.7,10.9-1.2,21.7-1,32.6c0.2,10.9,0.4,21.7,0.6,32.6c0,2.1,0.1,4.2,0,6.2c-0.2,7,0.5,13.9,1.1,20.8
	c0.3,3,0.2,6.1,0.4,9.1c0.3,5.2,0.7,10.4,1.1,15.5c0.1,1.8,0.2,3.7,0.3,5.5c0.2,3.5,0.4,7,0.6,10.5c0.2,3.3,1.6,6.3,2.8,9.4
	c1.4,3.5,3.6,6.6,6.1,9.6h15.7c0.7-0.8,1.3-1.8,1.7-2.9c2.2-5.1,4.1-10.1,4-15.9c-0.3-9.4,0-18.7,0-28.1c0-13.8,0-27.7-0.1-41.5
	c0-4.1-0.6-8.1-0.9-12.2c-0.3-5-0.6-10.1-1-15.1c-0.3-3.2-0.7-6.4-1.2-9.5c-0.7-4.9-0.7-9.9-0.7-14.8c0.1-8.2-0.1-16.3,0-24.5
	c0.1-6.6,0.4-13.1,0.5-19.7c0.1-6.2,0.2-12.5,0.3-18.7c0-2.7,0.2-5.4,0.1-8.1C94,86.8,93.7,78.4,93.7,70c0-3.9,0.3-7.8,0.4-11.7
	c0.3-6.2,0.6-12.5,0.9-18.7c0.2-4.2,0.3-8.5,0.5-12.7c0.1-2,0.5-3.9,0.9-5.9c0.5-2.6,2.2-3.5,4.7-2.7c1.6,0.5,2.8,1.3,3.7,2.8
	c2,3.4,2.9,7.1,3,10.9c0.1,6.5,1.3,12.9,2.1,19.3c0.6,5.4,0.4,10.7,0.2,16c0,1.3,0,2.5,0,3.8c0.1,10.3,0.2,20.6,0.2,30.9
	c0,5-0.2,10.1-0.3,15.1c0,0.8,0.1,1.6,0.2,2.4c0.4,4.5-0.1,8.9-1.2,13.3c-0.6,2.2-0.9,4.6-1.2,6.8c-1,6.5-2.1,13.1-3.1,19.7
	c-1.1,7.8-2.1,15.7-3,23.5c-0.4,3.2-0.3,6.4-0.4,9.6c-0.3,15.5-0.6,31-0.7,46.5c0,7,0.4,14.1,0.7,21.1c0.2,5.9,0.5,11.8,0.9,17.7
	c0.2,2.8,0.9,5.7,1.6,8.4c1.3,4.8,8.6,7.6,12.9,6c5.6-2.1,9.7-5.9,12.3-11.2c1-2,1.2-4.5,1.4-6.8c0.5-6,1-12.1,1.2-18.2
	c0.3-7.5,0.4-15,0.4-22.5c0-4.6-0.3-9.3-0.3-13.9c0-4.3,0.4-8.6,0.4-12.9c0-8.8-0.2-17.6-0.3-26.4c0-2.6,0-5.1,0.2-7.7
	c0.5-7.3,1.2-14.6,1.7-22c0.4-6.4,0.5-12.8,0.8-19.1c0.3-9,0.7-18,1-27.1c0.3-7.4,0.5-14.9,0.9-22.3c0.3-5.6,1.1-11.1,1.6-16.7
	c0.6-7,1.3-14,1.7-21c0.2-3.9,0-7.8,0.1-11.7c0.1-2.7,0.4-5.4,0.8-8.1c0.6-3.5,3.1-5.3,6.5-5c1.8,0.2,3.2,1.1,4.1,2.6
	c1.6,2.6,2.8,5.4,2.8,8.5c0.1,6.5,0.5,12.9,1.2,19.3c0.4,4.3,0.3,8.6,0.1,12.9c-0.4,8.9-1,17.7-1.5,26.6c-0.4,6.4-0.8,12.8-1.3,19.1
	c-0.6,7-1.3,14-2,21c-0.9,8.7-2,17.5-2.6,26.2c-1.1,15.1-2.2,30.3-2.5,45.5c-0.1,6.5-1,12.9-0.9,19.4c0.2,11.3-0.8,22.7,1.4,33.9
	c1.2,6.3,1.9,12.6,2.8,19c0.2,1.2,0.4,2.4,0.6,3.5c0.8,4.9,3.8,8.1,8.1,10.4c1.4,0.7,2.8,1.6,4.1,2.4c5.8,3.5,11.9,5.5,18.7,4.6
	c1.6-0.2,3.3-0.7,4.8-1.3c2.2-0.8,3.3-2.5,3.8-4.8c2.5-10.9,2-21.9,2-32.9c0-1.8,0.2-3.7,0.4-5.5c0.2-2.1,0.4-4.3,0.6-6.4
	c0.8-8.5,1.7-17,2.3-25.5c0.4-5.5,0.4-11,0.6-16.5c0.1-2.2,0.2-4.5,0.2-6.7c0-7.3-0.1-14.6,0-21.8c0.1-5.1,0.7-10.2,0.7-15.3
	c0-9.6,0.9-19.2,1.4-28.7c0.5-8.1,0.8-16.1,1.3-24.2c0.3-4.6,0.6-9.2,0.9-13.8c0-0.6,0-1.3,0-1.9c-0.4-3.3-0.5-6.5,0.3-9.8
	c0.9-3.8,0.7-7.6,0.7-11.4c0-6.5-0.1-12.9,0.8-19.4c0.5-3.8,1.3-7.5,2.5-11.2c0.2-0.6,0.5-1.2,0.6-1.8c0.5-3.7,2.6-6.7,4.9-9.4
	c0.9-1,1.9-2,3-2.7c2.1-1.3,4.6-0.8,5.9,1.3c1.9,3,3.6,6.1,4.1,9.6c0.2,1.6,0.1,3.4,0.4,5c0.6,3.6-0.2,7.2-0.5,10.7
	c-0.6,8.2-1.3,16.4-1.9,24.6c-0.5,5.4-1.2,10.8-1.5,16.2c-0.4,7.8-2.5,15.3-3.8,22.9c-1.5,8.9-2.7,17.8-4.2,26.7
	c-1.5,9.2-1.9,18.6-2.8,27.9c-0.7,6.5-1.5,13-2.2,19.5c-0.9,7.8-2,15.5-2.4,23.3c-0.4,7.1-1.8,14.1-2.7,21.1c-1,7.5-2.4,15-3.5,22.5
	c-0.7,5.3-1.3,10.6-0.9,16c0.2,3,0.7,6,1.9,8.9c0.7,1.6,0.8,3.4,1.5,5c0.7,1.6,1.7,3,2.7,4.4c0.5,0.8,1.4,1.3,1.9,2.1
	c1.5,2.4,3.9,3.2,6.5,3.6c1.7,0.3,3.5,0.5,5.2,0.8c2.5,0.4,4.7-0.4,6.4-2.1c3.2-3.3,6.4-6.8,7.8-11.3c0.9-2.9,1.8-5.8,2.3-8.7
	c0.9-5.3,1.4-10.6,2.4-15.9c0.8-4,0.8-8.1,1.2-12.1c0.6-6.6,0.9-13.2,1.4-19.8c0.2-2.4,0.6-4.7,0.9-7.1c1.5-11.9,3.1-23.8,4.5-35.7
	c0.7-6.7,1-13.4,1.4-20.1c0.3-3.9,0.8-7.8,0.7-11.7c-0.2-7.4,1.1-14.6,1.3-22c0.1-3.2,0.5-6.4,0.7-9.5c0.4-5.6,0.7-11.2,1.2-16.7
	c1-10.7,1.9-21.5,3.1-32.2c0.5-4.4,1.4-8.7,2.3-13c1-4.5,0.6-9,0.3-13.6c-0.2-2.8,0-5.7,0.2-8.6c0.1-1,0.4-2,0.8-3
	c1.6-3.8,5.9-4.6,8.5-1.4c0.9,1.1,1.7,2.6,2.1,4c1.5,5.3,1.5,10.7,1.1,16.2c-0.4,4.8-1,9.5-1.5,14.3c-1.4,13.9-2.8,27.8-4.3,41.7
	c-0.9,8.4-1.9,16.8-3.1,25.2c-0.9,6.2-2.3,12.2-3.4,18.4c-1.6,9.1-3.1,18.3-4.7,27.4c-1.6,9-3.3,18.1-4.9,27.1
	c-0.6,3.6-1.2,7.3-1.8,10.9c-0.7,4.3-1.4,8.7-2,13c-0.7,5.2-1.4,10.5-1.7,15.7c-0.4,7.3-1,14.5-2.2,21.7c-0.6,3.8-1.1,7.6-1.1,11.4
	c-0.1,7.2,1.2,14.2,5.1,20.4c1.2,1.9,2.8,3.5,4.5,4.9c2.5,2,5.4,1.5,8.2,0.3c4.1-1.8,6.4-5.3,8.2-9.2c1.6-3.6,2.3-7.5,3.2-11.3
	c0.3-1.5,0.4-3,0.4-4.5c0.1-9.4,0.8-18.7,1.7-28c0.5-5.1,1.6-10.1,2.9-15c1.6-6.3,2.3-12.7,2.6-19.2c0.2-4.1,0.7-8.1,1.2-12.2
	c1.2-10.7,2.3-21.4,3.6-32.1c1.5-11.5,3.1-23,4.8-34.4c0.7-4.9,0.9-9.8,0.9-14.8c0-6.4,0.7-12.7,1.7-19.1c0.5-3.3,0.6-6.7,0.9-10
	c0.6-5.6,1.3-11.1,1.9-16.7c0.7-7,1.4-14,2-21c0.1-1.4-0.3-2.8-0.5-4.3c-0.7-4.5-0.3-8.9,1.2-13.2c1-2.6,2.6-4.6,5.4-5.4
	c3.4-1.1,6.8,0,8.5,3.1c1.1,1.9,1.8,4.1,2.1,6.3c0.5,3,0.5,6,0.7,9.1c0.2,3.3-1.1,6.3-1.7,9.4c-0.6,3.3-1.4,6.6-2,9.9
	c-0.7,3.6-1.2,7.3-1.9,10.9c-1.6,7.7-3.3,15.3-4.9,23c-2,9.6-4.1,19.2-5.9,28.9c-1.1,5.8-1.8,11.7-2.8,17.5
	c-0.4,2.3-1.1,4.5-1.5,6.8c-0.5,2.7-0.8,5.4-1.2,8c-0.2,1.3-0.7,2.5-0.9,3.7c-0.5,2.7-0.9,5.3-1.4,8c-1.6,9.4-3.6,18.7-4.6,28.1
	c-0.3,3.3-1.3,6.6-2,9.9c-1.6,7.4-3.5,14.8-4.9,22.2c-0.9,4.5-1.2,9-1.6,13.5c-0.5,5.9-0.9,11.8-1.3,17.7c-0.3,3.9-0.6,7.8-1,11.7
	c-0.2,2.5,0.5,4.9,1.3,7.2c1,2.7,2.1,5.4,3.1,8.1c1.8,4.8,5.3,7.5,10.3,8c4.9,0.4,8.8-1.4,12.1-5.3c3.7-4.4,5.4-9.5,6.7-14.9
	c3.3-14,4.7-28.2,5.7-42.5c0.4-5.7,1.1-11.5,1.5-17.2c0.7-10.3,1.3-20.6,2.1-30.8c0.4-5.3,1.4-10.5,1.7-15.7
	c0.4-6.2,1.2-12.2,2.2-18.3c0.3-1.9,0.3-3.8,0.3-5.7c0-3.3,0.6-6.5,1.3-9.7c1.2-5.5,1.9-11,2.8-16.5c0.1-0.6,0.1-1.1,0.2-1.7
	c1.7-7,1.8-14.1,2-21.2c0.2-6.2,0.6-12.4,1.1-18.7c0.6-8.2,2.3-16.3,3.6-24.4c0.9-5.3,1.5-10.6,1.9-15.9c0.4-4.6,1.8-8.7,4.2-12.6
	c0.4-0.6,0.8-1.2,1.4-1.6c1.6-1.4,3.1-1,4,0.9c1.5,3,1.9,6.3,2.1,9.5c0.2,3.7,0.5,7.5-0.3,11.2c-0.3,1.5-0.1,3-0.3,4.5
	c-0.5,4.6-1.1,9.2-1.7,13.8c-0.9,6.8-1.6,13.6-2.7,20.4c-1.6,9.9-2.6,19.9-3.9,29.9c-0.8,6.2-2.2,12.3-3.4,18.4
	c-1,5.3-2.5,10.6-3,16c-0.5,5-0.3,10.1,0.2,15.1c0.8,8.5,1.9,17,3,25.5c0.8,6.2,1.8,12.5,2.3,18.7c0.3,4.9-0.1,9.9-0.1,14.8
	c0,4.9-0.1,9.7,0.8,14.5c1.2,6.2,2,12.5,2.9,18.7c1.2,7.8,3.2,15.5,5.7,23c0.1,0.4,0.2,0.8,0.4,1.1c2.3,4.8,4.5,9.7,7,14.4
	c0.8,1.4,1.6,2.8,2.6,4h20.1c0-0.2,0.1-0.4,0.1-0.6c0.4-4.1,0.9-8.3,1-12.4c0.1-5.2-0.2-10.4-0.5-15.6c-0.5-8.6-1-17.2-0.2-25.9
	c0.3-3.2,0.2-6.3-0.3-9.5c-0.4-2.5-0.1-5.1,0.1-7.6c0.7-6.4,0-12.8-0.4-19.2c-0.4-7.5-1.3-14.9-2.4-22.4c-1.1-7.4-1.3-14.9-2.1-22.4
	c-0.7-6-1.1-11.9-1.2-17.9c-0.1-5.1-0.1-10.2-0.2-15.4c-0.1-6-0.4-12-0.4-18c0-3.9,0.3-7.8,0.3-11.7c0-7-0.1-14.1-0.1-21.1
	c0-7,0.4-13.9,1.2-20.8c0.5-3.6,0.3-7.3,0.5-11c0.2-4.5,0.7-8.9,1.8-13.3c0.9-3.8,2.3-7.3,5.6-9.9c2.4,0.3,5,0.5,6.6,2.9
	c0.5,0.8,1.1,1.8,1.2,2.7c1.1,10.5,2.2,21,3,31.5c0.7,8.1,0.5,16.3,0,24.5c-0.2,3.4-0.3,6.7-0.5,10.1c-0.3,6-0.8,12-1,17.9
	c-0.3,7.1-0.6,14.2-0.7,21.3c-0.2,9.7-0.4,19.3-0.5,29c-0.1,11.4-0.2,22.7-0.2,34.1c0,11.3,0,22.5,0,33.8c0,5.4,0,10.7,0,16.1
	c0,2.3,0.1,4.6,0.2,6.9c0.5,9-0.5,18-0.9,27.1c0,0.3,0,0.6,0,1c0,5.3-0.2,10.5-0.2,15.8h14.7c0-0.9-0.1-1.8-0.1-2.7
	c0.1-14.5,0.3-28.9,0.4-43.4c0.1-10.3,0.2-20.6,0.3-30.9c0.1-7.8,0.5-15.5,0.6-23.3c0.1-7-0.1-14.1-0.1-21.1c0-4.9,0.1-9.8,0.2-14.6
	c0-1.1,0.1-2.2,0.1-3.4c0.1-4.1,0.9-8.1,0.4-12.2c-0.1-0.8,0-1.6,0.1-2.4c0.7-6.9,0.9-13.9,0.8-20.8c-0.2-11.9-0.2-23.8-0.3-35.7
	c0-7.8,0.1-15.7-0.1-23.5c-0.2-9.5-0.6-19-0.8-28.5c-0.2-6.8-0.5-13.6-2.3-20.2c-2-7.3-7.7-9.6-13.9-9.7c-3.7-0.1-7.5,0.9-11.1,2.7
	c-3.7,2-6.3,4.9-8.1,8.5c-1.8,3.6-2.8,7.6-3.7,11.6c-1.9,7.9-2.9,16-3.8,24.1c-0.8,7.1-1.5,14.1-1.4,21.3c0.1,7-0.2,13.9-0.2,20.9
	c0,5.7-0.2,11.4,0.1,17c0.6,10.4,1.5,20.7,2.3,31.1c0.5,6.9,0.9,13.9,1.5,20.8c0.5,6.9,1.1,13.9,1.6,20.8c0.4,5.7,0.9,11.5,1.2,17.2
	c0.3,6.3,0.4,12.6,0.5,18.9c0.1,2.7,0.1,5.4,0.2,8.2c0.5,8,1.2,15.9,1.6,23.9c0.3,7.2,0.4,14.4,0.5,21.6c0.1,3.8,0.2,7.5,0.2,11.3
	c0,1.8-0.6,3.4-2,4.4c-1.6-1.3-3-2.4-4.4-3.5c-2.5-1.9-3.7-4.5-4.1-7.6c-0.2-1.7-0.2-3.5-0.3-5.3c-0.2-2.8-0.2-5.6-0.6-8.4
	c-0.6-5.5-1.5-10.9-2.2-16.4c-0.9-6.8-2.6-13.5-3-20.4c-0.3-5.2-1.1-10.3-1.7-15.5c-0.1-1.1-0.2-2.2-0.3-3.3
	c-0.4-4.9-0.8-9.9-1.2-14.8c-0.6-6.2-1.4-12.4-1.8-18.6c-0.4-5.2-0.4-10.4-0.5-15.5c0-0.8,0-1.6-0.1-2.4c-0.6-3.1-0.1-6,1-8.9
	c0.5-1.3,0.9-2.6,1-3.9c0.7-5.3,1.3-10.6,1.9-15.9c0.8-6.9,1.7-13.8,2.4-20.7c0.7-6.7,1.2-13.5,2.1-20.3c1-7.7,2.3-15.3,3.4-23
	c0.3-2.2,0.4-4.4,0.7-6.7c1.1-8.6,2.4-17.2,2.6-26c0-2.1,0.1-4.4-0.4-6.4c-0.7-2.6-1.7-5.2-3-7.6c-1.4-2.5-2.8-5.1-5.4-6.6
	c-4-2.5-8.4-2.4-12.8-1.6c-2.7,0.5-4.8,2.1-6.3,4.4c-2.7,4.1-4.6,8.5-5.2,13.3c-1.5,11.4-4,22.7-4.9,34.2c-0.2,2.5-1.1,5.1-1,7.6
	c0.1,6.1-0.9,11.9-2.2,17.8c-2.2,10.2-4.3,20.3-5.3,30.7c-0.7,7-1.5,14-2.5,20.9c-1.3,8.6-2.9,17.2-4.3,25.8
	c-1.1,7.1-2.2,14.2-3.1,21.4c-0.7,5.9-1.2,11.9-1.7,17.9c-0.8,8.6-1.6,17.2-2.2,25.8c-0.7,10.4-1.2,20.7-1.8,31.1
	c-0.2,2.9-0.6,5.7-1.1,8.6c-0.2,1.1-0.8,2.1-1.3,3c-0.7,1.2-1.8,1.8-3.2,1.7c-1.5-0.1-2.2-1.1-2.7-2.4c-0.9-2.4-1.1-4.8-0.9-7.3
	c0.3-4.8,0.7-9.6,1-14.3c0.3-5,0.4-10.1,0.7-15.1c0.1-2.1,0.5-4.1,1-6.1c1.1-4.6,2.3-9.1,3-13.8c1.1-8.2,2.4-16.3,3.7-24.4
	c1.9-12.3,3.9-24.6,5.8-36.9c1.7-11,3.2-22,5.1-32.9c1.5-8.5,3.4-16.9,5-25.4c1-5,1.9-10,2.8-15.1c1.4-7.5,2.7-15.1,4.1-22.6
	c1-4.9,1.7-9.9,1.9-14.9c0.3-6.3-0.7-12.6-1.6-18.8c-0.7-4.4-2.5-8.2-6-11.2c-3-2.6-6.3-3.5-10.2-2.3c-2.5,0.8-4.6,2-6.8,3.4
	c-2.7,1.8-4.2,4.1-4.8,7.3c-1.5,8.5-3.3,16.9-4.9,25.4c-1.9,10-3.8,19.9-5.4,30c-1.6,10.2-2.9,20.5-4.2,30.8
	c-1,8.4-1.8,16.8-2.7,25.2c-0.8,7.2-1.7,14.4-2.4,21.7c-0.8,8.1-1.6,16.2-2.4,24.3c-0.3,2.8-0.7,5.6-0.7,8.4
	c-0.1,4.6-0.3,9.2-0.9,13.9c-1.3,9.4-2.1,18.9-3.5,28.3c-1.2,8.6-2,17.3-2.4,26c-0.2,4.5-0.3,9.1-0.5,13.6c-0.1,2.2-0.3,4.5-0.6,6.7
	c-0.1,1-0.6,2-1.2,2.7c-1.3,1.4-2.9,2.5-4.3,3.7c-0.3,0.2-0.7,0.4-1.1,0.3c-1.2-0.1-2.5-0.3-3.8-0.5c0.2-2.2,0.4-4.2,0.6-6.1
	c0.8-7.4,1.8-14.7,2.5-22.1c0.6-5.6,0.9-11.3,1.4-16.9c0.5-5.1,1.1-10.2,1.7-15.2c1.1-8.1,2.2-16.1,3.4-24.2
	c0.8-5.7,1.8-11.4,2.6-17c0.7-4.7,1.4-9.3,2.1-14c0.5-3.6,1.1-7.3,1.5-10.9c0.5-3.9,0.8-7.8,1.3-11.7c0.9-6.3,2-12.6,3-18.9
	c0.3-1.7,0.7-3.5,0.9-5.2c0.7-7.7,1.4-15.4,2.1-23.1c0.8-9.5,1.6-19,2.4-28.4c0.4-4.5,0.8-8.9,1.3-13.4c0.7-6.3,1.3-12.6,2.2-18.8
	c0.7-4.7,1.8-9.2,1.8-14c0-2.1-0.4-4.1-1.7-5.9c-1.1-1.5-2.2-3.2-3.3-4.7c-2.7-3.6-6.3-5.8-10.8-6.7c-0.9-0.2-2-0.3-2.8,0
	c-2.8,1.1-5.4,2.4-6.6,5.4c-0.7,1.8-1.9,3.3-2.8,5c-0.9,1.7-1.9,3.3-2.7,5.1c-3.2,6.8-4.5,14.2-5.4,21.5
	c-1.6,13.2-2.8,26.5-4.2,39.8c-0.1,1.3-0.2,2.6-0.3,3.8c-0.8,8-1.5,15.9-2.3,23.9c-0.8,7.7-1.5,15.4-2.4,23.1
	c-0.4,4.1-1.1,8.2-1.4,12.4c-0.5,7.3-0.7,14.5-1,21.8c-0.2,5.3-0.4,10.5-0.6,15.8c-0.5,11.3-0.9,22.7-1.4,34
	c-0.3,8.8-0.6,17.6-0.9,26.4c-0.1,5-0.2,10.1-0.2,15.1c0,3.4-0.9,6.4-2.8,9.2c-4,6-4.9,5.8-11.5,5.7c-1.4,0-2.1-0.6-2.8-1.7
	c-2-3.4-2.2-7.1-1.8-10.9c0.2-2.1,0.7-4.3,0.9-6.4c0.9-8.9,1.8-17.8,2.7-26.7c0.8-8.4,1.5-16.9,2.3-25.3c0.5-5.6,1-11.1,1.7-16.7
	c0.8-6.8,1.9-13.6,2.5-20.4c0.9-9.5,1.6-18.9,2.3-28.4c0.4-5.6,0.7-11.2,1.1-16.8c0.4-5.9,0.9-11.8,1.3-17.7
	c0.4-5.3,0.8-10.5,1.3-15.8c0.6-6.2,1.3-12.4,2-18.6c1.1-9.6,2.2-19.2,3.2-28.8c0.6-6,1.2-12.1,1.2-18.2c0-6.3-2.3-11.5-6.6-15.9
	c-2.9-2.9-6.2-4.8-10.4-4.2c-1.2,0.2-2.6,0-3.5,0.5c-2.1,1.4-4.1,3.1-6,4.7c-0.5,0.4-0.7,1.1-0.9,1.6c-1.1,3.8-2.2,7.5-3.2,11.3
	c-1.4,5.5-2.8,11-4.1,16.5c-0.9,3.9-1.9,7.8-2.5,11.7c-1.2,8.9-2.1,17.8-3.1,26.7c-0.5,4.4-1.1,8.9-1.5,13.3
	c-0.5,7.5-0.9,15-1.3,22.5c-0.5,8.5-1,16.9-1.4,25.4c-0.3,6.3-0.4,12.6-0.6,18.9c-0.1,5-0.3,10.1-0.3,15.1
	c0.1,6.7,0.5,13.4,0.6,20.1c0.1,15,0.6,30.1-0.9,45.1c-0.9,8.2-1.7,16.4-2.6,24.6c-0.4,3.5-1.4,7-1.4,10.4c0,5-2.4,7.9-6.9,9.4
	c-0.2,0-0.3,0.1-0.4,0.2c-0.8,0.3-1.5,0.1-1.9-0.5c-1.1-1.8-2.5-3.6-3.2-5.6c-1.5-4.2-2.6-8.5-3.8-12.8c-2.1-7.2-2.9-14.6-3.7-22
	c-0.7-6.6-1.1-13.2-2-19.8c-1-6.8-1-13.5-0.7-20.3c0.3-5.1,0.6-10.2,0.7-15.3c0.2-6.7,0.3-13.4,0.5-20.1c0.1-3.3,0.4-6.5,1.3-9.7
	c1.4-4.9,1.9-10,1.9-15.2c0-2.3-0.1-4.6,0-7c0.3-5,0.7-10,1-15.1c0.7-11.6,0.6-23.2,0.5-34.8c0-3.4,0-6.9-0.1-10.3
	c-0.3-10.9-0.6-21.7-0.8-32.6c-0.1-6,0.1-12-0.1-18c-0.1-4.4,0-8.8-2.8-12.6c-0.3-0.4-0.3-0.9-0.5-1.3c-1.1-2-2.1-4-3.2-5.8
	c-1.9-3.1-5.3-3.6-8.3-4.8c-0.2-0.1-0.5,0-0.7,0c-4.8,0.4-10.6,4.9-11.4,10.4c-0.7,4.8-1.5,9.6-2.3,14.4c-0.2,1.5-0.4,3-0.6,4.5
	c-0.2,2.5-0.2,5-0.5,7.4c-0.9,8.5-1.9,17-2.7,25.5c-0.5,4.9-0.6,9.9-0.9,14.8c-0.5,8.6-1.1,17.2-1.6,25.8c-0.3,4.4-0.3,8.8-0.6,13.2
	c-0.7,9.2-1.4,18.3-1.8,27.5c-0.4,11.5-1,23-1.4,34.5c-0.4,10.3-0.4,20.6-0.9,30.9c-0.5,10.6,0.7,21.1,1.6,31.6
	c0.3,3.7,0.8,7.5,0.9,11.2c0,6.9-1.2,13.7-3.2,20.3c-0.5,1.7-1.3,3.1-2.7,4.1c-1.5,1.1-3.9,0.7-4.7-1c-0.4-0.8-0.6-1.7-0.8-2.5
	c-1.4-6.1-1.8-12.4-1.7-18.6c0.3-13.6,0.6-27.2,1.2-40.7c0.5-10.8,1.6-21.5,2.4-32.3c0.4-5.8,0.7-11.6,1.1-17.5
	c0.4-6.2,1-12.4,1.5-18.6c0.4-4.9,0.6-9.9,1-14.8c0.7-7.7,1.6-15.4,2.2-23.1c0.8-10.6,1.3-21.2,1.8-31.8c0.3-5.7,0.2-11.5,0.4-17.3
	c0.2-7.6,0.5-15.2-0.6-22.7c-1.2-8-2.5-16-3.8-23.9c-0.2-1.3-0.6-2.6-1-3.9c-0.9-3-3.3-4.6-5.6-6.4c-1.6-1.2-3.4-2-5.3-2
	c-2.4,0-4.7,0.4-7.1,0.8c-0.4,0.1-0.9,0.3-1.2,0.7c-1.3,1.7-2.8,3.3-3.9,5.1c-3.2,5.5-4.8,11.7-5.6,18c-1,7.6-1.6,15.3-1.9,22.9
	c-0.5,12.3-0.6,24.6-1,36.9c-0.2,7.3-0.6,14.5-1,21.8c-0.3,6.5-1,13.1-0.5,19.6c0.2,2.3,0.1,4.6,0.1,7c0.1,6.5,0,13,0.2,19.4
	c0.2,10.2,0.5,20.3,0.8,30.4c0.3,11,0.7,22.1,1.1,33.1c0.2,5.9,0.6,11.8,0.8,17.7c0.3,8.7,0.5,17.4,0.6,26.1
	c0.1,10.3,0.6,20.6-0.8,30.9c-0.1,0.5-0.2,1.1-0.4,1.6c-1.2,2.9-3.4,3.3-5.6,1.2c-2.5-2.3-3.8-5.1-4.1-8.4c-0.1-1.7-0.2-3.4-0.3-5
	c-0.5-8.5-1.1-16.9-1.6-25.4c-0.4-5.8-0.9-11.6-0.4-17.5c0.3-3.9,0.4-7.8-0.1-11.7c-0.5-3.9-0.7-7.8-0.8-11.7
	c-0.1-2.2,0.4-4.5,0.4-6.7c0.1-9.4,0.8-18.8,1.6-28.2c0.9-9.5,1.5-19,1.3-28.5c-0.1-6.2-0.4-12.3-0.4-18.5c0-9,0.3-18.1,0.5-27.1
	c0-0.8,0.2-1.6,0.3-2.4c0.8-4.7,1.7-9.4,2.2-14.2c0.9-7.9,1.5-15.9,2.1-23.9c0.4-5.3,0.7-10.6,0.5-15.8c-0.3-6.9-0.1-13.7,0.4-20.6
	c0.3-4.8,0-9.4-1-14c-0.7-3.2-2.3-5.6-4.7-7.6C72.2,4.5,66.6,5.2,64,11c-1.2,2.6-2,5.4-2.5,8.2c-1.1,5.3-1.8,10.7-2.7,16
	c-1.6,9.5-3.4,19-4.7,28.6c-1,6.8-1.5,13.6-2.2,20.5c-0.5,5.4-0.9,10.8-1.6,16.2c-0.6,4.9-1.7,9.8-2.3,14.7
	c-1.3,10.8-2.7,21.6-3.7,32.4c-1.2,13.7-0.8,27.5-0.7,41.2c0.1,12.9,0.6,25.7,0.9,38.6c0.1,5.7,0,11.4,0.2,17c0.2,7.7-0.5,15.3-1,23
	c-0.2,3.4-2.8,6.3-6.1,7.2c-0.6,0.2-1.5,0.1-2-0.2c-3.3-1.7-5.3-4.3-5.3-8.2c0-1.9,0.1-3.8,0.1-5.8c0-6.6,0.3-13.3-1-19.8
	c-0.3-1.6-0.8-3.1-0.9-4.7c-0.8-9.3-1.4-18.6-2.1-28c-0.5-6.2-0.7-12.5-1.7-18.6c-1-6.2-1.4-12.4-1.5-18.6c0-1.8,0.4-3.5,0.2-5.3
	c-1-7.1-0.9-14.2-0.9-21.3c0-4.4,0.1-8.8,0.3-13.2c0.3-5.8,0.9-11.6,1.2-17.5c0.3-5.3,0.3-10.5,0.7-15.8C25.5,86.2,26,74.6,26.1,63
	c0-7.3,0-14.5,0-21.8c0-10,0-20,0-30c0-3.7,0.2-7.5,0.3-11.2c-3,0-6.1,0-9.1,0C17.3,1.4,17.5,2.9,17.4,4.3z"/>
<path class="st1" d="M447.8,302.6c-2.1,0.5-3.7,1.7-4.5,3.4h16.5c-1.6-1-3.3-1.7-5-2.4C452.5,302.8,450.3,302,447.8,302.6z"/>
<path class="st1" d="M735.9,0.4c0.9,0,1.7,0,2.7,0c0.2,1.2,0.4,2.2,0.5,3.1c0.4,3.1,0.9,6.2,1.3,9.3c1,7.1,2.1,14.2,3.1,21.3
	c0.5,3.4,0.8,6.8,1.2,10.2c1.2,9.6,2.3,19.2,3.5,28.8c0.4,3.6,0.6,7.2,1.2,10.7c0.7,4.3,1.8,8.6,2.6,12.9c1,5.5,2.2,11,2.3,16.6
	c0,2.2,0.1,4.3,0.4,6.5c1.1,8.6,2.4,17.1,3.5,25.6c1.2,9.5,2.6,19,3.3,28.5c0.8,10.8,0.9,21.6,1.3,32.3c0.2,6.5,0.4,13.1,0.4,19.6
	c-0.1,5.1,0.4,10.2,1.4,15.2c0.8,4.1,1.3,8.2,1.8,12.3c0.7,6.6-1.4,12.2-6.5,16.6c-1.1,1-2.2,1.1-3.7,0.7c-3.2-1-4.4-3.6-5.2-6.3
	c-0.9-3-1.4-6.1-1.8-9.1c-0.8-6.4-1.4-12.9-1.9-19.3c-0.3-3.7-0.4-7.3-0.4-11c0-8.8,0.2-17.6,0.2-26.4c0-10.3-0.1-20.6-0.2-30.9
	c0-4.6-0.1-9.3-0.4-13.9c-0.4-5.7-1-11.4-1.7-17.2c-1-7.9-2-15.8-3.1-23.7c-0.4-2.8-0.7-5.5-1.2-8.3c-1.2-6.5-1.7-13.1-2.3-19.7
	c-0.4-4.7-0.7-9.4-1.3-14.1c-0.8-5.9-1.7-11.7-2.7-17.5c-0.7-4.5-1.5-9-2.2-13.5c-0.8-4.8-1.9-9.6-2.4-14.4
	c-0.5-4.3-1.4-8.5-2.6-12.7c-1.6-5.4-5.4-6.7-10.4-5c-3.7,1.3-8,6.8-7.8,11.7c0.4,8.2,0.7,16.5,1.1,24.7c0.2,4.9,0.5,9.9,0.9,14.8
	c0.3,3.7,0.8,7.5,0.9,11.2c0.4,8.1,0.4,16.3,1.1,24.4c0.5,6,1.2,11.9,1.2,17.9c-0.2,13.2-0.5,26.4-0.4,39.6c0.1,9.9,0.5,19.8,1,29.7
	c0.4,8.4,0.9,16.9,1.9,25.3c1.4,11.5,0.6,23,0.3,34.5c-0.2,9.7-1.1,19.4-1.8,29.2c-0.5,7.1-1.1,14.2-1.6,21.3
	c-0.1,1.6-0.3,3.1-0.5,4.9c-1.3-0.4-2.4-0.6-3.4-1c-2-0.8-3.7-2.1-4-4.4c-0.6-3.5-1.1-6.9-1.4-10.4c-0.3-3.8-0.3-7.7-0.4-11.5
	c-0.3-5.8-0.6-11.6-0.8-17.5c-0.2-4.2-0.2-8.5-0.3-12.7c-0.2-7.9-0.5-15.8-0.7-23.7c-0.1-7.4,0-14.8-0.2-22.3
	c-0.2-7.7-0.7-15.5-0.9-23.2c-0.2-7.9,0-15.8,0-23.8c0-5.6,0-11.2-0.1-16.8c-0.1-4.7-0.6-9.4-0.9-14.1c-0.2-3-0.5-6-0.7-9.1
	c-0.2-3.5-0.3-7-0.4-10.5c-0.1-2.8,0.1-5.6,0-8.4c-0.2-5.6-0.5-11.2-0.6-16.8c-0.1-5.5-0.1-11-0.3-16.5c-0.1-3.5-0.8-7-0.8-10.5
	c-0.1-8.8-1.3-17.4-3.7-25.8c-0.9-3.2-2.4-6.3-4-9.2c-1.5-2.7-3.8-4.4-7.2-4.8c-5.9-0.7-11.1,3-13.9,7.2c-0.4,0.6-0.7,1.3-0.8,2
	c-0.6,2.7-1.1,5.5-1.6,8.2c-0.6,3.8-1.3,7.6-1.7,11.4c-0.6,5.4-1.5,10.8-1.6,16.2c-0.1,5.8,0.4,11.7,0.8,17.5
	c0.7,9.7,1.4,19.4,2.3,29.1c0.8,8.1,1.7,16.2,2.8,24.3c1,7.5,2.2,15,3.3,22.5c0.3,1.7,0.2,3.5,0.4,5.3c1.3,8.6,2.7,17.2,3.2,25.9
	c0.4,6.9,0.9,13.9,1.3,20.8c0.3,5.2,0.3,10.4,0.8,15.6c1,9.3,0.9,18.7,0.8,28c0,6.9-0.6,13.9-1,20.8c-0.3,5.2-1,10.3-2.4,15.4
	c-0.3,1.1-0.9,1.8-1.9,2.3c-3.3,1.5-7.8,0.4-9.2-3.7c-0.8-2.2-1.3-4.6-1.5-7c-0.7-5.6-1.3-11.3-1.6-16.9c-0.4-7.2-0.5-14.3-0.9-21.5
	c-0.2-4.5-0.6-9.1-0.8-13.6c-0.3-5.5-0.4-11-0.6-16.5c-0.2-4.4-0.3-8.8-0.5-13.2c-0.1-2.5-0.2-4.9-0.4-7.4
	c-0.3-5.3-0.8-10.5-0.9-15.8c-0.2-5.7-0.1-11.3-0.2-17c-0.1-7-0.4-14.1-0.6-21.1c-0.2-10.2-0.4-20.4-0.6-30.6
	c-0.3-12.1-0.6-24.1-0.7-36.2c-0.1-7.8-0.6-15.5-1.9-23.2c-0.6-3.8-1.2-7.6-1.9-11.3c-0.5-2.7-1.1-5.3-1.9-7.9
	c-0.8-2.4-1.9-4.7-2.8-7.1c-0.7-1.8-2.1-3-3.7-3.9c-4.8-2.6-9.7-2.4-14.5-0.2c-1,0.5-2.1,1.3-2.7,2.3c-2.2,3.4-3.5,7.2-4,11.2
	c-0.3,2.4-0.3,5-0.3,7.4c0.3,8.6,0.8,17.2,1,25.9c0.2,8.9,0.1,17.7,0.2,26.6c0,2.9,0,5.8,0.2,8.6c0.2,2.5,0.9,4.9,1.2,7.3
	c0.9,9.4,1.5,18.8,2.4,28.2c0.6,6.2,1.5,12.4,2,18.6c0.4,5.1,1.6,10.1,0.4,15.3c-0.1,0.5,0,1.1,0,1.7c0.4,6.5,0.7,13.1,1.3,19.6
	c0.7,8.7,1.5,17.3,2.3,26c0.4,4.7,1.1,9.4,1.2,14.1c0.2,7.6,0.2,15.2,0.2,22.8c0.1,7.9,0.2,15.8-1.1,23.7
	c-0.8,5.1-1.4,10.3-2.9,15.3c-0.7,2.2-1.8,4.2-2.8,6.6c-1.8-0.6-3.2-1.1-4.7-1.7c-1.3-0.5-2.2-1.4-2.6-2.6c-0.5-1.6-1.1-3.2-1.4-4.8
	c-1.2-6.6-2.2-13.2-3.3-19.8c-1.6-9.7-1.9-19.4-2-29.1c-0.1-7.6,0.2-15.2,0.4-22.8c0.2-7.2,0.5-14.4,0.8-21.6c0.2-6,0.6-12,0.7-18
	c0-7.3-0.3-14.5-0.4-21.8c0-1.8,0-3.5-0.1-5.3c-0.2-7.1-0.4-14.2-0.5-21.3c-0.2-7.4-0.2-14.9-0.5-22.3c-0.2-5.7-0.8-11.5-1.2-17.2
	c-0.4-5.5-0.7-11-1-16.5c-0.6-10.4-3.3-20.5-5.1-30.7c-0.8-4.5-2.1-8.9-3-13.3c-0.4-2.2-1.5-3.8-3.1-5.2c-0.7-0.6-1.4-1.1-2.1-1.6
	c-3-2.5-6.6-2.4-10-1.6c-2,0.5-3.9,2.2-5.5,3.7c-3.9,3.7-6.4,8.3-6.8,13.9c-0.4,5.7,0.4,11.3,1.2,16.9c0.7,4.8,1.4,9.7,1.8,14.5
	c0.6,7.3,1.1,14.7,1.5,22c0.5,9.7,1,19.5,1.3,29.2c0.3,6.3,0.3,12.6,0.5,18.9c0.3,7.7,0.6,15.5,0.9,23.2c0.3,7.8,0.5,15.7,1,23.5
	c0.4,7.5,1,15,1.5,22.5c0.3,4.9,0.5,9.7,0.8,14.6c0.5,8.2,1,16.4,1.6,24.6c0.4,5.7,0.7,11.3,1.1,17c0.5,7,1.1,14,1.6,21
	c0.3,3.7,0.3,7.4,0.9,11c0.5,2.8,0.2,5.4-0.4,8c-0.7,3.1-2.1,5.4-6,5.1c-0.7-0.1-1.4-0.1-2.2-0.1c-1.3,0.1-2.4-0.4-3.3-1.3
	c-2.8-2.9-5.4-6.1-5.6-10.3c-0.2-4.6-0.2-9.2-0.1-13.8c0.1-4.8,0.4-9.6,0.6-14.4c0.3-6.5,0.3-12.9-0.2-19.4
	c-0.4-5.2-0.6-10.3-0.4-15.6c0.6-11.7,0.7-23.5,0.9-35.2c0.2-7.2,0.4-14.4,0.4-21.6c0.1-7.8,0.1-15.7,0-23.5c-0.1-6-0.4-12-0.6-18
	c-0.4-14.2-0.9-28.4-1.3-42.7c-0.1-2.9-0.1-5.8-0.2-8.6c-0.4-6.4-0.8-12.7-1.2-19.1c-0.3-6.1-0.6-12.1-2.1-18.1
	c-1.7-7.3-4.9-14-8.5-20.5c-1.4-2.6-4-4.1-7.3-3.7c-3.2,0.3-6.2,1.2-8.6,3.4c-2.5,2.3-4.8,4.9-7,7.5c-0.8,0.9-1.2,2.3-1.3,3.5
	c-0.3,2.5-0.4,5.1-0.3,7.7c0.3,13.4,0.7,26.8,0.3,40.3c-0.1,5,0,10.1-0.1,15.1c-0.2,11-0.6,21.9-0.5,32.9c0,15.7,0.4,31.5,0.6,47.2
	c0.1,4.8,0,9.6,0,14.4c0.1,7.9,0.3,15.8,0.2,23.7c-0.2,9.6-0.6,19.2-1.2,28.7c-0.3,4.5-1.1,9-1.8,13.5c-0.5,3.5-1.3,6.9-1.9,10.4
	c-0.3,1.7-0.3,3.5-0.6,5.2c-0.7,4.6-1.6,9.1-2.3,13.7c-0.3,2-0.3,4.1-0.5,6.2c-0.1,1.7-0.6,3.4-2.4,4.1c-1.7,0.6-3.1-0.1-4.4-1.2
	c-2.2-2.1-3.5-4.6-3.3-7.7c0.2-2.4,0.6-4.7,0.9-7.1c1.4-11.4,2.9-22.8,4-34.3c1.1-11.1,1.6-22.3,1.4-33.5c-0.1-3.2,0.2-6.4,0.4-9.6
	c0.2-3,0.6-6,0.7-9.1c0.3-12.4,0.6-24.8,0.9-37.1c0.1-6.6,0.4-13.1,0.4-19.7c0-9,0.2-18.1-0.2-27.1c-0.4-10.8-1.3-21.5-2-32.3
	c-0.4-5.9-0.7-11.8-1.2-17.7c-0.2-3.4-0.6-6.8-0.9-10.3c-0.7-7.2-1.3-14.5-2-21.7c-0.1-1-0.6-2.1-1.2-2.8c-2.8-3.3-6.1-5.8-10.4-6.9
	c-1.7-0.4-3.3-0.5-4.9,0.2c-5.7,2.7-10.5,6.4-12.2,13c-0.2,0.6-0.4,1.2-0.7,1.8c-1.2,2.1-1.4,4.4-1.5,6.7c-0.1,2.4-0.2,4.8,0,7.2
	c1,12.9,2.2,25.8,3.2,38.7c0.8,9.6,1.6,19.1,2.2,28.7c0.5,7.4,0.8,14.8,1.1,22.3c0.3,8.8,0.6,17.6,0.8,26.4
	c0.2,10.6,0.4,21.3,0.5,31.9c0.1,7.2,0.1,14.4,0,21.6c-0.1,6.6,0.3,13.1,0.9,19.6c0.5,4.9,1,9.9,1.2,14.8c0.2,5.2,0,10.4,0.1,15.6
	c0.1,2.4-0.2,4.6-1.1,6.8c-0.9,2-1.9,4-2.9,6c-0.8,1.6-3.2,2.5-4.9,2c-0.2-0.1-0.5-0.2-0.6-0.4c-0.5-1.2-1.5-2.5-1.5-3.7
	c-0.2-5.8-0.2-11.7,0-17.5c0.3-7.3,1.1-14.7,1.2-22c0.2-17.7,0.2-35.3,0.1-53c0-9-0.3-18.1-0.8-27.1c-0.4-8-0.8-16-0.6-24
	c0.2-5.3,0.3-10.6,0.2-15.8c-0.2-10.5-0.4-20.9-0.7-31.4c-0.3-11.5-0.6-23-1.1-34.5c-0.2-5.7-0.8-11.5-1.4-17.2
	c-0.5-4.8-1.7-9.4-4.1-13.7c-1-1.7-2.2-3-4-4c-2.4-1.3-5-1.8-7.6-1.9c-3.4-0.1-6.6,0.8-9.1,3.4c-3.1,3.2-5.3,7-7.2,10.9
	c-0.2,0.5-0.4,1.1-0.5,1.6c-0.3,5.3-0.8,10.5-0.8,15.8c0.1,11.9,0.7,23.8,0.9,35.7c0.2,11.1,0.2,22.2,0.3,33.3c0,1.7,0,3.4,0,5
	c0.3,12.9,0.6,25.9,1,38.8c0.2,7,0.4,13.9,0.7,20.9c0.5,12.1,1.5,24.1,1,36.2c-0.3,6.9-0.1,13.8-0.3,20.6c-0.1,3.4-0.3,6.9-0.6,10.3
	c-0.3,3.6-0.9,7.1-1,10.7c-0.1,4.5,0,9.1,0.4,13.7c0.4,4.8-2.2,8.7-6.7,11.2c-0.8,0.4-1.5,0.3-2.1-0.5c-1-1.4-1.7-2.8-1.8-4.6
	c-0.1-5.3-0.5-10.5-0.7-15.8c-0.1-4.1,0-8.2,0.2-12.2c0.3-5.5,0.7-11,1-16.5c0.3-5.7,0.3-11.3,0.5-17c0.2-4,0.7-8,0.9-12
	c0.4-6.9,0.7-13.7,1-20.6c0.3-9.1,0.5-18.2,0.9-27.3c0.4-9.5,0.9-19,1.2-28.5c0.2-5.6,0.1-11.2,0-16.8c0-3.7-0.4-7.3-0.4-11
	c-0.1-5.6,0.1-11.2,0-16.8c-0.2-10.9-1.9-21.6-3.7-32.4c-1.2-7.1-2.5-14.2-5.7-20.7c-2.8-5.7-7-9.6-13.5-10.7
	c-1.4-0.2-2.8-0.6-4.2-0.8c-6.9-0.9-13.8,2.4-15.8,9.5c-1,3.6-1.3,7.4-1.1,11.2c0.7,10.6,1.3,21.2,2,31.8c0.4,5.9,1,11.8,1.2,17.7
	c0.6,13.7,1,27.3,1.5,41c0.4,9.6,0.7,19.2,1.2,28.7c0.3,6.4,0.7,12.8,0.9,19.1c0.3,7.2,0.2,14.4,0.5,21.6c0.3,6.3,0.9,12.6,1.2,18.9
	c0.5,12.9,0.9,25.9,1.3,38.8c0.4,12.1,0.8,24.3,1.4,36.4c0.3,7-0.1,14.1,1,21.1H430c-0.1-2.6-0.3-5.1-0.4-7.7
	c-0.2-5.3-0.4-10.5-0.7-15.8c-0.4-6.1-1.1-12.1-1.5-18.1c-0.3-5.5-0.3-11-0.5-16.5c-0.3-10.2-0.6-20.5-0.9-30.7
	c-0.3-9.6-0.5-19.2-0.8-28.8c-0.2-4.8-0.6-9.6-0.7-14.4c-0.2-5.8-0.1-11.7-0.2-17.5c-0.2-8.1-0.5-16.1-0.7-24.2
	c-0.1-1.9-0.1-3.8-0.1-5.8c0.2-5.9-0.7-11.8-1.3-17.7c-0.8-7-1.8-13.9-1.8-21c0-7.6-0.8-15.2-1-22.7c-0.2-6.8-1-13.6-0.2-20.4
	c0.2-1.7-0.2-3.5-0.2-5.3c0-2.3,0-4.6,0.1-6.9c0.1-0.9,0.4-1.9,0.8-2.7c1-2,2.7-2.8,4.8-2.1c3.6,1.2,6.1,3.6,7.4,7.3
	c2.5,7.2,3.1,14.6,3.9,22.1c0.2,1.7,0.2,3.4,0.5,5c1.6,10.5,1.2,21.1,1.1,31.6c0,5-0.7,10-1,15.1c-0.8,11.2-1.5,22.5-2.2,33.7
	c-0.3,4.1-0.5,8.1-0.7,12.2c-0.1,1.4,0.1,2.9,0.2,4.3c0.4,11.5-0.5,23-2.1,34.4c-0.7,4.8-0.6,9.7-0.8,14.6
	c-0.2,3.9-0.4,7.8-0.5,11.7c0,3.1,0.2,6.2,0.3,9.3c0.3,6,0.7,12,0.7,18c0.1,4.4-0.3,8.8-0.4,13.2c-0.1,3.4-0.2,6.9,0.1,10.3
	c0.4,4.4,1,8.7,1.8,13.1c0.2,1.4,1,2.8,1.8,4.1c0.4,0.6,1.1,1.2,1.8,1.4c2.4,0.7,4.8,1.4,7.3,0.5c2.8-1.1,5.7-2.2,8.3-3.6
	c1.3-0.7,2.6-2,3.4-3.3c2.8-4.4,5.5-8.8,6.9-13.9c0.6-2.2,1.7-4.3,2.8-6.4c1.1-2.1,1.7-4.3,1.9-6.6c0.6-6.4,1.1-12.9,1.8-19.3
	c0.5-4.2-0.1-8.3-0.5-12.4c-0.4-5-1.2-10-1.2-15c-0.1-4.8,0.6-9.6,0.8-14.4c0.4-8.6,0.9-17.2,1.2-25.9c0.4-10.2,0-20.5-1-30.7
	c-0.7-7.2-1.6-14.3-2.4-21.4c-0.1-1-0.2-2.1-0.2-3.1c-0.1-6.2,0-12.5-0.2-18.7c-0.2-5.6-0.8-11.1-1-16.7c-0.3-6.9-0.6-13.9-0.8-20.9
	c-0.2-6.6-0.4-13.3-0.2-19.9c0.1-4.5,0.7-9.1,2.4-13.4c0.5-1.2,0.9-2.4,1.5-3.5c0.4-0.9,1-1.9,2-1.7c0.9,0.2,2.1,0.8,2.5,1.5
	c1.8,3.2,3.2,6.7,3.7,10.3c0.3,2.3-0.2,4.8-0.4,7.1c-0.4,4.4-0.9,8.7-1.2,13.1c-0.1,1.5,0.2,3,0.2,4.5c0.2,6.1,0.4,12.1,0.5,18.2
	c0,6-0.1,12-0.3,18c-0.2,7.5,0.3,15,0.8,22.5c0.4,6.7,1.1,13.4,1.5,20.1c0.1,2.6-0.3,5.3-0.4,7.9c-0.1,4-0.1,8-0.2,12
	c-0.1,4.8-0.2,9.6-0.2,14.4c-0.1,7.4,0,14.7-0.3,22.1c-0.3,7.7-1,15.5-1.2,23.2c-0.3,12.1-0.6,24.3-0.5,36.5
	c0,7.4,0.4,14.9,0.9,22.3c0.3,4.6,1.5,9.1,3.2,13.5c1.5,4.2,4.5,6.2,8.2,7.6c2.1,0.9,4.4,1.3,6.7,1.9c0.3,0.1,0.6,0.1,0.9,0.1
	c3.4-0.2,8.7-4.2,9.9-7.4c0.4-1,0.6-2.2,1.2-3.1c1.6-2.6,1.6-5.4,1.7-8.3c0.2-5.2,0.6-10.4,1-15.5c0.6-7.5,1.6-14.9,2-22.4
	c0.3-5.3,0.1-10.7,0.1-16.1c0-3.4-0.3-6.8-0.8-10.2c-0.6-4-0.7-8.1-0.9-12.2c-0.3-5.3-0.5-10.5-0.6-15.8c-0.1-6.6-0.1-13.1-0.2-19.7
	c-0.1-7.3-0.4-14.6-0.4-21.8c0-9.2-0.9-18.4-1.7-27.5c-0.7-8.4-1.7-16.9-2.1-25.3c-0.3-5-0.9-10-1.6-15c-0.2-1.3-0.2-2.7-0.2-4.1
	c0.2-7.9-0.6-15.8-1.7-23.7c-0.7-4.7-0.6-9.4,0.9-14c0.4-1.1,0.4-2.4,0.8-3.5c0.4-1.3,0.9-2.6,1.7-3.7c1.7-2.3,4.8-2.3,6.6-0.1
	c0.7,0.9,1.3,2,1.7,3.1c2.4,6.2,2.8,12.6,2.3,19.1c-0.1,2.2-0.4,4.3-0.4,6.5c0.1,14.9,0.3,29.7,0.5,44.6c0.1,4.4,0.3,8.8,0.4,13.2
	c0,2.2-0.1,4.5-0.1,6.7c0.1,6.6,0.3,13.3,0.3,19.9c0,11.8,0.1,23.7-0.4,35.5c-0.4,11.6-0.2,23.2-0.1,34.8
	c0.1,11.4-0.3,22.9-1.4,34.3c-0.5,5.7-1.3,11.4-2.4,17.1c-0.8,3.7-0.8,7.5-0.6,11.2c0.3,4.8,0.5,9.6,1,14.3c0.2,1.7,0.8,3.4,1.3,5.1
	c1.6,5.6,10.6,9.2,15.8,4.4c3.7-3.4,6.7-7.2,8.7-11.8c2.2-4.9,3.2-10,4-15.2c0.8-5.8,1.9-11.5,2.8-17.2c1.6-10.7,3.3-21.5,3.1-32.4
	c-0.2-8.8,0-17.6-0.1-26.4c-0.1-7.5-0.3-15-0.4-22.5c-0.1-5.8,0.1-11.7,0-17.5c-0.2-12.1-0.6-24.3-0.6-36.4c0-6.8,0.6-13.6,0.8-20.4
	c0.2-8.5,0.4-17.1,0.5-25.7c0.1-8.5,0.2-16.9,0.2-25.4c0-3.1-0.1-6.2,0.1-9.3c0.1-1.7,0.4-3.3,0.9-4.9c0.6-2,1.9-3.5,3.9-4.2
	c2-0.8,3.7-0.3,4.7,1.6c0.7,1.3,1.3,2.8,1.6,4.2c0.4,2,0.5,4.1,0.6,6.2c0.5,10.2,0.7,20.4,2.1,30.6c0.6,4.2,0.6,8.4,0.7,12.7
	c0.2,15.6,0.5,31.2,0.5,46.8c0,5.7-0.6,11.3-0.9,17c-0.3,5.4-0.5,10.9-0.7,16.3c-0.2,5.3-0.4,10.6-0.3,15.8
	c0.1,7.3,0.6,14.5,0.9,21.8c0.2,4.6,0.4,9.1,0.5,13.7c0.1,6.6,0.1,13.3,0,19.9c-0.1,11.8,0.7,23.5,1,35.2c0.2,8.3,1.8,16.4,3.1,24.5
	c0.8,4.9,2.9,9.3,5.9,13.3h22c1.6-1.7,2.9-3.9,3.8-6.1c1.6-3.9,2.9-7.9,3.4-12.2c0.5-4.3,0.6-8.6,0.3-12.9
	c-0.6-10.3-1.3-20.6-2.1-30.8c-0.5-6.4-1.4-12.7-2.2-19.1c-1.1-9-1.1-18-1.4-27.1c-0.2-5.8-0.8-11.6-1-17.5
	c-0.4-9.8-0.7-19.7-1.1-29.5c-0.4-8.5-0.9-17.1-1.7-25.6c-0.6-7.2-1.6-14.5-2.4-21.7c-0.4-3.6-1.1-7.3-1.4-10.9
	c-0.3-4.6-0.2-9.3-0.2-13.9c0-3.2,0.2-6.4,0.1-9.6c-0.2-7.2-0.8-14.4-0.9-21.6c-0.1-4.5-1.2-8.7-2.2-12.9c-0.5-2.1-0.8-4.3-0.8-6.4
	c0-1.5,0.2-3,0.7-4.5c1.3-4,5.3-5.3,8.6-2.6c1.3,1.1,2.4,2.6,3.3,4.1c1.3,2.5,2.2,5.1,2.3,8c0,1.5,0.5,3,0.8,4.5
	c1,6.1,2,12.1,2.8,18.2c0.5,3.6,0.5,7.3,0.7,11c0.4,6.4,0.9,12.7,1.2,19.1c0.2,3.4,0.3,6.9,0.4,10.3c0.1,6.7,0.1,13.4,0.1,20.1
	c0,4.4,0,8.8,0.1,13.2c0.1,3.3,0.3,6.5,0.3,9.8c0.1,4.1,0,8.1,0,12.2c-0.1,7.4-0.1,14.7-0.4,22.1c-0.2,6.5-0.8,12.9-1.1,19.4
	c-0.3,8-0.7,16-0.6,23.9c0.1,6.9,1,13.7,1.3,20.6c0.4,8.7,1.3,17.4,1.2,26.1c-0.1,5.5,0.8,11,1.4,16.4c0.5,4.8,3.5,7.7,7.6,9.7
	c2.4,1.2,4.9,2.4,7.8,2.1c0.2,0,0.3,0,0.5,0.1c3.2,1.1,5.9-0.1,8.5-1.8c2.1-1.4,4.4-2.6,6.6-3.8c2.2-1.2,3.9-2.8,5.4-4.7
	c0.7-0.8,1.3-1.7,1.5-2.7c0.6-2.3,1.2-4.7,1.4-7c0.7-8.1,0.6-16.1-0.4-24.2c-0.9-7.1-1.6-14.3-2.5-21.4c-0.4-3.2-1.2-6.3-2-9.4
	c-2.3-8.6-3.2-17.3-3.4-26.1c-0.2-7.7-0.5-15.5-1.1-23.2c-1.1-14.3-2.5-28.5-3.7-42.7c-0.9-10.3-2-20.7-2.9-31
	c-1.1-12.7-2.1-25.5-2.9-38.3c-0.3-5.7,0-11.4,0.1-17c0.1-3.7,0.1-7.4,0.3-11c0.1-1.9,0.4-3.8,1-5.6c0.7-2.3,2.3-3.9,4.4-5.1
	c3.8-2.2,9.3,1.6,8.9,5.7c-0.3,3.5,0.1,7,0.3,10.5c0.8,13.1,1.7,26.2,2.4,39.2c0.4,7,0.5,14.1,0.7,21.1c0.3,9.1,0.5,18.2,0.7,27.3
	c0.3,10.5,0.5,20.9,0.8,31.4c0.2,6.2,0.6,12.3,0.7,18.5c0.1,6.2,0,12.5,0.1,18.7c0.1,6,0.3,12,0.4,18c0.1,5,0.3,9.9,0.5,14.9
	c0.3,8.5,0.7,16.9,1,25.4c0.3,6.8,1,13.5,2.1,20.3c0.5,3.4,1,6.8,2,10.1c1.3,4.2,3.4,8,7.7,9.9c0.7,0.3,1.5,0.6,2.3,0.7
	c4.3,0.3,8.6,0.6,12.9,0.8c2.1,0.1,3.5-1.4,4.9-2.7c2.2-2.1,3-4.9,4.2-7.5c1.7-3.8,2-7.9,2.1-12c0.1-4.6,0.2-9.1,0.3-13.7
	c0.1-2.2,0.4-4.3,0.4-6.5c0-4.9-0.2-9.9-0.4-14.8c-0.4-8.8-0.8-17.6-1.3-26.3c-0.2-3-0.5-5.9-0.7-8.8c-0.3-4.4-0.6-8.8-0.7-13.2
	c-0.1-6.9-0.8-13.7-1.9-20.5c-0.1-0.8-0.3-1.6-0.3-2.4c0-8.5-2.5-16.6-4.4-24.7c-1.2-5-1.8-10-2-15.2c-0.2-6.6-0.7-13.2-0.9-19.9
	c-0.4-11.4-0.5-22.9-1-34.3c-0.4-9.1,0.3-18.2,0.8-27.3c0.2-3.8,0.4-7.7,1-11.4c0.3-2.3,1.2-4.5,2.1-6.6c0.6-1.4,1.9-2,3.6-2.2
	c1.4,4.1,2.2,8.3,2.3,12.5c0.4,12.2,0.9,24.4,1.1,36.7c0.1,7.1-0.4,14.2-0.2,21.3c0.3,9.7,0.9,19.3,1.4,29c0.1,1.7,0.7,3.5,0.9,5.2
	c0.5,5.3,1,10.6,1.5,16c0.6,6.5,1.1,13.1,1.7,19.6c0.9,10.8,1.2,21.6,0,32.3c-1,9.4-1.1,18.8-0.4,28.2c0.6,7.8,1.3,15.6,2,23.4
	c0,0.6,0.1,1.1,0,1.7c-1.1,4.6-0.1,9.2,0.2,13.8c0.4,7.5,1,15,1.3,22.5c0.3,8.3,2.6,15.9,6.8,22.9c0.3,0.5,0.7,1,1,1.5h18.7
	c0.3-0.4,0.5-0.8,0.8-1.2c2.6-4.2,3.1-8.8,3.3-13.5c0.3-6.1,0.4-12.1,0.7-18.2c0.2-3.7,0.7-7.3,0.9-11c0.2-3.1,0.1-6.2,0.1-9.3
	c0-3.5,0.1-7,0.1-10.6c0-4.9-0.2-9.8-0.2-14.6c0.2-14.6,0.5-29.1,0.6-43.7c0-7.6-0.3-15.2-0.5-22.8c-0.2-6.4-0.4-12.8-0.9-19.2
	c-0.6-7.7-1.6-15.4-2.4-23.1c-0.8-8.4-1.6-16.9-2.2-25.3c-0.8-11.6-1.5-23.3-2.3-34.9c-0.3-4.6-0.9-9.2-1.3-13.8
	c-0.1-1.6-0.1-3.2-0.1-4.8c0-2.2-0.1-4.3-0.1-6.5c0-1,0.1-2.1,0.3-3.1c0.2-1,0.7-1.9,1.8-2c1.1-0.1,1.7,0.7,2.1,1.6
	c0.2,0.5,0.4,1,0.6,1.6c2.1,6.3,2.9,12.7,2.5,19.4c-0.1,1.6-0.1,3.2,0.2,4.8c1,5.1,2.2,10.1,3.3,15.2c1.1,5.3,1.8,10.7,2.1,16.1
	c0.2,3.7,0.7,7.3,1,11c0.6,5.9,1.2,11.8,1.9,17.6c0.4,3.8,1.1,7.6,1.5,11.4c0.7,6.4,1.2,12.9,1.8,19.3c0.3,3.2,0.6,6.4,0.9,9.5
	c0.8,7.9,1.5,15.7,2.4,23.6c0.9,7.8,0.1,15.6,0.1,23.5c0,8.6,0.1,17.1,0.1,25.7c0,3.6,0.1,7.2,0.2,10.8c0.3,8.3,0.7,16.6,1.1,24.9
	c0.1,2.4,0.2,4.8,0.3,7.2c0,0.6,0.1,1.1,0.3,1.6c1.4,3.4,3,6.8,5.6,9.4c1.5,1.5,3.5,2.6,5.5,3.3c2.5,0.9,5.1,1.1,7.8,0.6
	c2.5-0.5,5.1-0.5,7.6-0.7c1.5-0.1,2.6-0.9,3.7-2c6.2-6.4,8.4-14.6,9.9-23c0.4-2.2,0.7-4.4,0.9-6.6c0.7-7.5-0.7-15-1.4-22.4
	c-0.5-5.7-1-11.5-1.4-17.2c-0.4-6.3-0.7-12.6-1-18.9c-0.3-5.2-0.6-10.4-0.9-15.5c-0.3-4.6-0.6-9.2-0.9-13.9c-0.2-3.7-0.5-7.3-0.5-11
	c-0.1-12.3-1.9-24.4-4-36.4c-1.3-7.1-2.4-14.3-3.3-21.5c-0.7-5.8-0.8-11.6-1.3-17.4c-0.6-6.9-1.3-13.8-2-20.8
	c-0.8-8-1.6-16.1-2.4-24.1c-0.7-6.6-1.3-13.2-2.1-19.8c-0.5-4.3-1.1-8.6-1.7-12.8c-0.1-0.8,0-1.6-0.1-2.4c-14.7,0-29.4,0-44.2,0
	c0.8,0.1,1.7,0.4,2.5,0.4C723.8,0.5,729.8,0.4,735.9,0.4z"/>
<path class="st1" d="M617.4,305.7c-0.4,0.1-0.7,0.2-1.1,0.3h10.8C624.1,305.1,620.8,305,617.4,305.7z"/>
<path class="st0" d="M338.8,287.6c-0.2-0.4-0.3-0.7-0.4-1.1c-2.4-7.5-4.5-15.2-5.7-23c-1-6.2-1.8-12.5-2.9-18.7
	c-0.9-4.8-0.8-9.7-0.8-14.5c0-4.9,0.5-9.9,0.1-14.8c-0.4-6.3-1.5-12.5-2.3-18.7c-1-8.5-2.2-17-3-25.5c-0.4-5-0.6-10.1-0.2-15.1
	c0.5-5.4,2-10.7,3-16c1.2-6.1,2.6-12.2,3.4-18.4c1.3-10,2.3-20,3.9-29.9c1.1-6.8,1.8-13.6,2.7-20.4c0.6-4.6,1.2-9.2,1.7-13.8
	c0.2-1.5,0-3.1,0.3-4.5c0.9-3.7,0.5-7.5,0.3-11.2c-0.2-3.3-0.6-6.5-2.1-9.5c-0.9-1.9-2.4-2.3-4-0.9c-0.5,0.5-1,1-1.4,1.6
	c-2.4,3.8-3.8,8-4.2,12.6c-0.5,5.3-1.1,10.7-1.9,15.9c-1.3,8.1-3,16.2-3.6,24.4c-0.5,6.2-0.8,12.4-1.1,18.7
	c-0.2,7.1-0.3,14.2-2,21.2c-0.1,0.5-0.1,1.1-0.2,1.7c-0.9,5.5-1.6,11.1-2.8,16.5c-0.7,3.2-1.3,6.4-1.3,9.7c0,1.9,0,3.9-0.3,5.7
	c-1,6.1-1.8,12.2-2.2,18.3c-0.3,5.3-1.3,10.5-1.7,15.7c-0.8,10.3-1.3,20.6-2.1,30.8c-0.4,5.7-1.1,11.5-1.5,17.2
	c-1.1,14.3-2.4,28.5-5.7,42.5c-1.3,5.4-3,10.5-6.7,14.9c-3.3,4-7.2,5.8-12.1,5.3c-5-0.5-8.5-3.2-10.3-8c-1-2.7-2.1-5.4-3.1-8.1
	c-0.9-2.3-1.6-4.7-1.3-7.2c0.4-3.9,0.7-7.8,1-11.7c0.5-5.9,0.8-11.8,1.3-17.7c0.4-4.5,0.8-9.1,1.6-13.5c1.4-7.4,3.3-14.8,4.9-22.2
	c0.7-3.3,1.6-6.5,2-9.9c1-9.5,3-18.8,4.6-28.1c0.5-2.7,0.9-5.3,1.4-8c0.2-1.2,0.7-2.5,0.9-3.7c0.5-2.7,0.7-5.4,1.2-8
	c0.4-2.3,1.1-4.5,1.5-6.8c1-5.8,1.7-11.7,2.8-17.5c1.9-9.7,3.9-19.3,5.9-28.9c1.6-7.7,3.3-15.3,4.9-23c0.7-3.6,1.2-7.2,1.9-10.9
	c0.6-3.3,1.4-6.6,2-9.9c0.6-3.1,2-6.1,1.7-9.4c-0.2-3-0.2-6.1-0.7-9.1c-0.4-2.2-1.1-4.4-2.1-6.3c-1.7-3.1-5.2-4.1-8.5-3.1
	c-2.8,0.9-4.4,2.8-5.4,5.4c-1.6,4.3-1.9,8.7-1.2,13.2c0.2,1.4,0.7,2.9,0.5,4.3c-0.6,7-1.3,14-2,21c-0.6,5.6-1.3,11.1-1.9,16.7
	c-0.4,3.3-0.4,6.7-0.9,10c-1,6.3-1.8,12.7-1.7,19.1c0,5-0.2,9.9-0.9,14.8c-1.7,11.5-3.3,22.9-4.8,34.4c-1.4,10.7-2.5,21.4-3.6,32.1
	c-0.4,4-1,8.1-1.2,12.2c-0.3,6.5-1,12.9-2.6,19.2c-1.3,5-2.4,9.9-2.9,15c-0.9,9.3-1.7,18.6-1.7,28c0,1.5-0.1,3.1-0.4,4.5
	c-0.9,3.8-1.5,7.7-3.2,11.3c-1.8,3.9-4.1,7.4-8.2,9.2c-2.8,1.2-5.6,1.7-8.2-0.3c-1.7-1.4-3.4-3-4.5-4.9c-3.9-6.2-5.2-13.2-5.1-20.4
	c0-3.8,0.5-7.7,1.1-11.4c1.2-7.2,1.8-14.4,2.2-21.7c0.3-5.3,1-10.5,1.7-15.7c0.6-4.4,1.3-8.7,2-13c0.6-3.6,1.1-7.3,1.8-10.9
	c1.6-9,3.3-18.1,4.9-27.1c1.6-9.1,3.1-18.3,4.7-27.4c1.1-6.1,2.5-12.2,3.4-18.4c1.2-8.4,2.2-16.8,3.1-25.2
	c1.5-13.9,2.9-27.8,4.3-41.7c0.5-4.8,1.1-9.5,1.5-14.3c0.5-5.4,0.4-10.9-1.1-16.2c-0.4-1.4-1.1-2.9-2.1-4c-2.6-3.2-6.9-2.4-8.5,1.4
	c-0.4,1-0.8,2-0.8,3c-0.2,2.9-0.5,5.8-0.2,8.6c0.4,4.6,0.7,9-0.3,13.6c-0.9,4.3-1.8,8.6-2.3,13c-1.2,10.7-2.1,21.5-3.1,32.2
	c-0.5,5.6-0.8,11.2-1.2,16.7c-0.2,3.2-0.6,6.4-0.7,9.5c-0.2,7.3-1.5,14.6-1.3,22c0.1,3.9-0.5,7.8-0.7,11.7
	c-0.5,6.7-0.7,13.4-1.4,20.1c-1.3,11.9-2.9,23.8-4.5,35.7c-0.3,2.4-0.8,4.7-0.9,7.1c-0.5,6.6-0.8,13.2-1.4,19.8
	c-0.4,4-0.4,8.1-1.2,12.1c-1,5.3-1.5,10.6-2.4,15.9c-0.5,3-1.4,5.9-2.3,8.7c-1.4,4.6-4.6,8-7.8,11.3c-1.7,1.7-3.9,2.5-6.4,2.1
	c-1.7-0.3-3.5-0.5-5.2-0.8c-2.6-0.4-4.9-1.2-6.5-3.6c-0.5-0.8-1.4-1.3-1.9-2.1c-1-1.4-2-2.9-2.7-4.4c-0.7-1.6-0.9-3.4-1.5-5
	c-1.2-2.9-1.6-5.8-1.9-8.9c-0.4-5.4,0.1-10.7,0.9-16c1-7.5,2.4-15,3.5-22.5c1-7,2.4-14,2.7-21.1c0.4-7.8,1.5-15.6,2.4-23.3
	c0.7-6.5,1.5-13,2.2-19.5c1-9.3,1.3-18.6,2.8-27.9c1.5-8.9,2.7-17.9,4.2-26.7c1.3-7.6,3.4-15.1,3.8-22.9c0.3-5.4,1-10.8,1.5-16.2
	c0.7-8.2,1.4-16.4,1.9-24.6c0.2-3.6,1.1-7.1,0.5-10.7c-0.3-1.6-0.1-3.4-0.4-5c-0.5-3.6-2.2-6.7-4.1-9.6c-1.3-2-3.9-2.6-5.9-1.3
	c-1.1,0.7-2.2,1.6-3,2.7c-2.3,2.8-4.4,5.7-4.9,9.4c-0.1,0.6-0.4,1.2-0.6,1.8c-1.3,3.6-2.1,7.4-2.5,11.2c-0.8,6.4-0.8,12.9-0.8,19.4
	c0,3.8,0.2,7.7-0.7,11.4c-0.8,3.2-0.7,6.5-0.3,9.8c0.1,0.6,0.1,1.3,0,1.9c-0.3,4.6-0.6,9.2-0.9,13.8c-0.4,8.1-0.8,16.1-1.3,24.2
	c-0.5,9.6-1.4,19.1-1.4,28.7c0,5.1-0.6,10.2-0.7,15.3c-0.1,7.3,0,14.5,0,21.8c0,2.2-0.1,4.5-0.2,6.7c-0.2,5.5-0.2,11-0.6,16.5
	c-0.6,8.5-1.5,17-2.3,25.5c-0.2,2.1-0.4,4.3-0.6,6.4c-0.2,1.8-0.4,3.7-0.4,5.5c0,11,0.5,22.1-2,32.9c-0.5,2.3-1.6,4-3.8,4.8
	c-1.6,0.6-3.2,1.1-4.8,1.3c-6.8,0.9-13-1.1-18.7-4.6c-1.4-0.8-2.7-1.7-4.1-2.4c-4.3-2.2-7.2-5.5-8.1-10.4c-0.2-1.2-0.5-2.4-0.6-3.5
	c-0.9-6.3-1.6-12.7-2.8-19c-2.2-11.3-1.3-22.6-1.4-33.9c-0.1-6.5,0.8-12.9,0.9-19.4c0.3-15.2,1.5-30.3,2.5-45.5
	c0.6-8.8,1.8-17.5,2.6-26.2c0.7-7,1.4-14,2-21c0.5-6.4,0.9-12.7,1.3-19.1c0.5-8.9,1.1-17.7,1.5-26.6c0.2-4.3,0.3-8.7-0.1-12.9
	c-0.7-6.4-1.1-12.9-1.2-19.3c0-3.2-1.2-5.9-2.8-8.5c-0.9-1.5-2.3-2.4-4.1-2.6c-3.4-0.3-5.9,1.5-6.5,5c-0.5,2.7-0.7,5.4-0.8,8.1
	c-0.1,3.9,0.1,7.8-0.1,11.7c-0.4,7-1.1,14-1.7,21c-0.5,5.6-1.2,11.1-1.6,16.7c-0.5,7.4-0.7,14.8-0.9,22.3c-0.3,9-0.7,18-1,27.1
	c-0.2,6.4-0.4,12.8-0.8,19.1c-0.5,7.3-1.2,14.6-1.7,22c-0.2,2.5-0.2,5.1-0.2,7.7c0.1,8.8,0.3,17.6,0.3,26.4c0,4.3-0.4,8.6-0.4,12.9
	c0,4.6,0.3,9.3,0.3,13.9c0,7.5-0.2,15-0.4,22.5c-0.2,6.1-0.7,12.1-1.2,18.2c-0.2,2.3-0.4,4.8-1.4,6.8c-2.6,5.2-6.7,9.1-12.3,11.2
	c-4.3,1.6-11.6-1.2-12.9-6c-0.8-2.8-1.4-5.6-1.6-8.4c-0.5-5.9-0.7-11.8-0.9-17.7c-0.3-7-0.7-14.1-0.7-21.1c0.1-15.5,0.5-31,0.7-46.5
	c0.1-3.2,0-6.4,0.4-9.6c0.9-7.8,1.9-15.7,3-23.5c0.9-6.6,2-13.1,3.1-19.7c0.4-2.3,0.6-4.6,1.2-6.8c1.2-4.4,1.6-8.8,1.2-13.3
	c-0.1-0.8-0.2-1.6-0.2-2.4c0.1-5,0.3-10.1,0.3-15.1c0-10.3-0.1-20.6-0.2-30.9c0-1.3-0.1-2.6,0-3.8c0.2-5.4,0.4-10.7-0.2-16
	c-0.7-6.4-1.9-12.8-2.1-19.3c-0.1-3.8-1-7.6-3-10.9c-0.9-1.5-2.1-2.3-3.7-2.8c-2.6-0.7-4.2,0.1-4.7,2.7c-0.4,2-0.8,3.9-0.9,5.9
	c-0.3,4.2-0.3,8.5-0.5,12.7c-0.3,6.2-0.6,12.5-0.9,18.7c-0.2,3.9-0.5,7.8-0.4,11.7c0.1,8.4,0.3,16.8,0.4,25.2c0,2.7-0.1,5.4-0.1,8.1
	c-0.1,6.2-0.2,12.5-0.3,18.7c-0.1,6.6-0.4,13.1-0.5,19.7c-0.1,8.2,0.1,16.3,0,24.5c0,5,0,9.9,0.7,14.8c0.5,3.2,0.9,6.3,1.2,9.5
	c0.4,5,0.6,10,1,15.1c0.3,4.1,0.9,8.1,0.9,12.2c0.1,13.8,0.1,27.7,0.1,41.5c0,9.4-0.2,18.7,0,28.1c0.2,5.8-1.8,10.8-4,15.9
	c-0.4,1-1,2-1.7,2.9h35.3c0.5-1.2,1.1-2.3,1.8-3.4c1.3-2,3-3.7,4.6-5.5c1.6-1.9,3.8-2.9,6.2-2.3c4.2,1.1,8.4,2.1,12.1,4.5
	c2,1.3,3.8,2.9,4.6,5.3c0.2,0.4,0.3,0.9,0.4,1.3h192c-1-1.2-1.9-2.5-2.6-4C343.2,297.3,341.1,292.4,338.8,287.6z"/>
<path class="st0" d="M378.3,289.2c0.4-9,1.4-18,0.9-27.1c-0.1-2.3-0.2-4.6-0.2-6.9c0-5.4,0-10.7,0-16.1c0-11.3,0-22.5,0-33.8
	c0-11.4,0.1-22.7,0.2-34.1c0.1-9.7,0.3-19.4,0.5-29c0.2-7.1,0.4-14.2,0.7-21.3c0.3-6,0.7-12,1-17.9c0.2-3.4,0.3-6.7,0.5-10.1
	c0.5-8.2,0.7-16.3,0-24.5c-0.8-10.5-2-21-3-31.5c-0.1-0.9-0.7-1.9-1.2-2.7c-1.6-2.4-4.2-2.7-6.6-2.9c-3.3,2.6-4.6,6.1-5.6,9.9
	c-1.1,4.4-1.6,8.8-1.8,13.3c-0.1,3.7,0,7.4-0.5,11c-0.9,6.9-1.3,13.8-1.2,20.8c0,7,0.2,14.1,0.1,21.1c0,3.9-0.3,7.8-0.3,11.7
	c0,6,0.3,12,0.4,18c0.1,5.1,0.1,10.2,0.2,15.4c0.1,6,0.5,12,1.2,17.9c0.9,7.5,1,15,2.1,22.4c1.1,7.4,2,14.9,2.4,22.4
	c0.3,6.4,1.1,12.7,0.4,19.2c-0.3,2.5-0.5,5.2-0.1,7.6c0.5,3.2,0.5,6.4,0.3,9.5c-0.8,8.6-0.3,17.2,0.2,25.9
	c0.3,5.2,0.6,10.4,0.5,15.6c0,4.1-0.6,8.3-1,12.4c0,0.2,0,0.4-0.1,0.6h9.6c0.1-5.3,0.2-10.5,0.2-15.8
	C378.3,289.9,378.3,289.5,378.3,289.2z"/>
<path class="st0" d="M69.6,296.4c-1.2-3-2.6-6-2.8-9.4c-0.2-3.5-0.4-7-0.6-10.5c-0.1-1.8-0.2-3.7-0.3-5.5
	c-0.4-5.2-0.8-10.4-1.1-15.5c-0.2-3-0.1-6.1-0.4-9.1c-0.6-6.9-1.4-13.8-1.1-20.8c0.1-2.1,0-4.2,0-6.2c-0.2-10.9-0.4-21.7-0.6-32.6
	c-0.2-10.9,0.3-21.7,1-32.6c0.5-7.2,0.7-14.4,1.3-21.5c0.7-8.3,1.7-16.5,2.4-24.8c0.8-9,1.3-18,1.9-27c0.3-4.7,0.5-9.4,0.8-14.1
	c0.4-6,0.9-11.9,1.3-17.9c0.3-3.7,0.6-7.5,0.8-11.2c0.1-2.7,0.1-5.4,0.1-8.2c0-1.7-1-2.9-2.2-3.1c-1.2-0.2-2.4,0.6-2.9,2.3
	c-0.6,1.8-0.9,3.7-1.1,5.6c-0.5,3.2-0.7,6.4-1.2,9.5c-0.7,4.2-1.6,8.3-2.5,12.5c-1.1,5-2.4,9.9-3.2,15c-0.9,5.3-1.5,10.6-2,15.9
	c-0.7,7.2-1,14.4-1.7,21.5c-0.5,5.2-1.2,10.5-1.9,15.7c-1,6.8-1.6,13.6-2.1,20.5c-0.8,10.8-2.1,21.6-3,32.5
	c-0.2,2.7-0.4,5.4-0.3,8.1c0.1,2.9,0.5,5.7,0.8,8.6c0.5,5.3,1,10.7,1.3,16c0.4,6.8,0.6,13.7,1,20.6c0.3,5.2,0.7,10.4,1,15.6
	c0.4,7.9,0.8,15.8,1.3,23.7c0.4,5-1.5,9.3-4,13.3c-2.4,3.9-6.6,5.5-11,6c-3.4,0.4-6.9,0.3-10.3,0.3c-0.7,0-1.5-0.2-2-0.6
	c-2.4-1.7-4.8-3.6-6.2-6.2c-1.8-3.4-3.6-7-4.8-10.7c-1.4-4.2-2.5-8.6-3.4-13c-0.5-2.4-0.8-4.8-0.4-7.3c0.8-5.2,1.3-10.4,0.9-15.8
	c-0.5-6.7-0.9-13.4-1-20.1c-0.2-9.3,0.1-18.7-0.1-28.1c-0.1-10.4-0.5-20.8-0.8-31.2c-0.1-4.3-0.2-8.6-0.1-12.9
	c0-2.6,0.4-5.3,0.6-7.9c0.7-7.3,1.2-14.6,2.1-22c0.9-7.6,1-15.3,1-23c0-5.5-0.2-11,0-16.5c0.2-6.3,0.8-12.6,1.1-18.9
	c0.3-8.4,0.4-16.8,0.7-25.2c0.4-8.6,1.1-17.2,1.6-25.8c0.1-1.4-0.1-2.9-0.2-4.3C11.5,0,5.8,0,0,0c0,102,0,204,0,306h75.7
	C73.3,303.1,71.1,300,69.6,296.4z"/>
<path class="st0" d="M562.2,268.2c-0.3-11.7-1.1-23.5-1-35.2c0-6.6,0.1-13.3,0-19.9c-0.1-4.6-0.3-9.1-0.5-13.7
	c-0.3-7.3-0.7-14.5-0.9-21.8c-0.1-5.3,0.1-10.5,0.3-15.8c0.2-5.4,0.4-10.9,0.7-16.3c0.3-5.7,0.9-11.3,0.9-17
	c0-15.6-0.3-31.2-0.5-46.8c-0.1-4.2-0.1-8.5-0.7-12.7c-1.5-10.2-1.6-20.4-2.1-30.6c-0.1-2.1-0.2-4.2-0.6-6.2
	c-0.3-1.5-0.9-2.9-1.6-4.2c-1-1.9-2.7-2.4-4.7-1.6c-2,0.8-3.4,2.2-3.9,4.2c-0.5,1.6-0.8,3.3-0.9,4.9c-0.1,3.1,0,6.2-0.1,9.3
	c-0.1,8.5-0.1,16.9-0.2,25.4c-0.1,8.6-0.2,17.1-0.5,25.7c-0.2,6.8-0.8,13.6-0.8,20.4c0,12.1,0.4,24.3,0.6,36.4
	c0.1,5.8,0,11.7,0,17.5c0.1,7.5,0.4,15,0.4,22.5c0.1,8.8-0.1,17.6,0.1,26.4c0.2,10.9-1.4,21.7-3.1,32.4c-0.9,5.8-1.9,11.5-2.8,17.2
	c-0.8,5.2-1.8,10.3-4,15.2c-2.1,4.6-5,8.4-8.7,11.8c-5.3,4.8-14.2,1.1-15.8-4.4c-0.5-1.7-1.1-3.4-1.3-5.1c-0.4-4.8-0.7-9.6-1-14.3
	c-0.2-3.8-0.2-7.5,0.6-11.2c1.2-5.6,1.9-11.3,2.4-17.1c1.1-11.4,1.5-22.8,1.4-34.3c-0.1-11.6-0.3-23.2,0.1-34.8
	c0.4-11.8,0.3-23.7,0.4-35.5c0-6.6-0.2-13.3-0.3-19.9c0-2.2,0.2-4.5,0.1-6.7c-0.1-4.4-0.3-8.8-0.4-13.2c-0.2-14.9-0.4-29.7-0.5-44.6
	c0-2.2,0.2-4.3,0.4-6.5c0.4-6.5,0.1-13-2.3-19.1c-0.4-1.1-1-2.2-1.7-3.1c-1.8-2.2-4.9-2.1-6.6,0.1c-0.8,1.1-1.3,2.4-1.7,3.7
	c-0.4,1.1-0.5,2.4-0.8,3.5c-1.4,4.6-1.5,9.3-0.9,14c1.1,7.8,1.9,15.7,1.7,23.7c0,1.4,0,2.7,0.2,4.1c0.7,5,1.3,10,1.6,15
	c0.5,8.5,1.4,16.9,2.1,25.3c0.8,9.2,1.7,18.3,1.7,27.5c0,7.3,0.3,14.5,0.4,21.8c0.1,6.6,0,13.1,0.2,19.7c0.1,5.3,0.4,10.5,0.6,15.8
	c0.2,4.1,0.3,8.2,0.9,12.2c0.5,3.4,0.8,6.8,0.8,10.2c0,5.4,0.2,10.7-0.1,16.1c-0.5,7.5-1.4,15-2,22.4c-0.4,5.2-0.9,10.4-1,15.5
	c-0.1,2.9-0.1,5.7-1.7,8.3c-0.6,0.9-0.8,2.1-1.2,3.1c-1.2,3.3-6.5,7.3-9.9,7.4c-0.3,0-0.6,0-0.9-0.1c-2.2-0.6-4.5-1.1-6.7-1.9
	c-3.7-1.5-6.6-3.5-8.2-7.6c-1.6-4.4-2.8-8.9-3.2-13.5c-0.5-7.4-0.9-14.8-0.9-22.3c0-12.2,0.2-24.3,0.5-36.5
	c0.2-7.7,0.9-15.5,1.2-23.2c0.2-7.4,0.2-14.7,0.3-22.1c0.1-4.8,0.1-9.6,0.2-14.4c0.1-4,0.1-8,0.2-12c0.1-2.6,0.6-5.3,0.4-7.9
	c-0.4-6.7-1.1-13.4-1.5-20.1c-0.5-7.5-1-15-0.8-22.5c0.2-6,0.3-12,0.3-18c0-6.1-0.3-12.1-0.5-18.2c0-1.5-0.4-3-0.2-4.5
	c0.3-4.4,0.9-8.7,1.2-13.1c0.2-2.4,0.7-4.8,0.4-7.1c-0.5-3.6-1.9-7.1-3.7-10.3c-0.4-0.8-1.6-1.3-2.5-1.5c-1.1-0.2-1.6,0.8-2,1.7
	c-0.5,1.2-1,2.3-1.5,3.5c-1.7,4.3-2.3,8.8-2.4,13.4c-0.1,6.6,0,13.3,0.2,19.9c0.2,7,0.4,13.9,0.8,20.9c0.3,5.6,0.8,11.1,1,16.7
	c0.2,6.2,0.2,12.5,0.2,18.7c0,1,0.1,2.1,0.2,3.1c0.8,7.1,1.7,14.3,2.4,21.4c1,10.2,1.4,20.4,1,30.7c-0.3,8.6-0.8,17.2-1.2,25.9
	c-0.2,4.8-0.9,9.6-0.8,14.4c0.1,5,0.8,10,1.2,15c0.4,4.1,1,8.2,0.5,12.4c-0.7,6.4-1.2,12.9-1.8,19.3c-0.2,2.3-0.9,4.5-1.9,6.6
	c-1,2.1-2.2,4.2-2.8,6.4c-1.3,5.1-4.1,9.5-6.9,13.9c-0.8,1.3-2.1,2.6-3.4,3.3c-2.7,1.4-5.5,2.5-8.3,3.6c-2.5,1-4.9,0.3-7.3-0.5
	c-0.7-0.2-1.5-0.8-1.8-1.4c-0.7-1.3-1.5-2.7-1.8-4.1c-0.7-4.3-1.4-8.7-1.8-13.1c-0.3-3.4-0.1-6.9-0.1-10.3c0.1-4.4,0.4-8.8,0.4-13.2
	c-0.1-6-0.5-12-0.7-18c-0.1-3.1-0.3-6.2-0.3-9.3c0-3.9,0.3-7.8,0.5-11.7c0.2-4.9,0.2-9.8,0.8-14.6c1.6-11.4,2.4-22.9,2.1-34.4
	c0-1.4-0.2-2.9-0.2-4.3c0.2-4.1,0.4-8.1,0.7-12.2c0.7-11.2,1.5-22.5,2.2-33.7c0.3-5,1-10,1-15.1c0-10.5,0.5-21.1-1.1-31.6
	c-0.3-1.7-0.3-3.3-0.5-5c-0.7-7.5-1.4-14.9-3.9-22.1c-1.3-3.7-3.8-6.1-7.4-7.3c-2-0.7-3.8,0.1-4.8,2.1c-0.4,0.9-0.7,1.8-0.8,2.7
	c-0.1,2.3-0.2,4.6-0.1,6.9c0,1.8,0.4,3.5,0.2,5.3c-0.7,6.8,0,13.6,0.2,20.4c0.2,7.6,1,15.2,1,22.7c0,7.1,1.1,14,1.8,21
	c0.6,5.9,1.5,11.7,1.3,17.7c-0.1,1.9,0,3.8,0.1,5.8c0.2,8.1,0.5,16.1,0.7,24.2c0.1,5.8,0.1,11.7,0.2,17.5c0.1,4.8,0.6,9.6,0.7,14.4
	c0.3,9.6,0.5,19.2,0.8,28.8c0.3,10.2,0.6,20.5,0.9,30.7c0.2,5.5,0.2,11,0.5,16.5c0.3,6.1,1.1,12.1,1.5,18.1
	c0.4,5.3,0.5,10.5,0.7,15.8c0.1,2.6,0.3,5.1,0.4,7.7h13.3c0.8-1.7,2.4-2.9,4.5-3.4c2.5-0.7,4.7,0.2,7,1c1.8,0.6,3.5,1.4,5,2.4h111.3
	c-3-4-5.1-8.4-5.9-13.3C563.9,284.6,562.4,276.5,562.2,268.2z"/>
<path class="st0" d="M759.4,0c0,0.8,0,1.6,0.1,2.4c0.5,4.3,1.2,8.5,1.7,12.8c0.7,6.6,1.4,13.2,2.1,19.8c0.8,8,1.6,16.1,2.4,24.1
	c0.7,6.9,1.4,13.8,2,20.8c0.5,5.8,0.6,11.7,1.3,17.4c0.9,7.2,2,14.4,3.3,21.5c2.2,12.1,3.9,24.1,4,36.4c0,3.7,0.3,7.3,0.5,11
	c0.3,4.6,0.6,9.2,0.9,13.9c0.3,5.2,0.6,10.4,0.9,15.5c0.4,6.3,0.6,12.6,1,18.9c0.4,5.7,0.9,11.5,1.4,17.2c0.6,7.5,2,14.9,1.4,22.4
	c-0.2,2.2-0.5,4.4-0.9,6.6c-1.5,8.4-3.7,16.5-9.9,23c-1.1,1.1-2.1,1.9-3.7,2c-2.5,0.2-5.1,0.3-7.6,0.7c-2.7,0.5-5.3,0.3-7.8-0.6
	c-2-0.7-4-1.8-5.5-3.3c-2.6-2.6-4.2-6-5.6-9.4c-0.2-0.5-0.3-1.1-0.3-1.6c-0.1-2.4-0.2-4.8-0.3-7.2c-0.4-8.3-0.8-16.6-1.1-24.9
	c-0.1-3.6-0.2-7.2-0.2-10.8c-0.1-8.6-0.2-17.1-0.1-25.7c0-7.8,0.9-15.6-0.1-23.5c-0.9-7.9-1.6-15.7-2.4-23.6
	c-0.3-3.2-0.6-6.4-0.9-9.5c-0.6-6.4-1.1-12.9-1.8-19.3c-0.4-3.8-1.1-7.6-1.5-11.4c-0.7-5.9-1.2-11.8-1.9-17.6c-0.4-3.7-0.9-7.3-1-11
	c-0.3-5.4-1-10.8-2.1-16.1c-1.1-5.1-2.3-10.1-3.3-15.2c-0.3-1.5-0.3-3.2-0.2-4.8c0.5-6.6-0.4-13.1-2.5-19.4
	c-0.2-0.5-0.3-1.1-0.6-1.6c-0.4-0.9-1-1.7-2.1-1.6c-1.1,0.1-1.6,1-1.8,2c-0.2,1-0.3,2.1-0.3,3.1c0,2.2,0.1,4.3,0.1,6.5
	c0,1.6,0,3.2,0.1,4.8c0.4,4.6,0.9,9.2,1.3,13.8c0.8,11.6,1.4,23.3,2.3,34.9c0.6,8.4,1.4,16.9,2.2,25.3c0.7,7.7,1.7,15.4,2.4,23.1
	c0.5,6.4,0.7,12.8,0.9,19.2c0.3,7.6,0.6,15.2,0.5,22.8c-0.1,14.6-0.4,29.1-0.6,43.7c-0.1,4.9,0.2,9.7,0.2,14.6c0,3.5-0.1,7-0.1,10.6
	c0,3.1,0.1,6.2-0.1,9.3c-0.2,3.7-0.7,7.3-0.9,11c-0.3,6.1-0.4,12.1-0.7,18.2c-0.3,4.7-0.7,9.3-3.3,13.5c-0.3,0.4-0.5,0.8-0.8,1.2
	H792c0-102,0-204,0-306C781.1,0,770.2,0,759.4,0z"/>
<path class="st0" d="M693.6,281.6c-0.3-7.5-0.9-15-1.3-22.5c-0.3-4.6-1.2-9.2-0.2-13.8c0.1-0.5,0-1.1,0-1.7
	c-0.7-7.8-1.4-15.6-2-23.4c-0.7-9.4-0.7-18.8,0.4-28.2c1.2-10.8,0.9-21.6,0-32.3c-0.5-6.5-1.1-13.1-1.7-19.6
	c-0.5-5.3-0.9-10.6-1.5-16c-0.2-1.7-0.8-3.5-0.9-5.2c-0.5-9.7-1.2-19.3-1.4-29c-0.2-7.1,0.3-14.2,0.2-21.3
	c-0.2-12.2-0.6-24.5-1.1-36.7c-0.2-4.2-0.9-8.4-2.3-12.5c-1.7,0.2-3,0.9-3.6,2.2c-0.9,2.1-1.8,4.3-2.1,6.6c-0.6,3.8-0.8,7.6-1,11.4
	c-0.5,9.1-1.3,18.2-0.8,27.3c0.5,11.4,0.6,22.9,1,34.3c0.2,6.6,0.7,13.2,0.9,19.9c0.1,5.1,0.8,10.2,2,15.2
	c1.9,8.1,4.4,16.2,4.4,24.7c0,0.8,0.1,1.6,0.3,2.4c1.1,6.8,1.7,13.6,1.9,20.5c0.1,4.4,0.4,8.8,0.7,13.2c0.2,3,0.6,5.9,0.7,8.8
	c0.5,8.8,0.9,17.6,1.3,26.3c0.2,4.9,0.3,9.9,0.4,14.8c0,2.2-0.3,4.3-0.4,6.5c-0.2,4.6-0.2,9.1-0.3,13.7c-0.1,4.1-0.4,8.2-2.1,12
	c-1.2,2.6-2,5.4-4.2,7.5c-1.4,1.3-2.8,2.8-4.9,2.7c-4.3-0.1-8.6-0.4-12.9-0.8c-0.8-0.1-1.6-0.4-2.3-0.7c-4.3-1.9-6.4-5.7-7.7-9.9
	c-1-3.3-1.5-6.7-2-10.1c-1.1-6.7-1.8-13.5-2.1-20.3c-0.3-8.5-0.7-16.9-1-25.4c-0.2-5-0.3-9.9-0.5-14.9c-0.2-6-0.3-12-0.4-18
	c-0.1-6.2,0-12.5-0.1-18.7c-0.1-6.2-0.5-12.3-0.7-18.5c-0.3-10.5-0.5-20.9-0.8-31.4c-0.2-9.1-0.5-18.2-0.7-27.3
	c-0.2-7-0.3-14.1-0.7-21.1c-0.7-13.1-1.6-26.2-2.4-39.2c-0.2-3.5-0.7-7.1-0.3-10.5c0.4-4.1-5.1-7.9-8.9-5.7
	c-2.1,1.2-3.7,2.9-4.4,5.1c-0.6,1.8-0.8,3.7-1,5.6c-0.2,3.7-0.2,7.4-0.3,11c-0.1,5.7-0.5,11.4-0.1,17c0.8,12.8,1.8,25.5,2.9,38.3
	c0.9,10.3,2,20.7,2.9,31c1.3,14.2,2.6,28.5,3.7,42.7c0.6,7.7,0.9,15.5,1.1,23.2c0.3,8.8,1.2,17.5,3.4,26.1c0.8,3.1,1.6,6.2,2,9.4
	c1,7.1,1.7,14.3,2.5,21.4c1,8,1.1,16.1,0.4,24.2c-0.2,2.4-0.8,4.7-1.4,7c-0.2,1-0.9,1.9-1.5,2.7c-1.5,1.8-3.2,3.5-5.4,4.7
	c-2.2,1.2-4.5,2.4-6.6,3.8c-2.6,1.7-5.3,2.9-8.5,1.8c-0.1-0.1-0.3-0.1-0.5-0.1c-2.9,0.3-5.3-0.9-7.8-2.1c-4.1-2-7.1-5-7.6-9.7
	c-0.6-5.5-1.4-11-1.4-16.4c0.1-8.7-0.8-17.4-1.2-26.1c-0.3-6.9-1.2-13.7-1.3-20.6c-0.1-8,0.3-16,0.6-23.9c0.3-6.5,0.9-12.9,1.1-19.4
	c0.3-7.3,0.3-14.7,0.4-22.1c0-4.1,0.1-8.1,0-12.2c0-3.3-0.3-6.5-0.3-9.8c-0.1-4.4-0.1-8.8-0.1-13.2c0-6.7,0-13.4-0.1-20.1
	c0-3.4-0.2-6.9-0.4-10.3c-0.4-6.4-0.8-12.8-1.2-19.1c-0.2-3.7-0.3-7.4-0.7-11c-0.8-6.1-1.8-12.2-2.8-18.2c-0.2-1.5-0.7-3-0.8-4.5
	c-0.1-2.9-1-5.5-2.3-8c-0.8-1.5-1.9-3-3.3-4.1c-3.3-2.7-7.3-1.4-8.6,2.6c-0.5,1.4-0.8,3-0.7,4.5c0.1,2.1,0.3,4.3,0.8,6.4
	c1,4.3,2.1,8.5,2.2,12.9c0.1,7.2,0.7,14.4,0.9,21.6c0.1,3.2-0.1,6.4-0.1,9.6c0,4.6-0.1,9.3,0.2,13.9c0.2,3.7,0.9,7.3,1.4,10.9
	c0.8,7.2,1.8,14.4,2.4,21.7c0.7,8.5,1.3,17.1,1.7,25.6c0.5,9.8,0.7,19.7,1.1,29.5c0.3,5.8,0.8,11.6,1,17.5c0.3,9,0.3,18.1,1.4,27.1
	c0.8,6.3,1.6,12.7,2.2,19.1c0.8,10.3,1.5,20.6,2.1,30.8c0.3,4.3,0.3,8.6-0.3,12.9c-0.5,4.3-1.8,8.3-3.4,12.2c-1,2.3-2.2,4.4-3.8,6.1
	h23.2c0.3-0.1,0.7-0.2,1.1-0.3c3.4-0.7,6.7-0.6,9.8,0.3h74.3c-0.4-0.5-0.7-1-1-1.5C696.2,297.5,693.9,289.9,693.6,281.6z"/>
</svg>
