<?xml version="1.0" encoding="utf-8"?>
<!-- Generator: Adobe Illustrator 22.1.0, SVG Export Plug-In . SVG Version: 6.00 Build 0)  -->
<svg version="1.1" id="Layer_1" xmlns="http://www.w3.org/2000/svg" xmlns:xlink="http://www.w3.org/1999/xlink" x="0px" y="0px"
	 viewBox="0 0 792 306" style="enable-background:new 0 0 792 306;" xml:space="preserve" preserveAspectRatio="none">
<style type="text/css">
	.st0{fill:none;}
	.st1{fill:#0183FF;}
	.st2{fill:#49EBCF;}
	.st3{fill:#48E9CF;}
</style>
<path class="st0" d="M791.8,305.3c0-100.6,0-201.3,0-301.9c0-0.9,0.1-1.7-0.1-2.5L791.8,305.3L791.8,305.3z"/>
<path class="st1" d="M165.5,280.2c-1-4.6-1-9.3-1.2-14c-0.2-5.5-0.7-11-0.9-16.5c-0.2-4.8-0.1-9.6-0.1-14.4c0-3.4,0.3-6.9,0.2-10.3
	c0-4.2-0.2-8.5-0.3-12.7c-0.4-8.5-0.9-17.1-1.2-25.6c-0.4-10-0.1-20.1,0.4-30.1c0.3-6.5,0.7-12.9,0.9-19.4
	c0.2-8.5,0.4-17.1,0.4-25.6c0-10.1-0.2-20.3-0.5-30.4c-0.2-5.2-1-10.5-1.4-15.7c-0.4-4.8-0.6-9.5-1-14.3c-0.3-4.5-0.5-8.9-0.9-13.4
	c-0.1-1.2-0.5-2.5-1-3.7c-1.5-3.7-5-4.4-7.9-1.7c-1.4,1.3-2.3,2.9-2.5,4.8c-0.3,3.2-0.5,6.5-0.5,9.8c-0.1,4.2,0.1,8.3,0.1,12.5
	c0,7.4-0.1,14.9-0.2,22.3c-0.1,7-0.3,13.9-0.5,20.9c-0.3,8-0.7,15.9-0.9,23.9c-0.1,5.1,0,10.2,0.1,15.3c0.2,5.4,0.6,10.8,0.7,16.2
	c0.1,4.7-0.2,9.5-0.2,14.2c0.1,7.4,0.3,14.8,0.5,22.3c0.1,4.9,0,9.7,0,14.6c0,7.4,0,14.9-0.2,22.3c-0.1,3.7-0.9,7.4-1.4,11.1
	c-1.1,7-2,14.1-3.4,21c-1,5.1-1.3,10.3-3.1,15.2c-2.1,5.8-5.4,10.7-9.9,15c-5.1,4.8-14.5,1.6-16.2-4.8c-1.1-4.3-1.6-8.6-1.8-13
	c-0.2-2.7-0.3-5.4-0.1-8.2c0.2-3.4,0.4-6.9,1.1-10.2c1.4-6.4,1.7-12.8,2.3-19.2c1.1-11.1,1-22.2,0.9-33.3c0-2.7-0.3-5.4-0.4-8.1
	c0-1,0.2-2.1,0.3-3.1c0.2-9.5,0.5-19,0.6-28.5c0.1-8.8,0.1-17.6,0-26.4c0-5.7-0.3-11.3-0.4-17c-0.1-4.5,0-8.9,0-13.4
	c-0.1-14.1-0.2-28.3-0.3-42.4c0-3.9-0.3-7.8-0.3-11.7c0-3.4,0.3-6.9,0.2-10.3c-0.1-3.4-0.9-6.8-2.2-10c-0.4-0.9-0.7-1.8-1.3-2.6
	c-2.1-3.2-6-3.2-8.1,0c-0.5,0.8-0.9,1.7-1.2,2.6c-1.3,4.9-2.6,9.7-2.1,14.8c0.4,3.4,0.9,6.8,1.2,10.2c0.4,4.4,0.7,8.8,0.7,13.1
	c0,4.6,0.7,9.1,1.2,13.6c0.3,2.5,0.5,5.1,0.7,7.6c0.4,4,0.8,8.1,1.2,12.1c0.4,4.1,0.6,8.3,1,12.4c0.4,4.6,0.8,9.2,1.2,13.8
	c0.3,3.5,0.5,7,0.6,10.5c0.1,8.6,0.1,17.2,0.2,25.9c0.1,8.6,0.1,17.3,0.5,25.9c0.4,7.1,0.5,14.2,1.6,21.2c0.7,4.7,0.4,9.6,0.6,14.3
	c0.3,7.8-0.7,15.4-1.7,23.1c-0.4,3.3-0.4,6.7-0.7,10c-0.6,5.5-1.1,11-1,16.5c0,0.3,0,0.7-0.1,0.9c-1.1,2.6-2.2,5.1-3.3,7.6
	c-1,2.1-3.1,3-4.9,4.1c-2.4,1.5-4.9,1.7-7.7,0.9c-3.7-1.1-7.3-2.4-10.2-5c-0.3-0.3-0.7-0.6-0.9-1c-3-7.1-4.2-14.4-4.6-22.1
	c-0.6-10.5-0.2-20.9-0.2-31.4c0-7.3,0.2-14.7,0.5-22c0.3-6.8,0.8-13.5,1.2-20.3c0.1-2.6,0.2-5.3,0.2-7.9c0.1-6.9,0.3-13.7,0.3-20.6
	c0-3.5-0.3-7-0.3-10.5c0.1-4.1,0.5-8.3,0.7-12.4c0.1-1.1,0.1-2.2,0-3.4c-0.5-6.7-1-13.4-1.4-20c-0.4-5.4-0.8-10.8-0.9-16.2
	c-0.1-4.2,0.4-8.4,0.4-12.7c0-4-0.2-8-0.3-11.9c0-0.2,0-0.3,0-0.5C77,69,76,63.2,75.9,57.4c-0.1-5.1,0.3-10.2,1.2-15.2
	c1.1-6.2-0.5-11.9-3.4-17.2c-0.4-0.8-1.8-1.3-2.8-1.5c-1.1-0.2-1.8,0.9-2.2,1.9c-3.1,6.2-4,12.9-4,19.7c0,8.9,0.3,17.9,0.6,26.8
	c0.2,6.1,0.5,12.1,0.9,18.2c0.6,7.9,0.8,15.7,0.8,23.6c0,3.4,0.5,6.8,0.7,10.3c0.5,7.8,2.3,15.5,2.4,23.3c0,4.2,0.7,8.4,0.7,12.7
	c0.1,6.4,0,12.9-0.3,19.3c-0.3,6.9-1,13.7-1.4,20.5c-0.3,4.5-0.5,8.9-0.4,13.4c0.1,3.3,0.6,6.5,1.1,9.7c0.8,5.7,1,11.4,0.2,17.2
	c-0.6,4.5-0.9,9-1.2,13.6c-0.2,2.8-0.9,5.5-2.2,8c-1.1,2.2-2.1,4.5-2.9,6.8c-1.2,3.4-2.6,6.7-4.8,9.6c-0.2,0.3-0.4,0.5-0.5,0.8
	c-1.6,3.9-5,5.9-8.7,7.4c-1.6,0.6-3.2,1.2-4.8,1.6c-2.4,0.6-4.8,0.1-7-0.9c-1.8-0.8-2.6-2.6-2.9-4.5c-0.8-4.7-1.6-9.5-1.8-14.2
	c-0.3-5.6-0.1-11.2,0-16.8c0-3.8,0.4-7.7,0.3-11.5c-0.2-4.8-0.7-9.5-1.1-14.3c-0.1-1.7-0.2-3.4-0.1-5c0.1-2,0.3-4,0.4-6
	c0.2-4.9,0.1-9.9,0.4-14.8c0.3-4.5,1.1-9,1.6-13.5c0.3-3,0.6-6,0.9-9c0.2-1.7,0.3-3.5,0.4-5.2c0-0.2,0.1-0.5,0.1-0.7
	c-0.6-3.5,0.1-7-0.1-10.5c-0.4-8.3,0.5-16.5,1-24.8c0.3-5.5,1-11,1.4-16.4c0.3-3.5,0.3-7,0.5-10.5c0.3-5.9,0.9-11.8,0.9-17.7
	c0.1-6.4-0.2-12.9-0.5-19.3c-0.1-3-0.6-6-1-9c-0.6-4.7-1.2-9.3-1.8-14c-0.5-3.7-1.5-7.3-3-10.8c-1.3-3.2-3.8-5.1-7-6.1
	c-2.4-0.8-4.6,0.2-5.3,2.7c-0.6,2.2-0.9,4.5-1,6.8c-0.1,3.3,0.2,6.7,0.3,10c0.2,6.9,0.4,13.7,0.6,20.6c0.1,4.3,0.3,8.6,0.5,12.9
	c0.3,5.3,0.4,10.5,0.9,15.8c0.8,8.2,2.4,16.2,2.6,24.5c0.1,4.3,0.2,8.6,0.3,12.9c0.2,6.4,0.3,12.8,0.5,19.2c0.1,4.2,0,8.5,0.2,12.7
	c0.2,5.1,0.5,10.2,0.7,15.3c0.1,3.9,0.1,7.8,0.2,11.8c0.2,6.6,0.5,13.2,0.8,19.9c0.1,2.9,0.1,5.8,0.2,8.6c0.2,7.1,0.3,14.2,0.5,21.3
	c0.1,5.4,0.1,10.9,0.5,16.3c0.4,6.1,1.2,12.2,1.7,18.3c0.4,5.4,0.3,10.9,0.7,16.3c0.2,2.3,0.2,4.7,0.2,7h13.6
	c1.3-3.8,4.9-5.1,8.9-4.1c1,0.2,2,0.6,2.9,1c2.2,0.8,4.1,1.8,5.8,3.1h68.6c1.5-0.5,3.1-0.5,4.7,0h38.3c-4-4.5-6.5-9.7-7.3-15.9
	C166.7,286.3,166.2,283.2,165.5,280.2z"/>
<path class="st1" d="M19.1,303.2c0-1.2-0.4-2.4-0.4-3.6c-0.1-3.2-0.1-6.4-0.2-9.6c-0.2-6.2-0.5-12.4-0.8-18.6
	c-0.3-8.4-0.6-16.7-0.9-25.1c-0.2-5.5-0.4-11-0.6-16.5c-0.2-5.4-0.3-10.9-0.6-16.3c-0.4-7-1-14-1.3-21c-0.3-6.9-0.3-13.7-0.5-20.6
	c0-1.4,0-2.7,0-4.1c-0.4-7.2-1-14.5-1.4-21.7c-0.4-8.6-0.7-17.2-1-25.9c-0.1-3-0.1-6.1-0.2-9.1c-0.2-5.1-0.5-10.2-0.8-15.3
	c-0.3-6.6-0.4-11.8-0.7-17c-0.5-9.5-1.2-19-1.8-28.4C7.6,46.2,7.3,42,7,37.7c-0.3-4.5-0.3-8.9,0.8-13.3c0.8-3,2.3-5.4,4.9-7.1
	c3.3-2.2,6.9-2.8,10.7-2.3c1.9,0.2,3.8,0.4,5.6,1c2.8,0.8,5.4,2.1,7.7,4.2c3.4,3.2,5.3,7.3,6.5,11.6c1.9,6.9,3.2,14,4.5,21
	c0.8,4.1,1.2,8.2,1.6,12.3c0.5,6,1.1,11.9,1.1,17.9c-0.1,7,0.1,14,0.4,21c0.2,3.7,0.4,7.4,0.3,11c-0.2,6.4-0.7,12.8-1,19.1
	c-0.3,6.5-0.6,13.1-0.9,19.6c-0.3,8.9-0.6,17.7-1,26.6c-0.4,8.8-1,17.7-1.4,26.5c-0.3,5.1-0.4,10.2-0.5,15.3c-0.1,2.7,0,5.4-0.2,8.1
	c-0.5,6.3-1.5,12.6-0.9,19.1c0.4,4.4,0.1,8.8,0.2,13.1c0,1.9,0.2,3.8,0.3,5.7c0.2,1.8,1,3.5,2.5,4.4c1.4,0.8,2.4-0.7,3.6-1.3
	c0.1-0.1,0.3-0.2,0.4-0.3c2.9-2.2,4.7-4.9,4.5-8.8c-0.2-3.4-0.3-6.8-0.3-10.3c0-1.8-0.1-3.5,0.1-5.3c0.5-7,1.4-14,1.6-21
	c0.3-8.8,0.3-17.6,0.2-26.4c-0.1-8.9-0.6-17.7-0.9-26.6c-0.3-8.1-0.7-16.1-0.9-24.2c-0.2-6.6-0.4-13.3-0.5-19.9
	c-0.2-10.5-0.4-21.1-0.5-31.6c-0.1-7.2,0-14.5-0.2-21.7c-0.1-6.2-0.5-12.4-0.7-18.6c-0.1-3.2-0.2-6.4-0.1-9.6
	c0.1-6.5,0.4-12.9,0.7-19.4c0.1-1.2,0.3-2.4,0.9-3.4c1.7-3.1,3.3-6.4,5.9-9c1.2-1.2,2.2-2.4,3.8-3.2c3.6-1.7,7.3-1.6,11-0.6
	c3.1,0.9,5.6,2.7,7.1,5.8c1.9,4,3,8.3,3.6,12.6c0.7,5.2,1.1,10.5,1.5,15.7c0.3,5.6,0.4,11.2,0.6,16.8c0.2,6.7,0.3,13.4,0.5,20.1
	c0.1,2.6,0.2,5.1,0.2,7.7c0.1,8.4,0.5,16.8,0.4,25.2c-0.2,12.8-0.2,25.6,0.5,38.3c0.5,9.9,0.7,19.8,0.9,29.7
	c0.1,8.5,0.1,17-0.1,25.4c-0.2,10.2-0.5,20.4-0.8,30.7c0,1.3-0.3,2.5-0.4,3.8c-0.2,3-0.5,6.1-0.5,9.1c0,4.2,0.3,8.4,0.2,12.6
	c0,2.1,0.7,3.8,1.9,5.5c0.9,0,1.7-0.2,2.5-0.1c1.5,0.1,2.4-0.5,3-1.9c0.8-1.8,1.9-3.5,2.7-5.4c0.7-1.8,1.4-3.6,1.5-5.5
	c0.2-8.9,0.2-17.7-0.8-26.6c-0.8-6.8-1.4-13.6-1.4-20.5c0-12.6-0.3-25.2-0.4-37.9c-0.1-8.9-0.1-17.9-0.2-26.8
	c-0.1-5.1-0.5-10.2-0.7-15.3c-0.7-12.1-1.2-24.2-2-36.3c-0.6-8.9-1.5-17.8-2.3-26.7c-0.7-8.3-1.4-16.5-2.2-24.8
	c-0.6-6.2-0.1-12.2,2.7-17.9c0.5-1,0.7-2.2,1.4-3c2.7-3.5,6-6.4,10.3-7.9c1.2-0.4,2.7-0.5,3.9-0.3c4.5,0.8,8,3.4,11,6.8
	c0.6,0.7,1,1.7,1.1,2.6c0.5,4.4,1,8.9,1.4,13.3c0.3,3.4,0.3,6.9,0.7,10.3c1.1,8.9,1.6,17.9,2.2,26.9c0.4,5.5,0.7,11,1,16.5
	c0.3,4.7,0.7,9.4,0.8,14.1c0.2,5.5,0.2,11,0.2,16.6c0,6.9-0.1,13.8-0.2,20.6c-0.2,8.2-0.5,16.4-0.7,24.7c-0.1,4.7,0,9.4-0.2,14.1
	c-0.1,3.5-0.5,7-0.8,10.5c-0.2,3-0.6,6-0.6,9.1c0,9.6,0.1,19.2-0.8,28.7c-0.6,6-0.9,12.1-1.6,18.1c-1,9.1-2,18.2-3.7,27.2
	c-0.7,3.6,0.1,6.8,2.8,9.5c1.5,1.5,3.2,2.6,5.3,1.7c2-0.9,2.4-2.8,2.4-4.8c0-1.5,0.1-3,0.4-4.5c0.9-5.3,1.9-10.5,2.7-15.8
	c0.4-2.4,0.6-4.9,1-7.3c0.8-4.5,1.9-8.9,2.4-13.4c1-8.3,1.5-16.7,1.6-25.1c0-8.3,0.2-16.5,0.1-24.8c-0.1-5,0-9.9-0.1-14.9
	c-0.1-3.7-0.3-7.5-0.4-11.2c-0.1-2.6,0-5.1,0-7.7c0.1-4.3,0.2-8.6,0.2-12.9c-0.1-6.3-0.5-12.6-0.5-18.9c0-8.9,0.4-17.7,0.5-26.6
	c0.1-7.8,0.1-15.5,0.2-23.3c0-2.5,0.3-4.9,0.3-7.4c0-1.7-0.2-3.5-0.3-5.3c-0.1-7.6-0.1-15.2-0.2-22.8c0-3.2,0-6.4,0-9.5
	c0-1.5,0.4-2.9,1.4-4c2.2-2.4,4.4-4.8,6.8-7c2.1-1.9,4.8-2.8,7.6-3.2c3.9-0.5,6.9,0.9,8.7,4.5c1.6,3.1,3.2,6.1,4.5,9.3
	c1.5,3.7,2.9,7.5,3.7,11.4c1.9,9,1.7,18.2,2.3,27.4c0.4,5.5,0.5,11,0.7,16.5c0.2,4.1,0.3,8.1,0.5,12.2c0.3,6.2,0.6,12.4,0.8,18.7
	c0.2,5.3,0.4,10.7,0.5,16c0.2,8.9,0.4,17.7,0.5,26.6c0,2.5-0.2,5.1-0.3,7.7c-0.1,6.9-0.1,13.7-0.3,20.6c-0.2,8.1-0.4,16.3-0.7,24.4
	c-0.1,3.7-0.2,7.3-0.3,11c-0.1,2.6-0.2,5.1-0.1,7.7c0.2,5.1,0.9,10.2,0.8,15.3c-0.1,9.2-0.5,18.3-0.8,27.5c0,1.3,0,2.7-0.1,4
	c-0.4,4.9-0.1,9.6,3.1,13.9c2,2.7,4.3,4.4,7.7,4.3c2.4,0,4.6-0.3,5.9-2.7c0.9-1.6,1.9-7.2,1.4-9c-0.2-0.7-0.4-1.4-0.4-2.1
	c-0.5-6.5-1-13-1.5-19.5c-0.2-3.1-0.4-6.2-0.6-9.3c-0.4-5.3-0.9-10.6-1.3-16c-0.2-3.6-0.3-7.2-0.5-10.8c-0.3-5.3-0.8-10.5-1.1-15.8
	c-0.3-4.5-0.5-9.1-0.8-13.6c-0.4-6.3-1-12.6-1.4-18.8c-0.4-6.3-0.7-12.6-1-18.8c-0.4-9.2-0.7-18.3-1-27.5
	c-0.2-5.3-0.3-10.5-0.5-15.8c-0.3-8.5-0.6-16.9-1-25.4c-0.2-3.8-0.4-7.5-0.6-11.2c-0.4-5.6-0.8-11.1-1.2-16.7
	c-0.3-4.1-0.7-8.1-1.2-12.1c-0.8-5.5-1.7-11-1.9-16.6c-0.3-6.4,1.6-11.9,5.9-16.6c1.8-1.9,3.9-3.5,6.2-4.3c2.4-0.9,5.2-0.8,7.5,0.3
	c3.8,1.8,7,4.3,7.8,9c1,6,2.5,11.8,3.7,17.8c1.6,7.8,3.4,15.6,4,23.6c0.6,8.8,1.3,17.7,1.9,26.5c0.4,6.7,0.8,13.4,1,20.1
	c0.3,10.5,0.4,21.1,0.5,31.6c0.1,5.8,0.1,11.5,0.2,17.3c0.1,4.5,0.3,9.1,0.1,13.6c-0.2,7.4-0.8,14.8-1.1,22.2
	c-0.2,5.8-0.5,11.6-0.5,17.5c0.1,8.1-0.5,16.1,0.3,24.2c0.6,6,0.6,12.2,1.6,18.1c0.9,5.1,1.8,10.2,2.6,15.3c0.4,2.6,0.9,5.2,1.6,7.7
	c1,3.6,4,5.5,8.2,5.5c1.8-2.9,3.1-6,3.7-9.4c0.6-3.5,1.2-7.1,1.9-10.6c1.2-5.6,1.1-11.3,1.4-16.9c0.2-4.5-0.2-9-0.2-13.5
	c-0.1-8.9,0.2-17.7-1-26.5c-0.6-4.6-1-9.2-1.4-13.8c-0.4-3.8-0.7-7.6-1-11.4c-0.3-4.2-0.7-8.4-0.9-12.6c-0.3-4.9-1.2-9.8-0.1-14.8
	c0.2-0.7,0.1-1.4,0-2.2c-0.3-2.9-0.5-5.9-0.8-8.8c-0.6-5.4-1.5-10.7-2-16.1c-0.6-6.5-1-13-1.5-19.6c-0.4-4.4-0.6-8.8-1.5-13
	c-1.1-5.1-1-10.3-1-15.5c0-0.2,0-0.5,0-0.7c-0.1-8.6-0.1-17.2-0.3-25.9c-0.2-7.4-0.7-14.8-0.9-22.2c-0.1-4.7,0.2-9.4,2.2-13.8
	c1.1-2.4,1.9-5,4.5-6.2c4.8-2.1,9.8-2.2,14.6,0.1c1.8,0.8,3.1,2.2,3.8,4.1c0.6,1.6,1.4,3.2,2,4.9c0.7,2,1.6,4,2,6.1
	c0.9,4.2,1.5,8.5,2.2,12.7c1.1,6.1,1.7,12.2,1.9,18.3c0.2,6.8,0.3,13.7,0.4,20.6c0.2,8.1,0.4,16.2,0.6,24.3
	c0.1,4.8,0.1,9.6,0.2,14.3c0.1,4.9,0.5,9.7,0.6,14.5c0.2,4.9,0.2,9.9,0.2,14.8c0.1,6.5,0.2,13.1,0.3,19.6c0.1,3.3,0.3,6.7,0.5,10
	c0.2,3.4,0.5,6.8,0.6,10.3c0.1,2.9,0,5.9,0.1,8.8c0.2,4,0.5,8.1,0.7,12.1s0.3,8,0.5,12c0.5,9,1.1,17.9,1.5,26.9
	c0.2,6.1,0.2,12.1,1.1,18.1c0.5,3.3,0.9,6.6,1.9,9.8c1.3,4.2,3.3,5.3,7.4,5.5c1.6,0.1,4.2-1.2,4.4-2.3c0.8-3.4,1.5-6.8,2-10.3
	c0.4-2.8,0.5-5.7,0.6-8.6c0.3-7,0.8-14,0.9-21c0.2-10.7-0.6-21.4-1.4-32c-0.4-5.6-0.7-11.3-1-17c-0.4-7.7-0.9-15.4-2-23.1
	c-1.2-8.6-2.2-17.2-3.4-25.8c-0.9-6.6-2.1-13.2-3-19.8c-0.9-6.4-1.6-12.8-2.2-19.2c-0.5-5.4-0.8-10.8-1.2-16.2
	c-0.6-7.6-1.2-15.3-1.7-22.9c-0.4-5.5,0.4-11,1.1-16.5c0.7-5.4,1.5-10.7,2.4-16.1c0.4-2.7,0.8-5.5,2-7.8c2.5-4.8,8.5-8.8,15-7.4
	c1.1,0.2,2.3,0.4,3,1.1c1.4,1.3,2.6,2.8,3.6,4.4c2.7,4.3,4,9.2,5,14.1c1.3,6.5,2.2,13.1,2.1,19.7c0,0.7,0.2,1.4,0.2,2.1
	c0.7,6.5,1.1,13,1,19.6c0,1.3-0.2,2.7-0.1,4c0.2,6.4,0.7,12.8,0.6,19.1c-0.1,4.9,0,9.8,0.3,14.7c0.5,7.9,1.5,15.7,1.6,23.6
	c0.3,11.5,0.1,23,0.1,34.5c0,2.8,0,5.6,0.2,8.4c0.2,5.7,0.6,11.5,0.8,17.2c0.1,5.3-0.2,10.6-0.1,15.9c0.1,5.3,0.5,10.5,0.7,15.8
	c0.1,2.2,0,4.3,0,6.5c0.2,5.7,0.4,11.5,0.5,17.2c0.1,2.4,0,4.8,0.1,7.2c0.2,4.9,0.7,9.9,0.8,14.8c0.1,6.5,0.5,12.9,1.8,19.3
	c0.4,2,1.2,3.6,3.1,4.5c1.5,0.7,3.1,1.1,4.8,1.7c0.1-0.6,0.3-1,0.3-1.4c0.5-5.2,1-10.3,1.4-15.5c0.6-7.8,1.1-15.6,1.5-23.4
	c0.4-7,0.7-14,0.9-21c0.2-6.2,0.1-12.5,0.2-18.7c0-1.8,0-3.5-0.2-5.3c-0.9-6.1-1.5-12.2-1.8-18.3c-0.4-7.4-1-14.8-1.3-22.2
	c-0.2-5.7-0.2-11.4-0.2-17c0.1-8,0.3-16,0.4-23.9c0.1-5.3,0-10.7-0.1-16c-0.1-3.4-0.4-6.8-0.7-10.3c-0.3-3.6-0.8-7.1-0.9-10.7
	c-0.3-5.7-0.3-11.5-0.5-17.2c-0.1-1.8,0-3.5-0.3-5.3c-1-6.6-1.3-13.3-1.6-20c-0.2-5.7-0.4-11.3-0.6-17c-0.1-2.8-0.5-5.6-0.5-8.4
	c0-4.9,5.4-11.7,11.3-11.2c2.7,0.2,5.5,2,6.3,4.6c0.8,3.1,1.6,6.2,2.2,9.3c0.9,5.2,1.6,10.4,2.5,15.6c1.2,6.9,2.6,13.8,3.7,20.7
	c1.4,8.6,2.5,17.2,3.1,25.9c0.5,7.9,1.6,15.7,3,23.5c1.2,6.5,2,13.1,2.8,19.6c0.4,3.5,0.9,7.1,1.3,10.6c0.4,3.9,0.9,7.7,1.1,11.6
	c0.3,5.1,0.6,10.3,0.7,15.4c0.1,7,0.1,14.1,0,21.1c0,6.3-0.3,12.6-0.3,18.9c0,5.3,0.3,10.6,0.3,15.9c-0.1,7.3,0.9,14.5,1.4,21.7
	c0.4,5.5,1.4,10.9,2.7,16.3c0.7,2.9,2,5.5,5.3,6.5c1.6,0.5,2.8,0.6,3.9-0.6c1.2-1.3,2.4-2.6,3.5-3.9c0.8-0.9,1.8-1.8,2-2.9
	c0.7-2.8,1.4-5.6,1.3-8.4c-0.1-3.8-0.6-7.6-1.5-11.4c-2-8.8-1.8-17.6-1.5-26.5c0.2-4.9,0.6-9.9,0.7-14.8c0.1-3.5-0.2-7-0.3-10.5
	c-0.2-6.3-0.3-12.6-0.5-18.9c-0.1-4.2-0.2-8.5-0.5-12.7c-0.3-5-1-10-1.3-15c-0.3-5.2-1.3-10.3-0.8-15.5c0.6-6.6,0.8-13.2,1.1-19.8
	c0.3-5.7,0.5-11.3,0.5-17c0.2-15.4,0.2-30.9,0.3-46.3c0-5,0.3-9.9,0.5-14.8c0.1-1.9,0.1-3.8,0.2-5.8c0.2-5.3,0.6-10.5,0.7-15.8
	C367,5.6,367,2.8,368,0H0v305.3h19.1C19.1,304.6,19.1,303.9,19.1,303.2z"/>
<path class="st1" d="M379.8,31.9c0,24.6,0,49.3,0,73.9c0,11,0,21.9,0.1,32.9c0.1,7,0.3,14.1,0.5,21.1c0.1,6.1,0.3,12.1,0.5,18.2
	c0.2,7,0.3,14.1,0.5,21.1c0.2,6.2,0.2,12.5,0.5,18.7c0.3,5.1,1.1,10.1,1.5,15.2c0.3,4.1,0.6,8.3,0.7,12.4c0.1,3.4-0.2,6.9-0.3,10.3
	c-0.2,7.4-2.4,14.3-6.1,20.7c-1.2,2-2.9,3.8-4.5,5.6c-1.4,1.5-3.5,1.4-5.4,1.6c-2.4,0.3-4.9,0.6-7.4,0.6c-5.8-0.1-10.6-2.1-13.5-7.5
	c-0.5-1-1.1-1.9-1.7-2.9c-0.9-1.7-1.5-3.4-1.6-5.4c-0.3-7.4-0.8-14.8-1.1-22.2c-0.2-4.8-0.2-9.6-0.3-14.3c-0.1-3-0.3-6.1-0.3-9.1
	c0-7.5,0-15,0-22.5c0-5.6,0.5-11.2,0.2-16.7c-0.4-7.2-1.4-14.3-2.2-21.4c-0.6-5.8-1-11.6-1.6-17.4c-0.8-7.2-1.6-14.4-2.4-21.6
	c-0.8-6.8-1.6-13.6-2.4-20.4c-0.5-4.1-0.9-8.2-1.3-12.3c-0.4-4-0.7-7.9-1.3-11.9c-0.7-4.5-1.9-8.9-2.8-13.3c-0.8-4.1-2-8.1-1.6-12.3
	c0.6-6.1-0.6-11.9-2.5-17.6c-0.2-0.7-0.5-1.4-0.9-1.9c-1.1-1.6-3-1.6-3.7,0.3c-0.5,1.3-0.5,2.8-0.6,4.2c-0.1,1.4,0,2.8,0,4.3
	c0.2,4,0.4,8,0.7,11.9c0.3,4.3,0.8,8.6,1.1,12.9c0.5,7.4,0.9,14.8,1.5,22.2c0.7,8.5,1.4,17,2.2,25.5c0.9,9.4,2,18.7,2.9,28.1
	c0.4,4,0.5,8.1,0.6,12.2c0.2,6.9,0.1,13.8,0.6,20.6c0.6,9-0.3,18-0.2,27.1c0,1.7,0,3.4,0,5c-0.1,8.1-0.3,16.1-0.3,24.2
	c0,6.9,0.2,13.7,0.3,20.6c0.1,5.9-0.5,11.8-1.2,17.7c-0.4,3.4-0.1,6.9-0.3,10.3c-0.3,5.1-0.5,10.2-1,15.3c-0.1,1.4-0.9,2.7-1.6,4
	c-0.9,1.9-1.8,3.8-3.4,5.4h186.8c0-0.2,0.1-0.3,0.1-0.5c0.9-3.5,2.1-6.7,5.2-8.9c0.9-0.6,1.4-1.7,2.1-2.6c2.5-2.9,4.6-3.6,8.3-2.4
	c2.6,0.9,5.3,1.8,7.9,2.9c2.9,1.3,5.3,3.3,6.7,6.2c0.8,1.7,1.4,3.5,1.9,5.3h190.1c-0.4-0.6-0.8-1.1-1.1-1.7
	c-1.3-2.1-2.2-4.4-3.2-6.7c-0.9-1.9-1.7-4-2.6-5.9c-2-3.8-2.8-8-3.9-12c-2.2-8-3-16.3-4.2-24.5c-0.5-3.7-1-7.4-1.4-11.1
	c-0.4-3.9-0.3-7.8,0.2-11.7c0.1-0.8,0-1.6,0.1-2.4c0.6-6.1,0.2-12.3-0.4-18.4c-0.3-3-0.5-6-1.2-9c-0.6-2.4-0.4-4.9-0.6-7.4
	c-0.4-3.7-1-7.4-1.2-11.2c-0.4-5.7-0.7-11.4-0.6-17.2c0.1-5.6,0.7-11,2.2-16.2c2-7.1,3.7-14.4,5.1-21.6c0.7-3.5,1-7.1,1.5-10.6
	c0.6-4.3,1.3-8.5,2-12.8c0.8-5,1.6-10,2.5-15.1c1.2-6.8,2.4-13.6,3.5-20.5c0.7-4.2,1.4-8.5,1.6-12.8c0.3-4.7,0.4-9.4-0.8-14
	c-0.3-1-0.6-2-1-2.9c-1-2.3-1.7-2.4-4.1-1.3c-0.6,0.3-1.1,0.9-1.5,1.5c-2.9,4.3-4.5,9-4.9,14.3c-0.4,4.7-1.3,9.3-2.1,13.9
	c-1.2,6.9-2.8,13.8-3.9,20.7c-1,6.7-1.7,13.4-1.8,20.2c-0.1,4.4-0.6,8.9-1.2,13.3c-1,7.6-2.5,15.1-4.3,22.5
	c-0.7,2.9-1.4,5.9-1.8,8.9c-0.4,2.4-0.2,5-0.5,7.4c-0.6,3.9-1.5,7.8-2,11.8c-0.6,4.4-1,8.9-1.5,13.3c-0.3,2.2-0.7,4.4-1,6.6
	c-0.5,4.7-1,9.4-1.4,14c-0.5,4.9-1,9.8-1.5,14.8c-0.7,6.7-1.5,13.5-2.2,20.2c-0.5,4.8-0.9,9.5-1.5,14.3c-1.4,9.8-2.8,19.6-5.4,29.1
	c-1,3.7-2.3,7.4-4.5,10.5c-2.6,3.5-5.5,7-10.3,7.6c-4.3,0.6-8.1-0.4-11.4-3.5c-2-2-2.6-4.5-3.4-7c-0.3-1-0.5-2.1-0.9-3
	c-2.3-4.2-2.5-8.6-1.8-13.2c0.6-4.3,0.9-8.7,1.4-13.1c0.9-7.9,1.8-15.8,3-23.7c0.7-4.2,2-8.4,3-12.5c1.6-6.2,3.2-12.3,4.7-18.5
	c0.9-4,1.3-8.2,2.1-12.2c1.1-5.7,2.4-11.4,3.6-17.1c1.3-6.1,2.4-12.3,3.9-18.4c1.9-7.6,3-15.3,4.6-22.9c0.7-3.3,1.5-6.5,2.3-9.8
	c2.3-9.5,4.5-18.9,6.8-28.4c1.7-7,3.6-14,4.9-21.2c1-5.7,2.5-11.2,4-16.7c0.8-2.8,0.8-5.8,0.3-8.8c-0.1-0.8-0.1-1.6-0.1-2.4
	c0-2.4-0.5-4.8-1.6-7c-1.3-2.8-3.6-4.6-6.7-4.7c-3-0.1-5.7,1.1-7.3,3.8c-1.6,2.6-2.4,5.6-2.7,8.6c-0.2,2.1-0.3,4.2,0.1,6.2
	c0.7,3.5,0.2,6.8-0.2,10.2c-0.4,3.5-0.8,7-1.3,10.4c-0.3,2.1-0.6,4.1-1,6.1c-1.4,7.4-2,15-2.9,22.5c-0.4,3.5-1.2,6.9-1.6,10.4
	c-0.4,3.4-0.8,6.8-0.8,10.2c0,5.5-0.8,11-1.7,16.4c-1.9,11.2-3.9,22.5-5.7,33.7c-1.1,6.6-1.8,13.3-2.8,19.9c-0.7,4.7-1.4,9.5-2,14.2
	c-0.3,2.6-0.8,5.2-0.8,7.8c0,3.7-0.9,7.3-1.6,10.9c-0.8,3.7-2.1,7.4-2.9,11.1c-0.7,2.9-1.2,5.9-1.6,8.9c-0.5,4.6-0.6,9.2-1.4,13.7
	c-0.9,5.3-0.4,10.7-1.3,15.9c-0.9,5.7-2.2,11.3-5.5,16.1c-0.8,1.2-1.6,2.5-2.7,3.3c-2.9,2.3-6.2,4-10.1,2.8
	c-0.6-0.2-1.2-0.5-1.7-0.9c-2.6-2.1-4.7-4.6-5.9-7.7c-2-5-2.8-10.3-3.1-15.6c-0.1-1.2,0.2-2.4,0.4-3.5c1-6.6,2-13.2,2.9-19.8
	c0.4-2.7,0.6-5.4,0.8-8.1c0.5-8.4,1.9-16.6,3.7-24.8c0.8-3.9,1.3-7.9,2.1-11.8c1-5.2,2.3-10.3,3.3-15.4c1.3-6.4,2.6-12.8,3.8-19.2
	c1.4-7,2.7-13.9,4.1-20.9c1.1-5.2,2.4-10.4,3.5-15.6c1-4.7,1.8-9.4,2.5-14.1c0.8-5.2,1.6-10.4,2.3-15.6c0.7-5.5,1.3-11.1,2-16.6
	c1-7.8,2.1-15.6,3.2-23.5c0.6-4.8,1.4-9.6,1.9-14.4c0.5-4.6,0.3-9.2-0.7-13.8c-0.4-2-1.2-3.8-2.8-5.2c-2.7-2.3-6.3-1.9-7.9,1.3
	c-0.9,1.8-1.5,3.9-1.6,5.9c-0.2,3.6,0.1,7.2,0.2,10.8c0,1,0.1,2.1-0.1,3.1c-0.7,4-1.5,8-2.4,12c-1.4,7.2-2.6,14.4-3.1,21.8
	c-0.3,4.3-1,8.6-1.5,12.8c-0.5,4.4-1,8.9-1.5,13.3c-0.6,5.4-1,10.8-1.6,16.2c-0.5,5.5-1.2,10.9-1.7,16.4c-0.4,5-0.7,10-1.1,15
	c-0.6,7.1-1.2,14.1-2,21.2c-0.5,4.7-1.3,9.5-2,14.2c-0.8,5.4-1.7,10.7-2.6,16c-0.5,3-1.2,5.9-1.5,8.9c-0.6,4.7-0.8,9.5-1.3,14.3
	c-0.3,3.3-0.8,6.6-1.2,10c-0.2,1.4-0.1,2.9-0.3,4.3c-0.3,2-0.7,4-1.1,6.1c-0.8,4.6-1.2,9.4-2.5,13.8c-1.2,4-2,8.4-4.8,11.8
	c-1.8,2.2-3.6,4.5-5.7,6.4c-1.6,1.5-3.7,2.2-6,1.8c-2.2-0.3-4.4-0.7-6.6-1.2c-1.7-0.3-3.2-0.9-4.2-2.5c-0.7-1-1.7-1.7-2.4-2.7
	c-1.3-1.7-3-3.3-3-5.8c0-0.6-0.3-1.3-0.5-1.8c-3.1-6.6-2.8-13.5-1.9-20.4c0.7-5.7,1.7-11.3,2.8-17c1.4-7.8,3-15.5,4.4-23.2
	c0.6-3.2,0.8-6.5,1.2-9.7c0.6-5.1,1.3-10.3,1.9-15.4c0.8-5.7,1.6-11.4,2.3-17c1-7.7,2.1-15.5,2.9-23.3c0.9-8.7,2.7-17.2,4.2-25.7
	c1.6-8.7,3.8-17.3,5.6-26c0.6-3,1-6.1,1.3-9.2c0.9-8.3,1.7-16.7,2.6-25c0.5-4.2,1.1-8.4,1.6-12.6c0.3-2.6,1-5.2,1-7.8
	c-0.1-6.1-0.5-12.1-4-17.4c-1.6-2.3-4.1-3.2-6.6-1.9c-0.7,0.4-1.5,0.7-2,1.3c-2.5,2.8-5.1,5.5-6.1,9.3c-0.8,3.2-2.3,6.3-2.9,9.6
	c-0.9,4.7-1.4,9.4-1.8,14.2c-0.4,5.3-0.3,10.7-0.5,16c0,1.2-0.5,2.3-0.7,3.5c-0.6,2.7-0.7,5.5-0.7,8.3c0,3.3-0.3,6.7-0.5,10
	c-0.6,7.2-1.2,14.4-1.8,21.6c-0.7,8.5-1.4,17-2,25.5c-0.5,7-1,14-1.4,21c-0.3,5.3-0.6,10.7-0.8,16c-0.1,4.5,0,9.1-0.2,13.6
	c-0.2,5.6-0.5,11.2-1,16.7c-0.4,5-1,10-1.6,15s-1.1,10-1.7,15c-0.1,0.5-0.1,0.9-0.2,1.4c-0.8,4-1,8.1-1.1,12.1
	c-0.1,6.5-0.5,13.1-1,19.6c-0.2,3-1.1,5.9-1.8,8.9c-0.4,1.7-1.5,2.9-3.2,3.7c-3.8,1.7-7.8,1.7-11.8,1.1c-4.7-0.7-9-2.7-12.9-5.4
	c-1.4-0.9-2.8-1.8-4.3-2.6c-4.3-2.4-6.2-6.3-6.8-11c-1.3-9.9-2.6-19.7-3.7-29.6c-0.4-3.4,0.1-6.9,0.1-10.3c0.1-2.8,0.4-5.6,0.2-8.4
	c-0.3-4.5,0.3-8.9,0.7-13.4c0.3-3.3,0.5-6.5,0.7-9.8c0.6-9.4,1.1-18.8,2-28.2c0.8-9.2,2.1-18.4,3.2-27.6c1.1-9.3,2.3-18.5,3.3-27.8
	c0.9-7.8,1.7-15.7,2.5-23.5c0.9-9.1,1.7-18.3,2.4-27.4c0.3-4.1,0.4-8.1,0.4-12.2c0-2.9-0.6-5.7-0.7-8.6c-0.2-3.7-0.2-7.5-0.1-11.3
	c0.1-3.6-1-6.8-3-9.6c-1.5-2.1-3.8-2.5-6.2-2.1c-2.2,0.3-3.7,1.8-4.2,3.8c-0.7,2.9-1.1,5.9-1.4,9c-0.2,2.5,0,5.1-0.2,7.7
	c-0.3,4.6-0.7,9.2-1.2,13.8c-0.5,5-1.1,10-1.7,15c-0.5,4.2-1.1,8.4-1.5,12.6c-0.3,3.2-0.6,6.3-0.8,9.5c-0.4,5.6-0.7,11.1-1.1,16.7
	c-0.3,5.7-0.6,11.3-1,17c-0.3,5-0.9,10-1.2,15c-0.3,4.4-0.5,8.7-0.8,13.1c-0.1,1.4-0.4,2.8-0.5,4.2c-0.5,4.9-1.1,9.8-1.5,14.7
	c-0.2,3.3-0.2,6.6-0.2,9.8c0,6.3,0.1,12.6-0.1,18.9c-0.1,3.6-0.6,7.1-0.7,10.7c-0.2,4.8-0.1,9.6-0.2,14.4
	c-0.2,7.1-0.5,14.2-0.9,21.3c-0.2,5.1-0.4,10.2-0.9,15.3c-0.4,3.7-1.2,7.4-1.9,11.1c-0.1,0.5-0.3,0.9-0.6,1.3
	c-3.4,5.3-7.8,9.3-14.3,10.4c-0.5,0.1-1,0.2-1.4,0.1c-5-1.1-8.9-3.2-9.7-8.8c-0.6-4.3-0.9-8.6-1-12.9c-0.3-9.6-0.5-19.2-0.5-28.8
	c0-6.5,0.3-12.9,0.6-19.4c0.3-6,0.9-11.9,1.2-17.9c0.2-3.1,0.2-6.2,0.2-9.3c0-7.3,1-14.5,2.3-21.6c0.7-3.8,1.3-7.7,1.9-11.5
	c0.7-3.8,1.3-7.6,2.1-11.3c1.3-6.4,2.7-12.8,4-19.2c0.3-1.5,0.3-3,0.3-4.5c0.2-6.8,0.4-13.6,0.6-20.4c0.1-5.2,0.1-10.3,0.2-15.5
	c0.1-4.9,0.1-9.9,0.3-14.8c0.1-3.8,0.5-7.6,0.7-11.4c0.2-3.4-0.3-6.7-0.7-10c-0.6-5.5-0.9-11.1-1.2-16.7c-0.2-4.2-1-8.2-3.3-11.8
	c-1-1.5-3.9-2.8-5.6-2.5c-1.3,0.3-2.5,1.8-2.9,3.5c-1,4.5-1.4,9.1-1.6,13.7c-0.2,4.4-0.5,8.8-0.9,13.1c-1.1,12.1-1.5,24.2-1.4,36.4
	c0.1,8.3-0.3,16.6-0.7,24.9c-0.3,8-1,15.9-1.4,23.9c-0.3,6.8-0.3,13.6-0.5,20.3c-0.1,4.6-0.5,9.1-0.4,13.6c0.1,4.9,0.6,9.9,1,14.8
	c0.3,4,0.7,7.9,0.9,11.9c0.3,9.6,0.6,19.2,0.6,28.8c0,6.8-0.4,13.6-0.6,20.4c-0.1,3.1,0,6.2-0.1,9.3c0,1.6-0.2,3.2-0.3,4.8
	c-0.2,8.6-0.4,17.3-0.7,25.9c0,1.3-0.2,2.7-0.7,4c-0.9,2.8-1.9,5.6-3.2,8.3s-3.2,5-6.4,5.8c-2.7,0.6-5.4,0.6-8-0.4
	c-1-0.4-1.9-1.2-2.6-2.1c-3.1-3.9-5.7-8-7.3-12.8c-1-3.1-1.5-6.1-1.6-9.4c-0.2-7.4-0.7-14.8-1-22.2c0-0.8-0.1-1.6-0.1-2.4
	c0.2-7.3-0.5-14.5-0.8-21.8c-0.2-3.3,0-6.7,0-10.1c0-0.5,0.1-1,0.1-1.4c0.1-13.4,0.1-26.9,0.4-40.3c0.2-7.8,0.9-15.6,1.4-23.4
	c0.2-3.3,0.3-6.7,0.7-10c0.8-8,1.8-16,2.7-24c0.5-4.3,1-8.6,1.5-12.8c0.6-4.8,1.1-9.5,1.7-14.3c0.4-3.2,0.6-6.5,0.9-9.8
	c0.4-4.5,0.8-9.1,1.2-13.6c0.2-2.9,0.4-5.7,0.7-8.6c0.3-3.1,0.6-6.2,0.9-9.3c0.3-3,0.6-6,0.9-9c0.4-4,0.7-7.9,1-11.9
	c0.1-1.2,0.1-2.4,0-3.6c-0.2-1.6-1.2-2.7-2.5-2.9c-1.1-0.1-2.3,0.6-2.9,2c-0.4,0.9-0.7,1.9-0.9,3c-0.5,2.4-1,4.8-1.2,7.3
	c-0.3,4.3-1.5,8.5-2.5,12.7c-1.2,5.2-2.6,10.4-3.7,15.6c-1,4.5-1.9,9-2.5,13.6c-1.1,8.8-1.9,17.6-3,26.4c-0.7,5.9-1.9,11.8-2.8,17.7
	c-0.7,5-1.3,10-1.9,14.9c-0.9,7.4-1.8,14.7-2.7,22.1c-0.6,4.9-1.1,9.8-1.7,14.7c-0.7,5.8,0.4,11.4,0.8,17.1
	c0.3,5.1,0.5,10.2,0.7,15.3c0.1,3.4-0.1,6.8,0,10.3c0.2,6.2,0.5,12.4,0.8,18.6c0.1,4.1,0.1,8.1,0.2,12.2c0.1,4,0.4,8,0.7,11.9
	c0.3,4.1-0.8,7.8-2.5,11.5c-2.9,6.2-8.2,8.4-14.5,8.7c-2.1,0.1-4.2-0.2-6.2,0.1c-3.4,0.4-5.5-1.4-7.7-3.6c-2.8-2.8-4.4-6.2-5.8-9.8
	c-2.3-6-3.6-12.2-4.6-18.5c-0.5-3.7,0.4-7.1,0.9-10.7c0.6-4.7,0.3-9.4,0.2-14.1c0-1.7,0-3.3,0-5c-0.1-3.7-0.3-7.5-0.3-11.2
	c0.1-6.9,0.6-13.7,0.7-20.6c0.1-4.7,0.1-9.4,0.1-14.2c0-8.1,0-16.1,0-24.2c0-4.1-0.2-8.3,0.2-12.4c0.7-7.1,1.7-14.2,2.6-21.4
	c0.6-5,1.3-10,1.7-15c0.4-6.5,0.6-13.1,0.8-19.6c0.1-2.5,0-4.9,0.1-7.4c0.4-6,1-12.1,1.4-18.1c0.4-6.5,0.6-13.1,0.9-19.6
	c0.1-2.9,0.4-5.7,0.6-8.6c0.3-3.9,0.5-7.8,1-11.7c0.7-5.5,0.8-10.9,0.9-16.5h-24.6c-0.7,7.1-1.5,14.1-2.2,21.2
	C380.2,24.8,379.8,28.4,379.8,31.9z"/>
<path class="st1" d="M791.6,0h-0.4C791.3,0.1,791.4,0,791.6,0z"/>
<path class="st1" d="M761.5,290.3c0.3-5.3,0.9-10.6,1.2-16c0.2-4.8,0.2-9.6,0.2-14.4c0.1-5.2,0.2-10.4,0.3-15.5
	c0.1-3.7,0.1-7.4,0.2-11c0.2-6.7,0.5-13.4,0.7-20.1c0.1-5.4,0.1-10.9,0.2-16.3c0.1-4.3,0.5-8.6,0.7-12.9c0.1-4,0-8,0.1-12
	c0.2-6.1,0.6-12.1,0.9-18.2c0.2-4.7,0.4-9.4,0.7-14.1c0.5-8.9,1-17.8,2.2-26.7c0.4-2.8,0.4-5.7,0.5-8.6c0.3-5.8,0.8-11.6,1-17.4
	c0.3-6.9-0.2-13.7-0.8-20.5c-0.6-7.1-1-14.2-1.5-21.2c-0.1-2.2-2.1-4.9-4.3-5.5c-1.3-0.4-2.6-0.6-3.8-0.8
	c-5.3,4.2-6.3,10.3-7.3,16.3c-0.6,3.4-0.9,7-0.9,10.5c-0.1,6.6-1.8,13-2,19.5c-0.2,8.2-0.3,16.4-0.6,24.7c-0.1,2.4-0.3,4.8-0.4,7.2
	c-0.2,4.5-0.3,9.1-0.4,13.6c-0.1,5.3-0.1,10.7-0.1,16c0,4.6-0.1,9.3,0.1,13.9c0.3,7.8,0.4,15.6,1,23.4c0.6,7.4,1.6,14.7,2.5,22.1
	c0.1,0.8,0.2,1.6,0.3,2.4c0.2,5.3,0.2,10.7,0.6,16c0.5,6.3-0.7,12.6-0.7,18.9c0,0.3-0.1,0.7-0.1,1c0.8,4.2,0.1,8.4-0.2,12.6
	c-0.5,7.1-0.4,14.2-0.2,21.3c0.2,5.3,0.4,10.6,0.2,15.8c-0.2,3.6-0.7,7.3-1.2,11h10.3c0-1.1,0.1-2.2,0.1-3.3
	C761.1,298.1,761.3,294.2,761.5,290.3z"/>
<path class="st1" d="M415.5,17.5c-0.2,6-0.4,12-0.6,18c-0.1,4.9-0.2,9.8-0.3,14.8c-0.2,6.1-0.3,12.3-0.5,18.4
	c-0.2,4.7-0.5,9.4-0.8,14.1c-0.5,6.8-1.1,13.7-1.6,20.5c-0.3,3.5-0.4,7-0.7,10.5c-0.5,5-1.2,10-1.7,15c-0.9,9-0.7,18-0.6,27.1
	c0.1,2.8,0.3,5.6,0.3,8.4c0,3.9-0.3,7.8-0.1,11.7c0.2,3.7,0.9,7.3,1.2,10.9c0.4,4.3,0.6,8.6,0.8,12.9c0.4,7.7,0.6,15.3,1,23
	c0.2,3.3,0.3,6.7,0.9,10c0.6,3.5,1.2,7.1,1.1,10.7c-0.1,5.4-0.3,10.9-0.5,16.3c-0.1,3.9,2.1,7.3,5.5,8.7c0.5,0.2,1.1,0.3,1.6,0.2
	c3.4-0.7,6.3-3.8,6.7-7.3c0.5-4.7,1-9.4,1.3-14c0.3-5.9,0.4-11.8,0.5-17.7c0.1-8.4-0.1-16.8,0-25.1c0.1-14,0.3-28,0.6-42
	c0.1-5.7,0.4-11.3,1.1-16.9c1.1-9.7,2.5-19.3,3.9-28.9c0.8-5.3,1.9-10.5,2.8-15.8c0.5-2.7,1-5.5,1.3-8.3c1-8.1,1.8-16.3,3-24.4
	c1-6.9,2.3-13.7,3.6-20.5c1.2-6,2.5-12,3.8-18c0.2-1.2,0.6-2.3,0.6-3.5c0.3-5,2.2-9.6,4-14.2c1.1-3,4-5.4,7.8-4.7
	c4.1,0.8,6.9,3.6,8.3,7.3c1.2,3.2,1.8,6.6,1.6,10.1c-0.2,3.6-0.5,7.2-0.7,10.7c-0.2,3.3-0.5,6.7-0.6,10c-0.1,5,0,10.1-0.3,15.1
	c-0.4,6.7-1.1,13.3-1.9,20c-0.6,5.1-1.5,10.1-2.3,15.1c-0.5,3-1.5,5.9-1.7,8.9c-0.5,6.5-0.8,13.1-1,19.6
	c-0.3,10.5-0.4,21.1-0.5,31.6c0,7.5-1,15-1.8,22.4c-0.5,5.3-1.1,10.6-1.6,15.9c-0.3,4.2-0.1,8.5-0.8,12.7c-0.8,4.9-0.3,9.7,0,14.5
	c0.2,3.5,0.3,7,0.1,10.5c-0.4,5-0.7,10-0.5,15c0.5,8.3,0.8,16.6,1.1,24.9c0.1,2.6,0,5.3,0.1,7.9c0.1,3.7,1.1,7.1,3.9,9.8
	c1.1,1.1,2.3,1.9,3.8,1.4c1.6-0.5,2.5-1.8,2.7-3.3c0.6-3.8,1.2-7.6,1.3-11.4c0.2-8.1,0.7-16.1,0.1-24.2c0-0.5,0-1,0-1.4
	c0.1-5.3,0.4-10.5,0.4-15.8c0-3.7-0.2-7.5-0.3-11.2c-0.2-9.8-0.4-19.6-0.5-29.4c-0.1-5.2,0-10.4,0-15.6c0-11.3-0.1-22.5-0.1-33.8
	c0-5.9,0.4-11.8,0.3-17.7c-0.1-6.8,0.4-13.5,1-20.3c0.7-8.7,1.4-17.5,1.9-26.3c0.4-6.8,0.8-13.6,1-20.3c0.2-9,1-18,2.1-26.9
	c0.9-7.1,2.4-14.1,5.8-20.6c0.9-1.7,2-2.9,3.7-3.4c1.9-0.5,3.9-1.1,5.8-1.2c1.4-0.1,2.9,0.2,4.2,0.7c3.7,1.6,7,3.9,9.7,6.9
	c0.8,0.9,1.2,1.7,1.4,2.9c0.5,4.3,1.3,8.5,1.8,12.8c0.6,4.7,1.2,9.5,1.4,14.3c0.2,4.4,0,8.8-0.2,13.1c-0.3,6.9-0.6,13.9-1,20.8
	c-0.6,8.8-1.2,17.7-1.9,26.5c-0.3,3.8-0.8,7.6-1.3,11.4c-0.7,5.6-1.5,11.2-2.2,16.9c-0.3,2.6-0.3,5.3-0.6,7.9
	c-0.8,7.9-1.8,15.8-2.6,23.8c-0.6,5.4-1,10.8-1.5,16.2c-0.3,3.4-0.7,6.8-1.1,10.2c-0.4,3.8-0.8,7.6-1.2,11.4
	c-0.5,6.2-1,12.4-1.5,18.6c-0.1,1.9-0.1,3.8-0.2,5.7c-0.4,6-1,12.1-1.2,18.1c-0.2,5.7-0.2,11.3,0,17c0.1,3.2,0.7,6.5,1.5,9.7
	c0.7,2.8,3.6,3.7,5.7,1.7c1-1,1.9-2.2,2.3-3.5c2.6-7.4,4-15,3.8-22.8c-0.1-3.9-0.8-7.8-0.9-11.7c-0.2-7-1.3-14-0.7-21
	c0.3-4.3,0.3-8.6,0.5-12.9c0.4-8.1,0.9-16.3,1.4-24.4c0.4-5.7,0.8-11.5,1.1-17.2c0.4-6.5,0.8-13,1.3-19.6c0.2-3.4,0.4-6.8,0.7-10.3
	c0.7-6.9,1.5-13.8,2.1-20.7c0.6-7.3,1-14.6,1.7-21.9c0.8-9.6,1.7-19.2,2.8-28.8c0.9-8.6,2.2-17.1,3.1-25.6c0.5-4.7,1.9-9.2,2.4-13.9
	c0.5-4.3,1.6-8.6,5.8-11.5c3.4-2.3,6.5-2.3,9.9-1.4c4.4,1.2,6.4,4.7,8,8.6c0.4,1,0.5,2.1,1.2,2.9c1.2,1.5,1.6,3.3,1.8,5.1
	c0.2,2.1,0.4,4.3,0.3,6.4c-0.1,7.7-0.4,15.3-0.4,23c-0.1,13.5-0.1,27-0.1,40.5c0,8.1-0.4,16.3-0.9,24.4c-0.2,2.6-0.3,5.3-0.6,7.9
	c-0.8,6.5-1.4,13-1.4,19.6c0,4.6-0.7,9.2-2.1,13.7c-0.9,3-1.6,6-1.7,9.1c-0.2,5.4-0.5,10.8-0.8,16.3c-0.4,6.4-0.7,12.8-1.2,19.1
	c-0.4,5.4-0.9,10.8-0.3,16.2c0.8,7.7,1.3,15.4,1.9,23.1c0.4,4.2,0.7,8.4,1.3,12.6c1.1,7.4,2.9,14.6,5.4,21.6c0.7,2,2.1,3.7,3.2,5.6
	c0.5,0.8,1.3,0.9,2.1,0.5c1.5-0.7,3-1.4,4.5-2.1s2.3-2,2.5-3.6c0.7-3.8,1.4-7.5,1.9-11.3c1-6.6,2-13.3,2.8-19.9
	c0.9-7.5,2.2-15,2.1-22.6c0-1.8,0.1-3.7,0.2-5.5c0.2-6.3,0.6-12.6,0.7-18.9c0.1-4.1-0.2-8.2-0.2-12.3c0-8.2,0-16.4,0.7-24.6
	c0.5-6.7,0.7-13.4,1.1-20.1c0.3-4.9,0.8-9.9,1.2-14.8c0.4-4.8,0.8-9.7,1.2-14.5c0.5-6,0.9-12.1,1.7-18.1c1.2-9.6,2.9-19.2,4-28.9
	c1-8.5,3.2-16.6,5.5-24.7c1.7-5.8,3.6-11.6,5-17.5c1-4.1,2.9-7.3,6.8-9.2c0.1-0.1,0.3-0.2,0.4-0.3c3.1-1.9,6.5-1.6,9.7-0.5
	c1.9,0.7,3.6,2,5,3.5c4.4,4.5,6.6,9.8,6.3,16c-0.3,4.9-0.7,9.7-1.3,14.5c-0.7,5.9-1.7,11.7-2.5,17.5c-1.1,8-2.1,16-3.2,23.9
	c-0.7,5.4-1.5,10.7-2.1,16.1c-0.8,7.3-1.4,14.6-2.1,21.9c-1,10.5-2,21.1-3.2,31.6c-1,8.7-2.1,17.4-3.2,26.1
	c-0.5,3.8-1.3,7.5-1.8,11.3c-0.4,2.8-0.6,5.6-0.9,8.3c-0.8,6.5-1.8,12.9-2.6,19.4c-0.9,7.5-1.7,15-2.6,22.6
	c-0.7,5.7-1.4,11.4-2.4,17c-0.5,3-0.9,6-0.3,9c0.4,1.8,1.3,3.6,2.2,5.3c0.2,0.4,1,0.7,1.6,0.7c1.6,0.1,3.2,0.1,4.8,0.2
	c2.2,0.1,4.1-0.8,5.4-2.5c1.4-1.8,2.7-3.7,4-5.7c0.5-0.9,0.9-1.9,1-2.9c0.3-1.9,0.4-3.8,0.4-5.7c0.1-2.5,0-5,0.1-7.4
	c0.4-6.4,1-12.7,1.3-19.1c0.4-7.2,0.6-14.3,1-21.5c0.2-3.5,0.6-7,0.8-10.5c0.4-4.9,0.7-9.9,1-14.8c0.3-4.5,0.5-8.9,0.9-13.4
	c0.3-4.2,0.7-8.4,1.1-12.6c0.4-5.1,0.7-10.2,1.3-15.2c0.7-5.9,1.8-11.7,2.5-17.5c0.8-5.9,1.4-11.9,2.1-17.8
	c1.3-10.3,2.5-20.6,3.9-30.8c1.5-11,3.1-21.9,4.8-32.9c0.9-5.7,2.6-11.2,5.4-16.3c1.5-2.7,3.5-5.2,4.8-8c1.4-3,3.8-4.6,6.8-5.6
	c0.5-0.2,1.1-0.4,1.6-0.3c3.6,0.8,7.2,1.9,9.7,4.8c2.1,2.3,3.7,5,5.6,7.5c0.8,1.1,1.1,2.4,1.1,3.8c0,3.9-0.5,7.6-1.4,11.4
	c-1,4.1-1.9,8.3-2.4,12.4c-1,7.8-1.8,15.7-2.7,23.5c-0.9,8.2-1.9,16.5-2.8,24.7c-1,8.2-1.8,16.5-3,24.7c-0.9,6.2-2.4,12.4-3.6,18.5
	c-0.3,1.7-0.7,3.4-1,5.2c-1,6.8-1.9,13.6-3,20.3c-1,6.3-2.2,12.6-3.3,18.8c-0.9,5.2-2,10.3-2.9,15.5c-1,5.9-2,11.8-2.9,17.7
	c-0.7,4.5-1.5,9-2.1,13.5c-0.8,5.9-1.3,11.9-2,17.8c-1,7.9-2.2,15.8-3.3,23.7c-0.3,2.2-0.5,4.4-0.7,6.5c1.6,0.2,2.8,0.5,4.1,0.6
	c0.3,0,0.8-0.1,1.1-0.3c1.5-1.1,2.9-2.2,4.4-3.4c1.1-0.8,1.5-1.9,1.6-3.3c0.5-4.6,0.8-9.2,1-13.8c0.2-5.8,0.9-11.6,1.5-17.4
	c0.4-4,1.1-7.9,1.7-11.8c0.5-3.1,1-6.1,1.4-9.2c0.8-5.4,1.5-10.9,2.3-16.3c0.6-3.9,1.2-7.9,1.7-11.8c0.5-4.4,0.7-8.7,1.2-13.1
	c0.7-6.5,1.6-13,2.4-19.4c0.1-0.9,0.1-1.8,0.2-2.6c0.9-6.4,1.9-12.8,2.7-19.2c0.6-4.3,0.9-8.6,1.5-12.8c1.4-9.5,2.8-19.1,4.3-28.6
	c0.8-5,1.7-10.1,2.7-15c2.1-10.6,4.3-21.1,6.6-31.6c1.8-8.3,3.7-16.5,5.6-24.7c0.3-1.4,0.7-3,1.7-3.9c3.5-3.2,7.5-5.7,12.5-6
	c1.5-0.1,2.9,0.1,4.2,0.8c4.1,2.3,7,5.5,8.1,10.2c0.6,2.5,1.1,5,1.3,7.5c0.3,5,0.8,10.1,0.5,15c-0.4,5.5-1.8,11-3.1,16.4
	c-2,8.4-3.5,16.9-5.3,25.3c-0.9,4.4-1.7,8.8-2.7,13.1c-1.5,6.4-3.3,12.7-4.6,19.1c-1.3,6.2-2.3,12.4-3.4,18.6
	c-1.5,7.8-3,15.5-4.4,23.3c-1.3,7.1-2.5,14.3-3.8,21.4c-1.4,7.7-2.9,15.3-4.3,23c-1,5.8-1.8,11.7-3.8,17.2c-1.7,4.5-2,9.2-2.1,13.9
	c-0.2,7-1.5,14-1.9,21c-0.2,3.1-0.3,6.2,0.8,9.2c0.9,2.4,3.7,2.9,5.5,1.2c0.9-0.9,1.8-2.2,2.1-3.4c0.7-3.3,1.2-6.7,1.5-10.1
	c0.4-4.3,0.6-8.6,0.9-12.9c0.6-7.3,1.3-14.6,2-21.9c0.5-4.8,1.1-9.5,1.7-14.2c0.5-4,1.1-7.9,1.6-11.9c0.7-6.4,1.2-12.9,2.5-19.2
	c1.1-5.8,1.9-11.6,3-17.4c1.1-5.5,2.5-10.9,3.5-16.4c1-5,1.7-10.1,2.4-15.1c0.9-6.1,1.5-12.2,2.7-18.2c1.5-7.7,3.5-15.4,5.2-23.1
	c0.8-3.7,1.5-7.4,1.7-11.1c0.2-3.1,0.6-6,1.2-9c0.1-0.6,0.3-1.3,0.3-1.9c0.4-3.1,0.7-6.2,1.2-9.2c1.2-6.8,2.7-13.5,3.8-20.2
	c0.9-5.4,2.4-10.5,5.4-15.2c1.6-2.3,3.5-4.1,6.2-4.9c2.9-0.8,5.9-0.6,8.8-0.1c3.2,0.6,5.7,2.2,7.5,5c3,4.6,5.3,9.5,5.2,15.1
	c-0.1,2.5-0.3,5.1-0.6,7.6c-0.7,5.4-1.5,10.9-2.3,16.3c-1.1,7-2.1,14-3.5,21c-1.8,9.2-2.8,18.6-4.1,27.9c-0.8,5.7-1.5,11.4-2.3,17
	c-0.8,5.7-1.7,11.4-2.6,17c-0.5,3.1-1,6.3-2.2,9.3c-0.9,2.2-1.4,4.6-0.7,7c0.2,0.6,0.1,1.3,0.1,1.9c0,2.8-0.4,5.5-0.1,8.3
	c0.5,4.5,0.5,9.1,0.7,13.6c0.1,1.4,0.1,2.9,0.2,4.3c0.4,5.2,0.8,10.3,1.2,15.5c0.3,4,0.4,8,0.8,11.9c0.4,4.9,0.9,9.8,1.3,14.8
	c0.2,2.6,0.4,5.2,0.7,7.8c0.5,3.6,1.1,7.1,1.5,10.6c0.6,4.3,1,8.7,1.5,13c0.2,1.7,0.4,3.5,0.5,5.2c0.2,3.7,0.3,7.3,0.4,11
	c0.1,2.6,1.1,4.9,2.9,6.7c1.7,1.7,3.7,3.1,5.6,4.8c1.7-1.4,2.5-3.2,2.5-5.4c0-7.3,0.1-14.7,0.1-22c0-3.7-0.1-7.4-0.2-11
	c-0.3-7.3-0.7-14.7-0.9-22c-0.2-7.7-0.1-15.5-0.4-23.2c-0.2-8.3-0.6-16.6-1-24.9c-0.4-7.6-1-15.1-1.4-22.7c-0.4-7.8-0.7-15.6-1-23.4
	c-0.2-3.7-0.3-7.3-0.5-11c-0.5-8.3-0.7-16.6-0.2-24.9c0.5-7,0.5-14,0.7-21.1c0.1-3.4,0.1-6.7,0.6-10c1.1-8.3,2.3-16.6,3.8-24.8
	c1.2-6.7,2.9-13.4,5.8-19.7c1.4-3,3.7-5.3,6.3-7.1c2-1.4,4.6-2.2,7.1-2.7c3.2-0.7,6.5-1.6,9.9-0.3c0.7,0.3,1.4,0.3,2.1,0.6
	c2.2,0.9,4.1,2,5.5,4c2.1,2.9,2.5,6.2,3.1,9.4c1.1,6,0.8,12.2,0.9,18.3c0.1,5-0.2,10.1-0.2,15.1c0,3.4,0.4,6.9,0.3,10.3
	c-0.2,12.5-0.6,24.9-0.9,37.4c-0.3,12.7,0.2,25.4-1.3,38c-0.6,4.9-0.5,9.8-0.9,14.7c-0.6,7.6-0.8,15.3-1,23
	c-0.1,2.5,0.2,4.9,0.1,7.4c-0.3,6.4-0.7,12.7-1.1,19.1c-0.4,7.7-0.7,15.5-1,23.2c-0.2,5.3-0.3,10.7-0.5,16
	c-0.3,7.9-0.7,15.8-0.9,23.7c-0.3,7.6-0.4,15.1-0.5,22.6h17.1V0.9c-0.1-0.3-0.2-0.6-0.5-0.9H415.9c0,0.9,0.1,1.7,0.1,2.6
	C415.9,7.6,415.7,12.5,415.5,17.5z"/>
<path class="st1" d="M301.1,298.9c-1.8-3.9-3.8-7.7-4.3-12.1c-0.3-2.9-0.8-5.9-0.8-8.8c0-6.4-0.6-12.7-1.3-19.1
	c-0.3-2.9-0.5-5.9-0.7-8.8c0-0.6-0.1-1.3,0-1.9c1.1-5.9-0.4-11.7-0.7-17.6c-0.4-6.6-0.9-13.2-1.2-19.8c-0.3-7.8,0.6-15.6,1.3-23.3
	c0.4-3.9,0.2-7.8,0.2-11.7c0-8.7-1.1-17.3-1.8-26c-0.5-5.9-0.7-11.8-1.2-17.7c-0.3-3.1-1-6.1-1.4-9.2c-0.4-2.7-0.8-5.4-0.9-8.1
	c-0.3-4.9-0.4-9.9-0.5-14.8c-0.1-6.6-0.4-13.2-0.3-19.9c0.2-7.9-0.2-15.8-0.3-23.7c-0.1-7.2-0.4-14.3-0.8-21.5
	c-0.2-3.7-1-7.4-2.3-11.1c-2.1,0.3-3.5,1.3-4.4,3.4c-1.6,3.7-2.1,7.7-2.4,11.7c-0.6,8.2-1,16.4-1.2,24.6c-0.1,6.9,0.2,13.7,0.4,20.6
	c0.2,6.6,0.5,13.2,0.8,19.9c0.2,5.2,0.6,10.5,0.9,15.7c0.1,2.1,0.2,4.2,0.2,6.2c-0.1,3.9,0.7,7.6,1.6,11.3
	c1.5,6.4,2.9,12.7,4.4,19.1c0.1,0.3,0.1,0.6,0.1,0.9c-0.3,5.6,1.3,11.1,1.6,16.7c0.3,4.2,0.5,8.4,0.8,12.7c0.4,6,0.8,11.9,1.2,17.9
	c0.2,3,0.3,6.1,0.4,9.1c0.3,5.6,0.6,11.2,0.9,16.7c0.2,4.9,0.6,9.9,0.5,14.8c-0.1,6.9-0.6,13.7-0.9,20.6c-0.1,2.9-0.1,5.8-1,8.5
	c-1.1,3.5-2.3,7-4.7,9.8c-1.7,2.1-3.7,3.4-6.6,3.2c-3.4-0.2-6.9-0.3-10.3-0.5c-3.1-0.2-5.6-1.5-7.6-4c-2.2-2.8-3.7-5.9-4.2-9.5
	c-0.4-3.6-1.4-7.2-1.8-10.8c-0.6-5-1.1-10-1.5-15c-0.4-6.3-0.7-12.6-0.9-18.9c-0.3-7.5-0.5-15-0.6-22.5c-0.2-11.7-0.1-23.5-0.6-35.2
	c-0.4-10.1-0.7-20.3-0.9-30.4c-0.1-4.9-0.3-9.9-0.5-14.8c-0.2-6.1-0.3-12.1-0.5-18.2c-0.2-5.6-0.3-11.2-0.5-16.8
	c-0.1-4.7-0.2-9.4-0.5-14.1c-0.2-4.2-0.7-8.4-1-12.6c-0.3-4.2-0.7-8.4-0.9-12.7c-0.2-4.7-0.3-9.4-0.5-14.1c-0.1-3.5-0.3-7-0.5-10.5
	c-0.2-2.5-2.7-5-5.3-5.3c-2.4-0.3-4.4,0.3-6.1,2c-2.1,2.1-3.2,4.6-3.3,7.5c-0.3,8.5-0.6,16.9-0.6,25.4c0,5.2,0.6,10.4,0.9,15.5
	c0.6,8.7,1.2,17.5,2,26.2c0.7,8.2,1.8,16.3,2.6,24.5c0.6,5.6,1,11.1,1.5,16.7c0.5,5.2,1,10.3,1.4,15.5c0.4,5,0.9,10,1.2,15
	c0.5,9.5,0.9,19,1.4,28.5c0.3,6,1.3,11.9,2.8,17.7c1.4,5.7,2.9,11.4,3.4,17.3c0.4,4.4,1,8.9,1.5,13.3c0.8,6.4,1,12.9,0.8,19.4
	c-0.1,3.2-0.7,6.5-1.1,9.7c-0.4,3.3-2.4,5.6-4.9,7.3c-3.8,2.6-7.9,4.8-12,7c-1.1,0.6-2.5,1-3.9,0.4c-0.6-0.3-1.4-0.2-2.1-0.2
	c-4.4,0.2-8-2-11.3-4.5c-2.4-1.8-3.3-4.4-3.9-7.2c-1-5.4-1.4-10.9-1.4-16.4c0-7-0.3-13.9-1-20.8c-0.6-5.8-1.1-11.6-1.3-17.4
	c-0.2-5.2-0.3-10.4-0.1-15.6c0.2-7.2,0.8-14.3,1.1-21.5c0.4-9,0.7-18,1-27.1c0.1-2.9,0.3-5.7,0.3-8.6c0-3.3-0.2-6.7-0.3-10
	c-0.1-4.8-0.1-9.6-0.2-14.3c-0.1-11-0.2-22-0.4-33c0-2-0.3-4-0.4-6c-0.2-3-0.4-6-0.6-9.1c-0.6-7.5-0.2-15-1.4-22.4
	c-1-5.7-2-11.3-3-16.9c-0.4-2.6-0.5-5.3-1.8-7.6c-1-1.8-2-3.7-3.4-5.1c-2.8-2.9-8.5-3-10,2.9c-0.8,3.2-0.4,6.3,0.2,9.5
	c0.1,0.5,0.2,0.9,0.3,1.4c1.4,4,1.8,8,2,12.2c0.4,7,1,14,0.9,21.1c-0.1,4.8,0.1,9.6,0,14.4c-0.2,7.4,1,14.7,2,22.1
	c0.7,5.4,1.3,10.9,1.9,16.4c0.4,4.1,0.9,8.2,1.2,12.4c0.2,2.9,0.5,5.7,0.5,8.6c0.3,8.5,0.4,16.9,0.7,25.4c0.2,5.6,0.4,11.2,0.9,16.7
	c0.8,8.2,0.7,16.4,1,24.6c0.2,5.2,1,10.3,1.5,15.5c0.6,5.6,1.2,11.2,1.7,16.9c0.5,4.9,0.9,9.8,1.2,14.8c0.4,5.5,0.7,11,1,16.5
	c0.3,4.4-0.5,8.8-1.5,13c-0.9,3.8-2.2,7.5-4.6,10.7c-1,1.4-2.1,2.6-3.4,3.7h23.4c0.8-0.4,1.6-0.7,2.4-1c4.5-1.3,8.8-0.7,13,1h74
	C303.8,303.5,302.2,301.3,301.1,298.9z"/>
<path class="st2" d="M405.4,28.2c-0.2,2.9-0.5,5.7-0.6,8.6c-0.3,6.5-0.5,13.1-0.9,19.6c-0.4,6-1,12.1-1.4,18.1
	c-0.1,2.5,0,4.9-0.1,7.4c-0.2,6.5-0.4,13.1-0.8,19.6c-0.4,5-1.1,10-1.7,15c-0.9,7.2-1.9,14.3-2.6,21.4c-0.4,4.1-0.2,8.3-0.2,12.4
	c0,8.1,0,16.1,0,24.2c0,4.8,0,9.5-0.1,14.2c-0.1,6.9-0.6,13.7-0.7,20.6c0,3.7,0.2,7.5,0.3,11.2c0,1.7,0,3.3,0,5
	c0.1,4.7,0.4,9.4-0.2,14.1c-0.5,3.6-1.4,7-0.9,10.7c1,6.3,2.3,12.5,4.6,18.5c1.4,3.6,3,7,5.8,9.8c2.2,2.2,4.3,4,7.7,3.6
	c2-0.3,4.1,0,6.2-0.1c6.3-0.3,11.6-2.5,14.5-8.7c1.7-3.7,2.8-7.4,2.5-11.5c-0.3-3.9-0.6-7.9-0.7-11.9c-0.1-4.1-0.1-8.1-0.2-12.2
	c-0.3-6.2-0.6-12.4-0.8-18.6c-0.1-3.5,0.1-6.9,0-10.3c-0.2-5.1-0.4-10.2-0.7-15.3c-0.4-5.7-1.5-11.3-0.8-17.1
	c0.6-4.9,1.1-9.8,1.7-14.7c0.9-7.4,1.8-14.7,2.7-22.1c0.6-4.9,1.2-9.9,1.9-14.9c0.9-5.9,2.1-11.8,2.8-17.7c1.1-8.8,1.9-17.6,3-26.4
	c0.6-4.6,1.5-9.1,2.5-13.6c1.1-5.2,2.5-10.4,3.7-15.6c1-4.2,2.2-8.4,2.5-12.7c0.2-2.5,0.7-4.9,1.2-7.3c0.2-1.1,0.5-2.1,0.9-3
	c0.6-1.4,1.8-2.1,2.9-2c1.3,0.2,2.3,1.3,2.5,2.9c0.1,1.2,0.1,2.4,0,3.6c-0.3,4-0.6,7.9-1,11.9c-0.3,3-0.6,6-0.9,9
	c-0.3,3.1-0.6,6.2-0.9,9.3c-0.3,2.9-0.5,5.7-0.7,8.6c-0.4,4.5-0.8,9.1-1.2,13.6c-0.3,3.3-0.5,6.6-0.9,9.8c-0.6,4.8-1.1,9.5-1.7,14.3
	c-0.5,4.2-1,8.5-1.5,12.8c-0.9,8-1.9,16-2.7,24c-0.4,3.3-0.5,6.7-0.7,10c-0.5,7.8-1.2,15.6-1.4,23.4c-0.3,13.4-0.3,26.9-0.4,40.3
	c0,0.4-0.1,0.9-0.1,1.4c0,3.4-0.2,6.8,0,10.1c0.3,7.3,1,14.5,0.8,21.8c0,0.8,0.1,1.6,0.1,2.4c0.3,7.4,0.8,14.8,1,22.2
	c0.1,3.3,0.6,6.3,1.6,9.4c1.6,4.8,4.2,8.9,7.3,12.8c0.7,0.9,1.6,1.7,2.6,2.1c2.6,1,5.3,1,8,0.4c3.2-0.8,5.1-3.1,6.4-5.8
	s2.3-5.5,3.2-8.3c0.5-1.3,0.7-2.7,0.7-4c0.3-8.6,0.5-17.3,0.7-25.9c0.1-1.6,0.3-3.2,0.3-4.8c0.1-3.1,0-6.2,0.1-9.3
	c0.2-6.8,0.6-13.6,0.6-20.4c0-9.6-0.3-19.2-0.6-28.8c-0.2-4-0.6-7.9-0.9-11.9c-0.4-4.9-0.9-9.9-1-14.8c-0.1-4.5,0.3-9,0.4-13.6
	c0.2-6.7,0.2-13.5,0.5-20.3c0.4-8,1.1-15.9,1.4-23.9c0.4-8.3,0.8-16.6,0.7-24.9c-0.1-12.2,0.3-24.3,1.4-36.4
	c0.4-4.3,0.7-8.7,0.9-13.1c0.2-4.6,0.6-9.2,1.6-13.7c0.4-1.7,1.6-3.2,2.9-3.5c1.7-0.3,4.6,1,5.6,2.5c2.3,3.6,3.1,7.6,3.3,11.8
	c0.3,5.6,0.6,11.2,1.2,16.7c0.4,3.3,0.9,6.6,0.7,10c-0.2,3.8-0.6,7.6-0.7,11.4c-0.2,4.9-0.2,9.9-0.3,14.8
	c-0.1,5.2-0.1,10.3-0.2,15.5c-0.2,6.8-0.4,13.6-0.6,20.4c0,1.5,0,3-0.3,4.5c-1.3,6.4-2.7,12.8-4,19.2c-0.8,3.7-1.4,7.5-2.1,11.3
	c-0.6,3.8-1.2,7.7-1.9,11.5c-1.3,7.1-2.3,14.3-2.3,21.6c0,3.1,0,6.2-0.2,9.3c-0.3,6-0.9,11.9-1.2,17.9c-0.3,6.5-0.6,12.9-0.6,19.4
	c0,9.6,0.2,19.2,0.5,28.8c0.1,4.3,0.4,8.6,1,12.9c0.8,5.6,4.7,7.7,9.7,8.8c0.4,0.1,0.9,0,1.4-0.1c6.5-1.1,10.9-5.1,14.3-10.4
	c0.3-0.4,0.5-0.8,0.6-1.3c0.7-3.7,1.5-7.4,1.9-11.1c0.5-5.1,0.7-10.2,0.9-15.3c0.4-7.1,0.7-14.2,0.9-21.3c0.1-4.8,0-9.6,0.2-14.4
	c0.1-3.6,0.6-7.1,0.7-10.7c0.2-6.3,0.1-12.6,0.1-18.9c0-3.2,0-6.5,0.2-9.8c0.4-4.9,1-9.8,1.5-14.7c0.1-1.4,0.4-2.8,0.5-4.2
	c0.3-4.4,0.5-8.7,0.8-13.1c0.3-5,0.9-10,1.2-15c0.4-5.7,0.7-11.3,1-17c0.4-5.6,0.7-11.1,1.1-16.7c0.2-3.2,0.5-6.3,0.8-9.5
	c0.4-4.2,1-8.4,1.5-12.6c0.6-5,1.2-10,1.7-15c0.5-4.6,0.9-9.2,1.2-13.8c0.2-2.6,0-5.2,0.2-7.7c0.3-3.1,0.7-6.1,1.4-9
	c0.5-2,2-3.5,4.2-3.8c2.4-0.4,4.7,0,6.2,2.1c2,2.8,3.1,6,3,9.6c-0.1,3.8-0.1,7.6,0.1,11.3c0.1,2.9,0.7,5.7,0.7,8.6
	c0,4.1-0.1,8.1-0.4,12.2c-0.7,9.1-1.5,18.3-2.4,27.4c-0.8,7.8-1.6,15.7-2.5,23.5c-1,9.3-2.2,18.5-3.3,27.8
	c-1.1,9.2-2.4,18.4-3.2,27.6c-0.9,9.4-1.4,18.8-2,28.2c-0.2,3.3-0.4,6.5-0.7,9.8c-0.4,4.5-1,8.9-0.7,13.4c0.2,2.8-0.1,5.6-0.2,8.4
	c0,3.4-0.5,6.9-0.1,10.3c1.1,9.9,2.4,19.7,3.7,29.6c0.6,4.7,2.5,8.6,6.8,11c1.5,0.8,2.9,1.7,4.3,2.6c3.9,2.7,8.2,4.7,12.9,5.4
	c4,0.6,8,0.6,11.8-1.1c1.7-0.8,2.8-2,3.2-3.7c0.7-3,1.6-5.9,1.8-8.9c0.5-6.5,0.9-13.1,1-19.6c0.1-4,0.3-8.1,1.1-12.1
	c0.1-0.5,0.1-0.9,0.2-1.4c0.6-5,1.1-10,1.7-15s1.2-10,1.6-15c0.5-5.5,0.8-11.1,1-16.7c0.2-4.5,0.1-9.1,0.2-13.6
	c0.2-5.3,0.5-10.7,0.8-16c0.4-7,0.9-14,1.4-21c0.6-8.5,1.3-17,2-25.5c0.6-7.2,1.2-14.4,1.8-21.6c0.2-3.3,0.5-6.7,0.5-10
	c0-2.8,0.1-5.6,0.7-8.3c0.2-1.2,0.7-2.3,0.7-3.5c0.2-5.3,0.1-10.7,0.5-16c0.4-4.8,0.9-9.5,1.8-14.2c0.6-3.3,2.1-6.4,2.9-9.6
	c1-3.8,3.6-6.5,6.1-9.3c0.5-0.6,1.3-0.9,2-1.3c2.5-1.3,5-0.4,6.6,1.9c3.5,5.3,3.9,11.3,4,17.4c0,2.6-0.7,5.2-1,7.8
	c-0.5,4.2-1.1,8.4-1.6,12.6c-0.9,8.3-1.7,16.7-2.6,25c-0.3,3.1-0.7,6.2-1.3,9.2c-1.8,8.7-4,17.3-5.6,26c-1.5,8.5-3.3,17-4.2,25.7
	c-0.8,7.8-1.9,15.6-2.9,23.3c-0.7,5.6-1.5,11.3-2.3,17c-0.6,5.1-1.3,10.3-1.9,15.4c-0.4,3.2-0.6,6.5-1.2,9.7
	c-1.4,7.7-3,15.4-4.4,23.2c-1.1,5.7-2.1,11.3-2.8,17c-0.9,6.9-1.2,13.8,1.9,20.4c0.2,0.5,0.5,1.2,0.5,1.8c0,2.5,1.7,4.1,3,5.8
	c0.7,1,1.7,1.7,2.4,2.7c1,1.6,2.5,2.2,4.2,2.5c2.2,0.5,4.4,0.9,6.6,1.2c2.3,0.4,4.4-0.3,6-1.8c2.1-1.9,3.9-4.2,5.7-6.4
	c2.8-3.4,3.6-7.8,4.8-11.8c1.3-4.4,1.7-9.2,2.5-13.8c0.4-2.1,0.8-4.1,1.1-6.1c0.2-1.4,0.1-2.9,0.3-4.3c0.4-3.4,0.9-6.7,1.2-10
	c0.5-4.8,0.7-9.6,1.3-14.3c0.3-3,1-5.9,1.5-8.9c0.9-5.3,1.8-10.6,2.6-16c0.7-4.7,1.5-9.5,2-14.2c0.8-7.1,1.4-14.1,2-21.2
	c0.4-5,0.7-10,1.1-15c0.5-5.5,1.2-10.9,1.7-16.4c0.6-5.4,1-10.8,1.6-16.2c0.5-4.4,1-8.9,1.5-13.3c0.5-4.2,1.2-8.5,1.5-12.8
	c0.5-7.4,1.7-14.6,3.1-21.8c0.9-4,1.7-8,2.4-12c0.2-1,0.1-2.1,0.1-3.1c-0.1-3.6-0.4-7.2-0.2-10.8c0.1-2,0.7-4.1,1.6-5.9
	c1.6-3.2,5.2-3.6,7.9-1.3c1.6,1.4,2.4,3.2,2.8,5.2c1,4.6,1.2,9.2,0.7,13.8c-0.5,4.8-1.3,9.6-1.9,14.4c-1.1,7.9-2.2,15.7-3.2,23.5
	c-0.7,5.5-1.3,11.1-2,16.6c-0.7,5.2-1.5,10.4-2.3,15.6c-0.7,4.7-1.5,9.4-2.5,14.1c-1.1,5.2-2.4,10.4-3.5,15.6
	c-1.4,7-2.7,13.9-4.1,20.9c-1.2,6.4-2.5,12.8-3.8,19.2c-1,5.1-2.3,10.2-3.3,15.4c-0.8,3.9-1.3,7.9-2.1,11.8
	c-1.8,8.2-3.2,16.4-3.7,24.8c-0.2,2.7-0.4,5.4-0.8,8.1c-0.9,6.6-1.9,13.2-2.9,19.8c-0.2,1.1-0.5,2.3-0.4,3.5
	c0.3,5.3,1.1,10.6,3.1,15.6c1.2,3.1,3.3,5.6,5.9,7.7c0.5,0.4,1.1,0.7,1.7,0.9c3.9,1.2,7.2-0.5,10.1-2.8c1.1-0.8,1.9-2.1,2.7-3.3
	c3.3-4.8,4.6-10.4,5.5-16.1c0.9-5.2,0.4-10.6,1.3-15.9c0.8-4.5,0.9-9.1,1.4-13.7c0.4-3,0.9-6,1.6-8.9c0.8-3.7,2.1-7.4,2.9-11.1
	c0.7-3.6,1.6-7.2,1.6-10.9c0-2.6,0.5-5.2,0.8-7.8c0.6-4.7,1.3-9.5,2-14.2c1-6.6,1.7-13.3,2.8-19.9c1.8-11.2,3.8-22.5,5.7-33.7
	c0.9-5.4,1.7-10.9,1.7-16.4c0-3.4,0.4-6.8,0.8-10.2c0.4-3.5,1.2-6.9,1.6-10.4c0.9-7.5,1.5-15.1,2.9-22.5c0.4-2,0.7-4,1-6.1
	c0.5-3.4,0.9-6.9,1.3-10.4c0.4-3.4,0.9-6.7,0.2-10.2c-0.4-2-0.3-4.1-0.1-6.2c0.3-3,1.1-6,2.7-8.6c1.6-2.7,4.3-3.9,7.3-3.8
	c3.1,0.1,5.4,1.9,6.7,4.7c1.1,2.2,1.6,4.6,1.6,7c0,0.8,0,1.6,0.1,2.4c0.5,3,0.5,6-0.3,8.8c-1.5,5.5-3,11-4,16.7
	c-1.3,7.2-3.2,14.2-4.9,21.2c-2.3,9.5-4.5,18.9-6.8,28.4c-0.8,3.3-1.6,6.5-2.3,9.8c-1.6,7.6-2.7,15.3-4.6,22.9
	c-1.5,6.1-2.6,12.3-3.9,18.4c-1.2,5.7-2.5,11.4-3.6,17.1c-0.8,4-1.2,8.2-2.1,12.2c-1.5,6.2-3.1,12.3-4.7,18.5c-1,4.1-2.3,8.3-3,12.5
	c-1.2,7.9-2.1,15.8-3,23.7c-0.5,4.4-0.8,8.8-1.4,13.1c-0.7,4.6-0.5,9,1.8,13.2c0.4,0.9,0.6,2,0.9,3c0.8,2.5,1.4,5,3.4,7
	c3.3,3.1,7.1,4.1,11.4,3.5c4.8-0.6,7.7-4.1,10.3-7.6c2.2-3.1,3.5-6.8,4.5-10.5c2.6-9.5,4-19.3,5.4-29.1c0.6-4.8,1-9.5,1.5-14.3
	c0.7-6.7,1.5-13.5,2.2-20.2c0.5-5,1-9.9,1.5-14.8c0.4-4.6,0.9-9.3,1.4-14c0.3-2.2,0.7-4.4,1-6.6c0.5-4.4,0.9-8.9,1.5-13.3
	c0.5-4,1.4-7.9,2-11.8c0.3-2.4,0.1-5,0.5-7.4c0.4-3,1.1-6,1.8-8.9c1.8-7.4,3.3-14.9,4.3-22.5c0.6-4.4,1.1-8.9,1.2-13.3
	c0.1-6.8,0.8-13.5,1.8-20.2c1.1-6.9,2.7-13.8,3.9-20.7c0.8-4.6,1.7-9.2,2.1-13.9c0.4-5.3,2-10,4.9-14.3c0.4-0.6,0.9-1.2,1.5-1.5
	c2.4-1.1,3.1-1,4.1,1.3c0.4,0.9,0.7,1.9,1,2.9c1.2,4.6,1.1,9.3,0.8,14c-0.2,4.3-0.9,8.6-1.6,12.8c-1.1,6.9-2.3,13.7-3.5,20.5
	c-0.9,5.1-1.7,10.1-2.5,15.1c-0.7,4.3-1.4,8.5-2,12.8c-0.5,3.5-0.8,7.1-1.5,10.6c-1.4,7.2-3.1,14.5-5.1,21.6
	c-1.5,5.2-2.1,10.6-2.2,16.2c-0.1,5.8,0.2,11.5,0.6,17.2c0.2,3.8,0.8,7.5,1.2,11.2c0.2,2.5,0,5,0.6,7.4c0.7,3,0.9,6,1.2,9
	c0.6,6.1,1,12.3,0.4,18.4c-0.1,0.8,0,1.6-0.1,2.4c-0.5,3.9-0.6,7.8-0.2,11.7c0.4,3.7,0.9,7.4,1.4,11.1c1.2,8.2,2,16.5,4.2,24.5
	c1.1,4,1.9,8.2,3.9,12c0.9,1.9,1.7,4,2.6,5.9c1,2.3,1.9,4.6,3.2,6.7c0.4,0.6,0.7,1.1,1.1,1.7h20.8c0.5-3.7,1-7.4,1.2-11
	c0.2-5.2,0-10.5-0.2-15.8c-0.2-7.1-0.3-14.2,0.2-21.3c0.3-4.2,1-8.4,0.2-12.6c0-0.3,0.1-0.7,0.1-1c0-6.3,1.2-12.6,0.7-18.9
	c-0.4-5.3-0.4-10.7-0.6-16c-0.1-0.8-0.2-1.6-0.3-2.4c-0.9-7.4-1.9-14.7-2.5-22.1c-0.6-7.8-0.7-15.6-1-23.4
	c-0.2-4.6-0.1-9.3-0.1-13.9c0-5.3,0-10.7,0.1-16c0.1-4.5,0.2-9.1,0.4-13.6c0.1-2.4,0.3-4.8,0.4-7.2c0.3-8.3,0.4-16.5,0.6-24.7
	c0.2-6.5,1.9-12.9,2-19.5c0-3.5,0.3-7.1,0.9-10.5c1-6,2-12.1,7.3-16.3c1.2,0.2,2.5,0.4,3.8,0.8c2.2,0.6,4.2,3.3,4.3,5.5
	c0.5,7,0.9,14.1,1.5,21.2c0.6,6.8,1.1,13.6,0.8,20.5c-0.2,5.8-0.7,11.6-1,17.4c-0.1,2.9-0.1,5.8-0.5,8.6c-1.2,8.9-1.7,17.8-2.2,26.7
	c-0.3,4.7-0.5,9.4-0.7,14.1c-0.3,6.1-0.7,12.1-0.9,18.2c-0.1,4,0,8-0.1,12c-0.2,4.3-0.6,8.6-0.7,12.9c-0.1,5.4-0.1,10.9-0.2,16.3
	c-0.2,6.7-0.5,13.4-0.7,20.1c-0.1,3.6-0.1,7.3-0.2,11c-0.1,5.1-0.2,10.3-0.3,15.5c0,4.8,0,9.6-0.2,14.4c-0.3,5.4-0.9,10.7-1.2,16
	c-0.2,3.9-0.4,7.8-0.5,11.7c0,1.1-0.1,2.2-0.1,3.3h13.7c0.1-7.5,0.3-15,0.5-22.6c0.2-7.9,0.6-15.8,0.9-23.7c0.2-5.3,0.3-10.7,0.5-16
	c0.3-7.7,0.6-15.5,1-23.2c0.4-6.4,0.8-12.7,1.1-19.1c0.1-2.5-0.2-4.9-0.1-7.4c0.2-7.7,0.4-15.4,1-23c0.4-4.9,0.3-9.8,0.9-14.7
	c1.5-12.6,1-25.3,1.3-38c0.3-12.5,0.7-24.9,0.9-37.4c0.1-3.4-0.3-6.9-0.3-10.3c0-5,0.3-10.1,0.2-15.1c-0.1-6.1,0.2-12.3-0.9-18.3
	c-0.6-3.2-1-6.5-3.1-9.4c-1.4-2-3.3-3.1-5.5-4c-0.7-0.3-1.4-0.3-2.1-0.6c-3.4-1.3-6.7-0.4-9.9,0.3c-2.5,0.5-5.1,1.3-7.1,2.7
	c-2.6,1.8-4.9,4.1-6.3,7.1c-2.9,6.3-4.6,13-5.8,19.7c-1.5,8.2-2.7,16.5-3.8,24.8c-0.5,3.3-0.5,6.6-0.6,10
	c-0.2,7.1-0.2,14.1-0.7,21.1c-0.5,8.3-0.3,16.6,0.2,24.9c0.2,3.7,0.3,7.3,0.5,11c0.3,7.8,0.6,15.6,1,23.4c0.4,7.6,1,15.1,1.4,22.7
	c0.4,8.3,0.8,16.6,1,24.9c0.3,7.7,0.2,15.5,0.4,23.2c0.2,7.3,0.6,14.7,0.9,22c0.1,3.6,0.2,7.3,0.2,11c0,7.3-0.1,14.7-0.1,22
	c0,2.2-0.8,4-2.5,5.4c-1.9-1.7-3.9-3.1-5.6-4.8c-1.8-1.8-2.8-4.1-2.9-6.7c-0.1-3.7-0.2-7.3-0.4-11c-0.1-1.7-0.3-3.5-0.5-5.2
	c-0.5-4.3-0.9-8.7-1.5-13c-0.4-3.5-1-7-1.5-10.6c-0.3-2.6-0.5-5.2-0.7-7.8c-0.4-5-0.9-9.9-1.3-14.8c-0.4-3.9-0.5-7.9-0.8-11.9
	c-0.4-5.2-0.8-10.3-1.2-15.5c-0.1-1.4-0.1-2.9-0.2-4.3c-0.2-4.5-0.2-9.1-0.7-13.6c-0.3-2.8,0.1-5.5,0.1-8.3c0-0.6,0.1-1.3-0.1-1.9
	c-0.7-2.4-0.2-4.8,0.7-7c1.2-3,1.7-6.2,2.2-9.3c0.9-5.6,1.8-11.3,2.6-17c0.8-5.6,1.5-11.3,2.3-17c1.3-9.3,2.3-18.7,4.1-27.9
	c1.4-7,2.4-14,3.5-21c0.8-5.4,1.6-10.9,2.3-16.3c0.3-2.5,0.5-5.1,0.6-7.6c0.1-5.6-2.2-10.5-5.2-15.1c-1.8-2.8-4.3-4.4-7.5-5
	c-2.9-0.5-5.9-0.7-8.8,0.1c-2.7,0.8-4.6,2.6-6.2,4.9c-3,4.7-4.5,9.8-5.4,15.2c-1.1,6.7-2.6,13.4-3.8,20.2c-0.5,3-0.8,6.1-1.2,9.2
	c0,0.6-0.2,1.3-0.3,1.9c-0.6,3-1,5.9-1.2,9c-0.2,3.7-0.9,7.4-1.7,11.1c-1.7,7.7-3.7,15.4-5.2,23.1c-1.2,6-1.8,12.1-2.7,18.2
	c-0.7,5-1.4,10.1-2.4,15.1c-1,5.5-2.4,10.9-3.5,16.4c-1.1,5.8-1.9,11.6-3,17.4c-1.3,6.3-1.8,12.8-2.5,19.2c-0.5,4-1.1,7.9-1.6,11.9
	c-0.6,4.7-1.2,9.4-1.7,14.2c-0.7,7.3-1.4,14.6-2,21.9c-0.3,4.3-0.5,8.6-0.9,12.9c-0.3,3.4-0.8,6.8-1.5,10.1
	c-0.3,1.2-1.2,2.5-2.1,3.4c-1.8,1.7-4.6,1.2-5.5-1.2c-1.1-3-1-6.1-0.8-9.2c0.4-7,1.7-14,1.9-21c0.1-4.7,0.4-9.4,2.1-13.9
	c2-5.5,2.8-11.4,3.8-17.2c1.4-7.7,2.9-15.3,4.3-23c1.3-7.1,2.5-14.3,3.8-21.4c1.4-7.8,2.9-15.5,4.4-23.3c1.1-6.2,2.1-12.4,3.4-18.6
	c1.3-6.4,3.1-12.7,4.6-19.1c1-4.3,1.8-8.7,2.7-13.1c1.8-8.4,3.3-16.9,5.3-25.3c1.3-5.4,2.7-10.9,3.1-16.4c0.3-4.9-0.2-10-0.5-15
	c-0.2-2.5-0.7-5-1.3-7.5c-1.1-4.7-4-7.9-8.1-10.2c-1.3-0.7-2.7-0.9-4.2-0.8c-5,0.3-9,2.8-12.5,6c-1,0.9-1.4,2.5-1.7,3.9
	c-1.9,8.2-3.8,16.4-5.6,24.7c-2.3,10.5-4.5,21-6.6,31.6c-1,4.9-1.9,10-2.7,15c-1.5,9.5-2.9,19.1-4.3,28.6c-0.6,4.2-0.9,8.5-1.5,12.8
	c-0.8,6.4-1.8,12.8-2.7,19.2c-0.1,0.8-0.1,1.7-0.2,2.6c-0.8,6.4-1.7,12.9-2.4,19.4c-0.5,4.4-0.7,8.7-1.2,13.1
	c-0.5,3.9-1.1,7.9-1.7,11.8c-0.8,5.4-1.5,10.9-2.3,16.3c-0.4,3.1-0.9,6.1-1.4,9.2c-0.6,3.9-1.3,7.8-1.7,11.8
	c-0.6,5.8-1.3,11.6-1.5,17.4c-0.2,4.6-0.5,9.2-1,13.8c-0.1,1.4-0.5,2.5-1.6,3.3c-1.5,1.2-2.9,2.3-4.4,3.4c-0.3,0.2-0.8,0.3-1.1,0.3
	c-1.3-0.1-2.5-0.4-4.1-0.6c0.2-2.1,0.4-4.3,0.7-6.5c1.1-7.9,2.3-15.8,3.3-23.7c0.7-5.9,1.2-11.9,2-17.8c0.6-4.5,1.4-9,2.1-13.5
	c0.9-5.9,1.9-11.8,2.9-17.7c0.9-5.2,2-10.3,2.9-15.5c1.1-6.2,2.3-12.5,3.3-18.8c1.1-6.7,2-13.5,3-20.3c0.3-1.8,0.7-3.5,1-5.2
	c1.2-6.1,2.7-12.3,3.6-18.5c1.2-8.2,2-16.5,3-24.7c0.9-8.2,1.9-16.5,2.8-24.7c0.9-7.8,1.7-15.7,2.7-23.5c0.5-4.1,1.4-8.3,2.4-12.4
	c0.9-3.8,1.4-7.5,1.4-11.4c0-1.4-0.3-2.7-1.1-3.8c-1.9-2.5-3.5-5.2-5.6-7.5c-2.5-2.9-6.1-4-9.7-4.8c-0.5-0.1-1.1,0.1-1.6,0.3
	c-3,1-5.4,2.6-6.8,5.6c-1.3,2.8-3.3,5.3-4.8,8c-2.8,5.1-4.5,10.6-5.4,16.3c-1.7,11-3.3,21.9-4.8,32.9c-1.4,10.2-2.6,20.5-3.9,30.8
	c-0.7,5.9-1.3,11.9-2.1,17.8c-0.7,5.8-1.8,11.6-2.5,17.5c-0.6,5-0.9,10.1-1.3,15.2c-0.4,4.2-0.8,8.4-1.1,12.6
	c-0.4,4.5-0.6,8.9-0.9,13.4c-0.3,4.9-0.6,9.9-1,14.8c-0.2,3.5-0.6,7-0.8,10.5c-0.4,7.2-0.6,14.3-1,21.5c-0.3,6.4-0.9,12.7-1.3,19.1
	c-0.1,2.4,0,4.9-0.1,7.4c0,1.9-0.1,3.8-0.4,5.7c-0.1,1-0.5,2-1,2.9c-1.3,2-2.6,3.9-4,5.7c-1.3,1.7-3.2,2.6-5.4,2.5
	c-1.6-0.1-3.2-0.1-4.8-0.2c-0.6,0-1.4-0.3-1.6-0.7c-0.9-1.7-1.8-3.5-2.2-5.3c-0.6-3-0.2-6,0.3-9c1-5.6,1.7-11.3,2.4-17
	c0.9-7.6,1.7-15.1,2.6-22.6c0.8-6.5,1.8-12.9,2.6-19.4c0.3-2.7,0.5-5.5,0.9-8.3c0.5-3.8,1.3-7.5,1.8-11.3c1.1-8.7,2.2-17.4,3.2-26.1
	c1.2-10.5,2.2-21.1,3.2-31.6c0.7-7.3,1.3-14.6,2.1-21.9c0.6-5.4,1.4-10.7,2.1-16.1c1.1-7.9,2.1-15.9,3.2-23.9
	c0.8-5.8,1.8-11.6,2.5-17.5c0.6-4.8,1-9.6,1.3-14.5c0.3-6.2-1.9-11.5-6.3-16c-1.4-1.5-3.1-2.8-5-3.5c-3.2-1.1-6.6-1.4-9.7,0.5
	c-0.1,0.1-0.3,0.2-0.4,0.3c-3.9,1.9-5.8,5.1-6.8,9.2c-1.4,5.9-3.3,11.7-5,17.5c-2.3,8.1-4.5,16.2-5.5,24.7c-1.1,9.7-2.8,19.3-4,28.9
	c-0.8,6-1.2,12.1-1.7,18.1c-0.4,4.8-0.8,9.7-1.2,14.5c-0.4,4.9-0.9,9.9-1.2,14.8c-0.4,6.7-0.6,13.4-1.1,20.1
	c-0.7,8.2-0.7,16.4-0.7,24.6c0,4.1,0.3,8.2,0.2,12.3c-0.1,6.3-0.5,12.6-0.7,18.9c-0.1,1.8-0.2,3.7-0.2,5.5
	c0.1,7.6-1.2,15.1-2.1,22.6c-0.8,6.6-1.8,13.3-2.8,19.9c-0.5,3.8-1.2,7.5-1.9,11.3c-0.2,1.6-1,2.9-2.5,3.6s-3,1.4-4.5,2.1
	c-0.8,0.4-1.6,0.3-2.1-0.5c-1.1-1.9-2.5-3.6-3.2-5.6c-2.5-7-4.3-14.2-5.4-21.6c-0.6-4.2-0.9-8.4-1.3-12.6
	c-0.6-7.7-1.1-15.4-1.9-23.1c-0.6-5.4-0.1-10.8,0.3-16.2c0.5-6.3,0.8-12.7,1.2-19.1c0.3-5.5,0.6-10.9,0.8-16.3
	c0.1-3.1,0.8-6.1,1.7-9.1c1.4-4.5,2.1-9.1,2.1-13.7c0-6.6,0.6-13.1,1.4-19.6c0.3-2.6,0.4-5.3,0.6-7.9c0.5-8.1,0.9-16.3,0.9-24.4
	c0-13.5,0-27,0.1-40.5c0-7.7,0.3-15.3,0.4-23c0.1-2.1-0.1-4.3-0.3-6.4c-0.2-1.8-0.6-3.6-1.8-5.1c-0.7-0.8-0.8-1.9-1.2-2.9
	c-1.6-3.9-3.6-7.4-8-8.6c-3.4-0.9-6.5-0.9-9.9,1.4c-4.2,2.9-5.3,7.2-5.8,11.5c-0.5,4.7-1.9,9.2-2.4,13.9c-0.9,8.5-2.2,17-3.1,25.6
	c-1.1,9.6-2,19.2-2.8,28.8c-0.7,7.3-1.1,14.6-1.7,21.9c-0.6,6.9-1.4,13.8-2.1,20.7c-0.3,3.5-0.5,6.9-0.7,10.3
	c-0.5,6.6-0.9,13.1-1.3,19.6c-0.3,5.7-0.7,11.5-1.1,17.2c-0.5,8.1-1,16.3-1.4,24.4c-0.2,4.3-0.2,8.6-0.5,12.9c-0.6,7,0.5,14,0.7,21
	c0.1,3.9,0.8,7.8,0.9,11.7c0.2,7.8-1.2,15.4-3.8,22.8c-0.4,1.3-1.3,2.5-2.3,3.5c-2.1,2-5,1.1-5.7-1.7c-0.8-3.2-1.4-6.5-1.5-9.7
	c-0.2-5.7-0.2-11.3,0-17c0.2-6,0.8-12.1,1.2-18.1c0.1-1.9,0.1-3.8,0.2-5.7c0.5-6.2,1-12.4,1.5-18.6c0.4-3.8,0.8-7.6,1.2-11.4
	c0.4-3.4,0.8-6.8,1.1-10.2c0.5-5.4,0.9-10.8,1.5-16.2c0.8-8,1.8-15.9,2.6-23.8c0.3-2.6,0.3-5.3,0.6-7.9c0.7-5.7,1.5-11.3,2.2-16.9
	c0.5-3.8,1-7.6,1.3-11.4c0.7-8.8,1.3-17.7,1.9-26.5c0.4-6.9,0.7-13.9,1-20.8c0.2-4.3,0.4-8.7,0.2-13.1c-0.2-4.8-0.8-9.6-1.4-14.3
	c-0.5-4.3-1.3-8.5-1.8-12.8c-0.2-1.2-0.6-2-1.4-2.9c-2.7-3-6-5.3-9.7-6.9c-1.3-0.5-2.8-0.8-4.2-0.7c-1.9,0.1-3.9,0.7-5.8,1.2
	c-1.7,0.5-2.8,1.7-3.7,3.4c-3.4,6.5-4.9,13.5-5.8,20.6c-1.1,8.9-1.9,17.9-2.1,26.9c-0.2,6.7-0.6,13.5-1,20.3
	c-0.5,8.8-1.2,17.6-1.9,26.3c-0.6,6.8-1.1,13.5-1,20.3c0.1,5.9-0.3,11.8-0.3,17.7c0,11.3,0.1,22.5,0.1,33.8c0,5.2-0.1,10.4,0,15.6
	c0.1,9.8,0.3,19.6,0.5,29.4c0.1,3.7,0.3,7.5,0.3,11.2c0,5.3-0.3,10.5-0.4,15.8c0,0.4,0,0.9,0,1.4c0.6,8.1,0.1,16.1-0.1,24.2
	c-0.1,3.8-0.7,7.6-1.3,11.4c-0.2,1.5-1.1,2.8-2.7,3.3c-1.5,0.5-2.7-0.3-3.8-1.4c-2.8-2.7-3.8-6.1-3.9-9.8c-0.1-2.6,0-5.3-0.1-7.9
	c-0.3-8.3-0.6-16.6-1.1-24.9c-0.2-5,0.1-10,0.5-15c0.2-3.5,0.1-7-0.1-10.5c-0.3-4.8-0.8-9.6,0-14.5c0.7-4.2,0.5-8.5,0.8-12.7
	c0.5-5.3,1.1-10.6,1.6-15.9c0.8-7.4,1.8-14.9,1.8-22.4c0.1-10.5,0.2-21.1,0.5-31.6c0.2-6.5,0.5-13.1,1-19.6c0.2-3,1.2-5.9,1.7-8.9
	c0.8-5,1.7-10,2.3-15.1c0.8-6.7,1.5-13.3,1.9-20c0.3-5,0.2-10.1,0.3-15.1c0.1-3.3,0.4-6.7,0.6-10c0.2-3.5,0.5-7.1,0.7-10.7
	c0.2-3.5-0.4-6.9-1.6-10.1c-1.4-3.7-4.2-6.5-8.3-7.3c-3.8-0.7-6.7,1.7-7.8,4.7c-1.8,4.6-3.7,9.2-4,14.2c0,1.2-0.4,2.3-0.6,3.5
	c-1.3,6-2.6,12-3.8,18c-1.3,6.8-2.6,13.6-3.6,20.5c-1.2,8.1-2,16.3-3,24.4c-0.3,2.8-0.8,5.6-1.3,8.3c-0.9,5.3-2,10.5-2.8,15.8
	c-1.4,9.6-2.8,19.2-3.9,28.9c-0.7,5.6-1,11.2-1.1,16.9c-0.3,14-0.5,28-0.6,42c-0.1,8.3,0.1,16.7,0,25.1c-0.1,5.9-0.2,11.8-0.5,17.7
	c-0.3,4.6-0.8,9.3-1.3,14c-0.4,3.5-3.3,6.6-6.7,7.3c-0.5,0.1-1.1,0-1.6-0.2c-3.4-1.4-5.6-4.8-5.5-8.7c0.2-5.4,0.4-10.9,0.5-16.3
	c0.1-3.6-0.5-7.2-1.1-10.7c-0.6-3.3-0.7-6.7-0.9-10c-0.4-7.7-0.6-15.3-1-23c-0.2-4.3-0.4-8.6-0.8-12.9c-0.3-3.6-1-7.2-1.2-10.9
	c-0.2-3.9,0.1-7.8,0.1-11.7c0-2.8-0.2-5.6-0.3-8.4c-0.1-9.1-0.3-18.1,0.6-27.1c0.5-5,1.2-10,1.7-15c0.3-3.5,0.4-7,0.7-10.5
	c0.5-6.8,1.1-13.7,1.6-20.5c0.3-4.7,0.6-9.4,0.8-14.1c0.2-6.1,0.3-12.3,0.5-18.4c0.1-5,0.2-9.9,0.3-14.8c0.2-6,0.4-12,0.6-18
	c0.2-5,0.4-9.9,0.5-14.9c0-0.9-0.1-1.7-0.1-2.6c0-0.2,0-0.5,0-0.7c-2.8,0-5.7,0-8.6,0c0,0.2,0,0.5,0,0.7c-0.1,5.6-0.2,11-0.9,16.5
	C405.9,20.4,405.7,24.3,405.4,28.2z"/>
<path class="st2" d="M531.1,293.8c-2.6-1.1-5.3-2-7.9-2.9c-3.7-1.2-5.8-0.5-8.3,2.4c-0.7,0.9-1.2,2-2.1,2.6
	c-3.1,2.2-4.3,5.4-5.2,8.9c0,0.2-0.1,0.3-0.1,0.5h32.2c-0.5-1.8-1.2-3.6-1.9-5.3C536.4,297.1,534,295.1,531.1,293.8z"/>
<path class="st3" d="M218.8,304.3c-0.9,0.3-1.7,0.6-2.4,1h15.5C227.6,303.6,223.3,303,218.8,304.3z"/>
<path class="st3" d="M366.2,24.3c-0.1,2-0.1,3.9-0.2,5.8c-0.2,4.9-0.5,9.8-0.5,14.8c-0.1,15.4-0.1,30.9-0.3,46.3
	c0,5.7-0.2,11.3-0.5,17c-0.3,6.6-0.5,13.2-1.1,19.8c-0.5,5.2,0.5,10.3,0.8,15.5c0.3,5,1,10,1.3,15c0.3,4.2,0.4,8.5,0.5,12.7
	c0.2,6.3,0.3,12.6,0.5,18.9c0.1,3.5,0.4,7,0.3,10.5c-0.1,4.9-0.5,9.9-0.7,14.8c-0.3,8.9-0.5,17.7,1.5,26.5c0.9,3.8,1.4,7.6,1.5,11.4
	c0.1,2.8-0.6,5.6-1.3,8.4c-0.2,1.1-1.2,2-2,2.9c-1.1,1.3-2.3,2.6-3.5,3.9c-1.1,1.2-2.3,1.1-3.9,0.6c-3.3-1-4.6-3.6-5.3-6.5
	c-1.3-5.4-2.3-10.8-2.7-16.3c-0.5-7.2-1.5-14.4-1.4-21.7c0-5.3-0.3-10.6-0.3-15.9c0-6.3,0.3-12.6,0.3-18.9c0.1-7,0.1-14.1,0-21.1
	c-0.1-5.1-0.4-10.3-0.7-15.4c-0.2-3.9-0.7-7.7-1.1-11.6c-0.4-3.5-0.9-7.1-1.3-10.6c-0.8-6.5-1.6-13.1-2.8-19.6
	c-1.4-7.8-2.5-15.6-3-23.5c-0.6-8.7-1.7-17.3-3.1-25.9c-1.1-6.9-2.5-13.8-3.7-20.7c-0.9-5.2-1.6-10.4-2.5-15.6
	c-0.6-3.1-1.4-6.2-2.2-9.3c-0.8-2.6-3.6-4.4-6.3-4.6c-5.9-0.5-11.3,6.3-11.3,11.2c0,2.8,0.4,5.6,0.5,8.4c0.2,5.7,0.4,11.3,0.6,17
	c0.3,6.7,0.6,13.4,1.6,20c0.3,1.8,0.2,3.5,0.3,5.3c0.2,5.7,0.2,11.5,0.5,17.2c0.1,3.6,0.6,7.1,0.9,10.7c0.3,3.5,0.6,6.9,0.7,10.3
	c0.1,5.3,0.2,10.7,0.1,16c-0.1,7.9-0.3,15.9-0.4,23.9c0,5.6,0,11.3,0.2,17c0.3,7.4,0.9,14.8,1.3,22.2c0.3,6.1,0.9,12.2,1.8,18.3
	c0.2,1.8,0.2,3.5,0.2,5.3c-0.1,6.2,0,12.5-0.2,18.7c-0.2,7-0.5,14-0.9,21c-0.4,7.8-0.9,15.6-1.5,23.4c-0.4,5.2-0.9,10.3-1.4,15.5
	c0,0.4-0.2,0.8-0.3,1.4c-1.7-0.6-3.3-1-4.8-1.7c-1.9-0.9-2.7-2.5-3.1-4.5c-1.3-6.4-1.7-12.8-1.8-19.3c-0.1-4.9-0.6-9.9-0.8-14.8
	c-0.1-2.4,0-4.8-0.1-7.2c-0.1-5.7-0.3-11.5-0.5-17.2c0-2.2,0.1-4.3,0-6.5c-0.2-5.3-0.6-10.5-0.7-15.8c-0.1-5.3,0.2-10.6,0.1-15.9
	c-0.2-5.7-0.6-11.5-0.8-17.2c-0.2-2.8-0.2-5.6-0.2-8.4c0-11.5,0.2-23-0.1-34.5c-0.1-7.9-1.1-15.7-1.6-23.6
	c-0.3-4.9-0.4-9.8-0.3-14.7c0.1-6.3-0.4-12.7-0.6-19.1c-0.1-1.3,0.1-2.7,0.1-4c0.1-6.6-0.3-13.1-1-19.6c0-0.7-0.2-1.4-0.2-2.1
	c0.1-6.6-0.8-13.2-2.1-19.7c-1-4.9-2.3-9.8-5-14.1c-1-1.6-2.2-3.1-3.6-4.4c-0.7-0.7-1.9-0.9-3-1.1c-6.5-1.4-12.5,2.6-15,7.4
	c-1.2,2.3-1.6,5.1-2,7.8c-0.9,5.4-1.7,10.7-2.4,16.1c-0.7,5.5-1.5,11-1.1,16.5c0.5,7.6,1.1,15.3,1.7,22.9c0.4,5.4,0.7,10.8,1.2,16.2
	c0.6,6.4,1.3,12.8,2.2,19.2c0.9,6.6,2.1,13.2,3,19.8c1.2,8.6,2.2,17.2,3.4,25.8c1.1,7.7,1.6,15.4,2,23.1c0.3,5.7,0.6,11.4,1,17
	c0.8,10.6,1.6,21.3,1.4,32c-0.1,7-0.6,14-0.9,21c-0.1,2.9-0.2,5.8-0.6,8.6c-0.5,3.5-1.2,6.9-2,10.3c-0.2,1.1-2.8,2.4-4.4,2.3
	c-4.1-0.2-6.1-1.3-7.4-5.5c-1-3.2-1.4-6.5-1.9-9.8c-0.9-6-0.9-12-1.1-18.1c-0.4-9-1-17.9-1.5-26.9c-0.2-4-0.3-8-0.5-12
	s-0.5-8.1-0.7-12.1c-0.1-2.9,0-5.9-0.1-8.8c-0.1-3.5-0.4-6.9-0.6-10.3c-0.2-3.3-0.4-6.7-0.5-10c-0.1-6.5-0.2-13.1-0.3-19.6
	c0-4.9,0-9.9-0.2-14.8c-0.1-4.8-0.5-9.6-0.6-14.5c-0.1-4.7-0.1-9.5-0.2-14.3c-0.2-8.1-0.4-16.2-0.6-24.3c-0.1-6.9-0.2-13.8-0.4-20.6
	c-0.2-6.1-0.8-12.2-1.9-18.3c-0.7-4.2-1.3-8.5-2.2-12.7c-0.4-2.1-1.3-4.1-2-6.1c-0.6-1.7-1.4-3.3-2-4.9c-0.7-1.9-2-3.3-3.8-4.1
	c-4.8-2.3-9.8-2.2-14.6-0.1c-2.6,1.2-3.4,3.8-4.5,6.2c-2,4.4-2.3,9.1-2.2,13.8c0.2,7.4,0.7,14.8,0.9,22.2c0.2,8.7,0.2,17.3,0.3,25.9
	c0,0.2,0,0.5,0,0.7c0,5.2-0.1,10.4,1,15.5c0.9,4.2,1.1,8.6,1.5,13c0.5,6.6,0.9,13.1,1.5,19.6c0.5,5.4,1.4,10.7,2,16.1
	c0.3,2.9,0.5,5.9,0.8,8.8c0.1,0.8,0.2,1.5,0,2.2c-1.1,5-0.2,9.9,0.1,14.8c0.2,4.2,0.6,8.4,0.9,12.6c0.3,3.8,0.6,7.6,1,11.4
	c0.4,4.6,0.8,9.2,1.4,13.8c1.2,8.8,0.9,17.6,1,26.5c0,4.5,0.4,9,0.2,13.5c-0.3,5.6-0.2,11.3-1.4,16.9c-0.7,3.5-1.3,7.1-1.9,10.6
	c-0.6,3.4-1.9,6.5-3.7,9.4c-4.2,0-7.2-1.9-8.2-5.5c-0.7-2.5-1.2-5.1-1.6-7.7c-0.8-5.1-1.7-10.2-2.6-15.3c-1-5.9-1-12.1-1.6-18.1
	c-0.8-8.1-0.2-16.1-0.3-24.2c0-5.9,0.3-11.7,0.5-17.5c0.3-7.4,0.9-14.8,1.1-22.2c0.2-4.5,0-9.1-0.1-13.6c-0.1-5.8-0.1-11.5-0.2-17.3
	c-0.1-10.5-0.2-21.1-0.5-31.6c-0.2-6.7-0.6-13.4-1-20.1c-0.6-8.8-1.3-17.7-1.9-26.5c-0.6-8-2.4-15.8-4-23.6
	c-1.2-6-2.7-11.8-3.7-17.8c-0.8-4.7-4-7.2-7.8-9c-2.3-1.1-5.1-1.2-7.5-0.3c-2.3,0.8-4.4,2.4-6.2,4.3c-4.3,4.7-6.2,10.2-5.9,16.6
	c0.2,5.6,1.1,11.1,1.9,16.6c0.5,4,0.9,8,1.2,12.1c0.4,5.6,0.8,11.1,1.2,16.7c0.2,3.7,0.4,7.4,0.6,11.2c0.4,8.5,0.7,16.9,1,25.4
	c0.2,5.3,0.3,10.5,0.5,15.8c0.3,9.2,0.6,18.3,1,27.5c0.3,6.2,0.6,12.5,1,18.8c0.4,6.2,1,12.5,1.4,18.8c0.3,4.5,0.5,9.1,0.8,13.6
	c0.3,5.3,0.8,10.5,1.1,15.8c0.2,3.6,0.3,7.2,0.5,10.8c0.4,5.4,0.9,10.7,1.3,16c0.2,3.1,0.4,6.2,0.6,9.3c0.5,6.5,1,13,1.5,19.5
	c0,0.7,0.2,1.4,0.4,2.1c0.5,1.8-0.5,7.4-1.4,9c-1.3,2.4-3.5,2.7-5.9,2.7c-3.4,0.1-5.7-1.6-7.7-4.3c-3.2-4.3-3.5-9-3.1-13.9
	c0.1-1.3,0.1-2.7,0.1-4c0.3-9.2,0.7-18.3,0.8-27.5c0.1-5.1-0.6-10.2-0.8-15.3c-0.1-2.6,0-5.1,0.1-7.7c0.1-3.7,0.2-7.3,0.3-11
	c0.3-8.1,0.5-16.3,0.7-24.4c0.2-6.9,0.2-13.7,0.3-20.6c0.1-2.6,0.3-5.2,0.3-7.7c-0.1-8.9-0.3-17.7-0.5-26.6
	c-0.1-5.3-0.3-10.7-0.5-16c-0.2-6.3-0.5-12.5-0.8-18.7c-0.2-4.1-0.3-8.1-0.5-12.2c-0.2-5.5-0.3-11-0.7-16.5
	c-0.6-9.2-0.4-18.4-2.3-27.4c-0.8-3.9-2.2-7.7-3.7-11.4c-1.3-3.2-2.9-6.2-4.5-9.3c-1.8-3.6-4.8-5-8.7-4.5c-2.8,0.4-5.5,1.3-7.6,3.2
	c-2.4,2.2-4.6,4.6-6.8,7c-1,1.1-1.4,2.5-1.4,4c0,3.1,0,6.3,0,9.5c0.1,7.6,0.1,15.2,0.2,22.8c0.1,1.8,0.3,3.6,0.3,5.3
	c0,2.5-0.3,4.9-0.3,7.4c-0.1,7.8-0.1,15.5-0.2,23.3c-0.1,8.9-0.5,17.7-0.5,26.6c0,6.3,0.4,12.6,0.5,18.9c0,4.3-0.1,8.6-0.2,12.9
	c0,2.6-0.1,5.1,0,7.7c0.1,3.7,0.3,7.5,0.4,11.2c0.1,5,0,9.9,0.1,14.9c0.1,8.3-0.1,16.5-0.1,24.8c-0.1,8.4-0.6,16.8-1.6,25.1
	c-0.5,4.5-1.6,8.9-2.4,13.4c-0.4,2.4-0.6,4.9-1,7.3c-0.8,5.3-1.8,10.5-2.7,15.8c-0.3,1.5-0.4,3-0.4,4.5c0,2-0.4,3.9-2.4,4.8
	c-2.1,0.9-3.8-0.2-5.3-1.7c-2.7-2.7-3.5-5.9-2.8-9.5c1.7-9,2.7-18.1,3.7-27.2c0.7-6,1-12.1,1.6-18.1c0.9-9.5,0.8-19.1,0.8-28.7
	c0-3.1,0.4-6.1,0.6-9.1c0.3-3.5,0.7-7,0.8-10.5c0.2-4.7,0.1-9.4,0.2-14.1c0.2-8.3,0.5-16.5,0.7-24.7c0.1-6.8,0.2-13.7,0.2-20.6
	c0-5.6,0-11.1-0.2-16.6c-0.1-4.7-0.5-9.4-0.8-14.1c-0.3-5.5-0.6-11-1-16.5c-0.6-9-1.1-18-2.2-26.9c-0.4-3.4-0.4-6.9-0.7-10.3
	c-0.4-4.4-0.9-8.9-1.4-13.3c-0.1-0.9-0.5-1.9-1.1-2.6c-3-3.4-6.5-6-11-6.8c-1.2-0.2-2.7-0.1-3.9,0.3c-4.3,1.5-7.6,4.4-10.3,7.9
	c-0.7,0.8-0.9,2-1.4,3c-2.8,5.7-3.3,11.7-2.7,17.9c0.8,8.3,1.5,16.5,2.2,24.8c0.8,8.9,1.7,17.8,2.3,26.7c0.8,12.1,1.3,24.2,2,36.3
	c0.2,5.1,0.6,10.2,0.7,15.3c0.1,8.9,0.1,17.9,0.2,26.8c0.1,12.7,0.4,25.3,0.4,37.9c0,6.9,0.6,13.7,1.4,20.5c1,8.9,1,17.7,0.8,26.6
	c-0.1,1.9-0.8,3.7-1.5,5.5c-0.8,1.9-1.9,3.6-2.7,5.4c-0.6,1.4-1.5,2-3,1.9c-0.8-0.1-1.6,0.1-2.5,0.1c-1.2-1.7-1.9-3.4-1.9-5.5
	c0.1-4.2-0.2-8.4-0.2-12.6c0-3,0.3-6.1,0.5-9.1c0.1-1.3,0.4-2.5,0.4-3.8c0.3-10.3,0.6-20.5,0.8-30.7c0.2-8.4,0.2-16.9,0.1-25.4
	c-0.2-9.9-0.4-19.8-0.9-29.7c-0.7-12.7-0.7-25.5-0.5-38.3c0.1-8.4-0.3-16.8-0.4-25.2c0-2.6-0.1-5.1-0.2-7.7
	c-0.2-6.7-0.3-13.4-0.5-20.1C89.4,56.6,89.3,51,89,45.4c-0.4-5.2-0.8-10.5-1.5-15.7c-0.6-4.3-1.7-8.6-3.6-12.6
	c-1.5-3.1-4-4.9-7.1-5.8c-3.7-1-7.4-1.1-11,0.6c-1.6,0.8-2.6,2-3.8,3.2c-2.6,2.6-4.2,5.9-5.9,9c-0.6,1-0.8,2.2-0.9,3.4
	c-0.3,6.5-0.6,12.9-0.7,19.4c-0.1,3.2,0,6.4,0.1,9.6c0.2,6.2,0.6,12.4,0.7,18.6c0.2,7.2,0.1,14.5,0.2,21.7
	c0.1,10.5,0.3,21.1,0.5,31.6c0.1,6.6,0.3,13.3,0.5,19.9c0.2,8.1,0.6,16.1,0.9,24.2c0.3,8.9,0.8,17.7,0.9,26.6
	c0.1,8.8,0.1,17.6-0.2,26.4c-0.2,7-1.1,14-1.6,21c-0.2,1.8-0.1,3.5-0.1,5.3c0,3.5,0.1,6.9,0.3,10.3c0.2,3.9-1.6,6.6-4.5,8.8
	c-0.1,0.1-0.3,0.2-0.4,0.3c-1.2,0.6-2.2,2.1-3.6,1.3c-1.5-0.9-2.3-2.6-2.5-4.4c-0.1-1.9-0.3-3.8-0.3-5.7c-0.1-4.3,0.2-8.7-0.2-13.1
	c-0.6-6.5,0.4-12.8,0.9-19.1c0.2-2.7,0.1-5.4,0.2-8.1c0.1-5.1,0.2-10.2,0.5-15.3c0.4-8.8,1-17.7,1.4-26.5c0.4-8.9,0.7-17.7,1-26.6
	c0.3-6.5,0.6-13.1,0.9-19.6c0.3-6.3,0.8-12.7,1-19.1c0.1-3.6-0.1-7.3-0.3-11c-0.3-7-0.5-14-0.4-21c0-6-0.6-11.9-1.1-17.9
	c-0.4-4.1-0.8-8.2-1.6-12.3c-1.3-7-2.6-14.1-4.5-21c-1.2-4.3-3.1-8.4-6.5-11.6c-2.3-2.1-4.9-3.4-7.7-4.2c-1.8-0.6-3.7-0.8-5.6-1
	c-3.8-0.5-7.4,0.1-10.7,2.3c-2.6,1.7-4.1,4.1-4.9,7.1C6.7,28.8,6.7,33.2,7,37.7c0.3,4.3,0.6,8.5,0.9,12.7c0.6,9.4,1.3,18.9,1.8,28.4
	c0.3,5.2,0.4,10.4,0.7,17c0.3,5.1,0.6,10.2,0.8,15.3c0.1,3,0.1,6.1,0.2,9.1c0.3,8.7,0.6,17.3,1,25.9c0.4,7.2,1,14.5,1.4,21.7
	c0,1.4,0,2.7,0,4.1c0.2,6.9,0.2,13.7,0.5,20.6c0.3,7,0.9,14,1.3,21c0.3,5.4,0.4,10.9,0.6,16.3c0.2,5.5,0.4,11,0.6,16.5
	c0.3,8.4,0.6,16.7,0.9,25.1c0.3,6.2,0.6,12.4,0.8,18.6c0.1,3.2,0.1,6.4,0.2,9.6c0,1.2,0.4,2.4,0.4,3.6c0,0.7,0,1.4,0,2.1h12.5
	c0-2.3-0.1-4.7-0.2-7c-0.4-5.4-0.3-10.9-0.7-16.3c-0.5-6.1-1.3-12.2-1.7-18.3c-0.4-5.4-0.4-10.9-0.5-16.3
	c-0.2-7.1-0.3-14.2-0.5-21.3c-0.1-2.8-0.1-5.7-0.2-8.6c-0.3-6.7-0.6-13.3-0.8-19.9c-0.1-4-0.1-7.9-0.2-11.8
	c-0.2-5.1-0.5-10.2-0.7-15.3c-0.2-4.2-0.1-8.5-0.2-12.7c-0.2-6.4-0.3-12.8-0.5-19.2c-0.1-4.3-0.2-8.6-0.3-12.9
	c-0.2-8.3-1.8-16.3-2.6-24.5c-0.5-5.3-0.6-10.5-0.9-15.8c-0.2-4.3-0.4-8.6-0.5-12.9c-0.2-6.9-0.4-13.7-0.6-20.6
	c-0.1-3.3-0.4-6.7-0.3-10c0.1-2.3,0.4-4.6,1-6.8c0.7-2.5,2.9-3.5,5.3-2.7c3.2,1,5.7,2.9,7,6.1c1.5,3.5,2.5,7.1,3,10.8
	c0.6,4.7,1.2,9.3,1.8,14c0.4,3,0.9,6,1,9c0.3,6.4,0.6,12.9,0.5,19.3c0,5.9-0.6,11.8-0.9,17.7c-0.2,3.5-0.2,7-0.5,10.5
	c-0.4,5.4-1.1,10.9-1.4,16.4c-0.5,8.3-1.4,16.5-1,24.8c0.2,3.5-0.5,7,0.1,10.5c0,0.2-0.1,0.5-0.1,0.7c-0.1,1.7-0.2,3.5-0.4,5.2
	c-0.3,3-0.6,6-0.9,9c-0.5,4.5-1.3,9-1.6,13.5c-0.3,4.9-0.2,9.9-0.4,14.8c-0.1,2-0.3,4-0.4,6c-0.1,1.6,0,3.3,0.1,5
	c0.4,4.8,0.9,9.5,1.1,14.3c0.1,3.8-0.3,7.7-0.3,11.5c-0.1,5.6-0.3,11.2,0,16.8c0.2,4.7,1,9.5,1.8,14.2c0.3,1.9,1.1,3.7,2.9,4.5
	c2.2,1,4.6,1.5,7,0.9c1.6-0.4,3.2-1,4.8-1.6c3.7-1.5,7.1-3.5,8.7-7.4c0.1-0.3,0.3-0.5,0.5-0.8c2.2-2.9,3.6-6.2,4.8-9.6
	c0.8-2.3,1.8-4.6,2.9-6.8c1.3-2.5,2-5.2,2.2-8c0.3-4.6,0.6-9.1,1.2-13.6c0.8-5.8,0.6-11.5-0.2-17.2c-0.5-3.2-1-6.4-1.1-9.7
	c-0.1-4.5,0.1-8.9,0.4-13.4c0.4-6.8,1.1-13.6,1.4-20.5c0.3-6.4,0.4-12.9,0.3-19.3c0-4.3-0.7-8.5-0.7-12.7
	c-0.1-7.8-1.9-15.5-2.4-23.3c-0.2-3.5-0.7-6.9-0.7-10.3c0-7.9-0.2-15.7-0.8-23.6C65.8,84,65.5,78,65.3,71.9C65,63,64.7,54,64.7,45.1
	c0-6.8,0.9-13.5,4-19.7c0.4-1,1.1-2.1,2.2-1.9c1,0.2,2.4,0.7,2.8,1.5c2.9,5.3,4.5,11,3.4,17.2c-0.9,5-1.3,10.1-1.2,15.2
	C76,63.2,77,69,76.4,74.8c0,0.2,0,0.3,0,0.5c0.1,3.9,0.3,7.9,0.3,11.9c0,4.3-0.5,8.5-0.4,12.7c0.1,5.4,0.5,10.8,0.9,16.2
	c0.4,6.6,0.9,13.3,1.4,20c0.1,1.2,0.1,2.3,0,3.4c-0.2,4.1-0.6,8.3-0.7,12.4c0,3.5,0.3,7,0.3,10.5c0,6.9-0.2,13.7-0.3,20.6
	c0,2.6-0.1,5.3-0.2,7.9c-0.4,6.8-0.9,13.5-1.2,20.3c-0.3,7.3-0.5,14.7-0.5,22c0,10.5-0.4,20.9,0.2,31.4c0.4,7.7,1.6,15,4.6,22.1
	c0.2,0.4,0.6,0.7,0.9,1c2.9,2.6,6.5,3.9,10.2,5c2.8,0.8,5.3,0.6,7.7-0.9c1.8-1.1,3.9-2,4.9-4.1c1.1-2.5,2.2-5,3.3-7.6
	c0.1-0.2,0.1-0.6,0.1-0.9c-0.1-5.5,0.4-11,1-16.5c0.3-3.3,0.3-6.7,0.7-10c1-7.7,2-15.3,1.7-23.1c-0.2-4.7,0.1-9.6-0.6-14.3
	c-1.1-7-1.2-14.1-1.6-21.2c-0.4-8.6-0.4-17.3-0.5-25.9c-0.1-8.7-0.1-17.3-0.2-25.9c-0.1-3.5-0.3-7-0.6-10.5
	c-0.4-4.6-0.8-9.2-1.2-13.8c-0.4-4.1-0.6-8.3-1-12.4c-0.4-4-0.8-8.1-1.2-12.1c-0.2-2.5-0.4-5.1-0.7-7.6c-0.5-4.5-1.2-9-1.2-13.6
	c0-4.3-0.3-8.7-0.7-13.1c-0.3-3.4-0.8-6.8-1.2-10.2c-0.5-5.1,0.8-9.9,2.1-14.8c0.3-0.9,0.7-1.8,1.2-2.6c2.1-3.2,6-3.2,8.1,0
	c0.6,0.8,0.9,1.7,1.3,2.6c1.3,3.2,2.1,6.6,2.2,10c0.1,3.4-0.2,6.9-0.2,10.3c0,3.9,0.3,7.8,0.3,11.7c0.1,14.1,0.2,28.3,0.3,42.4
	c0,4.5-0.1,8.9,0,13.4c0.1,5.7,0.4,11.3,0.4,17c0.1,8.8,0.1,17.6,0,26.4c-0.1,9.5-0.4,19-0.6,28.5c-0.1,1-0.3,2.1-0.3,3.1
	c0.1,2.7,0.4,5.4,0.4,8.1c0.1,11.1,0.2,22.2-0.9,33.3c-0.6,6.4-0.9,12.8-2.3,19.2c-0.7,3.3-0.9,6.8-1.1,10.2
	c-0.2,2.8-0.1,5.5,0.1,8.2c0.2,4.4,0.7,8.7,1.8,13c1.7,6.4,11.1,9.6,16.2,4.8c4.5-4.3,7.8-9.2,9.9-15c1.8-4.9,2.1-10.1,3.1-15.2
	c1.4-6.9,2.3-14,3.4-21c0.5-3.7,1.3-7.4,1.4-11.1c0.2-7.4,0.2-14.9,0.2-22.3c0-4.9,0.1-9.7,0-14.6c-0.2-7.5-0.4-14.9-0.5-22.3
	c0-4.7,0.3-9.5,0.2-14.2c-0.1-5.4-0.5-10.8-0.7-16.2c-0.1-5.1-0.2-10.2-0.1-15.3c0.2-8,0.6-15.9,0.9-23.9c0.2-7,0.4-13.9,0.5-20.9
	c0.1-7.4,0.2-14.9,0.2-22.3c0-4.2-0.2-8.3-0.1-12.5c0-3.3,0.2-6.6,0.5-9.8c0.2-1.9,1.1-3.5,2.5-4.8c2.9-2.7,6.4-2,7.9,1.7
	c0.5,1.2,0.9,2.5,1,3.7c0.4,4.5,0.6,8.9,0.9,13.4c0.4,4.8,0.6,9.5,1,14.3c0.4,5.2,1.2,10.5,1.4,15.7c0.3,10.1,0.5,20.3,0.5,30.4
	c0,8.5-0.2,17.1-0.4,25.6c-0.2,6.5-0.6,12.9-0.9,19.4c-0.5,10-0.8,20.1-0.4,30.1c0.3,8.5,0.8,17.1,1.2,25.6
	c0.1,4.2,0.3,8.5,0.3,12.7c0.1,3.4-0.2,6.9-0.2,10.3c0,4.8-0.1,9.6,0.1,14.4c0.2,5.5,0.7,11,0.9,16.5c0.2,4.7,0.2,9.4,1.2,14
	c0.7,3,1.2,6.1,1.6,9.2c0.8,6.2,3.4,11.4,7.3,15.9H193c1.3-1.1,2.4-2.3,3.4-3.7c2.4-3.2,3.7-6.9,4.6-10.7c1-4.2,1.8-8.6,1.5-13
	c-0.3-5.5-0.6-11-1-16.5c-0.3-5-0.7-9.9-1.2-14.8c-0.5-5.7-1.1-11.3-1.7-16.9c-0.5-5.2-1.3-10.3-1.5-15.5c-0.3-8.2-0.2-16.4-1-24.6
	c-0.5-5.5-0.7-11.1-0.9-16.7c-0.3-8.5-0.4-16.9-0.7-25.4c0-2.9-0.3-5.7-0.5-8.6c-0.3-4.2-0.8-8.3-1.2-12.4c-0.6-5.5-1.2-11-1.9-16.4
	c-1-7.4-2.2-14.7-2-22.1c0.1-4.8-0.1-9.6,0-14.4c0.1-7.1-0.5-14.1-0.9-21.1c-0.2-4.2-0.6-8.2-2-12.2c-0.1-0.5-0.2-0.9-0.3-1.4
	c-0.6-3.2-1-6.3-0.2-9.5c1.5-5.9,7.2-5.8,10-2.9c1.4,1.4,2.4,3.3,3.4,5.1c1.3,2.3,1.4,5,1.8,7.6c1,5.6,2,11.2,3,16.9
	c1.2,7.4,0.8,14.9,1.4,22.4c0.2,3.1,0.4,6.1,0.6,9.1c0.1,2,0.4,4,0.4,6c0.2,11,0.3,22,0.4,33c0.1,4.7,0.1,9.5,0.2,14.3
	c0.1,3.3,0.3,6.7,0.3,10c0,2.9-0.2,5.7-0.3,8.6c-0.3,9.1-0.6,18.1-1,27.1c-0.3,7.2-0.9,14.3-1.1,21.5c-0.2,5.2-0.1,10.4,0.1,15.6
	c0.2,5.8,0.7,11.6,1.3,17.4c0.7,6.9,1,13.8,1,20.8c0,5.5,0.4,11,1.4,16.4c0.6,2.8,1.5,5.4,3.9,7.2c3.3,2.5,6.9,4.7,11.3,4.5
	c0.7,0,1.5-0.1,2.1,0.2c1.4,0.6,2.8,0.2,3.9-0.4c4.1-2.2,8.2-4.4,12-7c2.5-1.7,4.5-4,4.9-7.3c0.4-3.2,1-6.5,1.1-9.7
	c0.2-6.5,0-13-0.8-19.4c-0.5-4.4-1.1-8.9-1.5-13.3c-0.5-5.9-2-11.6-3.4-17.3c-1.5-5.8-2.5-11.7-2.8-17.7c-0.5-9.5-0.9-19-1.4-28.5
	c-0.3-5-0.8-10-1.2-15c-0.4-5.2-0.9-10.3-1.4-15.5c-0.5-5.6-0.9-11.1-1.5-16.7c-0.8-8.2-1.9-16.3-2.6-24.5c-0.8-8.7-1.4-17.5-2-26.2
	c-0.3-5.1-0.9-10.3-0.9-15.5c0-8.5,0.3-16.9,0.6-25.4c0.1-2.9,1.2-5.4,3.3-7.5c1.7-1.7,3.7-2.3,6.1-2c2.6,0.3,5.1,2.8,5.3,5.3
	c0.2,3.5,0.4,7,0.5,10.5c0.2,4.7,0.3,9.4,0.5,14.1c0.2,4.3,0.6,8.5,0.9,12.7c0.3,4.2,0.8,8.4,1,12.6c0.3,4.7,0.4,9.4,0.5,14.1
	c0.2,5.6,0.3,11.2,0.5,16.8c0.2,6.1,0.3,12.1,0.5,18.2c0.2,4.9,0.4,9.9,0.5,14.8c0.2,10.1,0.5,20.3,0.9,30.4
	c0.5,11.7,0.4,23.5,0.6,35.2c0.1,7.5,0.3,15,0.6,22.5c0.2,6.3,0.5,12.6,0.9,18.9c0.4,5,0.9,10,1.5,15c0.4,3.6,1.4,7.2,1.8,10.8
	c0.5,3.6,2,6.7,4.2,9.5c2,2.5,4.5,3.8,7.6,4c3.4,0.2,6.9,0.3,10.3,0.5c2.9,0.2,4.9-1.1,6.6-3.2c2.4-2.8,3.6-6.3,4.7-9.8
	c0.9-2.7,0.9-5.6,1-8.5c0.3-6.9,0.8-13.7,0.9-20.6c0.1-4.9-0.3-9.9-0.5-14.8c-0.3-5.5-0.6-11.1-0.9-16.7c-0.1-3-0.2-6.1-0.4-9.1
	c-0.4-6-0.8-11.9-1.2-17.9c-0.3-4.3-0.5-8.5-0.8-12.7c-0.3-5.6-1.9-11.1-1.6-16.7c0-0.3,0-0.6-0.1-0.9c-1.5-6.4-2.9-12.7-4.4-19.1
	c-0.9-3.7-1.7-7.4-1.6-11.3c0-2-0.1-4.1-0.2-6.2c-0.3-5.2-0.7-10.5-0.9-15.7c-0.3-6.7-0.6-13.3-0.8-19.9c-0.2-6.9-0.5-13.7-0.4-20.6
	c0.2-8.2,0.6-16.4,1.2-24.6c0.3-4,0.8-8,2.4-11.7c0.9-2.1,2.3-3.1,4.4-3.4c1.3,3.7,2.1,7.4,2.3,11.1c0.4,7.2,0.7,14.3,0.8,21.5
	c0.1,7.9,0.5,15.8,0.3,23.7c-0.1,6.7,0.2,13.3,0.3,19.9c0.1,4.9,0.2,9.9,0.5,14.8c0.1,2.7,0.5,5.4,0.9,8.1c0.4,3.1,1.1,6.1,1.4,9.2
	c0.5,5.9,0.7,11.8,1.2,17.7c0.7,8.7,1.8,17.3,1.8,26c0,3.9,0.2,7.8-0.2,11.7c-0.7,7.7-1.6,15.5-1.3,23.3c0.3,6.6,0.8,13.2,1.2,19.8
	c0.3,5.9,1.8,11.7,0.7,17.6c-0.1,0.6,0,1.3,0,1.9c0.2,2.9,0.4,5.9,0.7,8.8c0.7,6.4,1.3,12.7,1.3,19.1c0,2.9,0.5,5.9,0.8,8.8
	c0.5,4.4,2.5,8.2,4.3,12.1c1.1,2.4,2.7,4.6,4.7,6.4h14.9c1.6-1.6,2.5-3.5,3.4-5.4c0.7-1.3,1.5-2.6,1.6-4c0.5-5.1,0.7-10.2,1-15.3
	c0.2-3.4-0.1-6.9,0.3-10.3c0.7-5.9,1.3-11.8,1.2-17.7c-0.1-6.9-0.3-13.7-0.3-20.6c0-8.1,0.2-16.1,0.3-24.2c0-1.6,0-3.3,0-5
	c-0.1-9.1,0.8-18.1,0.2-27.1c-0.5-6.8-0.4-13.7-0.6-20.6c-0.1-4.1-0.2-8.2-0.6-12.2c-0.9-9.4-2-18.7-2.9-28.1
	c-0.8-8.5-1.5-17-2.2-25.5c-0.6-7.4-1-14.8-1.5-22.2c-0.3-4.3-0.8-8.6-1.1-12.9c-0.3-3.9-0.5-7.9-0.7-11.9c0-1.5-0.1-2.9,0-4.3
	c0.1-1.4,0.1-2.9,0.6-4.2c0.7-1.9,2.6-1.9,3.7-0.3c0.4,0.5,0.7,1.2,0.9,1.9c1.9,5.7,3.1,11.5,2.5,17.6c-0.4,4.2,0.8,8.2,1.6,12.3
	c0.9,4.4,2.1,8.8,2.8,13.3c0.6,4,0.9,7.9,1.3,11.9c0.4,4.1,0.8,8.2,1.3,12.3c0.8,6.8,1.6,13.6,2.4,20.4c0.8,7.2,1.6,14.4,2.4,21.6
	c0.6,5.8,1,11.6,1.6,17.4c0.8,7.1,1.8,14.2,2.2,21.4c0.3,5.5-0.2,11.1-0.2,16.7c0,7.5,0,15,0,22.5c0,3,0.2,6.1,0.3,9.1
	c0.1,4.7,0.1,9.5,0.3,14.3c0.3,7.4,0.8,14.8,1.1,22.2c0.1,2,0.7,3.7,1.6,5.4c0.6,1,1.2,1.9,1.7,2.9c2.9,5.4,7.7,7.4,13.5,7.5
	c2.5,0,5-0.3,7.4-0.6c1.9-0.2,4-0.1,5.4-1.6c1.6-1.8,3.3-3.6,4.5-5.6c3.7-6.4,5.9-13.3,6.1-20.7c0.1-3.4,0.4-6.9,0.3-10.3
	c-0.1-4.1-0.4-8.3-0.7-12.4c-0.4-5.1-1.2-10.1-1.5-15.2c-0.3-6.2-0.3-12.5-0.5-18.7c-0.2-7-0.3-14.1-0.5-21.1
	c-0.2-6.1-0.4-12.1-0.5-18.2c-0.2-7-0.4-14.1-0.5-21.1c-0.1-11-0.1-21.9-0.1-32.9c0-24.6,0-49.3,0-73.9c0-3.5,0.4-7.1,0.7-10.7
	c0.7-7.1,1.5-14.1,2.2-21.2H368c-1,2.8-1,5.6-1.1,8.5C366.8,13.8,366.4,19,366.2,24.3z"/>
<path class="st3" d="M131.4,305.3h4.7C134.5,304.8,132.9,304.8,131.4,305.3z"/>
<path class="st3" d="M54.1,301.2c-4-1-7.6,0.3-8.9,4.1h17.6c-1.7-1.3-3.6-2.3-5.8-3.1C56.1,301.8,55.1,301.4,54.1,301.2z"/>
</svg>
