<?xml version="1.0" encoding="utf-8"?>
<!-- Generator: Adobe Illustrator 22.1.0, SVG Export Plug-In . SVG Version: 6.00 Build 0)  -->
<svg version="1.1" id="Layer_1" xmlns="http://www.w3.org/2000/svg" xmlns:xlink="http://www.w3.org/1999/xlink" x="0px" y="0px"
	 viewBox="0 0 792 302.3" style="enable-background:new 0 0 792 302.3;" xml:space="preserve" preserveAspectRatio="none">
<style type="text/css">
	.st0{fill:#AF8FF8;}
	.st1{fill:#00FF4A;}
	.st2{fill:#FFFFFF;}
</style>
<path class="st0" d="M401.6,290.6c-0.6,0.3-1.2,0.6-1.8,0.9c-4.7,2.5-9.1,5.3-13.5,8.2c-1.1,0.7-2.2,1.2-3.5,1.5
	c-1.7,0.3-3.4,0.8-5.1,1.2h0.5h14.7h23.6h3.4c-1.6-0.4-2.8-1.4-4.1-2.3C411.3,296.8,406.7,293.5,401.6,290.6z"/>
<path class="st0" d="M354.1,299.4c-0.4-1.2-0.4-2.4,0-3.5c0.4-1.3,1-2.5,1.7-3.7c2.1-3.4,4.7-6.2,7.9-8.6c1.2-0.9,2.3-2,3.3-3.1
	c3.7-3.9,7.6-7.5,12-10.7c0.3-0.2,0.5-0.4,0.8-0.6c4.1-4.2,8.3-8.5,12.4-12.7c1.9-1.9,3.2-4.2,4.6-6.4c0.4-0.7,0.7-1.4,0.9-2.2
	c0.7-2.8,0.9-5.7-0.1-8.5c-1.1-3.5-5.2-4.7-8-2.4c-1.9,1.6-4,2.7-5.9,4c-1.2,0.9-2.5,1.7-3.7,2.6c-3.3,2.6-6.6,5.3-9.9,7.9
	c-1.2,1-2.3,2-3.4,3.1c-1.6,1.5-3.2,3.1-4.8,4.7c-0.9,0.9-1.9,1.7-2.7,2.7c-1.4,1.7-3,3-4.8,4.3c-6.4,4.3-12.5,9-18.5,13.7
	c-2.6,2-5.3,3.9-8.2,5.5c-2.1,1.2-4,2.6-6,3.9c-4.5,3.1-9,6.2-13.7,8.8c-2.8,1.5-5.9,2.8-8.8,4.2h49.3h9c-1-0.5-1.9-1.2-2.7-1.8
	C354.4,300.4,354.2,299.9,354.1,299.4z"/>
<path class="st0" d="M287.6,295.1c0.7-2,0.9-4.1,1.6-6c0.7-1.9,1.7-3.8,2.9-5.5c2.3-3.3,4.7-6.6,7.8-9.4c1.7-1.5,3.2-3.3,4.9-5
	c2.6-2.6,5.2-5.2,7.9-7.7c3.9-3.7,7.8-7.3,11.8-10.9c1.8-1.6,3.7-3.1,5.5-4.6c2.9-2.4,5.7-4.9,8.6-7.2c5.3-4.3,10.2-9.2,15.3-13.8
	c4.1-3.8,8.2-7.6,12.3-11.4c2-1.9,4.1-3.8,6.2-5.7c0.7-0.7,1.3-1.5,2-2.1c1-0.9,1.4-1.8,1.1-3.2c-0.3-1.6-0.4-3.3-0.6-5
	c-0.1-0.8-1.1-1.8-2-1.8c-2-0.1-3.9-0.1-5.8,0.9c-4.2,2.4-8.4,4.6-12.4,7.3c-2.9,1.9-6,3.7-8.9,5.7c-2.1,1.5-4,3.1-6,4.8
	c-2.2,1.8-4.5,3.6-6.7,5.5c-1.3,1.1-2.5,2.2-3.7,3.4c-4.4,4.2-8.8,8.3-13.5,12.2c-3,2.6-6,5.3-8.9,8c-2.3,2.1-4.6,4.2-6.8,6.3
	c-0.3,0.3-0.6,0.5-0.9,0.8c-1.2,1.6-2.7,2.9-4.4,4.1c-2.7,1.9-5,4.2-7.5,6.3c-1.7,1.5-3.5,3.1-5.2,4.6c-3.4,3-6.8,6-10.3,9
	c-3.6,3.1-7.2,6.1-10.8,9.2c-3.5,3-6.9,6.2-10.4,9.2c-2.8,2.4-5.7,4.6-8.6,6.9c-1,0.8-2.1,1.6-3.1,2.4h49.3
	c-0.3-0.4-0.5-0.8-0.6-1.2C287.1,299.2,286.8,297.2,287.6,295.1z"/>
<path class="st0" d="M73.8,298.5c0.7-2.6,1.6-5.2,2.5-7.8c0.7-2,1.9-3.7,3.2-5.3c2.5-3.2,5.1-6.4,7.6-9.6
	c4.6-5.8,9.6-11.1,14.8-16.3c4.5-4.5,8.9-9,13.4-13.4c2.6-2.6,5.4-5,8.1-7.4c0.6-0.6,1.3-1.2,1.9-1.8c6-5.4,11.9-10.9,17.9-16.3
	c3.8-3.4,7.7-6.8,11.6-10c2.7-2.2,5.6-4.3,8.4-6.4c2.8-2.2,5.6-4.5,8.4-6.7c1.9-1.5,3.6-3.1,5.5-4.7c3.2-2.7,6.4-5.3,9.5-8.1
	c3.1-2.7,6.1-5.4,9.1-8.1c1-0.8,1.9-1.7,2.9-2.5c4.5-4,9-8.1,13.6-12.1c3.2-2.9,6.5-5.7,9.7-8.6c1.1-1,2.1-1.9,3.2-2.9
	c4.3-4.3,9-8.1,13.7-12c3.5-2.8,6.8-5.8,10.3-8.6c2.5-2.1,5.2-4,7.8-6c4.9-3.7,9.8-7.5,14.6-11.3c3.7-2.9,7.4-5.9,11.1-8.8
	c4.8-3.8,9.5-7.8,14.4-11.5c2.7-2.1,5.7-3.9,8.4-5.9c3.1-2.3,6.2-4.8,9.2-7.2c3.8-3.1,7.7-6.3,11.5-9.5c6.5-5.6,13.7-10.2,21.2-14.3
	c2.8-1.5,5.4-3.4,7.8-5.5c0.6-0.5,1.2-1.1,1.7-1.7c1.2-1.6,2.7-2.7,4.3-3.8c5.8-3.9,11-8.5,16.1-13.2c1.6-1.5,2.9-3.1,3.7-5.3
	c0.6-1.8,0.3-2.9-1.4-3.8c-2.2-1.2-4.5-1.6-6.9-1.3c-6.4,0.6-12.3,2.6-17.8,6c-2.6,1.7-5.4,3.1-8.1,4.7c-2.5,1.5-5.1,3.1-7.6,4.6
	c-1.5,0.9-3,1.9-4.5,2.8c-1.3,0.8-2.6,1.6-3.8,2.5c-3.6,2.6-7.1,5.2-10.7,7.7c-3,2.2-6.2,4-9.5,5.6c-2.2,1-4.2,2.4-6.1,3.8
	c-5.3,4-10.6,8-15.9,12c-5,3.8-10,7.5-14.9,11.3c-2.5,1.9-5,4-7.5,5.9c-0.2,0.1-0.4,0.3-0.6,0.5c-5.7,3.4-10.2,8.2-15.2,12.4
	c-5.3,4.5-10.5,9.1-15.8,13.6c-1.6,1.4-3.2,2.9-4.8,4.3c-2.9,2.5-5.8,5-8.7,7.6c-4.1,3.6-8.4,7.1-12.3,11c-4.1,4.1-8.1,8.1-12.4,12
	c-4.5,4.1-9.1,8-13.7,12c-2.6,2.3-5.3,4.7-7.9,7c-3.5,3.1-7.1,6.2-10.7,9.3c-2.4,2-4.8,4-7.1,6.1c-1.1,1-2,2.1-3,3.1
	c-0.7,0.7-1.3,1.4-2.1,1.9c-2.2,1.5-4,3.4-6,5.2c-5.3,4.9-10.6,9.7-15.9,14.6c-1.3,1.2-2.7,2.5-3.9,3.9c-3.1,3.3-6.2,6.6-9.2,10
	c-3.3,3.8-6.8,7.4-10.2,11.1c-5,5.3-10,10.6-14.9,15.9c-3.6,3.9-7,7.9-10.6,11.8c-2.1,2.3-4.2,4.6-6.3,6.9c-0.2,0.2-0.5,0.5-0.7,0.7
	c-6.2,5.1-12.3,10.2-18.5,15.2c-4.1,3.3-8.1,6.8-12.3,9.9c-2,1.5-3.9,3-6.1,4.2c-1.7,0.9-3.3,2-4.9,3.1c-0.9,0.6-1.9,1-2.9,1.4h44
	C73.3,301.1,73.4,299.8,73.8,298.5z"/>
<path class="st0" d="M141.6,288c2.5-2.9,4.8-6,7.7-8.6c5.1-4.7,10.3-9.3,15.8-13.6c3.2-2.5,6.3-5.2,9.4-7.8c1.7-1.4,3.3-2.8,4.9-4.2
	c3.8-3.2,7.7-6.4,11.6-9.7c3.4-2.8,6.7-5.7,10-8.6c3.5-3.1,7-6.3,10.5-9.5c1.4-1.2,2.8-2.4,4.2-3.6c3.3-3.1,6.7-6.2,10-9.3
	c1.7-1.6,3.5-3.1,5.2-4.6c3.2-2.9,6.4-5.8,9.6-8.7c5.1-4.6,10.4-9,15.7-13.3c4.4-3.5,8.7-7.1,13-10.6c2.5-2,4.9-4.1,7.5-6
	c3.7-2.8,7.2-5.8,10.9-8.7c4.1-3.2,8.2-6.3,12.4-9.5c3.9-3,7.9-6,11.8-9.1c4.9-3.8,9.9-7.6,14.8-11.4c4.3-3.3,8.5-6.7,12.8-10.1
	c6.5-5,13.1-10,20-14.4c5.9-3.8,11.5-7.8,16.6-12.6c2.6-2.4,4.7-5.2,6.6-8.2c0.8-1.2,0.5-2.4-0.7-3.1c-1.8-1.1-3.8-1.6-5.9-1.2
	c-2.5,0.5-5,1.3-7.3,2.3c-2.6,1.1-5.1,2.3-7.7,3.4c-4.9,2.1-9.4,4.8-13.9,7.5c-6.1,3.6-12,7.3-18.1,10.8c-3.8,2.2-7.3,4.9-10.8,7.6
	c-4.7,3.6-9.4,7.2-14.1,10.8c-4.9,3.7-9.8,7.4-14.6,11.2c-6,4.7-12.1,9.4-17.8,14.6c-3.9,3.5-7.9,6.7-11.8,10.1
	c-3.1,2.7-6.1,5.4-9.1,8.1c-2.3,2.1-4.7,4.1-7.1,6.1c-1.6,1.4-3.2,2.7-4.7,4.1c-3.9,3.3-7.7,6.7-11.6,10c-0.7,0.6-1.3,1.2-1.9,1.8
	c-3.5,3.2-7.2,6.1-10.9,9c-1.5,1.2-3,2.4-4.4,3.7c-7.4,6.4-14.7,12.8-22.1,19.2c-0.5,0.5-1.1,0.9-1.7,1.3
	c-4.2,3.2-8.3,6.5-12.1,10.2c-3.3,3.1-6.7,6.1-10.1,9.3c-2,1.9-3.8,3.9-5.8,5.7c-2.1,1.9-4,4-5.9,6c-3.8,3.9-7.6,7.8-11.5,11.6
	c-3.2,3.2-6.6,6.3-9.9,9.5c-1.9,1.8-3.8,3.7-5.7,5.5c-3.4,3.3-6.9,6.6-10.4,10c-0.6,0.6-1.1,1.1-1.7,1.7c-3.2,3.2-6.4,6.5-9.6,9.7
	h23h7.9c0.3-1.5,0.6-2.9,1.1-4.3C137.1,294.4,139,291,141.6,288z"/>
<path class="st0" d="M206.7,296.5c0.7-2.1,1.2-4.3,2.1-6.3c1.3-2.7,2.4-5.6,4.6-7.8c2.3-2.2,4.3-4.7,6.4-7.1
	c0.6-0.7,1.2-1.3,1.8-1.9c0.8-0.8,1.7-1.5,2.4-2.3c3.2-3.6,6.9-6.7,10.5-9.9c3.5-3.1,7.2-5.9,10.8-8.8c3.2-2.5,6.3-5.1,9.6-7.6
	c2.6-2,5.3-3.9,7.9-5.8c2.2-1.6,4.4-3.2,6.6-4.7c5.4-3.8,10.8-7.6,16.2-11.5c3.6-2.5,7.2-5.1,10.8-7.5c3.4-2.3,6.8-4.5,10.1-6.8
	c0.9-0.6,1.7-1.2,2.5-1.8c5.1-3.8,10.3-7.6,15.4-11.4c5.6-4.1,11.2-8.2,16.8-12.3c3-2.2,5.9-4.4,8.8-6.6c1-0.7,2-1.4,3-2
	c3.8-2.6,7.5-5.2,11.3-7.7c1.8-1.2,3.7-2.1,5.7-3.1c4.1-2.2,7.8-4.9,11.2-8.1c0.2-0.2,0.5-0.4,0.7-0.7c0.9-0.9,2.2-1.4,2.8-2.5
	c0.6-1.1,1-2.3,1.5-3.5c0.5-1.1,1.2-2.1,0.9-3.5c-1.1-0.8-2.4-0.6-3.6-0.9c-1.8-0.5-3.4,0-5,0.8c-6.5,2.9-12.8,6.3-18.8,10
	c-1.2,0.7-2.4,1.6-3.6,2.4c-3.1,2.1-6.2,4.2-9.3,6.4c-5.2,3.6-10.4,7.2-15.6,10.8c-4.9,3.4-9.8,6.8-14.8,10.3c-2,1.4-4,2.9-6,4.4
	c-4.1,2.9-8.2,5.9-12.2,8.8c-3.9,2.8-7.7,5.8-11.5,8.6c-0.8,0.6-1.6,1.1-2.3,1.7c-3.2,2.5-6.5,5-9.7,7.4
	c-6.3,4.7-12.2,9.8-18.2,14.8c-6.6,5.5-13.2,11.1-19.8,16.7c-1.7,1.4-3.5,2.7-5.3,4.1c-2,1.6-3.9,3.3-5.9,4.9
	c-3.8,3-7.6,6.1-11.4,9.1c-1.2,0.9-2.3,2-3.5,3c-4.4,3.8-8.9,7.6-13.3,11.4c-3.2,2.8-6.4,5.5-9.7,8.3c-0.5,0.4-1,0.8-1.5,1.2
	c-4.1,3.2-8.2,6.3-12.4,9.5c-0.7,0.5-1.1,1-1.6,1.7c-0.4,0.6-0.8,1.2-1.3,1.7h36.3c-0.1-0.4-0.3-0.8-0.4-1.2
	C206.2,299.6,206.2,298.1,206.7,296.5z"/>
<path class="st0" d="M640.6,300.5c-3.9-2.3-7.7-4.6-11.5-6.9c-2-1.2-3.9-2.4-5.9-3.7c-1.1-0.7-2.3-1.5-3.3-2.4c-3-2.6-6-5.3-9-7.9
	c-3-2.6-6.1-5.2-9.1-7.9c-1.6-1.4-3.1-3-4.7-4.4c-0.3-0.3-0.6-0.6-0.9-0.8c-2.1-1.8-4.3-3.6-6.5-5.4c-2.8-2.4-5.6-4.7-8.4-7.2
	c-4.2-3.6-8.3-7.3-12.4-10.9c-3.8-3.4-7.7-6.8-11.5-10.1c-3.5-3.1-7-6.3-10.5-9.4c-2.3-2-4.5-4.1-6.8-6.1c-0.8-0.7-1.7-1.2-2.5-1.9
	c-1.5-1.2-2.9-2.5-4.4-3.7c-3.4-2.7-6.8-5.4-10.2-8c-2.2-1.7-4.3-3.6-6.6-5.2c-1.4-0.9-2.6-2.1-3.9-3.2c-0.9-0.8-1.9-1.5-2.8-2.2
	c-1.3-1-2.4-2.1-3.7-3c-4.5-3.2-8.6-6.8-13.2-10c-3.1-2.2-5.9-4.6-8.9-6.9c-2-1.6-4.1-3-6.2-4.6c-2-1.5-4.1-3.1-6.1-4.6
	c-1.9-1.4-3.9-2.8-5.8-4.2c-2.9-2.1-5.8-4.3-8.6-6.5c-2.2-1.8-4.7-3.3-7.1-4.9c-2.5-1.7-5.2-3.2-7.7-4.8c-0.8-0.5-1.5-1.1-2.3-1.7
	c-2-1.6-4.2-2.9-6.7-3.5c-2-0.5-4-0.5-5.9,0.3c-1.2,0.5-1.6,1.3-1.2,2.5c0.5,1.6,1.1,3.2,1.7,4.7c0.2,0.5,0.6,1,0.9,1.4
	c1,1.1,1.9,2.2,3,3.1c2.9,2.4,5.6,5,8.8,7c8.8,5.5,17.1,11.8,25.1,18.5c3.4,2.8,6.8,5.6,10.2,8.3c1.8,1.5,3.6,3,5.3,4.5
	c6.9,5.8,13.8,11.7,20.8,17.4c3,2.5,6.2,4.8,9.3,7.1c3.8,2.9,7.6,5.8,11.4,8.7c1.1,0.9,2.1,1.9,3.4,2.6c1.3,0.7,2.3,1.7,3.5,2.5
	c1.2,0.9,2.3,1.7,3.5,2.6c1.2,0.9,2.3,1.7,3.5,2.6c1.1,0.9,2.3,1.7,3.4,2.6c1.1,0.9,2.3,1.7,3.4,2.6c2.7,2.1,5.4,4.3,8.1,6.4
	c2.8,2.2,5.6,4.3,8.3,6.5c0.8,0.6,1.6,1.4,2.3,2.1c3.9,3.3,7.7,6.7,11.6,10c1,0.9,2,1.8,3,2.8c3.7,3.6,7.3,7.4,10.6,11.4
	c2.3,2.8,4.7,5.6,7,8.5c1.3,1.7,2.4,3.6,3,5.7c0.7,2.3,1.3,4.6,1.9,6.9c0.4,1.6,0.3,3.1-0.1,4.6h17.4h10.8h17.4
	c-0.3-0.1-0.6-0.2-0.8-0.3C642.9,301.7,641.7,301.1,640.6,300.5z"/>
<path class="st0" d="M20.5,298.7c-0.3-0.5-0.5-1.2-0.5-1.8c-0.1-1.4,0-2.7,0-4.1c0-1.4,0.2-2.7,0.1-4.1c-0.1-1.9,0.2-3.8,0.8-5.7
	c0.9-2.9,1.7-5.8,3.3-8.5c0.5-0.9,0.9-1.8,1.4-2.8c1.5-3.5,3.8-6.4,6.4-9.2c2.8-3,5.9-5.6,8.9-8.4c3.7-3.4,7.4-6.8,11.1-10.2
	c2.3-2.1,4.5-4.3,6.7-6.5c2.4-2.6,5.1-4.9,7.7-7.2c0.6-0.5,1.2-1.1,1.8-1.6c1.5-1.4,2.9-2.8,4.4-4.1c4.8-4.4,9.6-8.7,14.3-13.1
	c5.1-4.7,10.3-9.4,15.4-14.1c1.2-1.1,2.4-2.4,3.6-3.5c3.6-3.4,7.1-6.9,10.7-10.3c1.3-1.3,2.6-2.6,3.9-3.9c2.7-2.7,5.4-5.5,8.1-8.2
	c2.8-2.8,5.6-5.4,8.4-8.2c1.6-1.6,3.1-3.3,4.6-4.9c2.5-2.7,5.1-5.3,7.7-7.9c4.4-4.6,8.7-9.2,13-13.8c3.2-3.4,6.4-6.7,9.5-10.1
	c3.3-3.6,6.6-7.2,10-10.7c2.7-2.9,5.6-5.7,8.3-8.6c3.7-3.9,7.3-7.8,11.2-11.5c3.7-3.5,7.2-7.3,10.8-10.9c1.3-1.4,2.8-2.6,4.2-3.9
	c4.8-4.3,9.5-8.6,14.3-12.8c4.8-4.2,9.8-8.2,14.8-12.2c0.6-0.5,1.2-0.9,1.8-1.2c3.2-2,6.2-4.3,9-6.8c1-0.8,2-1.6,3-2.4
	c1.6-1.2,3.2-2.5,4.7-3.7c2.7-2.1,5.4-4.3,8.1-6.4c2-1.7,4-3.4,6.1-5.1c0.6-0.5,1.3-0.9,1.9-1.4c1.1-0.9,2.3-1.7,3.3-2.8
	c0.7-0.7,1.2-1.5,1.5-2.4c0.6-1.6-0.2-2.9-1.8-3.2c-0.8-0.1-1.6-0.1-2.4,0.1c-1.9,0.4-3.7,1.1-5.3,2.1c-2.1,1.2-4,2.7-5.9,4.1
	c-3.6,2.7-7.4,5.4-11,8c-2.7,2-5.2,4.2-7.6,6.5c-6,5.9-12.1,11.7-19,16.5c-4.3,3.1-8.2,6.7-12,10.3c-2.6,2.4-4.9,5-7.4,7.5
	c-2.4,2.3-4.7,4.7-7.1,7.2c-2.2,2.2-4.6,4.2-6.9,6.3c-3.6,3.4-7.1,6.9-10.7,10.4c-1.3,1.3-2.7,2.5-4,3.8
	c-5.9,5.7-11.9,11.4-17.8,17.1c-3.2,3-6.5,6-9.6,9c-2.8,2.7-5.4,5.5-8.2,8.1c-5.6,5.2-11.2,10.5-17,15.6c-2.5,2.2-5,4.5-7.3,6.9
	c-3.8,3.8-7.7,7.6-11.5,11.5c-4.3,4.4-8.8,8.6-13.3,12.8c-3.6,3.3-7.1,6.7-10.7,9.9c-6.7,6-13.5,11.7-20.6,17.2
	c-5.4,4.1-10.7,8.3-16.1,12.5c-0.7,0.5-1.3,1.1-2,1.7c-2.7,2.4-5.5,4.9-8.2,7.3c-1.2,1-2.5,1.9-3.8,2.9c-0.6,0.5-1.3,0.9-1.9,1.4
	c-2.1,1.9-4.8,2.9-7.3,4c-0.9,0.4-1.6,0.2-2.5-0.2c-2.1-1.2-3.6-2.9-4.4-5.2c0-0.1-0.1-0.2-0.1-0.2c-1.6-4-1.6-4-1.1-8.4
	c0.3-3.1,1.2-6.1,2.3-9c2.5-6.7,5.7-13,9.9-18.8c1.5-2.1,3-4.4,4.5-6.5c0.9-1.3,1.9-2.6,2.8-3.9c1.7-2.3,3.4-4.6,5.2-6.9
	c1-1.2,2.1-2.3,3.2-3.5c0.6-0.6,1-1.3,1.3-2.2c0.2-0.9,1-1.8,1.5-2.6c-0.1-2.3,0.7-2.1,1-3c0-0.4,0-0.8,0-1.2c0.1,0,0.2,0,0.3,0
	c-0.1,0.4-0.2,0.8-0.3,1.2c0.5-0.4,1.1-0.8,1.3-1.3c1.2-2.1,2.9-3.6,4.9-4.9c0.8-0.5,1.5-1.2,2.2-1.9c2.4-2.3,4.7-4.6,7-6.9
	c0.5-0.4,0.9-0.9,1.4-1.4c3.1-3.3,6.2-6.7,9.4-9.9c4.2-4.4,8.5-8.7,12.8-13c2.5-2.5,5.2-4.7,7.8-7.1c5.1-4.7,10.3-9.3,15.4-14
	c3-2.7,6-5.5,9-8.3c1.9-1.8,3.6-3.6,5.5-5.4c5.1-4.9,10.1-9.7,15.2-14.6c1-1,2-2.1,3-3.1c5.3-5.1,10.5-10.3,15.8-15.4
	c4.5-4.5,9.1-9,13.5-13.7c3.6-3.8,7-7.7,10.5-11.5c1.7-1.9,3.4-3.8,5.2-5.7c0.3-0.3,0.8-0.6,1.1-0.9c2.3-1.8,3.1-4.2,2.8-7
	c-0.3-2.9-2.8-5.1-5.7-5.3c-1.8-0.1-3.5,0.2-5,1.2c-1.3,0.8-2.7,1.4-4.1,1.9c-0.9,0.3-1.7,0.8-2.6,1.3c-0.8,0.4-1.5,1-2.3,1.3
	c-2,0.7-3.3,2.1-4.6,3.7c-5.2,6.1-10.4,12.2-15.6,18.3c-0.1,0.1-0.2,0.2-0.3,0.4c-3.8,5.3-8.4,9.9-12.6,14.7
	c-1.3,1.5-2.6,3.1-3.8,4.6c-3,3.7-6,7.5-9,11.2c-2,2.5-4.1,4.9-6.2,7.3c-2,2.2-4,4.3-5.9,6.6c-2.8,3.6-5.7,7.1-8.6,10.6
	c-1,1.2-2.1,2.4-3.3,3.5c-3.6,3.4-7.1,6.9-10.5,10.5c-3.3,3.5-6.7,6.9-10,10.4c-3.5,3.7-6.8,7.4-10.2,11.1c-0.9,0.9-1.7,1.9-2.6,2.8
	c-1.7,1.7-3.1,3.6-4.6,5.6c-1.2,1.6-2.5,3.1-3.7,4.7c-3.3,4.4-6.6,8.8-9.9,13.2c-0.5,0.7-1.1,1.4-1.7,2c-2.2,2.5-4.3,4.9-6.5,7.3
	c-1.4,1.5-2.9,3-4.3,4.5c-0.5,0.6-1.2,0.8-1.9,1c-3.2,0.9-6.5,1.7-9.7,2.6c-0.8,0.2-1.6,0.2-2.3-0.1c-1.1-0.5-2.2-0.9-3.2-1.5
	c-0.7-0.4-1.2-1-1.7-1.6c-0.1-0.1-0.1-0.3-0.2-0.4c-2.1-3.9-2.2-4.2-1.9-8.7c0.2-2.2,0.4-4.5,0.6-6.7c0.1-1.1,0.4-2.2,0.9-3.2
	c2.3-4.4,4.6-8.8,6.9-13.2c0.3-0.5,0.6-1,0.9-1.4c1.4-1.8,2.8-3.5,4.2-5.3c1.4-1.7,2.7-3.3,4.1-5c1-1.3,2-2.5,2.9-3.8
	c1.8-2.7,4-5,6-7.4c4.4-5.2,8.8-10.4,13.3-15.5c1.4-1.6,2.8-3.1,4.3-4.5c3.7-3.5,6.8-7.4,10.1-11.2c3.3-3.9,6.7-7.7,10.2-11.4
	c4.7-5,9.3-10.1,13.8-15.3c3.1-3.6,6.4-7,9.5-10.5c1.4-1.6,2.9-3.2,4.3-4.9c3.3-4,6.6-8,9.9-12c0.7-0.9,1.3-1.8,1.9-2.8
	c0.4-0.6,0.2-1.2-0.3-1.7c-1.3-1.2-2.8-1.9-4.5-2c-2.7-0.2-5.4,0.1-7.9,1.5c-0.7,0.4-1.3,0.9-1.9,1.4c-3.9,3.6-7.8,7.1-11.6,10.7
	c-3.1,3-6.1,6.2-9,9.3c-4,4.3-7.8,8.9-11.5,13.5c-3.6,4.6-7.3,9.1-10.6,13.9C64,87.5,59.9,92.9,56,98.3c-2.5,3.4-4.9,6.9-7.4,10.3
	c-1.1,1.6-2.3,3-3.8,4.3c-1.7,1.5-3.2,3.2-4.9,4.6c-2.5,2.1-5.1,4.1-7.7,6c-1.1,0.8-2.6,0.7-3.9,1c-1.7,0.3-3.3,0-4.9-0.7
	c-1.7-0.7-3-1.8-3.8-3.4c-0.8-1.6-1.9-3.2-2.8-4.8c-0.3-0.5-0.5-1-0.6-1.5c-0.6-3.3-0.8-6.5,0.7-9.6c2.3-4.7,4.7-9.4,7.6-13.9
	c1.6-2.4,2.9-4.9,4.4-7.4c1.4-2.4,2.8-4.9,4.3-7.2c0.8-1.3,1.8-2.4,2.8-3.6c5-5.5,8.1-12.2,11.1-19c0.9-2,1.4-4.2,2-6.4
	c0.2-0.6,0.2-1.3,0.2-1.9c-0.1-1.3-1.1-2.2-2.4-2.2c-0.2,0-0.3,0-0.5,0c-2.5,0.7-4.9,1.4-6.6,3.6c-2.6,3.3-5.1,6.6-7.5,9.9
	c-1.9,2.6-3.9,5.1-5.7,7.7c-1.7,2.6-3.7,4.8-5.6,7.2c-1.5,1.9-3.6,2.7-5.7,3.3c-1.4,0.4-3,0.1-4.2-1.1c-0.6-0.6-1.1-1.1-1.8-1.6
	C7.7,70.6,6.9,69,6.6,67c-0.7-4.2-0.4-8.3,1.2-12.3c0.7-1.7,1.7-3.2,2.7-4.8c3.4-5.1,7.5-9.6,11.2-14.4c0.9-1.2,2-2,3.6-1.9
	c1,0.1,2-0.6,3.1-0.2c0.7,0.8,0.5,1.7,0.1,2.5c-1.7,3.8-3,7.7-5.4,11.2c-1,1.4-1.7,3.1-2.6,4.6c-0.8,1.5-1.7,2.9-2.6,4.3
	c-0.2,0.3-0.5,0.7-0.6,1c-0.5,1.1-0.2,2.1,0.7,2.8c0.7,0.5,2,0.6,2.7,0c0.4-0.3,0.7-0.6,1-1c2.7-3.1,5.5-6.3,8.2-9.4
	c2.1-2.4,4-5,6.2-7.3c2.7-2.8,5.7-5.1,9.3-6.6c0.6-0.2,1.2-0.4,1.8-0.5c2.3-0.2,4.5,0.2,6.7,0.5c1,0.1,1.8,0.8,2.3,1.6
	c0.8,1.3,1.6,2.6,2.4,3.9c0.4,0.6,0.5,1.3,0.3,2.1c-0.2,0.9-0.3,1.9-0.5,2.8c-1,4.9-2.4,9.8-4.3,14.5C52.3,65,50.2,69,48,73
	c-2.2,4.1-4.9,7.9-7.4,11.7c-0.2,0.3-0.5,0.6-0.6,1c-1.3,3-3.2,5.7-4.9,8.4c-0.4,0.6-0.7,1.2-1.1,1.9c-1.3,2.4-2.3,4.9-4,7.1
	c-0.5,0.6-0.8,1.4-1,2.2c-0.3,1.1,0,2.1,0.9,2.8c0.8,0.7,1.8,0.9,2.9,0.5c1.7-0.6,3-1.9,3.9-3.5c1-1.8,2.2-3.3,3.4-4.9
	c4-5.3,8.2-10.4,12.3-15.6c1.2-1.6,2.4-3.2,3.6-4.8c4.5-5.6,8.9-11.3,13.5-16.8c3.3-3.9,6.8-7.6,10.3-11.3s7.3-7.1,11.2-10.5
	c4.7-4.2,9.6-8.2,14.9-11.7c1.3-0.8,2.5-1.8,3.7-2.7c2.4-1.8,4.9-3.3,7.7-4.5c2.3-1,4.6-1.7,7.1-2c5.5-0.6,10.3,2.8,11.5,8.2
	c0.7,2.9,0.2,5.7-0.7,8.5c-1.6,5-4.3,9.3-8.1,12.8c-0.8,0.7-1.5,1.4-2.1,2.3c-2.6,3.7-5.7,6.9-8.6,10.3c-4,4.6-8.1,9.1-12.1,13.6
	c-3.5,4-7.1,8-10.9,11.8c-1.7,1.7-3.1,3.6-4.8,5.4c-2,2.1-4,4.1-6.1,6.1c-2.5,2.3-4.8,4.9-7.1,7.5c-3.1,3.3-6.2,6.7-9.3,10
	c-1.7,1.9-3.4,3.8-5.1,5.7c-1.1,1.3-2.2,2.5-3.3,3.8c-0.5,0.5-1,1-1.4,1.6c-2.9,3.5-5.7,7.1-8.6,10.6c-1.3,1.6-2.7,3.2-4,4.8
	c-2.3,2.7-4,5.7-5.3,9c-0.8,2.1-1.5,4.2-2.4,6.2s-0.6,3.9,0.3,5.9c1.6-0.2,3-0.3,4.2-1.7c3.4-4.3,6.9-8.6,10.2-13
	c2.9-3.8,6-7.5,9-11.2c1.7-2,3.3-4.1,5-6.1c3-3.5,6.2-6.9,9.2-10.4c1.3-1.5,2.6-3.1,3.9-4.5c6.9-7.7,13.8-15.3,20.7-23
	c3.5-3.9,7.1-7.8,10.5-11.9c4.2-5,8.5-10,12.3-15.3c1-1.4,2.1-2.6,3.1-3.9c1.5-1.9,2.9-3.8,4.4-5.7c1.2-1.6,2.6-3.1,3.8-4.6
	c2.6-3.1,5.1-6.4,8-9.2c3-3,6.1-5.9,9.2-8.8c1.6-1.5,3.2-2.9,4.9-4.2c3.5-2.8,7-5.5,10.6-8.3c0.4-0.3,0.9-0.7,1.2-1.1
	c1.9-2.2,4.2-3.9,6.7-5.5c6.3-3.9,13-6.4,20.5-6.7c1.8-0.1,3.7,0,5.5,0.5c4.3,1.1,7.2,4.6,7.1,9.3c0,1.4-0.2,2.9-0.5,4.3
	c-0.7,4.6-2.1,8.9-5,12.6c-1.2,1.5-2.5,2.9-3.8,4.3c-2.3,2.6-4.6,5.1-6.9,7.7c-3.2,3.7-6.4,7.6-9.6,11.3c-1.1,1.3-2.3,2.6-3.5,4
	c-3.5,4.1-7,8.3-10.7,12.3c-3.5,3.8-7.3,7.4-10.9,11.1c-3,3-6,5.9-9.1,8.9c-2.9,2.8-5.8,5.5-8.7,8.2c-2.1,2-4.3,4.1-6.4,6.1
	c-3.2,3.1-6.5,6.1-9.7,9.2c-1.5,1.4-2.9,3-4.4,4.4c-0.9,0.9-1.8,1.8-2.7,2.7c-2.2,2.2-4.4,4.4-6.6,6.6c-3.1,3-6.2,6-9.3,9
	c-3.6,3.5-7.1,7.1-10.7,10.7c-4.3,4.4-8.6,8.8-12.9,13.3c-0.5,0.5-1.1,1-1.6,1.4c-0.8,0.7-1.6,1.3-2.3,2.1c-3.1,3.2-6.3,6.4-9.3,9.7
	c-3.6,4-7.1,8-10.6,12.1c-1.2,1.4-2.2,2.9-3.4,4.3c-1.2,1.6-2.4,3.2-3.7,4.7c-2.3,2.5-3.8,5.5-5.3,8.5c-0.4,0.9-0.9,1.7-1.3,2.6
	c-0.7,1.8,0,3.5,1.8,4.3c1.6,0.7,3.2,0.9,4.7-0.4c0.8-0.7,1.6-1.5,2.5-2.3c1.5-1.4,3-2.9,4.6-4.2c5.5-4.7,11-9.2,16-14.5
	c3.8-4,7.9-7.7,11.9-11.5c3.6-3.4,7.1-6.9,10.7-10.3c1.6-1.5,3.3-3,5-4.5c2.8-2.6,5.7-5.2,8.5-7.8c4.3-4.1,8.5-8.2,12.7-12.3
	c1-1,2-2,3.1-3c1.2-1.2,2.5-2.3,3.7-3.4c1-1,2-2.1,3-3.1c4.8-4.5,9.6-8.9,14.5-13.3c0.8-0.7,1.5-1.5,2.2-2.2
	c1.2-1.1,2.3-2.1,3.5-3.2c3.2-3,6.5-5.9,9.7-8.9c6.6-6.2,12.8-12.9,19-19.6c2.2-2.4,4.6-4.6,7-6.9c5.6-5.5,11.7-10.5,17.5-15.7
	c3.9-3.5,8-6.9,12-10.4c0.4-0.3,0.7-0.6,1.1-0.9c3.4-2.3,6.2-5.3,9.1-8.1c7.7-7.6,16.1-14.4,25.2-20.3c2.6-1.7,5.2-3.4,7.8-5.2
	c2.1-1.5,4-3.2,6.1-4.7c3.5-2.5,7.2-4.7,11.2-6.4c2.5-1.1,5.1-1.9,7.7-2.5c4-1,7.6,0.1,10.7,2.8c2.9,2.5,3.6,6.2,2.1,10.1
	c-0.4,1.1-1.1,2.1-1.8,3.1c-4.4,6-10,10.8-16.4,14.5c-2.2,1.3-4.1,2.8-6,4.3c-3.5,2.7-6.9,5.5-10.4,8.1
	c-7.5,5.7-14.7,11.8-21.6,18.3c-4.7,4.5-9.3,9-13.9,13.5c-2.3,2.3-4.5,4.7-6.8,7.1c-2.7,2.7-5.5,5.3-8.2,8c-1.3,1.3-2.6,2.6-3.9,3.9
	c-2.1,2-4.2,4-6.2,6c-4.7,4.6-9.5,9.1-14.1,13.7c-5.6,5.6-11.1,11.2-16.3,17.2c-2.9,3.3-5.9,6.5-8.9,9.7c-1.2,1.3-2.4,2.5-3.6,3.8
	c-3,3.2-6,6.4-9,9.6c-2.3,2.4-4.6,4.6-6.9,7c-3.8,3.8-7.5,7.6-11.3,11.5c-3.4,3.5-6.7,7.1-10,10.6c-2.2,2.4-4.4,4.8-6.7,7.2
	c-2.7,2.8-5.5,5.6-8.2,8.4c-1.9,2-3.8,4.1-5.7,6.1c-0.9,0.9-1.8,1.8-2.7,2.7c-3.7,4-7.3,8-11,12c-2.7,2.9-5.5,5.8-8.3,8.7
	c-1.5,1.6-3,3.1-4.5,4.7c-1.3,1.3-2.5,2.7-3.8,4c-2.1,2.2-4.3,4.3-6.4,6.4c-1.5,1.5-2.8,3-4.3,4.5c-0.8,0.8-1.6,1.5-2.4,2.3
	c-0.3,0.3-0.6,0.5-0.9,0.8c-3.1,3.5-6.8,6.3-10.2,9.5c-0.9,0.8-1.8,1.6-2.5,2.5c-0.7,0.9-1.3,1.8-1.8,2.8c-0.3,0.6-0.5,1.4-0.5,2.1
	c0,2.3,1.5,4.1,4.3,3.5c0.8-0.2,1.5-0.5,2.2-0.9c1.7-1.1,3.3-2.3,4.6-3.8c3.1-3.6,6.7-6.9,10.2-10.1c2.2-2,4.5-4.1,6.6-6.3
	c3.2-3.3,6.5-6.4,9.8-9.5c2.7-2.5,5.2-5.2,7.8-7.8c1.6-1.7,3.2-3.3,4.8-5c4-4.3,7.9-8.6,12-12.8c3.4-3.6,7-7.1,10.4-10.6
	c1.1-1.1,2.2-2.3,3.3-3.5c1.2-1.2,2.4-2.3,3.6-3.5c1.6-1.6,3-3.3,4.6-4.9c3-2.9,6.1-5.8,9.3-8.7c3.6-3.3,7.3-6.5,10.9-9.7
	c6.5-5.8,13-11.6,19.5-17.4c4.2-3.7,8.3-7.5,12.3-11.4c2.8-2.6,5.5-5.4,8.3-8c3.9-3.8,7.9-7.5,11.8-11.2c1.8-1.7,3.6-3.4,5.4-5.1
	c3-2.7,6.1-5.4,9.1-8.1c2.4-2.2,4.7-4.4,7-6.5c3.4-3,6.8-6,10.2-9c2.8-2.5,5.6-5,8.5-7.4c5.1-4.3,10.2-8.5,15.3-12.7
	c3.5-2.9,7.1-5.7,10.7-8.5c0.9-0.7,2-1.4,2.9-2.2c5-4.2,10-8.2,14.8-12.5c4.7-4.2,10-7.7,15.2-11.2c3.5-2.3,7.1-4.3,10.7-6.4
	c1.4-0.9,2.8-1.8,4.2-2.8c3.4-2.5,6.8-4.8,10.4-6.8c8.5-4.7,17.2-9.2,25.9-13.5c5.4-2.6,10.8-5.1,16.4-7.2c3.2-1.2,6.5-2.3,9.9-2.6
	c4.9-0.5,9.7,0,14.4,1.8c0.7,0.3,1.4,0.4,2,0.7c0.9,0.3,1.6,0.9,2,1.9c1.2,3,1.8,6.1,1,9.4c-0.2,0.9-0.4,1.9-0.6,2.8
	c-0.4,2-1.3,3.7-2.3,5.5c-1.8,3.3-4.6,5.7-7.2,8.3c-2.8,2.7-5.7,5.4-8.5,8.1c-1.3,1.2-2.7,2.3-4,3.4c-4.5,4-9.5,7.2-14.7,10.3
	c-2.7,1.6-5.4,3.2-8,4.8c-1.1,0.7-2.2,1.6-3.2,2.5c-4.9,4.2-10.1,8.1-15.3,12c-3,2.2-6,4.3-8.9,6.5c-3.1,2.3-6.1,4.7-9.2,7
	c-2.9,2.1-5.8,4.2-8.7,6.3c-3,2.2-6,4.5-9.1,6.7c-5.3,3.9-10.6,7.7-15.8,11.6c-3.4,2.5-6.8,5-10.2,7.6c-4.2,3.2-8.2,6.6-12.4,9.9
	c-3.2,2.5-6.4,5-9.7,7.5c-4,3.1-7.9,6.2-11.9,9.2c-3.6,2.8-7.3,5.5-10.9,8.3c-3.2,2.4-6.3,4.9-9.4,7.5c-7.3,6.1-14.6,12.2-21.9,18.3
	c-0.7,0.6-1.5,1.2-2.3,1.8c-3.8,3.4-7.5,6.7-11.2,10.1c-2.8,2.5-5.7,4.9-8.6,7.3c-4.4,3.7-8.8,7.4-13,11.4c-2.9,2.8-5.9,5.3-8.9,8
	c-4,3.6-8,7.1-12,10.7c-2.5,2.3-5,4.7-7.6,6.9c-1.6,1.4-3.3,2.7-4.9,4.2c-2.7,2.4-5.3,4.9-7.8,7.4c-3.4,3.3-6.8,6.6-10.1,9.9
	c-1,1-2,2.1-2.8,3.2c-1.7,2.2-3.6,4.2-4.9,6.8c-0.4,0.8-1.2,1.4-1.8,2.2c-1.3,2-1.8,4.2-1.5,6.6c0.2,1.3,0.1,2.6,0.8,3.9
	c0.5,0.2,1,0.5,1.6,0.7c0.3,0.1,0.6,0.3,0.9,0.2c2.8-0.5,5.6-0.9,7.8-3.1c2.6-2.6,5.4-5,8.1-7.4c0.6-0.5,1.1-1.1,1.7-1.7
	c3.3-3.3,6.5-6.6,9.8-9.9c3.1-3,6.3-5.9,9.4-8.9c2-1.9,3.9-3.8,5.8-5.7c3.5-3.3,7.1-6.4,10.6-9.7c3.1-2.9,5.9-6,8.9-9
	c2.2-2.3,4.5-4.5,6.8-6.8c3.3-3.4,6.7-6.6,10.2-9.8c2.8-2.6,5.6-5.3,8.4-7.9c1.5-1.4,3.2-2.6,4.8-3.9c4.2-3.4,8.4-6.9,12.6-10.3
	c2.8-2.3,5.6-4.5,8.4-6.8c1.7-1.4,3.4-2.9,5.2-4.3c1-0.8,2-1.6,3-2.4c1.2-1,2.4-2.1,3.6-3.1c1.5-1.2,3-2.4,4.4-3.6
	c3.8-3.3,7.6-6.6,11.4-9.9c6-5.2,12.1-10.5,18.1-15.7c4.7-4,9.3-8,14.1-11.9c3.9-3.2,8-6.2,11.9-9.4c6.7-5.5,13.9-10.3,20.7-15.6
	c4.8-3.8,10-7.1,14.9-10.9c2.9-2.3,5.8-4.5,8.8-6.6c2.5-1.7,5.1-3.4,7.7-4.9c3.1-1.9,6.2-3.6,9.3-5.5c2.5-1.5,4.9-2.9,7.4-4.4
	c3.1-1.8,6.2-3.6,9.6-4.8c4.4-1.6,8.8-3.5,13.3-4.8c3.7-1,7.4-1.8,11.3-2c0.8,0,1.4,0.2,2,0.6c2.2,1.2,4.2,2.6,5.8,4.6
	c0.2,0.2,0.4,0.5,0.6,0.8c2.6,2.5,2.8,5.5,1.5,8.6c-1.1,2.6-2.2,5.3-4.3,7.4c-0.2,0.2-0.5,0.5-0.6,0.7c-3.2,5.1-7.2,9.6-11.2,14
	c-1.6,1.7-3.5,3-5.5,4.3c-3.5,2.2-7,4.4-10.5,6.7c-3,2-5.9,4.1-8.9,6.1c-1.3,0.8-2.6,1.5-3.9,2.3c-2.6,1.7-5.2,3.4-7.8,5.1
	c-4.4,2.9-8.7,6-13.1,8.9c-3.5,2.3-6.7,4.9-9.9,7.5c-0.6,0.5-1.3,0.9-1.9,1.4c-1.2,0.8-2.4,1.5-3.4,2.7c-0.3,0.4-0.8,0.7-1.3,1.1
	c-2.7,1.9-5.3,3.8-8,5.7c-3.6,2.5-7.2,5.1-10.7,7.7c-1.2,0.8-2.3,1.7-3.3,2.7c-4.9,4.5-10.2,8.4-15.5,12.5
	c-3.7,2.8-7.4,5.5-11.1,8.3c-2.6,2-5.2,4-7.8,6c-2.2,1.7-4.5,3.4-6.7,5.1c-5.2,3.9-10.3,7.8-15.6,11.6c-5.1,3.7-9.5,8.1-14.1,12.3
	c-5,4.5-9.8,9.2-14.7,13.7c-4.1,3.7-8.2,7.3-12.3,11.1c-7.5,7-15,13.9-22.4,21c-3.9,3.7-7.5,7.7-11.2,11.5c-1.8,1.8-3.6,3.6-5.4,5.5
	c-1.1,1.2-2.2,2.5-2,4.4c0.1,0.7-0.3,1.4,0.1,2.1c1.1,0.5,2.2,0.9,3.3,1.3c1.2,0.5,2.5,0.5,3.8,0.2c2-0.5,3.9-1.4,5.6-2.6
	c3.7-2.5,7.4-5.1,11-7.8c2.1-1.6,4.1-3.3,6.1-5c1.6-1.3,3.2-2.7,4.9-3.8c3.4-2.2,6.3-4.9,9.1-7.8c2.4-2.5,4.6-5.1,7.3-7.3
	c1.9-1.6,3.9-3.1,5.6-4.9c1.6-1.6,3.4-3.1,5.1-4.6c2.9-2.6,5.8-5.2,8.7-7.9c1.2-1.1,2.3-2.4,3.7-3.3c0.7-0.5,1.3-1.2,1.8-1.9
	c1.9-2.5,4.5-4.3,6.7-6.5c3.6-3.4,7.4-6.5,10.8-10.2c0.7-0.8,1.6-1.2,2.4-1.9c3.5-3.3,6.9-6.6,10.5-9.8c3.2-2.9,6.5-5.7,9.8-8.5
	c4-3.4,8.1-6.8,12.1-10.1c2.1-1.8,4.2-3.7,6.4-5.4c2.3-1.8,4.7-3.4,7-5c4.1-2.9,8.2-5.8,12.4-8.7c3.4-2.4,6.9-4.6,10.3-7
	c2.6-1.8,5.1-3.6,7.6-5.4c6.3-4.7,12.8-9,19.3-13.4c4.2-2.9,8.5-5.8,12.9-8.2c1.4-0.8,2.9-1.4,4.4-1.9c2-0.7,3.8-1.6,5.7-2.4
	c4.8-1.9,9.7-3,14.9-3.3c2.3-0.1,4.6-0.4,6.9-0.1c0.2,0,0.3,0,0.5,0c3.2,0.7,6.3,1.7,9,3.7c0.4,0.3,0.8,0.8,1.1,1.3
	c0.9,1.7,1.9,3.3,2.7,5.1c0.9,1.9,1,4,1.5,6c0.1,0.4,0.1,0.8,0.1,1.2c0.3,3.3,0.3,3.3-1.3,6.1c-1,1.7-1.9,3.3-2.9,4.9
	c-1,1.5-2.1,3-3.4,4.3c-0.9,1-2.1,1.7-3.2,2.4c-3.2,1.9-6.5,3.8-9.8,5.6c-1.5,0.8-3,1.6-4.5,2.3c-2.8,1.5-5.7,3-8.4,4.5
	c-3,1.7-5.8,3.6-8.8,5.4c-3.4,2-6.9,4-10.4,6c-5,3-10.1,5.8-14.8,9.3c-2.7,2-5.4,4-8.1,6c-6.6,4.8-13.1,9.7-20,14.1
	c-3.8,2.5-7.7,4.8-11.2,7.8c-4.2,3.5-8.4,6.9-12.6,10.4c-4.3,3.6-8.6,7.2-12.8,10.9c-4.3,3.7-8.8,7.1-13.2,10.7
	c-3.2,2.6-6.2,5.3-9.3,7.9c-3.4,2.9-6.9,5.7-10.3,8.6c-1.5,1.3-3.1,2.6-4.1,4.3c-0.3,0.5-0.7,0.9-1.1,1.3c-2.5,2.1-4.3,4.7-6.3,7.2
	c-0.7,0.9-1.3,1.8-2,2.7c-0.6,0.7-0.9,1.5-0.5,2.4c0.1,0.3-0.1,0.6-0.1,1c0.7,0.8,1.4,1.7,2.1,2.5c1.9,0.7,3.5,0.5,5.3-0.4
	c2.1-1,4-2.3,5.8-3.8c5-4.1,9.7-8.5,14.5-12.9c3.1-2.8,6.3-5.7,9.4-8.6c4-3.6,7.9-7.3,11.8-10.9c4.5-4.1,9-8.2,13.6-12.1
	c4-3.5,8-6.8,12.1-10.2c1.7-1.4,3.3-2.8,5-4.1c1.6-1.2,3-2.9,4.4-4.4c2.3-2.4,4.6-4.9,7-7.3c1.4-1.3,2.9-2.6,4.4-3.7
	c2.9-2.4,5.9-4.6,8.8-7c3.2-2.6,6.4-5,9.7-7.4c6.4-4.7,12.5-9.7,19-14.2c3.1-2.1,6.2-4.2,9.3-6.3c1.9-1.3,3.8-2.6,5.7-4
	c1.4-1.1,3.1-1.3,4.7-1.5c0.4-0.1,0.9,0.1,1.4,0.2c0.2,0,0.4,0.2,0.7,0.3c2.2,0.3,3.5,1.6,4.3,3.6c0.6,1.4,1.4,2.7,2.2,4
	c2.4,4,3.5,8.4,3.4,13c0,0.9,0.1,1.8,0.1,2.6c0,1.3-0.1,2.5-0.9,3.7c-0.4,0.6-0.7,1.4-0.9,2.2c-0.4,2.2-1.7,3.7-3,5.4
	c-1.9,2.4-3.9,4.9-5.8,7.3c-1.1,1.4-2.2,2.9-3.3,4.4c-0.4,0.5-0.8,1-1.2,1.5c-1.5,1.7-3,3.3-4.6,4.9c-1.4,1.4-2.8,2.8-4.4,4.1
	c-2.9,2.4-5.8,4.8-8.7,7.2c-4.3,3.6-9.1,6.5-13.7,9.7c-4.8,3.4-9.6,6.9-14.4,10.4c-3.4,2.5-6.5,5.4-9.7,8.2
	c-2.8,2.5-5.8,4.8-8.7,7.2c-1.5,1.2-3,2.3-4.4,3.7c-1.2,1.2-2,2.7-2.5,4.3c-0.2,0.8,0.1,1.4,0.8,1.8c1.1,0.7,2.3,0.8,3.5,0.5
	c1.1-0.3,2.3-0.7,3.3-1.3c3.2-2,6.4-3.9,9.4-6.2c5.7-4.2,11.4-8.5,16.9-13c3.9-3.2,7.5-6.7,11.3-10c2.5-2.2,5.2-4.2,8.1-6
	c2.2-1.4,4-3.1,5.6-5.1c2.5-3.1,5.4-5.9,8.4-8.5c0.6-0.5,1.2-1.1,1.8-1.6c3.4-3,7.3-5.5,11.1-7.9c2.2-1.4,4.5-2.4,6.8-3.6
	c3-1.6,6.1-2.8,9.5-3c0.3,0,0.6-0.1,0.9-0.2c1.1-0.4,2,0,2.9,0.7c0.6,0.4,1.1,0.9,1.6,1.4c1.8,2,3.9,3.8,5.2,6.3
	c0.5,0.9,0.9,1.9,1.3,2.8c0.3,0.7,0.3,1.3,0.2,2.1c-0.4,2-0.7,4.1-1.4,6c-0.5,1.3-0.8,2.6-1,3.9c-0.7,4.9-2.9,9.1-5.7,13.1
	c-1.2,1.7-2.4,3.4-3.8,5c-0.9,1.1-2,2.1-3,3.1c-0.3,0.3-0.6,0.5-0.9,0.8c-2.4,2.2-4.9,4.3-7.3,6.6c-2.3,2.3-4.5,4.8-6.8,7.1
	c-1.3,1.3-2.7,2.5-4.1,3.6c-1,0.7-1.9,1.4-2.6,2.4c-0.3,0.4-0.8,0.8-1.2,1.2c1.4,2.4,2.3,2.9,4.8,2.4c1.7-0.3,3.4-0.8,4.9-1.8
	c2.2-1.3,4.6-2.3,6.8-3.6c2.8-1.6,5.4-3.4,8.1-5.1c1.9-1.3,3.8-2.6,5.7-3.9c0.6-0.4,1.2-0.7,2-1.1c1.8,1.3,3.5,2.6,5.2,3.9
	c4.2,3.2,8.3,6.5,13,9c1.2,0.6,2.3,1.4,3.4,2.2c1.1,0.8,2.3,1.4,3.7,1.8c3.4,1,3.8,0.5,5.8-1.5c-1.2-1.2-2-2.8-3.6-3.6
	c-0.5-0.3-0.9-0.6-1.3-1c-3.4-3.3-6.7-6.6-9.7-10.3c-0.5-0.7-1-1.4-1.5-2.2c-1.7-2.5-3.1-5.2-4.2-8c-0.8-2.2-1.8-4.2-2.7-6.4
	c-1.5-3.5-1.4-4.1,0.1-7.5c1-2.4,2.5-4.6,3.9-6.8c1.2-1.8,2.9-2.7,5-2.8c2.3-0.1,4.6-0.1,6.9,0.7c2.3,0.8,4.6,1.3,6.9,2
	c1.9,0.6,3.7,1.4,5.6,2.1c1.3,0.5,2.5,0.9,3.8,1.5c1.9,0.9,3.7,1.8,5.5,2.9c4.1,2.5,8.1,5.1,11.8,8.2c2.2,1.9,4.3,3.7,6.6,5.6
	c1.1,0.9,2.4,1.6,3.5,2.5c5.1,4,10.5,7.6,15.8,11.2c1,0.7,2,1.4,2.8,2.2c3.3,2.9,6.9,5.5,10.7,7.7c2.1,1.3,4.2,2.7,6.2,4.1
	c3.2,2.2,6.5,4.4,10.1,5.9c1.3,0.6,2.5,1.6,3.6,2.5h10.8c-0.1-0.5-0.3-1.1-0.6-1.6c-0.8-1.2-1.8-2.2-2.9-3.1
	c-5.6-4.5-11.3-8.6-17.1-12.8c-0.6-0.5-1.3-0.9-1.9-1.5c-4.1-4.3-8.8-7.9-13.7-11.2c-5.2-3.4-10.1-7.1-15-10.8
	c-3.4-2.6-7.1-4.9-10.7-7.3c-0.3-0.2-0.5-0.3-0.8-0.5c-3.9-2.7-7.7-5.4-11.7-8c-4.3-2.9-8.3-6.2-12.4-9.4c-1.1-0.8-1.9-1.9-2.7-3
	c-2.4-3.5-5.1-6.8-8.1-9.8c-1.2-1.2-2.7-2.3-4-3.4c-0.5-0.4-1-0.8-1.4-1.3c-3.4-4.7-7.7-8.5-12.4-11.9c-2.1-1.5-4.2-2.9-6.3-4.4
	c-0.9-0.7-1.7-1.4-2.6-2.1c-3.5-2.9-5-6.8-5.4-11.1c-0.2-2.4,0-4.9,0.7-7.3c0.5-1.5,0.8-3.1,1.4-4.6c0.5-1.3,1.2-2.6,1.8-3.9
	c0.2-0.4,0.4-0.7,0.7-0.9c1.2-0.9,2.5-1.8,3.8-2.5c1.6-0.9,3.3-1.2,5.1-1.1c1.7,0.1,3.3,0.3,5,0.5c0.4,0,0.7,0.2,1.1,0.5
	c3.4,2.2,6.9,4.3,10.3,6.6c3.9,2.6,7.7,5.4,11.6,8.1c3.6,2.5,7.2,5.1,10.7,7.6c2.5,1.8,4.9,3.6,7.3,5.4c3.8,2.7,7.7,5.4,11.5,8.2
	c3.3,2.4,6.6,4.7,9.9,7.1c3.2,2.3,6.5,4.6,9.7,7c6.3,4.5,12.1,9.7,17.8,14.9c3.4,3,6.9,6,10.3,8.9c0.6,0.5,1.2,1.1,1.8,1.6
	c3.9,3.5,7.7,6.9,11.6,10.4c3.2,3,6.3,6.1,9.5,9.1c4.1,4,8.3,8,12.4,12c0.9,0.9,1.9,1.7,2.9,2.5c4.7,4.2,9,8.8,13.9,12.8
	c1.9,1.6,3.9,3.1,5.9,4.5c1.2,0.8,2.5,1.5,3.8,2.1c0.6,0.3,1.4,0.4,2.1,0.4c2.2-0.1,3.6-1.4,3.6-3.6c0-1.2-0.2-2.5-0.9-3.7
	c-1.3-2.1-2.7-4.1-4.5-5.9c-1.4-1.4-2.8-2.9-4.1-4.4c-1.3-1.4-2.5-2.9-4.2-3.9c-2.3-1.4-4.3-3.3-6.3-5.1c-3.8-3.4-7.6-6.9-11.4-10.3
	c-4-3.5-8-6.9-12-10.3c-3.5-3-7-5.8-10.2-9.1c-1.4-1.5-3.1-2.8-4.6-4.2c-2.8-2.6-5.6-5.2-8.5-7.8c-1.1-1-2.3-1.8-3.4-2.7
	c-4.4-3.7-8.9-7.3-13.5-10.7c-4.2-3.1-8.2-6.3-12.3-9.6c-4.4-3.6-8.6-7.4-13-11c-2.9-2.3-5.9-4.3-8.9-6.4c-1.3-0.9-2.7-1.8-4-2.6
	c-4.6-3-9.1-5.9-13.7-8.9c-3-2-6-4-9.1-5.9c-3.1-1.9-6.4-3.5-9.6-5.3c-1.1-0.6-2.2-1.4-3.2-2.1c-1.5-1-3-2.1-4.5-3.1
	c-1.5-1.1-2.9-2.2-3.9-3.8c-0.6-1.1-1.6-2-2.4-3c-2.2-2.6-3.7-5.6-4.7-8.8c-0.3-0.8-0.2-1.7-0.2-2.6c0.5-4.4,2-8.3,4.7-11.9
	c0.8-1.1,1.8-2,3-2.7c2.2-1.2,4.5-2.1,7-2.2c6-0.4,11.8,0.4,17.5,2c2.9,0.8,5.6,2,8.2,3.3c1.8,0.8,3.4,2,5.1,3.1
	c3.5,2.2,6.9,4.3,10.3,6.6c3.4,2.3,6.7,4.7,10,7.1c7.2,5.3,14.5,10.6,21.7,15.8c0.8,0.6,1.8,1.1,2.6,1.7c3.1,2.3,6.3,4.7,9.4,7
	c1.4,1,2.9,2,4.3,3.1c1.2,0.8,2.3,1.7,3.4,2.6c2,1.5,4,2.9,5.9,4.5c3.4,2.9,6.7,5.9,10.1,8.9c3,2.7,5.9,5.4,8.9,8.1
	c1.5,1.4,3,2.8,4.6,4.2c1,0.9,2,1.9,2.9,2.8c0.6,0.6,1.4,1.1,2,1.7c3.3,3.4,6.6,6.8,9.9,10.1c0.4,0.4,0.8,0.8,1.2,1.2
	c1.9,1.9,3.9,3.8,5.8,5.7c3,3,6,5.9,9,8.9c1.7,1.7,3.4,3.4,4.9,5.2c1,1.2,2,2.3,3.1,3.3c0.6,0.5,1.1,1.1,1.7,1.7
	c0.6,0.6,1.2,1.3,1.8,1.9c2.6,2.1,4.7,4.5,7.1,6.8c3.5,3.4,7.1,6.7,10.7,10c0.6,0.6,1.2,1.3,1.9,1.8c4.4,4,8.8,8.1,13.3,12.1
	c1.5,1.4,3.3,2.5,5,3.8c1.3,0.9,2.6,1.9,3.9,2.8c1.3,0.8,2.6,1.5,3.9,2.3c2.7,1.6,5.4,3.1,8,4.8c2.3,1.4,4.6,2.5,7.3,3
	c1,0.2,2.1,0.3,3.1,0.2c0.8,0,1.6-0.2,2.3-0.6c2.4-1.1,3.1-3.6,1.6-5.8c-0.7-1-1.6-2-2.7-2.7c-3.9-2.8-7.7-5.8-11.5-8.6
	c-0.1,0-0.1-0.1-0.2-0.1c-4.1-2.9-7.7-6.2-11-9.9c-1.5-1.7-3.3-3.1-5.3-4.1c-3.1-1.7-5.5-4.1-7.9-6.5c-2.2-2.2-4.5-4.3-6.8-6.4
	c-0.5-0.4-1-0.8-1.6-1.1c-3.4-2.2-6.9-4.3-10.3-6.5c-2.4-1.6-4.5-3.5-6.6-5.5c-2.9-2.9-5.9-5.7-8.8-8.5c-1.4-1.3-2.8-2.6-4.2-3.9
	c-4.8-4.5-10.3-8.1-15.5-12.1c-5.4-4.1-10.9-8.1-16.3-12.2c-1.9-1.5-3.7-3.1-5.3-4.8c-3.5-3.7-7.4-6.9-11.2-10.1
	c-3.4-2.8-6.8-5.6-10.3-8.3c-3.1-2.3-6.2-4.6-9.4-6.6c-3-1.8-5.7-3.9-8.4-6c-5.4-4.3-11-8.2-16.7-12c-5.4-3.7-10.9-7.3-16.4-10.8
	c-13.3-8.6-26.6-17.2-39.9-25.8c-4.1-2.6-7.6-5.9-10.9-9.3c-2.5-2.5-4.6-5.3-6.4-8.4c-1.2-1.9-2.5-3.7-3.6-5.7
	c-1.1-2-1.8-4.1-1.6-6.4c0.1-0.9,0.2-1.8,0.5-2.6c1.4-3.3,3.7-5.7,7.1-7c2.4-1,4.8-1,7.3-0.5c6.2,1.4,12.2,3.3,17.8,6.3
	c5.1,2.7,9.9,5.8,14.8,8.9c2.1,1.3,4.1,2.8,6.1,4.2c3.8,2.7,7.8,5,11.4,7.9c0.6,0.5,1.2,1,1.8,1.5c3.2,2.5,6.4,5,9.6,7.6
	c1.4,1.1,2.6,2.3,4,3.4c1.2,1,2.4,2.1,3.9,2.7c0.6,0.3,1,0.7,1.5,1.2c3,2.7,6.1,5.1,9.4,7.5c2.3,1.7,4.5,3.6,6.8,5.3
	c1.6,1.3,3.3,2.5,5,3.7c1.2,0.9,2.4,1.9,3.5,2.9c0.4,0.3,0.7,0.7,1.1,1c3.3,2.3,6.2,5.2,9.5,7.7c1.8,1.4,3.5,3,5.3,4.5
	c2.2,1.9,4.4,3.6,6.6,5.5c1.8,1.6,3.5,3.3,5.3,4.9c1.9,1.7,3.9,3.3,5.8,5c2.9,2.6,5.8,5.2,8.7,7.9c0.7,0.6,1.3,1.2,2,1.7
	c2.4,1.9,4.8,3.8,7.1,5.7c2.1,1.7,4.2,3.4,6.6,4.8c8.2,5,15.7,11,22.2,18.2c1,1.1,2.1,2.2,3.4,3c2.9,1.9,5.7,3.9,8.6,5.8
	c5.5,3.6,10.1,8,14.4,13c2.3,2.7,4.9,5.3,7.6,7.7c2.5,2.2,4.8,4.6,7.2,7c1.2,1.2,2.3,2.4,3.6,3.5c0.8,0.8,1.7,1.4,2.5,2.2
	c3.5,3.1,6.8,6.3,10.3,9.3c3.6,3.1,7.2,6.1,10.9,9c1,0.8,1.9,1.7,2.9,2.5c2.1,1.8,4.3,3.6,6.4,5.4c1.1,0.9,2.1,1.9,3.2,2.9
	c2.8,2.4,5.7,4.9,8.6,7.3c4.1,3.4,8.4,6.7,12.5,10c1.4,1.1,3.1,1.7,4.8,1.9c3,0.3,5.5-1.4,5.4-4.9c-0.1-2.3-0.8-4.4-2.3-6.2
	c-1.9-2.3-3.7-4.6-5.7-6.8c-2-2.1-4.2-4-6.3-5.9c-6.3-5.9-12.6-11.8-19-17.6c-4.9-4.5-10-8.7-15-13.1c-8.4-7.3-16.7-14.7-25.1-22
	c-3.7-3.2-7.6-6.3-11.4-9.5c-11.7-9.8-23.4-19.6-35.2-29.3c-5.3-4.3-10.8-8.3-16.2-12.4c-11.2-8.4-22.3-16.9-33.6-25.2
	c-7.8-5.8-15.7-11.3-23.6-16.9c-8.9-6.3-17.9-12.4-26.8-18.7c-7.8-5.5-15.5-11-23.3-16.5c-1.5-1.1-3-2.1-4.5-3.2
	c-5.9-4-11.3-8.6-16.8-13.1c-1.9-1.6-4-3-6.1-4.2c-4.4-2.5-8.5-5.4-12.4-8.6c-4-3.3-8.1-6.5-12.1-9.9c-2.4-2.1-5-4-7.5-5.8
	c-1.7-1.3-3.1-3-4.4-4.8c-1.5-2.1-2.9-4.2-4.4-6.3c-4.2-5.7-1.3-13.8,4.4-16.6c2.5-1.2,5-1.7,7.6-0.8c2.9,1,5.8,1.9,8.6,3.1
	c2.3,1,4.5,2.5,6.7,3.8c2.7,1.6,5.4,3.2,8,4.9c3.9,2.5,7.8,5,11.7,7.5c0.8,0.5,1.6,1,2.4,1.5c6,3.6,11.7,7.6,17.3,11.6
	c1.3,0.9,2.7,1.7,4.1,2.4c2.6,1.2,5.1,2.5,7.6,4c2.8,1.6,5.7,3,8.5,4.5c1.6,0.9,3.2,1.8,4.8,2.7c1.3,0.7,2.6,1.3,3.8,2.1
	c2.1,1.2,4.3,2.5,6.3,3.8c2.4,1.5,4.8,3.1,7.2,4.8c1.4,1,2.7,2.2,4,3.4c1,0.8,2,1.5,3.2,2.1c0.6,0.3,1.2,0.6,1.5,1.1
	c1,1.6,2.6,2.6,4,3.8c4.1,3.3,8.2,6.6,12.5,9.7c2.8,2.1,5.6,4.3,8.4,6.3c1.8,1.3,3.6,2.6,5.2,4.2c0.4,0.4,0.8,0.7,1.3,1.1
	c4.7,3.4,9.1,7,13.5,10.8c2.9,2.5,5.9,4.9,8.8,7.4c3.2,2.7,6.2,5.5,9.4,8.2c2.1,1.8,4.3,3.6,6.4,5.4c1,0.9,2,1.8,3,2.8
	c2.6,2.3,5.1,4.5,7.7,6.8c3.6,3.2,7.1,6.4,10.6,9.6c2.9,2.6,5.7,5.3,8.7,7.9c4.7,4.2,9.5,8.3,14.3,12.4c1.8,1.6,3.7,3,5.6,4.6
	c3.1,2.6,6.2,5.2,9.3,7.9c0.9,0.7,1.7,1.4,2.6,2.1c5,4.1,10,8.2,15.1,12.2c0.7,0.6,1.5,1.2,2.3,1.8c1.2,1,2.6,1.9,3.4,3.4
	c0.3,0.5,0.7,0.8,1.1,1.2c4,4,8.1,8,12.2,11.9c2.8,2.7,5.8,5.3,8.7,7.9c1,0.9,1.9,2,2.8,2.9c3.1,3.1,6.2,6.2,9.3,9.3
	c2.2,2.2,4.5,4.3,6.7,6.5c2.2,2.1,4.2,4.4,6.4,6.4c1.7,1.6,3.6,3.1,5.5,4.6c1.2,0.9,2.2,1.8,3.2,2.8c2.1,2.1,4.4,4.2,6.8,6.1
	c3,2.4,5.8,5.1,8.6,7.7c3.4,3.2,6.9,6.5,10.4,9.6c1.2,1.1,2.7,1.9,4.1,2.9c0.5,0.3,1.1,0.6,1.5,0.6c0.8-0.1,1.8,0,2.4-0.8
	c0.5-0.6,0.3-1.4,0.2-2.1c-0.2-0.8-0.4-1.8-0.9-2.4c-1.6-2.4-3.3-4.7-5.1-7c-1.9-2.4-4.3-4.3-6.6-6.2c-2.2-1.8-4.5-3.6-6.7-5.5
	c-1.2-1-2.3-2.2-3.5-3.3c-3.6-3.3-7.2-6.6-10.7-10c-6-5.8-12-11.7-18-17.6c-3-3-5.9-6-9-9c-3.5-3.3-7-6.5-10.5-9.8
	c-4.7-4.3-9.4-8.7-14.2-12.9c-4.9-4.4-9.7-9-15-13.1c-3-2.3-5.7-4.8-8.6-7.3c-3.6-3-7.2-6.1-10.8-9.1c-0.5-0.4-1-0.8-1.6-1.1
	c-2.6-1.5-4.9-3.3-7.2-5.2c-5.2-4.5-10.3-9.1-15.1-14.1c-1.9-2-4.1-3.9-6.2-5.7c-5.3-4.5-10.8-8.8-16.1-13.3
	c-5.1-4.3-9.7-9.1-14.2-14c-1.3-1.5-2.8-2.9-4.4-4.1c-5.3-4.2-10.6-8.5-15.8-13c-3.1-2.7-6.3-5.2-9.4-7.8c-1.8-1.5-3.6-3.2-5.4-4.8
	c-5.8-5.1-11.8-10.1-17.8-14.9c-3.2-2.6-6.2-5.3-9.3-7.9c-1.4-1.1-2.8-2.1-4.2-3.2c-3.5-2.7-7-5.6-10.6-8.2
	c-2.9-2.1-5.8-4.2-8.5-6.7c-2.2-2.1-4.2-4.3-5.2-7.4c-0.2-0.6-0.6-1.1-0.8-1.7c-0.5-1.3-1-2.7-1.4-4.1c-0.5-1.7-0.2-2.1,1.4-3.1
	c1.6-1,3.3-1.9,5.2-2.5c1.6-0.5,3.2-0.9,4.9-0.5c0.2,0,0.3,0,0.5,0c4.9,0.1,9.4,1.9,13.8,3.6c1.8,0.7,3.6,1.3,5.3,2.2
	c2.5,1.3,4.8,2.9,7.1,4.5c2.2,1.6,4.5,3,6.7,4.6c5.5,3.9,10.8,7.9,16.4,11.6c4.1,2.7,8,5.9,12.1,8.6c3,2,6,4.2,8.8,6.6
	c3.6,3.1,7.6,5.9,11.3,8.8c1.3,1,2.5,2.2,3.8,3.3c3.4,2.7,6.4,5.7,9.6,8.7c3.2,3,6.4,6.1,9.5,9.1c0.8,0.8,1.5,1.7,2.2,2.5
	c3.1,3.9,6.5,7.4,10.4,10.6c2.4,1.9,4.6,4.2,6.9,6.3c2,1.8,3.9,3.8,6.1,5.4c1.6,1.2,3,2.6,4.5,3.9c2.3,1.9,4.7,3.8,7.1,5.7
	c1,0.8,1.8,1.8,2.9,2.5c2.2,1.6,4.1,3.5,6.2,5.2c3.7,2.9,7.4,5.8,11,8.8c2.9,2.4,5.7,4.9,8.5,7.4c2.2,1.9,4.4,3.9,6.6,5.9
	c0.2,0.2,0.4,0.3,0.6,0.4c1.5,0.9,2.8,2.1,4.2,3.2c2.5,2.1,5,4.2,7.5,6.3c1.6,1.4,3.2,2.9,4.7,4.4c1.9,1.8,3.9,3.6,6.2,4.8
	c0.5,0.3,0.9,0.7,1.2,1.1c2.1,2.9,4.9,5,7.7,7.1c2.8,2.1,5.6,4.2,8.5,6.2c3.4,2.3,6.8,4.5,10.3,6.6c3.6,2.2,7.3,4.2,11.1,6.2
	c2.5,1.3,5,2.5,7.6,3.5c1.5,0.6,2.8,1.5,4,2.5c1.6,1.3,3.2,2.7,4.8,4c1.1,0.8,2.2,1.6,3.6,1.9c0.5,0.1,0.9,0.2,1.4,0.2
	c1.8-0.2,2.9-1.5,2.7-3.3c-0.1-1.3-0.4-2.5-1.1-3.6c-0.5-0.8-1-1.7-1.7-2.3c-2.6-2.8-5.2-5.4-8.2-7.7c-0.5-0.4-1-0.8-1.5-1.2
	c-4.7-4.4-9.7-8.6-14.7-12.7c-4.5-3.6-9-7.1-13.6-10.7c-4.3-3.3-8.6-6.6-12.9-9.9c-2.5-1.9-4.8-3.9-7.3-5.9
	c-2.1-1.6-4.3-3.1-6.4-4.7c-4.5-3.4-8.9-6.7-13.4-10.1c-3.1-2.4-6.2-4.8-9.3-7.2c-4.1-3.1-8.2-6.2-12.2-9.3
	c-3.1-2.4-6.2-4.8-9.3-7.2c-0.8-0.6-1.5-1.2-2.3-1.7c-3.7-2.4-7-5.4-10.1-8.5c-4.2-4.1-8.5-8.2-12.7-12.4s-8.9-7.8-13.6-11.3
	c-3.3-2.5-6.7-4.9-9.9-7.6c-3-2.6-6.2-5-9.3-7.5c-1.5-1.2-2.8-2.6-4.2-3.9c-3.4-3.2-6.7-6.4-10.2-9.4c-2.7-2.3-5.2-4.7-7.7-7.2
	c-3.7-3.6-7.8-6.9-11.6-10.4c-1-0.9-2.1-1.8-3-2.8s-1.4-2.3-2.2-3.4c-0.9-1.3-2-2.5-2.9-3.8c-0.5-0.6-1.1-1.2-1.3-1.9
	c-0.9-2.6-2-5.1-2.3-7.8c-0.1-0.6-0.2-1.3-0.2-1.9c0-1.1,0.4-1.9,1.6-2.3c1.5-0.6,3-1.1,4.6-1.3c3.9-0.7,7.8-1.6,11.8-2
	c8-0.8,15.6,0.2,22.4,5.1c0.7,0.5,1.5,1,2.3,1.3c4.3,1.7,8.1,4.1,12.1,6.4c1.6,0.9,3.2,1.8,4.9,2.5c1.3,0.6,2.6,1.3,3.8,2.1
	c1.9,1.2,3.8,2.4,5.6,3.6c4.3,2.8,8.1,6.2,11.6,10c5.5,6,11.5,11.6,17.8,16.7c5,4.1,10,8.3,14.5,12.9c1.3,1.4,2.6,2.8,4.3,3.7
	c0.4,0.2,0.7,0.6,1.1,0.9c6.6,5.9,13.5,11.5,20.7,16.8c0.8,0.6,1.6,1.3,2.4,2c5,3.8,10,7.7,15.1,11.5c5.5,4,10.7,8.3,16.1,12.5
	c4.2,3.2,8.3,6.5,12.4,9.8c1.7,1.4,3.2,2.9,4.7,4.4c1.1,1,2.1,2.2,3.4,3.1c3.2,2.3,5.8,5.3,8.6,7.9c1.6,1.5,3.2,2.9,4.7,4.5
	c1,1.1,2.2,2.2,3.5,2.9c1,0.5,2.2,0.9,3.4,1.2c0.9,0.2,1.5-0.3,2-1.1c0.6-1,0.9-2.1,0.6-3.2c-0.2-1.1-0.6-2.2-1-3.2
	c-1.2-2.6-2.9-4.8-5.1-6.6c-2-1.6-4.1-3-6.2-4.5c-0.6-0.5-1.3-1-1.9-1.5c-7.9-7.2-16-14.3-24.1-21.2c-7.3-6.2-14.7-12.3-22.3-18.2
	c-1.1-0.9-2.2-1.9-3.1-3c-3.6-4.6-7.8-8.7-12.2-12.5c-2.3-2-4.6-3.9-6.9-5.9c-1.7-1.5-3.4-2.9-5.1-4.4c-1.4-1.3-2.9-2.5-4.5-3.6
	c-1.5-1-2.9-2.3-4.3-3.5c-5-4.3-10.1-8.6-15.1-12.9c-0.9-0.8-1.9-1.5-2.8-2.2c-2.8-2.2-5.3-4.7-7.7-7.2c-2.6-2.8-5.4-5.4-8.1-8.2
	c-2.7-2.8-4.7-6-6.6-9.4c-1.3-2.4-1.2-4.9,0.1-7.3c1.6-2.8,4.1-4.4,6.9-5.6c0.3-0.1,0.6-0.1,0.9-0.1c1.7,0.2,3.3-0.3,4.9-0.9
	c0.8-0.3,1.5-0.2,2.3,0.1c4.6,1.7,9,3.7,13.2,6.2c3.1,1.8,6.3,3.5,9.3,5.4c3.3,2.1,6.6,4.2,9.6,6.7c1,0.9,2.2,1.6,3.2,2.5
	c2.4,2,4.7,4.1,7.2,5.9c2.5,1.9,4.6,4.1,6.9,6.2c2.2,2,4.1,4.2,6.1,6.4c0.4,0.4,0.8,0.8,1.2,1.2c2.1,1.6,3.9,3.6,5.4,5.7
	c0.2,0.3,0.4,0.5,0.6,0.7c2.6,2.5,4.9,5.3,7.2,8c3.1,3.5,6.2,6.9,9.3,10.3c1,1.1,1.9,2.3,2.9,3.5c1.8,2.2,3.8,4.1,5.9,6
	c4.9,4.2,9.2,8.8,13.5,13.6c0.7,0.8,1.4,1.6,2.1,2.3c1.4,1.3,2.6,2.8,3.6,4.5c1.1,1.9,2.8,3.3,4.7,4.4c0.5,0.3,1.1,0.6,1.7,0.8
	c2.2,0.6,4.3-0.9,4.3-3.2c0-1.8-0.1-3.6-1.4-5.2c-0.9-1.1-1.6-2.4-2.3-3.6c-2-3.4-4.1-6.7-6.3-9.9c-1.8-2.6-3.5-5.2-5.5-7.5
	c-4.1-4.8-8.4-9.5-12.8-13.9c-5.4-5.4-10.7-11-15.7-16.8c-1-1.1-1.8-2.5-2.6-3.7c-1-1.5-2.1-3-3.1-4.6c-2.7-4.1-5-8.4-5.6-13.3
	c-0.2-1.5-0.2-3,0.1-4.5c0.3-1.3,0.6-2.6,0.9-3.9c0.6-2.1,1.8-3.5,4-4.1c1.4-0.3,2.8-0.9,4.2-1c2-0.3,4,0.4,5.8,1.3
	c3,1.5,5.9,3.2,8.6,5.3c1.4,1.1,2.7,2.5,4,3.7c2,1.8,4.1,3.6,6.1,5.5c0.8,0.8,1.7,1.5,2.4,2.3c3.4,4.1,7.2,8,11.1,11.6
	c0.9,0.8,1.7,1.7,2.5,2.6c2.5,2.7,5.2,5.2,8.4,7.1c0.6,0.4,1.2,0.9,1.7,1.3c1.3,0.8,2.4,0.3,2.5-1.2c0.1-1-0.1-1.9-0.5-2.8
	c-0.8-1.7-1.8-3.2-3-4.6c-2.8-3.3-5.6-6.6-8.4-9.9c-2.1-2.4-4.2-4.8-5.9-7.6c-0.6-0.9-1.3-1.8-2.1-2.6c-3.7-4.1-7.5-8.1-11.1-12.3
	c-1.3-1.5-2.5-3.1-3.6-4.7c-0.3-0.4-0.5-1-0.5-1.6c-0.1-0.9,0.8-1.5,1.6-1.2c0.5,0.2,1,0.5,1.4,0.9c1.2,0.9,2.4,1.9,3.5,2.9
	c3.5,3,7.1,5.9,10.6,9c4.1,3.7,7.8,7.8,11.4,12c2.4,2.9,4.9,5.6,7.7,8.2c2,1.9,3.9,4,5.9,6c1.6,1.7,2.8,3.7,3.7,5.8
	c0.2,0.5,0.3,1.1,0.3,1.6c0.1,3.6,0.2,7.2,0.4,10.8c0,0.8-0.1,1.4-0.7,2c-0.5,0.5-0.9,1.1-1.3,1.7c-1.1,1.7-2.8,2.1-4.6,1.8
	c-2.5-0.5-5-1.1-6.8-3.2c-0.8-1-1.9-1.7-2.8-2.6c-0.6-0.6-1.1-1.3-1.7-2c-2-2.2-3.7-4.6-6-6.5c-1.9-1.5-3.7-3.1-5.5-4.6
	c-2.3-1.9-4.4-4.1-6.5-6.4c-2.5-2.7-4.9-5.4-7.7-7.9c-2.9-2.6-5.6-5.5-8.4-8.2c-0.9-0.8-1.8-1.6-2.6-2.4c-1.3-1.3-3.1-2-4.8-2.5
	c-1.3-0.4-2.7-0.2-4,0c-0.3,0.6-0.5,1-0.8,1.6c0.1,0.3,0.2,0.6,0.4,0.9c2,4.1,4.3,8,7,11.7c4.4,6.3,9,12.5,13.4,18.8
	c2.2,3.2,4.6,6.1,7.4,8.8c4.1,3.9,7.9,8.1,11,12.9c2.7,4.1,5.9,7.8,9.1,11.4c1.3,1.4,2.4,2.9,3.4,4.6c1.3,2.2,2.8,4.3,4.2,6.4
	c0.7,1.1,1.3,2.2,1.9,3.3c0.2,0.3,0.3,0.6,0.4,0.9c0.2,2.2,0.6,4.4,0.4,6.7c-0.1,0.5-0.2,1.1-0.4,1.6c-1,1.9-2,3.8-2.9,5.8
	c-0.4,0.9-1.1,1.6-1.9,2.1c-0.6,0.3-1.1,0.6-1.6,1c-1.5,1.3-3,1.2-4.7,0.5c-2.1-0.9-4-2-5.8-3.3c-4-2.9-7.6-6.1-11.3-9.3
	c-7-6.3-13.4-13-19.4-20.2c-3.7-4.4-7.6-8.4-11.9-12.2c-2.3-2-4.5-4.1-6.7-6.2c-0.9-0.8-1.6-1.8-2.9-2.1c-0.3-0.1-0.6-0.5-0.9-0.8
	c-2-2.2-3.9-4.4-5.9-6.6c-2.4-2.5-4.8-4.9-7.2-7.4c-2.6-2.7-5.3-5.4-7.9-8c-1.8-1.7-3.6-3.4-5.5-5c-2.4-2.2-4.8-4.4-7.3-6.5
	c-3.4-2.8-6.8-5.6-10.2-8.3c-1.4-1.1-2.9-2-4.3-3c-1-0.7-2-1.6-3.1-2.2c-1.6-1-3.3-1.9-5-2.8c-2.6-1.4-5.3-1-8-0.4
	c-0.2,0-0.4,0.2-0.6,0.3c-1.7,1-1.8,1.9-0.4,3.4c4.8,4.9,10.1,9.3,15.4,13.7c2.3,1.9,4.7,3.6,7,5.4c1.1,0.9,2.2,1.9,3.2,2.9
	c4.6,4.5,9.2,8.9,13.7,13.4c3.5,3.5,7,7,11,10c0.8,0.6,1.5,1.5,2.3,2.1c1.3,1.1,2.7,2,4,3.1c1.1,0.9,2.2,1.8,3.3,2.8
	c0.6,0.5,1.1,1,1.6,1.4c3,2.2,6.1,4.4,9.1,6.7c1.1,0.9,2.2,1.9,3.3,2.8c1.1,1,2.2,2,3.4,3c0.7,0.6,1.4,1,2.1,1.5
	c0.4,0.3,1,0.6,1.3,1c1.2,1.8,3,3,4.7,4.3c2.9,2.2,5.8,4.3,8.6,6.5c1.8,1.4,3.4,2.9,5.1,4.3c1.4,1.2,2.7,2.4,4.1,3.7
	c0.9,0.9,1.8,1.8,2.7,2.7c0.8,0.7,1.5,1.5,2.3,2c3.3,2.2,6.2,4.8,9,7.6c3.1,3,6.3,5.9,9.4,8.8c2.4,2.2,4.7,4.6,6.7,7.2
	c2.2,2.9,4.4,5.9,6.6,8.8c0.8,1,1.3,2.2,1.6,3.5c0.5,2.5,1.1,5,1.7,7.5c0.1,0.4,0.1,0.8,0.3,1.1c0.4,0.9,0.3,1.7,0,2.5
	c-0.5,1.4-0.9,2.7-1.2,4.1c-0.3,0.9-0.8,1.5-1.6,2c-1,0.6-1.9,1.1-2.9,1.7c-0.7,0.4-1.4,0.4-2.1,0.4c-2.5-0.3-4.9-0.5-7.4-0.8
	c-0.6-0.1-1.3-0.2-1.9-0.2c-1.4,0.1-2.6-0.4-3.7-1.4c-2.2-1.8-4.6-3.4-6.8-5.3c-5-4.3-10-8.7-15-13.1c-2.7-2.4-5.4-5-8.1-7.4
	c-3.1-2.8-6.5-5.1-9.8-7.6c-1.2-0.9-2.3-1.7-3.4-2.6c-3.8-2.7-7.5-5.4-11.3-8.1c-1-0.7-2-1.5-3.1-2.3c-0.7-0.5-1.4-1.1-2.1-1.5
	c-2.2-1.2-4-2.8-6.1-4.2c-2.8-1.9-5.6-3.9-8.6-5.6c-2-1.1-3.9-2.4-5.5-4.1c-1.4-1.4-3-2.6-4.6-3.9c-1-0.8-2-1.6-2.7-2.7
	c-0.6-0.8-1.4-1.5-2.2-2.2c-7.3-6.6-14.5-13.3-21.8-19.9c-2.1-1.9-4.2-3.9-6.5-5.7c-4.4-3.6-9-7.1-13.4-10.8
	c-3.3-2.8-6.7-5.4-10.2-8c-1.9-1.4-3.8-2.7-5.6-4c-3.3-2.4-6.4-5-9.5-7.7c-0.8-0.7-1.6-1.3-2.4-1.9c-4.2-3-8.3-6.2-12.3-9.5
	c-1.9-1.6-4-3-6-4.4c-0.4-0.3-0.8-0.4-1.3-0.6c-1.1-0.3-2.2-0.4-3.2-0.8c-3.3-1.3-6.8-1.6-10.2-2.4c-0.4-0.1-0.9,0-1.4,0.2
	c-2.5,0.9-4,2.9-5.1,5.1c-0.2,0.4-0.3,0.9-0.5,1.6c0.4,0.5,0.8,1.2,1.3,1.8c1.8,2,3.6,4,5.5,6c1.3,1.4,2.5,2.9,3.9,4.2
	c4.1,3.8,8.3,7.5,12.8,10.9c2.5,1.9,4.9,4.1,7.4,6.1c4.8,3.8,9.7,7.6,14.6,11.3c3.8,2.9,7.5,6,10.9,9.4c1.7,1.6,3.2,3.3,4.9,5
	c0.6,0.6,1.3,1.2,2,1.7c7.5,5.4,14.4,11.5,21.1,17.8c2.3,2.1,4.7,4.1,7.1,6c3.3,2.6,6.7,5.2,10.1,7.7c4.7,3.4,9.5,6.8,14.3,10.2
	c5.4,3.8,11,7.4,16.4,11.2c3.8,2.7,7.5,5.7,11.3,8.5c0.3,0.2,0.6,0.6,0.9,0.8c4.7,3.1,8.9,6.8,13.2,10.3c2,1.6,4.1,3,6.1,4.4
	c3.3,2.3,6.4,4.7,9.6,7.1c0.1,0.1,0.2,0.2,0.4,0.3c2.4,1.3,4.3,3.3,6.5,4.9c3.8,2.9,7.4,6.1,10.9,9.4c3.4,3.1,6.8,6.3,10.1,9.5
	c0.8,0.7,1.5,1.4,2.2,2.2c2.4,2.5,4.9,5,7.3,7.6c1.9,2,3.6,4.3,5,6.7c1.4,2.2,2.8,4.5,4,6.8s2.1,4.6,2.7,7.2c0.6,3,0.5,5.9-0.6,8.7
	c-0.5,1.4-1.5,2.6-2.6,3.7c-0.7,0.6-1.4,0.8-2.2,0.7c-2.3-0.5-4.7-0.9-6.9-1.9c-4.5-2-8.8-4.3-12.9-6.8c-3.1-1.9-6.2-3.7-9.3-5.5
	c-3.6-2.2-7.2-4.4-10.8-6.7c-3.9-2.4-7.7-4.8-11.5-7.3c-3.4-2.2-6.7-4.6-10.1-6.9c-5.4-3.6-10.4-7.7-15.4-11.8
	c-1.7-1.4-3.5-2.6-5.1-3.9c-5.2-4.2-10.3-8.6-15.5-12.8c-4.8-3.9-9.4-7.9-14.4-11.5c-5.7-4.1-11.1-8.6-16.8-12.8
	c-3.3-2.4-6.2-5.2-9.4-7.8c-1.5-1.2-3-2.4-4.5-3.6c-4.3-3.4-8.7-6.8-12.9-10.3c-2.2-1.8-4.2-3.6-6.4-5.4c-0.5-0.5-1.1-0.9-1.8-1.2
	c-3-1.6-5.5-3.8-7.7-6.4c-1.6-1.9-3.1-3.8-4.7-5.7c-1.6-1.9-3.2-3.8-4.9-5.6c-1.8-2-4.1-3.3-6.1-5c-0.7-0.6-1.3-1.1-2-1.7
	c-1-0.9-2-1.8-3-2.7c-2-1.7-4.1-3.4-6.1-5c-2.7-2.2-5.4-4.5-8.1-6.7c-2.1-1.7-4.2-3.4-6.3-5.1c-0.6-0.5-1.2-1.1-1.8-1.6
	c-1.5-1.4-3-2.8-4.6-4.2c-4-3.5-8-6.9-12-10.3c-1.2-1-2.6-1.8-3.8-2.8c-4.9-4.1-10-8-15.2-11.7c-3.2-2.3-6.3-4.6-9.6-6.8
	c-2.1-1.4-4.2-2.9-6.5-4.1c-1.7-0.9-3.5-1.5-5.4-2c-1.7-0.5-3.4-0.9-5.1-1.2c-0.7-0.1-1.4-0.1-2.2-0.2c-0.7,2.2-0.7,4.2,1.1,5.8
	c1.6,1.5,3.2,3.1,4.9,4.5c3.5,2.9,7.1,5.7,10.6,8.6c1.2,1,2.6,1.9,3.9,2.9c2.8,2.2,5.8,4.2,8.5,6.6c2.6,2.3,5.7,4.1,8.3,6.4
	c4,3.4,8.3,6.5,12.5,9.7c1.8,1.4,3.6,2.9,5.6,4.1c1.1,0.6,1.9,1.7,2.9,2.5c3.3,2.7,6.6,5.3,9.8,8.1c2.9,2.4,5.6,5,8.4,7.5
	c1.5,1.3,3,2.6,4.5,3.9c1.2,1,2.3,1.9,3.5,2.9c1.9,1.7,3.8,3.4,5.7,5.1c2.2,1.9,4.1,4.2,6.1,6.5c1.3,1.5,2.7,2.9,4.2,4.3
	c0.8,0.8,1.7,1.5,2.5,2.3c3.8,4,8,7.6,12.1,11.3c5.2,4.6,10.5,9.1,15.7,13.7c3.6,3.2,7.2,6.4,10.8,9.5c1.7,1.5,3.6,2.9,5.4,4.4
	c4.9,4,9.7,8.1,14.6,12.1c0.6,0.5,1.3,0.9,2,1.3c0.5,0.4,1.2,0.7,1.5,1.2c0.8,1.2,2.1,2,3.1,3c0.8,0.8,1.5,1.6,2.4,2.4
	c2.7,2.3,5.5,4.6,8.2,7c1.4,1.2,2.8,2.4,4.2,3.5c3.7,3,7.5,6,11.2,9c3.5,2.8,6.9,5.7,10.3,8.6c0.7,0.6,1.3,1.2,2,1.7
	c4.5,3.5,8.8,7.4,13.2,11.1c1.5,1.3,3.1,2.5,4.7,3.7c2,1.7,4.1,3.4,6.1,5c2,1.6,3.9,3.3,5.9,4.9c0.3,0.3,0.6,0.5,0.9,0.8
	c2.8,2.5,5.5,5.1,8.3,7.6c3.7,3.2,7.4,6.4,11,9.6c3,2.6,6.1,5.1,9,7.9c2.8,2.7,5.5,5.6,7.4,9c2.5,4.5,4.8,9,6.2,14
	c0.3,1.2,0.4,2.5,0.5,3.8c0.1,1.3,0.2,2.6,0.2,4H792V0H0v302.4h23.3C22.3,301.2,21.4,300,20.5,298.7z"/>
<path class="st0" d="M674.3,280.5c-1.1-0.9-2.2-1.8-3.4-2.7c-2.9-2.4-5.9-4.7-8.7-7.2c-2.9-2.6-5.7-5.3-8.6-8
	c-3.4-3.1-6.8-6.3-10.3-9.3c-3.9-3.4-7.8-6.9-11.8-10.2c-3.8-3.2-7.5-6.4-11.5-9.4c-4.8-3.7-9.5-7.5-14.2-11.3
	c-2.1-1.7-4.2-3.4-6.3-5.2c-2.3-2-4.5-4-6.8-6c-1.4-1.2-2.9-2.3-4.3-3.4c-3.6-2.8-7.2-5.6-10.7-8.5c-3.3-2.7-6.5-5.7-9.9-8.4
	c-2.1-1.7-4-3.4-5.8-5.3c-0.2-0.2-0.3-0.3-0.5-0.5c-2.5-1.6-4.5-3.8-6.8-5.7c-1.8-1.5-3.7-3-5.5-4.6c-1.7-1.5-3.3-3-5-4.5
	c-1.6-1.4-3.1-2.7-4.7-4.1c-1-0.9-2.1-1.7-3.1-2.6c-3-2.6-6.1-5.2-9.1-7.8c-2.3-2.1-4.6-4.2-7.1-6.1c-1.9-1.4-3.8-2.9-5.7-4.3
	c-2.4-1.9-4.7-3.8-7.1-5.7c-4.8-3.8-9.6-7.6-14.4-11.5c-2.8-2.3-5.5-4.6-8.3-6.9s-5.6-4.6-8.5-6.7c-3-2.2-6.1-4.1-9.1-6.2
	c-0.8-0.5-1.6-1.1-2.4-1.6c-5.5-3.7-10.9-7.5-16.4-11.2c-2.7-1.8-5.6-3.3-8.5-4.9c-0.3-0.2-0.7-0.3-1.1-0.5
	c-3.5-2.2-7.4-3.4-11.3-4.4c-1.8-0.5-4.2,0.4-5.7,2c0.3,0.6,0.6,1.3,1,1.8c1.5,1.8,3,3.5,4.7,5.1c2.7,2.8,5.9,5.2,9,7.5
	c3.8,2.9,7.8,5.6,11.6,8.5c4,2.9,7.9,5.9,11.9,8.9c3.6,2.7,7.2,5.5,10.8,8.3c4.8,3.6,9.6,7.2,14.3,10.8c3.8,2.8,7.5,5.7,11.2,8.6
	c3.5,2.6,7,5.2,10.6,7.9c2.8,2.1,5.7,4.1,8.5,6.2c2.5,1.9,4.9,3.8,7.4,5.7c2.9,2.2,5.9,4.4,8.8,6.6c1.1,0.8,2.1,1.7,3.2,2.5
	c3.9,3,7.8,6.1,11.7,9.1c1.1,0.9,2.2,1.8,3.3,2.7c4,3.2,8.1,6.2,12,9.5c3.5,2.9,6.8,6,10.3,9c3.4,2.9,6.8,5.8,10.3,8.7
	c0.9,0.7,1.7,1.5,2.5,2.2c3.8,3.2,7.5,6.5,11.3,9.7c5.3,4.5,10.5,9.1,15.9,13.5c1.5,1.3,3.2,2.5,4.7,3.7c1.6,1.3,3.2,2.6,4.9,3.9
	c5.7,4.2,11.5,8.4,17.3,12.5c4.4,3.2,8.9,6.2,13.2,9.5c3.1,2.3,5.9,4.8,8.9,7.3c2.7,2.2,4.8,5,7.1,7.5c1.3,1.4,2.3,3,3.2,4.8
	c0.5,1,1.1,1.9,1.8,2.8c1.3,1.9,2.1,3.9,2.3,6.2c0.1,1.2,0.2,2.4,0.2,3.6H700c-4-3.5-7.9-7-12-10.3
	C683.3,288.4,678.8,284.5,674.3,280.5z"/>
<path class="st0" d="M752.9,301.2c-0.6-0.6-1.3-1.1-2.2-1.4c-0.3-0.1-0.7-0.4-0.8-0.7c-0.3-0.8-0.8-1.2-1.4-1.6
	c-2.3-1.3-4.2-3.1-6.4-4.6c-2.4-1.6-4.7-3.3-7-5c-0.9-0.7-1.8-1.4-2.6-2.1c-1.4-1.1-2.8-2.1-4.2-3.2c-1.4-1.1-2.6-2.3-3.8-3.6
	c-2.1-2.4-4.5-4.6-6.7-6.8c-5.1-5.2-10.3-10.3-15.4-15.4c-0.5-0.5-1.1-0.9-1.6-1.4c-0.5-0.4-1-0.8-1.4-1.3c-1.8-1.8-3.5-3.7-5.5-5.4
	c-1.2-1-2.2-2.3-3.4-3.4c-2.4-2.4-4.9-4.8-7.3-7.3c-2-2-4-4.1-6-6.2c-3.4-3.4-6.8-6.8-10.2-10.2c-0.7-0.7-1.5-1.2-2.2-1.8
	c-3.6-3.1-7.3-6.3-10.9-9.4c-3.2-2.7-6.3-5.4-9.5-8c-5.6-4.7-11.3-9.3-17-14c-3.4-2.9-6.8-5.8-10.2-8.7c-5.5-4.6-11-9-16.4-13.6
	c-2.7-2.3-5.1-4.8-7.7-7.2c-5-4.8-10-9.4-15.2-13.9s-10.4-9-15.6-13.4c-3.2-2.7-6.5-5.4-9.8-8.1c-4-3.4-8-6.9-12-10.3
	c-3.2-2.7-6.4-5.6-10-7.8c-0.6-0.4-1.1-0.9-1.7-1.3c-3-2.4-6-4.8-9-7.1c-1.5-1.1-3-2.1-4.5-3.2c-2.2-1.5-4-3.3-6.2-4.8
	c-3.7-2.5-7.3-5.2-10.7-8c-1.5-1.3-3.3-2.3-4.9-3.5c-3.1-2.3-6.1-4.6-9.2-6.9c-0.6-0.5-1.3-0.8-2-1.3c-5.5-3.9-11.5-7.3-16.8-11.6
	c-3-2.4-6-4.8-9-7.1c-1.8-1.4-3.8-2.7-5.7-4c-2.5-1.7-5.1-3.3-7.6-5c-2.3-1.5-4.7-3.1-7-4.6c-0.3-0.2-0.7-0.4-1-0.6
	c-2.1-0.9-4-2.1-5.8-3.3c-0.1,0-0.1-0.1-0.2-0.1c-3.5-1.4-6.7-3.4-10.5-4c-0.9-0.1-1.9-0.2-2.9-0.1c-0.3,0-0.8,0.3-0.9,0.6
	c-0.1,0.3,0,0.8,0.3,1.1c1.3,1.4,2.7,2.7,4.1,4c1.4,1.4,2.9,2.8,4.3,4.2c3.7,3.6,7.6,7.1,11.7,10.3c0.9,0.7,1.8,1.6,2.7,2.4
	c2.2,1.8,4.5,3.6,6.7,5.4c0.3,0.2,0.7,0.5,1,0.7s0.7,0.4,1,0.6c4.9,2.7,9.6,5.8,13.9,9.4c1.5,1.3,3,2.6,4.6,3.8
	c4.2,3.3,8.4,6.6,12.6,9.9c2.6,2,5.1,4.1,7.7,6.1c0.8,0.6,1.7,1.2,2.5,1.8c4,3.1,8,6,12.3,8.7c2.6,1.6,4.9,3.5,7.4,5.4
	c3.4,2.5,6.8,5.1,10.2,7.6c1.2,0.9,2.4,1.8,3.7,2.7c3.9,2.8,7.8,5.6,11.7,8.4c1.2,0.9,2.4,1.9,3.6,2.8c3,2.2,6.1,4.4,9.1,6.6
	c2.3,1.7,4.6,3.4,6.9,5.2c4.2,3.3,8.4,6.6,12.6,9.9c1.2,0.9,2.5,1.8,3.7,2.7c3.2,2.5,6.3,5.2,9.3,7.9c2,1.8,4.1,3.5,6.2,5.3
	c2.2,1.9,4.3,3.8,6.5,5.7c0.8,0.7,1.7,1.4,2.6,2.2c2.6,2.2,5,4.5,7.7,6.5c3.2,2.4,6.1,5.2,9.2,7.6c3.6,2.8,6.9,5.9,10.4,8.8
	c4.4,3.6,8.9,7.1,13.3,10.6c2,1.6,4.1,3.1,6.1,4.6c2.4,1.8,4.8,3.4,7.2,5.2c6.1,4.7,12,9.5,17.8,14.6c4.2,3.8,8.5,7.6,12.7,11.3
	c0.1,0.1,0.1,0.1,0.2,0.2c2.2,1.1,3.6,3.1,5.4,4.7c2.4,2,4.8,3.9,7.1,6c3.6,3.4,7.4,6.6,10.6,10.3c4.8,5.6,9.8,11,15.3,15.9
	c2.4,3.1,5.4,5.6,8,8.5c1.5,1.7,2.9,3.4,4.1,5.3c0.9,1.5,1.7,2.9,2.2,4.5c0.5,1.6,1.2,3.1,1.5,4.8c0.2,0.9,0.3,1.8,0.3,2.7h21.7
	c-0.2-0.1-0.4-0.3-0.6-0.4C753.7,301.7,753.3,301.5,752.9,301.2z"/>
<path class="st0" d="M556.1,293.5c-1.1-1-2.1-2-3.2-2.8c-1.9-1.5-3.7-3.1-5.3-4.8c-0.1-0.1-0.1-0.1-0.2-0.2
	c-2.8-2.6-5.6-5.2-8.5-7.8c-0.8-0.7-1.5-1.4-2.3-2.1c-3.7-3.5-7.5-6.9-11.2-10.4c-2-1.8-3.9-3.8-5.9-5.6c-1.9-1.7-3.9-3.3-5.8-4.9
	c-2.6-2.3-5.2-4.7-7.9-7c-1-0.8-1.9-1.7-2.9-2.5c-1.1-1-2.2-2.1-3.3-3.1c-3.7-3.3-7.7-6.3-11.6-9.3c-2.1-1.6-4.1-3.4-6.1-5.1
	c-3.4-2.9-6.7-5.9-10.2-8.8c-1.3-1.1-2.8-2.1-4.2-3.1c-2.7-2.1-5.5-4.2-8.2-6.2c-0.3-0.2-0.5-0.4-0.8-0.5c-3.2-1.9-6.1-4.1-9-6.3
	c-2.8-2.1-5.5-4.3-8.4-6.3c-2.7-1.9-5.5-3.5-8.3-5.2c-3.1-1.9-6.3-3.8-9.5-5.6c-2.1-1.2-4.3-2.2-6.4-3.3c-0.3-0.1-0.6-0.2-0.9-0.2
	c-1.3,0-2.6,0-3.8,0c-1,0-1.7,0.4-1.9,1.4c-0.2,0.7-0.5,1.3-0.8,2c-0.9,1.7-0.9,3.4-0.2,5.1c0.7,1.9,1.9,3.5,3.7,4.6
	c1.9,1.3,3.9,2.6,5.7,4c1.9,1.5,3.7,3.1,5.5,4.6c0.5,0.4,1,0.8,1.5,1.2c3.1,2.4,6.1,4.9,8.9,7.7c3.9,3.9,8.3,7.4,13,10.2
	c4.5,2.7,8.4,6,12.4,9.4c5.1,4.2,10.1,8.7,15.5,12.5c0.4,0.3,0.8,0.6,1.1,0.9c3.5,3.1,7.1,6.2,10.6,9.4c3.1,2.8,6.2,5.5,9.3,8.3
	c0.8,0.7,1.7,1.5,2.3,2.4c3.4,4.4,7.4,8.2,12,11.3c4,2.7,8,5.4,12,8c0.6,0.4,1.2,0.9,1.9,1c1.7,0.2,2.7,1.3,3.8,2.4
	c1.9,2,3.7,4,5.5,6c0.3,0.4,0.7,0.7,0.9,1.1c1.1,2.2,2.3,4.3,3.3,6.5H567c-3-2.4-6.1-4.9-9.1-7.3C557.3,294.6,556.7,294,556.1,293.5
	z"/>
<path class="st0" d="M466.7,278.4c-1.5-1.4-3.1-2.5-4.8-3.6c-1.4-1-2.9-1.9-4.4-2.9c-3.2-2.1-6.3-4.3-9.6-6.3
	c-2.8-1.7-5.8-3.1-8.7-4.6c-0.4-0.2-0.8-0.4-1.3-0.7c-3.5-2.1-7.4-3.3-11.3-4.6c-1.3,1.1-1.9,2.6-2.5,4.1c-0.8,2.1-1.3,4.3-1.9,6.4
	c-0.3,1.1,0,2.2,0.6,3.2c1.3,2.2,3,4.1,4.8,6c2.9,3.1,6.2,5.7,9.2,8.7c3.6,3.5,7.2,7.1,10.8,10.6c0.6,0.6,0.9,1.3,0.9,2.1
	c0,1.3,0.2,2.5,0.3,3.8c0,0.7-0.1,1.3-0.3,1.8H460h39.9c-8.4-4.3-16.2-9.3-23.6-15.3C472.9,284.4,469.8,281.4,466.7,278.4z"/>
<path class="st1" d="M504.7,294c-2-1.4-4.1-2.8-6.2-4.1c-3.8-2.2-7.4-4.8-10.7-7.7c-0.8-0.8-1.8-1.5-2.8-2.2
	c-5.3-3.6-10.7-7.2-15.8-11.2c-1.1-0.9-2.4-1.6-3.5-2.5c-2.3-1.9-4.4-3.7-6.6-5.6c-3.7-3.1-7.7-5.7-11.8-8.2c-1.8-1.1-3.6-2-5.5-2.9
	c-1.3-0.6-2.5-1-3.8-1.5c-1.9-0.7-3.7-1.5-5.6-2.1c-2.3-0.7-4.6-1.2-6.9-2c-2.3-0.8-4.6-0.8-6.9-0.7c-2.1,0.1-3.8,1-5,2.8
	c-1.4,2.2-2.9,4.4-3.9,6.8c-1.5,3.4-1.6,4-0.1,7.5c0.9,2.2,1.9,4.2,2.7,6.4c1.1,2.8,2.5,5.5,4.2,8c0.5,0.8,1,1.5,1.5,2.2
	c3,3.7,6.3,7,9.7,10.3c0.4,0.4,0.8,0.7,1.3,1c1.6,0.8,2.4,2.4,3.6,3.6c-2,2-2.4,2.5-5.8,1.5c-1.4-0.4-2.6-1-3.7-1.8
	c-1.1-0.8-2.2-1.6-3.4-2.2c-4.7-2.5-8.8-5.8-13-9c-1.7-1.3-3.4-2.6-5.2-3.9c-0.8,0.4-1.4,0.7-2,1.1c-1.9,1.3-3.8,2.6-5.7,3.9
	c-2.7,1.7-5.3,3.5-8.1,5.1c-2.2,1.3-4.6,2.3-6.8,3.6c-1.5,1-3.2,1.5-4.9,1.8c-2.5,0.5-3.4,0-4.8-2.4c0.4-0.4,0.9-0.8,1.2-1.2
	c0.7-1,1.6-1.7,2.6-2.4c1.4-1.1,2.8-2.3,4.1-3.6c2.3-2.3,4.5-4.8,6.8-7.1c2.4-2.3,4.9-4.4,7.3-6.6c0.3-0.3,0.6-0.5,0.9-0.8
	c1-1,2.1-2,3-3.1c1.4-1.6,2.6-3.3,3.8-5c2.8-4,5-8.2,5.7-13.1c0.2-1.3,0.5-2.6,1-3.9c0.7-1.9,1-4,1.4-6c0.1-0.8,0.1-1.4-0.2-2.1
	c-0.4-0.9-0.8-1.9-1.3-2.8c-1.3-2.5-3.4-4.3-5.2-6.3c-0.5-0.5-1-1-1.6-1.4c-0.9-0.7-1.8-1.1-2.9-0.7c-0.3,0.1-0.6,0.2-0.9,0.2
	c-3.4,0.2-6.5,1.4-9.5,3c-2.3,1.2-4.6,2.2-6.8,3.6c-3.8,2.4-7.7,4.9-11.1,7.9c-0.6,0.5-1.2,1.1-1.8,1.6c-3,2.6-5.9,5.4-8.4,8.5
	c-1.6,2-3.4,3.7-5.6,5.1c-2.9,1.8-5.6,3.8-8.1,6c-3.8,3.3-7.4,6.8-11.3,10c-5.5,4.5-11.2,8.8-16.9,13c-3,2.3-6.2,4.2-9.4,6.2
	c-1,0.6-2.2,1-3.3,1.3c-1.2,0.3-2.4,0.2-3.5-0.5c-0.7-0.4-1-1-0.8-1.8c0.5-1.6,1.3-3.1,2.5-4.3c1.4-1.4,2.9-2.5,4.4-3.7
	c2.9-2.4,5.9-4.7,8.7-7.2c3.2-2.8,6.3-5.7,9.7-8.2c4.8-3.5,9.6-7,14.4-10.4c4.6-3.2,9.4-6.1,13.7-9.7c2.9-2.4,5.8-4.8,8.7-7.2
	c1.6-1.3,3-2.7,4.4-4.1c1.6-1.6,3.1-3.2,4.6-4.9c0.4-0.5,0.8-1,1.2-1.5c1.1-1.5,2.2-3,3.3-4.4c1.9-2.4,3.9-4.9,5.8-7.3
	c1.3-1.7,2.6-3.2,3-5.4c0.2-0.8,0.5-1.6,0.9-2.2c0.8-1.2,0.9-2.4,0.9-3.7c0-0.8-0.1-1.7-0.1-2.6c0.1-4.6-1-9-3.4-13
	c-0.8-1.3-1.6-2.6-2.2-4c-0.8-2-2.1-3.3-4.3-3.6c-0.3-0.1-0.5-0.3-0.7-0.3c-0.5-0.1-1-0.3-1.4-0.2c-1.6,0.2-3.3,0.4-4.7,1.5
	c-1.9,1.4-3.8,2.7-5.7,4c-3.1,2.1-6.2,4.2-9.3,6.3c-6.5,4.5-12.6,9.5-19,14.2c-3.3,2.4-6.5,4.8-9.7,7.4c-2.9,2.4-5.9,4.6-8.8,7
	c-1.5,1.1-3,2.4-4.4,3.7c-2.4,2.4-4.7,4.9-7,7.3c-1.4,1.5-2.8,3.2-4.4,4.4c-1.7,1.3-3.3,2.7-5,4.1c-4.1,3.4-8.1,6.7-12.1,10.2
	c-4.6,3.9-9.1,8-13.6,12.1c-3.9,3.6-7.8,7.3-11.8,10.9c-3.1,2.9-6.3,5.8-9.4,8.6c-4.8,4.4-9.5,8.8-14.5,12.9
	c-1.8,1.5-3.7,2.8-5.8,3.8c-1.8,0.9-3.4,1.1-5.3,0.4c-0.7-0.8-1.4-1.7-2.1-2.5c0-0.4,0.2-0.7,0.1-1c-0.4-0.9-0.1-1.7,0.5-2.4
	c0.7-0.9,1.3-1.8,2-2.7c2-2.5,3.8-5.1,6.3-7.2c0.4-0.4,0.8-0.8,1.1-1.3c1-1.7,2.6-3,4.1-4.3c3.4-2.9,6.9-5.7,10.3-8.6
	c3.1-2.6,6.1-5.3,9.3-7.9c4.4-3.6,8.9-7,13.2-10.7c4.2-3.7,8.5-7.3,12.8-10.9c4.2-3.5,8.4-6.9,12.6-10.4c3.5-3,7.4-5.3,11.2-7.8
	c6.9-4.4,13.4-9.3,20-14.1c2.7-2,5.4-4,8.1-6c4.7-3.5,9.8-6.3,14.8-9.3c3.5-2,7-4,10.4-6c3-1.8,5.8-3.7,8.8-5.4
	c2.7-1.5,5.6-3,8.4-4.5c1.5-0.7,3-1.5,4.5-2.3c3.3-1.8,6.6-3.7,9.8-5.6c1.1-0.7,2.3-1.4,3.2-2.4c1.3-1.3,2.4-2.8,3.4-4.3
	c1-1.6,1.9-3.2,2.9-4.9c1.6-2.8,1.6-2.8,1.3-6.1c0-0.4,0-0.8-0.1-1.2c-0.5-2-0.6-4.1-1.5-6c-0.8-1.8-1.8-3.4-2.7-5.1
	c-0.3-0.5-0.7-1-1.1-1.3c-2.7-2-5.8-3-9-3.7c-0.2,0-0.3,0-0.5,0c-2.3-0.3-4.6,0-6.9,0.1c-5.2,0.3-10.1,1.4-14.9,3.3
	c-1.9,0.8-3.7,1.7-5.7,2.4c-1.5,0.5-3,1.1-4.4,1.9c-4.4,2.4-8.7,5.3-12.9,8.2c-6.5,4.4-13,8.7-19.3,13.4c-2.5,1.8-5,3.6-7.6,5.4
	c-3.4,2.4-6.9,4.6-10.3,7c-4.2,2.9-8.3,5.8-12.4,8.7c-2.3,1.6-4.7,3.2-7,5c-2.2,1.7-4.3,3.6-6.4,5.4c-4,3.3-8.1,6.7-12.1,10.1
	c-3.3,2.8-6.6,5.6-9.8,8.5c-3.6,3.2-7,6.5-10.5,9.8c-0.8,0.7-1.7,1.1-2.4,1.9c-3.4,3.7-7.2,6.8-10.8,10.2c-2.2,2.2-4.8,4-6.7,6.5
	c-0.5,0.7-1.1,1.4-1.8,1.9c-1.4,0.9-2.5,2.2-3.7,3.3c-2.9,2.7-5.8,5.3-8.7,7.9c-1.7,1.5-3.5,3-5.1,4.6c-1.7,1.8-3.7,3.3-5.6,4.9
	c-2.7,2.2-4.9,4.8-7.3,7.3c-2.8,2.9-5.7,5.6-9.1,7.8c-1.7,1.1-3.3,2.5-4.9,3.8c-2,1.7-4,3.4-6.1,5c-3.6,2.7-7.3,5.3-11,7.8
	c-1.7,1.2-3.6,2.1-5.6,2.6c-1.3,0.3-2.6,0.3-3.8-0.2c-1.1-0.4-2.2-0.8-3.3-1.3c-0.4-0.7,0-1.4-0.1-2.1c-0.2-1.9,0.9-3.2,2-4.4
	c1.8-1.9,3.6-3.7,5.4-5.5c3.7-3.8,7.3-7.8,11.2-11.5c7.4-7.1,14.9-14,22.4-21c4.1-3.8,8.2-7.4,12.3-11.1c4.9-4.5,9.7-9.2,14.7-13.7
	c4.6-4.2,9-8.6,14.1-12.3c5.3-3.8,10.4-7.7,15.6-11.6c2.2-1.7,4.5-3.4,6.7-5.1c2.6-2,5.2-4,7.8-6c3.7-2.8,7.4-5.5,11.1-8.3
	c5.3-4.1,10.6-8,15.5-12.5c1-1,2.1-1.9,3.3-2.7c3.5-2.6,7.1-5.2,10.7-7.7c2.7-1.9,5.3-3.8,8-5.7c0.5-0.4,1-0.7,1.3-1.1
	c1-1.2,2.2-1.9,3.4-2.7c0.6-0.5,1.3-0.9,1.9-1.4c3.2-2.6,6.4-5.2,9.9-7.5c4.4-2.9,8.7-6,13.1-8.9c2.6-1.7,5.2-3.4,7.8-5.1
	c1.3-0.8,2.6-1.5,3.9-2.3c3-2,5.9-4.1,8.9-6.1c3.5-2.3,7-4.5,10.5-6.7c2-1.3,3.9-2.6,5.5-4.3c4-4.4,8-8.9,11.2-14
	c0.1-0.2,0.4-0.5,0.6-0.7c2.1-2.1,3.2-4.8,4.3-7.4c1.3-3.1,1.1-6.1-1.5-8.6c-0.2-0.3-0.4-0.6-0.6-0.8c-1.6-2-3.6-3.4-5.8-4.6
	c-0.6-0.4-1.2-0.6-2-0.6c-3.9,0.2-7.6,1-11.3,2c-4.5,1.3-8.9,3.2-13.3,4.8c-3.4,1.2-6.5,3-9.6,4.8c-2.5,1.5-4.9,2.9-7.4,4.4
	c-3.1,1.9-6.2,3.6-9.3,5.5c-2.6,1.5-5.2,3.2-7.7,4.9c-3,2.1-5.9,4.3-8.8,6.6c-4.9,3.8-10.1,7.1-14.9,10.9
	c-6.8,5.3-14,10.1-20.7,15.6c-3.9,3.2-8,6.2-11.9,9.4c-4.8,3.9-9.4,7.9-14.1,11.9c-6,5.2-12.1,10.5-18.1,15.7
	c-3.8,3.3-7.6,6.6-11.4,9.9c-1.4,1.2-2.9,2.4-4.4,3.6c-1.2,1-2.4,2.1-3.6,3.1c-1,0.8-2,1.6-3,2.4c-1.8,1.4-3.5,2.9-5.2,4.3
	c-2.8,2.3-5.6,4.5-8.4,6.8c-4.2,3.4-8.4,6.9-12.6,10.3c-1.6,1.3-3.3,2.5-4.8,3.9c-2.8,2.6-5.6,5.3-8.4,7.9
	c-3.5,3.2-6.9,6.4-10.2,9.8c-2.3,2.3-4.6,4.5-6.8,6.8c-3,3-5.8,6.1-8.9,9c-3.5,3.3-7.1,6.4-10.6,9.7c-1.9,1.9-3.8,3.8-5.8,5.7
	c-3.1,3-6.3,5.9-9.4,8.9c-3.3,3.3-6.5,6.6-9.8,9.9c-0.6,0.6-1.1,1.2-1.7,1.7c-2.7,2.4-5.5,4.8-8.1,7.4c-2.2,2.2-5,2.6-7.8,3.1
	c-0.3,0.1-0.6-0.1-0.9-0.2c-0.6-0.2-1.1-0.5-1.6-0.7c-0.7-1.3-0.6-2.6-0.8-3.9c-0.3-2.4,0.2-4.6,1.5-6.6c0.6-0.8,1.4-1.4,1.8-2.2
	c1.3-2.6,3.2-4.6,4.9-6.8c0.8-1.1,1.8-2.2,2.8-3.2c3.3-3.3,6.7-6.6,10.1-9.9c2.5-2.5,5.1-5,7.8-7.4c1.6-1.5,3.3-2.8,4.9-4.2
	c2.6-2.2,5.1-4.6,7.6-6.9c4-3.6,8-7.1,12-10.7c3-2.7,6-5.2,8.9-8c4.2-4,8.6-7.7,13-11.4c2.9-2.4,5.8-4.8,8.6-7.3
	c3.7-3.4,7.4-6.7,11.2-10.1c0.8-0.6,1.6-1.2,2.3-1.8c7.3-6.1,14.6-12.2,21.9-18.3c3.1-2.6,6.2-5.1,9.4-7.5c3.6-2.8,7.3-5.5,10.9-8.3
	c4-3,7.9-6.1,11.9-9.2c3.3-2.5,6.5-5,9.7-7.5c4.2-3.3,8.2-6.7,12.4-9.9c3.4-2.6,6.8-5.1,10.2-7.6c5.2-3.9,10.5-7.7,15.8-11.6
	c3.1-2.2,6.1-4.5,9.1-6.7c2.9-2.1,5.8-4.2,8.7-6.3c3.1-2.3,6.1-4.7,9.2-7c2.9-2.2,5.9-4.3,8.9-6.5c5.2-3.9,10.4-7.8,15.3-12
	c1-0.9,2.1-1.8,3.2-2.5c2.6-1.6,5.3-3.2,8-4.8c5.2-3.1,10.2-6.3,14.7-10.3c1.3-1.1,2.7-2.2,4-3.4c2.8-2.7,5.7-5.4,8.5-8.1
	c2.6-2.6,5.4-5,7.2-8.3c1-1.8,1.9-3.5,2.3-5.5c0.2-0.9,0.4-1.9,0.6-2.8c0.8-3.3,0.2-6.4-1-9.4c-0.4-1-1.1-1.6-2-1.9
	c-0.6-0.3-1.3-0.4-2-0.7c-4.7-1.8-9.5-2.3-14.4-1.8c-3.4,0.3-6.7,1.4-9.9,2.6c-5.6,2.1-11,4.6-16.4,7.2c-8.7,4.3-17.4,8.8-25.9,13.5
	c-3.6,2-7,4.3-10.4,6.8c-1.4,1-2.8,1.9-4.2,2.8c-3.6,2.1-7.2,4.1-10.7,6.4c-5.2,3.5-10.5,7-15.2,11.2c-4.8,4.3-9.8,8.3-14.8,12.5
	c-0.9,0.8-2,1.5-2.9,2.2c-3.6,2.8-7.2,5.6-10.7,8.5c-5.1,4.2-10.2,8.4-15.3,12.7c-2.9,2.4-5.7,4.9-8.5,7.4c-3.4,3-6.8,6-10.2,9
	c-2.3,2.1-4.6,4.3-7,6.5c-3,2.7-6.1,5.4-9.1,8.1c-1.8,1.7-3.6,3.4-5.4,5.1c-3.9,3.7-7.9,7.4-11.8,11.2c-2.8,2.6-5.5,5.4-8.3,8
	c-4,3.9-8.1,7.7-12.3,11.4c-6.5,5.8-13,11.6-19.5,17.4c-3.6,3.2-7.3,6.4-10.9,9.7c-3.2,2.9-6.3,5.8-9.3,8.7c-1.6,1.6-3,3.3-4.6,4.9
	c-1.2,1.2-2.4,2.3-3.6,3.5c-1.1,1.2-2.2,2.4-3.3,3.5c-3.4,3.5-7,7-10.4,10.6c-4.1,4.2-8,8.5-12,12.8c-1.6,1.7-3.2,3.3-4.8,5
	c-2.6,2.6-5.1,5.3-7.8,7.8c-3.3,3.1-6.6,6.2-9.8,9.5c-2.1,2.2-4.4,4.3-6.6,6.3c-3.5,3.2-7.1,6.5-10.2,10.1c-1.3,1.5-2.9,2.7-4.6,3.8
	c-0.7,0.4-1.4,0.7-2.2,0.9c-2.8,0.6-4.3-1.2-4.3-3.5c0-0.7,0.2-1.5,0.5-2.1c0.5-1,1.1-1.9,1.8-2.8c0.7-0.9,1.6-1.7,2.5-2.5
	c3.4-3.2,7.1-6,10.2-9.5c0.3-0.3,0.6-0.5,0.9-0.8c0.8-0.8,1.6-1.5,2.4-2.3c1.5-1.5,2.8-3,4.3-4.5c2.1-2.1,4.3-4.2,6.4-6.4
	c1.3-1.3,2.5-2.7,3.8-4c1.5-1.6,3-3.1,4.5-4.7c2.8-2.9,5.6-5.8,8.3-8.7c3.7-4,7.3-8,11-12c0.9-0.9,1.8-1.8,2.7-2.7
	c1.9-2,3.8-4.1,5.7-6.1c2.7-2.8,5.5-5.6,8.2-8.4c2.3-2.4,4.5-4.8,6.7-7.2c3.3-3.5,6.6-7.1,10-10.6c3.8-3.9,7.5-7.7,11.3-11.5
	c2.3-2.4,4.6-4.6,6.9-7c3-3.2,6-6.4,9-9.6c1.2-1.3,2.4-2.5,3.6-3.8c3-3.2,6-6.4,8.9-9.7c5.2-6,10.7-11.6,16.3-17.2
	c4.6-4.6,9.4-9.1,14.1-13.7c2-2,4.1-4,6.2-6c1.3-1.3,2.6-2.6,3.9-3.9c2.7-2.7,5.5-5.3,8.2-8c2.3-2.4,4.5-4.8,6.8-7.1
	c4.6-4.5,9.2-9,13.9-13.5c6.9-6.5,14.1-12.6,21.6-18.3c3.5-2.6,6.9-5.4,10.4-8.1c1.9-1.5,3.8-3,6-4.3c6.4-3.7,12-8.5,16.4-14.5
	c0.7-1,1.4-2,1.8-3.1c1.5-3.9,0.8-7.6-2.1-10.1c-3.1-2.7-6.7-3.8-10.7-2.8c-2.6,0.6-5.2,1.4-7.7,2.5c-4,1.7-7.7,3.9-11.2,6.4
	c-2.1,1.5-4,3.2-6.1,4.7c-2.6,1.8-5.2,3.5-7.8,5.2c-9.1,5.9-17.5,12.7-25.2,20.3c-2.9,2.8-5.7,5.8-9.1,8.1c-0.4,0.3-0.7,0.6-1.1,0.9
	c-4,3.5-8.1,6.9-12,10.4c-5.8,5.2-11.9,10.2-17.5,15.7c-2.4,2.3-4.8,4.5-7,6.9c-6.2,6.7-12.4,13.4-19,19.6c-3.2,3-6.5,5.9-9.7,8.9
	c-1.2,1.1-2.3,2.1-3.5,3.2c-0.7,0.7-1.4,1.5-2.2,2.2c-4.9,4.4-9.7,8.8-14.5,13.3c-1,1-2,2.1-3,3.1c-1.2,1.1-2.5,2.2-3.7,3.4
	c-1.1,1-2.1,2-3.1,3c-4.2,4.1-8.4,8.2-12.7,12.3c-2.8,2.6-5.7,5.2-8.5,7.8c-1.7,1.5-3.4,3-5,4.5c-3.6,3.4-7.1,6.9-10.7,10.3
	c-4,3.8-8.1,7.5-11.9,11.5c-5,5.3-10.5,9.8-16,14.5c-1.6,1.3-3.1,2.8-4.6,4.2c-0.9,0.8-1.7,1.6-2.5,2.3c-1.5,1.3-3.1,1.1-4.7,0.4
	c-1.8-0.8-2.5-2.5-1.8-4.3c0.4-0.9,0.9-1.7,1.3-2.6c1.5-3,3-6,5.3-8.5c1.3-1.5,2.5-3.1,3.7-4.7c1.2-1.4,2.2-2.9,3.4-4.3
	c3.5-4.1,7-8.1,10.6-12.1c3-3.3,6.2-6.5,9.3-9.7c0.7-0.8,1.5-1.4,2.3-2.1c0.5-0.4,1.1-0.9,1.6-1.4c4.3-4.5,8.6-8.9,12.9-13.3
	c3.6-3.6,7.1-7.2,10.7-10.7c3.1-3,6.2-6,9.3-9c2.2-2.2,4.4-4.4,6.6-6.6c0.9-0.9,1.8-1.8,2.7-2.7c1.5-1.4,2.9-3,4.4-4.4
	c3.2-3.1,6.5-6.1,9.7-9.2c2.1-2,4.3-4.1,6.4-6.1c2.9-2.7,5.8-5.4,8.7-8.2c3.1-3,6.1-5.9,9.1-8.9c3.6-3.7,7.4-7.3,10.9-11.1
	c3.7-4,7.2-8.2,10.7-12.3c1.2-1.4,2.4-2.7,3.5-4c3.2-3.7,6.4-7.6,9.6-11.3c2.3-2.6,4.6-5.1,6.9-7.7c1.3-1.4,2.6-2.8,3.8-4.3
	c2.9-3.7,4.3-8,5-12.6c0.3-1.4,0.5-2.9,0.5-4.3c0.1-4.7-2.8-8.2-7.1-9.3c-1.8-0.5-3.7-0.6-5.5-0.5c-7.5,0.3-14.2,2.8-20.5,6.7
	c-2.5,1.6-4.8,3.3-6.7,5.5c-0.3,0.4-0.8,0.8-1.2,1.1c-3.6,2.8-7.1,5.5-10.6,8.3c-1.7,1.3-3.3,2.7-4.9,4.2c-3.1,2.9-6.2,5.8-9.2,8.8
	c-2.9,2.8-5.4,6.1-8,9.2c-1.2,1.5-2.6,3-3.8,4.6c-1.5,1.9-2.9,3.8-4.4,5.7c-1,1.3-2.1,2.5-3.1,3.9c-3.8,5.3-8.1,10.3-12.3,15.3
	c-3.4,4.1-7,8-10.5,11.9c-6.9,7.7-13.8,15.3-20.7,23c-1.3,1.4-2.6,3-3.9,4.5c-3,3.5-6.2,6.9-9.2,10.4c-1.7,2-3.3,4.1-5,6.1
	c-3,3.7-6.1,7.4-9,11.2c-3.3,4.4-6.8,8.7-10.2,13c-1.2,1.4-2.6,1.5-4.2,1.7c-0.9-2-1.2-3.9-0.3-5.9s1.6-4.1,2.4-6.2
	c1.3-3.3,3-6.3,5.3-9c1.3-1.6,2.7-3.2,4-4.8c2.9-3.5,5.7-7.1,8.6-10.6c0.4-0.6,0.9-1.1,1.4-1.6c1.1-1.3,2.2-2.5,3.3-3.8
	c1.7-1.9,3.4-3.8,5.1-5.7c3.1-3.3,6.2-6.7,9.3-10c2.3-2.6,4.6-5.2,7.1-7.5c2.1-2,4.1-4,6.1-6.1c1.7-1.8,3.1-3.7,4.8-5.4
	c3.8-3.8,7.4-7.8,10.9-11.8c4-4.5,8.1-9,12.1-13.6c2.9-3.4,6-6.6,8.6-10.3c0.6-0.9,1.3-1.6,2.1-2.3c3.8-3.5,6.5-7.8,8.1-12.8
	c0.9-2.8,1.4-5.6,0.7-8.5c-1.2-5.4-6-8.8-11.5-8.2c-2.5,0.3-4.8,1-7.1,2c-2.8,1.2-5.3,2.7-7.7,4.5c-1.2,0.9-2.4,1.9-3.7,2.7
	C100.6,33,95.7,37,91,41.2c-3.9,3.4-7.7,6.8-11.2,10.5s-7,7.4-10.3,11.3c-4.6,5.5-9,11.2-13.5,16.8c-1.2,1.6-2.4,3.2-3.6,4.8
	c-4.1,5.2-8.3,10.3-12.3,15.6c-1.2,1.6-2.4,3.1-3.4,4.9c-0.9,1.6-2.2,2.9-3.9,3.5c-1.1,0.4-2.1,0.2-2.9-0.5
	c-0.9-0.7-1.2-1.7-0.9-2.8c0.2-0.8,0.5-1.6,1-2.2c1.7-2.2,2.7-4.7,4-7.1c0.4-0.7,0.7-1.3,1.1-1.9c1.7-2.7,3.6-5.4,4.9-8.4
	c0.1-0.4,0.4-0.7,0.6-1c2.5-3.8,5.2-7.6,7.4-11.7c2.2-4,4.3-8,6.1-12.6c1.9-4.7,3.3-9.6,4.3-14.5c0.2-0.9,0.3-1.9,0.5-2.8
	c0.2-0.8,0.1-1.5-0.3-2.1c-0.8-1.3-1.6-2.6-2.4-3.9c-0.5-0.8-1.3-1.5-2.3-1.6c-2.2-0.3-4.4-0.7-6.7-0.5c-0.6,0.1-1.2,0.3-1.8,0.5
	c-3.6,1.5-6.6,3.8-9.3,6.6c-2.2,2.3-4.1,4.9-6.2,7.3c-2.7,3.1-5.5,6.3-8.2,9.4c-0.3,0.4-0.6,0.7-1,1c-0.7,0.6-2,0.5-2.7,0
	c-0.9-0.7-1.2-1.7-0.7-2.8c0.1-0.3,0.4-0.7,0.6-1c0.9-1.4,1.8-2.8,2.6-4.3c0.9-1.5,1.6-3.2,2.6-4.6c2.4-3.5,3.7-7.4,5.4-11.2
	c0.4-0.8,0.6-1.7-0.1-2.5c-1.1-0.4-2.1,0.3-3.1,0.2c-1.6-0.1-2.7,0.7-3.6,1.9c-3.7,4.8-7.8,9.3-11.2,14.4c-1,1.6-2,3.1-2.7,4.8
	c-1.6,4-1.9,8.1-1.2,12.3c0.3,2,1.1,3.6,2.7,4.9c0.7,0.5,1.2,1,1.8,1.6c1.2,1.2,2.8,1.5,4.2,1.1c2.1-0.6,4.2-1.4,5.7-3.3
	c1.9-2.4,3.9-4.6,5.6-7.2c1.8-2.6,3.8-5.1,5.7-7.7c2.4-3.3,4.9-6.6,7.5-9.9c1.7-2.2,4.1-2.9,6.6-3.6c0.2,0,0.3,0,0.5,0
	c1.3,0,2.3,0.9,2.4,2.2c0,0.6,0,1.3-0.2,1.9c-0.6,2.2-1.1,4.4-2,6.4c-3,6.8-6.1,13.5-11.1,19c-1,1.2-2,2.3-2.8,3.6
	c-1.5,2.3-2.9,4.8-4.3,7.2c-1.5,2.5-2.8,5-4.4,7.4c-2.9,4.5-5.3,9.2-7.6,13.9c-1.5,3.1-1.3,6.3-0.7,9.6c0.1,0.5,0.3,1,0.6,1.5
	c0.9,1.6,2,3.2,2.8,4.8c0.8,1.6,2.1,2.7,3.8,3.4c1.6,0.7,3.2,1,4.9,0.7c1.3-0.3,2.8-0.2,3.9-1c2.6-1.9,5.2-3.9,7.7-6
	c1.7-1.4,3.2-3.1,4.9-4.6c1.5-1.3,2.7-2.7,3.8-4.3c2.5-3.4,4.9-6.9,7.4-10.3c3.9-5.4,8-10.8,11.8-16.3c3.3-4.8,7-9.3,10.6-13.9
	c3.7-4.6,7.5-9.2,11.5-13.5c2.9-3.1,5.9-6.3,9-9.3c3.8-3.6,7.7-7.1,11.6-10.7c0.6-0.5,1.2-1,1.9-1.4c2.5-1.4,5.2-1.7,7.9-1.5
	c1.7,0.1,3.2,0.8,4.5,2c0.5,0.5,0.7,1.1,0.3,1.7c-0.6,1-1.2,1.9-1.9,2.8c-3.3,4-6.6,8-9.9,12c-1.4,1.7-2.9,3.3-4.3,4.9
	c-3.1,3.5-6.4,6.9-9.5,10.5c-4.5,5.2-9.1,10.3-13.8,15.3c-3.5,3.7-6.9,7.5-10.2,11.4c-3.3,3.8-6.4,7.7-10.1,11.2
	c-1.5,1.4-2.9,2.9-4.3,4.5c-4.5,5.1-8.9,10.3-13.3,15.5c-2,2.4-4.2,4.7-6,7.4c-0.9,1.3-1.9,2.5-2.9,3.8c-1.4,1.7-2.7,3.3-4.1,5
	c-1.4,1.8-2.8,3.5-4.2,5.3c-0.3,0.4-0.6,0.9-0.9,1.4c-2.3,4.4-4.6,8.8-6.9,13.2c-0.5,1-0.8,2.1-0.9,3.2c-0.2,2.2-0.4,4.5-0.6,6.7
	c-0.3,4.5-0.2,4.8,1.9,8.7c0.1,0.1,0.1,0.3,0.2,0.4c0.5,0.6,1,1.2,1.7,1.6c1,0.6,2.1,1,3.2,1.5c0.7,0.3,1.5,0.3,2.3,0.1
	c3.2-0.9,6.5-1.7,9.7-2.6c0.7-0.2,1.4-0.4,1.9-1c1.4-1.5,2.9-3,4.3-4.5c2.2-2.4,4.3-4.8,6.5-7.3c0.6-0.6,1.2-1.3,1.7-2
	c3.3-4.4,6.6-8.8,9.9-13.2c1.2-1.6,2.5-3.1,3.7-4.7c1.5-2,2.9-3.9,4.6-5.6c0.9-0.9,1.7-1.9,2.6-2.8c3.4-3.7,6.7-7.4,10.2-11.1
	c3.3-3.5,6.7-6.9,10-10.4c3.4-3.6,6.9-7.1,10.5-10.5c1.2-1.1,2.3-2.3,3.3-3.5c2.9-3.5,5.8-7,8.6-10.6c1.9-2.3,3.9-4.4,5.9-6.6
	c2.1-2.4,4.2-4.8,6.2-7.3c3-3.7,6-7.5,9-11.2c1.2-1.5,2.5-3.1,3.8-4.6c4.2-4.8,8.8-9.4,12.6-14.7c0.1-0.2,0.2-0.3,0.3-0.4
	c5.2-6.1,10.4-12.2,15.6-18.3c1.3-1.6,2.6-3,4.6-3.7c0.8-0.3,1.5-0.9,2.3-1.3c0.9-0.5,1.7-1,2.6-1.3c1.4-0.5,2.8-1.1,4.1-1.9
	c1.5-1,3.2-1.3,5-1.2c2.9,0.2,5.4,2.4,5.7,5.3c0.3,2.8-0.5,5.2-2.8,7c-0.3,0.3-0.8,0.6-1.1,0.9c-1.8,1.9-3.5,3.8-5.2,5.7
	c-3.5,3.8-6.9,7.7-10.5,11.5c-4.4,4.7-9,9.2-13.5,13.7c-5.3,5.1-10.5,10.3-15.8,15.4c-1,1-2,2.1-3,3.1c-5.1,4.9-10.1,9.7-15.2,14.6
	c-1.9,1.8-3.6,3.6-5.5,5.4c-3,2.8-6,5.6-9,8.3c-5.1,4.7-10.3,9.3-15.4,14c-2.6,2.4-5.3,4.6-7.8,7.1c-4.3,4.3-8.6,8.6-12.8,13
	c-3.2,3.2-6.3,6.6-9.4,9.9c-0.5,0.5-0.9,1-1.4,1.4c-2.3,2.3-4.6,4.6-7,6.9c-0.7,0.7-1.4,1.4-2.2,1.9c-2,1.3-3.7,2.8-4.9,4.9
	c-0.2,0.5-0.8,0.9-1.3,1.3c-0.3,0.9-1.1,0.7-1,3c-0.5,0.8-1.3,1.7-1.5,2.6c-0.3,0.9-0.7,1.6-1.3,2.2c-1.1,1.2-2.2,2.3-3.2,3.5
	c-1.8,2.3-3.5,4.6-5.2,6.9c-0.9,1.3-1.9,2.6-2.8,3.9c-1.5,2.1-3,4.4-4.5,6.5c-4.2,5.8-7.4,12.1-9.9,18.8c-1.1,2.9-2,5.9-2.3,9
	c-0.5,4.4-0.5,4.4,1.1,8.4c0,0,0.1,0.1,0.1,0.2c0.8,2.3,2.3,4,4.4,5.2c0.9,0.4,1.6,0.6,2.5,0.2c2.5-1.1,5.2-2.1,7.3-4
	c0.6-0.5,1.3-0.9,1.9-1.4c1.3-1,2.6-1.9,3.8-2.9c2.7-2.4,5.5-4.9,8.2-7.3c0.7-0.6,1.3-1.2,2-1.7c5.4-4.2,10.7-8.4,16.1-12.5
	c7.1-5.5,13.9-11.2,20.6-17.2c3.6-3.2,7.1-6.6,10.7-9.9c4.5-4.2,9-8.4,13.3-12.8c3.8-3.9,7.7-7.7,11.5-11.5c2.3-2.4,4.8-4.7,7.3-6.9
	c5.8-5.1,11.4-10.4,17-15.6c2.8-2.6,5.4-5.4,8.2-8.1c3.1-3,6.4-6,9.6-9c5.9-5.7,11.9-11.4,17.8-17.1c1.3-1.3,2.7-2.5,4-3.8
	c3.6-3.5,7.1-7,10.7-10.4c2.3-2.1,4.7-4.1,6.9-6.3c2.4-2.5,4.7-4.9,7.1-7.2c2.5-2.5,4.8-5.1,7.4-7.5c3.8-3.6,7.7-7.2,12-10.3
	c6.9-4.8,13-10.6,19-16.5c2.4-2.3,4.9-4.5,7.6-6.5c3.6-2.6,7.4-5.3,11-8c1.9-1.4,3.8-2.9,5.9-4.1c1.6-1,3.4-1.7,5.3-2.1
	c0.8-0.2,1.6-0.2,2.4-0.1c1.6,0.3,2.4,1.6,1.8,3.2c-0.3,0.9-0.8,1.7-1.5,2.4c-1,1.1-2.2,1.9-3.3,2.8c-0.6,0.5-1.3,0.9-1.9,1.4
	c-2.1,1.7-4.1,3.4-6.1,5.1c-2.7,2.1-5.4,4.3-8.1,6.4c-1.5,1.2-3.1,2.5-4.7,3.7c-1,0.8-2,1.6-3,2.4c-2.8,2.5-5.8,4.8-9,6.8
	c-0.6,0.3-1.2,0.7-1.8,1.2c-5,4-10,8-14.8,12.2c-4.8,4.2-9.5,8.5-14.3,12.8c-1.4,1.3-2.9,2.5-4.2,3.9c-3.6,3.6-7.1,7.4-10.8,10.9
	c-3.9,3.7-7.5,7.6-11.2,11.5c-2.7,2.9-5.6,5.7-8.3,8.6c-3.4,3.5-6.7,7.1-10,10.7c-3.1,3.4-6.3,6.7-9.5,10.1
	c-4.3,4.6-8.6,9.2-13,13.8c-2.6,2.6-5.2,5.2-7.7,7.9c-1.5,1.6-3,3.3-4.6,4.9c-2.8,2.8-5.6,5.4-8.4,8.2c-2.7,2.7-5.4,5.5-8.1,8.2
	c-1.3,1.3-2.6,2.6-3.9,3.9c-3.6,3.4-7.1,6.9-10.7,10.3c-1.2,1.1-2.4,2.4-3.6,3.5c-5.1,4.7-10.3,9.4-15.4,14.1
	c-4.7,4.4-9.5,8.7-14.3,13.1c-1.5,1.3-2.9,2.7-4.4,4.1c-0.6,0.5-1.2,1.1-1.8,1.6c-2.6,2.3-5.3,4.6-7.7,7.2c-2.2,2.2-4.4,4.4-6.7,6.5
	c-3.7,3.4-7.4,6.8-11.1,10.2c-3,2.8-6.1,5.4-8.9,8.4c-2.6,2.8-4.9,5.7-6.4,9.2c-0.5,1-0.9,1.9-1.4,2.8c-1.6,2.7-2.4,5.6-3.3,8.5
	c-0.6,1.9-0.9,3.8-0.8,5.7c0.1,1.4-0.1,2.7-0.1,4.1c0,1.4-0.1,2.7,0,4.1c0,0.6,0.2,1.3,0.5,1.8c0.9,1.3,1.8,2.5,2.8,3.7h6.2
	c1-0.4,2-0.8,2.9-1.4c1.6-1.1,3.2-2.2,4.9-3.1c2.2-1.2,4.1-2.7,6.1-4.2c4.2-3.1,8.2-6.6,12.3-9.9c6.2-5,12.3-10.1,18.5-15.2
	c0.2-0.2,0.5-0.5,0.7-0.7c2.1-2.3,4.2-4.6,6.3-6.9c3.6-3.9,7-7.9,10.6-11.8c4.9-5.3,9.9-10.6,14.9-15.9c3.4-3.7,6.9-7.3,10.2-11.1
	c3-3.4,6.1-6.7,9.2-10c1.2-1.4,2.6-2.7,3.9-3.9c5.3-4.9,10.6-9.7,15.9-14.6c2-1.8,3.8-3.7,6-5.2c0.8-0.5,1.4-1.2,2.1-1.9
	c1-1,1.9-2.1,3-3.1c2.3-2.1,4.7-4.1,7.1-6.1c3.6-3.1,7.2-6.2,10.7-9.3c2.6-2.3,5.3-4.7,7.9-7c4.6-4,9.2-7.9,13.7-12
	c4.3-3.9,8.3-7.9,12.4-12c3.9-3.9,8.2-7.4,12.3-11c2.9-2.6,5.8-5.1,8.7-7.6c1.6-1.4,3.2-2.9,4.8-4.3c5.3-4.5,10.5-9.1,15.8-13.6
	c5-4.2,9.5-9,15.2-12.4c0.2-0.2,0.4-0.4,0.6-0.5c2.5-1.9,5-4,7.5-5.9c4.9-3.8,9.9-7.5,14.9-11.3c5.3-4,10.6-8,15.9-12
	c1.9-1.4,3.9-2.8,6.1-3.8c3.3-1.6,6.5-3.4,9.5-5.6c3.6-2.5,7.1-5.1,10.7-7.7c1.2-0.9,2.5-1.7,3.8-2.5c1.5-0.9,3-1.9,4.5-2.8
	c2.5-1.5,5.1-3.1,7.6-4.6c2.7-1.6,5.5-3,8.1-4.7c5.5-3.4,11.4-5.4,17.8-6c2.4-0.3,4.7,0.1,6.9,1.3c1.7,0.9,2,2,1.4,3.8
	c-0.8,2.2-2.1,3.8-3.7,5.3c-5.1,4.7-10.3,9.3-16.1,13.2c-1.6,1.1-3.1,2.2-4.3,3.8c-0.5,0.6-1.1,1.2-1.7,1.7c-2.4,2.1-5,4-7.8,5.5
	c-7.5,4.1-14.7,8.7-21.2,14.3c-3.8,3.2-7.7,6.4-11.5,9.5c-3,2.4-6.1,4.9-9.2,7.2c-2.7,2-5.7,3.8-8.4,5.9c-4.9,3.7-9.6,7.7-14.4,11.5
	c-3.7,2.9-7.4,5.9-11.1,8.8c-4.8,3.8-9.7,7.6-14.6,11.3c-2.6,2-5.3,3.9-7.8,6c-3.5,2.8-6.8,5.8-10.3,8.6c-4.7,3.9-9.4,7.7-13.7,12
	c-1.1,1-2.1,1.9-3.2,2.9c-3.2,2.9-6.5,5.7-9.7,8.6c-4.6,4-9.1,8.1-13.6,12.1c-1,0.8-1.9,1.7-2.9,2.5c-3,2.7-6,5.4-9.1,8.1
	c-3.1,2.8-6.3,5.4-9.5,8.1c-1.9,1.6-3.6,3.2-5.5,4.7c-2.8,2.2-5.6,4.5-8.4,6.7c-2.8,2.1-5.7,4.2-8.4,6.4c-3.9,3.2-7.8,6.6-11.6,10
	c-6,5.4-11.9,10.9-17.9,16.3c-0.6,0.6-1.3,1.2-1.9,1.8c-2.7,2.4-5.5,4.8-8.1,7.4c-4.5,4.4-8.9,8.9-13.4,13.4
	c-5.2,5.2-10.2,10.5-14.8,16.3c-2.5,3.2-5.1,6.4-7.6,9.6c-1.3,1.6-2.5,3.3-3.2,5.3c-0.9,2.6-1.8,5.2-2.5,7.8
	c-0.4,1.3-0.5,2.6-0.2,3.9h2.2h15.7h12.3c3.2-3.2,6.4-6.5,9.6-9.7c0.6-0.6,1.1-1.1,1.7-1.7c3.5-3.4,7-6.7,10.4-10
	c1.9-1.8,3.8-3.7,5.7-5.5c3.3-3.2,6.7-6.3,9.9-9.5c3.9-3.8,7.7-7.7,11.5-11.6c1.9-2,3.8-4.1,5.9-6c2-1.8,3.8-3.8,5.8-5.7
	c3.4-3.2,6.8-6.2,10.1-9.3c3.8-3.7,7.9-7,12.1-10.2c0.6-0.4,1.2-0.8,1.7-1.3c7.4-6.4,14.7-12.8,22.1-19.2c1.4-1.3,2.9-2.5,4.4-3.7
	c3.7-2.9,7.4-5.8,10.9-9c0.6-0.6,1.2-1.2,1.9-1.8c3.9-3.3,7.7-6.7,11.6-10c1.5-1.4,3.1-2.7,4.7-4.1c2.4-2,4.8-4,7.1-6.1
	c3-2.7,6-5.4,9.1-8.1c3.9-3.4,7.9-6.6,11.8-10.1c5.7-5.2,11.8-9.9,17.8-14.6c4.8-3.8,9.7-7.5,14.6-11.2c4.7-3.6,9.4-7.2,14.1-10.8
	c3.5-2.7,7-5.4,10.8-7.6c6.1-3.5,12-7.2,18.1-10.8c4.5-2.7,9-5.4,13.9-7.5c2.6-1.1,5.1-2.3,7.7-3.4c2.3-1,4.8-1.8,7.3-2.3
	c2.1-0.4,4.1,0.1,5.9,1.2c1.2,0.7,1.5,1.9,0.7,3.1c-1.9,3-4,5.8-6.6,8.2c-5.1,4.8-10.7,8.8-16.6,12.6c-6.9,4.4-13.5,9.4-20,14.4
	c-4.3,3.4-8.5,6.8-12.8,10.1c-4.9,3.8-9.9,7.6-14.8,11.4c-3.9,3.1-7.9,6.1-11.8,9.1c-4.2,3.2-8.3,6.3-12.4,9.5
	c-3.7,2.9-7.2,5.9-10.9,8.7c-2.6,1.9-5,4-7.5,6c-4.3,3.5-8.6,7.1-13,10.6c-5.3,4.3-10.6,8.7-15.7,13.3c-3.2,2.9-6.4,5.8-9.6,8.7
	c-1.7,1.5-3.5,3-5.2,4.6c-3.3,3.1-6.7,6.2-10,9.3c-1.4,1.2-2.8,2.4-4.2,3.6c-3.5,3.2-7,6.4-10.5,9.5c-3.3,2.9-6.6,5.8-10,8.6
	c-3.9,3.3-7.8,6.5-11.6,9.7c-1.6,1.4-3.2,2.8-4.9,4.2c-3.1,2.6-6.2,5.3-9.4,7.8c-5.5,4.3-10.7,8.9-15.8,13.6
	c-2.9,2.6-5.2,5.7-7.7,8.6c-2.6,3-4.5,6.4-5.8,10.1c-0.5,1.4-0.9,2.8-1.1,4.3h21.8h14.4c0.5-0.5,0.9-1.1,1.3-1.7
	c0.5-0.7,0.9-1.2,1.6-1.7c4.2-3.2,8.3-6.3,12.4-9.5c0.5-0.4,1-0.8,1.5-1.2c3.3-2.8,6.5-5.5,9.7-8.3c4.4-3.8,8.9-7.6,13.3-11.4
	c1.2-1,2.3-2.1,3.5-3c3.8-3,7.6-6.1,11.4-9.1c2-1.6,3.9-3.3,5.9-4.9c1.8-1.4,3.6-2.7,5.3-4.1c6.6-5.6,13.2-11.2,19.8-16.7
	c6-5,11.9-10.1,18.2-14.8c3.2-2.4,6.5-4.9,9.7-7.4c0.7-0.6,1.5-1.1,2.3-1.7c3.8-2.8,7.6-5.8,11.5-8.6c4-2.9,8.1-5.9,12.2-8.8
	c2-1.5,4-3,6-4.4c5-3.5,9.9-6.9,14.8-10.3c5.2-3.6,10.4-7.2,15.6-10.8c3.1-2.2,6.2-4.3,9.3-6.4c1.2-0.8,2.4-1.7,3.6-2.4
	c6-3.7,12.3-7.1,18.8-10c1.6-0.8,3.2-1.3,5-0.8c1.2,0.3,2.5,0.1,3.6,0.9c0.3,1.4-0.4,2.4-0.9,3.5c-0.5,1.2-0.9,2.4-1.5,3.5
	c-0.6,1.1-1.9,1.6-2.8,2.5c-0.2,0.3-0.5,0.5-0.7,0.7c-3.4,3.2-7.1,5.9-11.2,8.1c-2,1-3.9,1.9-5.7,3.1c-3.8,2.5-7.5,5.1-11.3,7.7
	c-1,0.6-2,1.3-3,2c-2.9,2.2-5.8,4.4-8.8,6.6c-5.6,4.1-11.2,8.2-16.8,12.3c-5.1,3.8-10.3,7.6-15.4,11.4c-0.8,0.6-1.6,1.2-2.5,1.8
	c-3.3,2.3-6.7,4.5-10.1,6.8c-3.6,2.4-7.2,5-10.8,7.5c-5.4,3.9-10.8,7.7-16.2,11.5c-2.2,1.5-4.4,3.1-6.6,4.7
	c-2.6,1.9-5.3,3.8-7.9,5.8c-3.3,2.5-6.4,5.1-9.6,7.6c-3.6,2.9-7.3,5.7-10.8,8.8c-3.6,3.2-7.3,6.3-10.5,9.9c-0.7,0.8-1.6,1.5-2.4,2.3
	c-0.6,0.6-1.2,1.2-1.8,1.9c-2.1,2.4-4.1,4.9-6.4,7.1c-2.2,2.2-3.3,5.1-4.6,7.8c-0.9,2-1.4,4.2-2.1,6.3c-0.5,1.6-0.5,3.1,0,4.7
	c0.1,0.4,0.3,0.8,0.4,1.2H239c1-0.8,2.1-1.6,3.1-2.4c2.9-2.3,5.8-4.5,8.6-6.9c3.5-3,6.9-6.2,10.4-9.2c3.6-3.1,7.2-6.1,10.8-9.2
	c3.5-3,6.9-6,10.3-9c1.7-1.5,3.5-3.1,5.2-4.6c2.5-2.1,4.8-4.4,7.5-6.3c1.7-1.2,3.2-2.5,4.4-4.1c0.3-0.3,0.6-0.5,0.9-0.8
	c2.2-2.1,4.5-4.2,6.8-6.3c2.9-2.7,5.9-5.4,8.9-8c4.7-3.9,9.1-8,13.5-12.2c1.2-1.2,2.4-2.3,3.7-3.4c2.2-1.9,4.5-3.7,6.7-5.5
	c2-1.7,3.9-3.3,6-4.8c2.9-2,6-3.8,8.9-5.7c4-2.7,8.2-4.9,12.4-7.3c1.9-1,3.8-1,5.8-0.9c0.9,0,1.9,1,2,1.8c0.2,1.7,0.3,3.4,0.6,5
	c0.3,1.4-0.1,2.3-1.1,3.2c-0.7,0.6-1.3,1.4-2,2.1c-2.1,1.9-4.2,3.8-6.2,5.7c-4.1,3.8-8.2,7.6-12.3,11.4c-5.1,4.6-10,9.5-15.3,13.8
	c-2.9,2.3-5.7,4.8-8.6,7.2c-1.8,1.5-3.7,3-5.5,4.6c-4,3.6-7.9,7.2-11.8,10.9c-2.7,2.5-5.3,5.1-7.9,7.7c-1.7,1.7-3.2,3.5-4.9,5
	c-3.1,2.8-5.5,6.1-7.8,9.4c-1.2,1.7-2.2,3.6-2.9,5.5c-0.7,1.9-0.9,4-1.6,6c-0.8,2.1-0.5,4.1,0.1,6.1c0.1,0.4,0.4,0.8,0.6,1.2h10.9
	c2.9-1.3,6-2.6,8.8-4.2c4.7-2.6,9.2-5.7,13.7-8.8c2-1.3,3.9-2.7,6-3.9c2.9-1.6,5.6-3.5,8.2-5.5c6-4.7,12.1-9.4,18.5-13.7
	c1.8-1.3,3.4-2.6,4.8-4.3c0.8-1,1.8-1.8,2.7-2.7c1.6-1.6,3.2-3.2,4.8-4.7c1.1-1.1,2.2-2.1,3.4-3.1c3.3-2.6,6.6-5.3,9.9-7.9
	c1.2-0.9,2.5-1.7,3.7-2.6c1.9-1.3,4-2.4,5.9-4c2.8-2.3,6.9-1.1,8,2.4c1,2.8,0.8,5.7,0.1,8.5c-0.2,0.8-0.5,1.5-0.9,2.2
	c-1.4,2.2-2.7,4.5-4.6,6.4c-4.1,4.2-8.3,8.5-12.4,12.7c-0.3,0.2-0.5,0.4-0.8,0.6c-4.4,3.2-8.3,6.8-12,10.7c-1,1.1-2.1,2.2-3.3,3.1
	c-3.2,2.4-5.8,5.2-7.9,8.6c-0.7,1.2-1.3,2.4-1.7,3.7c-0.4,1.1-0.4,2.3,0,3.5c0.1,0.5,0.3,1,0.7,1.2c0.9,0.6,1.8,1.3,2.7,1.8h11.1
	h9.1c1.7-0.4,3.4-0.8,5.1-1.2c1.3-0.3,2.4-0.8,3.5-1.5c4.4-2.9,8.8-5.7,13.5-8.2c0.6-0.3,1.2-0.6,1.8-0.9c5.1,2.9,9.7,6.2,14.3,9.5
	c1.3,0.9,2.5,1.9,4.1,2.3h10.2h13.4h4.9c0.3-0.5,0.4-1.1,0.3-1.8c-0.1-1.3-0.3-2.5-0.3-3.8c0-0.8-0.3-1.5-0.9-2.1
	c-3.6-3.5-7.2-7.1-10.8-10.6c-3-3-6.3-5.6-9.2-8.7c-1.8-1.9-3.5-3.8-4.8-6c-0.6-1-0.9-2.1-0.6-3.2c0.6-2.1,1.1-4.3,1.9-6.4
	c0.6-1.5,1.2-3,2.5-4.1c3.9,1.3,7.8,2.5,11.3,4.6c0.5,0.3,0.9,0.5,1.3,0.7c2.9,1.5,5.9,2.9,8.7,4.6c3.3,2,6.4,4.2,9.6,6.3
	c1.5,1,3,1.9,4.4,2.9c1.7,1.1,3.3,2.2,4.8,3.6c3.1,3,6.2,6,9.6,8.7c7.4,6,15.3,11,23.6,15.3h18.5c-1.2-0.9-2.3-1.9-3.6-2.5
	C511.2,298.4,507.9,296.2,504.7,294z"/>
<path class="st1" d="M779.4,294.6c-1.4-5-3.7-9.5-6.2-14c-1.9-3.4-4.6-6.3-7.4-9c-2.9-2.8-6-5.3-9-7.9c-3.6-3.2-7.3-6.4-11-9.6
	c-2.8-2.5-5.5-5.1-8.3-7.6c-0.3-0.3-0.6-0.5-0.9-0.8c-2-1.6-3.9-3.3-5.9-4.9c-2-1.6-4.1-3.3-6.1-5c-1.6-1.2-3.2-2.4-4.7-3.7
	c-4.4-3.7-8.7-7.6-13.2-11.1c-0.7-0.5-1.3-1.1-2-1.7c-3.4-2.9-6.8-5.8-10.3-8.6c-3.7-3-7.5-6-11.2-9c-1.4-1.1-2.8-2.3-4.2-3.5
	c-2.7-2.4-5.5-4.7-8.2-7c-0.9-0.8-1.6-1.6-2.4-2.4c-1-1-2.3-1.8-3.1-3c-0.3-0.5-1-0.8-1.5-1.2c-0.7-0.4-1.4-0.8-2-1.3
	c-4.9-4-9.7-8.1-14.6-12.1c-1.8-1.5-3.7-2.9-5.4-4.4c-3.6-3.1-7.2-6.3-10.8-9.5c-5.2-4.6-10.5-9.1-15.7-13.7
	c-4.1-3.7-8.3-7.3-12.1-11.3c-0.8-0.8-1.7-1.5-2.5-2.3c-1.5-1.4-2.9-2.8-4.2-4.3c-2-2.3-3.9-4.6-6.1-6.5c-1.9-1.7-3.8-3.4-5.7-5.1
	c-1.2-1-2.3-1.9-3.5-2.9c-1.5-1.3-3-2.6-4.5-3.9c-2.8-2.5-5.5-5.1-8.4-7.5c-3.2-2.8-6.5-5.4-9.8-8.1c-1-0.8-1.8-1.9-2.9-2.5
	c-2-1.2-3.8-2.7-5.6-4.1c-4.2-3.2-8.5-6.3-12.5-9.7c-2.6-2.3-5.7-4.1-8.3-6.4c-2.7-2.4-5.7-4.4-8.5-6.6c-1.3-1-2.7-1.9-3.9-2.9
	c-3.5-2.9-7.1-5.7-10.6-8.6c-1.7-1.4-3.3-3-4.9-4.5c-1.8-1.6-1.8-3.6-1.1-5.8c0.8,0.1,1.5,0.1,2.2,0.2c1.7,0.3,3.4,0.7,5.1,1.2
	c1.9,0.5,3.7,1.1,5.4,2c2.3,1.2,4.4,2.7,6.5,4.1c3.3,2.2,6.4,4.5,9.6,6.8c5.2,3.7,10.3,7.6,15.2,11.7c1.2,1,2.6,1.8,3.8,2.8
	c4,3.4,8,6.8,12,10.3c1.6,1.4,3.1,2.8,4.6,4.2c0.6,0.5,1.2,1.1,1.8,1.6c2.1,1.7,4.2,3.4,6.3,5.1c2.7,2.2,5.4,4.5,8.1,6.7
	c2,1.6,4.1,3.3,6.1,5c1,0.9,2,1.8,3,2.7c0.7,0.6,1.3,1.1,2,1.7c2,1.7,4.3,3,6.1,5c1.7,1.8,3.3,3.7,4.9,5.6c1.6,1.9,3.1,3.8,4.7,5.7
	c2.2,2.6,4.7,4.8,7.7,6.4c0.7,0.3,1.3,0.7,1.8,1.2c2.2,1.8,4.2,3.6,6.4,5.4c4.2,3.5,8.6,6.9,12.9,10.3c1.5,1.2,3,2.4,4.5,3.6
	c3.2,2.6,6.1,5.4,9.4,7.8c5.7,4.2,11.1,8.7,16.8,12.8c5,3.6,9.6,7.6,14.4,11.5c5.2,4.2,10.3,8.6,15.5,12.8c1.6,1.3,3.4,2.5,5.1,3.9
	c5,4.1,10,8.2,15.4,11.8c3.4,2.3,6.7,4.7,10.1,6.9c3.8,2.5,7.6,4.9,11.5,7.3c3.6,2.3,7.2,4.5,10.8,6.7c3.1,1.8,6.2,3.6,9.3,5.5
	c4.1,2.5,8.4,4.8,12.9,6.8c2.2,1,4.6,1.4,6.9,1.9c0.8,0.1,1.5-0.1,2.2-0.7c1.1-1.1,2.1-2.3,2.6-3.7c1.1-2.8,1.2-5.7,0.6-8.7
	c-0.6-2.6-1.5-4.9-2.7-7.2s-2.6-4.6-4-6.8c-1.4-2.4-3.1-4.7-5-6.7c-2.4-2.6-4.9-5.1-7.3-7.6c-0.7-0.8-1.4-1.5-2.2-2.2
	c-3.3-3.2-6.7-6.4-10.1-9.5c-3.5-3.3-7.1-6.5-10.9-9.4c-2.2-1.6-4.1-3.6-6.5-4.9c-0.2-0.1-0.3-0.2-0.4-0.3c-3.2-2.4-6.3-4.8-9.6-7.1
	c-2-1.4-4.1-2.8-6.1-4.4c-4.3-3.5-8.5-7.2-13.2-10.3c-0.3-0.2-0.6-0.6-0.9-0.8c-3.8-2.8-7.5-5.8-11.3-8.5c-5.4-3.8-11-7.4-16.4-11.2
	c-4.8-3.4-9.6-6.8-14.3-10.2c-3.4-2.5-6.8-5.1-10.1-7.7c-2.4-1.9-4.8-3.9-7.1-6c-6.7-6.3-13.6-12.4-21.1-17.8
	c-0.7-0.5-1.4-1.1-2-1.7c-1.7-1.7-3.2-3.4-4.9-5c-3.4-3.4-7.1-6.5-10.9-9.4c-4.9-3.7-9.8-7.5-14.6-11.3c-2.5-2-4.9-4.2-7.4-6.1
	c-4.5-3.4-8.7-7.1-12.8-10.9c-1.4-1.3-2.6-2.8-3.9-4.2c-1.9-2-3.7-4-5.5-6c-0.5-0.6-0.9-1.3-1.3-1.8c0.2-0.7,0.3-1.2,0.5-1.6
	c1.1-2.2,2.6-4.2,5.1-5.1c0.5-0.2,1-0.3,1.4-0.2c3.4,0.8,6.9,1.1,10.2,2.4c1,0.4,2.1,0.5,3.2,0.8c0.5,0.2,0.9,0.3,1.3,0.6
	c2,1.4,4.1,2.8,6,4.4c4,3.3,8.1,6.5,12.3,9.5c0.8,0.6,1.6,1.2,2.4,1.9c3.1,2.7,6.2,5.3,9.5,7.7c1.8,1.3,3.7,2.6,5.6,4
	c3.5,2.6,6.9,5.2,10.2,8c4.4,3.7,9,7.2,13.4,10.8c2.3,1.8,4.4,3.8,6.5,5.7c7.3,6.6,14.5,13.3,21.8,19.9c0.8,0.7,1.6,1.4,2.2,2.2
	c0.7,1.1,1.7,1.9,2.7,2.7c1.6,1.3,3.2,2.5,4.6,3.9c1.6,1.7,3.5,3,5.5,4.1c3,1.7,5.8,3.7,8.6,5.6c2.1,1.4,3.9,3,6.1,4.2
	c0.7,0.4,1.4,1,2.1,1.5c1.1,0.8,2.1,1.6,3.1,2.3c3.8,2.7,7.5,5.4,11.3,8.1c1.1,0.9,2.2,1.7,3.4,2.6c3.3,2.5,6.7,4.8,9.8,7.6
	c2.7,2.4,5.4,5,8.1,7.4c5,4.4,10,8.8,15,13.1c2.2,1.9,4.6,3.5,6.8,5.3c1.1,1,2.3,1.5,3.7,1.4c0.6,0,1.3,0.1,1.9,0.2
	c2.5,0.3,4.9,0.5,7.4,0.8c0.7,0,1.4,0,2.1-0.4c1-0.6,1.9-1.1,2.9-1.7c0.8-0.5,1.3-1.1,1.6-2c0.3-1.4,0.7-2.7,1.2-4.1
	c0.3-0.8,0.4-1.6,0-2.5c-0.2-0.3-0.2-0.7-0.3-1.1c-0.6-2.5-1.2-5-1.7-7.5c-0.3-1.3-0.8-2.5-1.6-3.5c-2.2-2.9-4.4-5.9-6.6-8.8
	c-2-2.6-4.3-5-6.7-7.2c-3.1-2.9-6.3-5.8-9.4-8.8c-2.8-2.8-5.7-5.4-9-7.6c-0.8-0.5-1.5-1.3-2.3-2c-0.9-0.9-1.8-1.8-2.7-2.7
	c-1.4-1.3-2.7-2.5-4.1-3.7c-1.7-1.4-3.3-2.9-5.1-4.3c-2.8-2.2-5.7-4.3-8.6-6.5c-1.7-1.3-3.5-2.5-4.7-4.3c-0.3-0.4-0.9-0.7-1.3-1
	c-0.7-0.5-1.4-0.9-2.1-1.5c-1.2-1-2.3-2-3.4-3c-1.1-0.9-2.2-1.9-3.3-2.8c-3-2.3-6.1-4.5-9.1-6.7c-0.5-0.4-1-0.9-1.6-1.4
	c-1.1-1-2.2-1.9-3.3-2.8c-1.3-1.1-2.7-2-4-3.1c-0.8-0.6-1.5-1.5-2.3-2.1c-4-3-7.5-6.5-11-10c-4.5-4.5-9.1-8.9-13.7-13.4
	c-1-1-2.1-2-3.2-2.9c-2.3-1.8-4.7-3.5-7-5.4c-5.3-4.4-10.6-8.8-15.4-13.7c-1.4-1.5-1.3-2.4,0.4-3.4c0.2-0.1,0.4-0.3,0.6-0.3
	c2.7-0.6,5.4-1,8,0.4c1.7,0.9,3.4,1.8,5,2.8c1.1,0.6,2.1,1.5,3.1,2.2c1.4,1,2.9,1.9,4.3,3c3.4,2.7,6.8,5.5,10.2,8.3
	c2.5,2.1,4.9,4.3,7.3,6.5c1.9,1.6,3.7,3.3,5.5,5c2.6,2.6,5.3,5.3,7.9,8c2.4,2.5,4.8,4.9,7.2,7.4c2,2.2,3.9,4.4,5.9,6.6
	c0.3,0.3,0.6,0.7,0.9,0.8c1.3,0.3,2,1.3,2.9,2.1c2.2,2.1,4.4,4.2,6.7,6.2c4.3,3.8,8.2,7.8,11.9,12.2c6,7.2,12.4,13.9,19.4,20.2
	c3.7,3.2,7.3,6.4,11.3,9.3c1.8,1.3,3.7,2.4,5.8,3.3c1.7,0.7,3.2,0.8,4.7-0.5c0.5-0.4,1-0.7,1.6-1c0.8-0.5,1.5-1.2,1.9-2.1
	c0.9-2,1.9-3.9,2.9-5.8c0.2-0.5,0.3-1.1,0.4-1.6c0.2-2.3-0.2-4.5-0.4-6.7c-0.1-0.3-0.2-0.6-0.4-0.9c-0.6-1.1-1.2-2.2-1.9-3.3
	c-1.4-2.1-2.9-4.2-4.2-6.4c-1-1.7-2.1-3.2-3.4-4.6c-3.2-3.6-6.4-7.3-9.1-11.4c-3.1-4.8-6.9-9-11-12.9c-2.8-2.7-5.2-5.6-7.4-8.8
	c-4.4-6.3-9-12.5-13.4-18.8c-2.7-3.7-5-7.6-7-11.7c-0.2-0.3-0.3-0.6-0.4-0.9c0.3-0.6,0.5-1,0.8-1.6c1.3-0.2,2.7-0.4,4,0
	c1.7,0.5,3.5,1.2,4.8,2.5c0.8,0.8,1.7,1.6,2.6,2.4c2.8,2.7,5.5,5.6,8.4,8.2c2.8,2.5,5.2,5.2,7.7,7.9c2.1,2.3,4.2,4.5,6.5,6.4
	c1.8,1.5,3.6,3.1,5.5,4.6c2.3,1.9,4,4.3,6,6.5c0.6,0.7,1.1,1.4,1.7,2c0.9,0.9,2,1.6,2.8,2.6c1.8,2.1,4.3,2.7,6.8,3.2
	c1.8,0.3,3.5-0.1,4.6-1.8c0.4-0.6,0.8-1.2,1.3-1.7c0.6-0.6,0.7-1.2,0.7-2c-0.2-3.6-0.3-7.2-0.4-10.8c0-0.5-0.1-1.1-0.3-1.6
	c-0.9-2.1-2.1-4.1-3.7-5.8c-2-2-3.9-4.1-5.9-6c-2.8-2.6-5.3-5.3-7.7-8.2c-3.6-4.2-7.3-8.3-11.4-12c-3.5-3.1-7.1-6-10.6-9
	c-1.1-1-2.3-2-3.5-2.9c-0.4-0.4-0.9-0.7-1.4-0.9c-0.8-0.3-1.7,0.3-1.6,1.2c0,0.6,0.2,1.2,0.5,1.6c1.1,1.6,2.3,3.2,3.6,4.7
	c3.6,4.2,7.4,8.2,11.1,12.3c0.8,0.8,1.5,1.7,2.1,2.6c1.7,2.8,3.8,5.2,5.9,7.6c2.8,3.3,5.6,6.6,8.4,9.9c1.2,1.4,2.2,2.9,3,4.6
	c0.4,0.9,0.6,1.8,0.5,2.8c-0.1,1.5-1.2,2-2.5,1.2c-0.5-0.4-1.1-0.9-1.7-1.3c-3.2-1.9-5.9-4.4-8.4-7.1c-0.8-0.9-1.6-1.8-2.5-2.6
	c-3.9-3.6-7.7-7.5-11.1-11.6c-0.7-0.8-1.6-1.5-2.4-2.3c-2-1.9-4.1-3.7-6.1-5.5c-1.3-1.2-2.6-2.6-4-3.7c-2.7-2.1-5.6-3.8-8.6-5.3
	c-1.8-0.9-3.8-1.6-5.8-1.3c-1.4,0.1-2.8,0.7-4.2,1c-2.2,0.6-3.4,2-4,4.1c-0.3,1.3-0.6,2.6-0.9,3.9c-0.3,1.5-0.3,3-0.1,4.5
	c0.6,4.9,2.9,9.2,5.6,13.3c1,1.6,2.1,3.1,3.1,4.6c0.8,1.2,1.6,2.6,2.6,3.7c5,5.8,10.3,11.4,15.7,16.8c4.4,4.4,8.7,9.1,12.8,13.9
	c2,2.3,3.7,4.9,5.5,7.5c2.2,3.2,4.3,6.5,6.3,9.9c0.7,1.2,1.4,2.5,2.3,3.6c1.3,1.6,1.4,3.4,1.4,5.2c0,2.3-2.1,3.8-4.3,3.2
	c-0.6-0.2-1.2-0.5-1.7-0.8c-1.9-1.1-3.6-2.5-4.7-4.4c-1-1.7-2.2-3.2-3.6-4.5c-0.7-0.7-1.4-1.5-2.1-2.3c-4.3-4.8-8.6-9.4-13.5-13.6
	c-2.1-1.9-4.1-3.8-5.9-6c-1-1.2-1.9-2.4-2.9-3.5c-3.1-3.4-6.2-6.8-9.3-10.3c-2.3-2.7-4.6-5.5-7.2-8c-0.2-0.2-0.4-0.4-0.6-0.7
	c-1.5-2.1-3.3-4.1-5.4-5.7c-0.4-0.4-0.8-0.8-1.2-1.2c-2-2.2-3.9-4.4-6.1-6.4c-2.3-2.1-4.4-4.3-6.9-6.2c-2.5-1.8-4.8-3.9-7.2-5.9
	c-1-0.9-2.2-1.6-3.2-2.5c-3-2.5-6.3-4.6-9.6-6.7c-3-1.9-6.2-3.6-9.3-5.4c-4.2-2.5-8.6-4.5-13.2-6.2c-0.8-0.3-1.5-0.4-2.3-0.1
	c-1.6,0.6-3.2,1.1-4.9,0.9c-0.3,0-0.6,0-0.9,0.1c-2.8,1.2-5.3,2.8-6.9,5.6c-1.3,2.4-1.4,4.9-0.1,7.3c1.9,3.4,3.9,6.6,6.6,9.4
	c2.7,2.8,5.5,5.4,8.1,8.2c2.4,2.5,4.9,5,7.7,7.2c0.9,0.7,1.9,1.4,2.8,2.2c5,4.3,10.1,8.6,15.1,12.9c1.4,1.2,2.8,2.5,4.3,3.5
	c1.6,1.1,3.1,2.3,4.5,3.6c1.7,1.5,3.4,2.9,5.1,4.4c2.3,2,4.6,3.9,6.9,5.9c4.4,3.8,8.6,7.9,12.2,12.5c0.9,1.1,2,2.1,3.1,3
	c7.6,5.9,15,12,22.3,18.2c8.1,6.9,16.2,14,24.1,21.2c0.6,0.5,1.3,1,1.9,1.5c2.1,1.5,4.2,2.9,6.2,4.5c2.2,1.8,3.9,4,5.1,6.6
	c0.4,1,0.8,2.1,1,3.2c0.3,1.1,0,2.2-0.6,3.2c-0.5,0.8-1.1,1.3-2,1.1c-1.2-0.3-2.4-0.7-3.4-1.2c-1.3-0.7-2.5-1.8-3.5-2.9
	c-1.5-1.6-3.1-3-4.7-4.5c-2.8-2.6-5.4-5.6-8.6-7.9c-1.3-0.9-2.3-2.1-3.4-3.1c-1.5-1.5-3-3-4.7-4.4c-4.1-3.3-8.2-6.6-12.4-9.8
	c-5.4-4.2-10.6-8.5-16.1-12.5c-5.1-3.8-10.1-7.7-15.1-11.5c-0.8-0.7-1.6-1.4-2.4-2c-7.2-5.3-14.1-10.9-20.7-16.8
	c-0.4-0.3-0.7-0.7-1.1-0.9c-1.7-0.9-3-2.3-4.3-3.7c-4.5-4.6-9.5-8.8-14.5-12.9c-6.3-5.1-12.3-10.7-17.8-16.7
	c-3.5-3.8-7.3-7.2-11.6-10c-1.8-1.2-3.7-2.4-5.6-3.6c-1.2-0.8-2.5-1.5-3.8-2.1c-1.7-0.7-3.3-1.6-4.9-2.5c-4-2.3-7.8-4.7-12.1-6.4
	c-0.8-0.3-1.6-0.8-2.3-1.3c-6.8-4.9-14.4-5.9-22.4-5.1c-4,0.4-7.9,1.3-11.8,2c-1.6,0.2-3.1,0.7-4.6,1.3c-1.2,0.4-1.6,1.2-1.6,2.3
	c0,0.6,0.1,1.3,0.2,1.9c0.3,2.7,1.4,5.2,2.3,7.8c0.2,0.7,0.8,1.3,1.3,1.9c0.9,1.3,2,2.5,2.9,3.8c0.8,1.1,1.3,2.4,2.2,3.4
	s2,1.9,3,2.8c3.8,3.5,7.9,6.8,11.6,10.4c2.5,2.5,5,4.9,7.7,7.2c3.5,3,6.8,6.2,10.2,9.4c1.4,1.3,2.7,2.7,4.2,3.9
	c3.1,2.5,6.3,4.9,9.3,7.5c3.2,2.7,6.6,5.1,9.9,7.6c4.7,3.5,9.4,7.1,13.6,11.3s8.5,8.3,12.7,12.4c3.1,3.1,6.4,6.1,10.1,8.5
	c0.8,0.5,1.5,1.1,2.3,1.7c3.1,2.4,6.2,4.8,9.3,7.2c4,3.1,8.1,6.2,12.2,9.3c3.1,2.4,6.2,4.8,9.3,7.2c4.5,3.4,8.9,6.7,13.4,10.1
	c2.1,1.6,4.3,3.1,6.4,4.7c2.5,2,4.8,4,7.3,5.9c4.3,3.3,8.6,6.6,12.9,9.9c4.6,3.6,9.1,7.1,13.6,10.7c5,4.1,10,8.3,14.7,12.7
	c0.5,0.4,1,0.8,1.5,1.2c3,2.3,5.6,4.9,8.2,7.7c0.7,0.6,1.2,1.5,1.7,2.3c0.7,1.1,1,2.3,1.1,3.6c0.2,1.8-0.9,3.1-2.7,3.3
	c-0.5,0-0.9-0.1-1.4-0.2c-1.4-0.3-2.5-1.1-3.6-1.9c-1.6-1.3-3.2-2.7-4.8-4c-1.2-1-2.5-1.9-4-2.5c-2.6-1-5.1-2.2-7.6-3.5
	c-3.8-2-7.5-4-11.1-6.2c-3.5-2.1-6.9-4.3-10.3-6.6c-2.9-2-5.7-4.1-8.5-6.2c-2.8-2.1-5.6-4.2-7.7-7.1c-0.3-0.4-0.7-0.8-1.2-1.1
	c-2.3-1.2-4.3-3-6.2-4.8c-1.5-1.5-3.1-3-4.7-4.4c-2.5-2.1-5-4.2-7.5-6.3c-1.4-1.1-2.7-2.3-4.2-3.2c-0.2-0.1-0.4-0.2-0.6-0.4
	c-2.2-2-4.4-4-6.6-5.9c-2.8-2.5-5.6-5-8.5-7.4c-3.6-3-7.3-5.9-11-8.8c-2.1-1.7-4-3.6-6.2-5.2c-1.1-0.7-1.9-1.7-2.9-2.5
	c-2.4-1.9-4.8-3.8-7.1-5.7c-1.5-1.3-2.9-2.7-4.5-3.9c-2.2-1.6-4.1-3.6-6.1-5.4c-2.3-2.1-4.5-4.4-6.9-6.3c-3.9-3.2-7.3-6.7-10.4-10.6
	c-0.7-0.8-1.4-1.7-2.2-2.5c-3.1-3-6.3-6.1-9.5-9.1c-3.2-3-6.2-6-9.6-8.7c-1.3-1.1-2.5-2.3-3.8-3.3c-3.7-2.9-7.7-5.7-11.3-8.8
	c-2.8-2.4-5.8-4.6-8.8-6.6c-4.1-2.7-8-5.9-12.1-8.6c-5.6-3.7-10.9-7.7-16.4-11.6c-2.2-1.6-4.5-3-6.7-4.6c-2.3-1.6-4.6-3.2-7.1-4.5
	c-1.7-0.9-3.5-1.5-5.3-2.2c-4.4-1.7-8.9-3.5-13.8-3.6c-0.2,0-0.3,0-0.5,0c-1.7-0.4-3.3,0-4.9,0.5c-1.9,0.6-3.6,1.5-5.2,2.5
	c-1.6,1-1.9,1.4-1.4,3.1c0.4,1.4,0.9,2.8,1.4,4.1c0.2,0.6,0.6,1.1,0.8,1.7c1,3.1,3,5.3,5.2,7.4c2.7,2.5,5.6,4.6,8.5,6.7
	c3.6,2.6,7.1,5.5,10.6,8.2c1.4,1.1,2.8,2.1,4.2,3.2c3.1,2.6,6.1,5.3,9.3,7.9c6,4.8,12,9.8,17.8,14.9c1.8,1.6,3.6,3.3,5.4,4.8
	c3.1,2.6,6.3,5.1,9.4,7.8c5.2,4.5,10.5,8.8,15.8,13c1.6,1.2,3.1,2.6,4.4,4.1c4.5,4.9,9.1,9.7,14.2,14c5.3,4.5,10.8,8.8,16.1,13.3
	c2.1,1.8,4.3,3.7,6.2,5.7c4.8,5,9.9,9.6,15.1,14.1c2.3,1.9,4.6,3.7,7.2,5.2c0.6,0.3,1.1,0.7,1.6,1.1c3.6,3,7.2,6.1,10.8,9.1
	c2.9,2.5,5.6,5,8.6,7.3c5.3,4.1,10.1,8.7,15,13.1c4.8,4.2,9.5,8.6,14.2,12.9c3.5,3.3,7,6.5,10.5,9.8c3.1,3,6,6,9,9
	c6,5.9,12,11.8,18,17.6c3.5,3.4,7.1,6.7,10.7,10c1.2,1.1,2.3,2.3,3.5,3.3c2.2,1.9,4.5,3.7,6.7,5.5c2.3,1.9,4.7,3.8,6.6,6.2
	c1.8,2.3,3.5,4.6,5.1,7c0.5,0.6,0.7,1.6,0.9,2.4c0.1,0.7,0.3,1.5-0.2,2.1c-0.6,0.8-1.6,0.7-2.4,0.8c-0.4,0-1-0.3-1.5-0.6
	c-1.4-1-2.9-1.8-4.1-2.9c-3.5-3.1-7-6.4-10.4-9.6c-2.8-2.6-5.6-5.3-8.6-7.7c-2.4-1.9-4.7-4-6.8-6.1c-1-1-2-1.9-3.2-2.8
	c-1.9-1.5-3.8-3-5.5-4.6c-2.2-2-4.2-4.3-6.4-6.4c-2.2-2.2-4.5-4.3-6.7-6.5c-3.1-3.1-6.2-6.2-9.3-9.3c-0.9-0.9-1.8-2-2.8-2.9
	c-2.9-2.6-5.9-5.2-8.7-7.9c-4.1-3.9-8.2-7.9-12.2-11.9c-0.4-0.4-0.8-0.7-1.1-1.2c-0.8-1.5-2.2-2.4-3.4-3.4c-0.8-0.6-1.6-1.2-2.3-1.8
	c-5.1-4-10.1-8.1-15.1-12.2c-0.9-0.7-1.7-1.4-2.6-2.1c-3.1-2.7-6.2-5.3-9.3-7.9c-1.9-1.6-3.8-3-5.6-4.6c-4.8-4.1-9.6-8.2-14.3-12.4
	c-3-2.6-5.8-5.3-8.7-7.9c-3.5-3.2-7-6.4-10.6-9.6c-2.6-2.3-5.1-4.5-7.7-6.8c-1-1-2-1.9-3-2.8c-2.1-1.8-4.3-3.6-6.4-5.4
	c-3.2-2.7-6.2-5.5-9.4-8.2c-2.9-2.5-5.9-4.9-8.8-7.4c-4.4-3.8-8.8-7.4-13.5-10.8c-0.5-0.4-0.9-0.7-1.3-1.1c-1.6-1.6-3.4-2.9-5.2-4.2
	c-2.8-2-5.6-4.2-8.4-6.3c-4.3-3.1-8.4-6.4-12.5-9.7c-1.4-1.2-3-2.2-4-3.8c-0.3-0.5-0.9-0.8-1.5-1.1c-1.2-0.6-2.2-1.3-3.2-2.1
	c-1.3-1.2-2.6-2.4-4-3.4c-2.4-1.7-4.8-3.3-7.2-4.8c-2-1.3-4.2-2.6-6.3-3.8c-1.2-0.8-2.5-1.4-3.8-2.1c-1.6-0.9-3.2-1.8-4.8-2.7
	c-2.8-1.5-5.7-2.9-8.5-4.5c-2.5-1.5-5-2.8-7.6-4c-1.4-0.7-2.8-1.5-4.1-2.4c-5.6-4-11.3-8-17.3-11.6c-0.8-0.5-1.6-1-2.4-1.5
	c-3.9-2.5-7.8-5-11.7-7.5c-2.6-1.7-5.3-3.3-8-4.9c-2.2-1.3-4.4-2.8-6.7-3.8c-2.8-1.2-5.7-2.1-8.6-3.1c-2.6-0.9-5.1-0.4-7.6,0.8
	c-5.7,2.8-8.6,10.9-4.4,16.6c1.5,2.1,2.9,4.2,4.4,6.3c1.3,1.8,2.7,3.5,4.4,4.8c2.5,1.8,5.1,3.7,7.5,5.8c4,3.4,8.1,6.6,12.1,9.9
	c3.9,3.2,8,6.1,12.4,8.6c2.1,1.2,4.2,2.6,6.1,4.2c5.5,4.5,10.9,9.1,16.8,13.1c1.5,1.1,3,2.1,4.5,3.2c7.8,5.5,15.5,11,23.3,16.5
	c8.9,6.3,17.9,12.4,26.8,18.7c7.9,5.6,15.8,11.1,23.6,16.9c11.3,8.3,22.4,16.8,33.6,25.2c5.4,4.1,10.9,8.1,16.2,12.4
	c11.8,9.7,23.5,19.5,35.2,29.3c3.8,3.2,7.7,6.3,11.4,9.5c8.4,7.3,16.7,14.7,25.1,22c5,4.4,10.1,8.6,15,13.1
	c6.4,5.8,12.7,11.7,19,17.6c2.1,1.9,4.3,3.8,6.3,5.9c2,2.2,3.8,4.5,5.7,6.8c1.5,1.8,2.2,3.9,2.3,6.2c0.1,3.5-2.4,5.2-5.4,4.9
	c-1.7-0.2-3.4-0.8-4.8-1.9c-4.1-3.3-8.4-6.6-12.5-10c-2.9-2.4-5.8-4.9-8.6-7.3c-1.1-1-2.1-2-3.2-2.9c-2.1-1.8-4.3-3.6-6.4-5.4
	c-1-0.8-1.9-1.7-2.9-2.5c-3.7-2.9-7.3-5.9-10.9-9c-3.5-3-6.8-6.2-10.3-9.3c-0.8-0.8-1.7-1.4-2.5-2.2c-1.3-1.1-2.4-2.3-3.6-3.5
	c-2.4-2.4-4.7-4.8-7.2-7c-2.7-2.4-5.3-5-7.6-7.7c-4.3-5-8.9-9.4-14.4-13c-2.9-1.9-5.7-3.9-8.6-5.8c-1.3-0.8-2.4-1.9-3.4-3
	c-6.5-7.2-14-13.2-22.2-18.2c-2.4-1.4-4.5-3.1-6.6-4.8c-2.3-1.9-4.7-3.8-7.1-5.7c-0.7-0.5-1.3-1.1-2-1.7c-2.9-2.7-5.8-5.3-8.7-7.9
	c-1.9-1.7-3.9-3.3-5.8-5c-1.8-1.6-3.5-3.3-5.3-4.9c-2.2-1.9-4.4-3.6-6.6-5.5c-1.8-1.5-3.5-3.1-5.3-4.5c-3.3-2.5-6.2-5.4-9.5-7.7
	c-0.4-0.3-0.7-0.7-1.1-1c-1.1-1-2.3-2-3.5-2.9c-1.7-1.2-3.4-2.4-5-3.7c-2.3-1.7-4.5-3.6-6.8-5.3c-3.3-2.4-6.4-4.8-9.4-7.5
	c-0.5-0.5-0.9-0.9-1.5-1.2c-1.5-0.6-2.7-1.7-3.9-2.7c-1.4-1.1-2.6-2.3-4-3.4c-3.2-2.6-6.4-5.1-9.6-7.6c-0.6-0.5-1.2-1-1.8-1.5
	c-3.6-2.9-7.6-5.2-11.4-7.9c-2-1.4-4-2.9-6.1-4.2c-4.9-3.1-9.7-6.2-14.8-8.9c-5.6-3-11.6-4.9-17.8-6.3c-2.5-0.5-4.9-0.5-7.3,0.5
	c-3.4,1.3-5.7,3.7-7.1,7c-0.3,0.8-0.4,1.7-0.5,2.6c-0.2,2.3,0.5,4.4,1.6,6.4c1.1,2,2.4,3.8,3.6,5.7c1.8,3.1,3.9,5.9,6.4,8.4
	c3.3,3.4,6.8,6.7,10.9,9.3c13.3,8.6,26.6,17.2,39.9,25.8c5.5,3.5,11,7.1,16.4,10.8c5.7,3.8,11.3,7.7,16.7,12c2.7,2.1,5.4,4.2,8.4,6
	c3.2,2,6.3,4.3,9.4,6.6c3.5,2.7,6.9,5.5,10.3,8.3c3.8,3.2,7.7,6.4,11.2,10.1c1.6,1.7,3.4,3.3,5.3,4.8c5.4,4.1,10.9,8.1,16.3,12.2
	c5.2,4,10.7,7.6,15.5,12.1c1.4,1.3,2.8,2.6,4.2,3.9c2.9,2.8,5.9,5.6,8.8,8.5c2.1,2,4.2,3.9,6.6,5.5c3.4,2.2,6.9,4.3,10.3,6.5
	c0.6,0.3,1.1,0.7,1.6,1.1c2.3,2.1,4.6,4.2,6.8,6.4c2.4,2.4,4.8,4.8,7.9,6.5c2,1,3.8,2.4,5.3,4.1c3.3,3.7,6.9,7,11,9.9
	c0.1,0,0.1,0.1,0.2,0.1c3.8,2.8,7.6,5.8,11.5,8.6c1.1,0.7,2,1.7,2.7,2.7c1.5,2.2,0.8,4.7-1.6,5.8c-0.7,0.4-1.5,0.6-2.3,0.6
	c-1,0.1-2.1,0-3.1-0.2c-2.7-0.5-5-1.6-7.3-3c-2.6-1.7-5.3-3.2-8-4.8c-1.3-0.8-2.6-1.5-3.9-2.3c-1.3-0.9-2.6-1.9-3.9-2.8
	c-1.7-1.3-3.5-2.4-5-3.8c-4.5-4-8.9-8.1-13.3-12.1c-0.7-0.5-1.3-1.2-1.9-1.8c-3.6-3.3-7.2-6.6-10.7-10c-2.4-2.3-4.5-4.7-7.1-6.8
	c-0.6-0.6-1.2-1.3-1.8-1.9c-0.6-0.6-1.1-1.2-1.7-1.7c-1.1-1-2.1-2.1-3.1-3.3c-1.5-1.8-3.2-3.5-4.9-5.2c-3-3-6-5.9-9-8.9
	c-1.9-1.9-3.9-3.8-5.8-5.7c-0.4-0.4-0.8-0.8-1.2-1.2c-3.3-3.3-6.6-6.7-9.9-10.1c-0.6-0.6-1.4-1.1-2-1.7c-0.9-0.9-1.9-1.9-2.9-2.8
	c-1.6-1.4-3.1-2.8-4.6-4.2c-3-2.7-5.9-5.4-8.9-8.1c-3.4-3-6.7-6-10.1-8.9c-1.9-1.6-3.9-3-5.9-4.5c-1.1-0.9-2.2-1.8-3.4-2.6
	c-1.4-1.1-2.9-2.1-4.3-3.1c-3.1-2.3-6.3-4.7-9.4-7c-0.8-0.6-1.8-1.1-2.6-1.7c-7.2-5.2-14.5-10.5-21.7-15.8c-3.3-2.4-6.6-4.8-10-7.1
	c-3.4-2.3-6.8-4.4-10.3-6.6c-1.7-1.1-3.3-2.3-5.1-3.1c-2.6-1.3-5.3-2.5-8.2-3.3c-5.7-1.6-11.5-2.4-17.5-2c-2.5,0.1-4.8,1-7,2.2
	c-1.2,0.7-2.2,1.6-3,2.7c-2.7,3.6-4.2,7.5-4.7,11.9c0,0.9-0.1,1.8,0.2,2.6c1,3.2,2.5,6.2,4.7,8.8c0.8,1,1.8,1.9,2.4,3
	c1,1.6,2.4,2.7,3.9,3.8c1.5,1,3,2.1,4.5,3.1c1,0.7,2.1,1.5,3.2,2.1c3.2,1.8,6.5,3.4,9.6,5.3c3.1,1.9,6.1,3.9,9.1,5.9
	c4.6,3,9.1,5.9,13.7,8.9c1.3,0.8,2.7,1.7,4,2.6c3,2.1,6,4.1,8.9,6.4c4.4,3.6,8.6,7.4,13,11c4.1,3.3,8.1,6.5,12.3,9.6
	c4.6,3.4,9.1,7,13.5,10.7c1.1,0.9,2.3,1.7,3.4,2.7c2.9,2.6,5.7,5.2,8.5,7.8c1.5,1.4,3.2,2.7,4.6,4.2c3.2,3.3,6.7,6.1,10.2,9.1
	c4,3.4,8,6.8,12,10.3c3.8,3.4,7.6,6.9,11.4,10.3c2,1.8,4,3.7,6.3,5.1c1.7,1,2.9,2.5,4.2,3.9c1.3,1.5,2.7,3,4.1,4.4
	c1.8,1.8,3.2,3.8,4.5,5.9c0.7,1.2,0.9,2.5,0.9,3.7c0,2.2-1.4,3.5-3.6,3.6c-0.7,0-1.5-0.1-2.1-0.4c-1.3-0.6-2.6-1.3-3.8-2.1
	c-2-1.4-4-2.9-5.9-4.5c-4.9-4-9.2-8.6-13.9-12.8c-1-0.8-2-1.6-2.9-2.5c-4.1-4-8.3-8-12.4-12c-3.2-3-6.3-6.1-9.5-9.1
	c-3.9-3.5-7.7-6.9-11.6-10.4c-0.6-0.5-1.2-1.1-1.8-1.6c-3.4-2.9-6.9-5.9-10.3-8.9c-5.7-5.2-11.5-10.4-17.8-14.9
	c-3.2-2.4-6.5-4.7-9.7-7c-3.3-2.4-6.6-4.7-9.9-7.1c-3.8-2.8-7.7-5.5-11.5-8.2c-2.4-1.8-4.8-3.6-7.3-5.4c-3.5-2.5-7.1-5.1-10.7-7.6
	c-3.9-2.7-7.7-5.5-11.6-8.1c-3.4-2.3-6.9-4.4-10.3-6.6c-0.4-0.3-0.7-0.5-1.1-0.5c-1.7-0.2-3.3-0.4-5-0.5c-1.8-0.1-3.5,0.2-5.1,1.1
	c-1.3,0.7-2.6,1.6-3.8,2.5c-0.3,0.2-0.5,0.5-0.7,0.9c-0.6,1.3-1.3,2.6-1.8,3.9c-0.6,1.5-0.9,3.1-1.4,4.6c-0.7,2.4-0.9,4.9-0.7,7.3
	c0.4,4.3,1.9,8.2,5.4,11.1c0.9,0.7,1.7,1.4,2.6,2.1c2.1,1.5,4.2,2.9,6.3,4.4c4.7,3.4,9,7.2,12.4,11.9c0.4,0.5,0.9,0.9,1.4,1.3
	c1.3,1.1,2.8,2.2,4,3.4c3,3,5.7,6.3,8.1,9.8c0.8,1.1,1.6,2.2,2.7,3c4.1,3.2,8.1,6.5,12.4,9.4c4,2.6,7.8,5.3,11.7,8
	c0.3,0.2,0.5,0.3,0.8,0.5c3.6,2.4,7.3,4.7,10.7,7.3c4.9,3.7,9.8,7.4,15,10.8c4.9,3.3,9.6,6.9,13.7,11.2c0.6,0.6,1.3,1,1.9,1.5
	c5.8,4.2,11.5,8.3,17.1,12.8c1.1,0.9,2.1,1.9,2.9,3.1c0.3,0.5,0.5,1,0.6,1.6h9c-1.1-2.2-2.2-4.3-3.3-6.5c-0.2-0.4-0.6-0.7-0.9-1.1
	c-1.8-2-3.6-4-5.5-6c-1.1-1.1-2.1-2.2-3.8-2.4c-0.7-0.1-1.3-0.6-1.9-1c-4-2.6-8-5.3-12-8c-4.6-3.1-8.6-6.9-12-11.3
	c-0.6-0.9-1.5-1.7-2.3-2.4c-3.1-2.8-6.2-5.5-9.3-8.3c-3.5-3.2-7.1-6.3-10.6-9.4c-0.3-0.3-0.7-0.6-1.1-0.9
	c-5.4-3.8-10.4-8.3-15.5-12.5c-4-3.4-7.9-6.7-12.4-9.4c-4.7-2.8-9.1-6.3-13-10.2c-2.8-2.8-5.8-5.3-8.9-7.7c-0.5-0.4-1-0.8-1.5-1.2
	c-1.8-1.5-3.6-3.1-5.5-4.6c-1.8-1.4-3.8-2.7-5.7-4c-1.8-1.1-3-2.7-3.7-4.6c-0.7-1.7-0.7-3.4,0.2-5.1c0.3-0.7,0.6-1.3,0.8-2
	c0.2-1,0.9-1.4,1.9-1.4c1.2,0,2.5,0,3.8,0c0.3,0,0.6,0.1,0.9,0.2c2.1,1.1,4.3,2.1,6.4,3.3c3.2,1.8,6.4,3.7,9.5,5.6
	c2.8,1.7,5.6,3.3,8.3,5.2c2.9,2,5.6,4.2,8.4,6.3c2.9,2.2,5.8,4.4,9,6.3c0.3,0.1,0.5,0.3,0.8,0.5c2.7,2,5.5,4.1,8.2,6.2
	c1.4,1,2.9,2,4.2,3.1c3.5,2.9,6.8,5.9,10.2,8.8c2,1.7,4,3.5,6.1,5.1c3.9,3,7.9,6,11.6,9.3c1.1,1,2.2,2.1,3.3,3.1
	c1,0.8,1.9,1.7,2.9,2.5c2.7,2.3,5.3,4.7,7.9,7c1.9,1.6,3.9,3.2,5.8,4.9c2,1.8,3.9,3.8,5.9,5.6c3.7,3.5,7.5,6.9,11.2,10.4
	c0.8,0.7,1.5,1.4,2.3,2.1c2.9,2.6,5.7,5.2,8.5,7.8c0.1,0.1,0.1,0.1,0.2,0.2c1.6,1.7,3.4,3.3,5.3,4.8c1.1,0.8,2.1,1.8,3.2,2.8
	c0.6,0.5,1.2,1.1,1.8,1.6c3,2.4,6.1,4.9,9.1,7.3h4.5h22h5.8c0.4-1.5,0.4-3,0.1-4.6c-0.6-2.3-1.2-4.6-1.9-6.9c-0.6-2.1-1.7-4-3-5.7
	c-2.3-2.9-4.7-5.7-7-8.5c-3.3-4-6.9-7.8-10.6-11.4c-1-1-2-1.9-3-2.8c-3.9-3.3-7.7-6.7-11.6-10c-0.7-0.7-1.5-1.5-2.3-2.1
	c-2.7-2.2-5.5-4.3-8.3-6.5c-2.7-2.1-5.4-4.3-8.1-6.4c-1.1-0.9-2.3-1.7-3.4-2.6c-1.1-0.9-2.3-1.7-3.4-2.6c-1.2-0.9-2.3-1.7-3.5-2.6
	c-1.2-0.9-2.3-1.7-3.5-2.6c-1.2-0.8-2.2-1.8-3.5-2.5c-1.3-0.7-2.3-1.7-3.4-2.6c-3.8-2.9-7.6-5.8-11.4-8.7c-3.1-2.3-6.3-4.6-9.3-7.1
	c-7-5.7-13.9-11.6-20.8-17.4c-1.7-1.5-3.5-3-5.3-4.5c-3.4-2.7-6.8-5.5-10.2-8.3c-8-6.7-16.3-13-25.1-18.5c-3.2-2-5.9-4.6-8.8-7
	c-1.1-0.9-2-2-3-3.1c-0.3-0.4-0.7-0.9-0.9-1.4c-0.6-1.5-1.2-3.1-1.7-4.7c-0.4-1.2,0-2,1.2-2.5c1.9-0.8,3.9-0.8,5.9-0.3
	c2.5,0.6,4.7,1.9,6.7,3.5c0.8,0.6,1.5,1.2,2.3,1.7c2.5,1.6,5.2,3.1,7.7,4.8c2.4,1.6,4.9,3.1,7.1,4.9c2.8,2.2,5.7,4.4,8.6,6.5
	c1.9,1.4,3.9,2.8,5.8,4.2c2,1.5,4.1,3.1,6.1,4.6c2.1,1.6,4.2,3,6.2,4.6c3,2.3,5.8,4.7,8.9,6.9c4.6,3.2,8.7,6.8,13.2,10
	c1.3,0.9,2.4,2,3.7,3c0.9,0.7,1.9,1.4,2.8,2.2c1.3,1.1,2.5,2.3,3.9,3.2c2.3,1.6,4.4,3.5,6.6,5.2c3.4,2.6,6.8,5.3,10.2,8
	c1.5,1.2,2.9,2.5,4.4,3.7c0.8,0.7,1.7,1.2,2.5,1.9c2.3,2,4.5,4.1,6.8,6.1c3.5,3.1,7,6.3,10.5,9.4c3.8,3.3,7.7,6.7,11.5,10.1
	c4.1,3.6,8.2,7.3,12.4,10.9c2.8,2.5,5.6,4.8,8.4,7.2c2.2,1.8,4.4,3.6,6.5,5.4c0.3,0.2,0.6,0.5,0.9,0.8c1.6,1.4,3.1,3,4.7,4.4
	c3,2.7,6.1,5.3,9.1,7.9c3,2.6,6,5.3,9,7.9c1,0.9,2.2,1.7,3.3,2.4c2,1.3,3.9,2.5,5.9,3.7c3.8,2.3,7.6,4.6,11.5,6.9
	c1.1,0.6,2.3,1.2,3.5,1.6c0.3,0.1,0.6,0.2,0.8,0.3h30.7c-0.1-1.2-0.2-2.4-0.2-3.6c-0.2-2.3-1-4.3-2.3-6.2c-0.7-0.9-1.3-1.8-1.8-2.8
	c-0.9-1.8-1.9-3.4-3.2-4.8c-2.3-2.5-4.4-5.3-7.1-7.5c-3-2.5-5.8-5-8.9-7.3c-4.3-3.3-8.8-6.3-13.2-9.5c-5.8-4.1-11.6-8.3-17.3-12.5
	c-1.7-1.3-3.3-2.6-4.9-3.9c-1.5-1.2-3.2-2.4-4.7-3.7c-5.4-4.4-10.6-9-15.9-13.5c-3.8-3.2-7.5-6.5-11.3-9.7c-0.8-0.7-1.6-1.5-2.5-2.2
	c-3.5-2.9-6.9-5.8-10.3-8.7c-3.5-3-6.8-6.1-10.3-9c-3.9-3.3-8-6.3-12-9.5c-1.1-0.9-2.2-1.8-3.3-2.7c-3.9-3-7.8-6.1-11.7-9.1
	c-1.1-0.8-2.1-1.7-3.2-2.5c-2.9-2.2-5.9-4.4-8.8-6.6c-2.5-1.9-4.9-3.8-7.4-5.7c-2.8-2.1-5.7-4.1-8.5-6.2c-3.6-2.7-7.1-5.3-10.6-7.9
	c-3.7-2.9-7.4-5.8-11.2-8.6c-4.7-3.6-9.5-7.2-14.3-10.8c-3.6-2.8-7.2-5.6-10.8-8.3c-4-3-7.9-6-11.9-8.9c-3.8-2.9-7.8-5.6-11.6-8.5
	c-3.1-2.3-6.3-4.7-9-7.5c-1.7-1.6-3.2-3.3-4.7-5.1c-0.4-0.5-0.7-1.2-1-1.8c1.5-1.6,3.9-2.5,5.7-2c3.9,1,7.8,2.2,11.3,4.4
	c0.4,0.2,0.8,0.3,1.1,0.5c2.9,1.6,5.8,3.1,8.5,4.9c5.5,3.7,10.9,7.5,16.4,11.2c0.8,0.5,1.6,1.1,2.4,1.6c3,2.1,6.1,4,9.1,6.2
	c2.9,2.1,5.7,4.4,8.5,6.7s5.5,4.6,8.3,6.9c4.8,3.9,9.6,7.7,14.4,11.5c2.4,1.9,4.7,3.8,7.1,5.7c1.9,1.4,3.8,2.9,5.7,4.3
	c2.5,1.9,4.8,4,7.1,6.1c3,2.6,6.1,5.2,9.1,7.8c1,0.9,2.1,1.7,3.1,2.6c1.6,1.4,3.1,2.7,4.7,4.1c1.7,1.5,3.3,3,5,4.5
	c1.8,1.6,3.7,3.1,5.5,4.6c2.3,1.9,4.3,4.1,6.8,5.7c0.2,0.2,0.3,0.3,0.5,0.5c1.8,1.9,3.7,3.6,5.8,5.3c3.4,2.7,6.6,5.7,9.9,8.4
	c3.5,2.9,7.1,5.7,10.7,8.5c1.4,1.1,2.9,2.2,4.3,3.4c2.3,2,4.5,4,6.8,6c2.1,1.8,4.2,3.5,6.3,5.2c4.7,3.8,9.4,7.6,14.2,11.3
	c4,3,7.7,6.2,11.5,9.4c4,3.3,7.9,6.8,11.8,10.2c3.5,3,6.9,6.2,10.3,9.3c2.9,2.7,5.7,5.4,8.6,8c2.8,2.5,5.8,4.8,8.7,7.2
	c1.2,0.9,2.3,1.8,3.4,2.7c4.5,4,9,7.9,13.7,11.6c4.1,3.3,8.1,6.8,12,10.3h1.8h18.7h12.3c0-0.9-0.1-1.8-0.3-2.7
	c-0.3-1.7-1-3.2-1.5-4.8c-0.5-1.6-1.3-3-2.2-4.5c-1.2-1.9-2.6-3.6-4.1-5.3c-2.6-2.9-5.6-5.4-8-8.5c-5.5-4.9-10.5-10.3-15.3-15.9
	c-3.2-3.7-7-6.9-10.6-10.3c-2.3-2.1-4.7-4-7.1-6c-1.8-1.6-3.2-3.6-5.4-4.7c-0.1-0.1-0.1-0.1-0.2-0.2c-4.2-3.7-8.5-7.5-12.7-11.3
	c-5.8-5.1-11.7-9.9-17.8-14.6c-2.4-1.8-4.8-3.4-7.2-5.2c-2-1.5-4.1-3-6.1-4.6c-4.4-3.5-8.9-7-13.3-10.6c-3.5-2.9-6.8-6-10.4-8.8
	c-3.1-2.4-6-5.2-9.2-7.6c-2.7-2-5.1-4.3-7.7-6.5c-0.9-0.8-1.8-1.5-2.6-2.2c-2.2-1.9-4.3-3.8-6.5-5.7c-2.1-1.8-4.2-3.5-6.2-5.3
	c-3-2.7-6.1-5.4-9.3-7.9c-1.2-0.9-2.5-1.8-3.7-2.7c-4.2-3.3-8.4-6.6-12.6-9.9c-2.3-1.8-4.6-3.5-6.9-5.2c-3-2.2-6.1-4.4-9.1-6.6
	c-1.2-0.9-2.4-1.9-3.6-2.8c-3.9-2.8-7.8-5.6-11.7-8.4c-1.3-0.9-2.5-1.8-3.7-2.7c-3.4-2.5-6.8-5.1-10.2-7.6c-2.5-1.9-4.8-3.8-7.4-5.4
	c-4.3-2.7-8.3-5.6-12.3-8.7c-0.8-0.6-1.7-1.2-2.5-1.8c-2.6-2-5.1-4.1-7.7-6.1c-4.2-3.3-8.4-6.6-12.6-9.9c-1.6-1.2-3.1-2.5-4.6-3.8
	c-4.3-3.6-9-6.7-13.9-9.4c-0.3-0.2-0.7-0.4-1-0.6s-0.7-0.5-1-0.7c-2.2-1.8-4.5-3.6-6.7-5.4c-0.9-0.8-1.8-1.7-2.7-2.4
	c-4.1-3.2-8-6.7-11.7-10.3c-1.4-1.4-2.9-2.8-4.3-4.2c-1.4-1.3-2.8-2.6-4.1-4c-0.3-0.3-0.4-0.8-0.3-1.1c0.1-0.3,0.6-0.6,0.9-0.6
	c1-0.1,2,0,2.9,0.1c3.8,0.6,7,2.6,10.5,4c0.1,0,0.1,0.1,0.2,0.1c1.8,1.2,3.7,2.4,5.8,3.3c0.3,0.2,0.7,0.4,1,0.6
	c2.3,1.5,4.7,3.1,7,4.6c2.5,1.7,5.1,3.3,7.6,5c1.9,1.3,3.9,2.6,5.7,4c3,2.3,6,4.7,9,7.1c5.3,4.3,11.3,7.7,16.8,11.6
	c0.7,0.5,1.4,0.8,2,1.3c3.1,2.3,6.1,4.6,9.2,6.9c1.6,1.2,3.4,2.2,4.9,3.5c3.4,2.8,7,5.5,10.7,8c2.2,1.5,4,3.3,6.2,4.8
	c1.5,1.1,3,2.1,4.5,3.2c3,2.3,6,4.7,9,7.1c0.6,0.4,1.1,0.9,1.7,1.3c3.6,2.2,6.8,5.1,10,7.8c4,3.4,8,6.9,12,10.3
	c3.3,2.7,6.6,5.4,9.8,8.1c5.2,4.4,10.4,8.9,15.6,13.4s10.2,9.1,15.2,13.9c2.6,2.4,5,4.9,7.7,7.2c5.4,4.6,10.9,9,16.4,13.6
	c3.4,2.9,6.8,5.8,10.2,8.7c5.7,4.7,11.4,9.3,17,14c3.2,2.6,6.3,5.3,9.5,8c3.6,3.1,7.3,6.3,10.9,9.4c0.7,0.6,1.5,1.1,2.2,1.8
	c3.4,3.4,6.8,6.8,10.2,10.2c2,2.1,4,4.2,6,6.2c2.4,2.5,4.9,4.9,7.3,7.3c1.2,1.1,2.2,2.4,3.4,3.4c2,1.7,3.7,3.6,5.5,5.4
	c0.4,0.5,0.9,0.9,1.4,1.3c0.5,0.5,1.1,0.9,1.6,1.4c5.1,5.1,10.3,10.2,15.4,15.4c2.2,2.2,4.6,4.4,6.7,6.8c1.2,1.3,2.4,2.5,3.8,3.6
	c1.4,1.1,2.8,2.1,4.2,3.2c0.8,0.7,1.7,1.4,2.6,2.1c2.3,1.7,4.6,3.4,7,5c2.2,1.5,4.1,3.3,6.4,4.6c0.6,0.4,1.1,0.8,1.4,1.6
	c0.1,0.3,0.5,0.6,0.8,0.7c0.9,0.3,1.6,0.8,2.2,1.4c0.4,0.3,0.8,0.5,1.2,0.8c0.2,0.1,0.4,0.3,0.6,0.4h25.5c-0.1-1.3-0.1-2.7-0.2-4
	C779.8,297.1,779.7,295.8,779.4,294.6z"/>
<path class="st2" d="M52,169.6c0,0.4,0,0.8,0,1.2c0.1-0.4,0.2-0.8,0.3-1.2C52.2,169.6,52.1,169.6,52,169.6z"/>
</svg>
