<?xml version="1.0" encoding="utf-8"?>
<!-- Generator: Adobe Illustrator 22.1.0, SVG Export Plug-In . SVG Version: 6.00 Build 0)  -->
<svg version="1.1" id="Layer_1" xmlns="http://www.w3.org/2000/svg" xmlns:xlink="http://www.w3.org/1999/xlink" x="0px" y="0px"
	 viewBox="0 0 792 306" style="enable-background:new 0 0 792 306;" xml:space="preserve" preserveAspectRatio="none">
<style type="text/css">
	.st0{fill:#E7803B;}
	.st1{fill:#A654FF;}
</style>
<path class="st0" d="M4,14c4.4,0.6,8.9,1.3,13.3,1.9c1.7,0.2,3.5,0.3,5.3,0.4c5.7,0.3,11.3,0.5,17,0.8c5.7,0.3,11.3,0.6,17,0.7
	c8.7,0.1,17.4,0.4,26.1,0.6c6.1,0.1,12.1,0.3,18.2,0.4c2.7,0.1,5.4,0,8.2,0.1c5.8,0.4,11.7,0.2,17.5,0.3c6.9,0.1,13.7,0.4,20.6,0.6
	c6.5,0.2,12.9,0.4,19.4,0.5c7.1,0.1,14.2,0.2,21.3,0.3c14,0.1,28,0.1,42,0.2c3,0,6.1,0.2,9.1,0.3c3,0,6.1-0.1,9.1,0
	c8,0.4,16,0.4,24,0.7c3.4,0.1,6.9,0.1,10.3,0.5c4.5,0.5,9.1,0.3,13.6,0.5s9.1,0.5,13.6,0.7c4.2,0.2,8.5,0.5,12.7,0.7
	c3.7,0.2,7.5,0.5,11.2,0.7c2.9,0.2,5.7,0.3,8.6,0.5c4.9,0.4,9.7,0.9,14.6,1.3c3.9,0.4,7.8,0.7,11.7,1.1c2.4,0.2,4.8,0.4,7.2,0.6
	c1,0.1,1.9,0.4,2.5,1.2c0.5,0.5,1,1,1.5,1.5c1.3,1.4,2.5,2.9,3.1,4.8c0.5,1.5,1.1,3,1.8,4.4c0.9,1.8,1,3.7,0.5,5.6
	c-0.8,3.4-2.5,6.4-4.8,9c-1.1,1.3-2.7,1.7-4.3,1.7c-2.6,0-5.3,0-7.9-0.1c-6.3-0.3-12.6-0.5-18.9-1c-3.2-0.3-6.2,0.1-9.3,0.6
	c-2.9,0.5-5.8,1.1-8.7,1.5c-2.1,0.3-4.3,0.6-6.4,0.7c-3.4,0.2-6.9,0.4-10.3,0.6c-3.6,0.2-7.2,0.4-10.8,0.6
	c-4.3,0.2-8.6,0.5-12.9,0.7c-2.3,0.1-4.6,0.1-6.9,0.2c-4.6,0.2-9.3,0.5-13.9,0.7c-5.9,0.4-11.8,0.8-17.7,1.2
	c-2.9,0.2-5.7,0.6-8.6,0.8c-0.2,0-0.5,0.1-0.7,0.1c-5.9-0.1-11.8,0.6-17.7,0.2c-3.7-0.2-7.4-0.2-11-0.2c-5,0-9.9-0.1-14.9,0
	c-6.4,0.1-12.8,0.4-19.2,0.6c-1,0-2.1,0.1-3.1,0.1c-6.2,0.1-12.3,0-18.5,0.2c-4.5,0.1-8.9,0.1-13.4,0.7c-1.3,0.2-2.7,0.1-4.1,0.2
	c-4.3,0.2-8.6,0.4-12.9,0.6c-3.7,0.2-7.3,0.3-11,0.5c-0.2,0-0.3,0-0.5,0c-6.4,0.2-12.8,0.3-19.2,0.5c-3,0.1-6.1,0.3-9.1,0.4
	c-1,0-2.1,0-3.1,0.1c-1.2,0.1-2.4,0.1-3.6,0.2c-0.7,0-1.4,0.1-2.2,0.1c-2.6,0-5.3-0.1-7.9,0c-2.6,0.1-5.3,0.3-7.9,0.6
	c-1.6,0.2-3.1,0.8-4.3,1.9c-0.3,0.3-0.7,0.8-0.6,1.2c0.2,1.4,0.6,2.8,1.8,3.8c1.9,1.6,4.1,2.3,6.5,1.9c6.4-1,12.9-1,19.3-1.5
	c0.6,0,1.2,0,1.6-0.3c1.3-0.6,2.6-0.6,4-0.6c3.7,0.1,7.3,0.2,11,0.4c4.2,0.2,8.5,0.5,12.7,0.6c2.5,0.1,5,0.1,7.4,0.2
	c4.8,0.2,9.6,0.4,14.4,0.7c1.8,0.1,3.7,0.2,5.5,0.2c5.4,0.1,10.9,0.1,16.3,0.2c8.1,0.2,16.1,0.5,24.2,0.7c6.5,0.1,12.9,0.1,19.4,0.2
	c5,0,10.1,0,15.1,0c4.1-0.1,8.1-0.2,12.2-0.4c1.8-0.1,3.7-0.1,5.5-0.2c5.7-0.2,11.3-0.4,17-0.6c4-0.2,8-0.5,12-0.7
	c6.4-0.4,12.8-0.7,19.1-1.1c7.1-0.5,14.2-0.8,21.3-0.9c7.6,0,15.2-0.9,22.7-1.4c5-0.3,10.1-0.4,15.1-0.7c7.8-0.5,15.5,0.1,23.2,0.7
	c4.4,0.4,8.7,0.9,13,2.3c0.9,0.3,1.6,0.6,2.1,1.4c1.1,1.6,2.1,3.2,3.3,4.7c0.6,0.8,0.7,1.7,0.7,2.7c-0.1,1.9-0.6,3.6-1.8,5.1
	c-0.9,1.2-1.6,2.6-2.4,3.8c-0.5,0.7-1.1,1.4-1.8,1.9c-2.8,1.8-5.7,3.5-8.6,5.2c-1.8,1.1-3.7,1.8-5.7,2.5c-4.8,1.6-9.6,3.1-14.6,3.8
	c-2.4,0.3-4.9,0.5-7.4,0.7c-3.4,0.4-6.8,0.7-10.2,1.1c-0.4,0-0.8,0.1-1.2,0.1c-7.4,0.4-14.8,1.1-22.3,1.2
	c-5.1,0.1-10.2,0.5-15.3,0.6c-3.8,0-7.6,0.5-11.5,0.4c-2.2-0.1-4.5,0.1-6.7,0.2c-1.6,0-3.2-0.1-4.8-0.1c-2.3,0-4.6-0.1-7-0.1
	c-4.4,0.1-8.8,0.3-13.1,0.2c-4.8-0.1-9.6-0.4-14.4-0.6c-2.4-0.1-4.8-0.2-7.2-0.3c-3.4-0.1-6.9-0.2-10.3-0.3
	c-4.3-0.1-8.6-0.1-12.9-0.2c-3.3-0.1-6.7-0.2-10-0.2c-5.9-0.1-11.8-0.2-17.7-0.2c-3.6,0-7.2,0.2-10.8,0.1c-4.5-0.1-9.1-0.3-13.6-0.4
	c-1.6,0-3.2,0-4.8-0.1c-2.2-0.1-4.5-0.1-6.7-0.2c-5.7-0.1-11.3-0.3-17-0.4c-5.9,0-11.8,0.1-17.7,0.1c-0.9,0-1.8,0.1-2.6,0.2
	c-1.9,0.2-3.8,0.2-5.7,0c-1-0.1-2.1-0.1-3.1-0.2c-3.9-0.2-7.8-0.3-11.7-0.5c-4.1-0.2-8.3-0.5-12.4-0.7c-2.3-0.1-4.6-0.2-6.9-0.3
	c-1.7,0-3.4-0.1-5,0c-3,0.1-5.9-0.1-8.9-0.2c-0.6,0-1.3,0-1.9,0c-2.4,0.1-4.8,0.2-7.2,0.3c-2.3,0.1-4.4,0.6-6.4,1.7
	c-1.9,1.1-2.6,2.7-2.4,4.8c0.2,1.7,1.1,3,2.9,3.4c1.8,0.4,3.6,0.7,5.4,1c5.5,0.9,11,1.8,16.6,2.6c3.5,0.5,7,0.9,10.5,1.2
	c3.7,0.4,7.3,0.8,11,1.1c3.3,0.3,6.7,0.6,10,0.9c5,0.4,10,0.9,15,1.3c5.3,0.4,10.7,1,16,1.2c4.9,0.2,9.7,0.6,14.6,0.9
	c2.7,0.2,5.4,0.4,8.1,0.6c0.9,0.1,1.7,0.1,2.5-0.5c0.4-0.3,1.1-0.3,1.6-0.3c1.9,0,3.8,0,5.8,0c5.1,0,10.2,0.1,15.3,0.1
	c4.6,0,9.3,0,13.9-0.1c3.5-0.1,7-0.3,10.5-0.5c4.6-0.2,9.3-0.3,13.9-0.5c6-0.2,12-0.6,18-0.7c6.3-0.1,12.6,0,18.9,0
	c1.8,0,3.7-0.1,5.5-0.1c6.6,0,13.1,0,19.7-0.1c6.2-0.1,12.4-0.5,18.7-0.7c2.9-0.1,5.7,0.2,8.6,0.3c6.6,0.2,13.3,0.5,19.9,0.6
	c4.6,0.1,9.1-0.2,13.7-0.2c4.3,0,8.6-0.1,12.9,0.4c3.6,0.4,7.2,0.5,10.8,0.7c2.2,0.2,4.5,0.3,6.7,0.5c1.4,0.1,2.9,0.3,4.3,0.4
	c1.2,0.1,2.4,0.3,3.6,0.3c3.8,0,6.7,1.9,9.4,4.1c0.2,0.2,0.5,0.4,0.7,0.6c2.5,1.5,3.1,3.9,3.2,6.6c0,1.4-0.1,2.7,0,4.1
	c0.2,2.2-0.9,3.5-2.7,4.3c-2.5,1.2-5,2.2-7.4,3.3c-4.3,1.8-8.5,3.7-12.8,5.5c-3.1,1.3-6.2,2.5-9.6,2.8c-1.1,0.1-2.2,0.5-3.3,0.6
	c-3.3,0.2-6.7,0.3-10,0.5c-4.5,0.2-8.9,0.4-13.4,0.7c-2.4,0.1-4.8,0.4-7.2,0.6c-4.3,0.5-8.5,1.1-12.8,1.7c-0.9,0.1-1.8,0.1-2.6,0.1
	c-1.8,0.1-3.7,0.4-5.5,0.4c-5.6,0.1-11.2,0.1-16.8,0.1c-2.8,0-5.6,0-8.4,0c-4.4-0.1-8.8-0.3-13.2-0.4c-2.5-0.1-5,0-7.4-0.1
	c-4.9-0.1-9.7-0.2-14.6-0.3c-1.9,0-3.8,0.1-5.7,0.1c-2.1,0-4.1,0-6.2,0c-1.7,0-3.3,0.1-5,0.1c-7,0-13.9,0.1-20.9,0.1
	c-1.3,0-2.6,0.1-3.8,0.1c-3.2,0-6.4,0.1-9.6-0.2c-6.1-0.5-12.1-0.1-18.2-0.2c-3.8-0.1-7.7-0.1-11.5-0.2c-1.5,0-3,0.1-4.5,0
	c-4.2-0.1-8.3-0.5-12.4-1.2c-0.5-0.1-0.9,0-1.4,0c-0.3,0-0.7,0.1-0.9,0.1c-2.9-0.7-5.9-0.2-8.8-0.2c-0.5,0-1,0-1.4,0.1
	c-2.9,0.6-5.8,0.5-8.8,0c-2.1-0.3-4.3-0.4-6.4-0.6c-2.5-0.2-4.9-0.5-7.4-0.7c-5.5-0.5-11-0.9-16.5-1.4c-2.6-0.2-5.3-0.4-7.9-0.4
	c-3.8,0-7.5,0.1-11.2,0.4c-3.4,0.2-6.8,0.8-10.2,1.5c-2,0.4-3.9,0.7-5.9,1c-1.9,0.3-3.8,0.6-5.5,0.9c-0.3,0.7,0.1,0.9,0.4,1.1
	c3.3,2.4,6.4,5.1,10.5,6.1c5.4,2.5,11.3,3.5,17,5c2.5,0.6,5.2,0.8,7.8,1.2c3.6,0.5,7.3,0.9,10.9,1.3c1.1,0.1,2.2,0.1,3.4,0.1
	c4.9,0.1,9.8,0.1,14.6,0.2c3.4,0,6.9-0.1,10.3,0c3.6,0.1,7.2,0.4,10.8,0.6c0.8,0,1.6,0,2.4,0c7.4,0.1,14.7,0.1,22.1,0.3
	c6.5,0.1,13.1,0.3,19.6,0.4c2,0,4,0,6,0c6.2,0.1,12.5,0.2,18.7,0.4c6.5,0.2,12.9,0.6,19.4,0.9c2.6,0.1,5.3,0.1,7.9,0.2
	c4.6,0.2,9.3,0.5,13.9,0.7c3.3,0.1,6.6,0.2,9.8,0.2c5.8,0,11.7,0,17.5-0.1c3.3,0,6.5-0.2,9.8-0.3c5.8-0.2,11.7-0.4,17.5-0.6
	c4.2-0.2,8.5-0.5,12.7-0.7c1.2-0.1,2.4-0.1,3.6-0.1c5.4,0,10.7,0,16.1,0c1.8,0,3.7,0.2,5.5,0.2c4.6,0,9.3-0.2,13.9-0.3
	c2.8-0.1,5.6-0.1,8.4-0.1c2.2,0,4.3-0.1,6.5,0c1.8,0,3.7,0,5.5,0.4c1.1,0.2,2.2,0.2,3.3,0.3c2.2,0.1,4.5,0.2,6.7,0.4
	c1,0.1,2.1,0.3,3.1,0.6c1.7,0.5,3.4,1.1,5,1.6c0.6,0.2,1.2,0.5,1.7,0.8c1.7,0.9,3.4,1.9,5,2.8c1.6,0.9,1.8,1.7,0.9,3.1
	c-1.2,1.7-2.5,3.3-3.8,4.9c-0.7,0.8-1.6,1.3-2.6,1.7c-2,0.8-3.9,1.8-5.9,2.6c-2.6,1.1-5.3,2.3-8,3.2c-2.2,0.8-4.5,0.9-6.8,1.1
	c-2.9,0.3-5.9,0.4-8.9,0.5c-3.4,0.1-6.7,0.2-10.1,0.2c-2.4,0-4.8-0.1-7.2-0.1c-4.3,0.1-8.6,0.1-12.9,0.4c-1.2,0.1-2.4,0.1-3.6,0
	c-0.3,0-0.6,0-1,0c-5.5,0.5-11,0.4-16.5,0.5c-6.9,0.2-13.7,0.4-20.6,0.4c-6.8,0-13.6,0.1-20.4-0.2c-5.1-0.2-10.2-0.3-15.3-0.5
	c-4-0.1-8-0.3-12-0.5c-3.9-0.1-7.8-0.2-11.7-0.3c-3.9-0.1-7.8-0.3-11.7-0.4c-4.6-0.1-9.1-0.1-13.7-0.1c-4.5-0.1-8.9-0.2-13.4-0.2
	c-2.8,0-5.6,0-8.4,0c-4,0-8,0-11.9-0.3c-2.2-0.1-4.5-0.1-6.7-0.1c-7.4,0-14.7-0.1-22.1-0.1c-3.3,0-6.6,0-9.8,0c-1.7,0-3.4-0.2-5-0.2
	c-1.5,0-3,0.1-4.6,0.1c-1.4,0-2.9-0.1-4.3-0.1c-0.9,0-1.8,0-2.6,0c-1.7,0-3.3,0-5,0c-0.3,0-0.6,0-1,0c-6.3,0-12.6,0-18.9-0.1
	c-3,0-5.9-0.3-8.9-0.5c-3.4-0.3-6.8-0.7-10.3-0.9c-3.2-0.2-6.4-0.4-9.6-0.5c-0.7,0-1.4,0-2.2-0.1c-4.1-0.5-8.1,0.3-12.2,0.6
	c-0.3,0-0.8,0.4-0.8,0.7c-0.1,0.3,0.1,0.8,0.4,1c1.3,1,2.8,1.9,4.5,2.3c3.7,0.8,7.5,1.6,11.3,1.7c1.4,0.1,2.9,0.3,4.3,0.4
	c5.6,0.5,11.1,1.1,16.7,1.5c4.4,0.4,8.8,0.6,13.1,1c4.5,0.4,8.9,0.5,13.4,0.6c10.9,0.1,21.8,0.1,32.6,0.2c7.8,0,15.7,0,23.5,0
	c1.2,0,2.4,0.1,3.6,0.1c4,0,8,0,12-0.2c6.4-0.4,12.8-0.3,19.2-0.5c3.2-0.1,6.4-0.2,9.6-0.4c0.2,0,0.5,0,0.7,0
	c5.3-0.1,10.5-0.4,15.8-0.4c5.4,0,10.7,0.2,16.1,0.3c1,0,1.9-0.1,2.9-0.2c7.3-0.2,14.5-0.4,21.8-0.7c5.2-0.2,10.4-0.5,15.6-0.7
	c2.1-0.1,4.2-0.1,6.2-0.2c7.9-0.4,15.8-0.4,23.7-0.1c3.2,0.1,6.4,0.1,9.6,0.1c5.9,0.1,11.8,0,17.7,0.2c3.5,0.1,7,0.5,10.5,0.8
	c4,0.4,7.9,0.9,11.9,1.3c3.7,0.4,7.3,0.8,11,1.2c1.4,0.2,2.9,0.3,4.3,0.6c3.4,0.6,5.9,2.4,7.5,5.4c1.1,1.9,1.7,4,2,6.1
	c0.3,2.1-0.2,4.2-1.3,6c-2,3.4-4.6,6.2-8.2,7.9c-2.4,1.2-4.8,2.1-7.3,3c-0.7,0.3-1.6,0.4-2.3,0.4c-2.4-0.1-4.8-0.4-7.2-0.5
	c-2.4-0.1-4.8-0.1-7.2,0.1c-3.7,0.2-7.5,0.4-11.2,0.8c-3.3,0.4-6.5,0.4-9.8,0.5c-5.8,0.2-11.6,0.6-17.5,1.2c-0.6,0.1-1.3,0-1.9,0
	c-5.3-0.4-10.5-0.9-15.8-1.3c-4.9-0.4-9.9-0.9-14.8-1.3c-4.6-0.4-9.2-0.7-13.9-1c-3.7-0.2-7.3-0.4-11-0.6c-4.1-0.3-8.3-0.7-12.4-1.1
	c-1.8-0.2-3.7-0.3-5.5-0.4c-3.9-0.4-7.8-0.9-11.7-1.1c-5.7-0.3-11.3-0.5-17-0.6c-7.7-0.2-15.5-0.2-23.2-0.3c-3.9,0-7.8-0.1-11.7-0.2
	c-3.9-0.1-7.8-0.2-11.7-0.4c-3.3-0.2-6.5-0.5-9.8-0.7c-1.8-0.1-3.5,0-5.3-0.2c-5-0.6-10.1-0.5-15.1-0.9c-4.5-0.3-8.9-0.2-13.4-0.7
	c-4.1-0.4-8.3-0.3-12.4-0.6c-3.7-0.3-7.5-0.3-11.2-0.5c-7-0.3-14-0.6-21.1-0.7c-3.3-0.1-6.5,0.2-9.8,0.4c-3.8,0.1-7.7,0.3-11.5,1
	c-0.9,0.1-1.7,0.3-2.6,0.5c-2.9,0.7-5.8,1.3-8.6,2c-1.9,0.5-3.1,1.3-4.5,3.4c0.5,0.3,1,0.7,1.6,1c1.6,0.8,3.1,1.6,4.7,2.3
	c1.5,0.7,3.1,0.9,4.7,0.9c3.4,0,6.9,0,10.3,0.1c5.8,0.1,11.5,0.3,17.3,0.4c1.1,0,2.2,0,3.4,0.1c8.1,0.2,16.1,0.2,24.2,0.5
	c6.5,0.3,12.9,0.4,19.4,0.5c4.2,0.1,8.5,0.3,12.7,0.5c3.4,0.1,6.7,0.3,10.1,0.5c3.9,0.2,7.8,0.6,11.7,0.8c1.8,0.1,3.7,0.1,5.5,0.1
	c6.8,0.2,13.6,0.3,20.4,0.5c3.6,0.1,7.2,0.3,10.8,0.4c2.3,0.1,4.6,0.1,6.9,0.2c4.2,0.1,8.3,0.1,12.5,0.2c5,0.1,10.1,0.3,15.1,0.5
	c3.6,0.1,7.2,0.3,10.8,0.5c4.8,0.2,9.6,0.4,14.4,0.6c3.8,0.2,7.7,0.5,11.5,0.7c1.6,0.1,3.2,0.1,4.8,0.2c3.8,0.2,7.5,0.3,11.2,0.6
	c3.7,0.3,7.3,0.3,11,0.5c3.7,0.2,7.3,0.4,11,0.6c0.7,0,1.4,0,2.2,0c3.8,0,7.7-0.1,11.5-0.2c5.5-0.1,11-0.3,16.5-0.5
	c3.3-0.1,6.6-0.1,9.8-0.2c3.8-0.1,7.5-0.2,11.3-0.3c8.2-0.3,16.5-0.2,24.7-0.2c0.9,0,1.7,0.2,2.5,0.6c0.4,0.2,0.7,0.4,1.1,0.5
	c3.1,1.1,4.8,3.5,6.1,6.4c0.4,0.8,0.6,1.7,0.7,2.5c0.6,3.8,0.5,7.6-0.1,11.5c-0.2,1-0.5,1.8-1.4,2.4c-0.1,0-0.1,0.1-0.2,0.1
	c-1.2,1-7.2,3.7-8.7,3.9c-2.8,0.5-5.7,0.8-8.5,1.3c-4,0.7-8,0.5-12,0.7c-1.3,0-2.7,0.1-4,0.2c-0.2,0-0.5,0.1-0.7,0.1
	c-3.4,0.1-6.9,0.2-10.3,0.3c-1.2,0-2.4,0.1-3.6,0.1c-1.8,0-3.7-0.1-5.5-0.2c-6.2-0.1-12.3-0.5-18.4-0.9c-2.2-0.2-4.5-0.2-6.7-0.3
	c-4.7-0.3-9.4-0.6-14.1-0.8c-4-0.2-8-0.4-12-0.6c-3.2-0.2-6.4-0.5-9.6-0.7c-1.3-0.1-2.6-0.1-3.8-0.1s-1.2,0-2.6,0.8
	c-1.3-1-2.9-1-4.5-1c-4.5-0.2-8.9-0.4-13.4-0.6c-2.2-0.1-4.3-0.2-6.5-0.3c-3.8-0.2-7.5-0.3-11.3-0.5c-4.5-0.2-9.1-0.5-13.6-0.7
	c-4.3-0.2-8.6-0.2-12.9-0.4c-2.2-0.1-4.5-0.2-6.7-0.2c-11-0.2-22.1-0.2-33.1-0.1c-3.9,0-7.8-0.2-11.7-0.2c-3.1,0-6.2,0-9.3,0
	c-3.7,0-7.4,0-11-0.1c-6.2,0-12.3-0.1-18.5-0.1c-4.4,0-8.8,0.1-13.2-0.1c-6.7-0.3-13.4-0.2-20.1-0.4c-3.7-0.1-7.4,0.1-11,0.1
	c-6,0-12,0-18,0c-2.8,0-5.6-0.1-8.4,0.2c-1.9,0.2-3.7,0.8-5.6,1.2c-1,0.2-1.9,0.9-2.3,1.9c-0.2,0.6-0.4,1.2-0.7,1.8
	c-1,1.5-1,3,0,4.6c1.5,0.5,3.2,0.3,4.8,0.2c3.6-0.3,7.2-0.6,10.7-0.9c1.5-0.1,3-0.2,4.5-0.3c0.7,0,1.4,0.2,2.1,0.3
	c5.2,1.2,10.6,1.7,15.9,1.7c7.4-0.1,14.7-0.3,22.1-0.5c5.1-0.1,10.2-0.2,15.3-0.5c5.4-0.3,10.8-0.7,16.3-1c3.9-0.2,7.8-0.5,11.7-0.7
	c3.8-0.1,7.7,0,11.5-0.3c7.8-0.5,15.7-0.2,23.5-0.4c2.5,0,4.9-0.1,7.4-0.1c2.4,0.1,4.8-0.2,7.2-0.1c6.9,0,13.7,0.1,20.6,0.2
	c7.3,0.1,14.6,0.1,21.8,0.3c4.2,0.1,8.3,0.2,12.5,0.3c4.7,0.1,9.4,0,14.1,0.1c7.3,0.1,14.7,0.3,22,0.4c2.3,0,4.6,0.1,7,0.1
	c4,0.1,8,0.2,12,0.2c5.6,0,11.2,0,16.8,0c9.8,0.1,19.7,0.1,29.5,0.2c6.9,0.1,13.9,0.2,20.8,0.2c6.3-0.1,12.6-0.5,18.9-0.6
	c4.8-0.1,9.6-0.2,14.4-0.2c6.3,0.1,12.6,0.5,18.9,0.6c7.2,0.2,14.4,0.2,21.6,0.5c9.7,0.3,19.3,0.1,29,0.2c9,0,18.1,0,27.1,0
	c5.8,0,11.7-0.2,17.5-0.3c5.5-0.1,11-0.2,16.5-0.2c8.2,0,16.3,0,24.5,0c2.8,0,5.6-0.1,8.4-0.2c2.4,0,4.8-0.1,7.2-0.1
	c5.4-0.1,10.9-0.2,16.3-0.2c6.6,0,13.1-0.1,19.7,0.2c6.7,0.3,13.4,0.3,20.1,0.5c6.1,0.2,12.1,0.6,18.2,0.8c3.8,0.2,7.7,0.3,11.5,0.5
	c2.5,0.1,5.1,0.4,7.6,0.7c0.3,0,0.6,0.1,1,0.1c6,0.3,12,0.6,17.9,0.7c2.9,0,5.7,0.2,8.6,0.3c5.5,0.1,11,0.2,16.5,0.2
	c4.7,0,9.4,0,14.2-0.2c2.8-0.1,5.6-0.5,8.3-1.3c1.2-0.3,2.3-0.3,3.5-0.3c4.4,0.1,8.8,0.6,13.1,1c1.4,0.1,2.3-0.6,2.6-1.9
	c0.1-0.5,0.1-1.1,0.2-1.7c0.1-1.2-0.3-1.8-1.5-2c-1.3-0.2-2.5-0.4-3.8-0.4c-5-0.1-9.9-0.1-14.9-0.2c-3.7-0.1-7.3-0.3-11-0.4
	c-6.8-0.2-13.6-0.6-20.4-0.5c-6.6,0-13.1-0.1-19.7-0.3c-4.5-0.1-9.1-0.4-13.6-0.5c-6-0.2-12-0.3-18-0.5c-3-0.1-5.9-0.2-8.9-0.3
	c-4.7-0.1-9.4-0.1-14.1-0.2c-2.8-0.1-5.6-0.2-8.4-0.3c-4.1-0.1-8.1-0.3-12.2-0.4c-3.4-0.1-6.9-0.3-10.3-0.4c-5.1-0.1-10.2,0-15.4,0
	c-8.1,0-16.1,0.1-24.2,0.2c-8.3,0.1-16.6,0.3-24.9,0.3c-4.6,0-9.3-0.2-13.9-0.2c-1.8,0-3.7,0.2-5.5,0.2c-4.6,0-9.1,0-13.7,0
	c-3.2,0-6.4,0-9.6,0c-5.6-0.1-11.2-0.2-16.8-0.3c-3.5-0.1-7-0.1-10.5-0.2c-3.3-0.1-6.5-0.4-9.8-0.5c-0.5,0-1-0.1-1.4-0.1
	c-6.4-0.1-12.7-1.3-19.1-2c-0.9-0.1-1.9-0.4-2.8-0.7c-4.5-1.5-8.9-3.1-13.3-4.7c-2.3-0.8-4.6-2-6.5-3.5c-4.1-3.1-6.4-7.2-6.4-12.3
	c0-3.1,1.2-5.8,3.6-7.8c2.5-2.1,5.3-3.3,8.6-3.1c3.5,0.2,7,0.4,10.5,0.6c1.8,0.1,3.7,0.2,5.5,0.3c7.1,0.5,14.2,1,21.3,1.5
	c4.9,0.3,9.7,0.7,14.6,1c5.5,0.4,11,0.8,16.5,1.2c3.4,0.2,6.9,0.2,10.3,0.3c5.2,0.1,10.4,0.1,15.6,0.1c5.6,0.1,11.2,0.1,16.8,0.2
	c5.8,0.1,11.7,0.3,17.5,0.4c4,0.1,8,0,12,0c4.5,0.1,8.9,0.1,13.4,0.4c3.1,0.2,6.2,0.1,9.4,0.2c4.6,0.1,9.1,0.3,13.7,0.5
	c0.2,0,0.5,0,0.7,0c6.1,0.2,12.3,0.3,18.4,0.5c7.5,0.2,15,0.4,22.5,0.5c7.4,0,14.9-0.2,22.3-0.3c6.6-0.1,13.3-0.1,19.9-0.2
	c12.5-0.1,24.9-0.1,37.4-0.2c2.4,0,4.8-0.3,7.2-0.3c2.9,0,5.8,0.2,8.6,0.2c4.4,0.1,8.8,0.1,13.2,0.1c0.8,0,1.6-0.1,2.3-0.4
	c2.6-1.1,5.4-2.1,8-3.6c-0.8-1.6-1.9-2.8-3.7-3.1c-3.3-0.5-6.5-1.6-9.8-2.2c-3.1-0.6-6.3-1.2-9.5-1.2c-2.5,0-5.1-0.3-7.6-0.5
	c-5.6-0.5-11.2-0.5-16.8-0.4c-3.6,0-7.2,0.1-10.8,0.2c-3,0.1-6.1,0.2-9.1,0.3c-2.6,0.1-5.1,0.1-7.7,0.1c-1.7,0-3.3,0.2-5,0.2
	c-2.5,0.1-5,0.1-7.4,0.2c-2.7,0-5.4,0-8.1,0.1c-5.1,0.2-10.2,0.4-15.3,0.6c-4.9,0.1-9.9,0.3-14.9,0.3c-8.6,0-17.3,0-25.9-0.1
	c-3.4,0-6.9-0.2-10.3-0.4c-1,0-1.9-0.1-2.9-0.1c-2.9,0.1-5.9-0.2-8.8-0.1c-2.5,0.1-5.1-0.3-7.6-0.3c-3.5,0.1-7-0.1-10.5,0.2
	c-2.5,0.2-4.9,0.2-7.4,0.3c-7,0.2-14.1,0.3-21.1,0.5c-5.8,0.1-11.7,0.2-17.5,0.3c-4.4,0.1-8.8,0.2-13.2,0.3
	c-5.7,0.1-11.3,0.2-17,0.3c-1.6,0-3.2-0.3-4.7-0.6c-3.3-0.6-6.6-1.2-9.9-1.7c-3.1-0.5-6.2-0.8-9.3-1.1c-3-0.3-6-0.7-9-0.9
	c-3.7-0.3-7.5-0.4-11.2-0.9c-5.1-0.7-10.2-0.5-15.3-0.6c-2.3,0-4.6-0.2-6.9-0.3c-1.4-0.1-2.7-0.1-4.1-0.1c-1.2,0-2.2-0.4-3.1-1.1
	c-1.4-1-2.8-2.1-4.2-3.1c-2.8-1.9-4.8-4.4-6.2-7.5c-0.3-0.7-0.8-1.4-1.2-2.1c-0.6-1-0.7-2.1-0.2-3.2c0.8-1.6,1.4-3.2,2.1-4.8
	c0.6-1.4,1.4-2.4,2.8-3.1c1.5-0.7,2.9-1.7,4.3-2.6c1-0.7,2.1-1.1,3.3-1.3c2.5-0.4,5.1-0.7,7.6-1c3-0.4,6-0.9,9-1.3
	c2-0.3,4-0.4,6-0.6c5.2-0.5,10.5-1.1,15.7-1.6c2.7-0.2,5.4-0.4,8.1-0.4c13.4-0.1,26.7-0.1,40.1-0.1c3.1,0,6.2,0.2,9.3,0.9
	c1.1,0.2,2.2,0.2,3.3,0.2c2.5,0,4.9,0,7.4,0.3c2.4,0.2,4.8,0.2,7.2,0.1c3.7-0.2,7.3,0.2,11,0.4c5.6,0.3,11.2,0.5,16.8,0.5
	c4.3,0,8.6,0.1,12.9,0.4c3.5,0.3,7,0.4,10.5,0.6c2.9,0.2,5.9,0.5,8.8,0.7c1.2,0.1,2.4,0.1,3.6,0.1c3.5,0.3,7,0.6,10.5,0.8
	c3.7,0.3,7.5,0.5,11.2,0.7c4.1,0.3,8.1,0.5,12.2,0.8c5.1,0.3,10.2,0.4,15.3,0.7c3.3,0.2,6.5,0.5,9.8,0.7c3.8,0.2,7.7,0.4,11.5,0.7
	c3.1,0.2,6.2,0.5,9.3,0.8c0.8,0.1,1.6,0.1,2.4,0.1c3.4,0.3,6.8,0.6,10.3,0.8c2.4,0.2,4.8,0.2,7.2,0.2c4.3,0.1,8.6,0.2,12.9,0.3
	c3.3,0.1,6.6,0.1,9.8,0.2c2.1,0,4.1,0,6.2,0.2c2,0.2,4.1,0.1,6.2,0.1c2.1,0,4.2,0.1,6.2,0c2.4-0.1,4.8-0.2,7.2-0.4
	c1.6-0.2,3.1-0.8,4.5-1.6c0.2-0.1,0.4-0.5,0.7-0.8c-0.4-0.3-0.6-0.6-0.9-0.7c-2.3-0.8-4.7-1.6-7-2.4c-0.4-0.1-0.8-0.2-1.2-0.2
	c-3.8-0.3-7.6-0.9-11.4-1.6c-0.4-0.1-0.8-0.1-1.2-0.1c-3.4-0.1-6.7-0.1-10.1-0.1c-3.6-0.1-7.2-0.2-10.8-0.4
	c-1.8-0.1-3.5-0.4-5.2-0.6c-2.9-0.4-5.7-0.7-8.6-1.1c-3.2-0.4-6.3-0.7-9.5-1c-6.1-0.7-12.2-1.4-18.3-2c-2.5-0.3-4.9-0.3-7.4-0.5
	c-1.4-0.1-2.9-0.3-4.3-0.4c-2-0.1-4-0.1-6-0.3c-3.4-0.2-6.8-0.5-10.3-0.7c-1.8-0.1-3.5-0.1-5.3-0.2c-4-0.3-8-0.5-12-0.8
	c-2.7-0.3-5.4-0.8-8.1-1.2c-6-0.9-12-1.9-18-2.8c-3.8-0.6-7.6-1.2-11.3-1.9c-0.7-0.1-1.4-0.3-2.1-0.3c-2.9-0.2-5.7-0.4-8.6-0.7
	c-2.8-0.2-5.6-0.5-8.3-0.8c-1.9-0.2-3.8-0.3-5.7-0.5c-3.1-0.3-6.2-0.5-9.3-0.7c-0.6,0-1.3-0.1-1.9-0.1c-4-0.1-8-0.5-11.9-1
	c-2.1-0.3-4.1-0.3-6.2-0.5c-1.4-0.1-2.7-0.3-4-0.5c-4.2-0.5-8.4-1-12.6-1.4c-2.7-0.3-5.4-0.3-8.1-0.5c-2.6-0.2-5.3-0.5-7.9-0.7
	c-1.4-0.1-2.7-0.2-4.1-0.4c-3.3-0.3-6.7-0.6-10-0.8c-8.2-0.4-16.4-0.7-24.7-0.6c-3.2,0-6.4-0.2-9.6-0.3c-1.5,0-2.8-0.4-4.2-0.8
	c-5.3-1.5-10.2-3.8-15.2-5.9c-0.4-0.2-0.9-0.4-1.2-0.7c-1.8-1.5-3.3-3.2-4.6-5.2c-1-1.5-0.7-2.4,0.8-3.4c0.9-0.6,1.8-1.1,2.7-1.6
	c2.1-1.2,4.1-2.4,6.5-2.9c0.6-0.1,1.2-0.4,1.8-0.6c1.7-0.7,3.4-1,5.1-1.1c2.2-0.1,4.5-0.2,6.7-0.4c0.2,0,0.5,0,0.7-0.1
	c4.1-0.9,8.3-0.6,12.4-0.5c13.4,0.4,26.9,0.4,40.3,0.4c4.7,0,9.4,0.3,14.1,0.5c6.8,0.3,13.6,0.7,20.4,1c8.3,0.5,16.6,1,24.9,1.5
	c4.5,0.3,9.1,0.6,13.6,0.8c5.8,0.2,11.5,0.4,17.3,0.6c7.7,0.3,15.3,0.6,23,1.1c7.4,0.4,14.8,0.9,22.2,1.5c4.3,0.3,8.6,0.8,12.9,1.2
	c5.3,0.4,10.5,0.8,15.8,1.2c3.9,0.3,7.8,0.7,11.7,1c2.9,0.3,5.9,0.5,8.8,0.7c4.9,0.3,9.9,0.7,14.8,0.7c1,0,1.9,0.2,2.9,0.3
	c6.2,0.9,12.5,1.5,18.8,2.1c6.9,0.7,13.9,0.5,20.8,0.2c4.7-0.2,9.4-0.9,14-1.6c2.9-0.4,5.6-1.4,8.4-1.8c0.5-0.1,1.1-0.3,1.6-0.5
	c0.3-0.1,0.6-0.2,0.8-0.5c1.1-0.9,1.8-4.1,1.4-5.4c-0.3-0.8-1-1.3-1.8-1.5c-3.2-1-6.4-2-9.6-3c-3-0.9-6.1-1.3-9.1-1.8
	c-0.9-0.1-1.7-0.3-2.6-0.5c-2.2-0.4-4.4-0.7-6.7-0.7c-4.7,0-9.4-0.3-14.1-0.4c-4.5-0.1-8.9-0.1-13.4-0.2c-1.4,0-2.9-0.2-4.3-0.1
	c-4,0.2-8-0.1-12-0.2c-5-0.1-9.9-0.5-14.8-0.6c-5.7-0.1-11.3-0.2-17-0.2c-6.2,0-12.5,0-18.7,0c-9,0-17.9-0.1-26.9-0.2
	c-1.4,0-2.7-0.2-4.1-0.3c-6.1-0.3-12.1-0.5-18.2-0.7c-3.8-0.2-7.7-0.5-11.5-0.7c-2.5-0.1-5-0.1-7.4-0.2c-6.1-0.2-12.1-0.5-18.2-0.8
	c-2.2-0.1-4.5-0.1-6.7-0.1c-4.3-0.1-8.6-0.2-12.9-0.4c-5-0.2-9.9-0.4-14.8-0.7c-2.6-0.1-5.1-0.2-7.7-0.5c-5-0.5-10-1-15-2.1
	c-3.4-0.7-6.8-1.1-10.2-0.8c-1.2,0.1-2.4,0.1-3.6,0.1c-2.8,0.1-5.6-0.2-8.4-0.6c-3.3-0.6-6.7-0.5-10-0.7c-2.2-0.1-4.5-0.3-6.7-0.5
	c-3.3-0.3-6.5-0.6-9.8-1c-4.6-0.5-9.2-0.7-13.8-1.5c-1.9-0.3-3.7-0.9-5.6-1.4c-1.3-0.3-2.6-0.7-4-1c-2.8-0.7-5.6-1.2-8.4-1.9
	c-4.6-1.2-8.6-3.4-12.1-6.6c-1.5-1.3-3.1-2.5-4.2-4.2c-1-1.4-1.4-2.7-1.1-4.4c0.4-1.9,0.6-3.8,1.3-5.6c0.2-0.6,0.5-1.2,0.9-1.6
	c1.4-1.2,2.7-2.5,4.2-3.5c1.2-0.8,2.5-1.4,3.8-2c0.7-0.3,1.5-0.4,2.3-0.5c4-0.3,8-0.5,12-0.7c4.2-0.3,8.5-0.5,12.7-0.8
	c2.6-0.1,5.1-0.3,7.7-0.4c2.3,0,4.6,0.2,6.9,0.3c3.6,0.2,7.2,0.4,10.8,0c2.1-0.2,4.1-0.3,6.2-0.3c1.2,0,2.4,0.2,3.6,0.2
	c1.8,0.1,3.5,0.1,5.3,0.2c4.3,0.2,8.6,0.5,12.9,0.7c3,0.1,6.1,0.1,9.1,0.1c5.9,0,11.8,0,17.8,0.1c3.4,0.1,6.7,0.4,10,0.6
	c2.5,0.2,4.9,0.5,7.4,0.7c5.3,0.3,10.5,0.6,15.8,0.9c2.6,0.1,5.3,0.1,7.9,0.3c6.1,0.3,12.1,0.7,18.2,0.9c4.6,0.2,9.2,0.7,13.9,1
	c5.8,0.3,11.6,1,17.4,1.5c4,0.3,7.9,0.8,11.9,1.2c5.6,0.5,11.2,0.9,16.7,1.2c4.6,0.3,9.3,0.5,13.9,0.7c3.4,0.2,6.9,0.4,10.3,0.6
	c1.5,0.1,3,0.3,4.5,0.8c0.7,0.3,1.6,0.2,2.4,0.2c5.9,0,11.8,0,17.8-0.1c6.8-0.1,13.6-0.1,20.4-0.2c5-0.1,10.1-0.2,15.1-0.3
	c5.2-0.1,10.4-0.2,15.6-0.4c5.8-0.2,11.7-0.4,17.5-0.7c3.8-0.2,7.7-0.5,11.5-0.8c1.3-0.1,2.6-0.1,3.8-0.1c2.9-0.1,3.7-1,3.1-3.9
	c-0.8-4.1-4.1-6.6-8.1-7.1c-4.3-0.5-8.6-0.7-12.9-0.7c-1.4,0-2.7-0.3-4.1-0.3c-2.6-0.1-5.1-0.1-7.7-0.1c-6.6,0-13.3,0.1-19.9,0
	c-4.6,0-9.3-0.2-13.9-0.5c-2.3-0.1-4.6-0.6-6.9-0.8c-2.5-0.3-4.9-0.5-7.4-0.7c-3.7-0.3-7.5-0.5-11.2-0.7c-3.9-0.2-7.8-0.3-11.7-0.5
	c-4.1-0.2-8.1-0.3-12.2-0.5c-5-0.2-9.9-0.5-14.8-0.8c-3-0.2-5.9-0.3-8.9-0.5c-3.6-0.2-7.2-0.5-10.8-0.7c-2.6-0.1-5.1-0.1-7.7-0.1
	c-1.7,0-3.3-0.2-5-0.3c-0.8,0-1.6-0.1-2.4-0.1c-4.6-0.1-9.1-0.1-13.7-0.2c-0.7,0-1.5,0-2.1-0.2c-3-0.9-6.1-0.8-9-0.4
	c-4.8,0.6-9.5,0.9-14.3,0.8c-3,0-6.1,0.2-9.1,0.3c-4.1,0-8.1-0.2-12.2-0.2c-3.4,0-6.9,0.1-10.3,0.2c-3.7,0-7.3,0-11-0.2
	c-2.4-0.2-4.8,0-7.2-0.1c-3.4-0.1-6.9-0.2-10.3-0.4c-5.2-0.2-10.4-0.3-15.6-0.6c-2.1-0.1-4.1-0.3-6.2-0.5c-6.8-0.7-13.7-1.3-20.5-2
	c-3.1-0.3-6.2-0.7-9.2-1.3c-1.9-0.3-3.7-1-5.5-1.6c-2.6-0.9-5.1-1.8-7.6-2.8c-1.7-0.7-3.3-1.7-4.8-2.6c-2.1-1.3-4.2-2.7-6.2-4
	c-1.2-0.8-2.3-1.7-3-3c-1-2-2.3-3.9-3.2-5.9c-0.6-1.4-0.5-3-0.4-4.5c0-0.2,0.2-0.5,0.3-0.6c1.4-1.8,2.7-3.6,4.1-5.3
	c0.4-0.5,1-0.8,1.6-1c1.3-0.4,2.6-0.7,4-0.8c4-0.4,7.9-1,11.9-1.2c8.1-0.4,16.3-0.5,24.4-0.3c4.7,0.1,9.4,0.5,14.1,1
	c2.9,0.3,5.7,0.4,8.6,0.6c1.4,0.1,2.9,0.3,4.3,0.4c3.7,0.2,7.5,0.4,11.2,0.6c2.8,0.2,5.6,0.4,8.4,0.6c1,0.1,2.1,0.2,3.1,0.3
	c5,0.3,10,0.7,15.1,1c4.4,0.3,8.7,0.8,13.1,1.2c3.7,0.3,7.3,0.5,11,0.7c4.7,0.3,9.4,0.6,14.1,0.9c5.9,0.4,11.8,0.6,17.7,0.6
	c3.5,0,7,0.2,10.5,0.2c10.9,0,21.7,0,32.6,0c1.9,0,3.8,0,5.8,0c6-0.1,12-0.2,18-0.2c4.2-0.1,8.5,0,12.7-0.1
	c3.8-0.1,7.5-0.3,11.3-0.5c3.6-0.2,7.2-0.3,10.8-0.5c6.2-0.3,12.5-0.6,18.7-0.9c1.5-0.1,3-0.2,4.5-0.3c1.3-0.1,2.6-0.1,3.8,0.3
	c0.6,0.2,1.2,0.3,1.9,0.3c3.2,0.2,6.4,0.4,9.6,0.6c1,0.1,1.9,0.1,2.9,0.1c1.8,0,3.6,0.1,5.4,0.6c3.6,1,6.9,0.2,9.8-2.4
	c1.2-1.1,2.2-2.3,3.4-3.6c-0.4-0.3-0.7-0.7-1-0.9s-0.7-0.4-1-0.7c-1.7-1.3-3.7-1.8-5.9-1.7c-2.6,0-5.1,0-7.7,0.1
	c-2.4,0.1-4.8,0.4-7.2,0.6c-1,0.1-2.1,0.1-3.1,0.1c-2.9,0-5.7-0.2-8.6-0.1c-4.4,0.2-8.8,0.2-13.1,0.7c-4.4,0.5-8.8,0.7-13.2,0.7
	c-4.3-0.1-8.6,0-12.9,0.2c-5,0.2-9.9,0.3-14.8,0.1c-4.2-0.2-8.5,0-12.7,0.2c-2.7,0.1-5.4,0.1-8.1,0.2c-5.6,0.2-11.2,0.4-16.8,0.6
	c-1.5,0.1-3,0-4.6-0.1c-0.5,0-1-0.1-1.4-0.1c-5.5,0.3-11-0.2-16.5,0.3c-5.2,0.4-10.5,0.4-15.8,0.5c-5.8,0.1-11.5,0.1-17.3,0.2
	c-3.8,0-7.5-0.5-11.2-0.8c-1-0.1-2.1-0.3-3.1-0.3c-4.1,0-8.1-0.3-12.2-0.7c-1.1-0.1-2.2-0.1-3.4-0.1c-4.9-0.2-9.9-0.5-14.8-0.7
	s-9.7-0.3-14.6-0.4c-4.7-0.2-9.4-0.3-14.1-0.5c-2.6-0.1-5.3-0.3-7.9-0.4c-0.4,0-0.8,0-1.2-0.1c-4.3-1.2-8.8-1.6-13.2-2.1
	c-2.8-0.3-5.6-0.4-8.4-0.7c-0.3,0-0.7,0-0.9-0.2c-1.3-0.9-2.8-0.7-4.2-0.8c-2.6-0.1-5.1-0.1-7.7,0c-4.6,0.1-9.3-0.1-13.9-0.5
	c-3.6-0.3-7.1-1.2-10.6-1.8c-0.3-0.1-0.6-0.2-0.9-0.4c-2.3-2.1-4.7-4.1-5.1-7.5c-0.1-1.1-0.5-2.2-0.9-3.5c0.8-1.7,1.7-3.6,2.5-5.5
	c0.2-0.4,0.3-0.7,0.4-1.1c1.1-3.5,3.2-6.2,6.1-8.4c0.6-0.5,1.3-0.8,2.2-0.9c2.5-0.3,5.1-0.6,7.6-0.7c4.1,0,8.1-0.3,12.2-0.4
	c3.5-0.1,7-0.2,10.5-0.3c4.2-0.1,8.3,0,12.5-0.2c13.6-0.6,27.2-0.1,40.8-0.3c2.2,0,4.3-0.1,6.5,0.1c7.5,0.5,15,0.1,22.5,0.4
	c6,0.2,12,0.2,18,0.3c3.6,0.1,7.2,0.3,10.8,0.4c2.2,0.1,4.5,0.1,6.7,0.2c3.2,0.1,6.4,0.2,9.6,0.3c3.2,0.1,6.4,0.2,9.6,0.3
	c6.1,0.1,12.1,0.3,18.2,0.4c5.8,0.1,11.7,0.3,17.5,0.4c0.4,0,0.8,0,1.2,0c4.7,0,9.4,0,14.1,0c6.6,0,13.1,0,19.7,0
	c5.8,0,11.6-0.3,17.5-0.9c3.4-0.4,6.9-0.4,10.3-0.5c4.5-0.1,8.9-0.1,13.4-0.2c0.8,0,1.6-0.2,2.4-0.3c4.2-0.6,8.4-1.1,12.6-1.3
	c3.1-0.1,6.2-0.5,9.3-0.7c4.1-0.2,8.3-0.5,12.5-0.3c1.4,0.1,2.7,0.1,4.1,0.1c1.3,0,2.5-0.2,3.8-0.4c0.9-0.1,1.7-0.3,2.6-0.4
	c4.8-0.4,9.5-1,14.3-1.7c1.4-0.2,2.9-0.4,4.3-0.4c6.1,0,12.2,0,18.2,0.1c1.4,0,2.7,0.2,4.1,0.8c0.1,0.3,0.2,0.7,0.2,1V0.1H0.8v14.2
	c0.1,0,0.1-0.1,0.2-0.1C2,13.8,3,13.9,4,14z"/>
<path class="st0" d="M703.7,35.9c-4.8-0.1-9.6-0.5-14.4-0.5c-2.4,0-4.8-0.1-7.2-0.1c-2.6,0-5.1,0.1-7.7,0.1c-2.2,0-4.5,0-6.7-0.1
	c-3.2-0.2-6.4-0.5-9.5-0.7c-3.8-0.2-7.7-0.4-11.5-0.7c-3.8-0.2-7.6-0.6-11.5-0.8c-4.1-0.2-8.1-0.4-12.2-0.5
	c-5.3-0.2-10.7-0.3-16-0.4c-1.3,0-2.5,0.1-3.8,0.2c-4.7,0.2-9.4,0.3-14.1,0.5c-4.5,0.1-9.1,0.3-13.6,0.4c-8.4,0.3-16.8,0.1-25.2-0.4
	c-3.2-0.2-6.4-0.6-9.5-0.8c-4.1-0.2-8.3-0.4-12.4-0.6c-3.7-0.2-7.5-0.3-11.2-0.5c-6.8-0.4-13.5-0.9-20.3-1.4
	c-1.6-0.1-3.2-0.4-4.8-0.5c-4.1-0.3-8.1-0.5-12.2-0.8c-2.1-0.2-4.3-0.5-6.4-0.7c-3.8-0.3-7.7-0.5-11.5-0.6c-2.9,0-5.9,0.3-8.9,0.3
	c-5.9,0.1-11.8,0.9-17.7,1.5c-1.8,0.2-3.1,1.1-4.4,2.2c-0.6,0.6-1,1.3-1,2.1c-0.1,1.8,1,3.5,2.8,4.1c0.5,0.2,1.1,0.2,1.6,0.4
	c4.2,0.8,8.5,1.2,12.7,2.2c1,0.2,2,0.3,3.1,0c0.6-0.2,1.3-0.1,1.9-0.1c1.1,0.1,2.2,0.2,3.3,0.3c3,0.3,6,0.5,9.1,0.7
	c2.9,0.2,5.7,0.5,8.6,0.5c6.2,0.1,12.3,0.1,18.5,0.2c2.4,0,4.8,0.1,7.2,0c1.5-0.1,3,0.2,4.5,0.2c5.4-0.1,10.9-0.2,16.3-0.3
	c6.3-0.1,12.6-0.3,18.9-0.5c4.6-0.1,9.1-0.1,13.7-0.2c2.6,0,5.1-0.2,7.7-0.2c5.2-0.1,10.4-0.2,15.6-0.1c3.9,0.1,7.8,0,11.7,0.3
	c3.9,0.4,7.8,0.4,11.7,0.6c3,0.2,6.1,0.3,9.1,0.5c1.8,0.1,1.8,0,3.2-1.2c0.5,0.4,0.9,0.8,1.5,1.3c0.5,0,1.1,0,1.8,0
	c1.7,0,3.4-0.2,5-0.1c4.9,0.3,9.8,0.1,14.6,0.1c3.6,0,7.2-0.2,10.8-0.4c3-0.1,5.9-0.4,8.8-0.5c3.3-0.2,6.7-0.3,10-0.5
	c6.1-0.4,12.2-1,18.3-1.8c2.1-0.3,4.3-0.4,6.4-0.5c4-0.2,8-0.3,12-0.5c3.2-0.1,6.4-0.6,9.5-1.1c0.9-0.2,1.7-0.5,2.5-0.7
	c0.1,0.3,0.1,0.1,0.1-0.2c-0.8,0-1.5,0-2.3,0C708.1,35.8,705.9,35.9,703.7,35.9z"/>
<path class="st0" d="M792,28.4c0,0.1-0.1,0.3-0.1,0.4c-2.3-0.3-4.5-0.6-6.7-0.7c-1.3-0.1-2.6-0.2-3.8,0c-2.3,0.3-4.6,0.3-6.9,0.4
	c-1.4,0-2.9,0.3-4.3,0.4c-0.9,0.1-1.7,0.3-2.6,0.3c-2.7-0.1-5.3,0.3-7.9,0.7c-0.4,0.1-0.8,0.1-1.2,0.1c-5.8,0.2-11.6,1-17.4,1.9
	c-1,0.2-2.1,0.1-3.1,0.1c-1.7,0-3.3,0-5,0.3c-2.2,0.3-4.4,0.4-6.7,0.7c-1,0.1-2.1,0.3-3.1,0.5c-0.1,0-0.2,0.2-0.4,0.4
	c0.2,0.1,0.3,0.3,0.5,0.4c0.4,0.1,0.8,0.1,1.2,0.1c3.4,0.2,6.9,0.4,10.3,0.5c0.2,0,0.5,0,0.7,0c3.6,0.7,7.3,0.4,11,0.5
	c3.2,0,6.4,0.4,9.5,1c0.9,0.2,1.9,0.4,2.8,0.5c2,0.3,3.8,1.2,5.2,2.7c0.5,0.5,1,1,1.5,1.6c0.6,0.8,1.4,1.6,1.8,2.5
	c1.2,3.1,2.3,6.3,2,9.8c0,0.2-0.1,0.5-0.1,0.7c-0.6,4.8,0.1,3.2-3.1,7c-0.7,0.9-1.7,1.5-2.7,1.9c-2.5,1-5,2.1-7.6,3
	c-1.5,0.5-3.1,0.7-4.7,1c-3.1,0.6-6.1,1.3-9.1,2.2c-1.5,0.5-3.1,0.9-4.7,1.1c-6.2,0.7-12.4,1.4-18.6,2c-3.4,0.3-6.9,0.3-10.3,0.6
	c-2.6,0.2-5.3,0.4-7.9,0.6c-4.1,0.3-8.3,0.6-12.4,0.9c-3.5,0.2-7,0.4-10.5,0.5c-5.3,0.1-10.5,0-15.8,0c-7.7,0-15.4-0.2-23-0.2
	c-6.6,0-13.3,0.1-19.9,0.2c-3.7,0.1-7.5,0.3-11.2,0.4c-2,0.1-4-0.1-6-0.1c-2.8,0-5.6,0.1-8.4,0.2c-0.8,0-1.6-0.1-2.4-0.1
	c-4.5-0.4-9.1-1-13.6-1.3c-5.5-0.5-11-0.8-16.5-1.2c-3.3-0.2-6.5-0.5-9.8-0.8c-4.8-0.4-9.6-0.7-14.3-1.1c-2.3-0.2-4.6-0.5-6.9-0.7
	c-1.6-0.2-3.2-0.3-4.8-0.5c-5-0.4-10-0.8-15.1-1.2c-3-0.3-6-0.5-9.1-0.9c-3-0.3-6-0.7-9-1c-4.7-0.6-9.3-1.2-14-1.7
	c-2.2-0.3-4.5-0.3-6.7-0.5c-9.9-0.9-19.8-0.8-29.7,0c-2.2,0.2-4.5,0.1-6.6,0.8c-0.2,0.1-0.4,0.2-0.6,0.2c-0.6,0.7-0.7,1.5-0.6,2.3
	c0.1,0.8,0.4,1.5,0.6,2.3c0.3,1.4,1.2,2.1,2.6,2.5c2.9,0.7,5.8,1.6,8.8,2.4c0.9,0.3,1.9,0.5,2.8,0.6c4.1,0.4,8.3,0.9,12.4,1.2
	c4.5,0.3,9.1,0.7,13.6,1.3c3.6,0.5,7.2,0.5,10.7,0.7c0.6,0,1.3,0,1.9,0.1c2,0.2,4,0.2,6,0c2.8-0.3,5.6-0.3,8.4-0.2
	c4,0.1,8,0.4,12,0.6c3,0.1,5.9,0.4,8.8,0.7c2,0.2,4,0.1,6,0.2c3,0.1,5.9,0.2,8.9,0.4c4.7,0.2,9.4,0.4,14.1,0.7
	c2.9,0.2,5.7,0.5,8.6,0.7c2.1,0.1,4.2,0.2,6.2,0.3c3.8,0.2,7.6,0.6,11.5,0.8c3.7,0.1,7.4,0.1,11,0.1c2,0,4,0.1,6,0.1
	c3,0,6.1-0.1,9.1-0.1c2.7,0,5.4,0,8.2,0c3.8,0,7.5-0.2,11.3,0c3.8,0.1,7.7,0,11.5,0.4c2.4,0.3,4.8,0.2,7.2,0.2
	c4.4,0.1,8.8,0.3,13.2,0.5c3.5,0.1,7,0.3,10.5,0.5c3.6,0.2,7.2,0.5,10.8,0.7c1.7,0.1,3.4,0.1,5,0.2c4.3,0.2,8.6,0.3,12.9,0.5
	c4.1,0.3,8.1,0.7,12.2,1.1c2.5,0.2,4.9,0.4,7.4,0.6c3.3,0.3,6.7,0.6,10,0.9c2.9,0.3,5.9,0.5,8.8,0.7c6.4,0.5,12.9,1.4,19.2,2.5
	c3.7,0.7,7.4,1.2,11,2.3c2.6,0.8,5.2,1.7,7.7,2.7c1.7,0.7,3.2,1.9,4.3,3.3c2.1,2.6,3.7,5.6,4.8,8.8c0.7,2.1,0.3,4.2-0.6,6.1
	c-0.5,1.1-1.6,2-2.7,2.7c-3.2,2-6.4,3.9-9.8,5.5c-1.3,0.6-2.6,1.1-4.1,1.2c-0.9,0-1.9,0.4-2.8,0.7c-2.8,1-5.6,1.6-8.7,1.7
	c-4.1,0.1-8.3,0.6-12.4,0.7c-3.2,0.1-6.4,0.1-9.6-0.1c-5.1-0.3-10.2-0.8-15.3-1c-4-0.2-8-0.6-11.9-1.2c-0.5-0.1-1-0.1-1.4-0.1
	c-4.8-0.1-9.6-0.1-14.4-0.2c-3.5-0.1-7-0.2-10.5-0.3c-3.3-0.1-6.6-0.2-9.8-0.4c-4.5-0.2-8.9-0.5-13.4-0.7c-1.9-0.1-3.8-0.3-5.7-0.4
	c-3.6-0.2-7.2-0.3-10.8-0.5c-4.9-0.3-9.9-0.5-14.8-0.9c-4.2-0.3-8.5-0.6-12.7-1c-7.1-0.7-14.3-1.5-21.4-2.2
	c-4.2-0.4-8.4-0.6-12.7-0.9c-2.1-0.2-4.3-0.4-6.4-0.6c-0.2,0-0.3,0-0.5,0c-4.6-0.2-9.3-0.4-13.9-0.6c-3.3-0.2-6.5-0.5-9.8-0.7
	c-1.1-0.1-2.2-0.1-3.4-0.1c-3.8-0.2-7.6-0.6-11.5-0.7c-5.9-0.3-11.8-0.4-17.7-0.7c-3.8-0.2-7.6-0.6-11.5-0.8
	c-3.7-0.2-7.3-0.3-11-0.5c-1.5-0.1-3-0.2-4.5-0.3c-1.4-0.1-2.9-0.2-4.3-0.3c-1-0.1-2.1,0-3.1-0.1c-2.3-0.2-4.6-0.1-6.9-0.2
	c-4.3-0.1-8.6-0.3-12.9-0.5c-3-0.1-6.1-0.3-9.1,0.1c-3.6,0.5-7.2,0.3-10.8,0.2c-4.9-0.1-9.9-0.3-14.8-0.3c-1.4,0-2.7,0.2-4.1,0.2
	c-2.8,0.1-5.6,0.1-8.4,0.3c-1.2,0-2.4,0.2-3.6,0.3c-1.1,0.1-1.8,0.6-2.2,1.6c-0.6,1.6-0.7,3.3-0.3,4.9c0.4,1.4,1.4,2.3,2.6,3
	c1.8,1.1,3.8,1.6,5.9,1.9c3.1,0.5,6.3,0.9,9.5,1.1c5,0.3,10.1,0.3,15,1.2c0.5,0.1,1.1,0.2,1.7,0.1c3-0.1,5.9,0.4,8.8,0.7
	c2.4,0.3,4.8,0.4,7.2,0.6c0.9,0.1,1.8,0.1,2.6,0.1c1.7,0,3.4,0,5,0.1c2.6,0.1,5.1,0.2,7.7,0.4c4.6,0.3,9.2,0.7,13.9,0.6
	c1.3,0,2.6,0,3.8-0.2c2.2-0.4,4.3-0.3,6.5-0.2c2,0,4,0,6,0.1c4,0.2,8-0.3,12-0.1c1.4,0.1,2.7,0.2,4.1,0.3c3.2,0.1,6.4,0.2,9.6,0.2
	c5.7,0,11.3,0.3,17,0.9c3.7,0.4,7.5,0.9,11.2,1.3c2.3,0.3,4.6,0.4,6.9,0.7c1.7,0.2,3.5,0.4,5.2,0.6c4.1,0.5,8.3,1,12.4,1.4
	c2.6,0.3,5.2,0.5,7.9,0.8c0.9,0.1,1.8,0.1,2.6,0.2c2.5,0.2,4.9,0.4,7.4,0.6c1.4,0.1,2.7,0.2,4.1,0.4c1.5,0.1,3,0.2,4.5,0.4
	c3.2,0.4,6.4,0.5,9.6,0.6c3.5,0.1,7,0.5,10.5,0.7c1.1,0.1,2.2,0.2,3.4,0.2c7.2,0.1,14.4,0.1,21.6-0.2c3.8-0.1,7.5-0.2,11.3-0.3
	c0.2,0,0.5,0,0.7,0c2.8-0.2,5.6-0.3,8.4-0.2c3,0.1,6.1-0.2,9.1-0.3c1.8-0.1,3.7,0,5.5-0.1c7.6-0.4,15.2-0.6,22.8-0.5
	c2.3,0,4.6,0.5,6.9,0.9c5.3,0.8,10.6,1.7,15.9,2.5c3.2,0.5,6.3,0.8,9.5,1.1c3.8,0.3,7.6,1,11.4,1.6c4.2,0.7,8.2,2,12.3,3.2
	c3.1,0.9,5.9,2.5,8.7,3.9c1.8,0.9,3.5,2,5.2,2.9c1.1,0.6,2,1.5,2.8,2.6c0.9,1.3,1.4,2.6,1.4,4.2c-0.1,3.4-0.1,6.9,0,10.3
	c0,1.5-0.5,2.7-1.4,3.7c-1.4,1.6-3,2.8-5.2,3.3c-2.3,0.5-4.6,1.2-7,1.6c-2.2,0.4-4.4,0.5-6.7,0.8c-5.6,0.7-11.2,0.9-16.8,0.5
	c-3.3-0.3-6.5-0.6-9.8-0.9c-4.9-0.4-9.9-0.7-14.8-1c-2.1-0.2-4.1-0.4-6.2-0.6c-4.9-0.5-9.9-1.1-14.8-1.5c-1.4-0.1-2.7-0.2-4.1-0.2
	c-4.9-0.2-9.7-0.3-14.6-0.5c-2.8-0.1-5.6-0.3-8.4-0.5c-2.3-0.2-4.6-0.4-6.9-0.6c-6.6-0.6-13.2-1.2-19.8-1.9c-4.6-0.5-9.2-1-13.8-1.4
	c-3-0.3-6.1-0.4-9.1-0.7c-2.5-0.2-5.1-0.6-7.6-0.8c-1.7-0.2-3.5-0.2-5.3-0.4c-5.2-0.4-10.3-0.9-15.5-1.4c-0.8-0.1-1.6-0.1-2.4-0.2
	c-5.3-0.3-10.5-0.7-15.8-1.4c-3.3-0.5-6.7-0.8-10-1.1c-3.9-0.4-7.8-0.8-11.7-1.2c-1.7-0.2-3.3-0.2-5-0.3c-8.1-0.3-16.1-0.6-24.2-0.9
	c-1,0-1.9,0-2.9-0.1c-4.9-0.1-9.7-0.2-14.6-0.4c-1.9,0-3.8-0.1-5.8-0.2c-5.4-0.2-10.7-0.4-16.1-0.5c-6.1-0.2-12.1-0.2-18.2-0.4
	c-5.1-0.2-10.2-0.6-15.3-0.7c-4.5-0.1-9-0.2-13.4,0c-2,0.1-4,0-5.9,0.9c-0.6,1.2-0.5,2.4,0.1,3.6c0.5,1,1.2,1.7,2.4,1.8
	c1.7,0.2,3.3,0.5,5,0.6c5.6,0.1,11.2,0.1,16.8,0.2c1.1,0,2.2,0.1,3.3,0.3c4.5,0.9,9.1,1.8,13.7,2.2c0.5,0,1,0.1,1.4,0.1
	c4.7,0.1,9.4,0.1,14.1,0.2c2.2,0,4.5-0.2,6.7-0.1c2.3,0,4.6,0.3,6.9,0.4c1.8,0.1,3.7,0.1,5.5,0.2c3,0.2,6.1,0.4,9.1,0.6
	c3.3,0.2,6.7,0.5,10,0.8c3.3,0.3,6.5,0.6,9.8,0.8c4,0.3,8,0.6,11.9,1c5.1,0.5,10.1,1.3,15.1,2.5c1.6,0.4,3.3,0.7,5,0.8
	c4.4,0.4,8.8,0.7,13.1,1.1c3.7,0.4,7.3,0.8,11,1.2c3.3,0.4,6.7,0.7,10,1.1c3.4,0.4,6.8,0.7,10.2,1.1c4,0.4,7.9,0.9,11.9,1.3
	c1.9,0.2,3.8,0.6,5.7,0.8s3.8,0.2,5.7,0.3c0.6,0,1.3,0,1.9,0.2c2.1,0.7,4.2,0.7,6.4,0.6c1.3,0,2.6,0,3.8,0.2
	c4.6,0.7,9.2,1.4,13.7,2.1c3.5,0.5,7,1,10.4,1.5c2.3,0.3,4.6,0.7,6.9,1.1c4.8,0.7,9.6,1.5,14.5,2.1c3.2,0.4,6.4,0.8,9.5,0.8
	c3.5,0,7-0.1,10.5-0.1c6.9,0,13.7,0.9,20.4,2.3c1.9,0.4,3.7,1,5.5,1.6c4,1.3,8.1,2.6,11.8,4.5c1.1,0.5,2.1,1.1,3.2,1.7
	c1.2,0.7,2,1.7,1.9,3.3c-0.1,0.7,0,1.4,0.1,2.2c0.1,2.5-0.8,4.6-2.7,6.1c-4.1,3.3-8.6,5.1-14,4.1c-2.4-0.4-4.7-0.7-7.1-0.9
	c-4.2-0.3-8.4-0.6-12.7-0.8c-3.2-0.2-6.4-0.2-9.6-0.3c-4.6-0.2-9.2-0.5-13.9-0.8c-4.6-0.2-9.3-0.4-13.9-0.7
	c-6.9-0.4-13.9-0.4-20.8-0.6c-5.5-0.1-11-0.2-16.5-0.4c-8-0.2-16-0.3-24-0.6c-3.3-0.1-6.5-0.5-9.8-0.7c-1.6-0.1-3.2-0.2-4.8-0.3
	c-4.3-0.3-8.6-0.6-12.9-0.8c-3-0.1-6.1,0.1-9.1-0.1c-4-0.4-8-0.2-11.9-0.4c-3.4-0.2-6.9-0.3-10.3-0.4c-7-0.2-14.1-0.5-21.1-0.6
	c-5.3-0.1-10.6-0.2-15.8-0.3c-4.5-0.1-8.9-0.2-13.4-0.7c-1.3-0.1-2.7-0.1-4.1-0.1c-2.1,0-4.2,0-6.2,0c-1.8,0-3.7-0.3-5.5,0.4
	c-0.4,0.1-1,0.1-1.4,0c-3.1-0.6-6.2-0.3-9.3-0.3c-5.4-0.1-10.7-0.2-16.1,0.1c-5.1,0.3-10.2-0.1-15.3-0.3c-5-0.2-9.9-0.3-14.9-0.4
	c-3.9-0.1-7.8,0.3-11.7,0.7c-3.4,0.4-6.8,0.8-10.2,1.2c-2.2,0.3-3.7,1.7-4.9,3.5c-0.5,0.8-0.4,1.7-0.3,2.6c0.1,0.7,0.7,1,1.3,1.3
	c2.6,1,5.2,2.1,8,2.3c3.6,0.3,7.1,0.7,10.7,1c3.5,0.2,7-0.2,10.5-0.7c0.5-0.1,0.9-0.2,1.4-0.2c8,0,16,0,24,0c1.1,0,2.2,0,3.4,0
	c4.1,0,8.1-0.1,12.2,0.3c2.5,0.2,5.1,0.1,7.7,0.2c3,0.1,5.9-0.1,8.9,0.3c0.7,0.1,1.4,0,2.2,0c5.9,0,11.8,0,17.8,0
	c4.4,0,8.8-0.2,13.2-0.3c5-0.1,9.9-0.2,14.9-0.2c2.2,0,4.5,0.2,6.7,0.3c0.2,0,0.5,0,0.7,0c7.9-0.3,15.8,0.4,23.7,0.3
	c0.5,0,1,0,1.4,0c2.6,0.4,5.3,0.4,7.9,0.5c3.5,0.1,7,0.3,10.5,0.3c6.2,0.1,12.5,0,18.7,0.1c4.9,0.1,9.7,0.3,14.6,0.3
	c7.3,0,14.7-0.1,22-0.4c2.1-0.1,4.1-0.4,6.2-0.1c0.2,0,0.5,0,0.7,0c2.4-0.5,4.8,0,7.2,0.1c2.7,0.1,5.4,0.4,8.1,0.3
	c3.5-0.1,6.9,0.5,10.3,0.8c4.6,0.4,9.2,0.9,13.8,1.3c3,0.3,6,0.5,9.1,0.7c0.6,0,1.1,0,1.7,0.1c4.3,0.3,8.6,0.6,12.9,0.9
	c2.4,0.1,4.8,0.1,7.2,0.3c6.4,0.5,12.9,0.7,19.3,1.8c0.9,0.1,1.8,0.2,2.6,0.1c2.7-0.2,5.3,0.3,7.8,1c1.1,0.3,2.3,0.8,3.4,1.3
	c2.8,1.1,4.4,3.2,5,6.2c0.4,2.1,0.1,4.1-0.5,6.1c-0.4,1.1-0.6,2.2-1,3.2c-0.4,0.9-0.8,1.7-1.4,2.5c-0.7,0.9-1.7,1.5-2.9,1.4
	c-1-0.1-1.9,0.2-2.8,0.6c-3,1.3-6.3,1.9-9.5,2.2c-9.6,1-19.1,1.3-28.7,1.4c-4.4,0.1-8.8,0.2-13.1,0.2s-8.6-0.2-12.9-0.1
	c-6.1,0.2-12.2,0.2-18.2,0.9c-5.2,0.6-10.3,1.1-15.5,1.4c-5.9,0.2-11.8,0.4-17.7,0.6c-3.8,0.2-7.7,0.4-11.5,0.6
	c-2.2,0.1-4.5,0.1-6.7,0.2c-4.2,0.1-8.5,0.2-12.7,0.4c-2.8,0.1-5.6,0.3-8.4,0.4c-1.8,0.1-3.5,0-5.3-0.1c-3.4-0.1-6.9-0.2-10.3-0.3
	c-4.8-0.1-9.6-0.7-14.3-1c-3.9-0.2-7.8-0.5-11.7-0.6c-6.5-0.2-13.1-0.4-19.7-0.5c-4.2-0.1-8.3,0-12.5,0c-1.4,0-2.7-0.1-4.1-0.2
	c-0.3,0-0.6,0-1,0c-5.1,0.3-10.2-0.2-15.3-0.5c-2.6-0.1-5.1-0.1-7.7-0.2c-4-0.1-8-0.3-12-0.5c-4.7-0.2-9.4-0.6-14.1-0.6
	c-7.1-0.1-14-1.6-20.9-2.8c-7-1.2-13.9-2.9-20.9-4.3c-5.5-1.1-11-1.8-16.6-2.2c-1.6-0.1-3,0.1-4.4,0.8c-1.4,0.7-2.8,1.3-4,2.1
	c-2.4,1.7-2.8,4.5-1.1,6.9c0.5,0.6,1.2,0.9,1.8,1.1c2.5,0.8,5,1.7,7.6,2.3c3.6,0.9,7.1,1.8,10.8,2.4c4.3,0.7,8.7,1.3,13.1,1.4
	c3.8,0.1,7.7,0.5,11.5,0.7c4.5,0.3,8.9,0.5,13.4,0.7c3.3,0.2,6.5,0.5,9.8,0.7c0.6,0,1.1,0.1,1.7,0.1c5.4,0.1,10.7,0.1,16.1,0.2
	c1.8,0,3.7,0.2,5.5,0.2c8.6-0.1,17.3,0.2,25.9,0.1c3.4-0.1,6.9-0.2,10.3-0.4c4-0.2,8-0.4,12-0.6c3.3-0.2,6.7-0.5,10-0.7
	c3.7-0.3,7.5-0.5,11.2-0.8c4-0.3,8-0.6,12-0.8c4.5-0.2,9.1-0.4,13.6-0.6c4.2-0.2,8.3-0.3,12.5-0.4c5.9,0,11.8,0,17.8,0.1
	c7.4,0.1,14.9,0.3,22.3,0.5c4.5,0.1,8.9,0.5,13.4,0.7c2.4,0.1,4.8,0.2,7.2,0.2c3,0.1,6.1,0.2,9.1,0.3c3.6,0.1,7.2,0.3,10.8,0.3
	c3.4,0,6.9-0.3,10.3-0.3c4.6,0,9.1-0.1,13.7,0.1c3.6,0.1,7.2,0.6,10.7,0.9c0.3,0,0.6,0.1,1,0.1c4.8,0.9,9.6,1.8,14.3,2.8
	c2,0.4,3.9,0.9,5.7,1.9c0.3,0.2,0.7,0.3,1.1,0.4c2.5,0.5,5,1.1,7.5,1.6c1.1,0.2,1.9,0.8,2.6,1.6c1,1.2,2.1,2.4,3.2,3.6
	c0.7,0.8,0.9,1.7,1,2.6c0.2,2.3-0.6,4.3-2,6c-4,4.7-9,7.4-15.3,7.1c-3.1-0.1-6.2-0.3-9.3-0.2c-5.5,0.2-11,0.4-16.5,0.5
	c-7.7,0.2-15.3,0.3-23,0.4c-7.1,0.1-14.2,0.3-21.3,0.5c-7.2,0.2-14.4,0.3-21.6,0.5c-9,0.2-18.1,0.4-27.1,0.5
	c-6.3,0.1-12.6-0.1-18.9-0.2c-5.8-0.1-11.5-0.2-17.3-0.4c-5-0.1-10.1-0.2-15.1-0.3c-3.3-0.1-6.6-0.1-9.8-0.1c-6.3,0-12.6,0.1-19,0.1
	c-3.5,0-7,0-10.5,0c-3,0-6,0.2-9.1,0.2c-0.6,0-1.3,0-1.9,0c-4.1-0.4-8.3-0.2-12.5-0.2s-8.3-0.1-12.5,0c-1.8,0-3.5,0.3-5.3,0.3
	c-14.1,0-28.2,0-42.2,0c-8.2,0-16.3,0.1-24.5,0c-7.7-0.1-15.3-0.5-23-0.7c-5.2-0.1-10.4-0.2-15.6,0.1c-3.9,0.3-7.8,0.2-11.7,0.3
	c-3.4,0-6.7,0-10.1,0.1c-4.1,0-8.1,0.2-12.2,0.2c-10.7-0.1-21.4-0.3-32.1-0.5c-9.1-0.1-18.2-0.3-27.3-0.5c-1,0-1.9-0.1-2.9-0.1
	c-3.8,0-7.7,0.1-11.5,0.1c-5.1,0-10.2,0-15.3,0c-9.1-0.1-18.2-0.2-27.3-0.4c-4-0.1-8,0-12-0.1c-6.7-0.2-13.4-0.2-20.1-0.2
	c-7.7,0.1-15.3,0.1-23,0.2c-3.4,0-6.9,0.1-10.3,0.2c-1.8,0.1-3.7,0.2-5.5,0.3c-3.1,0.2-6.2,0.1-9.3,0c-0.2,0-0.5,0-0.7,0
	c-2.1,0.3-4.3,0.4-6.4,0.2c-1.5-0.1-3,0.1-4.5,0c-3.2-0.2-6.4-0.4-9.6-0.5c-4.2,0-8.5,0.2-12.7,0.3c-3,0-6.1,0.1-9.1,0
	c-7-0.1-13.9-0.1-20.9-0.2c-2.9,0-5.7,0-8.6,0c-4.9,0-9.9-0.1-14.8-0.1c-3.6,0-7.2,0-10.8,0c-1.1,0-2.2-0.2-3.3-0.6
	c-0.9-0.4-1.8-0.6-2.7-0.9c-4.3-1.3-8.7-2.7-13-4c-3.6-1.1-7.1-2.4-10.9-2.8c-2.6-0.3-4.3-1.8-5.4-4.2c-1.4-3.2-1.3-3.2-0.5-6.4
	c0.9-3.3,3-5.5,5.8-7.3c5.2-3.3,10.8-5.5,16.7-7.1c3.5-0.9,7-1.4,10.6-1.8c4.7-0.5,9.4-0.6,14.1-0.5c4.6,0.2,9.3,0.5,13.9,0.8
	c1.7,0.1,3.4,0.1,5,0.2c6.5,0.5,13.1,0.3,19.7,0.3c6.1,0,12.2,0,18.2,0c5.1,0,10.2,0,15.3,0c4.9,0,9.7,0.1,14.6,0.2
	c3.3,0.1,6.5,0.2,9.8,0.4c3.9,0.1,7.8,0.2,11.7,0.4c2.3,0.1,4.6,0.4,6.9,0.6c3.6,0.3,7.2,0.6,10.7,0.9c3.3,0.3,6.7,0.6,10,0.9
	c6.9,0.7,13.8,1.4,20.7,2c7.5,0.7,14.9,1.5,22.4,2.2c1.8,0.2,3.7,0.1,5.5,0.2c3.7,0.1,7.3,0.3,11,0.4c5.9,0.2,11.8,0.4,17.7,0.6
	c4.1,0.2,8.1,0.5,12.2,0.6c4.7,0.1,9.4,0.1,14.2,0.2c6.3,0.1,12.6,0.3,18.9,0.4c4.6,0.1,9.3,0.2,13.9,0.2c5.8-0.1,11.6-0.7,17.4-1.7
	c3.5-0.6,6.9-1.4,10.3-2.2c1-0.2,2-0.4,2.8-1.3c-0.1-0.3-0.1-0.5-0.3-0.7c-2-2.3-4.3-4.2-7.1-5.7c-0.5-0.3-1-0.5-1.5-0.8
	c-1.8-1-3.7-1.4-5.8-1.2c-2.7,0.3-5.4,0.2-8.1,0.5c-6.3,0.6-12.5,1.4-18.8,2.1c-4.7,0.5-9.4,0.9-14.1,1.2c-2.9,0.2-5.7,0.3-8.6,0.4
	c-3.5,0.2-7,0.1-10.5-0.5c-0.6-0.1-1.3-0.2-1.9-0.2c-4.5-0.3-9.1-0.6-13.6-0.9c-1.4-0.1-2.9,0.1-4.3,0.2c-1.7,0.1-3.4,0.1-5,0.2
	c-7,0.2-14.1,0.4-21.1,0.4c-4,0.1-8,0.4-12,0.7c-3,0.2-6.1,0.3-9.1-0.2c-1.8-0.3-3.7-0.4-5.5-0.4c-3-0.1-6.1-0.1-9.1-0.2
	c-1.8-0.1-3.5-0.2-5.3-0.2c-6.8,0-13.6,0-20.4-0.1c-6.8-0.1-13.6-0.5-20.3-1.3c-3.6-0.4-7.3-0.8-11-1.2c-3.8-0.4-7.6-0.7-11.5-1.1
	c-3-0.3-6-0.6-9.1-1c-4.9-0.6-9.9-0.8-14.8-1c-3-0.1-6.1-0.3-9.1-0.5c-3.5-0.2-7-0.5-10.5-0.8c-3-0.3-6-0.6-9.1-0.9
	c-8.2-0.6-16.4-0.7-24.7-0.3c-6.3,0.3-12.6,0.3-18.9,0.2c-4.3,0-8.6-0.2-12.9-0.3c-3.5-0.1-7-0.3-10.5-0.6c-4-0.3-7.9-1.2-11.6-2.9
	c-1.6-0.7-2.8-1.8-3.4-3.5s-1.2-3.3-1.8-4.9c-0.3-0.8-0.3-1.5-0.1-2.3c0.5-2.1,0.9-4.2,1.3-6.3c0.2-1.1,0.9-1.8,1.8-2.5
	c1-0.7,2-1.2,3.2-1.5c2.6-0.6,5.1-1.3,7.7-1.8c1.9-0.4,3.8-0.5,5.7-0.7c5.9-0.7,11.8-0.9,17.7-1.1c3.4-0.1,6.7-0.3,10.1-0.4
	c3.8-0.1,7.7-0.2,11.5-0.4c4-0.2,8-0.5,12-0.8c5-0.3,10-0.7,15.1-0.9c5.5-0.2,11-0.3,16.5-0.4c1.1,0,2.2,0.1,3.3,0.2
	c3.1,0.2,6.2,0.3,9.3,0.5c2.2,0.1,4.5,0.4,6.7,0.6c5.5,0.4,11,0.8,16.5,0.9c3.4,0,6.9,0.3,10.3,0.4c0.2,0,0.3,0,0.5,0
	c6.2,0.2,12.3,0.3,18.5,0.5c2.9,0.1,5.7,0.3,8.6,0.3c3.8,0,7.5-0.1,11.3-0.1c2.2,0,4.3,0.1,6.5,0.1c2.7,0.1,5.4,0.1,8.2,0.2
	c2.6,0.1,5.3,0.2,7.9,0.3c3.6,0.1,7.2,0.1,10.8,0.2c3.1,0.1,6.2,0.4,9.3,0.6c3.1,0.2,6.2,0.4,9.3,0.7c2.4,0.2,4.8,0.4,7.2,0.6
	c4.1,0.2,8.1,0.4,12.2,0.6c0.2,0,0.5,0,0.7,0c5.3,0.8,10.7,0.4,16,0.8c1.6,0.1,3.2,0.3,4.8,0.3c2,0.1,4,0.2,6,0.1
	c1.2-0.1,2.4,0,3.6,0.1c5.1,0.2,10.2,0.4,15.3,0.7c3.7,0.2,7.5,0.6,11.2,0.8c4.5,0.3,8.9,0.8,13.3,1.8c2.6,0.6,5.2,0.7,7.9,0.5
	c3.1-0.3,6.2,0,9.3,0.4c3,0.4,5.9-0.1,8.8-0.8c1.2-0.3,2.2-0.9,3.1-1.7c2-1.9,1.4-4.7-1.3-5.4c-2.2-0.6-4.5-1-6.8-1.2
	c-3.3-0.2-6.5-0.7-9.7-1.2c-5.3-0.9-10.6-1-16-0.9c-8.1,0-16.2,0.1-24.2,0c-4.8,0-9.6-0.1-14.4-0.5c-5-0.4-9.9-0.2-14.9-0.3
	c-3.3-0.1-6.5,0.3-9.8,0.5c-5.1,0.2-10.2,0.5-15.3,0.4c-0.6,0-1.3,0-1.9-0.2c-2.2-0.7-4.4-0.8-6.6-0.8c-4-0.1-8-0.3-12-0.4
	c-3-0.1-6.1,0-9.1-0.1c-5.2-0.1-10.4-0.2-15.6-0.4c-4.3-0.1-8.6-0.1-12.9-0.2c-8.5-0.1-16.9-0.3-25.4-0.4c-7-0.1-13.9,0-20.9,0.1
	c-5,0-10.1-0.4-15.1-0.8c-1.8-0.1-3.7-0.1-5.5-0.2c-3.9-0.2-7.8-0.4-11.7-0.5c-6.6-0.2-13.1-0.3-19.7-0.6c-6-0.2-12-0.6-18-0.9
	c-4.4-0.2-8.8-0.4-13.2-0.6c-4.7-0.2-9.4-0.5-14.1-0.8c-1-0.1-1.9-0.3-2.8-0.4c-5.2-0.5-10.4-0.8-15.5-1.5c-5-0.6-9.9-1.7-14.5-3.9
	c-0.9-0.5-1.8-1-2.7-1.6c-0.7-0.4-1.2-1.1-1.4-1.9c-0.3-1.2-0.6-2.3-0.9-3.5c-0.3-1-0.1-1.5,0.8-2c0.5-0.3,1-0.6,1.5-0.8
	c1.6-0.6,3.1-1.3,4.7-1.7c4.9-1.3,9.8-2,14.9-2.6c4.1-0.4,8.1-0.4,12.2-0.6c2.5-0.1,4.9,0.2,7.4,0.4c2.4,0.2,4.8,0.5,7.1,0.8
	c0.6,0.1,1.1,0.2,1.6,0.3c3,0.5,6,0.8,9.1,0.3c1.6-0.3,3.2-0.1,4.8-0.2c2.2-0.1,4.5-0.3,6.7-0.4c2-0.1,4-0.1,6-0.1
	c4.9,0,9.8,0,14.6,0c6.2-0.1,12.3-0.3,18.5-0.4c3.5-0.1,7-0.1,10.6-0.1c1.1,0,2.2-0.1,3.3-0.2c4.1-0.2,8.1-0.5,12.2-0.7
	c5-0.2,9.9-0.4,14.9-0.4c3.9,0,7.8,0.2,11.7,0.4c4.9,0.2,9.9,0.5,14.8,0.7c2.7,0.1,5.4,0.3,8.1,0.5c3.6,0.2,7.2,0.2,10.8,0.4
	c3,0.2,6,0.5,9.1,0.7c4.9,0.3,9.9,0.9,14.8,0.3c0.8-0.1,1.6-0.1,2.4-0.1c7.7-0.3,15.5-0.6,23.3-0.5c3.6,0,7.2,0.2,10.8,0.2
	c2.4,0.1,4.8,0.3,7.2,0.1c2.8-0.2,5.6,0.1,8.3,0.1c4.1,0,8.2,0,12.2,0.1c2.5,0.1,4.9,0.4,7.4,0.5c3.6,0.2,7.2,0.5,10.8,0.5
	c4.2,0,8.5,0.1,12.7-0.6c3.3-0.6,6.5-0.5,9.8-0.4c3,0.1,5.9,0,8.9,0.1c1.5,0,3,0.3,4.5,0.3c2.2,0,4.5-0.1,6.7-0.3
	c1.5-0.1,3-0.4,4.5-0.8c1.6-0.5,2.9-1.6,3.9-3c-0.2-0.7-0.8-1-1.4-1.3c-1.8-0.8-3.7-1-5.6-1.3c-6.2-0.8-12.5-0.5-18.7-0.4
	c-5.7,0.1-11.5,0.3-17.2,0.4c-2.8,0.1-5.6-0.1-8.4,0.2c-2.1,0.2-4.3,0-6.5,0c-4.3,0-8.6,0.1-12.9,0.4c-3.6,0.3-7.2,0.2-10.8,0.3
	c-2.9,0.1-5.7-0.2-8.6,0.2c-1,0.1-2.1-0.2-3.1-0.2c-3.6,0-7.2-0.1-10.8,0c-2.4,0.1-4.8-0.1-7.1,0c-2.3,0-4.6,0-7,0
	c-4.2,0-8.5-0.1-12.7,0c-3.8,0.1-7.5,0.4-11.3,0.5c-4.9,0.2-9.7,0.4-14.6,0.4c-6.5,0-12.9-0.1-19.4-0.2c-5.6-0.1-11.2-0.3-16.8-0.4
	c-3.1-0.1-6.2,0-9.3,0c-2.1,0-4.2-0.1-6.2-0.1c-4.9,0-9.8,0-14.6,0c-5.1-0.1-10.2-0.2-15.3-0.3c-5.3-0.1-10.7-0.3-16-0.5
	c-3.1-0.1-6.2-0.4-9.3-0.6c-1.7-0.1-3.3-0.2-5-0.3c-2.6-0.1-5.1-0.3-7.7-0.4c-3.7-0.1-7.5-0.2-11.2,0.1c-0.6,0.1-1.3,0-1.9,0
	c-5.6-0.3-11.2-0.6-16.8-0.9c-5.2-0.4-10.4-0.8-15.5-1.3c-4.1-0.4-8.2-1.5-12.1-2.7c-0.9-0.3-1.8-0.6-2.8-0.8c-4.1-1-8-2.8-11.8-4.7
	c-1.5-0.7-2.6-1.8-3.2-3.4c-0.6-1.7-1.2-3.3-1.8-5c-0.4-1.2-0.4-2.4-0.1-3.6c0.6-2.9,1.7-5.7,3.5-8.1c1.5-2.1,3.5-3.7,6-4.6
	c2.8-1,5.5-2.1,8.4-2.9c2.9-0.8,5.8-1.3,8.7-1.7c6.2-0.9,12.4-1.1,18.7-0.8c5.2,0.3,10.4,0.5,15.6,0.2c4.1-0.3,8.3-0.5,12.4-0.7
	c2-0.1,4,0,6,0.3c5.8,0.9,11.5,1.7,17.3,2.6c3.5,0.5,6.9,1.2,10.4,1.7c3.7,0.5,7.4,1.1,11.2,1.5c5.9,0.6,11.8,1.1,17.7,1.4
	c5.5,0.3,11,0.4,16.5-0.1c3.1-0.2,6.2-0.3,9.3-0.3c5.1,0,10.2-0.4,15.3-0.7c1.8-0.1,3.7-0.1,5.5-0.2c3.2-0.1,6.4-0.3,9.6-0.5
	c5.5-0.4,11-0.8,16.5-1.2c2.7-0.2,5.4-0.3,8.1-0.5c4.4-0.3,8.8-0.6,13.1-1c7.3-0.6,14.5-0.8,21.8-0.4c5.7,0.3,11.3,0.4,17,0.5
	c1.1,0,2.2,0.2,3.3,0.3c2.7,0.2,5.4,0.4,8.1,0.4c4,0,8-0.1,12-0.2c1.1,0,2.2,0.2,3.3,0.2c2.5-0.1,5-0.2,7.4-0.3
	c3.9-0.2,7.8-0.3,11.7-0.5c2.9-0.2,5.7-0.5,8.6-0.8c3.1-0.3,6.2-0.7,9.3-1c4.1-0.4,8.2-1.3,12.3-2.2c2-0.4,3.7-1.4,4.8-3.3
	c0.6-1.1,0.8-3,0.1-4.1c-0.4-0.6-1-0.8-1.6-0.9c-1.7-0.3-3.3-0.5-5-0.7c-2.8-0.2-5.6-0.4-8.3-0.6c-8.2-0.6-16.5-0.2-24.7-0.3
	c-3.2,0-6.4-0.3-9.6-0.4c-0.6,0-1.1,0-1.7,0c-4.3,0.1-8.6,0.2-12.9,0.3c-2.5,0-4.9-0.2-7.4-0.2c-0.2,0-0.5,0-0.7,0
	c-5.1,0.4-10.2,0.3-15.3,0.2c-3.3-0.1-6.5-0.2-9.8-0.2c-4.9,0-9.7-0.1-14.6,0.1c-9.4,0.3-18.9,0.2-28.3,0.3
	c-5.2,0-10.4,0.3-15.6,0.4c-2.6,0.1-5.1,0.1-7.7,0.2c-5.7,0.3-11.5,0.9-17.2,0.9c-2.3,0-4.6,0.2-6.9,0.3c-0.8,0-1.6,0.1-2.4,0.1
	c-9.7,0-19.3,0-29-0.1c-2.2,0-4.5-0.2-6.7-0.3c-1.8,0-3.7,0.2-5.5,0.1c-3.5,0-7-0.1-10.5-0.2c-2.7-0.1-5.4-0.2-8.1-0.3
	c-4.4-0.1-8.8-0.1-13.2-0.4c-8.2-0.6-16.4-0.3-24.7-0.3c-6.2,0-12.5,0.2-18.7,0.2c-2.6,0-5.3-0.3-7.9-0.6c-4-0.6-7.9-1.3-11.8-1.9
	c-4.9-0.8-9.5-2.2-13.8-4.6c-3.6-2-7.3-3.9-10.2-7c-0.5-0.6-1.1-1.1-1.6-1.8c-0.9-1.2-1.6-2.5-1.3-4.2c0.1-0.5-0.1-1.1,0-1.7
	c0.2-1.2,0.3-2.4,0.8-3.5c1.9-3.9,4.4-7.4,8.5-9.5c0.6-0.3,1.3-0.7,2-0.8c4.2-1,8.4-2.1,12.6-2.9c3.1-0.6,6.3-0.8,9.5-1.1
	c3.3-0.3,6.5-0.6,9.8-0.8c2.8-0.2,5.6-0.2,8.4-0.2c6.6-0.1,13.1-0.3,19.7-0.3c5.9,0,11.8,0,17.7,0c4.4,0.1,8.8,0.2,13.2,0.5
	c5.5,0.4,11,0.3,16.5,0.5c4.5,0.1,9,0.1,13.4,0.5c5.4,0.5,10.9,0.5,16.3,0.8c3.4,0.2,6.8,0.3,10.3,0.5c2.1,0.1,4.1,0.4,6.2,0.5
	c6.1,0.5,12.1,0.9,18.2,1.4c4,0.3,8,0.7,11.9,0.9c4.8,0.3,9.6,0.4,14.4,0.5c1.6,0,3.2-0.1,4.8-0.2c4.2-0.2,8.5-0.3,12.7-0.5
	c3.6-0.2,7.2-0.5,10.8-0.7c2.8-0.1,5.6-0.2,8.4-0.3c4.6-0.2,9.3-0.3,13.9-0.5c4.9-0.2,9.7-0.6,14.6-1c3.2-0.3,6.4-0.2,9.6,0
	c4.1,0.2,8.1,0.1,12.2,0.1c0.2,0,0.5,0,0.7,0c4.4,0.2,8.8-0.5,13.1-1c4-0.5,8-0.6,11.9-1c5.9-0.6,11.8-0.8,17.6-2.1
	c3.5-0.8,7-1.7,10.3-3c1.1-0.4,1.9-1.1,2.3-2.2c0.2-0.7,0.6-1.3,1-2.1c-0.3-0.6-0.6-1.3-1.1-2c-0.7-1-1.7-1.7-3-1.8
	c-3.7-0.2-7.3-0.4-11-0.7c-3.9-0.3-7.8-0.4-11.7-0.3c-4.2,0.1-8.5,0.4-12.7,0.7c-3.3,0.2-6.7,0.4-10,0.7c-3.8,0.3-7.6,0.6-11.5,0.8
	c-4.7,0.4-9.4,0.8-14.1,1.1c-4.4,0.3-8.8,0.6-13.2,0.8c-2.9,0.1-5.7,0.2-8.6,0.3c-3.9,0.2-7.8,0.4-11.7,0.6
	c-4.1,0.2-8.1,0.3-12.2,0.5c-6.1,0.3-12.1,0.7-18.2,1c-3.5,0.2-7,0.3-10.5,0.6c-2.8,0.2-5.6,0.5-8.3,0.8c-2.5,0.2-4.9,0.3-7.4,0.2
	c-4.4-0.2-8.8-0.1-13.2-0.2c-3.3-0.1-6.5-0.5-9.8-0.6c-2.8-0.1-5.6-0.1-8.4,0c-4.4,0.2-8.8,0.5-13.2,0.8c-7.1,0.5-14.2,0-21.3,0
	c-4.2,0-8.5-0.1-12.7-0.2c-5.4-0.2-10.7-0.5-16.1-0.6c-5.9-0.1-11.8-0.9-17.7-1.2c-2.6-0.1-5.2-0.5-7.9-0.7c-3.2-0.3-6.4-0.3-9.5-1
	c-1.3-0.3-2.7-0.1-4.1-0.2c-5.4-0.1-10.8-0.6-16.2-1.8c-3.3-0.7-6.6-1-9.9-1.5c-1.4-0.2-2.8-0.6-4.1-1.2c-2.3-1.1-4.6-2.2-7-3.2
	c-0.9-0.4-1.3-1-1.7-1.9c-1.5-3.2-0.7-6.2,0.1-9.3c0.1-0.4,0.3-0.7,0.5-1.1c1.7-2.2,3.7-4.2,6.1-5.7c0.6-0.4,1.3-0.6,2-0.8
	c4.3-1.4,8.6-2.3,13-3.1c5.3-1,10.6-1.6,15.9-2.1c1.8-0.2,3.7-0.4,5.5-0.5c2.9-0.2,5.9-0.3,8.9-0.4c4.1-0.1,8.3-0.2,12.5-0.2
	c4.6,0,9.2-0.2,13.9-0.4c3.3-0.1,6.5-0.3,9.8-0.4c3.3-0.1,6.5-0.1,9.8-0.2c1.7,0,3.3,0,5,0c8.2-0.1,16.5-0.1,24.7-0.3
	c5.6-0.1,11.2-0.2,16.8-0.6c2.4-0.1,4.8,0,7.1-0.1c2.3-0.2,4.6-0.2,6.9-0.3c2.1-0.1,4.1-0.3,6.2-0.5c2.1-0.2,4.3-0.3,6.4-0.5
	c2.2-0.2,4.3-0.3,6.5-0.5c1.6-0.1,3.2-0.2,4.8-0.3c3.1-0.1,6.2-0.3,9.3-0.3c2.7,0,5.4,0.1,8.1,0.1c4.6,0,9.1-0.1,13.7-0.1
	c3.4,0,6.7,0.2,10.1,0.3c0.4,0,0.8,0,1.2,0.1c23.1,0.7,46.2,0.4,69.3,0.5c1.8,0,3.7-0.2,5.5-0.1c3.3,0.2,6.5-0.2,9.8-0.7
	c2.7-0.4,5.4-0.2,8.1-0.2c1,0,2.1,0.1,3.1,0c3.7-0.6,7.5-0.4,11.2-0.6c1.7-0.1,3.3-0.2,5-0.4c1.8-0.2,3.2-0.9,3.6-2.9
	c0.1-0.7,0.5-1.3,0.7-2c-0.4-1.9-1.9-2.5-3.5-3c-2-0.6-4.1-1.2-6.3-1.6c-4.2-0.8-8.3-1.5-12.5-2.2c-3.5-0.6-7-0.7-10.5-0.9
	c-4.6-0.2-9.1,0.2-13.6,0.4c-4.4,0.2-8.8,0.1-13.2,0.2c-3.8,0.1-7.5,0.2-11.3,0.3c-2.6,0.1-5.3,0.2-7.9,0.2c-9.8,0-19.7,0-29.5,0
	c-8,0-16,0.1-24-0.1c-6.7-0.2-13.4-0.8-20.1-1.3c-3.3-0.2-6.7-0.5-10-0.7c-5.3-0.4-10.5-0.8-15.8-1.2c-2.1-0.1-4.2-0.2-6.2-0.2
	c-4.3,0-8.6,0.1-12.9-0.1c-2.6-0.1-5.3-0.2-7.9-0.1c-5.3,0.1-10.6,0.1-15.8,0.2c-4.6,0.1-9.1,0.2-13.7,0.3
	c-4.9,0.1-9.7,0.4-14.6,0.5c-7.5,0.2-15,0.2-22.5,0.4c-2.2,0-4.5,0.3-6.7,0.3c-4,0-8,0.1-12,0c-2.5-0.1-4.9-0.5-7.4-0.7
	c-1.1-0.1-2.2-0.1-3.4-0.2c-3.8-0.3-7.6-0.6-11.5-0.9c-0.2,0-0.3,0-0.5,0C52.2,30,44.6,29.7,37,29.7c-3.3,0-6.5-0.5-9.8-0.8
	c-2.5-0.3-4.9-0.4-7.4-0.5c-1.4-0.1-2.9-0.1-4.3-0.1c-2.4-0.1-4.8-0.2-7.2-0.2c-1.5,0-3,0.2-4.5,0.4c-1.1,1-2,1.1-3,0.8V306h28.6
	c1.3-0.9,2.8-1.6,4.5-2c2-0.6,4-1.1,6.1-1.3c3.4-0.3,6.6-1.1,9.9-1.7c2-0.4,4.1-0.4,6.1-1.4c2.2-0.1,4.5-0.2,6.7-0.2
	c4.3-0.1,8.6-0.1,12.9-0.1c0.5,0,1-0.1,1.4,0c2.2,0.3,4.3,0,6.5,0c6.5,0,12.9,0,19.4,0.1c7.9,0.1,15.8,0.2,23.7,0.4
	c6.4,0.1,12.8,0.3,19.2,0.5c4.6,0.1,9.3,0.3,13.9,0.5c4.4,0.2,8.8,0.3,13.2,0.5c4.4,0.1,8.8,0.2,13.2,0.3c3.4,0.1,6.9,0.3,10.3,0.4
	c0.5,0,1,0,1.4,0c6.2,0.1,12.5,0.2,18.7,0.3c7.4,0.1,14.7,0.2,22.1,0.2c4.6,0,9.3,0.1,13.9,0.1c8.9,0,17.7,0,26.6,0
	c5,0,10.1-0.2,15.1,0.1c5.3,0.3,10.6,0.1,15.8,0.2c4.2,0.1,8.5,0,12.7,0c3.7,0,7.3-0.3,11-0.2c3.2,0,6.4,0,9.6,0
	c9.2,0,18.4-0.1,27.6-0.1c5.7,0,11.4,0,17,0c8.1,0.1,16.1,0.3,24.2,0.4c5.3,0.1,10.6,0,15.8,0c3.7,0,7.4,0,11,0.1
	c3.4,0.1,6.9,0.3,10.3,0.4c5,0.1,9.9,0.2,14.9,0.3c3.2,0.1,6.4,0,9.6,0.2c4.2,0.3,8.3,0.2,12.5,0.3c4.6,0.1,9.3,0.1,13.9,0.1
	c2.6,0,5.2,0.3,7.9,0c0.8-0.1,1.6,0.1,2.3,0.3c1.2,0.4,2.3,0.6,3.5,0.6c4.4,0,8.8,0,13.2,0.1c3.4,0,6.7,0.1,10.1,0.2
	c3.4,0.1,6.7-0.2,10-0.7c1.1-0.2,2.2-0.2,3.4-0.2c12.4,0,24.8,0,37.2,0c6.7,0,13.4,0.1,20.2-0.1c6-0.2,12-0.2,18-0.3
	c6.1-0.1,12.2-0.1,18.2-0.2c6.3-0.1,12.6-0.3,18.9-0.5c0.1,0,0.2,0,0.2,0c3-0.9,6-0.3,9.1-0.4c5.3-0.2,10.5-0.4,15.8-0.5
	c1.6,0,3.2,0,4.8,0c3,0,6.1-0.1,9.1-0.4c2.8-0.2,5.6-0.3,8.4-0.4c3-0.1,5.9-0.1,8.9-0.2c2.7-0.1,5.4-0.4,8.1-0.6
	c1.1-0.1,2.2-0.1,3.4-0.1c3.9,0,7.8-0.1,11.8-0.1c0.7,0,1.4,0.1,2.1,0.2c1.6,0.2,3.1,0.5,4.7,0.7c6.3,0.7,12.5,1.7,18.4,4.2h23.4"/>
<path class="st0" d="M713.7,35.6c0,0.1,0.1,0.3,0.2,0.3c0.2,0,0.5-0.1,0.8-0.1c0-0.1,0-0.2,0-0.3c-0.3,0-0.6-0.1-0.8-0.1
	C713.8,35.4,713.7,35.5,713.7,35.6z"/>
<path class="st1" d="M744.7,301.1c-0.7-0.1-1.4-0.2-2.1-0.2c-4,0-7.9,0.1-11.8,0.1c-1.2,0-2.3,0-3.4,0.1c-2.7,0.2-5.4,0.5-8.1,0.6
	c-3,0.1-5.9,0.1-8.9,0.2c-2.8,0.1-5.6,0.2-8.4,0.4c-3,0.3-6.1,0.4-9.1,0.4c-1.6,0-3.2,0-4.8,0c-5.3,0.1-10.5,0.3-15.8,0.5
	c-3.1,0.1-6.1-0.5-9.1,0.4c0,0-0.1,0-0.2,0c-6.3,0.2-12.6,0.4-18.9,0.5c-6,0.1-12.1,0.1-18.2,0.2c-6,0.1-12,0.1-18,0.3
	c-6.8,0.2-13.5,0.1-20.2,0.1c-12.4,0-24.8,0-37.2,0c-1.2,0-2.3,0-3.4,0.2c-3.3,0.5-6.6,0.8-10,0.7c-3.4-0.1-6.7-0.2-10.1-0.2
	c-4.4-0.1-8.8-0.1-13.2-0.1c-1.2,0-2.3-0.2-3.5-0.6c-0.7-0.2-1.5-0.4-2.3-0.3c-2.7,0.3-5.3,0-7.9,0c-4.6,0-9.3,0-13.9-0.1
	c-4.2-0.1-8.3,0-12.5-0.3c-3.2-0.2-6.4-0.1-9.6-0.2c-5-0.1-9.9-0.2-14.9-0.3c-3.4-0.1-6.9-0.3-10.3-0.4c-3.6-0.1-7.3-0.1-11-0.1
	c-5.2,0-10.5,0.1-15.8,0c-8.1-0.1-16.1-0.3-24.2-0.4c-5.6,0-11.3,0-17,0c-9.2,0-18.4,0.1-27.6,0.1c-3.2,0-6.4,0-9.6,0
	c-3.7-0.1-7.3,0.2-11,0.2c-4.2,0-8.5,0.1-12.7,0c-5.2-0.1-10.5,0.1-15.8-0.2c-5-0.3-10.1-0.1-15.1-0.1c-8.9,0-17.7,0-26.6,0
	c-4.6,0-9.3-0.1-13.9-0.1c-7.4,0-14.7-0.1-22.1-0.2c-6.2-0.1-12.5-0.2-18.7-0.3c-0.4,0-0.9,0-1.4,0c-3.4-0.1-6.9-0.3-10.3-0.4
	c-4.4-0.1-8.8-0.2-13.2-0.3c-4.4-0.2-8.8-0.3-13.2-0.5c-4.6-0.2-9.3-0.4-13.9-0.5c-6.4-0.2-12.8-0.4-19.2-0.5
	c-7.9-0.2-15.8-0.3-23.7-0.4c-6.5-0.1-12.9-0.1-19.4-0.1c-2.2,0-4.3,0.3-6.5,0c-0.4-0.1-0.9,0-1.4,0c-4.3,0-8.6,0-12.9,0.1
	c-2.2,0-4.5,0.1-6.7,0.2c-2,1-4.1,1-6.1,1.4c-3.3,0.6-6.5,1.4-9.9,1.7c-2.1,0.2-4.1,0.7-6.1,1.3c-1.6,0.5-3.1,1.2-4.5,2h738.4
	c-5.9-2.6-12.2-3.6-18.4-4.2C747.8,301.6,746.3,301.3,744.7,301.1z"/>
<path class="st1" d="M3.8,28.5c1.5-0.2,3-0.4,4.5-0.4c2.4,0,4.8,0.1,7.2,0.2c1.4,0,2.9,0,4.3,0.1c2.5,0.1,4.9,0.2,7.4,0.5
	c3.3,0.3,6.5,0.8,9.8,0.8c7.6,0,15.2,0.3,22.8,0.5c0.2,0,0.3,0,0.5,0c3.9,0.3,7.7,0.6,11.5,0.9c1.2,0.1,2.3,0.1,3.4,0.2
	c2.5,0.2,4.9,0.6,7.4,0.7c4,0.1,8,0,12,0c2.2,0,4.5-0.3,6.7-0.3c7.5-0.2,15-0.2,22.5-0.4c4.9-0.1,9.7-0.4,14.6-0.5
	c4.6-0.1,9.1-0.2,13.7-0.3c5.2-0.1,10.5-0.1,15.8-0.2c2.6-0.1,5.3,0,7.9,0.1c4.3,0.2,8.6,0.1,12.9,0.1c2,0,4.1,0.1,6.2,0.2
	c5.3,0.4,10.5,0.8,15.8,1.2c3.3,0.2,6.7,0.5,10,0.7c6.7,0.5,13.4,1.1,20.1,1.3c8,0.2,16,0.1,24,0.1c9.8,0,19.7,0,29.5,0
	c2.6,0,5.3-0.1,7.9-0.2c3.8-0.1,7.5-0.2,11.3-0.3c4.4-0.1,8.8,0,13.2-0.2c4.5-0.2,9-0.6,13.6-0.4c3.5,0.2,7,0.3,10.5,0.9
	c4.2,0.7,8.3,1.4,12.5,2.2c2.2,0.4,4.3,1,6.3,1.6c1.6,0.5,3.1,1.1,3.5,3c-0.2,0.7-0.6,1.3-0.7,2c-0.4,2-1.8,2.7-3.6,2.9
	c-1.7,0.2-3.3,0.3-5,0.4c-3.7,0.2-7.5,0-11.2,0.6c-1,0.1-2.1,0-3.1,0c-2.7,0-5.4-0.2-8.1,0.2c-3.3,0.5-6.5,0.9-9.8,0.7
	c-1.8-0.1-3.7,0.1-5.5,0.1c-23.1-0.1-46.2,0.2-69.3-0.5c-0.4-0.1-0.8-0.1-1.2-0.1c-3.4-0.1-6.7-0.3-10.1-0.3
	c-4.6,0-9.1,0.1-13.7,0.1c-2.7,0-5.4-0.1-8.1-0.1c-3.1,0-6.2,0.2-9.3,0.3c-1.6,0.1-3.2,0.2-4.8,0.3c-2.2,0.2-4.3,0.3-6.5,0.5
	c-2.1,0.2-4.3,0.3-6.4,0.5c-2.1,0.2-4.1,0.4-6.2,0.5c-2.3,0.1-4.6,0.1-6.9,0.3c-2.3,0.1-4.7,0-7.1,0.1c-5.6,0.4-11.2,0.5-16.8,0.6
	c-8.2,0.2-16.5,0.2-24.7,0.3c-1.7,0-3.3,0-5,0c-3.3,0.1-6.5,0.1-9.8,0.2c-3.3,0.1-6.5,0.3-9.8,0.4c-4.7,0.2-9.3,0.4-13.9,0.4
	c-4.2,0-8.4,0.1-12.5,0.2c-3,0.1-6,0.2-8.9,0.4c-1.8,0.1-3.7,0.3-5.5,0.5c-5.3,0.5-10.6,1.1-15.9,2.1c-4.4,0.8-8.7,1.7-13,3.1
	c-0.7,0.2-1.4,0.4-2,0.8c-2.4,1.5-4.4,3.5-6.1,5.7c-0.2,0.4-0.4,0.7-0.5,1.1C31.3,68,30.5,71,32,74.2c0.4,0.9,0.8,1.5,1.7,1.9
	c2.4,1,4.7,2.1,7,3.2c1.3,0.6,2.7,1,4.1,1.2c3.3,0.5,6.6,0.8,9.9,1.5c5.4,1.2,10.8,1.7,16.2,1.8c1.4,0.1,2.8-0.1,4.1,0.2
	c3.1,0.7,6.3,0.7,9.5,1c2.7,0.2,5.3,0.6,7.9,0.7c5.9,0.3,11.8,1.1,17.7,1.2c5.4,0.1,10.7,0.4,16.1,0.6c4.2,0.1,8.5,0.2,12.7,0.2
	c7.1,0,14.2,0.5,21.3,0c4.4-0.3,8.8-0.6,13.2-0.8c2.8-0.1,5.6-0.1,8.4,0c3.3,0.1,6.5,0.5,9.8,0.6c4.4,0.1,8.8,0,13.2,0.2
	c2.5,0.1,4.9,0,7.4-0.2c2.7-0.3,5.5-0.6,8.3-0.8c3.5-0.3,7-0.4,10.5-0.6c6.1-0.3,12.1-0.7,18.2-1c4.1-0.2,8.1-0.3,12.2-0.5
	c3.9-0.2,7.8-0.4,11.7-0.6c2.9-0.1,5.7-0.2,8.6-0.3c4.4-0.2,8.8-0.5,13.2-0.8c4.7-0.3,9.4-0.7,14.1-1.1c3.9-0.2,7.7-0.5,11.5-0.8
	c3.3-0.3,6.7-0.5,10-0.7c4.2-0.3,8.5-0.6,12.7-0.7c3.9-0.1,7.8,0,11.7,0.3c3.7,0.3,7.3,0.5,11,0.7c1.3,0.1,2.3,0.8,3,1.8
	c0.5,0.7,0.8,1.4,1.1,2c-0.4,0.8-0.8,1.4-1,2.1c-0.4,1.1-1.2,1.8-2.3,2.2c-3.3,1.3-6.8,2.2-10.3,3c-5.8,1.3-11.7,1.5-17.6,2.1
	c-3.9,0.4-7.9,0.5-11.9,1c-4.3,0.5-8.7,1.2-13.1,1c-0.2,0-0.5,0-0.7,0c-4.1,0-8.1,0.1-12.2-0.1c-3.2-0.2-6.4-0.3-9.6,0
	c-4.9,0.4-9.7,0.8-14.6,1c-4.6,0.2-9.3,0.3-13.9,0.5c-2.8,0.1-5.6,0.2-8.4,0.3c-3.6,0.2-7.2,0.5-10.8,0.7c-4.2,0.2-8.5,0.3-12.7,0.5
	c-1.6,0.1-3.2,0.2-4.8,0.2c-4.8-0.1-9.6-0.2-14.4-0.5c-3.9-0.2-7.9-0.6-11.9-0.9c-6.1-0.5-12.1-0.9-18.2-1.4
	c-2.1-0.1-4.1-0.4-6.2-0.5c-3.5-0.2-6.9-0.3-10.3-0.5c-5.4-0.3-10.9-0.3-16.3-0.8c-4.4-0.4-8.9-0.4-13.4-0.5
	c-5.5-0.2-11-0.1-16.5-0.5c-4.4-0.3-8.8-0.4-13.2-0.5c-5.9,0-11.8,0-17.7,0c-6.6,0-13.1,0.2-19.7,0.3c-2.8,0-5.6,0-8.4,0.2
	c-3.3,0.2-6.5,0.5-9.8,0.8c-3.2,0.3-6.4,0.5-9.5,1.1c-4.2,0.8-8.4,1.9-12.6,2.9c-0.7,0.1-1.4,0.5-2,0.8c-4.1,2.1-6.6,5.6-8.5,9.5
	c-0.5,1.1-0.6,2.3-0.8,3.5c-0.1,0.6,0.1,1.2,0,1.7c-0.3,1.7,0.4,3,1.3,4.2c0.5,0.7,1.1,1.2,1.6,1.8c2.9,3.1,6.6,5,10.2,7
	c4.3,2.4,8.9,3.8,13.8,4.6c3.9,0.6,7.8,1.3,11.8,1.9c2.6,0.3,5.3,0.6,7.9,0.6c6.2,0,12.5-0.2,18.7-0.2c8.3,0,16.5-0.3,24.7,0.3
	c4.4,0.3,8.8,0.3,13.2,0.4c2.7,0.1,5.4,0.2,8.1,0.3c3.5,0.1,7,0.2,10.5,0.2c1.8,0.1,3.7-0.1,5.5-0.1c2.2,0.1,4.5,0.3,6.7,0.3
	c9.7,0.1,19.3,0.1,29,0.1c0.8,0,1.6-0.1,2.4-0.1c2.3-0.1,4.6-0.3,6.9-0.3c5.7,0,11.5-0.6,17.2-0.9c2.6-0.1,5.1-0.1,7.7-0.2
	c5.2-0.1,10.4-0.4,15.6-0.4c9.4-0.1,18.9,0,28.3-0.3c4.9-0.2,9.7-0.1,14.6-0.1c3.3,0,6.5,0.1,9.8,0.2c5.1,0.1,10.2,0.2,15.3-0.2
	c0.2,0,0.5,0,0.7,0c2.5,0,4.9,0.2,7.4,0.2c4.3-0.1,8.6-0.2,12.9-0.3c0.6,0,1.1,0,1.7,0c3.2,0.1,6.4,0.4,9.6,0.4
	c8.2,0.1,16.5-0.3,24.7,0.3c2.7,0.2,5.5,0.4,8.3,0.6c1.7,0.2,3.3,0.4,5,0.7c0.6,0.1,1.2,0.3,1.6,0.9c0.7,1.1,0.5,3-0.1,4.1
	c-1.1,1.9-2.8,2.9-4.8,3.3c-4.1,0.9-8.2,1.8-12.3,2.2c-3.1,0.3-6.2,0.7-9.3,1c-2.9,0.3-5.7,0.6-8.6,0.8c-3.9,0.2-7.8,0.3-11.7,0.5
	c-2.4,0.1-4.9,0.2-7.4,0.3c-1.1,0-2.2-0.2-3.3-0.2c-4,0.1-8,0.2-12,0.2c-2.7,0-5.4-0.2-8.1-0.4c-1.1-0.1-2.2-0.3-3.3-0.3
	c-5.7-0.1-11.3-0.2-17-0.5c-7.3-0.4-14.5-0.2-21.8,0.4c-4.3,0.4-8.7,0.7-13.1,1c-2.7,0.2-5.4,0.3-8.1,0.5c-5.5,0.4-11,0.8-16.5,1.2
	c-3.2,0.2-6.4,0.4-9.6,0.5c-1.8,0.1-3.7,0.1-5.5,0.2c-5.1,0.3-10.2,0.7-15.3,0.7c-3.1,0-6.2,0.1-9.3,0.3c-5.5,0.5-11,0.4-16.5,0.1
	c-5.9-0.3-11.8-0.8-17.7-1.4c-3.8-0.4-7.5-1-11.2-1.5c-3.5-0.5-6.9-1.2-10.4-1.7c-5.8-0.9-11.5-1.7-17.3-2.6c-2-0.3-4-0.4-6-0.3
	c-4.1,0.2-8.3,0.4-12.4,0.7c-5.2,0.3-10.4,0.1-15.6-0.2c-6.3-0.3-12.5-0.1-18.7,0.8c-2.9,0.4-5.8,0.9-8.7,1.7
	c-2.9,0.8-5.6,1.9-8.4,2.9c-2.5,0.9-4.5,2.5-6,4.6c-1.8,2.4-2.9,5.2-3.5,8.1c-0.3,1.2-0.3,2.4,0.1,3.6c0.6,1.7,1.2,3.3,1.8,5
	c0.6,1.6,1.7,2.7,3.2,3.4c3.8,1.9,7.7,3.7,11.8,4.7c1,0.2,1.9,0.5,2.8,0.8c3.9,1.2,8,2.3,12.1,2.7c5.1,0.5,10.3,0.9,15.5,1.3
	c5.6,0.3,11.2,0.6,16.8,0.9c0.6,0,1.3,0.1,1.9,0c3.7-0.3,7.5-0.2,11.2-0.1c2.6,0.1,5.1,0.3,7.7,0.4c1.7,0.1,3.3,0.2,5,0.3
	c3.1,0.2,6.2,0.5,9.3,0.6c5.3,0.2,10.7,0.4,16,0.5c5.1,0.1,10.2,0.2,15.3,0.3c4.8,0,9.7,0,14.6,0c2,0,4.1,0.1,6.2,0.1
	c3.1,0,6.2-0.1,9.3,0c5.6,0.1,11.2,0.3,16.8,0.4c6.5,0.1,12.9,0.2,19.4,0.2c4.9,0,9.7-0.2,14.6-0.4c3.8-0.1,7.5-0.4,11.3-0.5
	c4.2-0.1,8.5,0,12.7,0c2.4,0,4.7,0,7,0c2.3-0.1,4.7,0.1,7.1,0c3.6-0.1,7.2,0,10.8,0c1,0,2.1,0.3,3.1,0.2c2.9-0.4,5.7-0.1,8.6-0.2
	c3.6-0.1,7.2,0,10.8-0.3c4.3-0.3,8.6-0.4,12.9-0.4c2.2,0,4.4,0.2,6.5,0c2.8-0.3,5.6-0.1,8.4-0.2c5.7-0.1,11.5-0.3,17.2-0.4
	c6.2-0.1,12.5-0.4,18.7,0.4c1.9,0.3,3.8,0.5,5.6,1.3c0.6,0.3,1.2,0.6,1.4,1.3c-1,1.4-2.3,2.5-3.9,3c-1.5,0.4-3,0.7-4.5,0.8
	c-2.2,0.2-4.5,0.3-6.7,0.3c-1.5,0-3-0.3-4.5-0.3c-3-0.1-5.9,0-8.9-0.1c-3.3-0.1-6.5-0.2-9.8,0.4c-4.2,0.7-8.5,0.6-12.7,0.6
	c-3.6,0-7.2-0.3-10.8-0.5c-2.5-0.1-4.9-0.4-7.4-0.5c-4-0.1-8.1-0.1-12.2-0.1c-2.7,0-5.5-0.3-8.3-0.1c-2.4,0.2-4.8,0-7.2-0.1
	c-3.6,0-7.2-0.2-10.8-0.2c-7.8-0.1-15.6,0.2-23.3,0.5c-0.8,0-1.6,0-2.4,0.1c-4.9,0.6-9.9,0-14.8-0.3c-3.1-0.2-6.1-0.5-9.1-0.7
	c-3.6-0.2-7.2-0.2-10.8-0.4c-2.7-0.2-5.4-0.4-8.1-0.5c-4.9-0.2-9.9-0.5-14.8-0.7c-3.9-0.2-7.8-0.4-11.7-0.4c-5,0-9.9,0.2-14.9,0.4
	c-4.1,0.2-8.1,0.5-12.2,0.7c-1.1,0.1-2.2,0.2-3.3,0.2c-3.6,0-7.1,0-10.6,0.1c-6.2,0.1-12.3,0.3-18.5,0.4c-4.8,0-9.7,0-14.6,0
	c-2,0-4,0-6,0.1c-2.2,0.1-4.5,0.3-6.7,0.4c-1.6,0.1-3.2-0.1-4.8,0.2c-3.1,0.5-6.1,0.2-9.1-0.3c-0.5-0.1-1-0.2-1.6-0.3
	c-2.3-0.3-4.7-0.6-7.1-0.8c-2.5-0.2-4.9-0.5-7.4-0.4c-4.1,0.2-8.1,0.2-12.2,0.6c-5.1,0.6-10,1.3-14.9,2.6c-1.6,0.4-3.1,1.1-4.7,1.7
	c-0.5,0.2-1,0.5-1.5,0.8c-0.9,0.5-1.1,1-0.8,2c0.3,1.2,0.6,2.3,0.9,3.5c0.2,0.8,0.7,1.5,1.4,1.9c0.9,0.6,1.8,1.1,2.7,1.6
	c4.6,2.2,9.5,3.3,14.5,3.9c5.1,0.7,10.3,1,15.5,1.5c0.9,0.1,1.8,0.3,2.8,0.4c4.7,0.3,9.4,0.6,14.1,0.8c4.4,0.2,8.8,0.4,13.2,0.6
	c6,0.3,12,0.7,18,0.9c6.6,0.3,13.1,0.4,19.7,0.6c3.9,0.1,7.8,0.3,11.7,0.5c1.8,0.1,3.7,0.1,5.5,0.2c5,0.4,10.1,0.8,15.1,0.8
	c7-0.1,13.9-0.2,20.9-0.1c8.5,0.1,16.9,0.3,25.4,0.4c4.3,0.1,8.6,0.1,12.9,0.2c5.2,0.2,10.4,0.3,15.6,0.4c3,0.1,6.1,0,9.1,0.1
	c4,0.1,8,0.3,12,0.4c2.2,0,4.4,0.1,6.6,0.8c0.6,0.2,1.3,0.2,1.9,0.2c5.1,0.1,10.2-0.2,15.3-0.4c3.3-0.2,6.5-0.6,9.8-0.5
	c5,0.1,9.9-0.1,14.9,0.3c4.8,0.4,9.6,0.5,14.4,0.5c8,0.1,16.1,0,24.2,0c5.4-0.1,10.7,0,16,0.9c3.2,0.5,6.4,1,9.7,1.2
	c2.3,0.2,4.6,0.6,6.8,1.2c2.7,0.7,3.3,3.5,1.3,5.4c-0.9,0.8-1.9,1.4-3.1,1.7c-2.9,0.7-5.8,1.2-8.8,0.8c-3.1-0.4-6.2-0.7-9.3-0.4
	c-2.7,0.2-5.3,0.1-7.9-0.5c-4.4-1-8.8-1.5-13.3-1.8c-3.7-0.2-7.5-0.6-11.2-0.8c-5.1-0.3-10.2-0.5-15.3-0.7c-1.2-0.1-2.4-0.2-3.6-0.1
	c-2,0.1-4,0-6-0.1c-1.6,0-3.2-0.2-4.8-0.3c-5.3-0.4-10.7,0-16-0.8c-0.2,0-0.5,0-0.7,0c-4.1-0.2-8.1-0.4-12.2-0.6
	c-2.4-0.2-4.8-0.4-7.2-0.6c-3.1-0.3-6.2-0.5-9.3-0.7c-3.1-0.2-6.2-0.5-9.3-0.6c-3.6-0.1-7.2-0.1-10.8-0.2c-2.6-0.1-5.3-0.2-7.9-0.3
	c-2.8-0.1-5.5-0.1-8.2-0.2c-2.2,0-4.3-0.1-6.5-0.1c-3.8,0-7.5,0.1-11.3,0.1c-2.9,0-5.7-0.2-8.6-0.3c-6.2-0.2-12.3-0.3-18.5-0.5
	c-0.2,0-0.3,0-0.5,0c-3.4-0.1-6.9-0.4-10.3-0.4c-5.5-0.1-11-0.5-16.5-0.9c-2.2-0.2-4.5-0.5-6.7-0.6c-3.1-0.2-6.2-0.3-9.3-0.5
	c-1.1-0.1-2.2-0.2-3.3-0.2c-5.5,0.1-11,0.2-16.5,0.4c-5.1,0.2-10.1,0.6-15.1,0.9c-4,0.3-8,0.6-12,0.8c-3.8,0.2-7.7,0.3-11.5,0.4
	c-3.4,0.1-6.7,0.3-10.1,0.4c-5.9,0.2-11.8,0.4-17.7,1.1c-1.9,0.2-3.8,0.3-5.7,0.7c-2.6,0.5-5.1,1.2-7.7,1.8
	c-1.2,0.3-2.2,0.8-3.2,1.5c-0.9,0.7-1.6,1.4-1.8,2.5c-0.4,2.1-0.8,4.2-1.3,6.3c-0.2,0.8-0.2,1.5,0.1,2.3c0.6,1.6,1.2,3.2,1.8,4.9
	s1.8,2.8,3.4,3.5c3.7,1.7,7.6,2.6,11.6,2.9c3.5,0.3,7,0.5,10.5,0.6c4.3,0.1,8.6,0.3,12.9,0.3c6.3,0.1,12.6,0.1,18.9-0.2
	c8.3-0.4,16.5-0.3,24.7,0.3c3.1,0.3,6.1,0.6,9.1,0.9c3.5,0.3,7,0.6,10.5,0.8c3,0.2,6.1,0.4,9.1,0.5c4.9,0.2,9.9,0.4,14.8,1
	c3.1,0.4,6.1,0.7,9.1,1c3.9,0.4,7.7,0.7,11.5,1.1c3.7,0.4,7.4,0.8,11,1.2c6.7,0.8,13.5,1.2,20.3,1.3c6.8,0.1,13.6,0.1,20.4,0.1
	c1.8,0,3.5,0.1,5.3,0.2c3,0.1,6.1,0.1,9.1,0.2c1.8,0,3.7,0.1,5.5,0.4c3,0.5,6.1,0.4,9.1,0.2c4-0.3,8-0.6,12-0.7
	c7,0,14.1-0.2,21.1-0.4c1.6-0.1,3.3-0.1,5-0.2c1.4-0.1,2.9-0.3,4.3-0.2c4.5,0.3,9.1,0.6,13.6,0.9c0.6,0,1.3,0.1,1.9,0.2
	c3.5,0.6,7,0.7,10.5,0.5c2.9-0.1,5.7-0.2,8.6-0.4c4.7-0.3,9.4-0.7,14.1-1.2c6.3-0.7,12.5-1.5,18.8-2.1c2.7-0.3,5.4-0.2,8.1-0.5
	c2.1-0.2,4,0.2,5.8,1.2c0.5,0.3,1,0.5,1.5,0.8c2.8,1.5,5.1,3.4,7.1,5.7c0.2,0.2,0.2,0.4,0.3,0.7c-0.8,0.9-1.8,1.1-2.8,1.3
	c-3.4,0.8-6.8,1.6-10.3,2.2c-5.8,1-11.6,1.6-17.4,1.7c-4.6,0-9.3-0.1-13.9-0.2c-6.3-0.1-12.6-0.3-18.9-0.4
	c-4.8-0.1-9.5-0.1-14.2-0.2c-4.1-0.1-8.1-0.4-12.2-0.6c-5.9-0.2-11.8-0.4-17.7-0.6c-3.7-0.1-7.3-0.3-11-0.4c-1.8-0.1-3.7,0-5.5-0.2
	c-7.5-0.7-14.9-1.5-22.4-2.2c-6.9-0.6-13.8-1.3-20.7-2c-3.3-0.3-6.7-0.6-10-0.9c-3.5-0.3-7.1-0.6-10.7-0.9c-2.3-0.2-4.6-0.5-6.9-0.6
	c-3.9-0.2-7.8-0.3-11.7-0.4c-3.3-0.2-6.5-0.3-9.8-0.4c-4.9-0.1-9.7-0.2-14.6-0.2c-5.1,0-10.2,0-15.3,0c-6,0-12.1,0-18.2,0
	c-6.6,0-13.2,0.2-19.7-0.3c-1.6-0.1-3.3-0.1-5-0.2c-4.6-0.3-9.3-0.6-13.9-0.8c-4.7-0.1-9.4,0-14.1,0.5c-3.6,0.4-7.1,0.9-10.6,1.8
	c-5.9,1.6-11.5,3.8-16.7,7.1c-2.8,1.8-4.9,4-5.8,7.3c-0.8,3.2-0.9,3.2,0.5,6.4c1.1,2.4,2.8,3.9,5.4,4.2c3.8,0.4,7.3,1.7,10.9,2.8
	c4.3,1.3,8.7,2.7,13,4c0.9,0.3,1.8,0.5,2.7,0.9c1.1,0.4,2.2,0.6,3.3,0.6c3.6,0,7.2,0,10.8,0c4.9,0,9.9,0.1,14.8,0.1
	c2.9,0,5.7,0,8.6,0c7,0.1,13.9,0.1,20.9,0.2c3,0.1,6.1,0,9.1,0c4.2-0.1,8.5-0.3,12.7-0.3c3.2,0.1,6.4,0.3,9.6,0.5
	c1.5,0.1,3-0.1,4.5,0c2.1,0.2,4.3,0.1,6.4-0.2c0.2,0,0.5,0,0.7,0c3.1,0.1,6.2,0.2,9.3,0c1.8-0.1,3.7-0.2,5.5-0.3
	c3.4-0.1,6.9-0.2,10.3-0.2c7.7-0.1,15.3-0.1,23-0.2c6.7,0,13.4,0,20.1,0.2c4,0.1,8,0,12,0.1c9.1,0.2,18.2,0.3,27.3,0.4
	c5.1,0,10.2,0,15.3,0c3.8,0,7.7-0.1,11.5-0.1c1,0,1.9,0.1,2.9,0.1c9.1,0.2,18.2,0.4,27.3,0.5c10.7,0.2,21.4,0.4,32.1,0.5
	c4.1,0,8.1-0.2,12.2-0.2c3.4-0.1,6.7-0.1,10.1-0.1c3.9-0.1,7.8,0,11.7-0.3c5.2-0.3,10.4-0.2,15.6-0.1c7.7,0.2,15.3,0.6,23,0.7
	c8.2,0.1,16.3,0,24.5,0c14,0,28.1,0,42.2,0c1.8,0,3.5-0.3,5.3-0.3c4.2-0.1,8.3,0,12.5,0s8.4-0.2,12.5,0.2c0.6,0,1.3,0,1.9,0
	c3.1,0,6.1-0.2,9.1-0.2c3.5,0,7,0,10.5,0c6.4,0,12.7-0.1,19-0.1c3.2,0,6.5,0,9.8,0.1c5,0.1,10.1,0.2,15.1,0.3
	c5.8,0.2,11.5,0.3,17.3,0.4c6.3,0.1,12.6,0.3,18.9,0.2c9-0.1,18.1-0.3,27.1-0.5c7.2-0.2,14.4-0.3,21.6-0.5
	c7.1-0.2,14.2-0.4,21.3-0.5c7.7-0.1,15.3-0.2,23-0.4c5.5-0.1,11-0.3,16.5-0.5c3.1-0.1,6.2,0.1,9.3,0.2c6.3,0.3,11.3-2.4,15.3-7.1
	c1.4-1.7,2.2-3.7,2-6c-0.1-0.9-0.3-1.8-1-2.6c-1.1-1.2-2.2-2.4-3.2-3.6c-0.7-0.8-1.5-1.4-2.6-1.6c-2.5-0.5-5-1.1-7.5-1.6
	c-0.4-0.1-0.8-0.2-1.1-0.4c-1.8-1-3.7-1.5-5.7-1.9c-4.7-1-9.5-1.9-14.3-2.8c-0.4,0-0.7-0.1-1-0.1c-3.5-0.3-7.1-0.8-10.7-0.9
	c-4.6-0.2-9.1-0.1-13.7-0.1c-3.4,0-6.9,0.3-10.3,0.3c-3.6,0-7.2-0.2-10.8-0.3c-3-0.1-6.1-0.2-9.1-0.3c-2.4,0-4.8-0.1-7.2-0.2
	c-4.5-0.2-8.9-0.6-13.4-0.7c-7.4-0.2-14.9-0.4-22.3-0.5c-6-0.1-11.9-0.1-17.8-0.1c-4.2,0.1-8.3,0.2-12.5,0.4
	c-4.5,0.2-9.1,0.4-13.6,0.6c-4,0.2-8,0.5-12,0.8c-3.7,0.3-7.5,0.5-11.2,0.8c-3.3,0.2-6.7,0.5-10,0.7c-4,0.2-8,0.4-12,0.6
	c-3.4,0.2-6.9,0.3-10.3,0.4c-8.6,0.1-17.3-0.2-25.9-0.1c-1.8,0-3.7-0.2-5.5-0.2c-5.4-0.1-10.7-0.1-16.1-0.2c-0.6,0-1.1-0.1-1.7-0.1
	c-3.3-0.2-6.5-0.5-9.8-0.7c-4.5-0.2-8.9-0.4-13.4-0.7c-3.8-0.2-7.7-0.6-11.5-0.7c-4.4-0.1-8.8-0.7-13.1-1.4
	c-3.7-0.6-7.2-1.5-10.8-2.4c-2.6-0.6-5.1-1.5-7.6-2.3c-0.6-0.2-1.3-0.5-1.8-1.1c-1.7-2.4-1.3-5.2,1.1-6.9c1.2-0.8,2.6-1.4,4-2.1
	c1.4-0.7,2.8-0.9,4.4-0.8c5.6,0.4,11.1,1.1,16.6,2.2c7,1.4,13.9,3.1,20.9,4.3c6.9,1.2,13.8,2.7,20.9,2.8c4.7,0,9.4,0.4,14.1,0.6
	c4,0.2,8,0.4,12,0.5c2.6,0.1,5.1,0.1,7.7,0.2c5.1,0.3,10.2,0.8,15.3,0.5c0.4,0,0.7,0,1,0c1.4,0.1,2.7,0.2,4.1,0.2
	c4.2,0,8.3-0.1,12.5,0c6.6,0.1,13.2,0.3,19.7,0.5c3.9,0.1,7.8,0.4,11.7,0.6c4.7,0.3,9.5,0.9,14.3,1c3.4,0.1,6.9,0.2,10.3,0.3
	c1.8,0.1,3.5,0.2,5.3,0.1c2.8-0.1,5.6-0.3,8.4-0.4c4.2-0.2,8.5-0.3,12.7-0.4c2.2-0.1,4.5-0.1,6.7-0.2c3.8-0.2,7.7-0.4,11.5-0.6
	c5.9-0.2,11.8-0.4,17.7-0.6c5.2-0.3,10.3-0.8,15.5-1.4c6-0.7,12.1-0.7,18.2-0.9c4.3-0.1,8.6,0.1,12.9,0.1s8.7-0.1,13.1-0.2
	c9.6-0.1,19.1-0.4,28.7-1.4c3.2-0.3,6.5-0.9,9.5-2.2c0.9-0.4,1.8-0.7,2.8-0.6c1.2,0.1,2.2-0.5,2.9-1.4c0.6-0.8,1-1.6,1.4-2.5
	c0.4-1,0.6-2.1,1-3.2c0.6-2,0.9-4,0.5-6.1c-0.6-3-2.2-5.1-5-6.2c-1.1-0.5-2.3-1-3.4-1.3c-2.5-0.7-5.1-1.2-7.8-1
	c-0.8,0.1-1.7,0-2.6-0.1c-6.4-1.1-12.9-1.3-19.3-1.8c-2.4-0.2-4.8-0.2-7.2-0.3c-4.3-0.3-8.6-0.6-12.9-0.9c-0.6-0.1-1.1-0.1-1.7-0.1
	c-3.1-0.2-6.1-0.4-9.1-0.7c-4.6-0.4-9.2-0.9-13.8-1.3c-3.4-0.3-6.8-0.9-10.3-0.8c-2.7,0.1-5.4-0.2-8.1-0.3c-2.4-0.1-4.8-0.6-7.2-0.1
	c-0.2,0-0.5,0-0.7,0c-2.1-0.3-4.1,0-6.2,0.1c-7.3,0.3-14.7,0.4-22,0.4c-4.9,0-9.7-0.2-14.6-0.3c-6.2-0.1-12.5,0-18.7-0.1
	c-3.5,0-7-0.2-10.5-0.3c-2.6-0.1-5.3-0.1-7.9-0.5c-0.4,0-0.9,0-1.4,0c-7.9,0.1-15.8-0.6-23.7-0.3c-0.2,0-0.5,0-0.7,0
	c-2.2-0.1-4.5-0.3-6.7-0.3c-5,0-9.9,0.1-14.9,0.2c-4.4,0.1-8.8,0.3-13.2,0.3c-6,0-11.9,0-17.8,0c-0.8,0-1.5,0.1-2.2,0
	c-3-0.4-5.9-0.2-8.9-0.3c-2.6-0.1-5.2,0-7.7-0.2c-4.1-0.4-8.1-0.3-12.2-0.3c-1.2,0-2.3,0-3.4,0c-8,0-16,0-24,0
	c-0.5,0-0.9,0.1-1.4,0.2c-3.5,0.5-7,0.9-10.5,0.7c-3.6-0.3-7.1-0.7-10.7-1c-2.8-0.2-5.4-1.3-8-2.3c-0.6-0.3-1.2-0.6-1.3-1.3
	c-0.1-0.9-0.2-1.8,0.3-2.6c1.2-1.8,2.7-3.2,4.9-3.5c3.4-0.4,6.8-0.8,10.2-1.2c3.9-0.4,7.8-0.8,11.7-0.7c5,0.1,9.9,0.2,14.9,0.4
	c5.1,0.2,10.2,0.6,15.3,0.3c5.4-0.3,10.7-0.2,16.1-0.1c3.1,0,6.2-0.3,9.3,0.3c0.4,0.1,1,0.1,1.4,0c1.8-0.7,3.7-0.4,5.5-0.4
	c2,0,4.1,0,6.2,0c1.4,0,2.8,0,4.1,0.1c4.5,0.5,8.9,0.6,13.4,0.7c5.2,0.1,10.5,0.2,15.8,0.3c7,0.1,14.1,0.4,21.1,0.6
	c3.4,0.1,6.9,0.2,10.3,0.4c3.9,0.2,7.9,0,11.9,0.4c3,0.2,6.1,0,9.1,0.1c4.3,0.2,8.6,0.5,12.9,0.8c1.6,0.1,3.2,0.2,4.8,0.3
	c3.3,0.2,6.5,0.6,9.8,0.7c8,0.3,16,0.4,24,0.6c5.5,0.2,11,0.3,16.5,0.4c6.9,0.2,13.9,0.2,20.8,0.6c4.6,0.3,9.3,0.5,13.9,0.7
	c4.7,0.3,9.3,0.6,13.9,0.8c3.2,0.1,6.4,0.1,9.6,0.3c4.3,0.2,8.5,0.5,12.7,0.8c2.4,0.2,4.7,0.5,7.1,0.9c5.4,1,9.9-0.8,14-4.1
	c1.9-1.5,2.8-3.6,2.7-6.1c-0.1-0.8-0.2-1.5-0.1-2.2c0.1-1.6-0.7-2.6-1.9-3.3c-1.1-0.6-2.1-1.2-3.2-1.7c-3.7-1.9-7.8-3.2-11.8-4.5
	c-1.8-0.6-3.6-1.2-5.5-1.6c-6.7-1.4-13.5-2.3-20.4-2.3c-3.5,0-7,0.1-10.5,0.1c-3.1,0-6.3-0.4-9.5-0.8c-4.9-0.6-9.7-1.4-14.5-2.1
	c-2.3-0.4-4.6-0.8-6.9-1.1c-3.4-0.5-6.9-1-10.4-1.5c-4.5-0.7-9.1-1.4-13.7-2.1c-1.2-0.2-2.5-0.2-3.8-0.2c-2.2,0.1-4.3,0.1-6.4-0.6
	c-0.6-0.2-1.3-0.2-1.9-0.2c-1.9-0.1-3.8-0.1-5.7-0.3s-3.8-0.6-5.7-0.8c-4-0.4-7.9-0.9-11.9-1.3c-3.4-0.4-6.8-0.7-10.2-1.1
	c-3.3-0.4-6.7-0.7-10-1.1c-3.7-0.4-7.3-0.8-11-1.2c-4.3-0.4-8.7-0.7-13.1-1.1c-1.7-0.1-3.4-0.4-5-0.8c-5-1.2-10-2-15.1-2.5
	c-3.9-0.4-7.9-0.7-11.9-1c-3.3-0.2-6.5-0.5-9.8-0.8c-3.3-0.3-6.7-0.6-10-0.8c-3-0.2-6.1-0.4-9.1-0.6c-1.8-0.1-3.7-0.1-5.5-0.2
	c-2.3-0.1-4.6-0.4-6.9-0.4c-2.2-0.1-4.5,0.1-6.7,0.1c-4.7-0.1-9.4-0.1-14.1-0.2c-0.4,0-0.9-0.1-1.4-0.1c-4.6-0.4-9.2-1.3-13.7-2.2
	c-1.1-0.2-2.2-0.3-3.3-0.3c-5.6-0.1-11.2-0.1-16.8-0.2c-1.7-0.1-3.3-0.4-5-0.6c-1.2-0.1-1.9-0.8-2.4-1.8c-0.6-1.2-0.7-2.4-0.1-3.6
	c1.9-0.9,3.9-0.8,5.9-0.9c4.4-0.2,8.9-0.1,13.4,0c5.1,0.1,10.2,0.5,15.3,0.7c6.1,0.2,12.1,0.2,18.2,0.4c5.4,0.1,10.7,0.3,16.1,0.5
	c2,0.1,3.9,0.2,5.8,0.2c4.9,0.2,9.7,0.3,14.6,0.4c1,0.1,1.9,0.1,2.9,0.1c8.1,0.3,16.1,0.6,24.2,0.9c1.7,0.1,3.3,0.1,5,0.3
	c3.9,0.4,7.8,0.8,11.7,1.2c3.3,0.3,6.7,0.6,10,1.1c5.3,0.7,10.5,1.1,15.8,1.4c0.8,0.1,1.6,0.1,2.4,0.2c5.2,0.5,10.3,1,15.5,1.4
	c1.8,0.2,3.6,0.2,5.3,0.4c2.5,0.2,5.1,0.6,7.6,0.8c3,0.3,6.1,0.4,9.1,0.7c4.6,0.4,9.2,0.9,13.8,1.4c6.6,0.7,13.2,1.3,19.8,1.9
	c2.3,0.2,4.6,0.4,6.9,0.6c2.8,0.2,5.6,0.4,8.4,0.5c4.9,0.2,9.7,0.3,14.6,0.5c1.4,0,2.7,0.1,4.1,0.2c4.9,0.4,9.9,1,14.8,1.5
	c2.1,0.2,4.1,0.4,6.2,0.6c4.9,0.3,9.9,0.6,14.8,1c3.3,0.3,6.5,0.6,9.8,0.9c5.6,0.4,11.2,0.2,16.8-0.5c2.3-0.3,4.5-0.4,6.7-0.8
	c2.4-0.4,4.7-1.1,7-1.6c2.2-0.5,3.8-1.7,5.2-3.3c0.9-1,1.4-2.2,1.4-3.7c-0.1-3.4-0.1-6.9,0-10.3c0-1.6-0.5-2.9-1.4-4.2
	c-0.8-1.1-1.7-2-2.8-2.6c-1.7-0.9-3.4-2-5.2-2.9c-2.8-1.4-5.6-3-8.7-3.9c-4.1-1.2-8.1-2.5-12.3-3.2c-3.8-0.6-7.6-1.3-11.4-1.6
	c-3.2-0.3-6.3-0.6-9.5-1.1c-5.3-0.8-10.6-1.7-15.9-2.5c-2.3-0.4-4.6-0.9-6.9-0.9c-7.6-0.1-15.2,0.1-22.8,0.5c-1.8,0.1-3.7,0-5.5,0.1
	c-3,0.1-6.1,0.4-9.1,0.3c-2.8-0.1-5.6,0-8.4,0.2c-0.2,0-0.5,0-0.7,0c-3.8,0.1-7.5,0.2-11.3,0.3c-7.2,0.3-14.4,0.3-21.6,0.2
	c-1.2,0-2.3-0.1-3.4-0.2c-3.5-0.2-7-0.6-10.5-0.7c-3.2-0.1-6.4-0.2-9.6-0.6c-1.5-0.2-3-0.3-4.5-0.4c-1.4-0.2-2.7-0.3-4.1-0.4
	c-2.5-0.2-4.9-0.4-7.4-0.6c-0.8-0.1-1.7-0.1-2.6-0.2c-2.7-0.3-5.3-0.5-7.9-0.8c-4.1-0.4-8.3-0.9-12.4-1.4c-1.7-0.2-3.5-0.4-5.2-0.6
	c-2.3-0.3-4.6-0.4-6.9-0.7c-3.7-0.4-7.5-0.9-11.2-1.3c-5.7-0.6-11.3-0.9-17-0.9c-3.2,0-6.4-0.1-9.6-0.2c-1.4-0.1-2.7-0.2-4.1-0.3
	c-4-0.2-8,0.3-12,0.1c-2-0.1-4-0.1-6-0.1c-2.2-0.1-4.3-0.2-6.5,0.2c-1.2,0.2-2.5,0.2-3.8,0.2c-4.7,0.1-9.3-0.3-13.9-0.6
	c-2.6-0.2-5.1-0.3-7.7-0.4c-1.6-0.1-3.3-0.1-5-0.1c-0.8,0-1.7,0-2.6-0.1c-2.4-0.2-4.8-0.3-7.2-0.6c-2.9-0.3-5.8-0.8-8.8-0.7
	c-0.6,0.1-1.2,0-1.7-0.1c-4.9-0.9-10-0.9-15-1.2c-3.2-0.2-6.4-0.6-9.5-1.1c-2.1-0.3-4.1-0.8-5.9-1.9c-1.2-0.7-2.2-1.6-2.6-3
	c-0.4-1.6-0.3-3.3,0.3-4.9c0.4-1,1.1-1.5,2.2-1.6c1.2-0.1,2.4-0.3,3.6-0.3c2.8-0.2,5.6-0.2,8.4-0.3c1.4,0,2.7-0.2,4.1-0.2
	c4.9,0,9.9,0.2,14.8,0.3c3.6,0.1,7.2,0.3,10.8-0.2c3-0.4,6.1-0.2,9.1-0.1c4.3,0.2,8.6,0.4,12.9,0.5c2.3,0.1,4.6,0,6.9,0.2
	c1,0.1,2.1,0,3.1,0.1c1.4,0.1,2.9,0.2,4.3,0.3c1.5,0.1,3,0.2,4.5,0.3c3.7,0.2,7.3,0.3,11,0.5c3.9,0.2,7.7,0.6,11.5,0.8
	c5.9,0.3,11.8,0.4,17.7,0.7c3.9,0.1,7.7,0.5,11.5,0.7c1.2,0,2.3,0,3.4,0.1c3.3,0.2,6.5,0.5,9.8,0.7c4.6,0.2,9.3,0.4,13.9,0.6
	c0.2,0,0.3,0,0.5,0c2.1,0.2,4.3,0.4,6.4,0.6c4.3,0.3,8.5,0.5,12.7,0.9c7.1,0.7,14.3,1.5,21.4,2.2c4.2,0.4,8.5,0.7,12.7,1
	c4.9,0.4,9.9,0.6,14.8,0.9c3.6,0.2,7.2,0.3,10.8,0.5c1.9,0.1,3.8,0.3,5.7,0.4c4.5,0.2,8.9,0.5,13.4,0.7c3.2,0.2,6.5,0.3,9.8,0.4
	c3.5,0.1,7,0.2,10.5,0.3c4.8,0.1,9.6,0.1,14.4,0.2c0.4,0,0.9,0,1.4,0.1c3.9,0.6,7.9,1,11.9,1.2c5.1,0.2,10.2,0.7,15.3,1
	c3.2,0.2,6.4,0.2,9.6,0.1c4.1-0.1,8.3-0.6,12.4-0.7c3.1-0.1,5.9-0.7,8.7-1.7c0.9-0.3,1.9-0.7,2.8-0.7c1.5-0.1,2.8-0.6,4.1-1.2
	c3.4-1.6,6.6-3.5,9.8-5.5c1.1-0.7,2.2-1.6,2.7-2.7c0.9-1.9,1.3-4,0.6-6.1c-1.1-3.2-2.7-6.2-4.8-8.8c-1.1-1.4-2.6-2.6-4.3-3.3
	c-2.5-1-5.1-1.9-7.7-2.7c-3.6-1.1-7.3-1.6-11-2.3c-6.3-1.1-12.8-2-19.2-2.5c-2.9-0.2-5.9-0.4-8.8-0.7c-3.3-0.3-6.7-0.6-10-0.9
	c-2.5-0.2-4.9-0.4-7.4-0.6c-4.1-0.4-8.1-0.8-12.2-1.1c-4.3-0.2-8.6-0.3-12.9-0.5c-1.6-0.1-3.3-0.1-5-0.2c-3.6-0.2-7.2-0.5-10.8-0.7
	c-3.5-0.2-7-0.4-10.5-0.5c-4.4-0.2-8.8-0.4-13.2-0.5c-2.4,0-4.8,0.1-7.2-0.2c-3.8-0.4-7.7-0.3-11.5-0.4c-3.8-0.2-7.5,0-11.3,0
	c-2.8,0-5.5,0-8.2,0c-3,0-6.1,0.1-9.1,0.1c-2,0-4-0.1-6-0.1c-3.6,0-7.3,0-11-0.1c-3.9-0.2-7.7-0.6-11.5-0.8c-2-0.1-4.1-0.2-6.2-0.3
	c-2.9-0.2-5.7-0.5-8.6-0.7c-4.7-0.3-9.4-0.5-14.1-0.7c-3-0.2-5.9-0.3-8.9-0.4c-2-0.1-4,0-6-0.2c-2.9-0.3-5.8-0.6-8.8-0.7
	c-4-0.2-8-0.5-12-0.6c-2.8-0.1-5.6-0.1-8.4,0.2c-2,0.2-4,0.2-6,0c-0.6-0.1-1.3-0.1-1.9-0.1c-3.5-0.2-7.1-0.2-10.7-0.7
	c-4.5-0.6-9.1-1-13.6-1.3c-4.1-0.3-8.3-0.8-12.4-1.2c-0.9-0.1-1.9-0.3-2.8-0.6c-3-0.8-5.9-1.7-8.8-2.4c-1.4-0.4-2.3-1.1-2.6-2.5
	c-0.2-0.8-0.5-1.5-0.6-2.3c-0.1-0.8,0-1.6,0.6-2.3c0.2,0,0.4-0.1,0.6-0.2c2.1-0.7,4.4-0.6,6.6-0.8c9.9-0.8,19.8-0.9,29.7,0
	c2.2,0.2,4.5,0.2,6.7,0.5c4.7,0.5,9.3,1.1,14,1.7c3,0.3,6,0.7,9,1c3.1,0.4,6.1,0.6,9.1,0.9C515,69,520,69.4,525,69.8
	c1.6,0.2,3.2,0.3,4.8,0.5c2.3,0.2,4.6,0.5,6.9,0.7c4.7,0.4,9.5,0.7,14.3,1.1c3.3,0.3,6.5,0.6,9.8,0.8c5.5,0.4,11,0.7,16.5,1.2
	c4.5,0.3,9.1,0.9,13.6,1.3c0.8,0,1.6,0.1,2.4,0.1c2.8-0.1,5.6-0.2,8.4-0.2c2,0,4,0.2,6,0.1c3.7-0.1,7.5-0.3,11.2-0.4
	c6.6-0.1,13.3-0.2,19.9-0.2c7.6,0,15.3,0.2,23,0.2c5.3,0,10.5,0.1,15.8,0c3.5-0.1,7-0.3,10.5-0.5c4.1-0.3,8.3-0.6,12.4-0.9
	c2.6-0.2,5.3-0.4,7.9-0.6c3.4-0.3,6.9-0.3,10.3-0.6c6.2-0.6,12.4-1.3,18.6-2c1.6-0.2,3.2-0.6,4.7-1.1c3-0.9,6-1.6,9.1-2.2
	c1.6-0.3,3.2-0.5,4.7-1c2.6-0.9,5.1-2,7.6-3c1-0.4,2-1,2.7-1.9c3.2-3.8,2.5-2.2,3.1-7c0-0.2,0.1-0.5,0.1-0.7c0.3-3.5-0.8-6.7-2-9.8
	c-0.4-0.9-1.2-1.7-1.8-2.5c-0.5-0.6-1-1.1-1.5-1.6c-1.4-1.5-3.2-2.4-5.2-2.7c-0.9-0.1-1.9-0.3-2.8-0.5c-3.1-0.6-6.3-1-9.5-1
	c-3.7-0.1-7.4,0.2-11-0.5c-0.2,0-0.5,0-0.7,0c-3.4-0.1-6.9-0.3-10.3-0.5c-0.4,0-0.8,0-1.2-0.1c-0.2-0.1-0.3-0.3-0.5-0.4
	c0.2-0.2,0.3-0.4,0.4-0.4c1-0.2,2.1-0.4,3.1-0.5c2.3-0.3,4.5-0.4,6.7-0.7c1.7-0.3,3.3-0.3,5-0.3c1,0,2.1,0.1,3.1-0.1
	c5.8-0.9,11.6-1.7,17.4-1.9c0.4,0,0.8,0,1.2-0.1c2.6-0.4,5.2-0.8,7.9-0.7c0.9,0,1.7-0.2,2.6-0.3c1.4-0.1,2.9-0.4,4.3-0.4
	c2.3-0.1,4.6-0.1,6.9-0.4c1.2-0.2,2.5-0.1,3.8,0c2.2,0.1,4.4,0.4,6.7,0.7c0-0.1,0.1-0.3,0.1-0.4c0.1-0.3,0.1-0.5,0.1-0.8
	c0-4.4-0.1-8.7-0.1-13c0,0,0,0,0,0c0-0.3-0.1-0.7-0.2-1c-1.4-0.6-2.7-0.8-4.1-0.8c-6-0.1-12.1-0.1-18.2-0.1c-1.4,0-2.9,0.2-4.3,0.4
	c-4.8,0.7-9.5,1.3-14.3,1.7c-0.9,0.1-1.7,0.3-2.6,0.4c-1.3,0.2-2.5,0.4-3.8,0.4c-1.4,0-2.7,0-4.1-0.1c-4.2-0.2-8.4,0.1-12.5,0.3
	c-3.1,0.2-6.2,0.6-9.3,0.7c-4.2,0.2-8.4,0.7-12.6,1.3c-0.8,0.1-1.6,0.3-2.4,0.3c-4.5,0.1-8.9,0.1-13.4,0.2
	c-3.4,0.1-6.9,0.1-10.3,0.5c-5.9,0.6-11.7,0.9-17.5,0.9c-6.6,0-13.1,0-19.7,0c-4.7,0-9.4,0-14.1,0c-0.4,0-0.8,0-1.2,0
	c-5.8-0.1-11.7-0.3-17.5-0.4c-6.1-0.1-12.1-0.3-18.2-0.4c-3.2-0.1-6.4-0.2-9.6-0.3c-3.2-0.1-6.4-0.2-9.6-0.3
	c-2.2-0.1-4.5-0.1-6.7-0.2c-3.6-0.1-7.2-0.3-10.8-0.4c-6-0.1-12-0.1-18-0.3c-7.5-0.3-15,0.1-22.5-0.4c-2.2-0.2-4.3-0.1-6.5-0.1
	c-13.6,0.2-27.2-0.3-40.8,0.3c-4.2,0.2-8.3,0.1-12.5,0.2c-3.5,0.1-7,0.2-10.5,0.3c-4.1,0.1-8.1,0.4-12.2,0.4
	c-2.5,0.1-5.1,0.4-7.6,0.7c-0.9,0.1-1.6,0.4-2.2,0.9c-2.9,2.2-5,4.9-6.1,8.4c-0.1,0.4-0.2,0.7-0.4,1.1c-0.8,1.9-1.7,3.8-2.5,5.5
	c0.4,1.3,0.8,2.4,0.9,3.5c0.4,3.4,2.8,5.4,5.1,7.5c0.3,0.2,0.6,0.3,0.9,0.4c3.5,0.6,7,1.5,10.6,1.8c4.6,0.4,9.3,0.6,13.9,0.5
	c2.6-0.1,5.1-0.1,7.7,0c1.4,0.1,2.9-0.1,4.2,0.8c0.2,0.2,0.6,0.2,0.9,0.2c2.8,0.3,5.6,0.4,8.4,0.7c4.4,0.5,8.9,0.9,13.2,2.1
	c0.4,0.1,0.8,0.1,1.2,0.1c2.6,0.1,5.3,0.3,7.9,0.4c4.7,0.2,9.4,0.3,14.1,0.5c4.9,0.1,9.7,0.2,14.6,0.4s9.9,0.5,14.8,0.7
	c1.2,0,2.3,0,3.4,0.1c4.1,0.4,8.1,0.7,12.2,0.7c1,0,2.1,0.2,3.1,0.3c3.7,0.3,7.4,0.8,11.2,0.8c5.8-0.1,11.5-0.1,17.3-0.2
	c5.3-0.1,10.6-0.1,15.8-0.5c5.5-0.5,11,0,16.5-0.3c0.4,0,0.9,0.1,1.4,0.1c1.6,0.1,3.1,0.2,4.6,0.1c5.6-0.2,11.2-0.4,16.8-0.6
	c2.7-0.1,5.4-0.1,8.1-0.2c4.2-0.2,8.5-0.4,12.7-0.2c4.9,0.2,9.8,0.1,14.8-0.1c4.3-0.2,8.6-0.3,12.9-0.2c4.4,0,8.8-0.2,13.2-0.7
	c4.3-0.5,8.7-0.5,13.1-0.7c2.9-0.1,5.7,0.1,8.6,0.1c1,0,2.1,0,3.1-0.1c2.4-0.2,4.8-0.5,7.2-0.6c2.6-0.1,5.1-0.1,7.7-0.1
	c2.2-0.1,4.2,0.4,5.9,1.7c0.3,0.3,0.7,0.5,1,0.7s0.6,0.6,1,0.9c-1.2,1.3-2.2,2.5-3.4,3.6c-2.9,2.6-6.2,3.4-9.8,2.4
	c-1.8-0.5-3.6-0.6-5.4-0.6c-1,0-1.9,0-2.9-0.1c-3.2-0.2-6.4-0.4-9.6-0.6c-0.7,0-1.3-0.1-1.9-0.3c-1.2-0.4-2.5-0.4-3.8-0.3
	c-1.5,0.1-3,0.2-4.5,0.3c-6.2,0.3-12.5,0.6-18.7,0.9c-3.6,0.2-7.2,0.3-10.8,0.5c-3.8,0.2-7.5,0.4-11.3,0.5c-4.2,0.1-8.5,0-12.7,0.1
	c-6,0-12,0.1-18,0.2c-2,0-3.9,0-5.8,0c-10.9,0-21.7,0-32.6,0c-3.5,0-7-0.2-10.5-0.2c-5.9,0-11.8-0.2-17.7-0.6
	c-4.7-0.3-9.4-0.6-14.1-0.9c-3.7-0.2-7.3-0.4-11-0.7c-4.4-0.4-8.7-0.9-13.1-1.2c-5.1-0.3-10.1-0.7-15.1-1c-1-0.1-2.1-0.2-3.1-0.3
	c-2.8-0.2-5.6-0.4-8.4-0.6c-3.7-0.2-7.5-0.4-11.2-0.6c-1.4-0.1-2.9-0.3-4.3-0.4c-2.9-0.2-5.7-0.3-8.6-0.6c-4.7-0.5-9.4-0.9-14.1-1
	c-8.1-0.2-16.3-0.1-24.4,0.3c-4,0.2-7.9,0.8-11.9,1.2c-1.4,0.1-2.7,0.4-4,0.8c-0.6,0.2-1.2,0.5-1.6,1c-1.4,1.7-2.7,3.5-4.1,5.3
	c-0.1,0.1-0.3,0.4-0.3,0.6c-0.1,1.5-0.2,3.1,0.4,4.5c0.9,2,2.2,3.9,3.2,5.9c0.7,1.3,1.8,2.2,3,3c2,1.3,4.1,2.7,6.2,4
	c1.5,0.9,3.1,1.9,4.8,2.6c2.5,1,5,1.9,7.6,2.8c1.8,0.6,3.6,1.3,5.5,1.6c3,0.6,6.1,1,9.2,1.3c6.8,0.7,13.7,1.3,20.5,2
	c2.1,0.2,4.1,0.4,6.2,0.5c5.2,0.3,10.4,0.4,15.6,0.6c3.4,0.2,6.9,0.3,10.3,0.4c2.4,0.1,4.8-0.1,7.2,0.1c3.7,0.2,7.3,0.2,11,0.2
	c3.4-0.1,6.9-0.2,10.3-0.2c4.1,0,8.1,0.2,12.2,0.2c3-0.1,6.1-0.3,9.1-0.3c4.8,0.1,9.5-0.2,14.3-0.8c2.9-0.4,6-0.5,9,0.4
	c0.6,0.2,1.4,0.2,2.1,0.2c4.6,0.1,9.1,0.1,13.7,0.2c0.8,0,1.6,0.1,2.4,0.1c1.7,0.1,3.3,0.3,5,0.3c2.6,0,5.1,0,7.7,0.1
	c3.6,0.2,7.2,0.5,10.8,0.7c3,0.2,5.9,0.3,8.9,0.5c4.9,0.3,9.8,0.6,14.8,0.8c4.1,0.2,8.1,0.3,12.2,0.5c3.9,0.2,7.8,0.3,11.7,0.5
	c3.7,0.2,7.5,0.4,11.2,0.7c2.5,0.2,4.9,0.4,7.4,0.7c2.3,0.2,4.6,0.7,6.9,0.8c4.6,0.3,9.3,0.5,13.9,0.5c6.6,0.1,13.3,0,19.9,0
	c2.6,0,5.1,0,7.7,0.1c1.4,0,2.7,0.3,4.1,0.3c4.3,0,8.6,0.2,12.9,0.7c4,0.5,7.3,3,8.1,7.1c0.6,2.9-0.2,3.8-3.1,3.9
	c-1.2,0-2.5,0-3.8,0.1c-3.8,0.3-7.7,0.6-11.5,0.8c-5.8,0.3-11.7,0.5-17.5,0.7c-5.2,0.2-10.4,0.3-15.6,0.4c-5,0.1-10.1,0.2-15.1,0.3
	c-6.8,0.1-13.6,0.1-20.4,0.2c-6,0.1-11.9,0.1-17.8,0.1c-0.8,0-1.7,0.1-2.4-0.2c-1.5-0.5-3-0.7-4.5-0.8c-3.4-0.2-6.9-0.4-10.3-0.6
	c-4.6-0.2-9.3-0.4-13.9-0.7c-5.5-0.3-11.1-0.7-16.7-1.2c-4-0.4-7.9-0.9-11.9-1.2c-5.8-0.5-11.6-1.2-17.4-1.5
	c-4.7-0.3-9.3-0.8-13.9-1c-6.1-0.2-12.1-0.6-18.2-0.9c-2.6-0.2-5.3-0.2-7.9-0.3c-5.3-0.3-10.5-0.6-15.8-0.9
	c-2.5-0.2-4.9-0.5-7.4-0.7c-3.3-0.2-6.6-0.5-10-0.6c-6-0.1-11.9-0.1-17.8-0.1c-3,0-6.1,0-9.1-0.1c-4.3-0.2-8.6-0.5-12.9-0.7
	c-1.8-0.1-3.5-0.1-5.3-0.2c-1.2,0-2.4-0.2-3.6-0.2c-2.1,0-4.1,0.1-6.2,0.3c-3.6,0.4-7.2,0.2-10.8,0c-2.3-0.1-4.6-0.3-6.9-0.3
	c-2.6,0.1-5.1,0.3-7.7,0.4c-4.2,0.3-8.5,0.5-12.7,0.8c-4,0.2-8,0.4-12,0.7c-0.8,0.1-1.6,0.2-2.3,0.5c-1.3,0.6-2.6,1.2-3.8,2
	c-1.5,1-2.8,2.3-4.2,3.5c-0.4,0.4-0.7,1-0.9,1.6c-0.7,1.8-0.9,3.7-1.3,5.6c-0.3,1.7,0.1,3,1.1,4.4c1.1,1.7,2.7,2.9,4.2,4.2
	c3.5,3.2,7.5,5.4,12.1,6.6c2.8,0.7,5.6,1.2,8.4,1.9c1.4,0.3,2.7,0.7,4,1c1.9,0.5,3.7,1.1,5.6,1.4c4.6,0.8,9.2,1,13.8,1.5
	c3.3,0.4,6.5,0.7,9.8,1c2.2,0.2,4.5,0.4,6.7,0.5c3.3,0.2,6.7,0.1,10,0.7c2.8,0.4,5.6,0.7,8.4,0.6c1.2,0,2.4,0,3.6-0.1
	c3.4-0.3,6.8,0.1,10.2,0.8c5,1.1,10,1.6,15,2.1c2.6,0.3,5.1,0.4,7.7,0.5c4.9,0.3,9.8,0.5,14.8,0.7c4.3,0.2,8.6,0.3,12.9,0.4
	c2.2,0,4.5,0,6.7,0.1c6.1,0.3,12.1,0.6,18.2,0.8c2.4,0.1,4.9,0.1,7.4,0.2c3.8,0.2,7.7,0.5,11.5,0.7c6.1,0.2,12.1,0.4,18.2,0.7
	c1.4,0.1,2.7,0.3,4.1,0.3c9,0.1,17.9,0.2,26.9,0.2c6.2,0,12.5,0,18.7,0c5.7,0,11.3,0.1,17,0.2c4.9,0.1,9.8,0.5,14.8,0.6
	c4,0.1,8,0.4,12,0.2c1.4-0.1,2.9,0.1,4.3,0.1c4.5,0.1,8.9,0.1,13.4,0.2c4.7,0.1,9.4,0.4,14.1,0.4c2.3,0,4.5,0.3,6.7,0.7
	c0.9,0.2,1.7,0.4,2.6,0.5c3,0.5,6.1,0.9,9.1,1.8c3.2,1,6.4,2,9.6,3c0.8,0.2,1.5,0.7,1.8,1.5c0.4,1.3-0.3,4.5-1.4,5.4
	c-0.2,0.3-0.5,0.4-0.8,0.5c-0.5,0.2-1.1,0.4-1.6,0.5c-2.8,0.4-5.5,1.4-8.4,1.8c-4.6,0.7-9.3,1.4-14,1.6c-6.9,0.3-13.9,0.5-20.8-0.2
	c-6.3-0.6-12.6-1.2-18.8-2.1c-1-0.1-1.9-0.3-2.9-0.3c-4.9,0-9.9-0.4-14.8-0.7c-2.9-0.2-5.9-0.4-8.8-0.7c-3.9-0.3-7.8-0.7-11.7-1
	c-5.3-0.4-10.5-0.8-15.8-1.2c-4.3-0.4-8.6-0.9-12.9-1.2c-7.4-0.6-14.8-1.1-22.2-1.5c-7.7-0.5-15.3-0.8-23-1.1
	c-5.8-0.2-11.5-0.4-17.3-0.6c-4.5-0.2-9.1-0.5-13.6-0.8c-8.3-0.5-16.6-1-24.9-1.5c-6.8-0.3-13.6-0.7-20.4-1
	c-4.7-0.2-9.4-0.5-14.1-0.5c-13.4,0-26.9,0-40.3-0.4c-4.1-0.1-8.3-0.4-12.4,0.5c-0.2,0.1-0.5,0.1-0.7,0.1c-2.2,0.2-4.5,0.3-6.7,0.4
	c-1.7,0.1-3.4,0.4-5.1,1.1c-0.6,0.2-1.2,0.5-1.8,0.6c-2.4,0.5-4.4,1.7-6.5,2.9c-0.9,0.5-1.8,1-2.7,1.6c-1.5,1-1.8,1.9-0.8,3.4
	c1.3,2,2.8,3.7,4.6,5.2c0.3,0.3,0.8,0.5,1.2,0.7c5,2.1,9.9,4.4,15.2,5.9c1.4,0.4,2.7,0.8,4.2,0.8c3.2,0.1,6.4,0.3,9.6,0.3
	c8.3-0.1,16.5,0.2,24.7,0.6c3.3,0.2,6.7,0.5,10,0.8c1.4,0.2,2.7,0.3,4.1,0.4c2.6,0.2,5.3,0.5,7.9,0.7c2.7,0.2,5.4,0.2,8.1,0.5
	c4.2,0.4,8.4,0.9,12.6,1.4c1.3,0.2,2.6,0.4,4,0.5c2.1,0.2,4.1,0.2,6.2,0.5c3.9,0.5,7.9,0.9,11.9,1c0.6,0,1.3,0.1,1.9,0.1
	c3.1,0.2,6.2,0.4,9.3,0.7c1.9,0.2,3.8,0.3,5.7,0.5c2.7,0.3,5.5,0.6,8.3,0.8c2.9,0.3,5.7,0.5,8.6,0.7c0.7,0,1.4,0.2,2.1,0.3
	c3.7,0.7,7.5,1.3,11.3,1.9c6,0.9,12,1.9,18,2.8c2.7,0.4,5.4,0.9,8.1,1.2c4,0.3,8,0.5,12,0.8c1.8,0.1,3.5,0.1,5.3,0.2
	c3.5,0.2,6.9,0.5,10.3,0.7c2,0.2,4,0.2,6,0.3c1.4,0.1,2.9,0.3,4.3,0.4c2.5,0.2,4.9,0.2,7.4,0.5c6.1,0.6,12.2,1.3,18.3,2
	c3.2,0.3,6.3,0.6,9.5,1c2.9,0.4,5.7,0.7,8.6,1.1c1.7,0.2,3.4,0.5,5.2,0.6c3.6,0.2,7.2,0.3,10.8,0.4c3.4,0,6.7,0,10.1,0.1
	c0.4,0,0.8,0,1.2,0.1c3.8,0.7,7.6,1.3,11.4,1.6c0.4,0,0.8,0.1,1.2,0.2c2.3,0.8,4.7,1.6,7,2.4c0.3,0.1,0.5,0.4,0.9,0.7
	c-0.3,0.3-0.5,0.7-0.7,0.8c-1.4,0.8-2.9,1.4-4.5,1.6c-2.4,0.2-4.8,0.3-7.2,0.4c-2,0.1-4.1,0-6.2,0c-2.1,0-4.2,0.1-6.2-0.1
	c-2.1-0.2-4.1-0.2-6.2-0.2c-3.2-0.1-6.5-0.1-9.8-0.2c-4.3-0.1-8.6-0.2-12.9-0.3c-2.4,0-4.8,0-7.2-0.2c-3.5-0.2-6.9-0.5-10.3-0.8
	c-0.8,0-1.6,0-2.4-0.1c-3.1-0.3-6.2-0.6-9.3-0.8c-3.8-0.3-7.7-0.5-11.5-0.7c-3.3-0.2-6.5-0.5-9.8-0.7c-5.1-0.3-10.2-0.4-15.3-0.7
	c-4.1-0.3-8.1-0.5-12.2-0.8c-3.7-0.2-7.5-0.4-11.2-0.7c-3.5-0.2-7-0.5-10.5-0.8c-1.2,0-2.4,0-3.6-0.1c-2.9-0.2-5.9-0.5-8.8-0.7
	c-3.5-0.2-7-0.3-10.5-0.6c-4.3-0.3-8.6-0.4-12.9-0.4c-5.6,0-11.2-0.2-16.8-0.5c-3.7-0.2-7.3-0.6-11-0.4c-2.4,0.1-4.8,0.1-7.2-0.1
	c-2.5-0.3-4.9-0.3-7.4-0.3c-1.1,0-2.2,0-3.3-0.2c-3.1-0.7-6.2-0.9-9.3-0.9c-13.4,0-26.7,0-40.1,0.1c-2.7,0-5.4,0.2-8.1,0.4
	c-5.2,0.5-10.5,1.1-15.7,1.6c-2,0.2-4,0.3-6,0.6c-3,0.4-6,0.9-9,1.3c-2.5,0.3-5.1,0.6-7.6,1c-1.2,0.2-2.3,0.6-3.3,1.3
	c-1.4,0.9-2.8,1.9-4.3,2.6c-1.4,0.7-2.2,1.7-2.8,3.1c-0.7,1.6-1.3,3.2-2.1,4.8c-0.5,1.1-0.4,2.2,0.2,3.2c0.4,0.7,0.9,1.4,1.2,2.1
	c1.4,3.1,3.4,5.6,6.2,7.5c1.4,1,2.8,2.1,4.2,3.1c0.9,0.7,1.9,1.1,3.1,1.1c1.4,0,2.7,0,4.1,0.1c2.3,0.1,4.6,0.3,6.9,0.3
	c5.1,0.1,10.2-0.1,15.3,0.6c3.7,0.5,7.5,0.6,11.2,0.9c3,0.2,6,0.6,9,0.9c3.1,0.3,6.2,0.6,9.3,1.1c3.3,0.5,6.6,1.1,9.9,1.7
	c1.5,0.3,3.1,0.6,4.7,0.6c5.7-0.1,11.3-0.2,17-0.3c4.4-0.1,8.8-0.2,13.2-0.3c5.8-0.1,11.7-0.2,17.5-0.3c7-0.2,14.1-0.3,21.1-0.5
	c2.5-0.1,4.9-0.1,7.4-0.3c3.5-0.3,7-0.1,10.5-0.2c2.5,0,5.1,0.4,7.6,0.3c2.9-0.1,5.9,0.2,8.8,0.1c1,0,1.9,0.1,2.9,0.1
	c3.4,0.2,6.9,0.4,10.3,0.4c8.6,0.1,17.3,0.1,25.9,0.1c5,0,10-0.2,14.9-0.3c5.1-0.2,10.2-0.4,15.3-0.6c2.7-0.1,5.4-0.1,8.1-0.1
	c2.4-0.1,4.9-0.1,7.4-0.2c1.7,0,3.3-0.2,5-0.2c2.6,0,5.1,0,7.7-0.1c3-0.1,6.1-0.2,9.1-0.3c3.6-0.1,7.2-0.2,10.8-0.2
	c5.6-0.1,11.2-0.1,16.8,0.4c2.5,0.2,5.1,0.5,7.6,0.5c3.2,0,6.4,0.6,9.5,1.2c3.3,0.6,6.5,1.7,9.8,2.2c1.8,0.3,2.9,1.5,3.7,3.1
	c-2.6,1.5-5.4,2.5-8,3.6c-0.7,0.3-1.5,0.4-2.3,0.4c-4.4,0-8.8,0-13.2-0.1c-2.8,0-5.7-0.2-8.6-0.2c-2.4,0-4.8,0.3-7.2,0.3
	c-12.5,0.1-24.9,0.1-37.4,0.2c-6.6,0.1-13.3,0.1-19.9,0.2c-7.4,0.1-14.9,0.3-22.3,0.3c-7.5-0.1-15-0.3-22.5-0.5
	c-6.1-0.2-12.3-0.3-18.4-0.5c-0.2,0-0.5,0-0.7,0c-4.6-0.2-9.1-0.4-13.7-0.5c-3.2-0.1-6.3,0-9.4-0.2c-4.5-0.3-8.9-0.3-13.4-0.4
	c-4,0-8,0.1-12,0c-5.8-0.1-11.7-0.3-17.5-0.4c-5.6-0.1-11.2-0.1-16.8-0.2c-5.2,0-10.4,0-15.6-0.1c-3.4-0.1-6.9-0.1-10.3-0.3
	c-5.5-0.4-11-0.8-16.5-1.2c-4.9-0.3-9.7-0.7-14.6-1c-7.1-0.5-14.2-1-21.3-1.5c-1.8-0.1-3.7-0.2-5.5-0.3c-3.5-0.2-7-0.4-10.5-0.6
	c-3.3-0.2-6.1,1-8.6,3.1c-2.4,2-3.6,4.7-3.6,7.8c0,5.1,2.3,9.2,6.4,12.3c1.9,1.5,4.2,2.7,6.5,3.5c4.4,1.6,8.8,3.2,13.3,4.7
	c0.9,0.3,1.9,0.6,2.8,0.7c6.4,0.7,12.7,1.9,19.1,2c0.4,0,0.9,0.1,1.4,0.1c3.3,0.1,6.5,0.4,9.8,0.5c3.5,0.1,7,0.1,10.5,0.2
	c5.6,0.1,11.2,0.2,16.8,0.3c3.2,0,6.4,0,9.6,0c4.6,0,9.1,0,13.7,0c1.8,0,3.7-0.2,5.5-0.2c4.6,0,9.3,0.2,13.9,0.2
	c8.3,0,16.6-0.2,24.9-0.3c8.1-0.1,16.1-0.2,24.2-0.2c5.2,0,10.3-0.1,15.4,0c3.4,0.1,6.9,0.3,10.3,0.4c4.1,0.1,8.1,0.3,12.2,0.4
	c2.8,0.1,5.6,0.2,8.4,0.3c4.7,0.1,9.4,0.1,14.1,0.2c3,0.1,5.9,0.2,8.9,0.3c6,0.2,12,0.3,18,0.5c4.5,0.1,9.1,0.4,13.6,0.5
	c6.6,0.2,13.1,0.3,19.7,0.3c6.8-0.1,13.6,0.3,20.4,0.5c3.7,0.1,7.3,0.3,11,0.4c5,0.1,9.9,0.1,14.9,0.2c1.3,0,2.5,0.2,3.8,0.4
	c1.2,0.2,1.6,0.8,1.5,2c-0.1,0.6-0.1,1.2-0.2,1.7c-0.3,1.3-1.2,2-2.6,1.9c-4.3-0.4-8.7-0.9-13.1-1c-1.2,0-2.3,0-3.5,0.3
	c-2.7,0.8-5.5,1.2-8.3,1.3c-4.8,0.2-9.5,0.2-14.2,0.2c-5.5,0-11-0.1-16.5-0.2c-2.9-0.1-5.7-0.3-8.6-0.3c-5.9-0.1-11.9-0.4-17.9-0.7
	c-0.4,0-0.7-0.1-1-0.1c-2.5-0.3-5.1-0.6-7.6-0.7c-3.8-0.2-7.7-0.3-11.5-0.5c-6.1-0.2-12.1-0.6-18.2-0.8c-6.7-0.2-13.4-0.2-20.1-0.5
	c-6.6-0.3-13.1-0.2-19.7-0.2c-5.4,0-10.9,0.1-16.3,0.2c-2.4,0-4.8,0.1-7.2,0.1c-2.8,0.1-5.6,0.2-8.4,0.2c-8.2,0-16.3,0-24.5,0
	c-5.5,0-11,0.1-16.5,0.2c-5.8,0.1-11.7,0.3-17.5,0.3c-9,0-18.1,0-27.1,0c-9.7-0.1-19.3,0.1-29-0.2c-7.2-0.3-14.4-0.3-21.6-0.5
	c-6.3-0.1-12.6-0.5-18.9-0.6c-4.8,0-9.6,0.1-14.4,0.2c-6.3,0.1-12.6,0.5-18.9,0.6c-6.9,0-13.9-0.1-20.8-0.2
	c-9.8-0.1-19.7-0.1-29.5-0.2c-5.6,0-11.2,0-16.8,0c-4,0-8-0.1-12-0.2c-2.4,0-4.7-0.1-7-0.1c-7.3-0.1-14.7-0.3-22-0.4
	c-4.7-0.1-9.4,0-14.1-0.1c-4.2-0.1-8.3-0.2-12.5-0.3c-7.2-0.2-14.5-0.2-21.8-0.3c-6.9-0.1-13.7-0.2-20.6-0.2
	c-2.4-0.1-4.8,0.2-7.2,0.1c-2.5,0-4.9,0.1-7.4,0.1c-7.8,0.2-15.7-0.1-23.5,0.4c-3.8,0.3-7.7,0.2-11.5,0.3c-3.9,0.2-7.8,0.5-11.7,0.7
	c-5.5,0.3-10.9,0.7-16.3,1c-5.1,0.3-10.2,0.4-15.3,0.5c-7.4,0.2-14.7,0.4-22.1,0.5c-5.3,0-10.7-0.5-15.9-1.7
	c-0.7-0.1-1.4-0.3-2.1-0.3c-1.5,0.1-3,0.2-4.5,0.3c-3.5,0.3-7.1,0.6-10.7,0.9c-1.6,0.1-3.3,0.3-4.8-0.2c-1-1.6-1-3.1,0-4.6
	c0.3-0.6,0.5-1.2,0.7-1.8c0.4-1,1.3-1.7,2.3-1.9c1.9-0.4,3.7-1,5.6-1.2c2.8-0.3,5.6-0.2,8.4-0.2c6,0,12,0,18,0c3.6,0,7.3-0.2,11-0.1
	c6.7,0.2,13.4,0.1,20.1,0.4c4.4,0.2,8.8,0.1,13.2,0.1c6.2,0,12.3,0.1,18.5,0.1c3.6,0.1,7.3,0.1,11,0.1c3.1,0,6.2,0,9.3,0
	c3.9,0,7.8,0.2,11.7,0.2c11-0.1,22.1-0.1,33.1,0.1c2.2,0,4.5,0.1,6.7,0.2c4.3,0.2,8.6,0.2,12.9,0.4c4.5,0.2,9.1,0.5,13.6,0.7
	c3.8,0.2,7.5,0.3,11.3,0.5c2.2,0.1,4.3,0.2,6.5,0.3c4.5,0.2,8.9,0.4,13.4,0.6c1.6,0,3.2,0,4.5,1c1.4-0.8,1.4-0.8,2.6-0.8
	s2.5,0,3.8,0.1c3.2,0.2,6.4,0.5,9.6,0.7c4,0.2,8,0.4,12,0.6c4.7,0.2,9.4,0.5,14.1,0.8c2.2,0.1,4.5,0.1,6.7,0.3
	c6.1,0.4,12.2,0.8,18.4,0.9c1.8,0.1,3.7,0.2,5.5,0.2c1.2,0,2.4-0.1,3.6-0.1c3.4-0.1,6.9-0.2,10.3-0.3c0.2,0,0.5-0.1,0.7-0.1
	c1.3-0.1,2.7-0.2,4-0.2c4-0.2,8,0,12-0.7c2.8-0.5,5.7-0.8,8.5-1.3c1.5-0.2,7.5-2.9,8.7-3.9c0.1,0,0.1-0.1,0.2-0.1
	c0.9-0.6,1.2-1.4,1.4-2.4c0.6-3.9,0.7-7.7,0.1-11.5c-0.1-0.8-0.3-1.7-0.7-2.5c-1.3-2.9-3-5.3-6.1-6.4c-0.4-0.1-0.7-0.3-1.1-0.5
	c-0.8-0.4-1.6-0.6-2.5-0.6c-8.2,0-16.5-0.1-24.7,0.2c-3.8,0.1-7.5,0.2-11.3,0.3c-3.2,0.1-6.5,0.1-9.8,0.2c-5.5,0.2-11,0.4-16.5,0.5
	c-3.8,0.1-7.7,0.2-11.5,0.2c-0.8,0-1.5,0-2.2,0c-3.7-0.2-7.3-0.4-11-0.6c-3.7-0.2-7.3-0.2-11-0.5c-3.7-0.3-7.4-0.4-11.2-0.6
	c-1.6-0.1-3.2-0.1-4.8-0.2c-3.8-0.2-7.7-0.5-11.5-0.7c-4.8-0.2-9.6-0.4-14.4-0.6c-3.6-0.2-7.2-0.4-10.8-0.5
	c-5-0.2-10.1-0.4-15.1-0.5c-4.2-0.1-8.3-0.1-12.5-0.2c-2.3-0.1-4.6-0.1-6.9-0.2c-3.6-0.1-7.2-0.3-10.8-0.4
	c-6.8-0.2-13.6-0.3-20.4-0.5c-1.8,0-3.7,0-5.5-0.1c-3.9-0.2-7.8-0.6-11.7-0.8c-3.4-0.2-6.7-0.4-10.1-0.5c-4.2-0.2-8.5-0.4-12.7-0.5
	c-6.5-0.1-12.9-0.2-19.4-0.5c-8.1-0.3-16.1-0.3-24.2-0.5c-1.2-0.1-2.3-0.1-3.4-0.1c-5.8-0.1-11.5-0.3-17.3-0.4
	c-3.4-0.1-6.9-0.1-10.3-0.1c-1.6,0-3.2-0.2-4.7-0.9c-1.6-0.7-3.1-1.5-4.7-2.3c-0.6-0.3-1.1-0.7-1.6-1c1.4-2.1,2.6-2.9,4.5-3.4
	c2.8-0.7,5.7-1.3,8.6-2c0.9-0.2,1.7-0.4,2.6-0.5c3.8-0.7,7.7-0.9,11.5-1c3.3-0.2,6.5-0.5,9.8-0.4c7.1,0.1,14.1,0.4,21.1,0.7
	c3.7,0.2,7.5,0.2,11.2,0.5c4.1,0.3,8.3,0.2,12.4,0.6c4.5,0.5,8.9,0.4,13.4,0.7c5,0.4,10.1,0.3,15.1,0.9c1.8,0.2,3.5,0.1,5.3,0.2
	c3.3,0.2,6.5,0.5,9.8,0.7c3.9,0.2,7.8,0.3,11.7,0.4c3.9,0.1,7.8,0.2,11.7,0.2c7.7,0.1,15.5,0.1,23.2,0.3c5.7,0.1,11.3,0.3,17,0.6
	c3.9,0.2,7.8,0.7,11.7,1.1c1.8,0.1,3.7,0.2,5.5,0.4c4.1,0.4,8.3,0.8,12.4,1.1c3.7,0.2,7.3,0.4,11,0.6c4.7,0.3,9.3,0.6,13.9,1
	c4.9,0.4,9.9,0.9,14.8,1.3c5.3,0.4,10.5,0.9,15.8,1.3c0.6,0,1.3,0.1,1.9,0c5.9-0.6,11.7-1,17.5-1.2c3.3-0.1,6.5-0.1,9.8-0.5
	c3.7-0.4,7.5-0.6,11.2-0.8c2.4-0.2,4.8-0.2,7.2-0.1c2.4,0.1,4.8,0.4,7.2,0.5c0.7,0,1.6-0.1,2.3-0.4c2.5-0.9,4.9-1.8,7.3-3
	c3.6-1.7,6.2-4.5,8.2-7.9c1.1-1.8,1.6-3.9,1.3-6c-0.3-2.1-0.9-4.2-2-6.1c-1.6-3-4.1-4.8-7.5-5.4c-1.4-0.3-2.9-0.4-4.3-0.6
	c-3.7-0.4-7.3-0.8-11-1.2c-4-0.4-7.9-0.9-11.9-1.3c-3.5-0.3-7-0.7-10.5-0.8c-5.9-0.2-11.8-0.1-17.7-0.2c-3.2,0-6.4,0-9.6-0.1
	c-7.9-0.3-15.8-0.3-23.7,0.1c-2,0.1-4.1,0.1-6.2,0.2c-5.2,0.2-10.4,0.5-15.6,0.7c-7.3,0.3-14.5,0.5-21.8,0.7c-1,0.1-1.9,0.2-2.9,0.2
	c-5.4-0.1-10.7-0.3-16.1-0.3c-5.3,0-10.5,0.3-15.8,0.4c-0.2,0-0.5,0-0.7,0c-3.2,0.2-6.4,0.3-9.6,0.4c-6.4,0.2-12.8,0.1-19.2,0.5
	c-4,0.2-8,0.2-12,0.2c-1.2,0-2.4-0.1-3.6-0.1c-7.8,0-15.7,0-23.5,0c-10.8-0.1-21.7-0.1-32.6-0.2c-4.5-0.1-8.9-0.2-13.4-0.6
	c-4.3-0.4-8.7-0.6-13.1-1c-5.6-0.4-11.1-1-16.7-1.5c-1.4-0.1-2.9-0.3-4.3-0.4c-3.8-0.1-7.6-0.9-11.3-1.7c-1.7-0.4-3.2-1.3-4.5-2.3
	c-0.3-0.2-0.5-0.7-0.4-1c0-0.3,0.5-0.7,0.8-0.7c4.1-0.3,8.1-1.1,12.2-0.6c0.8,0.1,1.5,0.1,2.2,0.1c3.2,0.1,6.4,0.3,9.6,0.5
	c3.5,0.2,6.9,0.6,10.3,0.9c3,0.2,5.9,0.5,8.9,0.5c6.3,0.1,12.6,0.1,18.9,0.1c0.4,0,0.7,0,1,0c1.7,0,3.3,0,5,0c0.8,0,1.7,0,2.6,0
	c1.4,0,2.9,0.1,4.3,0.1c1.6,0,3.1-0.1,4.6-0.1c1.6,0,3.3,0.2,5,0.2c3.2,0,6.5,0,9.8,0c7.4,0,14.7,0.1,22.1,0.1c2.2,0,4.5,0,6.7,0.1
	c3.9,0.3,7.9,0.3,11.9,0.3c2.8,0,5.6,0,8.4,0c4.5,0,8.9,0.1,13.4,0.2c4.6,0,9.1,0,13.7,0.1c3.9,0.1,7.8,0.3,11.7,0.4
	c3.9,0.1,7.8,0.2,11.7,0.3c4,0.2,8,0.4,12,0.5c5.1,0.2,10.2,0.3,15.3,0.5c6.8,0.3,13.6,0.2,20.4,0.2c6.9,0,13.7-0.2,20.6-0.4
	c5.5-0.1,11,0,16.5-0.5c0.4,0,0.7,0,1,0c1.2,0.1,2.4,0.1,3.6,0c4.3-0.3,8.6-0.3,12.9-0.4c2.4,0,4.8,0.1,7.2,0.1
	c3.4,0,6.7-0.1,10.1-0.2c3-0.1,6-0.2,8.9-0.5c2.3-0.2,4.6-0.3,6.8-1.1c2.7-0.9,5.4-2.1,8-3.2c2-0.8,3.9-1.8,5.9-2.6
	c1-0.4,1.9-0.9,2.6-1.7c1.3-1.6,2.6-3.2,3.8-4.9c0.9-1.4,0.7-2.2-0.9-3.1c-1.6-0.9-3.3-1.9-5-2.8c-0.5-0.3-1.1-0.6-1.7-0.8
	c-1.6-0.5-3.3-1.1-5-1.6c-1-0.3-2.1-0.5-3.1-0.6c-2.2-0.2-4.5-0.3-6.7-0.4c-1.1-0.1-2.2-0.1-3.3-0.3c-1.8-0.4-3.7-0.4-5.5-0.4
	c-2.2-0.1-4.3,0-6.5,0c-2.8,0-5.6,0-8.4,0.1c-4.6,0.1-9.3,0.3-13.9,0.3c-1.8,0-3.7-0.2-5.5-0.2c-5.4,0-10.7,0-16.1,0
	c-1.2,0-2.4,0-3.6,0.1c-4.2,0.2-8.5,0.5-12.7,0.7c-5.8,0.2-11.7,0.4-17.5,0.6c-3.3,0.1-6.5,0.3-9.8,0.3c-5.8,0.1-11.7,0.1-17.5,0.1
	c-3.2,0-6.5-0.1-9.8-0.2c-4.6-0.2-9.3-0.5-13.9-0.7c-2.6-0.1-5.3-0.1-7.9-0.2c-6.5-0.3-12.9-0.7-19.4-0.9
	c-6.2-0.2-12.5-0.3-18.7-0.4c-2,0-4,0-6,0c-6.5-0.1-13.1-0.3-19.6-0.4c-7.4-0.2-14.7-0.2-22.1-0.3c-0.8,0-1.6,0-2.4,0
	c-3.6-0.2-7.2-0.5-10.8-0.6c-3.4-0.1-6.9,0-10.3,0c-4.8-0.1-9.7-0.1-14.6-0.2c-1.2,0-2.3,0-3.4-0.1c-3.6-0.4-7.3-0.8-10.9-1.3
	c-2.6-0.4-5.3-0.6-7.8-1.2c-5.7-1.5-11.6-2.5-17-5c-4.1-1-7.2-3.7-10.5-6.1c-0.3-0.2-0.7-0.4-0.4-1.1c1.7-0.3,3.6-0.6,5.5-0.9
	c2-0.3,3.9-0.6,5.9-1c3.4-0.7,6.8-1.3,10.2-1.5c3.7-0.3,7.4-0.4,11.2-0.4c2.6,0,5.3,0.2,7.9,0.4c5.5,0.5,11,0.9,16.5,1.4
	c2.5,0.2,4.9,0.5,7.4,0.7c2.1,0.2,4.3,0.3,6.4,0.6c3,0.5,5.9,0.6,8.8,0c0.4-0.1,0.9-0.1,1.4-0.1c2.9,0,5.9-0.5,8.8,0.2
	c0.2,0,0.6-0.1,0.9-0.1c0.5,0,0.9-0.1,1.4,0c4.1,0.7,8.2,1.1,12.4,1.2c1.5,0.1,3,0,4.5,0c3.8,0.1,7.7,0.1,11.5,0.2
	c6.1,0.1,12.1-0.3,18.2,0.2c3.2,0.3,6.4,0.2,9.6,0.2c1.2,0,2.5-0.1,3.8-0.1c7,0,13.9-0.1,20.9-0.1c1.7,0,3.3-0.1,5-0.1
	c2.1,0,4.1,0,6.2,0c1.9,0,3.8-0.1,5.7-0.1c4.9,0.1,9.7,0.2,14.6,0.3c2.4,0.1,4.9,0,7.4,0.1c4.4,0.1,8.8,0.3,13.2,0.4
	c2.8,0,5.6,0,8.4,0c5.6,0,11.2,0,16.8-0.1c1.8,0,3.7-0.3,5.5-0.4c0.8,0,1.7,0,2.6-0.1c4.3-0.6,8.5-1.2,12.8-1.7
	c2.4-0.2,4.8-0.5,7.2-0.6c4.5-0.3,8.9-0.5,13.4-0.7c3.3-0.2,6.7-0.3,10-0.5c1.1-0.1,2.2-0.5,3.3-0.6c3.4-0.3,6.5-1.5,9.6-2.8
	c4.3-1.8,8.5-3.7,12.8-5.5c2.4-1.1,4.9-2.1,7.4-3.3c1.8-0.8,2.9-2.1,2.7-4.3c-0.1-1.4,0-2.7,0-4.1c-0.1-2.7-0.7-5.1-3.2-6.6
	c-0.2-0.2-0.5-0.4-0.7-0.6c-2.7-2.2-5.6-4.1-9.4-4.1c-1.2,0-2.4-0.2-3.6-0.3c-1.4-0.1-2.9-0.3-4.3-0.4c-2.2-0.2-4.5-0.3-6.7-0.5
	c-3.6-0.2-7.2-0.3-10.8-0.7c-4.3-0.5-8.6-0.4-12.9-0.4c-4.6,0-9.1,0.3-13.7,0.2c-6.6-0.1-13.3-0.4-19.9-0.6
	c-2.9-0.1-5.7-0.4-8.6-0.3c-6.3,0.2-12.5,0.6-18.7,0.7c-6.6,0.1-13.1,0.1-19.7,0.1c-1.8,0-3.7,0.1-5.5,0.1c-6.3,0-12.6-0.1-18.9,0
	c-6,0.1-12,0.5-18,0.7c-4.6,0.2-9.3,0.3-13.9,0.5c-3.5,0.2-7,0.4-10.5,0.5c-4.6,0.1-9.3,0.1-13.9,0.1c-5.1,0-10.2-0.1-15.3-0.1
	c-2,0-3.9,0-5.8,0c-0.5,0-1.2,0-1.6,0.3c-0.8,0.6-1.6,0.6-2.5,0.5c-2.7-0.2-5.4-0.4-8.1-0.6c-4.9-0.3-9.7-0.7-14.6-0.9
	c-5.3-0.2-10.7-0.8-16-1.2c-5-0.4-10-0.9-15-1.3c-3.3-0.3-6.7-0.6-10-0.9c-3.7-0.3-7.3-0.7-11-1.1c-3.5-0.3-7-0.7-10.5-1.2
	c-5.6-0.8-11.1-1.7-16.6-2.6c-1.8-0.3-3.6-0.6-5.4-1c-1.8-0.4-2.7-1.7-2.9-3.4c-0.2-2.1,0.5-3.7,2.4-4.8c2-1.1,4.1-1.6,6.4-1.7
	c2.4-0.1,4.8-0.2,7.2-0.3c0.6,0,1.3,0,1.9,0c3,0.1,5.9,0.3,8.9,0.2c1.6-0.1,3.3,0,5,0c2.3,0.1,4.6,0.2,6.9,0.3
	c4.1,0.2,8.3,0.5,12.4,0.7c3.9,0.2,7.8,0.3,11.7,0.5c1,0.1,2.1,0.1,3.1,0.2c1.9,0.2,3.8,0.2,5.7,0c0.8-0.1,1.7-0.2,2.6-0.2
	c5.9,0,11.8-0.1,17.7-0.1c5.7,0.1,11.3,0.3,17,0.4c2.2,0.1,4.5,0.1,6.7,0.2c1.6,0.1,3.2,0.1,4.8,0.1c4.5,0.1,9.1,0.3,13.6,0.4
	c3.6,0.1,7.2-0.1,10.8-0.1c5.9,0,11.8,0.1,17.7,0.2c3.3,0,6.7,0.1,10,0.2c4.3,0.1,8.6,0.1,12.9,0.2c3.4,0.1,6.9,0.2,10.3,0.3
	c2.4,0.1,4.8,0.2,7.2,0.3c4.8,0.2,9.6,0.5,14.4,0.6c4.3,0.1,8.7-0.1,13.1-0.2c2.4,0,4.7,0.1,7,0.1c1.6,0,3.2,0.1,4.8,0.1
	c2.2-0.1,4.5-0.3,6.7-0.2c3.9,0.1,7.7-0.4,11.5-0.4c5.1-0.1,10.2-0.5,15.3-0.6c7.5-0.1,14.9-0.8,22.3-1.2c0.4,0,0.8-0.1,1.2-0.1
	c3.4-0.4,6.8-0.7,10.2-1.1c2.5-0.2,5-0.4,7.4-0.7c5-0.7,9.8-2.2,14.6-3.8c2-0.7,3.9-1.4,5.7-2.5c2.9-1.7,5.8-3.4,8.6-5.2
	c0.7-0.5,1.3-1.2,1.8-1.9c0.8-1.2,1.5-2.6,2.4-3.8c1.2-1.5,1.7-3.2,1.8-5.1c0-1-0.1-1.9-0.7-2.7c-1.2-1.5-2.2-3.1-3.3-4.7
	c-0.5-0.8-1.2-1.1-2.1-1.4c-4.3-1.4-8.6-1.9-13-2.3c-7.7-0.6-15.4-1.2-23.2-0.7c-5,0.3-10.1,0.4-15.1,0.7
	c-7.5,0.5-15.1,1.4-22.7,1.4c-7.1,0.1-14.2,0.4-21.3,0.9c-6.3,0.4-12.7,0.7-19.1,1.1c-4,0.2-8,0.5-12,0.7c-5.7,0.2-11.3,0.4-17,0.6
	c-1.8,0.1-3.7,0.1-5.5,0.2c-4.1,0.2-8.1,0.3-12.2,0.4c-5,0-10.1,0-15.1,0c-6.5-0.1-12.9-0.1-19.4-0.2c-8.1-0.2-16.1-0.5-24.2-0.7
	c-5.4-0.1-10.9-0.1-16.3-0.2c-1.8,0-3.7-0.1-5.5-0.2c-4.8-0.3-9.6-0.5-14.4-0.7c-2.4-0.1-4.9-0.1-7.4-0.2c-4.2-0.1-8.5-0.4-12.7-0.6
	c-3.7-0.2-7.3-0.3-11-0.4c-1.4,0-2.7,0-4,0.6c-0.4,0.3-1,0.3-1.6,0.3c-6.4,0.5-12.9,0.5-19.3,1.5c-2.4,0.4-4.6-0.3-6.5-1.9
	c-1.2-1-1.6-2.4-1.8-3.8c-0.1-0.4,0.3-0.9,0.6-1.2c1.2-1.1,2.7-1.7,4.3-1.9c2.6-0.3,5.3-0.5,7.9-0.6c2.6-0.1,5.3,0,7.9,0
	c0.8,0,1.5-0.1,2.2-0.1c1.2-0.1,2.4-0.1,3.6-0.2c1-0.1,2.1-0.1,3.1-0.1c3-0.1,6.1-0.3,9.1-0.4c6.4-0.2,12.8-0.3,19.2-0.5
	c0.2,0,0.3,0,0.5,0c3.7-0.2,7.3-0.3,11-0.5c4.3-0.2,8.6-0.4,12.9-0.6c1.4-0.1,2.8,0,4.1-0.2c4.5-0.6,8.9-0.6,13.4-0.7
	c6.2-0.2,12.3-0.1,18.5-0.2c1,0,2.1-0.1,3.1-0.1c6.4-0.2,12.8-0.5,19.2-0.6c5-0.1,9.9,0,14.9,0c3.6,0,7.3,0,11,0.2
	c5.9,0.4,11.8-0.3,17.7-0.2c0.2,0,0.5-0.1,0.7-0.1c2.9-0.2,5.7-0.6,8.6-0.8c5.9-0.4,11.8-0.8,17.7-1.2c4.6-0.2,9.3-0.5,13.9-0.7
	c2.3-0.1,4.6-0.1,6.9-0.2c4.3-0.2,8.6-0.5,12.9-0.7c3.6-0.2,7.2-0.4,10.8-0.6c3.4-0.2,6.9-0.4,10.3-0.6c2.1-0.1,4.3-0.4,6.4-0.7
	c2.9-0.4,5.8-1,8.7-1.5c3.1-0.5,6.1-0.9,9.3-0.6c6.3,0.5,12.6,0.7,18.9,1c2.6,0.1,5.3,0.1,7.9,0.1c1.6,0,3.2-0.4,4.3-1.7
	c2.3-2.6,4-5.6,4.8-9c0.5-1.9,0.4-3.8-0.5-5.6c-0.7-1.4-1.3-2.9-1.8-4.4c-0.6-1.9-1.8-3.4-3.1-4.8c-0.5-0.5-1-1-1.5-1.5
	c-0.6-0.8-1.5-1.1-2.5-1.2c-2.4-0.2-4.8-0.4-7.2-0.6c-3.9-0.4-7.8-0.7-11.7-1.1c-4.9-0.4-9.7-0.9-14.6-1.3c-2.9-0.2-5.7-0.3-8.6-0.5
	c-3.7-0.2-7.5-0.5-11.2-0.7c-4.2-0.2-8.5-0.5-12.7-0.7c-4.5-0.2-9.1-0.5-13.6-0.7s-9.1,0-13.6-0.5c-3.4-0.4-6.9-0.4-10.3-0.5
	c-8-0.3-16-0.3-24-0.7c-3-0.1-6.1,0-9.1,0c-3-0.1-6.1-0.3-9.1-0.3c-14-0.1-28-0.1-42-0.2c-7.1-0.1-14.2-0.2-21.3-0.3
	c-6.5-0.1-12.9-0.3-19.4-0.5c-6.9-0.2-13.7-0.5-20.6-0.6c-5.8-0.1-11.7,0.1-17.5-0.3c-2.8-0.1-5.5,0-8.2-0.1
	c-6.1-0.1-12.1-0.3-18.2-0.4c-8.7-0.2-17.4-0.5-26.1-0.6c-5.7-0.1-11.3-0.4-17-0.7c-5.7-0.3-11.3-0.5-17-0.8
	c-1.8-0.1-3.6-0.2-5.3-0.4C12.9,15.3,8.4,14.6,4,14c-1-0.1-2-0.2-3,0.2c-0.1,0-0.1,0.1-0.2,0.1C0.3,14.5,0,14.9,0,15.4
	c0,0.4,0,0.8,0,1.2c0,3.6,0,7.1,0,10.6c0,0.6,0.1,1.2,0.2,1.9c0.2,0.1,0.4,0.1,0.6,0.2C1.8,29.6,2.7,29.5,3.8,28.5z M712.4,35.8
	c-0.8,0.2-1.6,0.5-2.5,0.7c-3.1,0.5-6.3,1-9.5,1.1c-4,0.2-8,0.3-12,0.5c-2.1,0.1-4.3,0.2-6.4,0.5c-6.1,0.8-12.2,1.4-18.3,1.8
	c-3.3,0.2-6.7,0.3-10,0.5c-2.9,0.1-5.8,0.4-8.8,0.5c-3.6,0.2-7.2,0.4-10.8,0.4c-4.8,0-9.7,0.2-14.6-0.1c-1.6-0.1-3.3,0.1-5,0.1
	c-0.7,0-1.3,0-1.8,0c-0.6-0.5-1-0.9-1.5-1.3c-1.4,1.2-1.4,1.3-3.2,1.2c-3-0.2-6.1-0.3-9.1-0.5c-3.9-0.2-7.8-0.2-11.7-0.6
	c-3.9-0.3-7.8-0.2-11.7-0.3c-5.2-0.1-10.4,0-15.6,0.1c-2.6,0-5.1,0.2-7.7,0.2c-4.6,0.1-9.1,0.1-13.7,0.2c-6.3,0.2-12.6,0.4-18.9,0.5
	c-5.4,0.1-10.9,0.2-16.3,0.3c-1.5,0-3-0.3-4.5-0.2c-2.4,0.1-4.8,0-7.2,0c-6.2-0.1-12.3-0.1-18.5-0.2c-2.9,0-5.7-0.3-8.6-0.5
	c-3.1-0.2-6.1-0.4-9.1-0.7c-1.1-0.1-2.2-0.2-3.3-0.3c-0.6,0-1.3-0.1-1.9,0.1c-1.1,0.3-2.1,0.2-3.1,0c-4.2-1-8.5-1.4-12.7-2.2
	c-0.5-0.2-1.1-0.2-1.6-0.4c-1.8-0.6-2.9-2.3-2.8-4.1c0-0.8,0.4-1.5,1-2.1c1.3-1.1,2.6-2,4.4-2.2c5.9-0.6,11.8-1.4,17.7-1.5
	c3,0,6-0.3,8.9-0.3c3.8,0.1,7.7,0.3,11.5,0.6c2.1,0.2,4.3,0.5,6.4,0.7c4.1,0.3,8.1,0.5,12.2,0.8c1.6,0.1,3.2,0.4,4.8,0.5
	c6.8,0.5,13.5,1,20.3,1.4c3.7,0.2,7.5,0.3,11.2,0.5c4.1,0.2,8.3,0.4,12.4,0.6c3.1,0.2,6.3,0.6,9.5,0.8c8.4,0.5,16.8,0.7,25.2,0.4
	c4.5-0.1,9.1-0.3,13.6-0.4c4.7-0.2,9.4-0.3,14.1-0.5c1.3-0.1,2.5-0.2,3.8-0.2c5.3,0.1,10.7,0.2,16,0.4c4.1,0.1,8.1,0.3,12.2,0.5
	c3.9,0.2,7.7,0.6,11.5,0.8c3.8,0.3,7.7,0.5,11.5,0.7c3.1,0.2,6.3,0.5,9.5,0.7c2.2,0.1,4.5,0.1,6.7,0.1c2.6,0,5.1-0.1,7.7-0.1
	c2.4,0,4.8,0.1,7.2,0.1c4.8,0,9.6,0.4,14.4,0.5c2.2,0,4.4-0.1,6.5-0.3c0.8,0,1.5,0,2.3,0C712.5,35.9,712.5,36.1,712.4,35.8z
	 M714.7,35.8c-0.3,0-0.6,0.1-0.8,0.1c-0.1,0-0.2-0.2-0.2-0.3c0-0.1,0.1-0.2,0.2-0.2c0.2,0,0.5,0.1,0.8,0.1
	C714.7,35.6,714.7,35.7,714.7,35.8z"/>
</svg>
