<?xml version="1.0" encoding="utf-8"?>
<!-- Generator: Adobe Illustrator 22.1.0, SVG Export Plug-In . SVG Version: 6.00 Build 0)  -->
<svg version="1.1" id="Layer_1" xmlns="http://www.w3.org/2000/svg" xmlns:xlink="http://www.w3.org/1999/xlink" x="0px" y="0px"
	 viewBox="0 0 560.9 529.9" style="enable-background:new 0 0 560.9 529.9;" xml:space="preserve">
<style type="text/css">
	.st0{fill:none;}
	.st1{fill:#FFFFFF;}
</style>
<g>
	<rect x="-58.3" y="32.1" class="st0" width="511.2" height="498.8"/>
</g>
<g>
	<path class="st1" d="M175.7,5.3l2.8-0.8l-1,15l-2.7,0.8l-9-12l2.9-0.9l6.5,9L175.7,5.3z"/>
	<path class="st1" d="M184.6,17.8l-1.8-14l8.7-1.1l0.3,2.6l-6,0.8l0.4,3.2l5.5-0.7l0.3,2.4l-5.5,0.7l0.4,3.2l6-0.8l0.3,2.6
		L184.6,17.8z"/>
	<path class="st1" d="M205.5,16.7l-6.1-10.2l-0.3,10l-2.7-0.1l0.5-14.1l3.4,0.1l5.5,9.5l0.3-9.3l2.7,0.1l-0.5,14.1L205.5,16.7z"/>
	<path class="st1" d="M220,7.3l-2.3,11.2l-2.7-0.6l2.3-11.2l-4.4-0.9l0.5-2.5l11.4,2.4l-0.5,2.5L220,7.3z"/>
	<path class="st1" d="M231.9,19.6l-5.4-2l-2.2,2.6l-2.7-1l10-11.3l3,1.1l0.1,15.1l-2.8-1L231.9,19.6z M228.3,15.6l3.6,1.4l0-5.7
		L228.3,15.6z"/>
	<path class="st1" d="M244.4,29.7L244,17.9l-5.1,8.6l-2.4-1.4l7.2-12.1l2.9,1.8l0.3,11l4.8-8l2.4,1.4l-7.2,12.1L244.4,29.7z"/>
	<path class="st1" d="M258,36.4l-4.3-3.8l-3,1.6l-2.2-1.9l13.3-7l2.4,2.1L259,41.5l-2.2-2L258,36.4z M256.1,31.3l2.9,2.6l2-5.3
		L256.1,31.3z"/>
	<path class="st1" d="M280.6,46.5l1.7,2.4l-14.5,3.8l-1.6-2.3l8.5-12.4l1.7,2.5l-6.5,9L280.6,46.5z"/>
	<path class="st1" d="M271.7,58.9l12.6-6.2l3.9,7.9l-2.3,1.1l-2.7-5.5l-2.9,1.4l2.4,4.9l-2.2,1.1l-2.4-4.9l-2.9,1.4l2.7,5.5
		l-2.3,1.1L271.7,58.9z"/>
	<path class="st1" d="M279.4,78.4l7.8-9l-9.6,2.8l-0.8-2.6l13.5-4l1,3.3l-7.3,8.3l8.9-2.6l0.8,2.6l-13.5,4L279.4,78.4z"/>
	<path class="st1" d="M292.9,89.1l-11.4,1.3l-0.3-2.7l11.4-1.3L292,82l2.6-0.3l1.4,11.6l-2.6,0.3L292.9,89.1z"/>
	<path class="st1" d="M285,104.4l0.2-5.7l-3.2-1.3l0.1-2.9l13.9,5.8l-0.1,3.2l-14.2,4.9l0.1-3L285,104.4z M287.6,99.6l-0.1,3.9
		l5.4-1.8L287.6,99.6z"/>
	<path class="st1" d="M279.4,119.3l11.1-4.1l-9.8-2.1l0.6-2.7l13.8,3l-0.7,3.3l-10.3,3.8l9.1,2l-0.6,2.7l-13.8-3L279.4,119.3z"/>
	<path class="st1" d="M277.4,134.4l2.2-5.3l-2.5-2.3l1.1-2.7l10.9,10.4l-1.2,2.9l-15.1-0.5l1.1-2.7L277.4,134.4z M281.6,131
		l-1.5,3.6l5.7,0.3L281.6,131z"/>
	<path class="st1" d="M274.9,159.1l-1.7,2.3l-8.2-12.6l1.7-2.3l14.4,4.2l-1.8,2.4l-10.6-3.3L274.9,159.1z"/>
	<path class="st1" d="M260.3,154.5l9.9,10l-6.3,6.2l-1.8-1.8l4.3-4.3l-2.3-2.3l-3.9,3.9l-1.7-1.7l3.9-3.9l-2.3-2.3l-4.3,4.3
		l-1.8-1.8L260.3,154.5z"/>
	<path class="st1" d="M244.3,168l11,4.5l-5.7-8.2l2.2-1.6l8.1,11.5l-2.8,2l-10.1-4.2l5.4,7.6l-2.2,1.6l-8.1-11.5L244.3,168z"/>
	<path class="st1" d="M238.5,184.2l-4.9-10.4l2.5-1.2l4.9,10.4l4-1.9l1.1,2.3l-10.5,5l-1.1-2.4L238.5,184.2z"/>
	<path class="st1" d="M221.5,181.6l5.5-1.6l0.2-3.4l2.8-0.8l-1.1,15l-3,0.9l-9.2-11.9l2.9-0.9L221.5,181.6z M226.8,182.6l-3.7,1.1
		l3.4,4.5L226.8,182.6z"/>
	<path class="st1" d="M205.5,181l7.4,9.2l-1.1-9.9l2.7-0.3l1.5,14l-3.4,0.4l-6.8-8.6l1,9.3l-2.7,0.3l-1.5-14L205.5,181z"/>
	<path class="st1" d="M190.6,184l5.7,0.4l1.4-3.1l2.9,0.2l-6.4,13.7l-3.2-0.2l-4.3-14.4l3,0.2L190.6,184z M195.2,186.8l-3.9-0.3
		l1.6,5.4L195.2,186.8z"/>
	<path class="st1" d="M166.4,189.5l-2.8-0.9l9.3-11.8l2.7,0.9l0.6,15l-2.9-0.9l-0.3-11.1L166.4,189.5z"/>
	<path class="st1" d="M166.1,174.2l-6.4,12.6l-7.9-4l1.2-2.3l5.4,2.8l1.5-2.9l-4.9-2.5l1.1-2.2l4.9,2.5l1.5-2.9l-5.4-2.8l1.2-2.3
		L166.1,174.2z"/>
	<path class="st1" d="M148.2,163.3l-0.8,11.8l5.9-8l2.2,1.6l-8.4,11.3l-2.8-2l0.8-11l-5.5,7.5l-2.2-1.6l8.4-11.3L148.2,163.3z"/>
	<path class="st1" d="M131,162.9l8.3-8l1.9,2l-8.3,8l3.1,3.2l-1.9,1.8l-8.1-8.4l1.9-1.8L131,162.9z"/>
	<path class="st1" d="M128.1,146l3.3,4.7l3.3-0.9l1.7,2.4l-14.6,3.7l-1.8-2.6l8.4-12.5l1.7,2.4L128.1,146z M128.8,151.3l-2.3-3.2
		l-3.2,4.7L128.8,151.3z"/>
	<path class="st1" d="M123.5,130.6l-6.4,10l9.1-4.2l1.2,2.5l-12.8,5.9l-1.4-3.1l6-9.2l-8.5,3.9l-1.2-2.5l12.8-5.9L123.5,130.6z"/>
	<path class="st1" d="M116,117.4l1.4,5.5l3.4,0.3l0.7,2.8l-15-1.7l-0.8-3.1l12.3-8.7l0.7,2.9L116,117.4z M114.7,122.7l-1-3.8
		l-4.7,3.2L114.7,122.7z"/>
	<path class="st1" d="M103.1,96.4l0-2.9l14.2,5l0,2.8l-14,5.4l0-3l10.4-3.8L103.1,96.4z"/>
	<path class="st1" d="M117.5,91.1l-13.9-2l1.3-8.7l2.6,0.4l-0.9,6l3.2,0.5l0.8-5.4l2.4,0.3l-0.8,5.4l3.2,0.5l0.9-6l2.6,0.4
		L117.5,91.1z"/>
	<path class="st1" d="M122.1,70.7l-11.5,3l9.5,3.1l-0.8,2.6l-13.4-4.3l1-3.3l10.7-2.7l-8.9-2.8l0.8-2.6l13.4,4.3L122.1,70.7z"/>
	<path class="st1" d="M117,54.2l10.2,5.3l-1.3,2.4l-10.2-5.3l-2.1,3.9l-2.3-1.2l5.4-10.3l2.3,1.2L117,54.2z"/>
	<path class="st1" d="M132.1,46.1l-3.4,4.6l1.9,2.8l-1.7,2.3l-8.2-12.7l1.9-2.6l14.5,4l-1.8,2.4L132.1,46.1z M127.3,48.5l2.3-3.1
		l-5.4-1.6L127.3,48.5z"/>
	<path class="st1" d="M145.3,36.9L133.7,34l6.9,7.3l-2,1.9l-9.7-10.2l2.5-2.3l10.7,2.7l-6.4-6.8l2-1.9l9.7,10.2L145.3,36.9z"/>
	<path class="st1" d="M155.4,25.5l-4.8,3.1l0.8,3.3l-2.4,1.6l-3.1-14.8l2.7-1.7l12.2,8.9l-2.5,1.6L155.4,25.5z M150,26l3.3-2.1
		l-4.5-3.4L150,26z"/>
</g>
<g>
	<path class="st1" d="M348,496.3v-3.1l14.9,5.5v3l-14.9,5.5V504l11.1-3.9L348,496.3z"/>
	<path class="st1" d="M362.8,490.6H348v-9.3h2.7v6.4h3.4v-5.8h2.6v5.8h3.4v-6.4h2.7V490.6z"/>
	<path class="st1" d="M362.8,468.1l-10.6,6.8h10.6v2.9H348v-3.6l9.8-6.2H348v-2.9h14.9V468.1z"/>
	<path class="st1" d="M350.7,454.8h12.1v2.9h-12.1v4.7H348v-12.3h2.8V454.8z"/>
	<path class="st1" d="M359.4,439.9v6l3.4,1.2v3.1l-14.9-5.7v-3.4l14.9-5.7v3.1L359.4,439.9z M356.8,445v-4.1l-5.6,2.1L356.8,445z"/>
	<path class="st1" d="M362.8,423.3l-10.6,6.8h10.6v2.9H348v-3.6l9.8-6.2H348v-2.9h14.9V423.3z"/>
	<path class="st1" d="M359.4,407.4v6l3.4,1.2v3.1L348,412v-3.4l14.9-5.7v3.1L359.4,407.4z M356.8,412.5v-4.1l-5.6,2.1L356.8,412.5z"
		/>
	<path class="st1" d="M348,385.2v-3.1l14.9,5.5v3l-14.9,5.5v-3.2l11.1-3.9L348,385.2z"/>
	<path class="st1" d="M362.8,379.6H348v-9.3h2.7v6.4h3.4v-5.8h2.6v5.8h3.4v-6.4h2.7V379.6z"/>
	<path class="st1" d="M362.8,357l-10.6,6.8h10.6v2.9H348v-3.6l9.8-6.2H348V354h14.9V357z"/>
	<path class="st1" d="M350.7,343.7h12.1v2.9h-12.1v4.7H348V339h2.8V343.7z"/>
	<path class="st1" d="M359.4,328.8v6l3.4,1.2v3.1l-14.9-5.7v-3.4l14.9-5.7v3.1L359.4,328.8z M356.8,333.9v-4.1l-5.6,2.1L356.8,333.9
		z"/>
	<path class="st1" d="M362.8,312.2l-10.6,6.8h10.6v2.9H348v-3.6l9.8-6.2H348v-2.9h14.9V312.2z"/>
	<path class="st1" d="M359.4,296.3v6l3.4,1.2v3.1l-14.9-5.7v-3.4l14.9-5.7v3.1L359.4,296.3z M356.8,301.4v-4.1l-5.6,2.1L356.8,301.4
		z"/>
	<path class="st1" d="M348,274.1V271l14.9,5.5v3L348,285v-3.2L359,278L348,274.1z"/>
	<path class="st1" d="M362.7,268.6l-14.9-0.6l0.4-9.3l2.7,0.1l-0.2,6.4l3.4,0.1l0.2-5.8l2.6,0.1l-0.2,5.8l3.4,0.1l0.2-6.4l2.7,0.1
		L362.7,268.6z"/>
	<path class="st1" d="M365.2,246.9l-11.7,4.5l10.4,2.1l-0.6,2.8l-14.6-2.9l0.7-3.5l10.9-4.1l-9.7-1.9l0.6-2.8l14.6,2.9L365.2,246.9z
		"/>
	<path class="st1" d="M357.8,230.4l11.3,4.3l-1,2.7l-11.3-4.3l-1.7,4.4l-2.6-1l4.4-11.5l2.6,1L357.8,230.4z"/>
	<path class="st1" d="M372.5,220.2l-2.9,5.3l2.4,2.7l-1.5,2.7l-10.2-12.2l1.6-2.9l15.8,2.3l-1.5,2.8L372.5,220.2z M367.7,223.4
		l2-3.6l-5.9-0.9L367.7,223.4z"/>
	<path class="st1" d="M384.9,209l-12.5-1.4l8.2,6.7l-1.8,2.2l-11.5-9.4l2.3-2.8l11.5,1.4l-7.6-6.2l1.8-2.2l11.5,9.4L384.9,209z"/>
	<path class="st1" d="M393.7,195.8l-4.6,4l1.3,3.4l-2.3,2l-5.4-15l2.5-2.2l14,7.6l-2.4,2.1L393.7,195.8z M388.1,197.2l3.1-2.7
		l-5.2-2.9L388.1,197.2z"/>
	<path class="st1" d="M407.1,173.9l2.7-1.4l2,15.7l-2.6,1.4L397.4,179l2.8-1.5l8.6,8L407.1,173.9z"/>
	<path class="st1" d="M418.6,185l-4.9-14.1l8.8-3l0.9,2.6l-6.1,2.1l1.1,3.2l5.5-1.9l0.8,2.4l-5.5,1.9l1.1,3.3l6.1-2.1l0.9,2.6
		L418.6,185z"/>
	<path class="st1" d="M439.8,179.5l-8.5-9.3l1.8,10.4l-2.9,0.5l-2.5-14.7l3.6-0.6l7.8,8.6l-1.7-9.7l2.9-0.5l2.5,14.7L439.8,179.5z"
		/>
	<path class="st1" d="M452.3,166.6l0.2,12.1l-2.9,0l-0.2-12.1l-4.7,0.1l0-2.8l12.3-0.2l0,2.8L452.3,166.6z"/>
	<path class="st1" d="M467.3,176.6l-6-0.8l-1.7,3.2l-3-0.4l7.7-14l3.3,0.5l3.6,15.5l-3.1-0.4L467.3,176.6z M462.6,173.3l4.1,0.6
		l-1.3-5.9L462.6,173.3z"/>
	<path class="st1" d="M482.2,184l-3.2-12.1l-3.2,10.1l-2.8-0.9l4.6-14.2l3.4,1.1l2.9,11.3l3-9.4l2.8,0.9l-4.6,14.2L482.2,184z"/>
	<path class="st1" d="M497.7,187.5l-5.3-2.8l-2.7,2.4l-2.7-1.4l12-10.5l3,1.6l-2,15.8l-2.8-1.5L497.7,187.5z M494.4,182.7l3.6,1.9
		l0.8-5.9L494.4,182.7z"/>
	<path class="st1" d="M523,192l2.3,2l-14,7.6l-2.2-2l5.6-14.8l2.4,2.1l-4.4,10.9L523,192z"/>
	<path class="st1" d="M516.8,206.8l11.3-9.6l6,7.1l-2.1,1.8l-4.2-4.9l-2.6,2.2l3.8,4.4l-2,1.7l-3.8-4.4l-2.6,2.2l4.2,4.9l-2.1,1.8
		L516.8,206.8z"/>
	<path class="st1" d="M529.7,224.5l5.5-11.3l-9,5.5l-1.5-2.5l12.7-7.7l1.9,3.1l-5.2,10.4l8.4-5.1l1.5,2.5l-12.7,7.7L529.7,224.5z"/>
	<path class="st1" d="M546.3,231.6l-11.3,4.5l-1.1-2.7l11.3-4.5l-1.7-4.4l2.6-1l4.6,11.4l-2.6,1L546.3,231.6z"/>
	<path class="st1" d="M542.3,249l-1.4-5.9l-3.6-0.4l-0.7-3l15.8,2.1l0.8,3.3l-13.2,9l-0.7-3.1L542.3,249z M543.7,243.5l1,4l5-3.3
		L543.7,243.5z"/>
	<path class="st1" d="M540.8,265.7l10.1-7.4l-10.5,0.6l-0.2-2.9l14.9-0.9l0.2,3.6l-9.5,6.8l9.8-0.6l0.2,2.9l-14.9,0.9L540.8,265.7z"
		/>
	<path class="st1" d="M544.2,281.4v-6l-3.4-1.2v-3.1l14.9,5.7v3.4l-14.9,5.7v-3.2L544.2,281.4z M546.8,276.4v4.1l5.6-2.1
		L546.8,276.4z"/>
	<path class="st1" d="M555.6,303.6v3.1l-14.9-5.5v-3l14.9-5.5v3.2l-11.1,3.9L555.6,303.6z"/>
	<path class="st1" d="M540.8,309.3h14.9v9.3h-2.7v-6.4h-3.4v5.8h-2.6v-5.8h-3.4v6.4h-2.7V309.3z"/>
	<path class="st1" d="M540.8,331.8l10.6-6.8h-10.6v-2.9h14.9v3.6l-9.8,6.2h9.8v2.9h-14.9V331.8z"/>
	<path class="st1" d="M552.9,345.1h-12.1v-2.9h12.1v-4.7h2.8v12.3h-2.8V345.1z"/>
	<path class="st1" d="M544.2,360v-6l-3.4-1.2v-3.1l14.9,5.7v3.4l-14.9,5.7v-3.1L544.2,360z M546.8,354.9v4.1l5.6-2.1L546.8,354.9z"
		/>
	<path class="st1" d="M540.8,376.6l10.6-6.8h-10.6v-2.9h14.9v3.6l-9.8,6.2h9.8v2.9h-14.9V376.6z"/>
	<path class="st1" d="M544.2,392.5v-6l-3.4-1.2v-3.1l14.9,5.7v3.4l-14.9,5.7v-3.2L544.2,392.5z M546.8,387.4v4.1l5.6-2.1
		L546.8,387.4z"/>
	<path class="st1" d="M555.6,414.7v3.1l-14.9-5.5v-3l14.9-5.5v3.2l-11.1,3.9L555.6,414.7z"/>
	<path class="st1" d="M540.8,420.3h14.9v9.3h-2.7v-6.4h-3.4v5.8h-2.6v-5.8h-3.4v6.4h-2.7V420.3z"/>
	<path class="st1" d="M540.8,442.8l10.6-6.8h-10.6v-2.9h14.9v3.6l-9.8,6.2h9.8v2.9h-14.9V442.8z"/>
	<path class="st1" d="M552.9,456.2h-12.1v-2.9h12.1v-4.7h2.8v12.3h-2.8V456.2z"/>
	<path class="st1" d="M544.2,471v-6l-3.4-1.2v-3.1l14.9,5.7v3.4l-14.9,5.7v-3.1L544.2,471z M546.8,466v4.1l5.6-2.1L546.8,466z"/>
	<path class="st1" d="M540.8,487.6l10.6-6.8h-10.6V478h14.9v3.6l-9.8,6.2h9.8v2.9h-14.9V487.6z"/>
	<path class="st1" d="M544.2,503.6v-6l-3.4-1.2v-3.1l14.9,5.7v3.4l-14.9,5.7v-3.1L544.2,503.6z M546.8,498.5v4.1l5.6-2.1
		L546.8,498.5z"/>
</g>
<g>
	<path class="st1" d="M230,319v2.9l-14.1-5.2v-2.8l14.1-5.2v3l-10.5,3.7L230,319z"/>
	<path class="st1" d="M216,323.7H230v8.8h-2.6v-6.1h-3.2v5.5h-2.4v-5.5h-3.3v6.1H216V323.7z"/>
	<path class="st1" d="M216,344.4l10-6.4h-10v-2.7H230v3.4l-9.3,5.9h9.3v2.7H216V344.4z"/>
	<path class="st1" d="M227.4,356.4H216v-2.8h11.5v-4.5h2.6v11.7h-2.6V356.4z"/>
	<path class="st1" d="M219.2,369.9v-5.7L216,363v-2.9l14.1,5.4v3.2L216,374v-3L219.2,369.9z M221.7,365.1v3.9l5.3-1.9L221.7,365.1z"
		/>
	<path class="st1" d="M216,385l10-6.4h-10v-2.7H230v3.4l-9.3,5.9h9.3v2.7H216V385z"/>
	<path class="st1" d="M219.2,399.5v-5.7l-3.2-1.2v-2.9l14.1,5.4v3.2l-14.1,5.4v-3L219.2,399.5z M221.7,394.7v3.9l5.3-1.9
		L221.7,394.7z"/>
</g>
<g>
	<path class="st1" d="M18.9,307.6h2.9l-5.2,14.1h-2.8l-5.2-14.1h3l3.7,10.5L18.9,307.6z"/>
	<path class="st1" d="M24.2,321.7v-14.1h8.8v2.6H27v3.2h5.5v2.4H27v3.3h6.1v2.6H24.2z"/>
	<path class="st1" d="M45.5,321.7l-6.4-10v10h-2.7v-14.1h3.4l5.9,9.3v-9.3h2.7v14.1H45.5z"/>
	<path class="st1" d="M58.1,310.2v11.5h-2.8v-11.5h-4.5v-2.6h11.7v2.6H58.1z"/>
	<path class="st1" d="M72.2,318.5h-5.7l-1.2,3.2h-2.9l5.4-14.1H71l5.4,14.1h-3L72.2,318.5z M67.4,316h3.9l-1.9-5.3L67.4,316z"/>
	<path class="st1" d="M87.9,321.7l-6.4-10v10h-2.7v-14.1h3.4L88,317v-9.3h2.7v14.1H87.9z"/>
	<path class="st1" d="M103,318.5h-5.7l-1.2,3.2h-2.9l5.4-14.1h3.2l5.4,14.1h-3L103,318.5z M98.2,316h3.9l-1.9-5.3L98.2,316z"/>
	<path class="st1" d="M124,307.6h2.9l-5.2,14.1h-2.8l-5.2-14.1h3l3.7,10.5L124,307.6z"/>
	<path class="st1" d="M129.3,321.7v-14.1h8.8v2.6H132v3.2h5.5v2.4H132v3.3h6.1v2.6H129.3z"/>
	<path class="st1" d="M150.6,321.7l-6.4-10v10h-2.7v-14.1h3.4l5.9,9.3v-9.3h2.7v14.1H150.6z"/>
	<path class="st1" d="M163.2,310.2v11.5h-2.8v-11.5H156v-2.6h11.7v2.6H163.2z"/>
	<path class="st1" d="M177.2,318.5h-5.7l-1.2,3.2h-2.9l5.4-14.1h3.2l5.4,14.1h-3L177.2,318.5z M172.4,316h3.9l-1.9-5.3L172.4,316z"
		/>
	<path class="st1" d="M192.9,321.7l-6.4-10v10h-2.7v-14.1h3.4l5.9,9.3v-9.3h2.7v14.1H192.9z"/>
	<path class="st1" d="M208,318.5h-5.7l-1.2,3.2h-2.9l5.4-14.1h3.2l5.4,14.1h-3L208,318.5z M203.2,316h3.9l-1.9-5.3L203.2,316z"/>
</g>
<g>
	<path class="st1" d="M221.3,421.3h-2.9l5.2-14.1h2.8l5.2,14.1h-3l-3.7-10.5L221.3,421.3z"/>
	<path class="st1" d="M216,407.2v14.1h-8.8v-2.6h6.1v-3.2h-5.5V413h5.5v-3.3h-6.1v-2.6H216z"/>
	<path class="st1" d="M194.7,407.2l6.4,10v-10h2.7v14.1h-3.4l-5.9-9.3v9.3h-2.7v-14.1H194.7z"/>
	<path class="st1" d="M182.1,418.7v-11.5h2.8v11.5h4.5v2.6h-11.7v-2.6H182.1z"/>
	<path class="st1" d="M168,410.4h5.7l1.2-3.2h2.9l-5.4,14.1h-3.2l-5.4-14.1h3L168,410.4z M172.8,412.9h-3.9l1.9,5.3L172.8,412.9z"/>
	<path class="st1" d="M152.3,407.2l6.4,10v-10h2.7v14.1H158l-5.9-9.3v9.3h-2.7v-14.1H152.3z"/>
	<path class="st1" d="M137.2,410.4h5.7l1.2-3.2h2.9l-5.4,14.1h-3.2l-5.4-14.1h3L137.2,410.4z M142,412.9h-3.9l1.9,5.3L142,412.9z"/>
	<path class="st1" d="M116.2,421.3h-2.9l5.2-14.1h2.8l5.2,14.1h-3l-3.7-10.5L116.2,421.3z"/>
	<path class="st1" d="M110.9,407.2v14.1h-8.8v-2.6h6.1v-3.2h-5.5V413h5.5v-3.3h-6.1v-2.6H110.9z"/>
	<path class="st1" d="M89.6,407.2l6.4,10v-10h2.7v14.1h-3.4l-5.9-9.3v9.3h-2.7v-14.1H89.6z"/>
	<path class="st1" d="M77,418.7v-11.5h2.8v11.5h4.5v2.6H72.6v-2.6H77z"/>
	<path class="st1" d="M63,410.4h5.7l1.2-3.2h2.9l-5.4,14.1h-3.2l-5.4-14.1h3L63,410.4z M67.8,412.9h-3.9l1.9,5.3L67.8,412.9z"/>
	<path class="st1" d="M47.3,407.2l6.4,10v-10h2.7v14.1H53l-5.9-9.3v9.3h-2.7v-14.1H47.3z"/>
	<path class="st1" d="M32.2,410.4h5.7l1.2-3.2H42l-5.4,14.1h-3.2L28,407.2h3L32.2,410.4z M37,412.9h-3.9l1.9,5.3L37,412.9z"/>
</g>
<g>
	<path class="st1" d="M545.3,526h-2.9l5.2-14.1h2.8l5.2,14.1h-3l-3.7-10.5L545.3,526z"/>
	<path class="st1" d="M539.6,511.9V526h-8.8v-2.6h6.1v-3.2h-5.5v-2.4h5.5v-3.3h-6.1v-2.6H539.6z"/>
	<path class="st1" d="M517.9,511.9l6.4,10v-10h2.7V526h-3.4l-5.9-9.3v9.3H515v-14.1H517.9z"/>
	<path class="st1" d="M504.9,523.4v-11.5h2.8v11.5h4.5v2.6h-11.7v-2.6H504.9z"/>
	<path class="st1" d="M490.4,515.1h5.7l1.2-3.2h2.9l-5.4,14.1h-3.2l-5.4-14.1h3L490.4,515.1z M495.2,517.6h-3.9l1.9,5.3L495.2,517.6
		z"/>
	<path class="st1" d="M474.3,511.9l6.4,10v-10h2.7V526H480l-5.9-9.3v9.3h-2.7v-14.1H474.3z"/>
	<path class="st1" d="M458.8,515.1h5.7l1.2-3.2h2.9l-5.4,14.1h-3.2l-5.4-14.1h3L458.8,515.1z M463.6,517.6h-3.9l1.9,5.3L463.6,517.6
		z"/>
	<path class="st1" d="M437.1,526h-2.9l5.2-14.1h2.8l5.2,14.1h-3l-3.7-10.5L437.1,526z"/>
	<path class="st1" d="M431.4,511.9V526h-8.8v-2.6h6.1v-3.2h-5.5v-2.4h5.5v-3.3h-6.1v-2.6H431.4z"/>
	<path class="st1" d="M409.7,511.9l6.4,10v-10h2.7V526h-3.4l-5.9-9.3v9.3h-2.7v-14.1H409.7z"/>
	<path class="st1" d="M396.7,523.4v-11.5h2.8v11.5h4.5v2.6h-11.7v-2.6H396.7z"/>
	<path class="st1" d="M382.2,515.1h5.7l1.2-3.2h2.9l-5.4,14.1h-3.2l-5.4-14.1h3L382.2,515.1z M387,517.6h-3.9l1.9,5.3L387,517.6z"/>
	<path class="st1" d="M366.1,511.9l6.4,10v-10h2.7V526h-3.4l-5.9-9.3v9.3h-2.7v-14.1H366.1z"/>
	<path class="st1" d="M350.6,515.1h5.7l1.2-3.2h2.9L355,526h-3.2l-5.4-14.1h3L350.6,515.1z M355.4,517.6h-3.9l1.9,5.3L355.4,517.6z"
		/>
</g>
<g>
	<path class="st1" d="M10.6,410.8v-2.9l14.1,5.2v2.8l-14.1,5.2v-3l10.5-3.7L10.6,410.8z"/>
	<path class="st1" d="M24.7,406.1H10.6v-8.8h2.6v6.1h3.2v-5.5h2.4v5.5h3.3v-6.1h2.6V406.1z"/>
	<path class="st1" d="M24.7,385.4l-10,6.4h10v2.7H10.6v-3.4l9.3-5.9h-9.3v-2.7h14.1V385.4z"/>
	<path class="st1" d="M13.2,373.4h11.5v2.8H13.2v4.5h-2.6V369h2.6V373.4z"/>
	<path class="st1" d="M21.5,360v5.7l3.2,1.2v2.9l-14.1-5.4v-3.2l14.1-5.4v3L21.5,360z M19,364.8v-3.9l-5.3,1.9L19,364.8z"/>
	<path class="st1" d="M24.7,344.9l-10,6.4h10v2.7H10.6v-3.4l9.3-5.9h-9.3V342h14.1V344.9z"/>
	<path class="st1" d="M21.5,330.4v5.7l3.2,1.2v2.9l-14.1-5.4v-3.2l14.1-5.4v3L21.5,330.4z M19,335.2v-3.9l-5.3,1.9L19,335.2z"/>
</g>
</svg>
