<?xml version="1.0" encoding="utf-8"?>
<!-- Generator: Adobe Illustrator 22.1.0, SVG Export Plug-In . SVG Version: 6.00 Build 0)  -->
<svg version="1.1" id="Layer_1" xmlns="http://www.w3.org/2000/svg" xmlns:xlink="http://www.w3.org/1999/xlink" x="0px" y="0px"
	 viewBox="0 0 396 612" style="enable-background:new 0 0 396 612;" xml:space="preserve" preserveAspectRatio="none">
<style type="text/css">
	.st0{fill:#FFFE5C;}
	.st1{fill:#FF0000;}
</style>
<path class="st0" d="M394.8,600.4c-1.1,3.6-3.3,6.8-7.1,8.2c-3.6,1.3-7.2,2-11,0.8c-2.4-0.8-5-1.3-7.3-2.4c-3.9-1.8-6.4-5-7.9-8.9
	c-3.2-8-4.5-16.5-5.3-25c-0.6-5.9-1.2-11.8-1.5-17.7c-0.3-6.4-0.2-12.8-0.3-19.2c0-4.2,0.1-8.3-0.1-12.5c-0.3-8.3,0-16.6,0.6-24.9
	c1.1-14.3,2-28.7,3.1-43c0.5-6,1.3-12.1,1.9-18.1c0.9-8.7,2-17.5,2.8-26.2c0.7-8,1-16.1,1.5-24.2c0.3-4.7,1-9.4,1.3-14.1
	c0.3-5.5,0.4-11,0.6-16.5c0.1-2.2,0.2-4.3,0.3-6.5c0-0.6,0-1.3-0.2-1.9c-0.6-2.2-1.6-2.5-3.4-1.2c-1.1,0.8-2.2,1.6-3.3,2.4
	c-1.8,1.3-2.9,2.9-3.3,5.1c-0.3,1.5-0.5,3-0.6,4.5c-0.2,2.8-0.1,5.6-0.3,8.4c-0.2,2.4-0.5,4.8-0.8,7.1c-0.6,5.2-1.4,10.5-1.7,15.7
	c-0.7,10.1-1.4,20.3-1.6,30.4c-0.2,9.4,0.3,18.9,0.5,28.3c0.1,4.7,0.2,9.4,0.3,14.1c0.1,11.6,0.3,23.2,0.2,34.8
	c0,10.4-0.3,20.8-0.5,31.2c-0.1,7.4-0.2,14.7-0.3,22.1c-0.2,10.4-0.3,20.8-0.7,31.2c-0.2,4.5-1.1,8.9-1.7,13.3
	c-0.2,1.1-0.6,2.2-1.1,3.1c-1.8,3.2-4.1,6.1-6.6,8.8c-2.4,2.6-5.5,3.6-8.8,3.5c-2.3-0.1-4.6-0.5-6.8-1.3c-3.5-1.2-5.5-3.9-6.5-7.4
	c-1.2-4.2-1.9-8.4-1.9-12.8c0.1-14.6,0.3-29.3,0.5-43.9c0.1-6.3,0.2-12.6,0.5-18.9c0.3-7.6,0.8-15.2,1.2-22.7
	c0.7-12.3,1.3-24.6,0.7-36.9c-0.2-4.7-0.2-9.4-0.2-14.1c-0.1-5.9-0.2-11.8-0.2-17.7c0-1.8,0.1-3.7,0.2-5.5
	c0.7-9.9,0.4-19.8,0.7-29.7c0.2-5.2,0.5-10.4,0.7-15.6c0.2-4.3,0.3-8.6,0.6-12.9c0.3-5.5,0.8-11,1.1-16.5c0.1-2.3,0.2-4.7-0.2-6.9
	c-0.2-1.5-1.2-2.9-2.1-4.2c-0.6-0.8-3.2-0.6-4.2,0.5c-1,1-1.8,2.2-2.4,3.5c-0.7,1.4-1.3,2.9-1.7,4.5c-0.5,2-0.9,4-1.1,6.1
	c-1.1,11.3-0.1,22.7,0.6,34c0.3,5.4-0.1,10.9-0.2,16.3c-0.2,7.5-0.6,15-0.9,22.5c-0.3,7.9-0.6,15.8-0.9,23.7c-0.1,3-0.2,6.1-0.3,9.1
	c-0.2,13.2-0.4,26.4-0.5,39.6c0,4.5,0.3,8.9,0.4,13.4c0.1,4.2,0,8.5,0.1,12.7c0.2,8.7,0.5,17.4,0.7,26.1c0.2,8.9,0.3,17.7,0.5,26.6
	c0.1,3.2-0.6,6.2-2,9c-0.8,1.7-1.4,3.4-2.3,5c-0.5,1.1-1.2,2.1-2,2.9c-2.8,2.7-6,5-9.8,6.2c-2.1,0.7-4,0.3-5.8-0.5
	c-3.7-1.6-6.6-4.3-8.8-7.6c-0.7-1-1-2.5-1-3.8c-0.1-5.4,0-10.9-0.1-16.3c-0.2-9.1-0.5-18.2-0.6-27.3c-0.1-7.7,0.1-15.3,0.1-23
	c0.1-11.3,0.1-22.5,0.4-33.8c0.1-5.3,0.6-10.7,1-16c0.1-1.8,0.2-3.7,0.2-5.5c0.3-9.8,0.5-19.7,0.9-29.5c0.3-8.7,0.9-17.4,1.2-26.1
	c0.1-2.8-0.1-5.6-0.1-8.4c0-10.2-0.1-20.5-0.1-30.7c0.1-10,0.5-20,1.7-29.9c0.4-3.5,0.4-7,0.6-10.5c0.1-2.2-0.4-4-2.5-4.9
	c-0.3-0.2-0.7-0.4-0.9-0.7c-1.1-1.4-2.5-1.5-4.1-1.3c-0.8,1.1-0.7,2.5-0.7,3.7c-0.1,5.9-0.2,11.8-0.2,17.7c0,2.1,0.4,4.3,0.5,6.4
	c0.1,1.2,0.2,2.4,0.1,3.6c-0.5,6.9-0.4,13.9-0.2,20.8c0.4,10.6,0.6,21.2,0.9,31.9c0.1,3.4-0.5,6.9-0.2,10.3
	c0.5,7.2-0.8,14.3-1.1,21.5c-0.1,2.2,0,4.3-0.1,6.5c-0.3,4.4-0.8,8.7-1.1,13.1c-0.4,5.5-0.8,11-0.8,16.5c0,7.8-0.9,15.5-1.6,23.2
	c-0.5,6.1-0.8,12.1-1.4,18.2c-0.9,8.7-1.1,17.5-2.2,26.3c-0.7,5.2-0.8,10.5-1.1,15.8c-0.4,6.6-0.8,13.2-1.3,19.8
	c-0.2,2.2-0.7,4.4-1.2,6.6c-0.1,0.5-0.3,1.1-0.7,1.5c-4.4,5.3-9,10-16.5,10.4c-3.5,0.2-5.9-1.8-7.3-4.5c-3.1-5.7-5.2-11.8-6.4-18.2
	c-1-5.7-0.8-11.4-0.8-17.2c0.1-5.2,0.3-10.4,0.5-15.6c0.3-6.2,0.6-12.5,0.9-18.7c0.2-5.3,0.4-10.5,0.6-15.8
	c0.2-6.7,0.6-13.4,0.7-20.1c0.2-7.5,0.2-15,0.2-22.5c0-4.1-0.1-8.2,0-12.2c0.2-5.7,0.5-11.5,0.8-17.2c0.4-7.5,0.8-15,1.1-22.5
	c0.2-5.9,0.3-11.8,0.5-17.7c0.3-8.7,0.9-17.4,1.2-26.1c0.1-3.2-0.3-6.4-0.2-9.6c0.2-6.5,0.4-12.9,0.8-19.4c0.3-5.1-2-9.2-5.7-12.1
	c-3.3-2.7-9.7-2.4-11.1,3.5c-1,4.2-0.9,8.4-0.8,12.7c0.2,8.1,0.5,16.1,0.5,24.2c0,2.9-0.3,5.9-0.7,8.8c-0.6,5.3-0.4,10.7-0.2,16
	c0.2,4.9,0.1,9.9,0.1,14.9c0,6.1,0,12.2,0,18.2c-0.1,10.7-0.3,21.4-0.5,32.1c-0.1,6.1-0.2,12.1-0.3,18.2c-0.2,7.9-0.6,15.8-0.6,23.7
	c0,10.1,0.3,20.1,0.6,30.2c0.1,4.7,0.2,9.4,0.6,14.1c0.7,7.2,1.7,14.3,2.6,21.4c0.4,3.5,0.9,7,1.1,10.5c0.4,7.2-1.7,13.5-7.1,18.6
	c-3.6,3.4-7.8,4.5-12.6,3.4c-0.2,0-0.3-0.1-0.5-0.1c-3.7-2.3-7-4.7-7.6-9.5c-0.7-5.2-1.5-10.4-2.2-15.7c-0.8-5.9-1.7-11.9-2.3-17.8
	c-0.4-3.3-0.4-6.7-0.4-10.1c0-11.8,0-23.5,0.2-35.3c0.1-7.4,0.6-14.8,0.9-22.3c0.2-6.1,0.2-12.3,0.4-18.4c0.2-6.4,0.4-12.8,0.6-19.2
	c0.1-3.7,0.1-7.5,0.3-11.2c0.4-8.2,1-16.4,1.5-24.6c0.5-8.2,1-16.4,1.4-24.6c0.3-7.7,0.7-15.5,0.6-23.2c-0.1-10-0.3-20-1.3-29.9
	c-0.4-3.6-0.6-7.2-0.8-10.8c-0.2-3.4-1.9-5.6-4.9-7c-1.5-0.7-2-0.7-2.9,0.6c-1.2,1.8-2.4,3.6-3.1,5.6c-1.5,4.2-2.6,8.6-3.8,12.9
	c-0.7,2.5-1.5,5.1-1.9,7.7c-0.7,4.1-1.1,8.2-1.6,12.4c-0.4,3.7-0.6,7.5-0.9,11.2c-0.6,6.8-1.3,13.7-1.7,20.5c-0.2,3,0.3,6.1,0.5,9.1
	c0.7,11.4,1.4,22.8,2,34.2c0.3,6.1,0.1,12.3,0.3,18.5c0.1,5.4,0.2,10.7,0.6,16c0.3,4,1.1,8.1,1.9,12.1c1.2,6,1.8,12,1.8,18.1
	c0,7.7,0.1,15.3,0,23c-0.1,9.9-0.5,19.8-0.5,29.7c0,9,0.4,17.9,0.6,26.9c0.1,4-0.3,7.8-2.2,11.4c-0.8,1.6-1.3,3.4-2,5.1
	c-1.8,4.3-5.3,6.8-9.6,8c-2.7,0.8-5.3-0.6-7.6-2.2c-3.5-2.4-5.6-5.8-7-9.7c-2.4-7-3.9-14.2-4.3-21.6c-0.3-6.2-0.9-12.4-1.3-18.6
	c-0.2-2.7-0.1-5.4-0.1-8.2c0.2-10.3,0.5-20.6,0.7-30.9c0.1-5.1,0.2-10.2,0.3-15.3c0.2-10,0.4-20,0.7-30c0.3-10.2,0.9-20.4,1.1-30.7
	c0.1-4.5-0.3-9.1-0.4-13.6c0-2.6,0.2-5.1,0.2-7.7c-0.1-12.3-0.3-24.6-0.4-36.9c-0.1-15-0.1-30.1-0.3-45.1c-0.1-5.6-0.3-11.2-2-16.6
	c-0.3-1-0.7-2-1.1-2.9c-1.4-3.1-4.4-4.1-7.6-3.2c-2.9,0.8-3.8,2.8-4.3,5.4c-1,5.6-1.3,11.2-1.4,16.9c-0.1,4.3-0.4,8.6-0.4,12.9
	c0.1,10,0.1,20,0.5,30c0.3,8,1,15.9,1.5,23.9c0.6,8.9,1,17.9,1.7,26.8c0.7,9.6,1.5,19.1,2.1,28.7c0.3,5.5,0.2,11,0.5,16.5
	c0.3,7,0.8,14,1.1,21.1c0.5,9.8,0.5,19.7,0,29.5c-0.3,6-0.4,12-0.6,18c-0.3,6.9-0.6,13.9-1,20.8c-0.1,1.5-0.5,3-0.8,4.5
	c-1.2,5.4-2.2,10.8-3.6,16.1c-1,4.2-2.5,8.3-3.5,12.4c-1.4,5.6-9.8,11.2-16.2,9.1c-0.6-0.2-1.3-0.2-1.9-0.4c-1.3-0.3-2.2-1-3-2.1
	c-3.5-5.3-5.1-11.2-5.9-17.3c-0.6-4.7-1-9.4-1-14.1c0-10.4,0.2-20.8,0.5-31.2c0.2-10.9,0.6-21.9,0.8-32.8c0.1-7.1-0.1-14.2,0.1-21.3
	c0.2-8.4,0.8-16.8,1.2-25.1c0.2-4.2,0.4-8.3,0.6-12.4c0.4-6.9,0.7-13.9,1.1-20.8c0.5-8.4,1.1-16.7,1.5-25.1c0.2-4.1,0-8.3,0.1-12.4
	c0.1-3.9,0.3-7.8,0.5-11.7c0.1-2.1,0.2-4.2,0.3-6.2c0.2-5.9,0.4-11.8,0.4-17.7c0-4.5-0.3-9.1-0.6-13.6c-0.2-3.3-1.9-6.5-7.4-7
	c-0.1,0.4-0.3,0.7-0.3,1.1c-0.8,6.1-1.6,12.2-2.3,18.3c-0.8,6.1-1.7,12.2-2.4,18.3c-0.6,5.7-1.2,11.5-1.3,17.2
	c-0.1,11.5,0.3,23,0.3,34.5c0,11.1-0.1,22.2-0.3,33.3c-0.1,5.2-0.4,10.4-0.7,15.6c-0.5,9-1.1,18-1.6,27c-0.1,1.5,0.2,3,0.3,4.5
	c0.3,2.8,0.6,5.6,0.9,8.3c1.3,12,1.1,23.9,0.6,35.9c-0.2,4.7-0.7,9.4-0.7,14.1c-0.1,5.2,0.1,10.4,0.4,15.6c0.2,4.9,0,9.7-1.8,14.4
	c-1.4,3.6-4,6-7.5,7.2c-4.3,1.5-8.9-1.4-9.9-6c-1.1-4.8-1.7-9.6-2-14.5c-0.4-6.5-1.4-12.9-2.1-19.3c-1.3-12.8-2.7-25.6-2.9-38.5
	c-0.1-7.6-1.1-15.1-2.1-22.7c-0.8-6.7-1.4-13.3-2.1-20c-0.6-6.4-1-12.9-1.6-19.3c-0.7-7.7-0.7-15.3-0.8-23
	c-0.1-12.3-0.1-24.6-0.3-36.9c-0.1-7.3-0.3-14.7-0.8-22c-0.4-5.8-1.3-11.6-2-17.4c-0.5-4.4-1-8.9-1.7-13.3c-0.5-3-1.5-5.9-2.3-8.8
	c-0.8-2.6-3.2-3.2-5.3-4c-0.4-0.2-1.1,0.1-1.5,0.4c-2.7,1.8-4.8,4-4.7,7.5c0,2.2,0,4.5-0.1,6.7c-0.2,9-0.3,17.9-0.5,26.9
	c0,1.9-0.1,3.8-0.2,5.8c-0.1,8.7-0.1,17.4-0.2,26.2c0,1.4-0.3,2.9-0.6,4.3c-0.4,2.2-0.6,4.4-0.3,6.6c0.5,3.7,0.9,7.5,0.9,11.2
	c0,7.2,0.6,14.4,1.3,21.5c0.5,5.1,1.4,10.2,1.4,15.3c0,8.4,1.1,16.6,2.1,24.8c1.2,9.7,2.7,19.3,4,29c0.6,4.3,0.7,8.8,1,13.1
	c0.5,8.1,0.9,16.1,1.5,24.2c0.4,5.8,0.9,11.6,1.3,17.4c0.7,10.8,1.5,21.7,2.2,32.5c0.1,1-0.2,2-0.3,3.1c112.6,0,225.3,0,337.9,0
	v-17.9C395.8,596.2,395.5,598.4,394.8,600.4z"/>
<path class="st0" d="M26.1,41.2c0,7.3,0,14.5,0,21.8c-0.1,11.6-0.5,23.2-1.4,34.7c-0.4,5.3-0.4,10.5-0.7,15.8
	c-0.3,5.8-0.9,11.6-1.2,17.5c-0.2,4.4-0.4,8.8-0.3,13.2c0.1,7.1-0.1,14.2,0.9,21.3c0.2,1.7-0.2,3.5-0.2,5.3
	c0.1,6.2,0.5,12.4,1.5,18.6c0.9,6.1,1.2,12.4,1.7,18.6c0.7,9.3,1.4,18.6,2.1,28c0.1,1.6,0.6,3.1,0.9,4.7c1.3,6.6,1,13.2,1,19.8
	c0,1.9-0.1,3.8-0.1,5.8c0,3.9,2,6.5,5.3,8.2c0.6,0.3,1.4,0.4,2,0.2c3.3-0.8,5.9-3.8,6.1-7.2c0.5-7.7,1.2-15.3,1-23
	c-0.2-5.7-0.1-11.4-0.2-17c-0.3-12.9-0.8-25.7-0.9-38.6c-0.1-13.8-0.5-27.5,0.7-41.2c1-10.8,2.4-21.6,3.7-32.4
	c0.6-4.9,1.7-9.8,2.3-14.7c0.7-5.4,1-10.8,1.6-16.2c0.7-6.8,1.2-13.7,2.2-20.5c1.4-9.6,3.1-19.1,4.7-28.6c0.9-5.4,1.7-10.7,2.7-16
	c0.6-2.8,1.4-5.6,2.5-8.2c2.6-5.8,8.2-6.5,12.6-2.9c2.4,2,4,4.4,4.7,7.6c1,4.7,1.3,9.3,1,14c-0.4,6.8-0.6,13.7-0.4,20.6
	c0.2,5.3-0.1,10.6-0.5,15.8c-0.6,8-1.2,15.9-2.1,23.9c-0.5,4.8-1.5,9.5-2.2,14.2c-0.1,0.8-0.3,1.6-0.3,2.4c-0.2,9-0.4,18.1-0.5,27.1
	c0,6.2,0.3,12.3,0.4,18.5c0.2,9.5-0.4,19-1.3,28.5c-0.8,9.4-1.5,18.8-1.6,28.2c0,2.2-0.5,4.5-0.4,6.7c0.1,3.9,0.3,7.8,0.8,11.7
	c0.5,3.9,0.4,7.8,0.1,11.7c-0.5,5.8,0,11.7,0.4,17.5c0.6,8.5,1.1,16.9,1.6,25.4c0.1,1.7,0.1,3.4,0.3,5c0.3,3.3,1.6,6.2,4.1,8.4
	c2.3,2.1,4.5,1.6,5.6-1.2c0.2-0.5,0.3-1.1,0.4-1.6c1.4-10.3,1-20.6,0.8-30.9c-0.1-8.7-0.3-17.4-0.6-26.1c-0.2-5.9-0.6-11.8-0.8-17.7
	c-0.4-11-0.8-22.1-1.1-33.1c-0.3-10.1-0.6-20.3-0.8-30.4c-0.1-6.5-0.1-12.9-0.2-19.4c0-2.3,0-4.6-0.1-7c-0.5-6.6,0.2-13.1,0.5-19.6
	c0.3-7.3,0.7-14.5,1-21.8c0.4-12.3,0.5-24.6,1-36.9c0.3-7.7,0.9-15.3,1.9-22.9c0.8-6.2,2.4-12.4,5.6-18c1.1-1.8,2.5-3.5,3.9-5.1
	c0.3-0.3,0.8-0.6,1.2-0.7c2.4-0.3,4.7-0.7,7.1-0.8c1.9,0,3.7,0.8,5.3,2c2.3,1.8,4.7,3.4,5.6,6.4c0.4,1.3,0.8,2.6,1,3.9
	c1.3,8,2.6,15.9,3.8,23.9c1.1,7.5,0.8,15.1,0.6,22.7c-0.2,5.8-0.1,11.5-0.4,17.3c-0.5,10.6-1.1,21.2-1.8,31.8
	c-0.6,7.7-1.5,15.4-2.2,23.1c-0.4,4.9-0.7,9.9-1,14.8c-0.5,6.2-1.1,12.4-1.5,18.6c-0.4,5.8-0.7,11.6-1.1,17.5
	c-0.8,10.8-1.8,21.5-2.4,32.3c-0.7,13.6-1,27.2-1.2,40.7c-0.1,6.2,0.2,12.5,1.7,18.6c0.2,0.8,0.4,1.7,0.8,2.5c0.8,1.7,3.2,2.1,4.7,1
	c1.4-1.1,2.2-2.5,2.7-4.1c1.9-6.6,3.2-13.4,3.2-20.3c0-3.7-0.5-7.5-0.9-11.2c-0.9-10.5-2.1-21-1.6-31.6c0.5-10.3,0.5-20.6,0.9-30.9
	c0.4-11.5,1-23,1.4-34.5c0.4-9.2,1-18.3,1.8-27.5c0.4-4.4,0.4-8.8,0.6-13.2c0.5-8.6,1.1-17.2,1.6-25.8c0.3-4.9,0.4-9.9,0.9-14.8
	c0.8-8.5,1.8-17,2.7-25.5c0.3-2.5,0.3-4.9,0.5-7.4c0.1-1.5,0.3-3,0.6-4.5c0.7-4.8,1.6-9.6,2.3-14.4c0.8-5.5,6.6-10,11.4-10.4
	c0.2,0,0.5-0.1,0.7,0c3,1.2,6.4,1.8,8.3,4.8c1.2,1.9,2.2,3.9,3.2,5.8c0.2,0.4,0.3,1,0.5,1.3c2.8,3.8,2.7,8.3,2.8,12.6
	c0.2,6-0.1,12,0.1,18c0.2,10.9,0.6,21.7,0.8,32.6c0.1,3.4,0.1,6.9,0.1,10.3c0.1,11.6,0.2,23.2-0.5,34.8c-0.3,5-0.7,10-1,15.1
	c-0.1,2.3,0,4.6,0,7c-0.1,5.1-0.5,10.2-1.9,15.2c-0.9,3.2-1.3,6.4-1.3,9.7c-0.2,6.7-0.3,13.4-0.5,20.1c-0.2,5.1-0.5,10.2-0.7,15.3
	c-0.4,6.8-0.3,13.6,0.7,20.3c0.9,6.6,1.3,13.2,2,19.8c0.8,7.4,1.6,14.8,3.7,22c1.2,4.3,2.4,8.6,3.8,12.8c0.7,2,2.1,3.7,3.2,5.6
	c0.4,0.7,1.1,0.9,1.9,0.5c0.1-0.1,0.3-0.1,0.4-0.2c4.6-1.5,6.9-4.3,6.9-9.4c0-3.5,1-6.9,1.4-10.4c0.9-8.2,1.8-16.4,2.6-24.6
	c1.6-15,1.1-30,0.9-45.1c-0.1-6.7-0.5-13.4-0.6-20.1c-0.1-5,0.1-10.1,0.3-15.1c0.2-6.3,0.3-12.6,0.6-18.9c0.4-8.5,0.9-16.9,1.4-25.4
	c0.4-7.5,0.7-15,1.3-22.5c0.3-4.5,1-8.9,1.5-13.3c1-8.9,1.9-17.8,3.1-26.7c0.5-3.9,1.5-7.8,2.5-11.7c1.3-5.5,2.6-11,4.1-16.5
	c1-3.8,2.1-7.5,3.2-11.3c0.2-0.6,0.5-1.3,0.9-1.6c2-1.6,3.9-3.3,6-4.7c0.9-0.6,2.3-0.4,3.5-0.5c4.3-0.6,7.6,1.3,10.4,4.2
	c4.3,4.4,6.6,9.6,6.6,15.9c0,6.1-0.6,12.1-1.2,18.2c-1,9.6-2.1,19.2-3.2,28.8c-0.7,6.2-1.4,12.4-2,18.6c-0.5,5.2-0.9,10.5-1.3,15.8
	c-0.5,5.9-0.9,11.8-1.3,17.7c-0.4,5.6-0.6,11.2-1.1,16.8c-0.7,9.5-1.4,19-2.3,28.4c-0.7,6.8-1.8,13.6-2.5,20.4
	c-0.6,5.6-1.1,11.1-1.7,16.7c-0.8,8.4-1.5,16.9-2.3,25.3c-0.8,8.9-1.8,17.8-2.7,26.7c-0.2,2.1-0.7,4.3-0.9,6.4
	c-0.4,3.8-0.2,7.5,1.8,10.9c0.7,1.2,1.4,1.7,2.8,1.7c6.6,0,7.5,0.3,11.5-5.7c1.9-2.9,2.8-5.9,2.8-9.2c0-5,0.1-10.1,0.2-15.1
	c0.2-8.8,0.5-17.6,0.9-26.4c0.4-11.3,0.9-22.7,1.4-34c0.2-5.3,0.4-10.5,0.6-15.8c0.3-7.3,0.6-14.5,1-21.8c0.3-4.1,0.9-8.2,1.4-12.4
	c0.8-7.7,1.6-15.4,2.4-23.1c0.8-8,1.5-15.9,2.3-23.9c0.1-1.3,0.2-2.6,0.3-3.8c1.4-13.3,2.6-26.5,4.2-39.8c0.9-7.4,2.2-14.7,5.4-21.5
	c0.8-1.7,1.8-3.4,2.7-5.1c0.9-1.7,2.1-3.3,2.8-5c1.3-3,3.9-4.4,6.6-5.4c0.8-0.3,1.9-0.2,2.8,0c4.4,0.8,8,3.1,10.8,6.7
	c1.2,1.5,2.2,3.1,3.3,4.7c1.3,1.8,1.7,3.7,1.7,5.9c0,4.8-1.1,9.3-1.8,14c-1,6.2-1.5,12.5-2.2,18.8c-0.5,4.4-0.9,8.9-1.3,13.4
	c-0.8,9.5-1.6,19-2.4,28.4c-0.7,7.7-1.4,15.4-2.1,23.1c-0.2,1.7-0.6,3.5-0.9,5.2c-1,6.3-2.1,12.6-3,18.9c-0.6,3.9-0.9,7.8-1.3,11.7
	c-0.5,3.6-1,7.3-1.5,10.9c-0.7,4.7-1.4,9.3-2.1,14c-0.9,5.7-1.8,11.4-2.6,17c-1.2,8.1-2.3,16.1-3.4,24.2c-0.7,5.1-1.2,10.1-1.7,15.2
	c-0.5,5.6-0.8,11.3-1.4,16.9c-0.8,7.4-1.7,14.8-2.5,22.1c-0.2,2-0.4,4-0.6,6.1c1.3,0.2,2.5,0.4,3.8,0.5c0.4,0,0.8-0.1,1.1-0.3
	c1.5-1.2,3-2.4,4.3-3.7c0.7-0.7,1.1-1.8,1.2-2.7c0.3-2.2,0.5-4.4,0.6-6.7c0.2-4.5,0.3-9.1,0.5-13.6c0.4-8.7,1.2-17.4,2.4-26
	c1.3-9.4,2.2-18.9,3.5-28.3c0.6-4.6,0.9-9.2,0.9-13.9c0.1-2.8,0.5-5.6,0.7-8.4c0.8-8.1,1.5-16.2,2.4-24.3c0.8-7.2,1.6-14.5,2.4-21.7
	c0.9-8.4,1.7-16.8,2.7-25.2c1.3-10.3,2.6-20.6,4.2-30.8c1.6-10,3.5-20,5.4-30c1.6-8.5,3.4-16.9,4.9-25.4c0.6-3.2,2-5.5,4.8-7.3
	c2.2-1.4,4.3-2.6,6.8-3.4c3.9-1.2,7.2-0.3,10.2,2.3c3.5,3,5.3,6.8,6,11.2c1,6.2,1.9,12.5,1.6,18.8c-0.2,5-1,10-1.9,14.9
	c-1.5,7.5-2.8,15.1-4.1,22.6c-0.9,5-1.8,10.1-2.8,15.1c-1.7,8.5-3.6,16.9-5,25.4c-1.9,10.9-3.4,21.9-5.1,32.9
	c-1.9,12.3-3.9,24.6-5.8,36.9c-1.3,8.1-2.6,16.2-3.7,24.4c-0.6,4.7-1.9,9.2-3,13.8c-0.5,2-0.8,4.1-1,6.1c-0.3,5-0.4,10.1-0.7,15.1
	c-0.3,4.8-0.7,9.6-1,14.3c-0.2,2.5,0,5,0.9,7.3c0.5,1.3,1.2,2.3,2.7,2.4c1.4,0.1,2.5-0.5,3.2-1.7c0.5-1,1.2-2,1.3-3
	c0.5-2.8,0.9-5.7,1.1-8.6c0.6-10.4,1.1-20.7,1.8-31.1c0.6-8.6,1.4-17.2,2.2-25.8c0.5-6,1-11.9,1.7-17.9c0.9-7.1,1.9-14.2,3.1-21.4
	c1.4-8.6,3-17.2,4.3-25.8c1-7,1.8-13.9,2.5-20.9c1-10.4,3.1-20.5,5.3-30.7c1.3-5.9,2.3-11.7,2.2-17.8c-0.1-2.5,0.8-5,1-7.6
	c1-11.5,3.4-22.8,4.9-34.2c0.6-4.8,2.5-9.2,5.2-13.3c1.5-2.3,3.6-3.9,6.3-4.4c4.4-0.8,8.8-0.8,12.8,1.6c2.6,1.6,4,4.1,5.4,6.6
	c1.3,2.4,2.3,5,3,7.6c0.5,2,0.5,4.3,0.4,6.4c-0.2,8.7-1.4,17.3-2.6,26c-0.3,2.2-0.4,4.5-0.7,6.7c-1.1,7.7-2.4,15.3-3.4,23
	c-0.9,6.7-1.3,13.5-2.1,20.3c-0.8,6.9-1.6,13.8-2.4,20.7c-0.6,5.3-1.2,10.6-1.9,15.9c-0.2,1.3-0.6,2.7-1,3.9c-1.1,2.9-1.6,5.8-1,8.9
	c0.2,0.8,0.1,1.6,0.1,2.4c0.2,5.2,0.2,10.4,0.5,15.5c0.4,6.2,1.2,12.4,1.8,18.6c0.5,4.9,0.8,9.9,1.2,14.8c0.1,1.1,0.2,2.2,0.3,3.3
	c0.6,5.2,1.4,10.3,1.7,15.5c0.4,6.9,2.1,13.6,3,20.4c0.7,5.5,1.5,10.9,2.2,16.4c0.3,2.8,0.4,5.6,0.6,8.4c0.1,1.8,0.1,3.5,0.3,5.3
	c0.4,3,1.6,5.7,4.1,7.6c1.5,1.1,2.8,2.3,4.4,3.5c1.4-1.1,2-2.6,2-4.4c0-3.8-0.1-7.5-0.2-11.3c-0.2-7.2-0.2-14.4-0.5-21.6
	c-0.4-8-1.1-15.9-1.6-23.9c-0.2-2.7-0.2-5.4-0.2-8.2c-0.2-6.3-0.2-12.6-0.5-18.9c-0.3-5.7-0.8-11.5-1.2-17.2
	c-0.5-6.9-1.1-13.9-1.6-20.8c-0.5-6.9-1-13.9-1.5-20.8c-0.8-10.4-1.7-20.7-2.3-31.1c-0.3-5.7-0.2-11.3-0.1-17c0-7,0.3-13.9,0.2-20.9
	c-0.1-7.1,0.6-14.2,1.4-21.3c1-8.1,1.9-16.2,3.8-24.1c0.9-4,1.9-8,3.7-11.6c1.8-3.6,4.4-6.5,8.1-8.5c3.5-1.8,7.4-2.8,11.1-2.7
	c6.3,0.1,11.9,2.4,13.9,9.7c1.8,6.6,2.1,13.4,2.3,20.2c0.3,9.5,0.7,19,0.8,28.5c0.1,7.8,0,15.7,0.1,23.5c0.1,11.9,0.1,23.8,0.3,35.7
	c0.1,7-0.1,13.9-0.8,20.8c-0.1,0.8-0.2,1.6-0.1,2.4c0.6,4.1-0.3,8.1-0.4,12.2c0,1.1-0.1,2.2-0.1,3.4c-0.1,4.9-0.2,9.8-0.2,14.6
	c0,7,0.2,14.1,0.1,21.1c-0.1,7.8-0.4,15.5-0.6,23.3c-0.2,10.3-0.2,20.6-0.3,30.9c-0.2,14.5-0.4,28.9-0.4,43.4
	c0,4.4,0.5,8.8,0.6,13.2c0.1,7.4,0,14.7,0,22.1c0.1,11.5,0.2,23,0.3,34.5c0.1,10.7,0.1,21.4,0.2,32.1c0.1,7.7,0.6,15.5,0.7,23.2
	c0.1,6.5-0.2,13.1-0.2,19.6c0,8.6,0.2,17.3,0.3,25.9c0.1,3.8,0.4,7.5,0.4,11.2c0.1,18.7,0.1,37.4,0.3,56.2
	c0.1,9.1,0.4,18.1,0.7,27.2V0C272.8,0,149.6,0,26.4,0c-0.1,3.7-0.3,7.5-0.3,11.2C26.1,21.2,26.1,31.2,26.1,41.2z"/>
<path class="st1" d="M56.2,576.4c-0.4-5.8-0.9-11.6-1.3-17.4c-0.5-8.1-0.9-16.1-1.5-24.2c-0.3-4.4-0.4-8.8-1-13.1
	c-1.2-9.7-2.8-19.3-4-29c-1-8.2-2.1-16.5-2.1-24.8c0-5.1-0.9-10.2-1.4-15.3c-0.7-7.2-1.3-14.3-1.3-21.5c0-3.7-0.4-7.5-0.9-11.2
	c-0.3-2.3-0.1-4.4,0.3-6.6c0.3-1.4,0.5-2.8,0.6-4.3c0.1-8.7,0.2-17.4,0.2-26.2c0-1.9,0.1-3.8,0.2-5.8c0.2-9,0.3-17.9,0.5-26.9
	c0-2.2,0.1-4.5,0.1-6.7c0-3.5,2.1-5.7,4.7-7.5c0.4-0.3,1.1-0.5,1.5-0.4c2.1,0.8,4.5,1.4,5.3,4c0.9,2.9,1.8,5.8,2.3,8.8
	c0.8,4.4,1.2,8.9,1.7,13.3c0.7,5.8,1.6,11.6,2,17.4c0.5,7.3,0.7,14.7,0.8,22c0.2,12.3,0.3,24.6,0.3,36.9c0,7.7,0,15.3,0.8,23
	c0.6,6.4,1,12.9,1.6,19.3c0.6,6.7,1.2,13.4,2.1,20c1,7.5,1.9,15.1,2.1,22.7c0.2,12.9,1.6,25.7,2.9,38.5c0.7,6.4,1.6,12.9,2.1,19.3
	c0.3,4.9,0.9,9.7,2,14.5c1.1,4.6,5.6,7.6,9.9,6c3.5-1.3,6.1-3.7,7.5-7.2c1.8-4.7,2-9.5,1.8-14.4c-0.2-5.2-0.4-10.4-0.4-15.6
	c0.1-4.7,0.5-9.4,0.7-14.1c0.6-12,0.7-24-0.6-35.9c-0.3-2.8-0.6-5.6-0.9-8.3c-0.2-1.5-0.4-3-0.3-4.5c0.5-9,1.1-18,1.6-27
	c0.3-5.2,0.6-10.4,0.7-15.6c0.2-11.1,0.4-22.2,0.3-33.3c0-11.5-0.4-23-0.3-34.5c0-5.7,0.7-11.5,1.3-17.2c0.6-6.1,1.6-12.2,2.4-18.3
	c0.8-6.1,1.6-12.2,2.3-18.3c0-0.4,0.2-0.7,0.3-1.1c5.5,0.6,7.3,3.7,7.4,7c0.2,4.5,0.6,9.1,0.6,13.6c0,5.9-0.3,11.8-0.4,17.7
	c-0.1,2.1-0.2,4.2-0.3,6.2c-0.2,3.9-0.4,7.8-0.5,11.7c-0.1,4.1,0.1,8.3-0.1,12.4c-0.4,8.4-1,16.7-1.5,25.1
	c-0.4,6.9-0.7,13.9-1.1,20.8c-0.2,4.1-0.4,8.3-0.6,12.4c-0.4,8.4-0.9,16.8-1.2,25.1c-0.2,7.1,0,14.2-0.1,21.3
	c-0.2,10.9-0.6,21.9-0.8,32.8c-0.2,10.4-0.5,20.8-0.5,31.2c0,4.7,0.4,9.4,1,14.1c0.8,6.1,2.3,12.1,5.9,17.3c0.8,1.2,1.7,1.9,3,2.1
	c0.6,0.1,1.3,0.2,1.9,0.4c6.4,2.1,14.8-3.4,16.2-9.1c1.1-4.2,2.5-8.3,3.5-12.4c1.3-5.4,2.4-10.8,3.6-16.1c0.3-1.5,0.7-3,0.8-4.5
	c0.4-6.9,0.7-13.9,1-20.8c0.2-6,0.4-12,0.6-18c0.5-9.8,0.5-19.7,0-29.5c-0.4-7-0.8-14-1.1-21.1c-0.2-5.5-0.1-11-0.5-16.5
	c-0.6-9.6-1.5-19.1-2.1-28.7c-0.6-8.9-1.1-17.9-1.7-26.8c-0.5-8-1.2-15.9-1.5-23.9c-0.3-10-0.4-20-0.5-30c0-4.3,0.3-8.6,0.4-12.9
	c0.1-5.7,0.4-11.3,1.4-16.9c0.5-2.6,1.4-4.6,4.3-5.4c3.2-0.9,6.2,0.1,7.6,3.2c0.4,0.9,0.8,1.9,1.1,2.9c1.7,5.4,2,11,2,16.6
	c0.2,15,0.2,30.1,0.3,45.1c0.1,12.3,0.3,24.6,0.4,36.9c0,2.6-0.2,5.1-0.2,7.7c0.1,4.5,0.5,9.1,0.4,13.6c-0.3,10.2-0.8,20.4-1.1,30.7
	c-0.3,10-0.5,20-0.7,30c-0.1,5.1-0.2,10.2-0.3,15.3c-0.2,10.3-0.5,20.6-0.7,30.9c-0.1,2.7-0.1,5.4,0.1,8.2c0.4,6.2,1,12.4,1.3,18.6
	c0.4,7.4,1.8,14.6,4.3,21.6c1.4,3.9,3.5,7.3,7,9.7c2.3,1.6,4.8,3,7.6,2.2c4.3-1.2,7.8-3.7,9.6-8c0.7-1.7,1.2-3.5,2-5.1
	c1.8-3.6,2.3-7.4,2.2-11.4c-0.2-9-0.6-17.9-0.6-26.9c0-9.9,0.4-19.8,0.5-29.7c0.1-7.7,0-15.3,0-23c0-6.1-0.6-12.1-1.8-18.1
	c-0.8-4-1.5-8-1.9-12.1c-0.4-5.3-0.5-10.7-0.6-16c-0.1-6.2,0-12.3-0.3-18.5c-0.5-11.4-1.3-22.8-2-34.2c-0.2-3-0.7-6.1-0.5-9.1
	c0.4-6.9,1.2-13.7,1.7-20.5c0.3-3.7,0.5-7.5,0.9-11.2c0.4-4.1,0.9-8.3,1.6-12.4c0.4-2.6,1.2-5.1,1.9-7.7c1.2-4.3,2.3-8.6,3.8-12.9
	c0.7-2,1.9-3.8,3.1-5.6c0.9-1.3,1.4-1.3,2.9-0.6c3,1.4,4.8,3.6,4.9,7c0.2,3.6,0.4,7.2,0.8,10.8c1,10,1.2,19.9,1.3,29.9
	c0.1,7.7-0.3,15.5-0.6,23.2c-0.4,8.2-0.9,16.4-1.4,24.6c-0.5,8.2-1,16.4-1.5,24.6c-0.2,3.7-0.2,7.5-0.3,11.2
	c-0.2,6.4-0.4,12.8-0.6,19.2c-0.2,6.1-0.2,12.3-0.4,18.4c-0.2,7.4-0.7,14.8-0.9,22.3c-0.2,11.8-0.2,23.5-0.2,35.3
	c0,3.4,0,6.7,0.4,10.1c0.6,5.9,1.5,11.9,2.3,17.8c0.7,5.2,1.5,10.4,2.2,15.7c0.6,4.7,4,7.2,7.6,9.5c0.1,0.1,0.3,0.1,0.5,0.1
	c4.8,1.1,8.9,0,12.6-3.4c5.4-5.1,7.5-11.4,7.1-18.6c-0.2-3.5-0.7-7-1.1-10.5c-0.8-7.1-1.9-14.3-2.6-21.4c-0.5-4.7-0.5-9.4-0.6-14.1
	c-0.2-10.1-0.5-20.1-0.6-30.2c0-7.9,0.4-15.8,0.6-23.7c0.1-6.1,0.2-12.1,0.3-18.2c0.2-10.7,0.4-21.4,0.5-32.1c0.1-6.1,0-12.1,0-18.2
	c0-5,0.1-9.9-0.1-14.9c-0.3-5.4-0.4-10.7,0.2-16c0.3-2.9,0.7-5.9,0.7-8.8c-0.1-8.1-0.3-16.1-0.5-24.2c-0.1-4.2-0.2-8.5,0.8-12.7
	c1.3-5.9,7.7-6.1,11.1-3.5c3.7,2.9,5.9,7,5.7,12.1c-0.3,6.5-0.6,12.9-0.8,19.4c-0.1,3.2,0.3,6.4,0.2,9.6c-0.3,8.7-0.8,17.4-1.2,26.1
	c-0.2,5.9-0.3,11.8-0.5,17.7c-0.3,7.5-0.7,15-1.1,22.5c-0.3,5.7-0.6,11.5-0.8,17.2c-0.1,4.1,0,8.2,0,12.2c0,7.5-0.1,15-0.2,22.5
	c-0.1,6.7-0.5,13.4-0.7,20.1c-0.2,5.3-0.4,10.5-0.6,15.8c-0.3,6.2-0.6,12.4-0.9,18.7c-0.2,5.2-0.4,10.4-0.5,15.6
	c-0.1,5.7-0.3,11.5,0.8,17.2c1.2,6.4,3.3,12.5,6.4,18.2c1.5,2.8,3.8,4.7,7.3,4.5c7.4-0.4,12.1-5.1,16.5-10.4c0.3-0.4,0.6-1,0.7-1.5
	c0.4-2.2,1-4.4,1.2-6.6c0.5-6.6,0.9-13.2,1.3-19.8c0.3-5.3,0.4-10.6,1.1-15.8c1.2-8.7,1.3-17.5,2.2-26.3c0.6-6,0.9-12.1,1.4-18.2
	c0.6-7.7,1.5-15.4,1.6-23.2c0-5.5,0.5-11,0.8-16.5c0.3-4.4,0.8-8.7,1.1-13.1c0.1-2.1,0-4.3,0.1-6.5c0.3-7.2,1.6-14.3,1.1-21.5
	c-0.2-3.4,0.3-6.9,0.2-10.3c-0.2-10.6-0.5-21.2-0.9-31.9c-0.2-7-0.3-13.9,0.2-20.8c0.1-1.2,0-2.4-0.1-3.6c-0.1-2.2-0.5-4.3-0.5-6.4
	c0-5.9,0.1-11.8,0.2-17.7c0-1.2-0.1-2.6,0.7-3.7c1.6-0.2,3.1-0.1,4.1,1.3c0.2,0.3,0.6,0.6,0.9,0.7c2.2,1,2.7,2.8,2.5,4.9
	c-0.2,3.5-0.2,7-0.6,10.5c-1.2,9.9-1.7,19.9-1.7,29.9c-0.1,10.2,0,20.5,0.1,30.7c0,2.8,0.2,5.6,0.1,8.4c-0.3,8.7-0.9,17.4-1.2,26.1
	c-0.4,9.8-0.6,19.7-0.9,29.5c-0.1,1.8-0.1,3.7-0.2,5.5c-0.3,5.3-0.9,10.7-1,16c-0.2,11.3-0.3,22.5-0.4,33.8
	c-0.1,7.7-0.2,15.3-0.1,23c0.1,9.1,0.4,18.2,0.6,27.3c0.1,5.4,0,10.9,0.1,16.3c0,1.3,0.3,2.8,1,3.8c2.2,3.3,5.1,6,8.8,7.6
	c1.8,0.8,3.8,1.2,5.8,0.5c3.8-1.2,7-3.4,9.8-6.2c0.8-0.8,1.5-1.9,2-2.9c0.8-1.6,1.5-3.4,2.3-5c1.4-2.9,2.1-5.9,2-9
	c-0.1-8.9-0.3-17.7-0.5-26.6c-0.2-8.7-0.5-17.4-0.7-26.1c-0.1-4.2,0-8.5-0.1-12.7c-0.1-4.5-0.4-9-0.4-13.4
	c0.1-13.2,0.3-26.4,0.5-39.6c0-3,0.2-6.1,0.3-9.1c0.3-7.9,0.6-15.8,0.9-23.7c0.3-7.5,0.6-15,0.9-22.5c0.2-5.4,0.6-10.9,0.2-16.3
	c-0.7-11.3-1.7-22.6-0.6-34c0.2-2,0.6-4.1,1.1-6.1c0.4-1.5,1-3.1,1.7-4.5c0.6-1.3,1.5-2.5,2.4-3.5c1-1,3.6-1.3,4.2-0.5
	c0.9,1.3,1.9,2.7,2.1,4.2c0.4,2.3,0.3,4.6,0.2,6.9c-0.3,5.5-0.8,11-1.1,16.5c-0.3,4.3-0.4,8.6-0.6,12.9c-0.2,5.2-0.5,10.4-0.7,15.6
	c-0.3,9.9,0,19.8-0.7,29.7c-0.1,1.8-0.2,3.7-0.2,5.5c0,5.9,0.2,11.8,0.2,17.7c0.1,4.7,0,9.4,0.2,14.1c0.7,12.3,0,24.6-0.7,36.9
	c-0.4,7.6-0.9,15.2-1.2,22.7c-0.3,6.3-0.4,12.6-0.5,18.9c-0.2,14.6-0.4,29.3-0.5,43.9c0,4.3,0.6,8.6,1.9,12.8c1,3.5,3.1,6.2,6.5,7.4
	c2.2,0.7,4.5,1.2,6.8,1.3c3.4,0.1,6.4-0.8,8.8-3.5c2.5-2.7,4.8-5.6,6.6-8.8c0.5-1,1-2.1,1.1-3.1c0.7-4.4,1.5-8.9,1.7-13.3
	c0.4-10.4,0.5-20.8,0.7-31.2c0.1-7.4,0.2-14.7,0.3-22.1c0.2-10.4,0.4-20.8,0.5-31.2c0-11.6-0.1-23.2-0.2-34.8
	c0-4.7-0.2-9.4-0.3-14.1c-0.2-9.4-0.7-18.9-0.5-28.3c0.2-10.1,0.9-20.3,1.6-30.4c0.4-5.3,1.1-10.5,1.7-15.7c0.3-2.4,0.6-4.8,0.8-7.1
	c0.2-2.8,0.2-5.6,0.3-8.4c0.1-1.5,0.4-3,0.6-4.5c0.4-2.2,1.5-3.8,3.3-5.1c1.1-0.8,2.2-1.6,3.3-2.4c1.8-1.3,2.8-1,3.4,1.2
	c0.2,0.6,0.2,1.3,0.2,1.9c-0.1,2.2-0.2,4.3-0.3,6.5c-0.2,5.5-0.3,11-0.6,16.5c-0.3,4.7-0.9,9.4-1.3,14.1c-0.6,8-0.8,16.1-1.5,24.2
	c-0.8,8.8-1.8,17.5-2.8,26.2c-0.7,6-1.5,12.1-1.9,18.1c-1.1,14.3-2,28.7-3.1,43c-0.6,8.3-0.9,16.6-0.6,24.9c0.1,4.2,0,8.3,0.1,12.5
	c0.1,6.4,0,12.8,0.3,19.2c0.3,5.9,0.9,11.8,1.5,17.7c0.8,8.5,2.1,17,5.3,25c1.6,3.9,4.1,7.1,7.9,8.9c2.3,1.1,4.8,1.6,7.3,2.4
	c3.8,1.3,7.4,0.5,11-0.8c3.9-1.4,6-4.6,7.1-8.2c0.6-2,1-4.2,1.2-6.4v-25.5c-0.2-9.1-0.6-18.1-0.7-27.2c-0.2-18.7-0.2-37.4-0.3-56.2
	c0-3.8-0.4-7.5-0.4-11.2c-0.2-8.6-0.3-17.3-0.3-25.9c0-6.5,0.3-13.1,0.2-19.6c-0.1-7.7-0.5-15.5-0.7-23.2
	c-0.2-10.7-0.2-21.4-0.2-32.1c-0.1-11.5-0.2-23-0.3-34.5c0-7.4,0.1-14.7,0-22.1c-0.1-4.4-0.6-8.8-0.6-13.2
	c0.1-14.5,0.3-28.9,0.4-43.4c0.1-10.3,0.2-20.6,0.3-30.9c0.1-7.8,0.5-15.5,0.6-23.3c0.1-7-0.1-14.1-0.1-21.1c0-4.9,0.1-9.8,0.2-14.6
	c0-1.1,0.1-2.2,0.1-3.4c0.1-4.1,0.9-8.1,0.4-12.2c-0.1-0.8,0-1.6,0.1-2.4c0.7-6.9,0.9-13.9,0.8-20.8c-0.2-11.9-0.2-23.8-0.3-35.7
	c0-7.8,0.1-15.7-0.1-23.5c-0.2-9.5-0.6-19-0.8-28.5c-0.2-6.8-0.5-13.6-2.3-20.2c-2-7.3-7.7-9.6-13.9-9.7c-3.7-0.1-7.5,0.9-11.1,2.7
	c-3.7,2-6.3,4.9-8.1,8.5c-1.8,3.6-2.8,7.6-3.7,11.6c-1.9,7.9-2.9,16-3.8,24.1c-0.8,7.1-1.5,14.1-1.4,21.3c0.1,7-0.2,13.9-0.2,20.9
	c0,5.7-0.2,11.4,0.1,17c0.6,10.4,1.5,20.7,2.3,31.1c0.5,6.9,0.9,13.9,1.5,20.8c0.5,6.9,1.1,13.9,1.6,20.8c0.4,5.7,0.9,11.5,1.2,17.2
	c0.3,6.3,0.4,12.6,0.5,18.9c0.1,2.7,0.1,5.4,0.2,8.2c0.5,8,1.2,15.9,1.6,23.9c0.3,7.2,0.4,14.4,0.5,21.6c0.1,3.8,0.2,7.5,0.2,11.3
	c0,1.8-0.6,3.4-2,4.4c-1.6-1.3-3-2.4-4.4-3.5c-2.5-1.9-3.7-4.5-4.1-7.6c-0.2-1.7-0.2-3.5-0.3-5.3c-0.2-2.8-0.2-5.6-0.6-8.4
	c-0.6-5.5-1.5-10.9-2.2-16.4c-0.9-6.8-2.6-13.5-3-20.4c-0.3-5.2-1.1-10.3-1.7-15.5c-0.1-1.1-0.2-2.2-0.3-3.3
	c-0.4-4.9-0.8-9.9-1.2-14.8c-0.6-6.2-1.4-12.4-1.8-18.6c-0.4-5.2-0.4-10.4-0.5-15.5c0-0.8,0-1.6-0.1-2.4c-0.6-3.1-0.1-6,1-8.9
	c0.5-1.3,0.9-2.6,1-3.9c0.7-5.3,1.3-10.6,1.9-15.9c0.8-6.9,1.7-13.8,2.4-20.7c0.7-6.7,1.2-13.5,2.1-20.3c1-7.7,2.3-15.3,3.4-23
	c0.3-2.2,0.4-4.4,0.7-6.7c1.1-8.6,2.4-17.2,2.6-26c0-2.1,0.1-4.4-0.4-6.4c-0.7-2.6-1.7-5.2-3-7.6c-1.4-2.5-2.8-5.1-5.4-6.6
	c-4-2.5-8.4-2.4-12.8-1.6c-2.7,0.5-4.8,2.1-6.3,4.4c-2.7,4.1-4.6,8.5-5.2,13.3c-1.5,11.4-4,22.7-4.9,34.2c-0.2,2.5-1.1,5.1-1,7.6
	c0.1,6.1-0.9,11.9-2.2,17.8c-2.2,10.2-4.3,20.3-5.3,30.7c-0.7,7-1.5,14-2.5,20.9c-1.3,8.6-2.9,17.2-4.3,25.8
	c-1.1,7.1-2.2,14.2-3.1,21.4c-0.7,5.9-1.2,11.9-1.7,17.9c-0.8,8.6-1.6,17.2-2.2,25.8c-0.7,10.4-1.2,20.7-1.8,31.1
	c-0.2,2.9-0.6,5.7-1.1,8.6c-0.2,1.1-0.8,2.1-1.3,3c-0.7,1.2-1.8,1.8-3.2,1.7c-1.5-0.1-2.2-1.1-2.7-2.4c-0.9-2.4-1.1-4.8-0.9-7.3
	c0.3-4.8,0.7-9.6,1-14.3c0.3-5,0.4-10.1,0.7-15.1c0.1-2.1,0.5-4.1,1-6.1c1.1-4.6,2.3-9.1,3-13.8c1.1-8.2,2.4-16.3,3.7-24.4
	c1.9-12.3,3.9-24.6,5.8-36.9c1.7-11,3.2-22,5.1-32.9c1.5-8.5,3.4-16.9,5-25.4c1-5,1.9-10,2.8-15.1c1.4-7.5,2.7-15.1,4.1-22.6
	c1-4.9,1.7-9.9,1.9-14.9c0.3-6.3-0.7-12.6-1.6-18.8c-0.7-4.4-2.5-8.2-6-11.2c-3-2.6-6.3-3.5-10.2-2.3c-2.5,0.8-4.6,2-6.8,3.4
	c-2.7,1.8-4.2,4.1-4.8,7.3c-1.5,8.5-3.3,16.9-4.9,25.4c-1.9,10-3.8,19.9-5.4,30c-1.6,10.2-2.9,20.5-4.2,30.8
	c-1,8.4-1.8,16.8-2.7,25.2c-0.8,7.2-1.7,14.4-2.4,21.7c-0.8,8.1-1.6,16.2-2.4,24.3c-0.3,2.8-0.7,5.6-0.7,8.4
	c-0.1,4.6-0.3,9.2-0.9,13.9c-1.3,9.4-2.1,18.9-3.5,28.3c-1.2,8.6-2,17.3-2.4,26c-0.2,4.5-0.3,9.1-0.5,13.6c-0.1,2.2-0.3,4.5-0.6,6.7
	c-0.1,1-0.6,2-1.2,2.7c-1.3,1.4-2.9,2.5-4.3,3.7c-0.3,0.2-0.7,0.4-1.1,0.3c-1.2-0.1-2.5-0.3-3.8-0.5c0.2-2.2,0.4-4.2,0.6-6.1
	c0.8-7.4,1.8-14.7,2.5-22.1c0.6-5.6,0.9-11.3,1.4-16.9c0.5-5.1,1.1-10.2,1.7-15.2c1.1-8.1,2.2-16.1,3.4-24.2
	c0.8-5.7,1.8-11.4,2.6-17c0.7-4.7,1.4-9.3,2.1-14c0.5-3.6,1.1-7.3,1.5-10.9c0.5-3.9,0.8-7.8,1.3-11.7c0.9-6.3,2-12.6,3-18.9
	c0.3-1.7,0.7-3.5,0.9-5.2c0.7-7.7,1.4-15.4,2.1-23.1c0.8-9.5,1.6-19,2.4-28.4c0.4-4.5,0.8-8.9,1.3-13.4c0.7-6.3,1.3-12.6,2.2-18.8
	c0.7-4.7,1.8-9.2,1.8-14c0-2.1-0.4-4.1-1.7-5.9c-1.1-1.5-2.2-3.2-3.3-4.7c-2.7-3.6-6.3-5.8-10.8-6.7c-0.9-0.2-2-0.3-2.8,0
	c-2.8,1.1-5.4,2.4-6.6,5.4c-0.7,1.8-1.9,3.3-2.8,5c-0.9,1.7-1.9,3.3-2.7,5.1c-3.2,6.8-4.5,14.2-5.4,21.5
	c-1.6,13.2-2.8,26.5-4.2,39.8c-0.1,1.3-0.2,2.6-0.3,3.8c-0.8,8-1.5,15.9-2.3,23.9c-0.8,7.7-1.5,15.4-2.4,23.1
	c-0.4,4.1-1.1,8.2-1.4,12.4c-0.5,7.3-0.7,14.5-1,21.8c-0.2,5.3-0.4,10.5-0.6,15.8c-0.5,11.3-0.9,22.7-1.4,34
	c-0.3,8.8-0.6,17.6-0.9,26.4c-0.1,5-0.2,10.1-0.2,15.1c0,3.4-0.9,6.4-2.8,9.2c-4,6-4.9,5.8-11.5,5.7c-1.4,0-2.1-0.6-2.8-1.7
	c-2-3.4-2.2-7.1-1.8-10.9c0.2-2.1,0.7-4.3,0.9-6.4c0.9-8.9,1.8-17.8,2.7-26.7c0.8-8.4,1.5-16.9,2.3-25.3c0.5-5.6,1-11.1,1.7-16.7
	c0.8-6.8,1.9-13.6,2.5-20.4c0.9-9.5,1.6-18.9,2.3-28.4c0.4-5.6,0.7-11.2,1.1-16.8c0.4-5.9,0.9-11.8,1.3-17.7
	c0.4-5.3,0.8-10.5,1.3-15.8c0.6-6.2,1.3-12.4,2-18.6c1.1-9.6,2.2-19.2,3.2-28.8c0.6-6,1.2-12.1,1.2-18.2c0-6.3-2.3-11.5-6.6-15.9
	c-2.9-2.9-6.2-4.8-10.4-4.2c-1.2,0.2-2.6,0-3.5,0.5c-2.1,1.4-4.1,3.1-6,4.7c-0.5,0.4-0.7,1.1-0.9,1.6c-1.1,3.8-2.2,7.5-3.2,11.3
	c-1.4,5.5-2.8,11-4.1,16.5c-0.9,3.9-1.9,7.8-2.5,11.7c-1.2,8.9-2.1,17.8-3.1,26.7c-0.5,4.4-1.1,8.9-1.5,13.3
	c-0.5,7.5-0.9,15-1.3,22.5c-0.5,8.5-1,16.9-1.4,25.4c-0.3,6.3-0.4,12.6-0.6,18.9c-0.1,5-0.3,10.1-0.3,15.1
	c0.1,6.7,0.5,13.4,0.6,20.1c0.1,15,0.6,30.1-0.9,45.1c-0.9,8.2-1.7,16.4-2.6,24.6c-0.4,3.5-1.4,7-1.4,10.4c0,5-2.4,7.9-6.9,9.4
	c-0.2,0-0.3,0.1-0.4,0.2c-0.8,0.3-1.5,0.1-1.9-0.5c-1.1-1.8-2.5-3.6-3.2-5.6c-1.5-4.2-2.6-8.5-3.8-12.8c-2.1-7.2-2.9-14.6-3.7-22
	c-0.7-6.6-1.1-13.2-2-19.8c-1-6.8-1-13.5-0.7-20.3c0.3-5.1,0.6-10.2,0.7-15.3c0.2-6.7,0.3-13.4,0.5-20.1c0.1-3.3,0.4-6.5,1.3-9.7
	c1.4-4.9,1.9-10,1.9-15.2c0-2.3-0.1-4.6,0-7c0.3-5,0.7-10,1-15.1c0.7-11.6,0.6-23.2,0.5-34.8c0-3.4,0-6.9-0.1-10.3
	c-0.3-10.9-0.6-21.7-0.8-32.6c-0.1-6,0.1-12-0.1-18c-0.1-4.4,0-8.8-2.8-12.6c-0.3-0.4-0.3-0.9-0.5-1.3c-1.1-2-2.1-4-3.2-5.8
	c-1.9-3.1-5.3-3.6-8.3-4.8c-0.2-0.1-0.5,0-0.7,0c-4.8,0.4-10.6,4.9-11.4,10.4c-0.7,4.8-1.5,9.6-2.3,14.4c-0.2,1.5-0.4,3-0.6,4.5
	c-0.2,2.5-0.2,5-0.5,7.4c-0.9,8.5-1.9,17-2.7,25.5c-0.5,4.9-0.6,9.9-0.9,14.8c-0.5,8.6-1.1,17.2-1.6,25.8c-0.3,4.4-0.3,8.8-0.6,13.2
	c-0.7,9.2-1.4,18.3-1.8,27.5c-0.4,11.5-1,23-1.4,34.5c-0.4,10.3-0.4,20.6-0.9,30.9c-0.5,10.6,0.7,21.1,1.6,31.6
	c0.3,3.7,0.8,7.5,0.9,11.2c0,6.9-1.2,13.7-3.2,20.3c-0.5,1.7-1.3,3.1-2.7,4.1c-1.5,1.1-3.9,0.7-4.7-1c-0.4-0.8-0.6-1.7-0.8-2.5
	c-1.4-6.1-1.8-12.4-1.7-18.6c0.3-13.6,0.6-27.2,1.2-40.7c0.5-10.8,1.6-21.5,2.4-32.3c0.4-5.8,0.7-11.6,1.1-17.5
	c0.4-6.2,1-12.4,1.5-18.6c0.4-4.9,0.6-9.9,1-14.8c0.7-7.7,1.6-15.4,2.2-23.1c0.8-10.6,1.3-21.2,1.8-31.8c0.3-5.7,0.2-11.5,0.4-17.3
	c0.2-7.6,0.5-15.2-0.6-22.7c-1.2-8-2.5-16-3.8-23.9c-0.2-1.3-0.6-2.6-1-3.9c-0.9-3-3.3-4.6-5.6-6.4c-1.6-1.2-3.4-2-5.3-2
	c-2.4,0-4.7,0.4-7.1,0.8c-0.4,0.1-0.9,0.3-1.2,0.7c-1.3,1.7-2.8,3.3-3.9,5.1c-3.2,5.5-4.8,11.7-5.6,18c-1,7.6-1.6,15.3-1.9,22.9
	c-0.5,12.3-0.6,24.6-1,36.9c-0.2,7.3-0.6,14.5-1,21.8c-0.3,6.5-1,13.1-0.5,19.6c0.2,2.3,0.1,4.6,0.1,7c0.1,6.5,0,13,0.2,19.4
	c0.2,10.2,0.5,20.3,0.8,30.4c0.3,11,0.7,22.1,1.1,33.1c0.2,5.9,0.6,11.8,0.8,17.7c0.3,8.7,0.5,17.4,0.6,26.1
	c0.1,10.3,0.6,20.6-0.8,30.9c-0.1,0.5-0.2,1.1-0.4,1.6c-1.2,2.9-3.4,3.3-5.6,1.2c-2.5-2.3-3.8-5.1-4.1-8.4c-0.1-1.7-0.2-3.4-0.3-5
	c-0.5-8.5-1.1-16.9-1.6-25.4c-0.4-5.8-0.9-11.6-0.4-17.5c0.3-3.9,0.4-7.8-0.1-11.7c-0.5-3.9-0.7-7.8-0.8-11.7
	c-0.1-2.2,0.4-4.5,0.4-6.7c0.1-9.4,0.8-18.8,1.6-28.2c0.9-9.5,1.5-19,1.3-28.5c-0.1-6.2-0.4-12.3-0.4-18.5c0-9,0.3-18.1,0.5-27.1
	c0-0.8,0.2-1.6,0.3-2.4c0.8-4.7,1.7-9.4,2.2-14.2c0.9-7.9,1.5-15.9,2.1-23.9c0.4-5.3,0.7-10.6,0.5-15.8c-0.3-6.9-0.1-13.7,0.4-20.6
	c0.3-4.8,0-9.4-1-14c-0.7-3.2-2.3-5.6-4.7-7.6C72.2,4.5,66.6,5.2,64,11c-1.2,2.6-2,5.4-2.5,8.2c-1.1,5.3-1.8,10.7-2.7,16
	c-1.6,9.5-3.4,19-4.7,28.6c-1,6.8-1.5,13.6-2.2,20.5c-0.5,5.4-0.9,10.8-1.6,16.2c-0.6,4.9-1.7,9.8-2.3,14.7
	c-1.3,10.8-2.7,21.6-3.7,32.4c-1.2,13.7-0.8,27.5-0.7,41.2c0.1,12.9,0.6,25.7,0.9,38.6c0.1,5.7,0,11.4,0.2,17c0.2,7.7-0.5,15.3-1,23
	c-0.2,3.4-2.8,6.3-6.1,7.2c-0.6,0.2-1.5,0.1-2-0.2c-3.3-1.7-5.3-4.3-5.3-8.2c0-1.9,0.1-3.8,0.1-5.8c0-6.6,0.3-13.3-1-19.8
	c-0.3-1.6-0.8-3.1-0.9-4.7c-0.8-9.3-1.4-18.6-2.1-28c-0.5-6.2-0.7-12.5-1.7-18.6c-1-6.2-1.4-12.4-1.5-18.6c0-1.8,0.4-3.5,0.2-5.3
	c-1-7.1-0.9-14.2-0.9-21.3c0-4.4,0.1-8.8,0.3-13.2c0.3-5.8,0.9-11.6,1.2-17.5c0.3-5.3,0.3-10.5,0.7-15.8C25.5,86.2,26,74.6,26.1,63
	c0-7.3,0-14.5,0-21.8c0-10,0-20,0-30c0-3.7,0.2-7.5,0.3-11.2c-3,0-6.1,0-9.1,0c0.1,1.4,0.2,2.9,0.2,4.3c-0.5,8.6-1.2,17.2-1.6,25.8
	c-0.4,8.4-0.4,16.8-0.7,25.2c-0.2,6.3-0.9,12.6-1.1,18.9c-0.2,5.5,0.1,11,0,16.5c0,7.7-0.1,15.3-1,23c-0.8,7.3-1.4,14.6-2.1,22
	c-0.2,2.6-0.6,5.3-0.6,7.9c-0.1,4.3,0,8.6,0.1,12.9c0.2,10.4,0.6,20.8,0.8,31.2c0.1,9.3-0.1,18.7,0.1,28.1c0.1,6.7,0.5,13.4,1,20.1
	c0.4,5.3-0.1,10.6-0.9,15.8c-0.4,2.5-0.1,5,0.4,7.3c0.9,4.4,2,8.8,3.4,13c1.3,3.7,3,7.2,4.8,10.7c1.4,2.6,3.8,4.5,6.2,6.2
	c0.6,0.4,1.3,0.6,2,0.6c3.4,0,6.9,0.1,10.3-0.3c4.4-0.5,8.6-2.2,11-6c2.5-4,4.3-8.3,4-13.3c-0.6-7.9-0.9-15.8-1.3-23.7
	c-0.3-5.2-0.7-10.4-1-15.6c-0.4-6.9-0.5-13.7-1-20.6c-0.3-5.3-0.9-10.7-1.3-16c-0.3-2.9-0.7-5.7-0.8-8.6c-0.1-2.7,0.1-5.4,0.3-8.1
	c1-10.8,2.2-21.6,3-32.5c0.5-6.9,1.1-13.7,2.1-20.5c0.7-5.2,1.4-10.5,1.9-15.7c0.7-7.2,1-14.3,1.7-21.5c0.5-5.3,1.1-10.7,2-15.9
	c0.8-5,2.2-10,3.2-15c0.9-4.1,1.8-8.3,2.5-12.5c0.5-3.1,0.8-6.3,1.2-9.5c0.3-1.9,0.6-3.8,1.1-5.6c0.5-1.8,1.7-2.5,2.9-2.3
	c1.1,0.2,2.1,1.5,2.2,3.1c0.1,2.7,0.1,5.4-0.1,8.2c-0.2,3.7-0.6,7.5-0.8,11.2c-0.5,6-0.9,11.9-1.3,17.9c-0.3,4.7-0.5,9.4-0.8,14.1
	c-0.6,9-1.2,18-1.9,27c-0.7,8.3-1.8,16.5-2.4,24.8c-0.6,7.2-0.9,14.4-1.3,21.5c-0.7,10.9-1.2,21.7-1,32.6
	c0.2,10.9,0.4,21.7,0.6,32.6c0,2.1,0.1,4.2,0,6.2c-0.2,7,0.5,13.9,1.1,20.8c0.3,3,0.2,6.1,0.4,9.1c0.3,5.2,0.7,10.4,1.1,15.5
	c0.1,1.8,0.2,3.7,0.3,5.5c0.2,3.5,0.4,7,0.6,10.5c0.2,3.3,1.6,6.3,2.8,9.4c1.5,3.7,3.9,7,6.5,10.1c1.3,1.5,2.9,2.6,4.9,2.6
	c1.9,0.1,3.9,0.2,5.7-0.2c3.1-0.7,5.2-3,6.3-5.8c2.2-5.1,4.1-10.1,4-15.9c-0.3-9.4,0-18.7,0-28.1c0-13.8,0-27.7-0.1-41.5
	c0-4.1-0.6-8.1-0.9-12.2c-0.3-5-0.6-10.1-1-15.1c-0.3-3.2-0.7-6.4-1.2-9.5c-0.7-4.9-0.7-9.9-0.7-14.8c0.1-8.2-0.1-16.3,0-24.5
	c0.1-6.6,0.4-13.1,0.5-19.7c0.1-6.2,0.2-12.5,0.3-18.7c0-2.7,0.2-5.4,0.1-8.1C94,86.8,93.7,78.4,93.7,70c0-3.9,0.3-7.8,0.4-11.7
	c0.3-6.2,0.6-12.5,0.9-18.7c0.2-4.2,0.3-8.5,0.5-12.7c0.1-2,0.5-3.9,0.9-5.9c0.5-2.6,2.2-3.5,4.7-2.7c1.6,0.5,2.8,1.3,3.7,2.8
	c2,3.4,2.9,7.1,3,10.9c0.1,6.5,1.3,12.9,2.1,19.3c0.6,5.4,0.4,10.7,0.2,16c0,1.3,0,2.5,0,3.8c0.1,10.3,0.2,20.6,0.2,30.9
	c0,5-0.2,10.1-0.3,15.1c0,0.8,0.1,1.6,0.2,2.4c0.4,4.5-0.1,8.9-1.2,13.3c-0.6,2.2-0.9,4.6-1.2,6.8c-1,6.5-2.1,13.1-3.1,19.7
	c-1.1,7.8-2.1,15.7-3,23.5c-0.4,3.2-0.3,6.4-0.4,9.6c-0.3,15.5-0.6,31-0.7,46.5c0,7,0.4,14.1,0.7,21.1c0.2,5.9,0.5,11.8,0.9,17.7
	c0.2,2.8,0.9,5.7,1.6,8.4c1.3,4.8,8.6,7.6,12.9,6c5.6-2.1,9.7-5.9,12.3-11.2c1-2,1.2-4.5,1.4-6.8c0.5-6,1-12.1,1.2-18.2
	c0.3-7.5,0.4-15,0.4-22.5c0-4.6-0.3-9.3-0.3-13.9c0-4.3,0.4-8.6,0.4-12.9c0-8.8-0.2-17.6-0.3-26.4c0-2.6,0-5.1,0.2-7.7
	c0.5-7.3,1.2-14.6,1.7-22c0.4-6.4,0.5-12.8,0.8-19.1c0.3-9,0.7-18,1-27.1c0.3-7.4,0.5-14.9,0.9-22.3c0.3-5.6,1.1-11.1,1.6-16.7
	c0.6-7,1.3-14,1.7-21c0.2-3.9,0-7.8,0.1-11.7c0.1-2.7,0.4-5.4,0.8-8.1c0.6-3.5,3.1-5.3,6.5-5c1.8,0.2,3.2,1.1,4.1,2.6
	c1.6,2.6,2.8,5.4,2.8,8.5c0.1,6.5,0.5,12.9,1.2,19.3c0.4,4.3,0.3,8.6,0.1,12.9c-0.4,8.9-1,17.7-1.5,26.6c-0.4,6.4-0.8,12.8-1.3,19.1
	c-0.6,7-1.3,14-2,21c-0.9,8.7-2,17.5-2.6,26.2c-1.1,15.1-2.2,30.3-2.5,45.5c-0.1,6.5-1,12.9-0.9,19.4c0.2,11.3-0.8,22.7,1.4,33.9
	c1.2,6.3,1.9,12.6,2.8,19c0.2,1.2,0.4,2.4,0.6,3.5c0.8,4.9,3.8,8.1,8.1,10.4c1.4,0.7,2.8,1.6,4.1,2.4c5.8,3.5,11.9,5.5,18.7,4.6
	c1.6-0.2,3.3-0.7,4.8-1.3c2.2-0.8,3.3-2.5,3.8-4.8c2.5-10.9,2-21.9,2-32.9c0-1.8,0.2-3.7,0.4-5.5c0.2-2.1,0.4-4.3,0.6-6.4
	c0.8-8.5,1.7-17,2.3-25.5c0.4-5.5,0.4-11,0.6-16.5c0.1-2.2,0.2-4.5,0.2-6.7c0-7.3-0.1-14.6,0-21.8c0.1-5.1,0.7-10.2,0.7-15.3
	c0-9.6,0.9-19.2,1.4-28.7c0.5-8.1,0.8-16.1,1.3-24.2c0.3-4.6,0.6-9.2,0.9-13.8c0-0.6,0-1.3,0-1.9c-0.4-3.3-0.5-6.5,0.3-9.8
	c0.9-3.8,0.7-7.6,0.7-11.4c0-6.5-0.1-12.9,0.8-19.4c0.5-3.8,1.3-7.5,2.5-11.2c0.2-0.6,0.5-1.2,0.6-1.8c0.5-3.7,2.6-6.7,4.9-9.4
	c0.9-1,1.9-2,3-2.7c2.1-1.3,4.6-0.8,5.9,1.3c1.9,3,3.6,6.1,4.1,9.6c0.2,1.6,0.1,3.4,0.4,5c0.6,3.6-0.2,7.2-0.5,10.7
	c-0.6,8.2-1.3,16.4-1.9,24.6c-0.5,5.4-1.2,10.8-1.5,16.2c-0.4,7.8-2.5,15.3-3.8,22.9c-1.5,8.9-2.7,17.8-4.2,26.7
	c-1.5,9.2-1.9,18.6-2.8,27.9c-0.7,6.5-1.5,13-2.2,19.5c-0.9,7.8-2,15.5-2.4,23.3c-0.4,7.1-1.8,14.1-2.7,21.1c-1,7.5-2.4,15-3.5,22.5
	c-0.7,5.3-1.3,10.6-0.9,16c0.2,3,0.7,6,1.9,8.9c0.7,1.6,0.8,3.4,1.5,5c0.7,1.6,1.7,3,2.7,4.4c0.5,0.8,1.4,1.3,1.9,2.1
	c1.5,2.4,3.9,3.2,6.5,3.6c1.7,0.3,3.5,0.5,5.2,0.8c2.5,0.4,4.7-0.4,6.4-2.1c3.2-3.3,6.4-6.8,7.8-11.3c0.9-2.9,1.8-5.8,2.3-8.7
	c0.9-5.3,1.4-10.6,2.4-15.9c0.8-4,0.8-8.1,1.2-12.1c0.6-6.6,0.9-13.2,1.4-19.8c0.2-2.4,0.6-4.7,0.9-7.1c1.5-11.9,3.1-23.8,4.5-35.7
	c0.7-6.7,1-13.4,1.4-20.1c0.3-3.9,0.8-7.8,0.7-11.7c-0.2-7.4,1.1-14.6,1.3-22c0.1-3.2,0.5-6.4,0.7-9.5c0.4-5.6,0.7-11.2,1.2-16.7
	c1-10.7,1.9-21.5,3.1-32.2c0.5-4.4,1.4-8.7,2.3-13c1-4.5,0.6-9,0.3-13.6c-0.2-2.8,0-5.7,0.2-8.6c0.1-1,0.4-2,0.8-3
	c1.6-3.8,5.9-4.6,8.5-1.4c0.9,1.1,1.7,2.6,2.1,4c1.5,5.3,1.5,10.7,1.1,16.2c-0.4,4.8-1,9.5-1.5,14.3c-1.4,13.9-2.8,27.8-4.3,41.7
	c-0.9,8.4-1.9,16.8-3.1,25.2c-0.9,6.2-2.3,12.2-3.4,18.4c-1.6,9.1-3.1,18.3-4.7,27.4c-1.6,9-3.3,18.1-4.9,27.1
	c-0.6,3.6-1.2,7.3-1.8,10.9c-0.7,4.3-1.4,8.7-2,13c-0.7,5.2-1.4,10.5-1.7,15.7c-0.4,7.3-1,14.5-2.2,21.7c-0.6,3.8-1.1,7.6-1.1,11.4
	c-0.1,7.2,1.2,14.2,5.1,20.4c1.2,1.9,2.8,3.5,4.5,4.9c2.5,2,5.4,1.5,8.2,0.3c4.1-1.8,6.4-5.3,8.2-9.2c1.6-3.6,2.3-7.5,3.2-11.3
	c0.3-1.5,0.4-3,0.4-4.5c0.1-9.4,0.8-18.7,1.7-28c0.5-5.1,1.6-10.1,2.9-15c1.6-6.3,2.3-12.7,2.6-19.2c0.2-4.1,0.7-8.1,1.2-12.2
	c1.2-10.7,2.3-21.4,3.6-32.1c1.5-11.5,3.1-23,4.8-34.4c0.7-4.9,0.9-9.8,0.9-14.8c0-6.4,0.7-12.7,1.7-19.1c0.5-3.3,0.6-6.7,0.9-10
	c0.6-5.6,1.3-11.1,1.9-16.7c0.7-7,1.4-14,2-21c0.1-1.4-0.3-2.8-0.5-4.3c-0.7-4.5-0.3-8.9,1.2-13.2c1-2.6,2.6-4.6,5.4-5.4
	c3.4-1.1,6.8,0,8.5,3.1c1.1,1.9,1.8,4.1,2.1,6.3c0.5,3,0.5,6,0.7,9.1c0.2,3.3-1.1,6.3-1.7,9.4c-0.6,3.3-1.4,6.6-2,9.9
	c-0.7,3.6-1.2,7.3-1.9,10.9c-1.6,7.7-3.3,15.3-4.9,23c-2,9.6-4.1,19.2-5.9,28.9c-1.1,5.8-1.8,11.7-2.8,17.5
	c-0.4,2.3-1.1,4.5-1.5,6.8c-0.5,2.7-0.8,5.4-1.2,8c-0.2,1.3-0.7,2.5-0.9,3.7c-0.5,2.7-0.9,5.3-1.4,8c-1.6,9.4-3.6,18.7-4.6,28.1
	c-0.3,3.3-1.3,6.6-2,9.9c-1.6,7.4-3.5,14.8-4.9,22.2c-0.9,4.5-1.2,9-1.6,13.5c-0.5,5.9-0.9,11.8-1.3,17.7c-0.3,3.9-0.6,7.8-1,11.7
	c-0.2,2.5,0.5,4.9,1.3,7.2c1,2.7,2.1,5.4,3.1,8.1c1.8,4.8,5.3,7.5,10.3,8c4.9,0.4,8.8-1.4,12.1-5.3c3.7-4.4,5.4-9.5,6.7-14.9
	c3.3-14,4.7-28.2,5.7-42.5c0.4-5.7,1.1-11.5,1.5-17.2c0.7-10.3,1.3-20.6,2.1-30.8c0.4-5.3,1.4-10.5,1.7-15.7
	c0.4-6.2,1.2-12.2,2.2-18.3c0.3-1.9,0.3-3.8,0.3-5.7c0-3.3,0.6-6.5,1.3-9.7c1.2-5.5,1.9-11,2.8-16.5c0.1-0.6,0.1-1.1,0.2-1.7
	c1.7-7,1.8-14.1,2-21.2c0.2-6.2,0.6-12.4,1.1-18.7c0.6-8.2,2.3-16.3,3.6-24.4c0.9-5.3,1.5-10.6,1.9-15.9c0.4-4.6,1.8-8.7,4.2-12.6
	c0.4-0.6,0.8-1.2,1.4-1.6c1.6-1.4,3.1-1,4,0.9c1.5,3,1.9,6.3,2.1,9.5c0.2,3.7,0.5,7.5-0.3,11.2c-0.3,1.5-0.1,3-0.3,4.5
	c-0.5,4.6-1.1,9.2-1.7,13.8c-0.9,6.8-1.6,13.6-2.7,20.4c-1.6,9.9-2.6,19.9-3.9,29.9c-0.8,6.2-2.2,12.3-3.4,18.4
	c-1,5.3-2.5,10.6-3,16c-0.5,5-0.3,10.1,0.2,15.1c0.8,8.5,1.9,17,3,25.5c0.8,6.2,1.8,12.5,2.3,18.7c0.3,4.9-0.1,9.9-0.1,14.8
	c0,4.9-0.1,9.7,0.8,14.5c1.2,6.2,2,12.5,2.9,18.7c1.2,7.8,3.2,15.5,5.7,23c0.1,0.4,0.2,0.8,0.4,1.1c2.3,4.8,4.5,9.7,7,14.4
	c2.5,4.6,6,8.3,11.2,10c3.7,1.2,9.2-0.8,11.1-4.3c0.4-0.7,0.5-1.5,0.6-2.3c0.4-4.1,0.9-8.3,1-12.4c0.1-5.2-0.2-10.4-0.5-15.6
	c-0.5-8.6-1-17.2-0.2-25.9c0.3-3.2,0.2-6.3-0.3-9.5c-0.4-2.5-0.1-5.1,0.1-7.6c0.7-6.4,0-12.8-0.4-19.2c-0.4-7.5-1.3-14.9-2.4-22.4
	c-1.1-7.4-1.3-14.9-2.1-22.4c-0.7-6-1.1-11.9-1.2-17.9c-0.1-5.1-0.1-10.2-0.2-15.4c-0.1-6-0.4-12-0.4-18c0-3.9,0.3-7.8,0.3-11.7
	c0-7-0.1-14.1-0.1-21.1c0-7,0.4-13.9,1.2-20.8c0.5-3.6,0.3-7.3,0.5-11c0.2-4.5,0.7-8.9,1.8-13.3c0.9-3.8,2.3-7.3,5.6-9.9
	c2.4,0.3,5,0.5,6.6,2.9c0.5,0.8,1.1,1.8,1.2,2.7c1.1,10.5,2.2,21,3,31.5c0.7,8.1,0.5,16.3,0,24.5c-0.2,3.4-0.3,6.7-0.5,10.1
	c-0.3,6-0.8,12-1,17.9c-0.3,7.1-0.6,14.2-0.7,21.3c-0.2,9.7-0.4,19.3-0.5,29c-0.1,11.4-0.2,22.7-0.2,34.1c0,11.3,0,22.5,0,33.8
	c0,5.4,0,10.7,0,16.1c0,2.3,0.1,4.6,0.2,6.9c0.5,9-0.5,18-0.9,27.1c0,0.3,0,0.6,0,1c-0.1,9.4-0.4,18.7-0.2,28.1
	c0.3,12.1,1,24.1,1.5,36.2c0.1,3,0.1,5.9,0.1,8.9c0.1,8.4,0.1,16.8,0.1,25.2c0,5.5,0.2,11,0.1,16.5c-0.1,2.5,0.1,5.1,0.2,7.6
	c0.1,6-0.2,12-0.3,18c-0.1,5.8,0,11.5,0,17.3c0,3.8-0.3,7.5-0.3,11.3c-0.1,4.8-0.1,9.6-0.2,14.4c-0.1,4.2-0.3,8.3-0.2,12.5
	c0.2,6.9-0.1,13.9,0.7,20.8c1.1,8.5,1.7,17,2.4,25.5c0.3,4.4,0.1,8.8,0.2,13.2c0,1.9,0.2,3.8,0.2,5.7c0,7.6,0,15.2,0,22.8
	c0,2,0.3,4,0.3,6c0,1.8-0.2,3.7-0.3,5.5c-0.1,0.6-0.3,1.3-0.5,1.8c-0.8,2-2.1,3.8-4.3,4c-2.3,0.3-3.7-1.4-4.9-3.2
	c-2.8-4-3.1-8.7-3.7-13.3c-0.6-5.6-1.1-11.3-1.5-17c-0.4-5.4-0.7-10.8-0.8-16.3c-0.1-4.8-0.1-9.6,0.1-14.4c0.2-4.5,0.6-8.9,1-13.4
	c0.4-5,0.8-10,1.2-15c0.1-1.4,0.4-2.7,0.5-4c0.5-6.5,1-12.9,1.4-19.4c0.7-11.1,1.1-22.2,2-33.3c0.5-6.8,1.8-13.5,2.7-20.2
	c0.1-0.5,0.1-1,0.2-1.4c0.3-7.3,0.7-14.5,0.9-21.8c0.1-2.2-0.1-4.5-0.2-6.7c-0.3-8.2-0.7-16.5,0.6-24.6c0.2-1.3,0.2-2.7,0.2-4.1
	c0.2-7.5,0.8-15-0.2-22.5c-0.2-1.2-0.1-2.4-0.1-3.6c0.2-3.6-1.9-6.2-5.3-7c-2.2-0.5-4.4-0.6-6.6,0.1c-2.3,0.7-4.6,1.3-6.8,2.2
	c-5.1,2.1-7.6,6.5-9.7,11.3c-1.1,2.5-1.8,5.1-2.8,7.6c-0.2,0.6-0.5,1.2-0.8,1.7c-3.3,4.7-4.2,10.1-4.8,15.6
	c-0.5,4.8-1.1,9.5-1.8,14.3c-0.6,3.9-0.1,7.6,0.1,11.5c0.3,5.1,0.5,10.2,0.6,15.3c0,1.7-0.3,3.5-0.3,5.3c-0.5,9.5-1.2,19-1.5,28.5
	c-0.2,6.3,0.3,12.6,0.5,18.9c0.2,5.4,0.4,10.9,0.7,16.3c0.1,2.5,0.5,4.9,0.7,7.4c0.5,6.2,0.1,12.4,0,18.7c-0.2,10,0,20,0.2,30
	c0.1,3.9,0.3,7.8,0.5,11.7c0.1,1.8,0.3,3.5,0.6,5.2c0.9,4,1.2,8.1,1.1,12.2c-0.3,8.1-0.3,16.2-2.3,24.1c-0.5,2.2-1.2,4.3-2.1,6.3
	c-0.7,1.5-1.6,3.1-3.6,3.1c-2.2,0-4-1-4.9-3c-0.8-1.8-1.5-3.7-1.8-5.7c-0.5-2.9-0.3-5.8,0.3-8.8c0.6-2.8,0.6-5.7,1-8.6
	c0.7-4.7,1.5-9.3,2.1-14c0.2-1.5,0.1-3,0.1-4.5c0-1-0.1-2.1-0.1-3.1c0.5-7.7,0.7-15.3,1.5-23c0.8-8,0.2-16,0.2-24
	c0-6.1-0.6-12.3-0.8-18.4c-0.1-2.5,0.3-5.1,0.5-7.7c0.2-4.6,0.5-9.2,0.7-13.9c0.1-3.1,0.3-6.2,0.4-9.3c0.2-6.2,0.3-12.3,0.5-18.5
	c0.2-5.2,0.7-10.4,1-15.6c0.5-9.4,0.8-18.8,1.2-28.3c0.3-6.7,0.8-13.4,0.9-20.1c0.2-10.8,0.7-21.6-0.9-32.3
	c-0.4-2.7-1.4-5.2-2.2-7.8c-1.3-4.1-4.4-5.8-8-7.2c-2.5-1-5.2-1.5-7.9-1.6c-2.8-0.1-4.9,1-6.8,2.9c-3.7,3.6-5.9,8.1-7.6,12.9
	c-0.8,2.2-0.6,4.7-0.7,7.1c-0.4,5.3-0.9,10.5-1.1,15.8c-0.3,8.1-2,16.2-1.6,24.4c0.3,6.1,0.7,12.3,0.7,18.4
	c0.1,10.2-0.2,20.5-0.2,30.7c-0.1,10.1-0.1,20.1-0.2,30.2c0,2.5-0.2,5-0.2,7.4c0.1,5.9,0.3,11.8,0.3,17.7c0,4.3-0.5,8.6-0.4,12.9
	c0.1,6.9,0.6,13.7,0.8,20.6c0.4,10.4,0.9,20.8,0.9,31.2c0,6,0.3,12,0.7,17.9c0.4,4.9-1.1,9.5-2.8,14c-0.5,1.2-2,1.8-3.5,1.5
	c-2.3-0.4-4.1-2-4.5-4.4c-0.4-2.8-1-5.6-0.9-8.3c0.2-7.3,0.7-14.5,0.9-21.8c0.2-5.3,0.2-10.7,0.4-16.1c0.1-5.4,0.4-10.9,0.5-16.3
	c0-1.5,0.1-3,0-4.6c-0.5-7,0.4-13.9,0.7-20.8c0.3-6.5,0.5-12.9,0.6-19.4c0.1-7,0-14.1,0-21.1c0-3.2,0.2-6.4,0.1-9.6
	c-0.1-6.6-0.3-13.1-0.4-19.7c-0.1-5.5,0-11-0.3-16.5c-0.4-8.6-1.2-17.2-1.5-25.8c-0.2-4.5,0.2-9.1,0.4-13.7
	c0.3-6.8,0.7-13.6,1.1-20.3c0.2-2.6,0.4-5.3,0.7-7.9c0.7-5.9,0.1-11.6-1.4-17.3c-0.3-1-0.8-2-1.4-2.7c-1.8-1.8-3.1-4-5.6-5.1
	c-4.7-2.2-8.7-1.2-12.4,2.1c-4.4,4-6.7,9.1-7.4,14.9c-0.6,4.5-1.2,9-0.9,13.6c0.3,4.4,0.3,8.8,0.3,13.2c0,2.1-0.1,4.1-0.1,6.2
	c0,5.8,0,11.7,0.2,17.5c0.3,6.4,0.8,12.7,1.2,19.1c0.3,4.5,0.5,9.1,0.7,13.6c0.1,2.9,0.3,5.7,0.4,8.6c0,1,0.1,1.9,0,2.9
	c-0.3,3.7-0.6,7.3-0.9,11c-0.9,11.2-2,22.4-2,33.7c0,6.9-0.3,13.9-0.8,20.8c-0.6,8.8-1.6,17.7-2.4,26.5c-0.5,5.4-1,10.8-1.5,16.2
	c-0.4,4.2-1,8.4-1.4,12.6c-0.7,7.5-1.2,15-1.9,22.4c-0.3,3.2-0.3,6.4-1.1,9.5c-0.7,3-1.8,6.2-5.4,7.3c-1.7,0.5-2.2,0.2-2.7-1.5
	c-1.1-3.2-0.8-6.4-0.5-9.7c0.1-1.7,0-3.3,0-5c-0.3-10.1-0.7-20.3-0.7-30.4c0-7.4,0.6-14.8,0.9-22.3c0.2-5.7,0.5-11.3,0.6-17
	c0.3-12.1,1.2-24.1,2.1-36.1c1-13.6,2.1-27.3,1.4-41c-0.5-9.2-0.6-18.4-0.7-27.6c-0.1-10.9,0.1-21.7-0.1-32.6
	c-0.1-8.1-0.4-16.1-1.9-24.1c-0.6-3.3-0.7-6.6-1.6-9.9c-0.9-3.3-2.7-6.1-4.5-8.9c-1.3-2-3.1-3.8-4.9-5.6c-0.5-0.5-1.4-0.8-2.1-0.8
	c-7.4-0.3-13.5,2.5-17.7,8.7c-1.7,2.6-2.8,5.7-3.7,8.8c-1.5,5-2.9,10-3,15.2c-0.1,5.7-0.1,11.3,0,17c0.2,8.5,0.7,16.9,0.9,25.4
	c0.1,5.6,0.3,11.2,0,16.8c-0.6,8.8,0.1,17.6-0.2,26.4c-0.3,11.5-0.8,23-0.9,34.5c-0.1,6,0.3,12,0.7,18c0.5,7.6,1,15.1,1.7,22.7
	c0.2,2.8,0.7,5.5,1,8.3c0.1,0.9,0.2,1.8,0.2,2.6c-0.2,5.9-0.5,11.8-0.7,17.7c-0.2,6.9-0.6,13.9,0.4,20.8c0.2,1.7,0.7,3.4,0.9,5.2
	c0.3,3.5,0.6,7,0.6,10.5c0,2.4,0.1,4.8,0.5,7.1c0.6,2.9-0.8,5.3-2,7.7c-0.3,0.6-1.4,1.1-2,1c-1-0.2-2.3-0.3-3-1.5
	c-2.3-3.8-3.6-8-3.7-12.5c0-1-0.2-2,0-2.9c1.3-6.6-0.3-13.1-0.6-19.6c-0.1-3.7-0.3-7.3-0.3-11c-0.1-8.4-0.1-16.8,0-25.2
	c0.1-6.1,0.4-12.1,0.5-18.2c0.3-10.7,0.5-21.4,0.8-32.1c0.2-6.8,0.4-13.6,0.6-20.3c0.1-3.1,0.1-6.2,0.4-9.3
	c0.6-8.6,1.2-17.2,1.9-25.8c0.9-11.3,1.1-22.5,0.6-33.8c-0.2-5.3-0.1-10.7-0.5-16.1c-0.6-7.7,0.8-15.3,0.9-23c0-3.4,0.2-6.7-0.2-10
	c-0.5-3.6-2.2-6.8-4.2-9.8c-0.6-0.9-1.8-1.5-2.8-2.1c-1-0.6-2.1-0.9-3.1-1.4c-1.2-0.6-2.4-1-3.7-0.7c-0.2,0-0.5,0-0.7,0
	c-3.5-0.8-6.6,0.6-9.7,1.9c-1.8,0.8-3.6,1.7-5.5,2.4c-3.2,1.2-5.5,3.6-7.7,6c-1.7,1.9-2.1,4.5-2.4,6.9c-0.8,6.1-1.7,12.2-2,18.3
	c-0.3,5.5,0.1,11,0.3,16.5c0.1,4.1,0.2,8.2,0.5,12.2c0.4,5.3,1.2,10.6,1.6,16c0.4,4.5,0.8,8.9,0.8,13.4c0.1,9.5-0.3,19-0.1,28.5
	c0.1,9,0.6,17.9,1,26.8c0.3,7.7,0.6,15.5,1.1,23.2c0.4,6.4,0.9,12.8,1.3,19.1c0.4,7.9,0.8,15.8,1.1,23.7c0.3,8.2,0.5,16.5,0.6,24.7
	c0.1,4.2-0.1,8.5-0.1,12.7c0,1.5,0.1,3,0.3,4.5c0.7,5.8-1.1,11.1-3.6,16.1c-1.2,2.4-3.6,3.7-5.8,3.4c-2.3-0.4-4.2-2.2-4.7-4.9
	c-0.3-1.6-0.3-3.4,0-5c0.9-5.4,0.8-10.8,0.5-16.2c-0.5-9.5-0.9-19-1.6-28.5c-1-13.4-0.1-26.7,0.1-40c0.2-12,0.9-24,1.3-35.9
	c0.2-6.9,0.2-13.9,0.4-20.9c0.1-6.2,0.4-12.5,0.5-18.7c0.1-3.4,0.2-6.7,0.3-10.1c0.1-6.3,0.1-12.6,0.1-18.9
	c-0.1-13.3-0.2-26.5-0.3-39.8c0-4.3,0.1-8.6,0-12.9c-0.2-8.3-0.8-16.6-3.3-24.6c-1.1-3.5-2.3-7-3.4-10.4c-0.8-2.4-2.6-4-4.6-5.3
	c-3.7-2.4-7.9-3.5-12.1-4.5c-2.4-0.6-4.6,0.4-6.2,2.3c-1.5,1.8-3.3,3.5-4.6,5.5c-1.2,1.8-2.1,3.8-2.7,5.8c-1.4,4.5-1.8,9.3-2,14
	c-0.2,3.9,0,7.8-0.1,11.7c-0.1,5.4-0.4,10.7-0.2,16.1c0.2,8,0.6,16,1.1,23.9c0.3,4.5,1.1,9,1.5,13.6c0.4,6.1,0.7,12.1,0.8,18.2
	c0.2,5.8,0,11.7,0.2,17.5c0.2,4.9,0.8,9.9,1.2,14.8c0.4,4.3,0.8,8.6,1.3,12.9c1,7.8,2,15.5,3.2,23.3c0.8,5.2,1,10.3,0.6,15.5
	c-0.4,5.6-0.4,11.2-0.8,16.8c-0.6,8.4-1.3,16.7-1.9,25.1c-0.4,5.2-0.4,10.4-0.9,15.5c-0.5,5.1-1.2,10.1-1.9,15.2
	c-0.5,3.6-1.2,7.2-1.7,10.9c-0.7,4.7-1.2,9.5-3.5,13.9c0,0.1-0.1,0.1-0.1,0.2c-0.6,3.6-3.4,3.9-6.6,4.1c-0.5-2-1-3.8-1.3-5.8
	c-0.8-5-0.7-10-0.4-15.1c0.4-6.9,0.6-13.9,1-20.8c0.5-8.9,1.1-17.9,1.7-26.8c0-0.8,0-1.6,0.1-2.4c0.1-8.1,0.3-16.1,0.4-24.2
	c0-4.4-0.1-8.8,0-13.2c0.1-8.4,0.1-16.8,0.3-25.2c0.1-5.6,0.3-11.2,0.6-16.8c0.2-4.7,0.5-9.4,0.8-14.1c0.4-6.1,0.8-12.1,1.1-18.2
	c0.2-4,0.5-8,0.5-12c0-9.2-0.2-18.4-0.2-27.6c0-5.1,0.3-10.2,0.5-15.3c0.3-7.1,0.1-14.1-2.7-20.7c-0.4-0.9-0.6-1.8-0.7-2.8
	c-0.9-6.7-9.3-11.5-14.4-11.2c-2.5,0.1-4.7,1.1-6.3,3c-2.9,3.4-5.1,7-5.5,11.7c-0.8,8.2-1.9,16.4-2.8,24.5
	c-0.4,3.4-1.1,6.8-1.4,10.2c-0.5,6.8-0.7,13.6-1.1,20.4c-0.7,12.1-1.5,24.3-2,36.4c-0.3,6.5-0.3,13.1-0.3,19.7
	c-0.1,5.3-0.2,10.6,0,15.8c0.2,6.9,0.5,13.7,0.9,20.6c0.5,10.9,1.2,21.9,1.6,32.8c0.4,11.3,0.5,22.7,0.7,34.1
	c0.1,6.2,0.9,12.3,2,18.3c0.4,2.4,0.3,4.8-0.2,7.1c-0.2,1-0.7,2-1.3,2.8c-1.3,1.5-3.1,0.9-3.7-0.9c-0.1-0.4-0.1-0.9-0.2-1.4
	c-0.2-3.7-0.3-7.4-0.7-11c-0.7-5.9-1.6-11.7-2.4-17.6c-0.8-5.8-1.7-11.5-2.3-17.3c-0.5-4.8-0.8-9.7-0.8-14.6
	c-0.1-13.8-1.5-27.5-2.6-41.2c-0.3-4.1-0.3-8.3-0.6-12.5c-0.4-6.9-0.7-13.9-1.3-20.8c-1-13.4-1.6-26.8-1.4-40.2
	c0.1-14.1-1-28.1-2.1-42.1c-0.3-3.9,0-7.8-0.3-11.7c-0.5-5.4-1.4-10.8-3.6-15.8c-0.9-1.9-2.2-3.7-3.4-5.5c-0.7-1.2-1.8-1.7-3.1-2
	c-4-1-8.1-0.7-12.2-0.3c-0.6,0.1-1.1,0.2-1.7,0.2c-5.8,0.5-10,3.5-13,8.3c-3.5,5.6-5.7,11.6-5.8,18.3c0,4.5,0.1,8.9,0.2,13.4
	c0.1,3.4,0.2,6.9,0.4,10.3c0.5,6.4,1.3,12.9,1.7,19.3c0.4,4.9,0.4,9.9,0.6,14.9c0.2,6.9,0.5,13.9,0.7,20.8
	c0.3,12.8,0.5,25.6,0.8,38.3c0,2.1,0.3,4.2,0.5,6.2c1,7.4,2,14.9,3,22.3c0.7,5.8,1.5,11.6,2,17.4c0.4,4.3,0.6,8.6,0.6,12.9
	c0.1,8.8,0.6,17.6,1.4,26.3c0.9,10.3,1.4,20.6,2,30.8c0.5,8.6,1,17.2,1.5,25.8c0.1,1.5,0.3,3,0.4,4.5c5.3,0,10.6,0,15.8,0
	c0.1-1,0.3-2.1,0.3-3.1C57.7,598.1,56.9,587.2,56.2,576.4z"/>
<path class="st0" d="M40.3,581.7c-0.6-10.3-1.1-20.6-2-30.8c-0.8-8.8-1.3-17.5-1.4-26.3c0-4.3-0.2-8.6-0.6-12.9
	c-0.5-5.8-1.3-11.6-2-17.4c-1-7.4-2-14.9-3-22.3c-0.3-2.1-0.5-4.1-0.5-6.2c-0.3-12.8-0.5-25.6-0.8-38.3c-0.2-7-0.4-13.9-0.7-20.8
	c-0.2-5-0.2-9.9-0.6-14.9c-0.5-6.5-1.2-12.9-1.7-19.3c-0.3-3.4-0.4-6.9-0.4-10.3c-0.1-4.5-0.3-8.9-0.2-13.4c0-6.7,2.3-12.7,5.8-18.3
	c3-4.8,7.2-7.8,13-8.3c0.6,0,1.1-0.2,1.7-0.2c4.1-0.4,8.1-0.7,12.2,0.3c1.3,0.3,2.4,0.9,3.1,2c1.2,1.8,2.5,3.5,3.4,5.5
	c2.2,5,3.1,10.4,3.6,15.8c0.4,3.9,0,7.8,0.3,11.7c1.1,14,2.2,28.1,2.1,42.1c-0.1,13.4,0.4,26.8,1.4,40.2c0.5,6.9,0.9,13.9,1.3,20.8
	c0.2,4.1,0.2,8.3,0.6,12.5c1.1,13.7,2.5,27.4,2.6,41.2c0,4.9,0.3,9.8,0.8,14.6c0.6,5.8,1.5,11.6,2.3,17.3c0.8,5.9,1.7,11.7,2.4,17.6
	c0.4,3.6,0.5,7.3,0.7,11c0,0.5,0,1,0.2,1.4c0.6,1.9,2.4,2.4,3.7,0.9c0.6-0.7,1.1-1.8,1.3-2.8c0.5-2.3,0.7-4.7,0.2-7.1
	c-1.1-6.1-1.9-12.2-2-18.3c-0.3-11.4-0.3-22.7-0.7-34.1c-0.4-10.9-1.1-21.9-1.6-32.8c-0.3-6.9-0.7-13.7-0.9-20.6
	c-0.1-5.3,0-10.5,0-15.8c0.1-6.6,0-13.1,0.3-19.7c0.6-12.1,1.4-24.3,2-36.4c0.4-6.8,0.6-13.6,1.1-20.4c0.2-3.4,0.9-6.8,1.4-10.2
	c1-8.2,2.1-16.3,2.8-24.5c0.4-4.7,2.6-8.3,5.5-11.7c1.6-1.9,3.8-2.9,6.3-3c5.1-0.2,13.5,4.6,14.4,11.2c0.1,0.9,0.3,1.9,0.7,2.8
	c2.7,6.7,3,13.7,2.7,20.7c-0.3,5.1-0.5,10.2-0.5,15.3c0,9.2,0.2,18.4,0.2,27.6c0,4-0.2,8-0.5,12c-0.3,6.1-0.7,12.1-1.1,18.2
	c-0.3,4.7-0.6,9.4-0.8,14.1c-0.2,5.6-0.5,11.2-0.6,16.8c-0.1,8.4-0.2,16.8-0.3,25.2c0,4.4,0.1,8.8,0,13.2
	c-0.1,8.1-0.3,16.2-0.4,24.2c0,0.8,0,1.6-0.1,2.4c-0.6,8.9-1.2,17.9-1.7,26.8c-0.4,6.9-0.6,13.9-1,20.8c-0.3,5-0.5,10.1,0.4,15.1
	c0.3,1.9,0.9,3.8,1.3,5.8c3.2-0.2,6-0.5,6.6-4.1c0-0.1,0.1-0.1,0.1-0.2c2.3-4.3,2.8-9.1,3.5-13.9c0.5-3.6,1.2-7.2,1.7-10.9
	c0.7-5.1,1.4-10.1,1.9-15.2c0.5-5.2,0.5-10.4,0.9-15.5c0.6-8.4,1.4-16.7,1.9-25.1c0.4-5.6,0.4-11.2,0.8-16.8
	c0.4-5.2,0.2-10.4-0.6-15.5c-1.2-7.7-2.2-15.5-3.2-23.3c-0.6-4.3-0.9-8.6-1.3-12.9c-0.5-4.9-1-9.9-1.2-14.8
	c-0.2-5.8-0.1-11.7-0.2-17.5c-0.2-6.1-0.4-12.1-0.8-18.2c-0.3-4.5-1.2-9-1.5-13.6c-0.5-8-0.9-16-1.1-23.9
	c-0.1-5.3,0.2-10.7,0.2-16.1c0-3.9-0.1-7.8,0.1-11.7c0.2-4.7,0.6-9.4,2-14c0.6-2,1.5-4.1,2.7-5.8c1.3-2,3-3.7,4.6-5.5
	c1.6-1.9,3.8-2.9,6.2-2.3c4.2,1.1,8.4,2.1,12.1,4.5c2,1.3,3.8,2.9,4.6,5.3c1.2,3.5,2.4,6.9,3.4,10.4c2.5,8,3.1,16.3,3.3,24.6
	c0.1,4.3,0,8.6,0,12.9c0.1,13.3,0.2,26.5,0.3,39.8c0,6.3,0,12.6-0.1,18.9c0,3.4-0.2,6.7-0.3,10.1c-0.2,6.2-0.4,12.5-0.5,18.7
	c-0.2,7-0.2,13.9-0.4,20.9c-0.4,12-1.1,24-1.3,35.9c-0.2,13.3-1.1,26.7-0.1,40c0.7,9.5,1.1,19,1.6,28.5c0.3,5.4,0.5,10.8-0.5,16.2
	c-0.3,1.6-0.2,3.4,0,5c0.4,2.6,2.4,4.5,4.7,4.9c2.2,0.4,4.6-0.9,5.8-3.4c2.6-5.1,4.3-10.3,3.6-16.1c-0.2-1.5-0.3-3-0.3-4.5
	c0-4.2,0.1-8.5,0.1-12.7c-0.1-8.2-0.3-16.5-0.6-24.7c-0.3-7.9-0.6-15.8-1.1-23.7c-0.3-6.4-0.9-12.8-1.3-19.1
	c-0.4-7.7-0.8-15.5-1.1-23.2c-0.4-8.9-0.9-17.9-1-26.8c-0.1-9.5,0.2-19,0.1-28.5c0-4.5-0.4-8.9-0.8-13.4c-0.5-5.3-1.2-10.6-1.6-16
	c-0.3-4.1-0.4-8.1-0.5-12.2c-0.2-5.5-0.5-11-0.3-16.5c0.3-6.1,1.2-12.2,2-18.3c0.3-2.4,0.7-5,2.4-6.9c2.2-2.4,4.5-4.8,7.7-6
	c1.9-0.7,3.7-1.6,5.5-2.4c3.1-1.3,6.2-2.7,9.7-1.9c0.2,0.1,0.5,0,0.7,0c1.3-0.2,2.5,0.2,3.7,0.7c1,0.5,2.1,0.8,3.1,1.4
	c1,0.6,2.2,1.2,2.8,2.1c2,3,3.8,6.2,4.2,9.8c0.4,3.3,0.2,6.7,0.2,10c-0.1,7.7-1.5,15.3-0.9,23c0.4,5.3,0.3,10.7,0.5,16.1
	c0.5,11.3,0.3,22.5-0.6,33.8c-0.7,8.6-1.3,17.2-1.9,25.8c-0.2,3.1-0.3,6.2-0.4,9.3c-0.2,6.8-0.4,13.6-0.6,20.3
	c-0.3,10.7-0.5,21.4-0.8,32.1c-0.2,6.1-0.5,12.1-0.5,18.2c-0.1,8.4,0,16.8,0,25.2c0,3.7,0.2,7.3,0.3,11c0.2,6.5,1.9,13,0.6,19.6
	c-0.2,0.9-0.1,1.9,0,2.9c0.1,4.5,1.4,8.6,3.7,12.5c0.7,1.2,1.9,1.3,3,1.5c0.6,0.1,1.7-0.5,2-1c1.2-2.4,2.6-4.8,2-7.7
	c-0.5-2.3-0.6-4.7-0.5-7.1c0-3.5-0.3-7-0.6-10.5c-0.1-1.7-0.6-3.4-0.9-5.2c-1-6.9-0.6-13.9-0.4-20.8c0.2-5.9,0.5-11.8,0.7-17.7
	c0-0.9-0.1-1.8-0.2-2.6c-0.3-2.8-0.8-5.5-1-8.3c-0.6-7.6-1.2-15.1-1.7-22.7c-0.4-6-0.7-12-0.7-18c0.1-11.5,0.6-23,0.9-34.5
	c0.3-8.8-0.4-17.6,0.2-26.4c0.4-5.6,0.2-11.2,0-16.8c-0.2-8.5-0.7-16.9-0.9-25.4c-0.1-5.7-0.1-11.3,0-17c0.1-5.2,1.4-10.3,3-15.2
	c0.9-3,2-6.2,3.7-8.8c4.1-6.2,10.2-9,17.7-8.7c0.7,0,1.6,0.3,2.1,0.8c1.7,1.8,3.5,3.5,4.9,5.6c1.8,2.8,3.7,5.6,4.5,8.9
	c0.9,3.3,1,6.6,1.6,9.9c1.5,8,1.8,16,1.9,24.1c0.2,10.9,0,21.7,0.1,32.6c0.1,9.2,0.3,18.4,0.7,27.6c0.7,13.7-0.4,27.3-1.4,41
	c-0.9,12-1.8,24.1-2.1,36.1c-0.1,5.7-0.4,11.3-0.6,17c-0.3,7.4-0.9,14.8-0.9,22.3c0,10.1,0.5,20.3,0.7,30.4c0,1.7,0.2,3.4,0,5
	c-0.3,3.3-0.6,6.5,0.5,9.7c0.6,1.7,1,2,2.7,1.5c3.6-1.1,4.7-4.2,5.4-7.3c0.7-3.1,0.8-6.3,1.1-9.5c0.6-7.5,1.2-15,1.9-22.4
	c0.4-4.2,1-8.4,1.4-12.6c0.5-5.4,1-10.8,1.5-16.2c0.8-8.8,1.8-17.6,2.4-26.5c0.5-6.9,0.8-13.9,0.8-20.8c0-11.3,1.1-22.5,2-33.7
	c0.3-3.7,0.6-7.3,0.9-11c0.1-1,0-1.9,0-2.9c-0.1-2.9-0.3-5.7-0.4-8.6c-0.2-4.5-0.4-9.1-0.7-13.6c-0.4-6.4-0.9-12.7-1.2-19.1
	c-0.2-5.8-0.2-11.7-0.2-17.5c0-2.1,0.1-4.2,0.1-6.2c-0.1-4.4-0.1-8.8-0.3-13.2c-0.3-4.6,0.3-9.1,0.9-13.6c0.7-5.8,3-10.9,7.4-14.9
	c3.7-3.3,7.7-4.3,12.4-2.1c2.4,1.2,3.8,3.4,5.6,5.1c0.7,0.7,1.2,1.7,1.4,2.7c1.5,5.7,2.2,11.4,1.4,17.3c-0.3,2.6-0.6,5.2-0.7,7.9
	c-0.4,6.8-0.8,13.6-1.1,20.3c-0.2,4.5-0.6,9.1-0.4,13.7c0.3,8.6,1.1,17.2,1.5,25.8c0.3,5.5,0.2,11,0.3,16.5
	c0.1,6.6,0.3,13.1,0.4,19.7c0,3.2-0.1,6.4-0.1,9.6c0,7,0.1,14.1,0,21.1c-0.1,6.5-0.3,12.9-0.6,19.4c-0.4,6.9-1.2,13.9-0.7,20.8
	c0.1,1.5,0.1,3,0,4.6c-0.2,5.4-0.4,10.9-0.5,16.3c-0.1,5.4-0.2,10.7-0.4,16.1c-0.3,7.3-0.8,14.5-0.9,21.8c-0.1,2.8,0.5,5.6,0.9,8.3
	c0.4,2.4,2.2,4,4.5,4.4c1.5,0.3,3-0.3,3.5-1.5c1.7-4.5,3.2-9.1,2.8-14c-0.5-6-0.7-11.9-0.7-17.9c0-10.4-0.6-20.8-0.9-31.2
	c-0.2-6.9-0.7-13.7-0.8-20.6c-0.1-4.3,0.4-8.6,0.4-12.9c0-5.9-0.3-11.8-0.3-17.7c0-2.5,0.2-5,0.2-7.4c0.1-10.1,0.1-20.1,0.2-30.2
	c0.1-10.2,0.3-20.5,0.2-30.7c0-6.2-0.5-12.3-0.7-18.4c-0.3-8.2,1.3-16.2,1.6-24.4c0.2-5.3,0.7-10.5,1.1-15.8c0.2-2.4,0-4.9,0.7-7.1
	c1.6-4.8,3.9-9.2,7.6-12.9c1.9-1.9,3.9-3,6.8-2.9c2.8,0.1,5.4,0.6,7.9,1.6c3.6,1.4,6.7,3.1,8,7.2c0.8,2.6,1.8,5.1,2.2,7.8
	c1.6,10.7,1,21.5,0.9,32.3c-0.1,6.7-0.6,13.4-0.9,20.1c-0.4,9.4-0.7,18.9-1.2,28.3c-0.2,5.2-0.8,10.4-1,15.6
	c-0.3,6.2-0.3,12.3-0.5,18.5c-0.1,3.1-0.2,6.2-0.4,9.3c-0.2,4.6-0.4,9.3-0.7,13.9c-0.1,2.6-0.5,5.1-0.5,7.7
	c0.2,6.1,0.8,12.3,0.8,18.4c0,8,0.6,16-0.2,24c-0.7,7.6-1,15.3-1.5,23c-0.1,1,0.1,2.1,0.1,3.1c0,1.5,0.1,3-0.1,4.5
	c-0.6,4.7-1.4,9.3-2.1,14c-0.4,2.8-0.4,5.8-1,8.6c-0.7,3-0.9,5.9-0.3,8.8c0.4,1.9,1,3.9,1.8,5.7c0.9,2,2.7,2.9,4.9,3
	c2,0,3-1.5,3.6-3.1c0.9-2,1.6-4.2,2.1-6.3c2-7.9,1.9-16,2.3-24.1c0.2-4.1-0.2-8.1-1.1-12.2c-0.4-1.7-0.5-3.5-0.6-5.2
	c-0.2-3.9-0.5-7.8-0.5-11.7c-0.1-10-0.4-20-0.2-30c0.1-6.2,0.5-12.4,0-18.7c-0.2-2.5-0.6-4.9-0.7-7.4c-0.3-5.4-0.5-10.9-0.7-16.3
	c-0.2-6.3-0.7-12.6-0.5-18.9c0.3-9.5,1-19,1.5-28.5c0.1-1.8,0.4-3.5,0.3-5.3c-0.1-5.1-0.3-10.2-0.6-15.3c-0.2-3.8-0.7-7.6-0.1-11.5
	c0.8-4.7,1.3-9.5,1.8-14.3c0.6-5.5,1.5-10.9,4.8-15.6c0.4-0.5,0.6-1.1,0.8-1.7c0.9-2.5,1.7-5.2,2.8-7.6c2.1-4.7,4.6-9.2,9.7-11.3
	c2.2-0.9,4.6-1.4,6.8-2.2c2.2-0.7,4.4-0.6,6.6-0.1c3.5,0.8,5.5,3.4,5.3,7c-0.1,1.2-0.1,2.4,0.1,3.6c1,7.5,0.3,15,0.2,22.5
	c0,1.4,0,2.7-0.2,4.1c-1.3,8.2-0.9,16.4-0.6,24.6c0.1,2.2,0.3,4.5,0.2,6.7c-0.3,7.3-0.6,14.5-0.9,21.8c0,0.5-0.1,1-0.2,1.4
	c-0.9,6.7-2.1,13.4-2.7,20.2c-0.9,11.1-1.3,22.2-2,33.3c-0.4,6.5-0.9,12.9-1.4,19.4c-0.1,1.4-0.4,2.7-0.5,4c-0.4,5-0.8,10-1.2,15
	c-0.3,4.5-0.8,8.9-1,13.4c-0.2,4.8-0.2,9.6-0.1,14.4c0.1,5.4,0.4,10.9,0.8,16.3c0.4,5.7,0.9,11.3,1.5,17c0.5,4.6,0.8,9.3,3.7,13.3
	c1.3,1.8,2.6,3.4,4.9,3.2c2.3-0.3,3.5-2,4.3-4c0.2-0.6,0.4-1.2,0.5-1.8c0.2-1.8,0.3-3.7,0.3-5.5c0-2-0.3-4-0.3-6
	c0-7.6,0-15.2,0-22.8c0-1.9-0.2-3.8-0.2-5.7c-0.1-4.4,0.1-8.8-0.2-13.2c-0.6-8.5-1.3-17.1-2.4-25.5c-0.9-6.9-0.5-13.9-0.7-20.8
	c-0.1-4.1,0.1-8.3,0.2-12.5c0.1-4.8,0.1-9.6,0.2-14.4c0.1-3.8,0.3-7.5,0.3-11.3c0.1-5.8,0-11.5,0-17.3c0.1-6,0.4-12,0.3-18
	c-0.1-2.5-0.2-5-0.2-7.6c0.1-5.5,0-11-0.1-16.5c-0.1-8.4-0.1-16.8-0.1-25.2c0-3,0-5.9-0.1-8.9c-0.5-12.1-1.2-24.1-1.5-36.2
	c-0.2-9.3,0.1-18.7,0.2-28.1c0-0.3,0-0.6,0-1c0.4-9,1.4-18,0.9-27.1c-0.1-2.3-0.2-4.6-0.2-6.9c0-5.4,0-10.7,0-16.1
	c0-11.3,0-22.5,0-33.8c0-11.4,0.1-22.7,0.2-34.1c0.1-9.7,0.3-19.4,0.5-29c0.2-7.1,0.4-14.2,0.7-21.3c0.3-6,0.7-12,1-17.9
	c0.2-3.4,0.3-6.7,0.5-10.1c0.5-8.2,0.7-16.3,0-24.5c-0.8-10.5-2-21-3-31.5c-0.1-0.9-0.7-1.9-1.2-2.7c-1.6-2.4-4.2-2.7-6.6-2.9
	c-3.3,2.6-4.6,6.1-5.6,9.9c-1.1,4.4-1.6,8.8-1.8,13.3c-0.1,3.7,0,7.4-0.5,11c-0.9,6.9-1.3,13.8-1.2,20.8c0,7,0.2,14.1,0.1,21.1
	c0,3.9-0.3,7.8-0.3,11.7c0,6,0.3,12,0.4,18c0.1,5.1,0.1,10.2,0.2,15.4c0.1,6,0.5,12,1.2,17.9c0.9,7.5,1,15,2.1,22.4
	c1.1,7.4,2,14.9,2.4,22.4c0.3,6.4,1.1,12.7,0.4,19.2c-0.3,2.5-0.5,5.2-0.1,7.6c0.5,3.2,0.5,6.4,0.3,9.5c-0.8,8.6-0.3,17.2,0.2,25.9
	c0.3,5.2,0.6,10.4,0.5,15.6c0,4.1-0.6,8.3-1,12.4c-0.1,0.8-0.2,1.6-0.6,2.3c-1.8,3.4-7.4,5.5-11.1,4.3c-5.2-1.7-8.7-5.3-11.2-10
	c-2.5-4.7-4.7-9.6-7-14.4c-0.2-0.4-0.3-0.7-0.4-1.1c-2.4-7.5-4.5-15.2-5.7-23c-1-6.2-1.8-12.5-2.9-18.7c-0.9-4.8-0.8-9.7-0.8-14.5
	c0-4.9,0.5-9.9,0.1-14.8c-0.4-6.3-1.5-12.5-2.3-18.7c-1-8.5-2.2-17-3-25.5c-0.4-5-0.6-10.1-0.2-15.1c0.5-5.4,2-10.7,3-16
	c1.2-6.1,2.6-12.2,3.4-18.4c1.3-10,2.3-20,3.9-29.9c1.1-6.8,1.8-13.6,2.7-20.4c0.6-4.6,1.2-9.2,1.7-13.8c0.2-1.5,0-3.1,0.3-4.5
	c0.9-3.7,0.5-7.5,0.3-11.2c-0.2-3.3-0.6-6.5-2.1-9.5c-0.9-1.9-2.4-2.3-4-0.9c-0.5,0.5-1,1-1.4,1.6c-2.4,3.8-3.8,8-4.2,12.6
	c-0.5,5.3-1.1,10.7-1.9,15.9c-1.3,8.1-3,16.2-3.6,24.4c-0.5,6.2-0.8,12.4-1.1,18.7c-0.2,7.1-0.3,14.2-2,21.2
	c-0.1,0.5-0.1,1.1-0.2,1.7c-0.9,5.5-1.6,11.1-2.8,16.5c-0.7,3.2-1.3,6.4-1.3,9.7c0,1.9,0,3.9-0.3,5.7c-1,6.1-1.8,12.2-2.2,18.3
	c-0.3,5.3-1.3,10.5-1.7,15.7c-0.8,10.3-1.3,20.6-2.1,30.8c-0.4,5.7-1.1,11.5-1.5,17.2c-1.1,14.3-2.4,28.5-5.7,42.5
	c-1.3,5.4-3,10.5-6.7,14.9c-3.3,4-7.2,5.8-12.1,5.3c-5-0.5-8.5-3.2-10.3-8c-1-2.7-2.1-5.4-3.1-8.1c-0.9-2.3-1.6-4.7-1.3-7.2
	c0.4-3.9,0.7-7.8,1-11.7c0.5-5.9,0.8-11.8,1.3-17.7c0.4-4.5,0.8-9.1,1.6-13.5c1.4-7.4,3.3-14.8,4.9-22.2c0.7-3.3,1.6-6.5,2-9.9
	c1-9.5,3-18.8,4.6-28.1c0.5-2.7,0.9-5.3,1.4-8c0.2-1.2,0.7-2.5,0.9-3.7c0.5-2.7,0.7-5.4,1.2-8c0.4-2.3,1.1-4.5,1.5-6.8
	c1-5.8,1.7-11.7,2.8-17.5c1.9-9.7,3.9-19.3,5.9-28.9c1.6-7.7,3.3-15.3,4.9-23c0.7-3.6,1.2-7.2,1.9-10.9c0.6-3.3,1.4-6.6,2-9.9
	c0.6-3.1,2-6.1,1.7-9.4c-0.2-3-0.2-6.1-0.7-9.1c-0.4-2.2-1.1-4.4-2.1-6.3c-1.7-3.1-5.2-4.1-8.5-3.1c-2.8,0.9-4.4,2.8-5.4,5.4
	c-1.6,4.3-1.9,8.7-1.2,13.2c0.2,1.4,0.7,2.9,0.5,4.3c-0.6,7-1.3,14-2,21c-0.6,5.6-1.3,11.1-1.9,16.7c-0.4,3.3-0.4,6.7-0.9,10
	c-1,6.3-1.8,12.7-1.7,19.1c0,5-0.2,9.9-0.9,14.8c-1.7,11.5-3.3,22.9-4.8,34.4c-1.4,10.7-2.5,21.4-3.6,32.1c-0.4,4-1,8.1-1.2,12.2
	c-0.3,6.5-1,12.9-2.6,19.2c-1.3,5-2.4,9.9-2.9,15c-0.9,9.3-1.7,18.6-1.7,28c0,1.5-0.1,3.1-0.4,4.5c-0.9,3.8-1.5,7.7-3.2,11.3
	c-1.8,3.9-4.1,7.4-8.2,9.2c-2.8,1.2-5.6,1.7-8.2-0.3c-1.7-1.4-3.4-3-4.5-4.9c-3.9-6.2-5.2-13.2-5.1-20.4c0-3.8,0.5-7.7,1.1-11.4
	c1.2-7.2,1.8-14.4,2.2-21.7c0.3-5.3,1-10.5,1.7-15.7c0.6-4.4,1.3-8.7,2-13c0.6-3.6,1.1-7.3,1.8-10.9c1.6-9,3.3-18.1,4.9-27.1
	c1.6-9.1,3.1-18.3,4.7-27.4c1.1-6.1,2.5-12.2,3.4-18.4c1.2-8.4,2.2-16.8,3.1-25.2c1.5-13.9,2.9-27.8,4.3-41.7
	c0.5-4.8,1.1-9.5,1.5-14.3c0.5-5.4,0.4-10.9-1.1-16.2c-0.4-1.4-1.1-2.9-2.1-4c-2.6-3.2-6.9-2.4-8.5,1.4c-0.4,1-0.8,2-0.8,3
	c-0.2,2.9-0.5,5.8-0.2,8.6c0.4,4.6,0.7,9-0.3,13.6c-0.9,4.3-1.8,8.6-2.3,13c-1.2,10.7-2.1,21.5-3.1,32.2c-0.5,5.6-0.8,11.2-1.2,16.7
	c-0.2,3.2-0.6,6.4-0.7,9.5c-0.2,7.3-1.5,14.6-1.3,22c0.1,3.9-0.5,7.8-0.7,11.7c-0.5,6.7-0.7,13.4-1.4,20.1
	c-1.3,11.9-2.9,23.8-4.5,35.7c-0.3,2.4-0.8,4.7-0.9,7.1c-0.5,6.6-0.8,13.2-1.4,19.8c-0.4,4-0.4,8.1-1.2,12.1
	c-1,5.3-1.5,10.6-2.4,15.9c-0.5,3-1.4,5.9-2.3,8.7c-1.4,4.6-4.6,8-7.8,11.3c-1.7,1.7-3.9,2.5-6.4,2.1c-1.7-0.3-3.5-0.5-5.2-0.8
	c-2.6-0.4-4.9-1.2-6.5-3.6c-0.5-0.8-1.4-1.3-1.9-2.1c-1-1.4-2-2.9-2.7-4.4c-0.7-1.6-0.9-3.4-1.5-5c-1.2-2.9-1.6-5.8-1.9-8.9
	c-0.4-5.4,0.1-10.7,0.9-16c1-7.5,2.4-15,3.5-22.5c1-7,2.4-14,2.7-21.1c0.4-7.8,1.5-15.6,2.4-23.3c0.7-6.5,1.5-13,2.2-19.5
	c1-9.3,1.3-18.6,2.8-27.9c1.5-8.9,2.7-17.9,4.2-26.7c1.3-7.6,3.4-15.1,3.8-22.9c0.3-5.4,1-10.8,1.5-16.2c0.7-8.2,1.4-16.4,1.9-24.6
	c0.2-3.6,1.1-7.1,0.5-10.7c-0.3-1.6-0.1-3.4-0.4-5c-0.5-3.6-2.2-6.7-4.1-9.6c-1.3-2-3.9-2.6-5.9-1.3c-1.1,0.7-2.2,1.6-3,2.7
	c-2.3,2.8-4.4,5.7-4.9,9.4c-0.1,0.6-0.4,1.2-0.6,1.8c-1.3,3.6-2.1,7.4-2.5,11.2c-0.8,6.4-0.8,12.9-0.8,19.4c0,3.8,0.2,7.7-0.7,11.4
	c-0.8,3.2-0.7,6.5-0.3,9.8c0.1,0.6,0.1,1.3,0,1.9c-0.3,4.6-0.6,9.2-0.9,13.8c-0.4,8.1-0.8,16.1-1.3,24.2c-0.5,9.6-1.4,19.1-1.4,28.7
	c0,5.1-0.6,10.2-0.7,15.3c-0.1,7.3,0,14.5,0,21.8c0,2.2-0.1,4.5-0.2,6.7c-0.2,5.5-0.2,11-0.6,16.5c-0.6,8.5-1.5,17-2.3,25.5
	c-0.2,2.1-0.4,4.3-0.6,6.4c-0.2,1.8-0.4,3.7-0.4,5.5c0,11,0.5,22.1-2,32.9c-0.5,2.3-1.6,4-3.8,4.8c-1.6,0.6-3.2,1.1-4.8,1.3
	c-6.8,0.9-13-1.1-18.7-4.6c-1.4-0.8-2.7-1.7-4.1-2.4c-4.3-2.2-7.2-5.5-8.1-10.4c-0.2-1.2-0.5-2.4-0.6-3.5c-0.9-6.3-1.6-12.7-2.8-19
	c-2.2-11.3-1.3-22.6-1.4-33.9c-0.1-6.5,0.8-12.9,0.9-19.4c0.3-15.2,1.5-30.3,2.5-45.5c0.6-8.8,1.8-17.5,2.6-26.2c0.7-7,1.4-14,2-21
	c0.5-6.4,0.9-12.7,1.3-19.1c0.5-8.9,1.1-17.7,1.5-26.6c0.2-4.3,0.3-8.7-0.1-12.9c-0.7-6.4-1.1-12.9-1.2-19.3c0-3.2-1.2-5.9-2.8-8.5
	c-0.9-1.5-2.3-2.4-4.1-2.6c-3.4-0.3-5.9,1.5-6.5,5c-0.5,2.7-0.7,5.4-0.8,8.1c-0.1,3.9,0.1,7.8-0.1,11.7c-0.4,7-1.1,14-1.7,21
	c-0.5,5.6-1.2,11.1-1.6,16.7c-0.5,7.4-0.7,14.8-0.9,22.3c-0.3,9-0.7,18-1,27.1c-0.2,6.4-0.4,12.8-0.8,19.1c-0.5,7.3-1.2,14.6-1.7,22
	c-0.2,2.5-0.2,5.1-0.2,7.7c0.1,8.8,0.3,17.6,0.3,26.4c0,4.3-0.4,8.6-0.4,12.9c0,4.6,0.3,9.3,0.3,13.9c0,7.5-0.2,15-0.4,22.5
	c-0.2,6.1-0.7,12.1-1.2,18.2c-0.2,2.3-0.4,4.8-1.4,6.8c-2.6,5.2-6.7,9.1-12.3,11.2c-4.3,1.6-11.6-1.2-12.9-6
	c-0.8-2.8-1.4-5.6-1.6-8.4c-0.5-5.9-0.7-11.8-0.9-17.7c-0.3-7-0.7-14.1-0.7-21.1c0.1-15.5,0.5-31,0.7-46.5c0.1-3.2,0-6.4,0.4-9.6
	c0.9-7.8,1.9-15.7,3-23.5c0.9-6.6,2-13.1,3.1-19.7c0.4-2.3,0.6-4.6,1.2-6.8c1.2-4.4,1.6-8.8,1.2-13.3c-0.1-0.8-0.2-1.6-0.2-2.4
	c0.1-5,0.3-10.1,0.3-15.1c0-10.3-0.1-20.6-0.2-30.9c0-1.3-0.1-2.6,0-3.8c0.2-5.4,0.4-10.7-0.2-16c-0.7-6.4-1.9-12.8-2.1-19.3
	c-0.1-3.8-1-7.6-3-10.9c-0.9-1.5-2.1-2.3-3.7-2.8c-2.6-0.7-4.2,0.1-4.7,2.7c-0.4,2-0.8,3.9-0.9,5.9c-0.3,4.2-0.3,8.5-0.5,12.7
	c-0.3,6.2-0.6,12.5-0.9,18.7c-0.2,3.9-0.5,7.8-0.4,11.7c0.1,8.4,0.3,16.8,0.4,25.2c0,2.7-0.1,5.4-0.1,8.1
	c-0.1,6.2-0.2,12.5-0.3,18.7c-0.1,6.6-0.4,13.1-0.5,19.7c-0.1,8.2,0.1,16.3,0,24.5c0,5,0,9.9,0.7,14.8c0.5,3.2,0.9,6.3,1.2,9.5
	c0.4,5,0.6,10,1,15.1c0.3,4.1,0.9,8.1,0.9,12.2c0.1,13.8,0.1,27.7,0.1,41.5c0,9.4-0.2,18.7,0,28.1c0.2,5.8-1.8,10.8-4,15.9
	c-1.2,2.8-3.2,5.1-6.3,5.8c-1.8,0.4-3.8,0.3-5.7,0.2c-2-0.1-3.6-1.1-4.9-2.6c-2.6-3.1-4.9-6.3-6.5-10.1c-1.2-3-2.6-6-2.8-9.4
	c-0.2-3.5-0.4-7-0.6-10.5c-0.1-1.8-0.2-3.7-0.3-5.5c-0.4-5.2-0.8-10.4-1.1-15.5c-0.2-3-0.1-6.1-0.4-9.1c-0.6-6.9-1.4-13.8-1.1-20.8
	c0.1-2.1,0-4.2,0-6.2c-0.2-10.9-0.4-21.7-0.6-32.6c-0.2-10.9,0.3-21.7,1-32.6c0.5-7.2,0.7-14.4,1.3-21.5c0.7-8.3,1.7-16.5,2.4-24.8
	c0.8-9,1.3-18,1.9-27c0.3-4.7,0.5-9.4,0.8-14.1c0.4-6,0.9-11.9,1.3-17.9c0.3-3.7,0.6-7.5,0.8-11.2c0.1-2.7,0.1-5.4,0.1-8.2
	c0-1.7-1-2.9-2.2-3.1c-1.2-0.2-2.4,0.6-2.9,2.3c-0.6,1.8-0.9,3.7-1.1,5.6c-0.5,3.2-0.7,6.4-1.2,9.5c-0.7,4.2-1.6,8.3-2.5,12.5
	c-1.1,5-2.4,9.9-3.2,15c-0.9,5.3-1.5,10.6-2,15.9c-0.7,7.2-1,14.4-1.7,21.5c-0.5,5.2-1.2,10.5-1.9,15.7c-1,6.8-1.6,13.6-2.1,20.5
	c-0.8,10.8-2.1,21.6-3,32.5c-0.2,2.7-0.4,5.4-0.3,8.1c0.1,2.9,0.5,5.7,0.8,8.6c0.5,5.3,1,10.7,1.3,16c0.4,6.8,0.6,13.7,1,20.6
	c0.3,5.2,0.7,10.4,1,15.6c0.4,7.9,0.8,15.8,1.3,23.7c0.4,5-1.5,9.3-4,13.3c-2.4,3.9-6.6,5.5-11,6c-3.4,0.4-6.9,0.3-10.3,0.3
	c-0.7,0-1.5-0.2-2-0.6c-2.4-1.7-4.8-3.6-6.2-6.2c-1.8-3.4-3.6-7-4.8-10.7c-1.4-4.2-2.5-8.6-3.4-13c-0.5-2.4-0.8-4.8-0.4-7.3
	c0.8-5.2,1.3-10.4,0.9-15.8c-0.5-6.7-0.9-13.4-1-20.1c-0.2-9.3,0.1-18.7-0.1-28.1c-0.1-10.4-0.5-20.8-0.8-31.2
	c-0.1-4.3-0.2-8.6-0.1-12.9c0-2.6,0.4-5.3,0.6-7.9c0.7-7.3,1.2-14.6,2.1-22c0.9-7.6,1-15.3,1-23c0-5.5-0.2-11,0-16.5
	c0.2-6.3,0.8-12.6,1.1-18.9c0.3-8.4,0.4-16.8,0.7-25.2c0.4-8.6,1.1-17.2,1.6-25.8c0.1-1.4-0.1-2.9-0.2-4.3C11.5,0,5.8,0,0,0
	c0,204,0,408,0,612c14.1,0,28.2,0,42.2,0c-0.1-1.5-0.3-3-0.4-4.5C41.3,598.9,40.9,590.3,40.3,581.7z"/>
</svg>
