<?xml version="1.0" encoding="utf-8"?>
<!-- Generator: Adobe Illustrator 22.1.0, SVG Export Plug-In . SVG Version: 6.00 Build 0)  -->
<svg version="1.1" id="Layer_1" xmlns="http://www.w3.org/2000/svg" xmlns:xlink="http://www.w3.org/1999/xlink" x="0px" y="0px"
	 viewBox="0 0 792 612" style="enable-background:new 0 0 792 612;" xml:space="preserve" preserveAspectRatio="none" >
<style type="text/css">
	.st0{fill:#FFFFFF;}
	.st1{fill:#4FFE36;}
	.st2{fill:#FE5864;}
</style>
<path class="st0" d="M79.3-273.8c0.1-0.1,0.1-0.2,0.2-0.2c0.3,0,0.6,0,0.8,0.1c0,0,0,0.1,0,0.1c-0.3,0-0.6,0.1-0.8,0.1
	C79.4-273.6,79.3-273.7,79.3-273.8z"/>
<rect class="st1" width="792" height="612"/>
<path class="st2" d="M-0.2,17c0.5,0,1,0,1.4-0.2c0.8-0.2,1.6-0.2,2.4-0.1c4.6,0.7,9.2,1.4,13.8,2c1.7,0.2,3.5,0.3,5.3,0.3
	c7.2,0.2,14.4,0.6,21.6,1.1c3.8,0.3,7.7,0.3,11.5,0.3c8.2,0.2,16.5,0.3,24.7,0.5c6.3,0.1,12.6,0.2,18.9,0.4
	c8.9,0.3,17.7,0.4,26.6,0.4c3.2,0,6.4,0.3,9.6,0.4c7,0.2,14.1,0.2,21.1,0.5c13,0.6,26.1,0.2,39.1,0.5c11.4,0.3,22.7,0.2,34,0.2
	c5.7,0,11.3,0.1,17,0.2c1.6,0,3.2,0.3,4.8,0.3c5.4,0.1,10.9,0.2,16.3,0.3c3.6,0.1,7.2,0.2,10.8,0.4c3.3,0.2,6.7,0.5,10,0.7
	c0.8,0.1,1.6,0,2.4,0.1c4.2,0.1,8.3,0.1,12.5,0.2c3.4,0.1,6.7,0.5,10,0.7c1.3,0.1,2.6,0.1,3.8,0.2c6.1,0.3,12.3,0.6,18.4,1
	c4.6,0.3,9.2,0.8,13.9,1.2c4.3,0.4,8.6,0.8,12.9,1.2c4.3,0.4,8.6,0.8,12.9,1.2c1.2,0.1,2.1,0.5,2.9,1.5c0.3,0.4,0.8,0.8,1.2,1.2
	c1.3,1.4,2.5,2.9,3.1,4.8c0.4,1.3,0.9,2.6,1.5,3.8c1.4,2.7,1.3,5.3,0.3,8.1c-0.9,2.4-2.2,4.6-3.8,6.6c-1.1,1.4-2.5,2-4.1,2.2
	c-1.3,0.1-2.6,0.1-3.8,0.1c-2.8-0.1-5.6-0.2-8.4-0.3c-4.1-0.2-8.1-0.5-12.2-0.7c-2.2-0.1-4.5-0.3-6.7-0.2c-2,0.1-4,0.5-5.9,0.8
	c-3.5,0.6-6.9,1.2-10.4,1.8c-1,0.2-2.1,0.2-3.1,0.3c-3.6,0.2-7.2,0.4-10.8,0.6c-3.3,0.2-6.7,0.5-10,0.7c-0.9,0.1-1.8,0-2.6,0.1
	c-4.6,0.2-9.1,0.4-13.7,0.6c-5.1,0.2-10.2,0.5-15.3,0.7c-1,0-2.1,0.1-3.1,0.2c-4.4,0.3-8.8,0.7-13.1,1c-4.9,0.3-9.9,0.8-14.8,1.3
	c-2.4,0.2-4.8,0.2-7.2,0.2c-8.2,0-16.5,0-24.7-0.1c-5.8-0.1-11.5,0.1-17.2,0.2c-2.4,0.1-4.8,0-7.2,0.1c-6.3,0.4-12.6,0.2-18.9,0.4
	c-5.6,0.2-11.2,0.1-16.8,0.4c-1.2,0.1-2.4,0.2-3.6,0.3c-5,0.2-10.1,0.3-15.1,0.7c-4.2,0.3-8.5,0.3-12.7,0.5
	c-5,0.2-10.1,0.2-15.1,0.5c-4.6,0.2-9.3,0.3-13.9,0.4c-3,0.1-6.1,0.3-9.1,0.4c-1,0-1.9,0-2.9,0.1c-1,0-1.9,0-2.9,0.1
	c-0.8,0-1.6,0-2.4,0c-0.9,0-1.8-0.1-2.6-0.1c-2,0.1-4,0.3-6,0.5c-1.8,0.2-3.5,0.7-4.9,1.8c-0.4,0.3-0.6,0.7-1,1
	c0.1,0.5,0.3,1,0.3,1.4c0.2,1.3,0.9,2.2,1.9,3c2.1,1.6,4.5,2.1,7,1.7c2.5-0.5,5.1-0.6,7.6-0.8c3.4-0.2,6.9-0.4,10.3-0.6
	c0.7,0,1.5-0.1,2.1-0.3c1.1-0.5,2.3-0.6,3.5-0.6c2.1,0.1,4.1,0.2,6.2,0.3c0.6,0,1.1,0.1,1.7,0.1c3.6,0.1,7.2,0.1,10.8,0.2
	c5.3,0.2,10.7,0.5,16,0.7c1.4,0.1,2.7,0.1,4.1,0.2c7.3,0.5,14.7,0.5,22.1,0.6c6.4,0.1,12.8,0.5,19.2,0.7c5,0.1,9.9,0.2,14.9,0.2
	c3.3,0.1,6.6,0.1,9.8,0.2c2.2,0,4.5,0,6.7,0c3.7,0,7.5,0.1,11.2,0.1c1.6,0,3.2,0,4.8-0.1c4.7-0.1,9.4-0.2,14.1-0.4
	c7.3-0.3,14.7-0.6,22-0.9c5.7-0.3,11.3-0.7,17-1c2.7-0.2,5.4-0.3,8.1-0.5c3.2-0.2,6.4-0.5,9.6-0.7c2.6-0.1,5.3-0.2,7.9-0.2
	c5.5-0.2,11-0.2,16.5-0.5c4.8-0.2,9.6-0.8,14.3-1.1c1.3-0.1,2.6-0.1,3.8-0.2c5.4-0.5,10.9-0.5,16.3-0.6c5.8-0.1,11.5,0.3,17.2,0.7
	c4.3,0.4,8.6,0.9,12.7,2.1c1.6,0.4,2.7,1.2,3.5,2.6c0.8,1.3,1.7,2.5,2.6,3.7c0.7,0.9,0.8,1.9,0.7,2.9c-0.2,1.9-0.8,3.5-2,5
	c-0.8,1-1.4,2.3-2.1,3.5c-0.5,0.9-1.1,1.5-2,2.1c-3.2,1.9-6.4,3.9-9.7,5.7c-1.4,0.8-2.9,1.3-4.4,1.8c-4.7,1.7-9.6,3.1-14.5,3.8
	c-2.4,0.3-4.8,0.5-7.1,0.7c-3.4,0.3-6.8,0.7-10.2,1.1c-0.5,0.1-0.9,0.2-1.4,0.2c-4,0.3-8,0.6-12,0.8c-3,0.2-5.9,0.2-8.9,0.3
	c-5.7,0.2-11.3,0.6-17,0.7c-4.1,0-8.1,0.4-12.2,0.3c-2.4-0.1-4.8,0.2-7.2,0.2c-1,0-2.1,0-3.1-0.1c-2.8,0-5.6,0-8.4,0
	c-2.6,0-5.3,0.1-7.9,0c-5.3-0.1-10.5-0.2-15.8-0.4c-5.9-0.3-11.8-0.2-17.7-0.6c-5.8-0.3-11.7-0.3-17.5-0.4c-5.5-0.1-11-0.3-16.5-0.4
	c-5.6-0.1-11.2,0-16.8-0.1c-5.2,0-10.4,0-15.6-0.1c-5.2-0.1-10.4-0.5-15.5-0.6c-6.1-0.2-12.3-0.3-18.5-0.3c-5.8,0-11.5,0.3-17.3,0.4
	c-2,0-4-0.2-6-0.2c-2.5-0.1-4.9-0.1-7.4-0.2c-1.8-0.1-3.7-0.2-5.5-0.3c-4.6-0.2-9.3-0.5-13.9-0.8c-1.9-0.1-3.8-0.3-5.7-0.3
	c-1.8-0.1-3.7,0-5.5,0c-2.9,0-5.8-0.2-8.6-0.1c-3.9,0.1-7.8,0-11.7,0.5c-1.6,0.2-3.1,0.8-4.4,1.7c-1.9,1.3-2.6,3.7-1.7,5.7
	c0.5,1.1,1.2,1.9,2.4,2.2c0.8,0.2,1.6,0.4,2.3,0.5c3.5,0.6,7.1,1.2,10.6,1.8c3.6,0.5,7.1,1,10.7,1.5c0.9,0.1,1.7,0.3,2.6,0.4
	c6,0.7,12.1,1.4,18.1,2c5.1,0.5,10.2,0.8,15.3,1.2c5.7,0.5,11.5,1,17.2,1.4c5.3,0.4,10.5,0.6,15.8,1c2.5,0.2,4.9,0.5,7.4,0.6
	c2.7,0.2,5.4,0.4,8.1,0.5c0.4,0,0.9,0,1.1-0.2c0.8-0.7,1.8-0.6,2.7-0.6c4.7,0.1,9.4,0.2,14.1,0.2c5.4,0,10.7,0,16.1-0.1
	c4.1-0.1,8.1-0.2,12.2-0.4c3-0.1,5.9-0.3,8.9-0.4c1.4-0.1,2.7,0,4.1-0.1c6.7-0.2,13.4-0.4,20.1-0.7c3.2-0.1,6.4,0,9.6,0
	c1.3,0,2.7-0.1,4.1-0.1c1.7,0,3.4,0.1,5,0.1c1.4,0,2.9-0.1,4.3-0.1c0.6,0,1.3,0,1.9,0c4.2,0,8.3,0,12.5,0c4.6,0,9.1,0,13.7-0.2
	c4-0.2,8-0.3,12-0.4c3.2-0.1,6.4,0,9.6,0.1c6.8,0.2,13.6,0.6,20.4,0.7c4.3,0.1,8.6-0.2,12.9-0.3c4.2-0.1,8.5-0.2,12.7,0.3
	c0.3,0,0.6,0.1,1,0.1c3.7,0.2,7.3,0.4,11,0.7c4.5,0.4,9.1,0.8,13.6,1.2c0.1,0,0.2,0,0.2,0c4-0.1,7,1.9,9.9,4.2
	c0.2,0.2,0.4,0.3,0.6,0.5c2.6,1.6,3.2,4.1,3.3,6.8c0,1.4-0.1,2.7,0,4.1c0.1,2.1-1,3.3-2.7,4.1c-3.3,1.6-6.7,3-10.1,4.4
	c-3.4,1.5-6.8,2.9-10.1,4.4c-4.3,2-8.8,2.9-13.4,3.5c-1,0.1-2.1,0.1-3.1,0.1c-0.4,0-0.8,0-1.2,0c-6.4,0.3-12.8,0.7-19.1,1
	c-3.4,0.2-6.8,0.5-10.2,1.2c-1.5,0.3-3,0.4-4.5,0.5c-3.2,0.3-6.4,0.6-9.5,0.8c-6.6,0.6-13.3,0.2-19.9,0.3c-2.9,0-5.8,0-8.6,0
	c-3.6,0-7.2,0.1-10.8-0.2c-7.4-0.5-14.9-0.1-22.3-0.3c-3.4-0.1-6.7,0-10.1,0c-5.8,0-11.5,0-17.3,0c-6.1,0.1-12.3,0.2-18.4,0.3
	c-1,0-2.1-0.2-3.1-0.2c-4.7-0.1-9.4-0.2-14.1-0.3c-2.7,0-5.4,0.1-8.1,0.1c-3.9,0-7.8-0.2-11.7-0.3c-2.2-0.1-4.5,0.2-6.7,0
	c-0.5,0-1,0-1.4,0c-2.7-0.3-5.4-0.6-8.1-0.9c-0.9-0.1-1.7-0.1-2.6-0.1c-0.4,0-0.8,0-1.2-0.1c-4.1-0.6-8.1-0.2-12.2,0.3
	c-0.5,0.1-1.1,0.1-1.7,0.1c-2.7-0.1-5.4-0.5-8.1-0.8c-2.8-0.4-5.7-0.5-8.6-0.8c-6.2-0.5-12.4-1.1-18.6-1.5
	c-3.6-0.2-7.2-0.6-10.8-0.3c-1.6,0.1-3.2,0.2-4.8,0.1c-4.8,0-9.5,0.8-14.2,1.8c-2,0.4-4.1,0.7-6.1,1c-1.3,0.2-2.7,0.4-4,0.7
	c-0.3,0.1-0.6,0.3-0.8,0.4c0.1,0.2,0.1,0.4,0.2,0.5c3.1,2.4,6.1,4.7,9.9,6.2c5.6,2.2,11.4,3.7,17.2,5c3.5,0.8,7.1,1.1,10.6,1.6
	c2.7,0.4,5.4,0.6,8.1,0.9c0.6,0.1,1.1,0.1,1.7,0.1c4.5,0.1,8.9,0.2,13.4,0.3c2.6,0,5.3-0.2,7.9-0.2c2.6,0,5.1,0.1,7.7,0.2
	c4.7,0.3,9.4,0.6,14.1,0.6c5.2,0,10.4,0.2,15.6,0.3c3.9,0.1,7.8,0.1,11.7,0.2c3.9,0.1,7.8,0.2,11.7,0.3c2,0,4-0.1,6,0
	c5.9,0.1,11.8,0.2,17.7,0.3c2,0,4,0.1,6,0.2c4.4,0.2,8.8,0.4,13.2,0.6c5.2,0.2,10.4,0.3,15.6,0.6c5.3,0.4,10.7,0.5,16.1,0.5
	c9,0,17.9-0.1,26.9-0.3c5.2-0.1,10.4-0.4,15.6-0.7c2.3-0.1,4.6-0.1,6.9-0.3c9.7-0.6,19.3-0.5,29-0.5c3.3,0,6.6,0.2,9.8,0.1
	c7.9-0.1,15.8-0.6,23.7-0.4c2,0,4,0,6,0.3c1.9,0.3,3.8,0.4,5.7,0.4c3.5,0,6.8,0.6,10.1,1.6c3.4,1,6.3,3,9.4,4.7
	c1.4,0.7,1.6,1.6,0.7,3c-1.1,1.6-2.3,3.1-3.5,4.5c-0.8,1-1.9,1.6-3.1,2.1c-1.9,0.7-3.6,1.6-5.5,2.4c-2.7,1.2-5.4,2.3-8.2,3.4
	c-2.5,0.9-5.2,1.1-7.8,1.2c-5.8,0.3-11.7,0.5-17.5,0.6c-2.5,0.1-5.1,0-7.6,0c-3.4,0-6.9,0-10.3,0.2c-4.7,0.2-9.4,0.4-14.1,0.4
	c-3.8,0.1-7.7,0.3-11.5,0.4c-3.4,0.1-6.7,0.1-10.1,0.2c-2.5,0-4.9,0.1-7.4,0.1c-1.9,0-3.8,0-5.7,0c-1.1,0-2.2,0.2-3.3,0.2
	c-3.7-0.1-7.3-0.2-11-0.3c-5.8-0.2-11.5-0.2-17.3-0.6c-4.7-0.3-9.4-0.2-14.1-0.5c-6.5-0.4-13.1-0.4-19.6-0.5
	c-9.5-0.1-19-0.3-28.5-0.4c-5.5-0.1-11,0-16.5,0c-2.6,0-5.3-0.2-7.9-0.2c-10.5-0.1-20.9-0.1-31.4-0.2c-4.7,0-9.4-0.1-14.1,0
	c-5.4,0.1-10.9,0-16.3-0.1c-4.5,0-9.1,0-13.6-0.1c-3-0.1-6.1-0.3-9.1-0.5c-4-0.3-7.9-0.9-11.9-1.1c-4.9-0.3-9.7-0.5-14.6-0.5
	c-2.5,0-5.1,0.4-7.6,0.7c-0.3,0-0.8,0.4-0.8,0.7c-0.1,0.3,0.1,0.9,0.3,1c1.5,1.1,3.1,2,4.9,2.4c3.8,0.8,7.5,1.4,11.4,1.6
	c3.3,0.2,6.5,0.6,9.8,1c3.3,0.3,6.5,0.7,9.8,0.9c4.7,0.4,9.4,0.6,14.1,1c6.4,0.5,12.8,0.7,19.1,0.7c16.8,0,33.6,0,50.4,0
	c1.4,0,2.7,0.1,4.1,0.1c4.6,0,9.3-0.1,13.9-0.4c2.8-0.2,5.6-0.1,8.4-0.2c2.9,0,5.8,0,8.6-0.1c3-0.1,6.1-0.2,9.1-0.4
	c0.5,0,1-0.1,1.4-0.1c5-0.1,10.1-0.3,15.1-0.4c3.1,0,6.2,0.1,9.3,0.2c0.5,0,1,0,1.4,0c1.7,0,3.3,0.1,5,0.1c1.5,0,3-0.2,4.5-0.2
	c4.3-0.2,8.6-0.3,12.9-0.5c4.9-0.2,9.9-0.3,14.8-0.5c5.6-0.2,11.2-0.4,16.8-0.6c2.2-0.1,4.3-0.3,6.5-0.3c9.3,0.1,18.5,0.2,27.8,0.3
	c4.7,0.1,9.4,0.1,14.1,0.2c2.9,0.1,5.7,0.4,8.6,0.7c1.9,0.2,3.8,0.3,5.7,0.5c5.3,0.6,10.6,1.3,15.9,1.9c2.4,0.3,4.8,0.5,7.2,0.7
	c2.8,0.3,5.3,1.5,7,3.7c2.4,3,3.6,6.4,3.2,10.3c-0.1,1.7-0.8,3.2-1.8,4.6c-2.2,3.2-5,5.9-8.6,7.4c-2,0.9-4.1,1.7-6.2,2.5
	c-1.1,0.4-2.2,0.4-3.3,0.4c-3.7-0.1-7.3-0.8-11-0.4c-4.3,0.4-8.6,0.4-12.9,0.8c-6.1,0.6-12.1,0.6-18.2,0.9c-2.5,0.1-4.9,0.3-7.4,0.6
	c-2,0.2-4,0.3-6,0.1c-5-0.5-10-0.9-15-1.3c-4.9-0.4-9.9-0.9-14.8-1.3c-3.2-0.3-6.4-0.4-9.6-0.7c-3.3-0.2-6.5-0.5-9.8-0.7
	c-0.2,0-0.5,0-0.7,0c-7.7-0.3-15.5-1.1-23.2-1.8c-3.4-0.3-6.8-0.7-10.2-1c-0.8-0.1-1.6,0-2.4-0.1c-5.2-0.2-10.4-0.5-15.6-0.6
	c-6.9,0-13.7-0.1-20.6-0.2c-7.1-0.1-14.2-0.3-21.3-0.5c-4.4-0.1-8.8-0.5-13.2-0.7c-3.8-0.2-7.7-0.4-11.5-0.6
	c-2.2-0.1-4.3-0.3-6.5-0.4c-4.4-0.2-8.8-0.5-13.2-0.7c-6.5-0.3-13.1-0.5-19.6-0.8c-2.8-0.1-5.6-0.3-8.4-0.4
	c-5.4-0.2-10.9-0.3-16.3-0.6c-4.4-0.2-8.8,0-13.2,0.2c-4,0.2-8,0.4-11.9,0.9c-0.6,0.1-1.2,0.3-1.9,0.4c-2.9,0.7-5.7,1.4-8.6,2
	c-2.2,0.4-3.7,1.7-5.1,3.4c0.2,0.2,0.3,0.4,0.5,0.5c2.2,1.1,4.4,2.4,6.7,3.3c1.3,0.5,2.8,0.6,4.2,0.6c7.7,0.2,15.3,0.3,23,0.4
	c7.3,0.1,14.5,0.3,21.8,0.5c6.9,0.2,13.7,0.4,20.6,0.6c6.2,0.2,12.3,0.3,18.5,0.5c3.4,0.1,6.9,0.4,10.3,0.6c1.9,0.1,3.8,0.2,5.7,0.3
	c2.4,0.1,4.8,0.3,7.2,0.4c2.9,0.1,5.7,0.3,8.6,0.4c4.6,0.1,9.1,0.2,13.7,0.3c4.7,0.1,9.4,0.2,14.1,0.4c6.6,0.4,13.2,0.4,19.9,0.5
	c3.8,0.1,7.7,0.3,11.5,0.4c5,0.2,9.9,0.3,14.9,0.5c4.2,0.2,8.5,0.3,12.7,0.6c4.3,0.2,8.6,0.5,12.9,0.7c4.1,0.2,8.3,0.4,12.4,0.6
	c4.3,0.2,8.6,0.5,12.9,0.7c2.4,0.1,4.8,0.2,7.2,0.3c1.7,0.1,3.4,0.2,5,0.3c1.3,0.1,2.6,0.1,3.8,0.1c3.4,0,6.7,0,10.1-0.1
	c5.8-0.1,11.5-0.3,17.3-0.4c0.1,0,0.2,0,0.2,0c6.6-0.2,13.3-0.3,19.9-0.5c2.4-0.1,4.8-0.2,7.2-0.2c6.3-0.1,12.6-0.1,18.9-0.1
	c0.9,0,1.8,0.1,2.5,0.6c1.3,0.7,2.7,1.4,4,2.2c0.4,0.2,0.9,0.5,1.1,0.9c1.5,2.5,3,4.8,3.1,7.9c0.1,3.4,0.2,6.7-0.3,10
	c-0.2,1-0.5,1.8-1.4,2.4c-0.1,0-0.1,0.1-0.2,0.1c-1.3,1-7.1,3.6-8.7,3.9c-3.5,0.6-6.9,1.2-10.4,1.7c-1.3,0.2-2.7,0.2-4.1,0.2
	c-2.6,0.1-5.3,0.1-7.9,0.2c-3.6,0.1-7.2,0.4-10.7,0.4c-4.4,0.1-8.8,0.3-13.2-0.1c-1.1-0.1-2.2,0-3.4-0.1c-5-0.3-10-0.6-15.1-0.9
	c-1.1-0.1-2.2-0.1-3.4-0.1c-5.6-0.3-11.2-0.7-16.7-1c-3.8-0.2-7.7-0.3-11.5-0.5c-3.2-0.2-6.4-0.5-9.5-0.7c-1.2-0.1-2.4-0.1-3.6,0
	c-0.7,0-1.3,0.4-2.2,0.6c-0.7-0.2-1.5-0.6-2.4-0.8c-0.9-0.2-1.8,0-2.6-0.1c-5.4-0.2-10.9-0.5-16.3-0.7c-3.9-0.2-7.8-0.4-11.7-0.6
	c-2.6-0.1-5.1-0.3-7.7-0.4c-4.6-0.2-9.3-0.4-13.9-0.6c-4.6-0.2-9.1-0.4-13.7-0.4c-8.3-0.1-16.6-0.1-24.9-0.2
	c-7.4,0-14.9-0.1-22.3-0.1c-3.7,0-7.5-0.2-11.2-0.2c-3.7,0-7.5,0.1-11.2,0.1c-3.3,0-6.7-0.1-10-0.2c-4.9,0-9.7,0-14.6-0.1
	c-2.1,0-4.2,0-6.2-0.1c-4.5-0.1-8.9-0.2-13.4-0.3c-9.1,0-18.2,0-27.3,0c-2.6,0-5.1,0.2-7.7,0.1c-1.9-0.1-3.8,0.1-5.7,0.2
	c-2,0.1-3.9,0.8-5.8,1.2c-1.1,0.2-2,1-2.3,2.2c-0.2,0.6-0.4,1.2-0.8,1.8c-0.9,1.5-0.8,2.9,0.1,4.4c1.5,0.5,3.1,0.3,4.7,0.2
	c3.7-0.3,7.3-0.7,11-1c1.6-0.1,3.2-0.1,4.8-0.2c0.5,0,1,0.1,1.4,0.2c2.6,0.5,5.2,1,7.8,1.3c2.5,0.3,4.9,0.4,7.4,0.5
	c6.7,0.2,13.4-0.2,20.1-0.4c6.2-0.2,12.3-0.3,18.5-0.5c4-0.2,8-0.5,12-0.7c3.6-0.2,7.2-0.4,10.8-0.7c5.5-0.4,11-0.4,16.5-0.5
	c2.3,0,4.6-0.2,6.9-0.3c5.6-0.1,11.2-0.1,16.8-0.2c2.5,0,4.9,0,7.4,0c2.5,0,5-0.1,7.4-0.1c6.7,0,13.4,0.1,20.1,0.1
	c6,0,12,0.1,18,0.2c5.3,0.1,10.5,0.3,15.8,0.3c4.9,0.1,9.8,0.1,14.6,0.1c7.1,0.1,14.2,0.3,21.3,0.4c7.8,0.1,15.5,0.3,23.3,0.4
	c10.3,0.1,20.6,0.1,30.9,0.2c9.7,0.1,19.3,0.3,29,0.3c7,0,14.1-0.3,21.1-0.5c5.3-0.1,10.7-0.6,16-0.4c6.7,0.3,13.4,0.6,20.1,0.8
	c3.5,0.1,7,0.2,10.5,0.2c4.2,0.1,8.3,0.2,12.5,0.3c4.6,0,9.3,0,13.9,0c13.8,0,27.5,0,41.3,0c5.7,0,11.3-0.3,17-0.4
	c5-0.1,9.9-0.1,14.9-0.1c10.2,0,20.5,0.1,30.7-0.1c6.4-0.1,12.8-0.2,19.2-0.3c7.4-0.1,14.9,0,22.3,0.1c6.5,0.1,12.9,0.3,19.4,0.5
	c6.2,0.2,12.3,0.4,18.5,0.7c4.6,0.2,9.1,0.3,13.7,0.6c3.2,0.2,6.4,0.5,9.5,0.8c0.6,0.1,1.3,0.1,1.9,0.2c6.4,0.4,12.8,0.4,19.2,0.7
	c7.5,0.4,15,0.3,22.5,0.5c5.6,0.1,11.2-0.1,16.8-0.3c2.1-0.1,4.3-0.6,6.4-1.1c1.2-0.2,2.3-0.4,3.6-0.4c4.4,0,8.8,0.5,13.1,1
	c1.9,0.2,2.8-0.6,3-2.5c0-0.2,0-0.5,0-0.7c0.1-1.8-0.3-2.3-2.1-2.5c-3.2-0.2-6.4-0.4-9.6-0.5c-3-0.1-6.1,0-9.1,0
	c-3.3-0.1-6.5-0.3-9.8-0.4c-0.3,0-0.6,0-1,0c-8-0.4-16-0.4-24-0.6c-5.1-0.1-10.2-0.1-15.3-0.2c-4.7-0.1-9.4-0.4-14.1-0.5
	c-3.1-0.1-6.2-0.1-9.3-0.2c-5.6-0.1-11.2-0.3-16.8-0.5c-3.7-0.1-7.3-0.4-11-0.3c-7.1,0.1-14.2-0.3-21.3-0.6
	c-4.3-0.2-8.6-0.4-12.9-0.4c-5.4-0.1-10.7,0-16.1,0c-8,0-16,0.1-24,0.2c-8.3,0.1-16.6,0.3-24.9,0.3c-4.6,0-9.3-0.1-13.9-0.1
	c-1.4,0-2.7,0.1-4.1,0.1c-7,0-13.9,0-20.9-0.1c-6.1,0-12.3-0.1-18.4-0.2c-4.4-0.1-8.8-0.1-13.2-0.2c-3.6-0.1-7.2-0.6-10.8-0.7
	c-3.8-0.1-7.5-0.7-11.2-1c-1.9-0.2-3.8-0.5-5.7-0.7c-2.4-0.3-4.7-0.9-7-1.7c-3.3-1.2-6.6-2.3-10-3.5c-2.7-1-5.3-2.2-7.7-3.9
	c-4.2-3.1-6.5-7.3-6.4-12.5c0.1-3,1.2-5.6,3.6-7.6c2.7-2.3,5.8-3.3,9.3-3.1c4.9,0.3,9.7,0.5,14.6,0.9c5.6,0.4,11.2,0.8,16.7,1.2
	c2.9,0.2,5.7,0.4,8.6,0.6c4.4,0.3,8.8,0.7,13.1,0.9c3.4,0.2,6.9,0.4,10.3,0.6c3.2,0.2,6.4,0.5,9.6,0.6c2.7,0.1,5.4,0.2,8.1,0.2
	c9,0.1,17.9,0.1,26.9,0.2c11.2,0.1,22.4,0.2,33.6,0.4c4.7,0.1,9.4,0.3,14.1,0.4c2.8,0.1,5.6,0.2,8.4,0.3c3.2,0.1,6.4,0.1,9.6,0.2
	c6.5,0.2,13.1,0.5,19.6,0.7c4.6,0.1,9.3,0.2,13.9,0.3c3.4,0.1,6.9,0.2,10.3,0.2c1.1,0,2.2-0.1,3.3-0.2c0.5,0,1-0.1,1.4-0.1
	c5.7,0.2,11.3-0.1,17-0.1c6.1,0,12.2-0.1,18.2-0.2c12.9-0.1,25.7-0.1,38.6-0.2c2.8,0,5.6-0.1,8.4-0.2c2.8,0,5.6,0.1,8.4,0.1
	c4.5,0,9,0,13.4,0.1c1.4,0,2.7-0.3,3.9-0.9c1.8-0.9,3.6-1.6,5.5-2.5c0.4-0.2,0.8-0.5,1.3-0.8c-1.2-1.7-2.5-2.9-4.6-3.2
	c-2.3-0.3-4.5-1-6.8-1.5c-3.3-0.8-6.6-1.4-9.9-1.7c-1.5-0.1-3-0.2-4.5-0.3c-2.9-0.2-5.7-0.2-8.6-0.5c-5.3-0.5-10.5-0.2-15.8-0.2
	c-3.2,0-6.4,0.2-9.6,0.3c-4.1,0.1-8.3,0.3-12.4,0.3c-2.6,0-5.3,0.2-7.9,0.3c-2.5,0.1-5,0.1-7.4,0.2c-6.6,0.2-13.2,0.4-19.9,0.5
	c-6.6,0.2-13.3,0.2-19.9,0.4c-6.3,0.2-12.6-0.1-18.9-0.1c-4.6,0-9.1-0.1-13.7-0.2c-3.1-0.1-6.2-0.2-9.3-0.3c-1,0-1.9,0-2.9,0
	c-3-0.1-6.1-0.2-9.1-0.3c-0.3,0-0.6-0.1-0.9-0.1c-3.4,0.1-6.9,0.3-10.3,0.4c-4.7,0.2-9.4,0.4-14.1,0.5c-4.6,0.1-9.3,0.2-13.9,0.3
	c-4.5,0.1-9,0.1-13.4,0.2c-5.6,0.1-11.2,0.2-16.8,0.3c-5.8,0.1-11.5,0.2-17.3,0.2c-1.4,0-2.9-0.2-4.3-0.4c-3.9-0.6-7.9-1.5-11.8-2
	c-4.7-0.6-9.5-1-14.3-1.6c-4.1-0.5-8.3-0.8-12.4-1c-1.5-0.1-3-0.3-4.5-0.5c-3.6-0.5-7.2-0.2-10.8-0.3c-3.1-0.1-6.2-0.3-9.3-0.4
	c-1.1,0-2.2-0.1-3.4-0.1c-1.2,0-2.2-0.4-3.1-1.1c-1.7-1.3-3.4-2.7-5.2-3.9c-2-1.3-3.2-3.3-4.5-5.2c-0.8-1.1-1.3-2.4-2-3.6
	c-0.6-1.1-0.6-2.1-0.1-3.2c0.7-1.5,1.4-3.1,2.1-4.6c0.6-1.4,1.4-2.6,2.9-3.3c1.5-0.7,2.9-1.7,4.3-2.6c1-0.6,2-1,3.1-1.2
	c2.5-0.4,4.9-0.7,7.3-1.1c3.2-0.5,6.5-0.9,9.7-1.3c2.5-0.3,4.9-0.5,7.4-0.8c4.6-0.5,9.2-1,13.8-1.4c2.9-0.2,5.7-0.4,8.6-0.4
	c13.1-0.1,26.2-0.1,39.4-0.1c3.2,0,6.4,0.2,9.5,0.9c1.7,0.4,3.5,0.3,5.2,0.3c3.9,0.1,7.8,0.4,11.7,0.3c4.3-0.1,8.6,0.3,12.9,0.5
	c5.3,0.2,10.7,0.4,16.1,0.4c3.5,0,7-0.1,10.5,0.3c4,0.5,8,0.5,12,0.7c3.1,0.2,6.2,0.5,9.3,0.7c1.4,0.1,2.9,0.1,4.3,0.2
	c3.3,0.3,6.7,0.6,10,0.8c3.7,0.3,7.5,0.5,11.2,0.7c6.1,0.3,12.3,0.6,18.4,1c5.8,0.3,11.7,0.6,17.5,1c4.5,0.3,8.9,0.6,13.4,0.9
	c4.6,0.3,9.3,0.5,13.9,1.1c5.8,0.7,11.6,0.8,17.5,0.9c4.6,0.1,9.3,0.3,13.9,0.4c0.1,0,0.2,0,0.2,0c8.4,0.1,16.8,0.3,25.2,0.3
	c2.2,0,4.5-0.2,6.7-0.4c1.7-0.1,3.3-0.8,4.7-1.7c0.2-0.1,0.4-0.5,0.7-0.9c-0.5-0.3-0.8-0.6-1.3-0.8c-2.2-0.8-4.4-1.5-6.6-2.2
	c-0.5-0.2-1.1-0.3-1.6-0.3c-3.3-0.2-6.5-0.8-9.7-1.3c-1.2-0.2-2.4-0.2-3.6-0.3c-1.1-0.1-2.2-0.1-3.3-0.1c-0.7,0-1.4-0.1-2.2-0.1
	c-4.6-0.1-9.1-0.2-13.7-0.4c-1.4-0.1-2.9-0.3-4.3-0.5c-5.2-0.6-10.5-1.3-15.7-1.9c-3.4-0.4-6.8-0.7-10.2-1c-4-0.4-7.9-0.9-11.9-1.3
	c-2.6-0.3-5.3-0.4-7.9-0.6c-1.6-0.1-3.2-0.3-4.8-0.5c-0.5,0-1-0.2-1.4-0.1c-2.2,0.2-4.4-0.2-6.7-0.2c-5,0-9.9-0.6-14.8-0.8
	c-6.1-0.2-12.3-0.9-18.3-2c-5.9-1-11.8-1.8-17.7-2.8c-3.6-0.6-7.3-0.9-10.9-1.8c-0.8-0.2-1.7-0.3-2.6-0.4c-3-0.3-6.1-0.5-9.1-0.7
	c-2.7-0.2-5.4-0.5-8.1-0.8c-2-0.2-4-0.3-6-0.5c-5.4-0.4-10.8-0.8-16.2-1.2c-4.3-0.4-8.6-0.8-12.9-1.2c-5.3-0.6-10.6-1.2-16-1.8
	c-1.3-0.1-2.6-0.1-3.8-0.2c-4.6-0.4-9.2-0.9-13.8-1.2c-4.9-0.4-9.9-0.6-14.8-0.8c-3.2-0.2-6.4-0.4-9.6-0.6c-0.8,0-1.6,0-2.4-0.1
	c-6-0.1-12-0.1-18-0.2c-2.7,0-5.2-0.7-7.7-1.4c-4.7-1.4-9.1-3.5-13.6-5.3c-0.6-0.2-1.2-0.6-1.6-1c-1.7-1.5-3.2-3.2-4.4-5
	c-1-1.5-0.7-2.4,0.8-3.4c0.9-0.6,1.9-1.2,2.9-1.7c1.9-1.1,4-2,6.1-2.8c4.1-1.6,8.4-1.9,12.7-2c0.5,0,1,0.1,1.4-0.1
	c4.2-1,8.4-0.8,12.7-0.6c13.4,0.4,26.9,0.3,40.3,0.4c5.7,0,11.5,0.4,17.2,0.7c0.9,0,1.8,0.1,2.6,0.1c4.5,0.2,8.9,0.4,13.4,0.6
	c3.1,0.2,6.2,0.5,9.3,0.7c3,0.2,6.1,0.3,9.1,0.4c5.5,0.3,11,0.6,16.5,0.9c5.5,0.3,11,0.5,16.5,0.8c5.7,0.2,11.5,0.4,17.3,0.6
	c3.9,0.2,7.8,0.5,11.7,0.7c0.5,0,1,0,1.4,0c4.2,0.3,8.4,0.6,12.7,0.9c0.4,0,0.8,0,1.2,0.1c4.2,0.3,8.4,0.6,12.7,1
	c4.7,0.4,9.4,0.8,14.1,1.1c6.1,0.5,12.1,0.9,18.2,1.4c5.5,0.4,11,0.9,16.5,1.4c1,0.1,1.9,0,2.9,0.1c2.8,0.1,5.6,0.2,8.4,0.5
	c2.8,0.2,5.5,0.7,8.3,1c2.9,0.3,5.7,0.6,8.6,0.9c3.9,0.4,7.8,0.6,11.7,0.6c6.6,0.1,13.3,0,19.8-1c2.7-0.4,5.4-0.7,8.1-1.1
	c0.8-0.1,1.6-0.3,2.3-0.5c1.3-0.3,2.6-0.6,4-0.9c0.5-0.1,1.1-0.3,1.6-0.5c0.2,0,0.3-0.1,0.5-0.1c1.8-0.8,2.9-4.8,1.7-6.3
	c-0.3-0.4-0.9-0.8-1.4-0.9c-3.4-0.9-6.6-2.4-10-3.2c-2.6-0.6-5.3-1.1-8-1.5c-1.4-0.3-2.8-0.5-4.2-0.8c-1.9-0.3-3.8-0.5-5.7-0.6
	c-4.9-0.1-9.9-0.3-14.8-0.4c-4-0.1-8-0.1-12-0.1c-5.6-0.1-11.2-0.2-16.8-0.3c-2.4-0.1-4.8-0.1-7.2-0.2c-4.2-0.2-8.5-0.4-12.7-0.5
	c-4.1-0.1-8.2,0-12.2-0.1c-3.2,0-6.4-0.2-9.6-0.2c-3.1,0-6.2,0.2-9.3,0.2c-6,0-12-0.2-18-0.3c-4.1-0.1-8.2,0-12.2-0.2
	c-5.3-0.2-10.7-0.5-16-0.8c-1.7-0.1-3.4-0.1-5-0.2c-4.5-0.2-8.9-0.3-13.4-0.5c-7.2-0.3-14.4-0.7-21.5-0.9
	c-6.4-0.2-12.8-0.3-19.2-0.5c-4.9-0.2-9.9-0.5-14.8-0.7c-2.1-0.1-4.1-0.2-6.2-0.4c-6-0.4-11.9-1.1-17.8-2.4
	c-2.7-0.6-5.5-0.9-8.3-0.7c-4.6,0.3-9.1,0.2-13.6-0.5c-2.6-0.4-5.3-0.4-7.9-0.6c-2.2-0.1-4.3-0.1-6.5-0.3
	c-5.9-0.6-11.8-1.2-17.6-1.8c-2-0.2-4-0.4-6-0.6c-2.5-0.3-4.8-1-7.2-1.7c-1.2-0.3-2.3-0.6-3.5-0.8c-2.9-0.7-5.8-1.2-8.6-2
	c-4.6-1.2-8.7-3.5-12.3-6.7c-1.5-1.3-3-2.6-4.2-4.2c-0.9-1.2-1.3-2.4-1.1-4c0.3-2,0.6-3.9,1.4-5.8c0.2-0.6,0.4-1.3,0.9-1.7
	c1.7-1.6,3.3-3.2,5.5-4.2c0.2-0.1,0.5-0.2,0.7-0.3c1.8-1.3,4-1.6,6.1-1.7c4.4-0.2,8.8-0.4,13.2-0.7c3.4-0.2,6.8-0.6,10.3-0.7
	c3-0.1,5.9-0.1,8.9-0.1c4.4,0.1,8.8,0.3,13.2,0.3c2.8,0,5.6-0.4,8.4-0.4c2.8,0,5.6,0.1,8.4,0.2c4.9,0.2,9.7,0.6,14.6,0.8
	c3.7,0.1,7.4,0.1,11,0.1c5.2,0,10.4,0,15.6,0.1c2.5,0,4.9,0.3,7.4,0.5c5.7,0.4,11.3,0.9,17,1.3c4.7,0.3,9.4,0.4,14.1,0.6
	c3.3,0.1,6.6,0.2,9.8,0.4c3.7,0.2,7.5,0.5,11.2,0.7c3.3,0.2,6.7,0.4,10,0.6c5.4,0.4,10.8,0.9,16.2,1.4c4.2,0.4,8.4,0.7,12.7,1.1
	c4.5,0.4,8.9,0.9,13.4,1.2c3.8,0.3,7.7,0.5,11.5,0.7c4,0.2,8,0.5,12,0.7c1.8,0.1,3.7,0.2,5.5,0.2c2.4,0.1,4.8,0.2,7.1,1.1
	c0.5,0.2,1.1,0.2,1.7,0.2c4.6-0.1,9.1-0.1,13.7-0.2c9.4-0.1,18.9-0.1,28.3-0.2c5.2-0.1,10.4-0.3,15.6-0.4c3.4-0.1,6.7,0,10.1-0.1
	c8-0.3,16-0.6,24-1c2.5-0.1,5.1-0.4,7.6-0.7c0.9-0.1,1.8,0,2.6-0.1c0.7,0,1.4-0.1,2.1-0.3c0.7-0.2,1.1-0.6,1.1-1.4
	c0.2-3.1-0.9-5.7-3.4-7.5c-1.4-1-2.9-1.6-4.7-1.8c-4.2-0.5-8.4-0.8-12.7-0.7c-1.3,0-2.5-0.3-3.8-0.3c-3.6-0.1-7.2-0.1-10.8-0.1
	c-5.6,0.1-11.2,0.2-16.8,0.1c-4.2-0.1-8.4-0.4-12.7-0.4c-2.8,0-5.5-0.6-8.3-0.9c-0.4,0-0.8-0.2-1.2-0.2c-2.9-0.2-5.9-0.4-8.8-0.6
	c-3.2-0.2-6.4-0.4-9.6-0.6c-3.6-0.2-7.2-0.3-10.8-0.5c-4.5-0.2-9.1-0.4-13.6-0.7c-1.7-0.1-3.4-0.1-5-0.2c-6-0.3-12-0.6-18-1
	c-3.7-0.2-7.3-0.6-11-0.7c-3.4-0.2-6.7-0.1-10.1-0.2c-3.3-0.1-6.7-0.3-10-0.4c-2.6-0.1-5.3-0.1-7.9-0.1c-0.7,0-1.5,0-2.1-0.2
	c-2.7-0.9-5.5-0.7-8.3-0.5c-1.8,0.1-3.5,0.5-5.2,0.6c-1.3,0.1-2.5,0.2-3.8,0.3c-1.6,0-3.2,0-4.8,0c-4.4,0.1-8.8,0.3-13.2,0.3
	c-9.3,0-18.5,0-27.8,0c-4.2,0-8.3-0.2-12.5-0.3c-5.9-0.2-11.8-0.4-17.7-0.7c-5.1-0.2-10.2-0.5-15.3-1c-5.7-0.6-11.5-1.1-17.2-1.7
	c-3.1-0.3-6.2-0.7-9.3-1.2c-1.9-0.3-3.7-1-5.5-1.6c-2.6-0.9-5.3-1.8-7.9-2.9c-1.6-0.7-3.1-1.6-4.6-2.5c-2.2-1.3-4.3-2.8-6.4-4.2
	c-1.2-0.8-2.1-1.6-2.8-2.9c-1-2-2.4-3.8-3.2-5.9c-0.5-1.3-0.5-2.8-0.6-4.2c0-0.3,0.2-0.6,0.3-0.9c1.4-1.8,2.8-3.7,4.2-5.5
	c0.4-0.4,1-0.7,1.6-0.9c1.3-0.4,2.6-0.7,4-0.8c3.9-0.4,7.8-1,11.7-1.2c7.3-0.4,14.5-0.4,21.8-0.4c5.5,0,11,0.5,16.5,1
	c4.1,0.4,8.3,0.5,12.4,0.9c4.1,0.4,8.3,0.5,12.4,0.7c3.5,0.1,7,0.5,10.5,0.8c5.2,0.4,10.4,0.7,15.5,1.1c1.6,0.1,3.2,0.3,4.8,0.4
	c4.1,0.3,8.1,0.7,12.2,1c5.1,0.4,10.2,0.6,15.3,1c6.8,0.5,13.6,0.9,20.4,1c6.8,0.1,13.6,0.3,20.4,0.3c5.5,0,11,0.1,16.5,0.2
	c2.6,0,5.3-0.1,7.9-0.1c3.8,0,7.5,0,11.3-0.1c3.4-0.1,6.7-0.2,10.1-0.2c3.5,0,7,0.1,10.5,0c3.7,0,7.3-0.2,11-0.3
	c3.7-0.1,7.3-0.3,11-0.5c3.7-0.2,7.3-0.5,11-0.7c2.9-0.2,5.8-0.2,8.6-0.3c3.1-0.1,6.2-0.3,9.3-0.4c1.7-0.1,3.4-0.2,5,0.4
	c0.4,0.1,0.8,0.1,1.2,0.1c3.3,0.2,6.5,0.4,9.8,0.6c1.1,0.1,2.2,0.1,3.4,0.1c1.5,0,3,0.2,4.5,0.5c3.7,0.9,7.1,0.4,10-2.3
	c1.2-1.1,2.4-2.3,3.4-3.8c-2.3-2-4.8-3.3-7.8-3.3c-2.2,0-4.5-0.1-6.7,0c-2.5,0.1-5.1,0.4-7.6,0.6c-1.2,0.1-2.4,0.2-3.6,0.2
	c-5.7,0.1-11.5-0.2-17.2,0.1c-1,0.1-1.9,0.2-2.9,0.3c-5.6,0.5-11.2,0.8-16.8,0.8c-5.4,0-10.9,0.3-16.3,0.4c-3.8,0-7.5-0.1-11.3-0.1
	c-4.3,0-8.6,0.1-12.9,0.2c-3.1,0.1-6.2,0.2-9.3,0.3c-6.4,0.1-12.8,0.6-19.2,0.5c-5.7-0.1-11.5-0.2-17.3,0.2
	c-4.5,0.3-9.1,0.3-13.7,0.4c-5.5,0.1-11,0.3-16.5,0.4c-3.5,0-7-0.2-10.5-0.6c-4.4-0.5-8.8-0.6-13.1-0.9c-3.3-0.2-6.5-0.5-9.8-0.7
	c-0.2,0-0.3,0-0.5,0c-6.5-0.2-13.1-0.4-19.6-0.7c-3.7-0.1-7.3-0.3-11-0.4c-5.3-0.2-10.7-0.3-16-0.6c-2-0.1-3.9-0.3-5.9-0.7
	c-3.6-0.7-7.3-1.2-10.9-1.6c-3.1-0.4-6.2-0.5-9.3-0.8c-0.3,0-0.7,0-0.9-0.1c-1.6-0.8-3.2-0.8-4.9-0.8c-3.6,0-7.2,0-10.8,0
	c-3.4-0.1-6.7-0.1-10.1-0.4c-3.4-0.4-6.8-1.1-10.2-1.7c-0.5-0.1-1.1-0.3-1.5-0.7c-2.2-2.1-4.6-4.1-4.9-7.4c0-0.1,0-0.2-0.1-0.2
	c-0.2-1.1-0.8-2.2-0.6-3.2c0.3-1.5,1.1-2.8,1.6-4.2c0.4-1,1-2,1.4-3c1.2-3.4,3.4-5.9,6.2-8c0.4-0.3,1-0.5,1.6-0.5
	c2.5-0.4,5-0.8,7.6-0.8c3.4,0,6.9,0,10.3-0.2c4.5-0.3,9.1-0.3,13.7-0.4c3.8-0.1,7.7-0.3,11.5-0.3c14.2-0.1,28.5-0.1,42.7-0.1
	c6.2,0,12.5,0,18.7,0.1c5.2,0.1,10.4,0.3,15.6,0.4c3.2,0.1,6.4,0,9.6,0c3.8,0.1,7.5,0.3,11.3,0.4c0.3,0,0.6,0.1,1,0.1
	c5.9,0.2,11.8,0.2,17.7,0.5c6.5,0.4,13.1,0.4,19.6,0.5c6.4,0.2,12.8,0.2,19.2,0.4c1.4,0,2.9,0.2,4.3,0.3c0.6,0,1.1,0.1,1.7,0
	c3.8-0.3,7.6,0.1,11.5,0c3.8-0.1,7.7,0,11.5,0c3.8,0,7.7,0,11.5,0c2.3,0,4.6,0.1,6.9,0c2.9-0.2,5.9-0.6,8.8-0.8
	c3.1-0.2,6.2-0.5,9.3-0.6c4.9-0.1,9.9-0.6,14.9-0.3c1,0.1,2.1-0.1,3.1-0.3c2.6-0.3,5.2-0.7,7.8-0.9c2.9-0.3,5.9-0.4,8.8-0.6
	c4-0.3,8-0.5,12-0.7c1.9-0.1,3.8,0,5.8,0c3,0.1,5.9,0.1,8.8-0.4c3.9-0.6,7.9-0.9,11.9-1.5c4.8-0.7,9.5-1.1,14.3-0.9
	c3,0.1,6.1-0.1,9.1,0c1.5,0,3,0.1,4.5,0.3c0.9,0.1,1.7,0.4,2.5,0.6c0.3,2.1,0.3,13.8,0,15.3c-1.6-0.2-3.1-0.4-4.7-0.6
	c-2.5-0.3-4.9-0.5-7.4,0c-0.9,0.2-1.8,0.2-2.6,0.1c-2.8-0.1-5.6,0.1-8.3,0.7c-0.5,0.1-1.1,0.2-1.7,0.2c-2.2-0.2-4.5,0.2-6.7,0.5
	c-0.7,0.1-1.4,0.2-2.1,0.2c-5.9,0.3-11.8,1-17.6,2.1c-0.8,0.2-1.7,0-2.6,0c-1,0-2.1-0.1-3.1,0c-3.8,0.4-7.6,0.8-11.4,1.3
	c-0.3,0-0.5,0.3-0.8,0.4c0.5,0.7,1.1,0.5,1.6,0.5c3.3,0.2,6.7,0.3,10.1,0.5c1.1,0.1,2.2,0.2,3.3,0.4c2.6,0.4,5.3,0.1,7.9,0.2
	c3.7,0.1,7.3,0.3,10.9,1.1c1,0.2,2.1,0.3,3.1,0.5c1.7,0.4,3.1,1.2,4.3,2.4c0.5,0.6,1.1,1.1,1.7,1.7c1.3,1.4,2.2,2.9,2.5,4.8
	c0.2,1,0.4,2,0.8,3c0.5,1.2,0.5,2.5,0.4,3.8c-0.1,1.4-0.3,2.7-0.4,4c-0.1,0.5-0.2,1-0.4,1.3c-1.6,2-3,4.1-5.6,5.1
	c-2.2,0.8-4.3,1.8-6.5,2.5c-1.4,0.5-2.9,0.8-4.4,1c-3.4,0.6-6.7,1.4-10,2.5c-2.4,0.8-5,1.1-7.5,1.4c-4,0.5-8.1,1-12.1,1.4
	c-3.9,0.4-7.8,0.5-11.7,0.8c-2.9,0.2-5.9,0.4-8.8,0.6c-2.7,0.2-5.4,0.4-8.1,0.6c-6,0.3-12,0.8-18,0.9c-5.6,0.1-11.2-0.1-16.8-0.2
	c-6.5-0.1-13,0-19.4-0.1c-8.2-0.1-16.3,0.2-24.5,0.4c-2.6,0.1-5.3,0.1-7.9,0.3c-1.7,0.2-3.5-0.1-5.3-0.1c-1.4,0-2.9,0.2-4.3-0.1
	c-0.5-0.1-1-0.1-1.4,0c-3.6,0.7-7.2-0.2-10.7-0.4c-4.4-0.3-8.8-0.7-13.1-1.1c-2.5-0.2-4.9-0.4-7.4-0.6c-3.4-0.3-6.9-0.5-10.3-0.8
	c-3.7-0.3-7.5-0.7-11.2-1c-3-0.2-6.1-0.4-9.1-0.6c-3.8-0.3-7.6-0.8-11.4-1.2c-2.2-0.2-4.5-0.4-6.7-0.6c-4.5-0.3-8.9-0.5-13.4-1
	c-4.6-0.5-9.2-1.2-13.8-1.8c-1.9-0.2-3.8-0.3-5.7-0.6c-6.5-0.9-13-1.3-19.6-1.8c-4.4-0.3-8.8-0.3-13.2,0.1c-4,0.3-8,0.5-12,0.7
	c-1.4,0.1-2.8,0.3-4.2,0.5c-0.7,0.9-1,1.8-0.8,2.8c0.1,0.4,0.2,0.8,0.3,1.2c0.7,2.6,0.9,2.8,3.6,3.5c2,0.6,4,1.1,6,1.7
	c3.9,1.2,8,1.5,12.1,1.8c1.3,0.1,2.5,0.4,3.8,0.5c2.1,0.2,4.2,0.2,6.2,0.4c2.2,0.2,4.4,0.5,6.7,0.7c2.5,0.3,5.1,0.6,7.6,0.8
	c3.2,0.2,6.4,0.4,9.6,0.5c2.5,0,5-0.1,7.4-0.2c2.4-0.1,4.8-0.3,7.2-0.2c2,0,4,0.3,6,0.5c3.9,0.3,7.8,0.4,11.7,0.8
	c2.9,0.3,5.7,0.3,8.6,0.4c3,0.1,6.1,0.3,9.1,0.5c1.3,0.1,2.6,0,3.8,0c4.1,0.2,8.1,0.4,12.2,0.7c4.8,0.3,9.6,0.6,14.3,1
	c4.2,0.4,8.4,0.6,12.7,0.5c2.7-0.1,5.4,0,8.2,0c1.4,0,2.7,0.3,4.1,0.3c3.3,0,6.5-0.2,9.8-0.2c2.9,0,5.8,0.1,8.6,0.2
	c0.6,0,1.3,0.1,1.9,0.1c2.6,0,5.3,0.1,7.9-0.3c0.2,0,0.3,0,0.5,0c3.5,0.1,7,0.3,10.5,0.4c4.3,0.2,8.6,0.5,12.9,0.5
	c5.3,0.1,10.5,0.3,15.8,0.8c1.7,0.1,3.4,0.1,5,0.2c6.9,0.3,13.9,0.6,20.8,1c6.9,0.4,13.9,0.8,20.8,1.7c2.9,0.4,5.9,0.5,8.8,0.7
	c2.4,0.2,4.8,0.4,7.2,0.6c3.2,0.3,6.4,0.6,9.5,0.9c5.3,0.5,10.6,1.2,15.9,2.1c3.1,0.5,6.1,1.1,9.2,1.7c3.6,0.7,7,2.1,10.5,3.4
	c1.8,0.7,3.3,2,4.5,3.5c2.1,2.6,3.6,5.5,4.6,8.6c1.1,3.4-0.2,6.8-3.2,8.7c-3.2,2.1-6.5,4-10,5.7c-1.2,0.5-2.3,1-3.7,1.1
	c-1.2,0.1-2.4,0.4-3.5,0.8c-2.5,0.9-5,1.5-7.7,1.5c-3,0.1-6.1,0.2-9.1,0.5c-3.5,0.3-7,0.4-10.5,0.3c-3.7-0.2-7.3-0.3-11-0.5
	c-4.3-0.3-8.6-0.6-12.9-0.9c-1.4-0.1-2.9-0.2-4.3-0.5c-2.2-0.4-4.4-0.5-6.7-0.5c-3.9,0-7.8,0-11.8-0.1c-6.3-0.2-12.6-0.4-18.9-0.7
	c-5.4-0.2-10.9-0.5-16.3-0.8c-3.1-0.2-6.2-0.4-9.3-0.7c-0.5,0-1-0.1-1.4-0.1c-4.5-0.2-9.1-0.3-13.6-0.6c-5.2-0.3-10.4-0.8-15.5-1.2
	c-2.9-0.2-5.7-0.5-8.6-0.7c-1.8-0.2-3.5-0.3-5.2-0.5c-4.7-0.6-9.5-1.2-14.3-1.4c-3.2-0.1-6.4-0.5-9.5-0.8c-3.4-0.3-6.8-0.7-10.3-0.7
	c-1.4,0-2.7-0.2-4.1-0.3c-4.4-0.2-8.8-0.4-13.2-0.7c-2.6-0.1-5.3-0.4-7.9-0.5c-3.7-0.2-7.5-0.3-11.2-0.5c-1.5-0.1-3-0.3-4.5-0.4
	c-3.5-0.2-7-0.2-10.5-0.4c-3.8-0.2-7.6-0.6-11.5-0.8c-2.5-0.2-5-0.2-7.4-0.4c-3.2-0.2-6.4-0.5-9.6-0.6c-3.9-0.1-7.8-0.4-11.7-0.4
	c-2.8,0-5.6-0.1-8.4-0.2c-2.7-0.1-5.4-0.4-8.1-0.4c-2.6,0-5.3,0-7.9,0.3c-3,0.4-5.9,0.1-8.8,0.1c-3.4,0-6.9,0-10.3-0.2
	c-4-0.2-8,0.2-12,0.2c-2.8,0-5.6,0.2-8.4,0.4c-2.3,0.2-3.1,1-3.4,3.2c-0.5,3.8,0.6,5.7,4.1,7.1c1.2,0.5,2.4,0.8,3.7,1.1
	c3.1,0.6,6.3,1,9.5,1.2c3,0.2,6.1,0.3,9.1,0.5c1.1,0.1,2.2,0.2,3.3,0.3c2.7,0.5,5.4,0.5,8.1,0.7c2.8,0.2,5.5,0.7,8.3,1
	c1.3,0.1,2.5,0.2,3.8,0.3c1.4,0.1,2.7,0.1,4.1,0.2c1.7,0.1,3.3,0.1,5,0.1c2.4,0,4.8,0.2,7.2,0.3c4.5,0.3,8.9,0.7,13.4,0.6
	c1.8-0.1,3.7-0.3,5.5-0.4c1.7-0.1,3.4-0.1,5-0.1c2,0.1,4,0.3,6,0.1c1-0.1,2.1,0.3,3.1,0.2c4.5-0.4,8.9-0.2,13.4,0
	c4.3,0.2,8.6,0.1,12.9,0.2c3.7,0.1,7.5,0.4,11.2,0.7c1.9,0.1,3.8,0.3,5.7,0.5c3.8,0.4,7.6,0.8,11.4,1.2c3.6,0.4,7.1,0.9,10.7,1.3
	c2.5,0.3,4.9,0.6,7.4,0.8c4,0.4,7.9,0.8,11.9,1.1c4.7,0.4,9.4,0.7,14.1,1.1c2.4,0.2,4.8,0.6,7.1,0.7c4.5,0.3,9.1,0.4,13.6,0.7
	c4.3,0.2,8.6,0.5,12.9,0.7c1.3,0.1,2.7-0.2,4.1-0.2c5.8-0.1,11.7-0.2,17.5-0.3c2.3-0.1,4.6-0.3,6.9-0.3c2.8-0.1,5.6-0.1,8.4-0.2
	c3.9-0.1,7.8-0.2,11.7-0.3c1,0,1.9-0.2,2.9-0.3c0.2,0,0.5-0.1,0.7-0.1c6.5,0.2,12.9-0.4,19.4-0.2c1.1,0,2.2,0.1,3.3,0.3
	c3.7,0.5,7.4,1.1,11.1,1.6c2.3,0.4,4.6,0.8,6.8,1.2c2.1,0.3,4.3,0.6,6.4,0.8c7,0.7,14,1.4,20.8,3.1c5.8,1.4,11.5,3.2,16.7,6.3
	c1.6,1,3.3,1.9,5,2.8c1.4,0.8,2.3,1.9,3.1,3.2c0.6,1,1,2.1,0.9,3.4c-0.1,3.5-0.1,7,0,10.6c0,1.3-0.4,2.4-1.2,3.3
	c-1.5,1.8-3.2,3.1-5.5,3.6c-2.3,0.5-4.5,1.1-6.8,1.6c-0.7,0.2-1.4,0.3-2.1,0.3c-2.5,0.3-5.1,0.4-7.6,0.7c-3.7,0.6-7.3,0.5-11,0.4
	c-3.7-0.2-7.5-0.6-11.2-0.9c-3-0.2-6.1-0.4-9.1-0.7c-3.6-0.3-7.2-0.6-10.7-0.9c-3.5-0.3-7-0.7-10.5-1c-2.1-0.2-4.1-0.4-6.2-0.6
	c-1.5-0.1-3-0.3-4.5-0.4c-5.3-0.2-10.5-0.3-15.8-0.5c-3-0.1-5.9-0.5-8.8-0.7c-3-0.2-6.1-0.4-9.1-0.7c-6.4-0.6-12.9-1.2-19.3-1.8
	c-6-0.6-12.1-1.3-18.1-1.9c-3.6-0.4-7.1-0.7-10.7-1c-4.4-0.4-8.8-0.7-13.1-1c-4.5-0.3-8.9-0.6-13.4-1c-4.9-0.4-9.7-1-14.5-1.5
	c-4.1-0.4-8.1-0.9-12.2-1.3c-2.9-0.3-5.9-0.4-8.8-0.7c-7-0.5-14-0.7-21.1-0.9c-7-0.2-14.1-0.3-21.1-0.5c-4-0.1-8-0.2-12-0.4
	c-6.9-0.4-13.9-0.4-20.9-0.6c-3.7-0.1-7.3-0.2-11-0.3c-6-0.2-12-0.4-18-0.6c-0.6,0-1.3,0-1.9-0.1c-3.4-0.4-6.7,0.1-10.1,0.3
	c-0.8,0-1.6,0.3-2.4,0.5c-0.6,0.8-0.7,1.6-0.5,2.5c0.2,0.9,0.6,1.8,1.4,2.5c0.4,0.3,1,0.5,1.5,0.6c2.1,0.4,4.3,0.5,6.4,0.6
	c5.6,0.3,11.2,0.2,16.8,0.3c0.8,0,1.6,0.2,2.4,0.4c4.3,0.8,8.6,1.7,13,2.1c0.5,0,1,0.1,1.4,0.1c3.5,0,7,0.1,10.5,0.1
	c1,0,1.9,0.1,2.9,0.1c0.7,0,1.4-0.1,2.1-0.1c3,0,6.1,0,9.1,0.1c1.4,0,2.9,0.2,4.3,0.3c4.4,0.3,8.8,0.5,13.2,0.8
	c5,0.3,10,0.7,15.1,1.1c5.7,0.5,11.5,0.8,17.2,1.5c5.1,0.5,10.1,1.3,15.1,2.6c3,0.8,6,0.9,9,1.2c4.6,0.4,9.2,0.8,13.8,1.3
	c3.3,0.3,6.7,0.7,10,1c3.8,0.4,7.6,0.9,11.4,1.3c3.3,0.4,6.7,0.6,10,1c3.3,0.4,6.7,0.7,10,1.2c2.9,0.5,5.9,0.5,8.8,0.7
	c0.5,0,1,0,1.4,0.1c2.2,0.7,4.5,0.6,6.9,0.6c1.7,0,3.3,0.2,5,0.5c5.2,0.7,10.4,1.5,15.6,2.3c5.6,0.9,11.2,1.8,16.8,2.6
	c4.2,0.6,8.4,1.2,12.6,1.7c2,0.3,4,0.4,6,0.5c1.3,0.1,2.6,0.3,4,0c1.2-0.3,2.5,0.1,3.8,0c4.5-0.1,9,0,13.4,0.4
	c5,0.5,10,1.2,14.8,2.7c4.9,1.5,9.8,3,14.4,5.2c1.1,0.6,2.3,1.2,3.4,1.8c1.3,0.8,2.2,1.8,2,3.5c-0.1,0.5,0.1,1.1,0.1,1.7
	c0.2,2.7-0.8,5-2.8,6.6c-4.1,3.2-8.6,5-14,4c-4-0.7-8.1-0.9-12.2-1.2c-3.3-0.2-6.7-0.3-10.1-0.4c-3-0.1-5.9-0.4-8.8-0.5
	c-2.6-0.1-5.3-0.2-7.9-0.4c-4.4-0.2-8.8-0.5-13.2-0.7c-3.6-0.2-7.2-0.3-10.8-0.4c-1.4,0-2.9-0.1-4.3-0.1c-1.5-0.1-3-0.1-4.6-0.2
	c-4.1-0.1-8.2-0.1-12.2-0.2c-4.6-0.1-9.1-0.3-13.7-0.4c-6.6-0.2-13.3-0.3-19.9-0.5c-3.7-0.1-7.3-0.5-11-0.8c-3.3-0.2-6.7-0.5-10-0.7
	c-5.3-0.5-10.7-0.4-16.1-0.5c-2.6,0-5.2-0.2-7.9-0.3c-7-0.2-13.9-0.4-20.9-0.6c-6.2-0.2-12.5-0.2-18.7-0.5c-5.7-0.3-11.3-0.1-17-0.4
	c-3.7-0.1-7.3-0.5-11-0.6c-3.6-0.1-7.2-0.2-10.8-0.2c-0.5,0-1,0-1.4,0.2c-1.2,0.4-2.4,0.3-3.6,0.2c-1.3-0.1-2.7-0.2-4.1-0.2
	c-5.8,0-11.7,0.1-17.5,0.2c-3.4,0-6.7,0.1-10.1,0c-5.1-0.1-10.2-0.3-15.3-0.5c-1.6-0.1-3.2-0.1-4.8-0.2c-6.2-0.3-12.3,0.5-18.4,1.2
	c-2.1,0.2-4.1,0.5-6.2,0.7c-1.8,0.2-4.4,2.1-5.1,3.6c-0.2,0.4-0.3,0.8-0.3,1.1c-0.2,1.2,0.2,2,1.4,2.5c2.2,0.9,4.4,1.9,6.8,2.2
	c4.3,0.4,8.6,0.9,12.9,1.2c3.3,0.2,6.5-0.2,9.8-0.7c0.5-0.1,0.9-0.2,1.4-0.2c8.1-0.2,16.2-0.4,24.2,0c0.6,0,1.1,0,1.7,0
	c4.6,0,9.1-0.1,13.7,0.3c2.6,0.2,5.3,0.1,7.9,0.1c1.3,0,2.6,0.3,3.8,0.2c3.6-0.1,7.2,0.2,10.8,0.1c5.4-0.1,10.9,0.1,16.3,0
	c3.6,0,7.2-0.2,10.8-0.3c1.6,0,3.2,0,4.8,0c3,0,6.1-0.2,9.1-0.2c2.6,0,5.1,0.3,7.7,0.4c1.4,0,2.9-0.1,4.3-0.1c1.1,0,2.2,0,3.3,0.1
	c0.6,0,1.1,0.1,1.7,0.1c4.8,0.1,9.6,0.1,14.4,0.2c1,0,2.1,0.1,3.1,0.2c3.6,0.2,7.2,0.5,10.8,0.6c7,0.1,13.9,0.1,20.9,0.2
	c2.5,0,4.9,0.2,7.4,0.2c4.3-0.1,8.6,0.3,12.9,0.2c4.3-0.1,8.6,0,12.9-0.1c3.6-0.1,7.2-0.3,10.8-0.4c2.3-0.1,4.6-0.3,6.9-0.2
	c3.3,0.1,6.7,0.4,10,0.6c0.4,0,0.8,0.1,1.2,0.1c4.3-0.2,8.6,0.6,12.9,1c3.7,0.4,7.3,0.7,11,1c3.5,0.3,7,0.6,10.5,0.9
	c3.9,0.3,7.8,0.5,11.7,0.7c3.3,0.2,6.5,0.3,9.8,0.5c4.1,0.2,8.1,0.5,12.2,0.9c2.6,0.2,5.2,0.7,7.8,1c0.6,0.1,1.1,0.3,1.7,0.1
	c2.6-0.6,5.1,0.2,7.6,0.7c1.2,0.3,2.3,0.8,3.4,1.2c4,1.5,5.6,3.9,5.8,8.7c0,1-0.2,2.1-0.5,3.1c-0.4,1.5-0.9,2.9-1.3,4.3
	c-0.8,2.5-2.2,3.4-5,3.6c-0.5,0-1,0.1-1.4,0.3c-4.1,1.9-8.4,2.3-12.8,2.7c-8.6,0.8-17.2,0.9-25.9,1.2c-6.7,0.2-13.4,0.1-20.1,0.2
	c-6.1,0.1-12.2,0.1-18.2,0.3c-2.4,0.1-4.8,0.5-7.2,0.7c-5.3,0.5-10.5,1.1-15.8,1.2c-4.8,0.1-9.6,0.4-14.4,0.6
	c-1.8,0.1-3.7,0.1-5.5,0.2c-6.2,0.2-12.4,0.5-18.7,0.6c-5.6,0.1-11.2,0.5-16.7,0.7c-2.4,0.1-4.8,0-7.2,0c-3.8-0.1-7.5-0.2-11.3-0.4
	c-3.1-0.2-6.2-0.4-9.3-0.6c-0.2,0-0.3-0.1-0.5-0.1c-4.1-0.2-8.3-0.5-12.4-0.7c-3.2-0.2-6.4-0.3-9.6-0.3c-5.4-0.1-10.7-0.1-16.1-0.2
	c-4,0-8-0.1-12-0.1c-0.8,0-1.6,0-2.4,0c-1.6,0-3.2-0.1-4.8-0.1c-1.1,0-2.2-0.2-3.3-0.2c-5.8-0.3-11.7-0.6-17.5-0.9
	c-1.2-0.1-2.4-0.1-3.6-0.1c-3.8-0.2-7.7-0.3-11.5-0.5c-2.6-0.1-5.1-0.1-7.7-0.2c-3.6,0-7.2-0.6-10.7-1.2c-4.5-0.8-9-1.5-13.5-2.4
	c-3.5-0.7-7-1.5-10.5-2.2c-5.1-1.1-10.2-2.1-15.3-2.7c-2.1-0.2-4.1-0.4-6.2-0.7c-2.3-0.3-4.5,0-6.5,1.1c-1.1,0.6-2.2,1-3.1,1.7
	c-2.2,1.5-2.6,2.8-1.8,5.4c0.1,0.2,0.1,0.5,0.2,0.7c0.3,1,1,1.6,2,1.9c2.3,0.7,4.6,1.5,6.9,2.1c3.6,0.9,7.1,1.8,10.7,2.5
	c3.5,0.6,7,1,10.5,1.3c3.3,0.3,6.5,0.3,9.8,0.5c3.3,0.2,6.5,0.5,9.8,0.7c1.1,0.1,2.2,0.1,3.4,0.2c3.3,0.2,6.5,0.3,9.8,0.6
	c8.6,0.7,17.2,0.8,25.9,0.8c10.6,0,21.3,0.1,31.9,0.2c2.7,0,5.4-0.3,8.1-0.4c1.8-0.1,3.5-0.1,5.3-0.2c3.6-0.2,7.2-0.5,10.7-0.8
	c3.7-0.2,7.3-0.5,11-0.7c6.2-0.4,12.4-0.8,18.7-1.2c2.3-0.1,4.6-0.2,6.9-0.3c3.8-0.2,7.7-0.4,11.5-0.6c1.1,0,2.2,0,3.3,0
	c0.6,0,1.1,0,1.7,0c1.1,0,2.2-0.1,3.4-0.1c5.9,0.1,11.8,0.1,17.7,0.2c4.6,0.1,9.3,0.3,13.9,0.4c0.9,0,1.8,0,2.6,0.1
	c5.5,0.2,11,0.4,16.5,0.6c3.5,0.1,7,0.2,10.5,0.4c2.6,0.1,5.3,0.4,7.9,0.4c3.8,0.1,7.5,0.1,11.3,0.1c0.1,0,0.2,0,0.2,0
	c6.1-0.1,12.1-0.4,18.2-0.3c5.1,0,10.2,0.3,15.3,1.2c5,0.9,10,1.9,15,3c1.6,0.3,3.2,1.1,4.7,1.6c0.4,0.2,0.9,0.3,1.4,0.4
	c2.5,0.6,5,1.1,7.5,1.7c1,0.2,1.7,0.7,2.3,1.5c1,1.2,2.1,2.4,3.2,3.6c0.6,0.6,0.8,1.4,0.9,2.2c0.3,2.4-0.4,4.6-1.9,6.5
	c-3.5,4.2-7.9,6.7-13.4,7.1c-1,0.1-2.1,0.1-3.1,0c-2.9-0.3-5.7-0.2-8.6-0.1c-3.9,0.2-7.8,0.2-11.7,0.3c-6,0.1-12,0.3-18,0.4
	c-9.9,0.2-19.8,0.4-29.7,0.6c-7.4,0.2-14.9,0.3-22.3,0.5c-9.7,0.2-19.3,0.3-29,0.5c-6.2,0.1-12.5-0.2-18.7-0.3
	c-4.8-0.1-9.6-0.2-14.4-0.3c-5.3-0.1-10.6-0.2-15.8-0.2c-9.1-0.1-18.2-0.1-27.3-0.1c-6.5,0-12.9,0.2-19.4,0.2
	c-4.8,0-9.6-0.1-14.4-0.1c-6.2,0-12.3,0.2-18.5,0.2c-0.6,0-1.3,0-1.9,0c-14,0-28,0-42,0c-8.7,0-17.4,0.1-26.1,0
	c-6.9-0.1-13.7-0.4-20.6-0.6c-5.2-0.2-10.4-0.3-15.6,0c-4.4,0.3-8.8,0.3-13.2,0.3c-4.7,0.1-9.4,0.2-14.1,0.2
	c-4.6,0-9.1-0.2-13.7-0.2c-3.4,0-6.9-0.1-10.3-0.1c-6.6-0.1-13.1-0.1-19.7-0.2c-9.3-0.1-18.5-0.4-27.8-0.5
	c-5.1-0.1-10.2,0.1-15.3,0.1c-3.7,0-7.4-0.1-11-0.1c-1.9,0-3.8-0.1-5.8-0.1c-7.9-0.1-15.8-0.2-23.7-0.3c-2.7,0-5.4,0.1-8.2,0
	c-5.1-0.2-10.2,0-15.3-0.2c-3.1-0.1-6.2,0.1-9.3,0.1c-4.9,0-9.8,0.1-14.6,0.1c-5.9,0-11.8,0.1-17.7,0.5c-3.8,0.2-7.6,0.4-11.4,0.1
	c-1.1-0.1-2.2,0.2-3.3,0.2c-3.3,0-6.7,0.2-10-0.2c-2.9-0.3-5.9-0.2-8.9-0.2c-6.2,0-12.5,0.1-18.7,0.1c-10.6,0-21.3-0.1-31.9-0.1
	c-5.8,0-11.5,0-17.3,0c-2.8,0-5.6,0-8.4-0.1c-0.8,0-1.6-0.1-2.4-0.4c-2.3-0.7-4.6-1.4-6.9-2.1c-5.2-1.6-10.4-3.2-15.6-4.8
	c-1.7-0.5-3.4-0.9-5.1-1.1c-2.6-0.3-4.2-1.7-5.2-4c-1.7-4-1.4-2.8-0.6-6.6c0.7-3.1,2.7-5.2,5.3-6.9c4.7-3,9.7-5.2,15-6.8
	c5.6-1.7,11.2-2.3,17-2.8c6.4-0.5,12.8,0,19.1,0.4c1.6,0.1,3.2,0.1,4.8,0.2c10,0.7,20,0.5,30,0.5c5.5,0,11-0.1,16.5-0.1
	c4.1,0,8.2,0,12.2,0.1c8.4,0.2,16.8,0.5,25.1,0.7c2.1,0,4.1,0.2,6.2,0.2c5.1,0,10,0.8,15.1,1.1c3.9,0.2,7.8,0.6,11.7,0.9
	c6,0.6,11.9,1.2,17.9,1.8c7,0.7,14,1.3,21,2.1c3.9,0.4,7.8,0.9,11.7,1c5.4,0.2,10.8,0.3,16.3,0.5c4.2,0.2,8.5,0.5,12.7,0.6
	c2.6,0.1,5.3,0.1,7.9,0.2c1.7,0.1,3.3,0.2,5,0.3c2.5,0.1,5,0.2,7.4,0.2c3.8,0.1,7.7,0,11.5,0.1c8.4,0.1,16.8,0.3,25.2,0.5
	c4.4,0.1,8.8,0.1,13.2-0.3c6.8-0.6,13.6-1.8,20.3-3.6c0.8-0.2,1.7-0.4,2.3-1.2c-0.1-0.3-0.1-0.5-0.3-0.7c-2-2.3-4.4-4.2-7.1-5.7
	c-0.6-0.3-1.1-0.6-1.7-0.9c-1.8-1-3.7-1.4-5.8-1c-1,0.2-2.1,0.3-3.1,0.3c-5.1-0.1-10,0.7-15.1,1.1c-3.4,0.3-6.8,0.9-10.2,1.3
	c-5.1,0.6-10.2,0.9-15.3,1.1c-3.4,0.1-6.7,0.2-10.1,0.3c-2.7,0.1-5.2-0.5-7.9-0.7c-4.6-0.2-9.2-0.7-13.9-0.9
	c-3.3-0.1-6.6,0.2-9.8,0.2c-7.9,0.2-15.8,0.3-23.7,0.5c-2.6,0.1-5.3,0.4-7.9,0.6c-3.3,0.2-6.7,0.3-10-0.1c-2.4-0.3-4.9-0.4-7.4-0.5
	c-3.6-0.2-7.2-0.3-10.8-0.4c-2.6-0.1-5.3,0-7.9,0c-2.5,0-5-0.1-7.4-0.1c-4.7,0.1-9.4,0.1-14.1-0.2c-6.1-0.4-12.3-0.8-18.4-1.7
	c-3.6-0.5-7.3-0.7-11-1.1c-3.7-0.4-7.3-0.7-11-1.1c-6.2-0.7-12.4-1.2-18.6-1.4c-4.6-0.1-9.3-0.5-13.9-0.8c-4.9-0.4-9.7-0.9-14.6-1.3
	c-2.8-0.2-5.6-0.2-8.4-0.3c-0.8,0-1.6,0-2.4-0.1c-3.5-0.5-7-0.2-10.5-0.1c-9.8,0.4-19.7,0.4-29.5,0.2c-4.3-0.1-8.6-0.2-12.9-0.4
	c-4.4-0.3-8.8-0.6-12.9-2.2c-5-1.9-5.1-2.1-6.8-6.9c-0.5-1.3-1.1-2.6-1.1-3.9c0.1-2.1,0.7-4.1,1-6.1c0-0.2,0.1-0.3,0.2-0.5
	c0.4-2.5,2.2-3.6,4.2-4.4c0.4-0.2,0.9-0.3,1.4-0.4c2.3-0.5,4.7-1.2,7-1.6c2.3-0.4,4.6-0.7,6.9-0.9c5.9-0.6,11.8-0.7,17.7-1
	c4.8-0.2,9.6-0.3,14.4-0.5c6.1-0.3,12.1-0.6,18.2-1c5.3-0.4,10.5-0.9,15.8-0.9c5.4-0.1,10.9-0.3,16.3-0.4c0.5,0,1,0,1.4,0
	c2.8,0.2,5.6,0.3,8.4,0.5c2.6,0.2,5.3,0.4,7.9,0.6c6.4,0.5,12.7,0.9,19.1,1c2.9,0,5.7,0.2,8.6,0.4c0.5,0,1,0.1,1.4,0.1
	c6.1,0.2,12.1,0.2,18.2,0.5c6.6,0.4,13.1,0.2,19.7,0.2c6.4,0,12.8,0.2,19.2,0.3c4.8,0.1,9.6,0.2,14.4,0.4c3,0.1,6.1,0.4,9.1,0.6
	c0.5,0,1,0.1,1.4,0.1c3.7,0.3,7.5,0.6,11.2,0.9c1.3,0.1,2.6,0.1,3.8,0.2c4,0.2,8,0.3,12,0.6c4,0.4,8,0.5,12,0.6
	c1.6,0.1,3.2,0,4.8,0.1c1.4,0.1,2.9,0.3,4.3,0.3c2.1,0.1,4.2,0.2,6.2,0.1c3.5-0.1,7,0.2,10.5,0.4c1.8,0.1,3.5,0.1,5.3,0.2
	c5.7,0.3,11.3,0.6,17,1.1c3,0.2,6,0.7,9,1.3c3.6,0.7,7.1,1,10.7,0.8c2.6-0.1,5.3,0,7.9,0.4c3.1,0.5,6.2,0,9.3-0.7
	c1.2-0.3,2.2-0.9,3.1-1.7c2-1.8,1.2-4.9-1.3-5.5c-1.7-0.4-3.4-0.7-5.2-0.9c-2-0.3-4-0.3-6-0.6c-1-0.1-2-0.4-3.1-0.5
	c-6.2-1-12.4-1.5-18.6-1.3c-5.7,0.1-11.4,0.1-17,0.1c-3.4,0-6.7,0-10.1-0.1c-4.4-0.1-8.8-0.4-13.1-0.6c-3-0.1-5.9,0-8.9-0.1
	c-1.3,0-2.5-0.2-3.8-0.2c-1.9,0-3.8,0.1-5.7,0.2c-6.5,0.5-12.9,0.7-19.4,0.6c-0.8,0-1.6,0-2.4-0.2c-2.2-0.6-4.4-0.8-6.6-0.8
	c-3.7-0.1-7.3-0.3-11-0.3c-6.6-0.1-13.3-0.2-19.9-0.3c-7.8-0.1-15.5-0.4-23.2-0.4c-8.5-0.1-16.9-0.4-25.4-0.3
	c-8.5,0.2-17.1,0.2-25.7-0.2c-3.6-0.2-7.2-0.5-10.8-0.6c-1.8-0.1-3.7-0.1-5.5-0.2c-6.5-0.4-12.9-0.5-19.4-0.6
	c-5-0.1-10.1-0.5-15.1-0.7c-5.5-0.2-11-0.4-16.5-0.7c-6.9-0.3-13.7-0.7-20.6-1.2c-2.6-0.2-5.2-0.6-7.9-0.8c-3.3-0.3-6.5-0.6-9.8-0.9
	c-0.9-0.1-1.7-0.3-2.6-0.4c-0.7-0.1-1.4-0.3-2.1-0.4c-4-0.7-7.9-1.9-11.5-3.9c-0.6-0.3-1.1-0.6-1.6-1.1c-0.4-0.4-0.9-1-1.1-1.5
	c-0.4-1.3-0.7-2.6-1.1-3.9c-0.2-0.7,0.1-1.3,0.7-1.6c0.5-0.3,1.1-0.7,1.7-0.9c2.1-0.7,4.2-1.6,6.4-2.1c4.9-1.2,9.9-1.8,14.9-2.3
	c3.5-0.4,7-0.4,10.5-0.4c3.3,0,6.5,0.4,9.8,0.7c2.9,0.3,5.7,0.6,8.6,1.1c2.3,0.4,4.6,0.3,6.9,0c2.4-0.3,4.9-0.2,7.4-0.3
	c1.5-0.1,3-0.3,4.5-0.4c0.8-0.1,1.6-0.1,2.4-0.1c7.6,0,15.2-0.1,22.8-0.1c2.1,0,4.2-0.1,6.2-0.1c6.3-0.1,12.6-0.2,18.9-0.4
	c3.4-0.1,6.7-0.5,10-0.7c2-0.1,4-0.2,6-0.2c3.8-0.1,7.7-0.3,11.5-0.3c4.3,0,8.6,0.2,12.9,0.4c4.1,0.2,8.1,0.3,12.2,0.6
	c4.1,0.2,8.3,0.6,12.4,0.8c2.7,0.1,5.4,0.1,8.2,0.2c3.4,0.2,6.7,0.5,10,0.7c3.7,0.2,7.3,0.7,11,0.6c1,0,1.9,0,2.9-0.1
	c5.2-0.5,10.4-0.5,15.6-0.6c4.3,0,8.6-0.2,12.9-0.2c3.3,0,6.7,0.2,10,0.3c3.3,0,6.6-0.3,9.8-0.1c2.4,0.2,4.8,0.1,7.2,0.2
	c3.4,0.1,6.7,0,10.1,0.1c2.2,0.1,4.5,0.3,6.7,0.5c5.1,0.3,10.2,0.8,15.3,0.5c3.1-0.2,6.3,0,9.3-0.7c3.6-0.7,7.2-0.4,10.7-0.3
	c3.3,0,6.5,0.2,9.8,0.2c2.9,0,5.8,0,8.6-0.1c1.6-0.1,3.2-0.4,4.7-0.9c1.6-0.5,2.9-1.6,3.8-3c-0.3-0.7-0.7-1.1-1.4-1.2
	c-1.9-0.4-3.7-1.1-5.6-1.3c-6.3-0.7-12.6-0.6-18.9-0.3c-2.5,0.1-4.9,0.1-7.4,0.2c-5,0.1-10.1,0-15.1,0.3c-5,0.2-9.9,0.1-14.9,0.2
	c-2.1,0-4.1,0.2-6.2,0.4c-0.6,0-1.1,0.1-1.7,0.1c-5.3,0.1-10.6,0.1-15.8,0.2c-0.8,0-1.6,0.1-2.4,0.2c-0.5,0-1,0.1-1.4,0.1
	c-3.9-0.3-12.1-0.3-15.5,0c-0.3,0-0.6,0.1-1,0c-5.5-0.5-11-0.1-16.5-0.2c-1.9,0-3.8,0-5.7,0.1c-4.1,0.1-8.1,0.3-12.2,0.4
	c-5.7,0.2-11.3,0.5-17,0.4c-5.4-0.1-10.9,0-16.3-0.1c-5.8-0.1-11.7-0.3-17.5-0.4c-3-0.1-5.9,0-8.9,0c-8.6,0-17.3,0-25.9-0.1
	c-3.3,0-6.5-0.1-9.8-0.2c-4.2-0.1-8.4-0.3-12.7-0.5c-2.3-0.1-4.6-0.1-7-0.2c-3.5-0.2-7-0.4-10.5-0.7c-2.5-0.2-5.1-0.3-7.7-0.3
	c-2.9-0.1-5.9-0.1-8.8-0.1c-0.8,0-1.6,0.1-2.4,0.1c-3.4,0.3-6.7-0.2-10-0.3c-3.4-0.1-6.7-0.3-10.1-0.6c-5-0.4-10-0.8-15.1-1.2
	c-4.3-0.4-8.5-1.5-12.6-2.8c-0.9-0.3-1.8-0.6-2.8-0.8c-4.1-1.1-8-2.8-11.8-4.7c-1.6-0.8-2.7-2-3.3-3.6c-0.5-1.3-0.9-2.6-1.4-3.8
	c-0.8-2-0.7-4,0-6.1c0.6-2.2,1.5-4.2,2.8-6.1c1.7-2.5,4-4.3,6.9-5.3c2.6-0.9,5.2-2,7.9-2.7c4.4-1.1,8.9-2,13.4-2.2
	c3-0.2,5.9-0.4,8.9-0.3c3.6,0,7.2,0.2,10.8,0.3c4,0.2,8,0,12-0.3c0.7-0.1,1.4-0.1,2.2-0.1c2.7-0.1,5.4-0.3,8.1-0.4
	c1.6,0,3.2-0.1,4.8,0.2c7.4,1.1,14.7,2.2,22,3.3c5.5,0.8,10.9,1.7,16.4,2.3c4.8,0.6,9.6,0.8,14.3,1.2c6.1,0.6,12.3,0.5,18.5,0.4
	c2.7,0,5.4-0.2,8.1-0.3c5.8-0.2,11.7-0.4,17.5-0.7c6.3-0.3,12.6-0.6,18.9-1c4.9-0.3,9.9-0.8,14.8-1.2c3.2-0.2,6.4-0.4,9.6-0.6
	c3.3-0.2,6.7-0.5,10-0.7c3.9-0.2,7.8-0.5,11.7-0.6c3.4-0.1,6.9-0.1,10.3,0c3.1,0.1,6.2,0.3,9.3,0.4c2.9,0.1,5.7,0.1,8.6,0.2
	c1.3,0,2.5,0.2,3.8,0.3c2.6,0.2,5.3,0.4,7.9,0.4c4.1,0,8.2-0.2,12.2,0c5.4,0.2,10.7-0.3,16.1-0.5c7-0.2,14-0.8,21-1.8
	c2.8-0.4,5.6-0.6,8.3-1.1c2.7-0.5,5.3-1.2,8-1.7c2.1-0.4,3.2-2,4.3-3.6c0.6-0.8,0.2-3.3-0.5-3.9c-0.4-0.3-0.8-0.5-1.3-0.5
	c-3.1-0.4-6.1-1-9.3-1c-3,0-6.1-0.4-9.1-0.5c-3.5-0.1-7-0.1-10.5-0.1c-1.2,0-2.4,0.1-3.6,0.1c-5.1,0-10.2,0-15.3-0.4
	c-2.9-0.2-5.9,0-8.9,0c-4.2,0-8.5-0.1-12.7-0.1c-2.8,0-5.6,0.1-8.4,0.1c-3.4,0-6.9,0-10.3,0c-3.5,0-7,0-10.5,0c-1.6,0-3.2,0-4.8,0
	c-6.4,0.1-12.8,0.2-19.2,0.2c-5,0-10.1,0-15.1,0c-1.3,0-2.5,0.1-3.8,0.1c-5.8,0.1-11.5,0.2-17.3,0.3c-2.9,0.1-5.7,0.4-8.6,0.5
	c-2.6,0.2-5.3,0.3-7.9,0.5c-3.6,0.2-7.2,0.3-10.7,0.4c-1.8,0.1-3.7,0.1-5.5,0.1c-9.3,0.1-18.7,0-28-0.1c-5.8-0.1-11.5,0-17.3-0.1
	c-4.6-0.1-9.1-0.3-13.7-0.4c-5.9-0.2-11.8-0.3-17.7-0.6c-6.5-0.3-12.9-0.1-19.4-0.1c-5.3,0-10.5,0.1-15.8,0.2
	c-3.4,0-6.9-0.3-10.3-0.8c-3.9-0.7-7.9-1.2-11.8-1.9c-4.8-0.9-9.4-2.5-13.7-4.9c-1.9-1.1-3.8-2.3-5.7-3.6c-2.3-1.6-4.5-3.4-5.9-5.9
	c-0.4-0.7-0.5-1.4-0.6-2.3c-0.3-3.7,0.9-6.9,3.1-9.8c1.7-2.3,3.6-4.2,6.2-5.6c0.6-0.3,1.2-0.6,1.8-0.7c4.5-1.3,9-2.3,13.5-3.1
	c3.1-0.5,6.2-0.8,9.3-1c5.3-0.4,10.7-0.7,16-0.9c3.7-0.2,7.4-0.1,11-0.2c4.5-0.1,9.1-0.2,13.6-0.3c1.2,0,2.4,0,3.6,0
	c5.3,0.1,10.5,0.1,15.8,0.3c3,0.1,5.9,0.3,8.9,0.4c3,0,6.1,0.1,9.1,0.3c5.4,0.2,10.9,0.4,16.3,0.7c2.1,0.1,4.2,0.1,6.2,0.2
	c4,0.2,8,0.3,12,0.5c5.6,0.3,11.1,0.4,16.7,1.2c1.3,0.2,2.7,0.1,4.1,0.2c3.2,0.2,6.4,0.5,9.5,0.8c3,0.2,6.1,0.5,9.1,0.7
	c3.2,0.2,6.4,0.6,9.5,0.7c3.4,0.2,6.7,0.2,10.1,0.3c2.1,0.1,4.2,0.2,6.2,0.2c1.6,0,3.2-0.2,4.8-0.3c4.2-0.2,8.5-0.4,12.7-0.6
	c6.2-0.3,12.4-0.5,18.7-0.8c4.1-0.2,8.1-0.3,12.2-0.5c2.7-0.1,5.4-0.4,8.1-0.5c3.9-0.2,7.8-0.5,11.7-0.5c3.5,0,7,0.1,10.5,0.4
	c1.8,0.1,3.7-0.1,5.5-0.1c0.5,0,1-0.1,1.4-0.1c5.5,0.1,10.8-0.8,16.2-1.4c1.1-0.1,2.2-0.2,3.4-0.2c5.7-0.1,11.3-0.9,16.9-1.5
	c3.5-0.4,7-1,10.3-2.1c0.8-0.3,1.7-0.5,2.5-0.7c0.5-0.1,1.1-0.3,1.6-0.4c2-0.6,3.9-1.5,4.4-3.9c0.1-0.4,0.3-0.7,0.6-1.1
	c-0.3-0.6-0.6-1.3-1-1.9c-0.8-1.1-1.8-1.7-3.2-1.9c-10.1-1-20.3-1.2-30.4-0.7c-3.1,0.1-6.2,0.5-9.3,0.7c-3.3,0.2-6.5,0.5-9.8,0.6
	c-5.4,0.2-10.8,0.8-16.2,1.3c-3.5,0.3-7,0.5-10.5,0.7c-3.8,0.2-7.5,0.3-11.3,0.5c-6.1,0.3-12.3,0.6-18.4,0.9
	c-4.6,0.2-9.3,0.4-13.9,0.6c-5.4,0.3-10.9,0.6-16.3,0.9c-3,0.2-5.9,0.3-8.9,0.5c-4,0.3-8,0.7-11.9,1.1c-0.8,0.1-1.6,0.1-2.4,0.1
	c-3.3-0.1-6.5-0.2-9.8-0.3c-2.9-0.1-5.7-0.2-8.6-0.4c-5-0.4-10.1-0.5-15.1-0.2c-5.1,0.3-10.2,0.7-15.3,0.9c-2.8,0.1-5.6,0.1-8.4,0.1
	c-1,0-1.9,0-2.9,0c-9.6-0.2-19.2-0.5-28.8-0.7c-2.6-0.1-5.1-0.1-7.7-0.2c-4.7-0.3-9.4-0.6-14.1-1C92,89.6,89,89.4,86,89
	c-4-0.5-8-0.5-11.9-1.2c-2.2-0.4-4.5-0.2-6.7-0.3c-4-0.1-8-0.6-11.9-1.4c-3.1-0.6-6.3-1-9.5-1.5c-2.6-0.3-5-0.9-7.3-2.1
	c-2.3-1.2-4.6-2.2-6.9-3.3c-0.1-0.4-0.3-0.7-0.4-1c-1.4-4.5-1.4-4.7-0.2-9.1c0.2-0.6,0.4-1.2,0.8-1.7c1.6-2.2,3.6-4,5.9-5.5
	c1.3-0.9,2.8-1.2,4.2-1.6c6.2-1.6,12.4-3,18.8-3.6c5.2-0.5,10.5-1.2,15.7-1.7c1.9-0.2,3.8-0.1,5.8-0.2c4.6-0.1,9.3-0.4,13.9-0.2
	c5,0.2,9.9-0.3,14.8-0.4c6.1-0.2,12.1-0.3,18.2-0.5c3.8-0.1,7.5,0.2,11.2,0c4.6-0.2,9.3-0.1,13.9-0.2c3.4-0.1,6.9-0.4,10.3-0.3
	c3.4,0.1,6.7-0.2,10.1-0.3c2.6-0.1,5.2,0,7.9-0.1c2.6-0.1,5.1-0.2,7.7-0.4c2-0.1,4-0.3,6-0.5c2-0.2,4-0.3,6-0.4
	c2.8-0.2,5.6-0.6,8.3-0.7c2.9-0.2,5.8-0.2,8.6-0.3c7.7-0.2,15.3,0,23,0c6.6,0,13.3-0.1,19.9,0.2c8,0.3,16,0.4,24,0.4
	c13.2,0,26.4,0,39.6,0c3,0,5.9,0,8.9,0c1.2,0,2.4-0.3,3.6-0.4c1.5-0.2,3-0.4,4.5-0.5c2.4-0.1,4.8-0.3,7.2,0c0.6,0.1,1.3,0,1.9-0.1
	c3.9-0.6,7.8-0.5,11.7-0.6c1.6,0,3.2-0.2,4.8-0.4c1.7-0.2,3-1,3.4-2.8c0.2-0.8,0.5-1.5,0.7-2.2c-0.4-1.4-1.3-2.1-2.5-2.5
	c-1.7-0.6-3.5-1.2-5.3-1.6c-5.2-1-10.4-2-15.6-2.8c-3.2-0.5-6.5-0.5-9.8-0.7c-4.1-0.2-8.1,0.2-12.2,0.4c-4.2,0.2-8.3,0.2-12.5,0.3
	c-6.2,0.1-12.3,0.3-18.5,0.4c-0.2,0-0.3,0-0.5,0c-11.3,0-22.6,0-33.8,0c-2.4,0-4.8,0-7.2,0c-6.2,0-12.5,0-18.7-0.2
	c-4.1-0.1-8.1-0.5-12.2-0.8c-4.9-0.4-9.9-0.7-14.8-1.1c-4.9-0.4-9.9-0.8-14.8-1.2c-2-0.1-4-0.2-6-0.2c-4.3,0-8.6,0-13,0
	c-0.2,0-0.3,0-0.5,0c-4-0.5-8,0-12,0c-3.9,0-7.8,0-11.8,0c-3.4,0-6.9,0.1-10.3,0.2c-2.6,0.1-5.3,0.2-7.9,0.3c-1.1,0-2.2,0.1-3.3,0.1
	c-7.7,0.1-15.3,0.2-23,0.4c-4.2,0.1-8.5,0.3-12.7,0.4c-4,0.1-8,0.1-12-0.1c-2.5-0.1-4.9-0.5-7.4-0.7c-0.9-0.1-1.8-0.1-2.6-0.1
	c-3.4-0.2-6.9-0.3-10.3-0.7c-5.1-0.5-10.2-0.4-15.3-0.5c-2.2,0-4.3-0.2-6.5-0.3c-0.8,0-1.6-0.1-2.4-0.1c-3.8,0.3-7.5-0.4-11.2-0.8
	c-2.3-0.3-4.6-0.5-6.9-0.3c-0.7,0.1-1.4,0.1-2.2,0c-3.5-0.4-7-0.3-10.5-0.3c-0.3,0-0.7,0-1,0c-1.9,0.5-3.9,0.4-5.8,0.5
	C-0.2,27.3-0.2,22.1-0.2,17z M611,43.8c1.6,1.2,1.6,1.2,3.4,1.2c1.8,0,3.7-0.1,5.5-0.1c2.4,0,4.8,0.2,7.2,0.1
	c6.3-0.1,12.6,0,18.9-0.5c3.9-0.3,7.8-0.4,11.7-0.6c2.5-0.1,4.9-0.4,7.4-0.6c3.6-0.3,7.2-0.6,10.7-0.9c4.8-0.5,9.7-1.1,14.6-1.3
	c4.4-0.1,8.8-0.4,13.2-0.7c3-0.2,6-0.7,9-1.6c-0.7-0.6-1.3-0.5-1.9-0.4c-2.6,0.1-5.1,0.3-7.7,0.3c-3.8,0-7.5-0.3-11.2-0.4
	c-1.5-0.1-3-0.1-4.6-0.1c-3.1,0-6.2-0.2-9.3-0.1c-5.4,0.2-10.7-0.2-16-0.5c-3.6-0.2-7.2-0.6-10.7-0.8c-4.6-0.3-9.3-0.5-13.9-0.7
	c-5-0.3-10.1-0.5-15.1-0.7c-4.2-0.2-8.3-0.3-12.5-0.4c-0.5,0-1-0.1-1.4,0c-1.7,0.1-3.5,0.2-5.2,0.2c-2.7,0.1-5.4,0.1-8.2,0.2
	c-6.3,0.2-12.6,0.6-18.9,0.7c-8.6,0.2-17.1,0.2-25.6-0.4c-1.1-0.1-2.2-0.1-3.4-0.2c-4.1-0.3-8.3-0.6-12.4-0.8
	c-4.9-0.3-9.7-0.5-14.6-0.8c-4.6-0.2-9.3-0.4-13.9-0.7c-3.1-0.2-6.2-0.5-9.3-0.7c-4.9-0.4-9.7-0.7-14.6-1.1
	c-2.8-0.2-5.6-0.5-8.3-0.7c-3.5-0.3-7-0.7-10.5-0.7c-4.6,0-9.3,0.2-13.9,0.6c-4.7,0.3-9.4,0.9-14.1,1.4c-1.5,0.1-2.7,0.9-3.9,1.7
	c-1.7,1.3-2.1,2.7-0.9,5.1c0.6,1.1,1.6,1.6,2.7,1.8c1,0.2,2,0.4,3.1,0.5c3.4,0.6,6.8,1.2,10.1,1.7c1.3,0.2,2.5,0.5,3.8,0
	c0.3-0.1,0.6-0.2,0.9-0.1c2.5,0.2,5.1,0.4,7.6,0.6c4.2,0.4,8.4,0.8,12.7,1c3.7,0.2,7.4,0.2,11,0.2c5.4,0,10.9,0.4,16.3,0
	c0.6,0,1.3,0.1,1.9,0.1c1.1,0.1,2.2,0.1,3.4,0.1c3.7,0,7.3,0,11-0.2c4.5-0.2,9.1-0.2,13.7-0.2c1.4,0,2.7,0,4.1,0
	c5-0.1,10.1-0.4,15.1-0.5c7.9-0.1,15.8-0.2,23.7-0.3c0.3,0,0.6,0,1,0c3.8,0,7.7,0,11.5,0.1c0.2,0,0.5,0.1,0.7,0.1
	c3.2,0.2,6.4,0.5,9.6,0.7c3.4,0.2,6.9,0.3,10.3,0.4c1.4,0.1,2.7,0.1,4.1,0.1c0.7,0,1.2-0.2,1.6-0.8C610.5,44,610.8,43.9,611,43.8z
	 M713.6,38.4c0,0.1,0.1,0.2,0.1,0.2c0.3,0,0.6-0.1,0.8-0.1c0,0,0-0.1,0-0.1c-0.3,0-0.6-0.1-0.8-0.1
	C713.7,38.3,713.6,38.4,713.6,38.4z"/>
<path class="st2" d="M792.2,593c-0.7,0.5-1.5,0.5-2.3,0.5c-3.8,0-7.7,0.1-11.5-0.3c-0.7-0.1-1.4,0-2.2,0c-5.4-0.1-10.9-0.1-16.3-0.2
	c-3.7-0.1-7.5-0.2-11.2-0.2c-4.9-0.1-9.9-0.1-14.8-0.3c-4.1-0.2-8.3-0.6-12.4-0.8c-3.2-0.1-6.4-0.1-9.6,0c-3.1,0.1-6.2,0.2-9.3,0.3
	c-3.4,0.1-6.9,0.2-10.3,0.4c-2,0.1-4,0.1-6,0.1c-6.4,0.1-12.8,0.1-19.2,0.2c-7.9,0.1-15.8,0.2-23.7,0.3c-4.3,0.1-8.6,0.1-13,0.2
	c-5.3,0.1-10.6,0.2-15.8,0.5c-5.5,0.4-11,0.2-16.5,0.4c-5.3,0.2-10.5,0.3-15.8,0.4c-0.7,0-1.4,0-2.2,0.1c-4.9,0.1-9.7,0.2-14.6,0.4
	c-7.7,0.4-15.5,0.4-23.3,0.4c-7.4,0-14.7,0-22.1,0c-4.2,0-8.5-0.2-12.7-0.3c-6-0.1-12,0-18,0c-5.5,0-11,0-16.5-0.2
	c-5.4-0.2-10.8-0.6-16.3-0.8c-2-0.1-4-0.3-6-0.3c-0.7,0-1.4,0.1-2.1,0.2c-6.3,1-12.5,1.3-18.9,0.7c-2.3-0.2-4.6-0.5-6.9-1.1
	c-2.3-0.6-4.3-1.8-5.7-3.8c-2.5-3.3-4.1-7-5-11.1c-0.2-1.1-0.2-2.2-0.1-3.3c0.3-1.7,0.6-3.5,1.2-5.1c1.3-3.7,4-5.7,7.8-6.1
	c3.1-0.3,6.2-0.7,9.3-0.8c2.3-0.1,4.6,0.1,6.9,0.3c3.8,0.4,7.6,0.8,11.4,1.2c2,0.2,4,0.5,6,0.5c1.7,0,3.5-0.2,5.2-0.4
	c3.6-0.3,7.2-0.6,10.8-0.8c2.2-0.1,4.5-0.1,6.7-0.1c6.3-0.1,12.6-0.4,18.9-1.1c4.3-0.5,8.6-0.3,12.9-0.3c6.4,0,12.8,0,19.2,0
	c3.9,0,7.8-0.1,11.7-0.2c4.9,0,9.7-0.2,14.6-0.7c2.4-0.2,4.8-0.3,7.2-0.2c3,0,5.9,0.3,8.9,0.3c3.4,0.1,6.7,0.1,10.1,0.3
	c4.3,0.2,8.6,0.5,12.9,0.7c5,0.2,9.9,0.5,14.9,0.2c0.5,0,1-0.1,1.4,0c4.6,0,9.3,0,13.9,0.2c1.8,0.1,3.7,0.3,5.5,0
	c0.8-0.1,1.6-0.1,2.4,0c1.7,0.2,3.5,0.4,5.2,0c0.4-0.1,0.8,0,1.2,0c6.2,0.2,12.4,0,18.6-0.5c0.7-0.1,1.4,0,2.2,0
	c6.1,0,12.2,0,18.2,0c3.8,0,7.5,0,11.3-0.2c3.4-0.3,6.8-0.1,10.3-0.2c4.9-0.2,9.9-0.3,14.8-0.8c0.3,0,0.6-0.1,1-0.1
	c2.8,0.2,5.4-0.5,8-1.1c3.3-0.8,6.6-1.1,10-1.5c1.7-0.2,3.3-0.5,5-0.8c0.8-0.1,1.5-0.3,2.2-1.1c-1.2-1.4-2.3-2.5-4.1-3.1
	c-5.3-1.7-10.7-2.6-16.2-3c-3.7-0.3-7.3-0.3-11-1c-1.1-0.2-2.4,0-3.6,0c-2.5-0.2-5.1-0.5-7.6-0.8c-6.2-0.6-12.4-1.2-18.6-1.9
	c-3.7-0.4-7.5-0.9-11.2-1.1c-6.3-0.5-12.6-1.1-18.9-1.2c-3.4-0.1-6.9-0.4-10.3-0.6c-2.6-0.2-5.3-0.3-7.9-0.4
	c-4.7-0.2-9.4-0.4-14.1-0.5c-4.6-0.1-9.3-0.2-13.9-0.3c-1.9,0-3.8-0.1-5.8-0.1c-3-0.1-6.1-0.2-9.1-0.2c-5.1,0-10.2-0.1-15.3,0
	c-5.8,0.1-11.5,0.2-17.3,0.4c-6,0.2-12,0.6-17.9,0.9c-4.2,0.2-8.4,0.5-12.7,0.8c-1.6,0.1-3.2,0.1-4.8,0.1c-4.4,0.2-8.8,0.2-13.2,0.6
	c-5,0.4-10.1,0.3-15.1,0.5c-2.9,0.1-5.7,0.4-8.6,0.7c-3.4,0.3-6.8,0.7-10.2,1.1c-3.3,0.4-6.5,0.8-9.8,1.1c-1.2,0.1-2.4,0.3-3.6,0.3
	c-3.7,0.2-7.3,0.4-11,0.5c-3,0.1-5.9,0.1-8.9,0c-3.4,0-6.7-0.1-10.1-0.1c-1.1,0-2.2-0.2-3.3-0.3c-2-0.2-4-0.4-6-0.6
	c-1.9-0.2-3.3-0.9-4.3-2.6c-0.7-1.2-1.7-2.1-2.6-3.2c-0.8-1-1.2-2-1-3.3c0.2-1.6,0.6-3.1,1.4-4.5c0.9-1.6,1.7-3.2,2.7-4.8
	c0.6-1,1.4-1.7,2.3-2.3c1.1-0.7,2.1-1.4,3.2-2.1c2-1.3,4-2.7,6-4c0.4-0.3,0.8-0.5,1.3-0.6c3-1.1,6-2.2,9-3.3c3-1.1,6.2-1.5,9.4-1.9
	c3.5-0.4,7-0.8,10.5-1.1c6.8-0.6,13.7-1.2,20.5-1.6c3.4-0.2,6.9-0.2,10.3-0.4c3.5-0.1,7-0.4,10.5-0.5c10.1-0.5,20.1-0.5,30.2-0.5
	c4.1,0,8.3-0.1,12.4-0.2c0.7,0,1.4,0,2.2,0c3,0.1,6.1,0.1,9.1,0.2c4.2,0.1,8.3,0.2,12.5,0.4c0.4,0,0.8,0,1.2-0.1
	c0.4,0,0.8-0.1,1.2-0.1c3.5,0.1,7,0.1,10.5,0.2c0.6,0,1.2,0.2,1.7,0c1.3-0.5,2.7-0.2,4-0.2c3,0,6.1,0,9.1-0.1c1,0,1.9-0.1,2.9-0.1
	c6.5-0.2,12.9-0.3,19.4-0.5c3.9-0.1,7.8-0.2,11.7-0.5c4.6-0.4,9.3-0.4,13.9-0.4c4.9-0.1,9.9,0.1,14.8-0.1c2.3-0.1,4.6,0,6.9,0
	c5.3-0.1,10.7-0.4,16-0.6c0.9,0,1.8-0.1,2.6-0.1c4.6-0.3,9.3-0.4,13.9-1.1c4-0.6,8.1-0.6,12.1-1.1c3.4-0.4,6.9-0.2,10.3-0.4
	c6.2-0.4,12.4-0.4,18.6-1.6c0.5-0.1,1.1-0.1,1.7-0.1c4,0.1,8-0.5,11.9-1.5c1-0.3,2-0.3,3.1-0.5c1.4-0.2,2.7-0.5,3.5-1.8
	c0.1-0.2,0.4-0.3,0.5-0.5c2-1.7,2.8-3.9,1.9-6.5c-1.7-1.5-3.8-1.4-5.8-1.6c-5.2-0.5-10.3-0.9-15.5-1.2c-4.2-0.2-8.4-0.2-12.7-0.3
	c-3.1-0.1-6.2-0.1-9.3-0.2c-5.2-0.1-10.4-0.1-15.6-0.2c-5.8,0-11.7,0-17.5-0.1c-3.2,0-6.4-0.3-9.6-0.2c-6.5,0.1-12.9,0-19.4-0.1
	c-1,0-2.1,0.2-3.1,0.4c-3.6,0.6-7.3,0.6-11,0.6c-3.4,0.1-6.9-0.1-10.3,0.2c-3.4,0.3-6.9,0.2-10.3,0.4c-3.8,0.2-7.6,0.5-11.5,0.7
	c-2.3,0.1-4.6,0.2-6.9,0.3c-3,0.2-6.1,0.4-9.1,0.6c-3.3,0.2-6.5,0.3-9.8,0.5c-1.8,0.1-3.7,0.3-5.5,0.4c-1.4,0.1-2.7,0.2-4.1,0.2
	c-5,0.2-10,0.3-15.1,0.4c-1.5,0-3,0.2-4.5,0.3c-1.6,0-3.2-0.1-4.8,0c-5.4,0.1-10.8,0.2-16.3,0.3c-5.7,0.1-11.5,0.3-17.2,0.5
	c-2.9,0.1-5.7,0.4-8.6,0.4c-3.6,0.1-7.2,0-10.8-0.1c-1.5,0-3,0-4.5-0.1c-1.6-0.1-3.2-0.2-4.8-0.2c-5.8,0-11.5,0-17.3,0
	c-5.4,0-10.9,0.1-16.3-0.1c-3.3-0.1-6.5-0.5-9.8-0.8c-0.8-0.1-1.6-0.2-2.4,0c-2.5,0.7-5.1,0.5-7.6,0.3c-4.1-0.3-8.1-0.6-12.2-1
	c-4.1-0.4-8.1-0.9-12.1-1.5c-1.6-0.3-3.2-1-4.7-1.6c-0.3-0.1-0.5-0.4-0.7-0.6c-1.2-1.1-2.3-2.2-3.5-3.3c-1.2-1.2-2.1-2.6-2.2-4.4
	c-0.1-1.5-0.4-3-0.7-4.5c-0.2-1.4,0-2.7,1.2-3.7c0.7-0.6,1.3-1.4,2-2c2.1-1.8,4.6-3,7.2-3.7c3.1-0.8,6.1-1.8,9.1-3
	c3.4-1.4,7-2.3,10.6-3c1.3-0.3,2.6-0.7,4-0.9c3.4-0.6,6.8-0.5,10.3-0.5c2,0,4,0.2,6,0.2c2.2,0,4.3-0.1,6.5-0.2
	c6.2-0.1,12.3-0.2,18.5-0.3c1.4,0,2.9-0.3,4.2-0.7c0.7-0.2,1.4-0.3,2.1-0.3c2-0.1,4-0.2,5.9-0.6c1.3-0.3,2.7-0.5,4-0.5
	c1.6,0,3.2-0.2,4.8-0.2c3.2-0.1,6.4-0.1,9.6-0.1c1.8,0,3.5,0,5.3,0c5.7,0.1,11.3,0.2,17,0.3c2.1,0,4.1,0.1,6.2,0.1
	c6.3,0.1,12.6,0.3,18.9,0.3c6.8,0,13.6-0.1,20.4-0.2c3.2,0,6.4,0.1,9.6,0c3.4,0,6.7-0.1,10.1-0.2c4.6-0.1,9.3-0.2,13.9-0.2
	c5.8,0,11.5,0.2,17.3,0.3c1.1,0,2.2-0.1,3.3-0.1c4.5,0.1,8.9,0.4,13.4,0.4c5.4,0,10.9,0.6,16.3,0.3c1.8-0.1,3.7,0.2,5.5,0.2
	c4.2,0,8.5-0.1,12.7-0.1c2.2,0,4.5,0,6.7,0c4.9-0.1,9.7,0.2,14.6,0.3c4.7,0.2,9.4,0.1,14.1,0.2c3.4,0,6.9,0.1,10.3,0.1
	c3.6,0,7.2,0.1,10.8-0.3c1.3-0.2,2.7-0.2,4.1-0.2c4.3-0.1,8.4-0.8,12.5-2.1c2.1-0.6,4.1-1.2,6.2-1.7c1.4-0.3,2.1-1.3,2.8-2.4
	c0.3-0.5,0.2-1.1-0.3-1.5c-1.6-1.3-3.4-2.4-5.4-3c-2.4-0.7-4.8-1.3-7.2-1.9c-5-1.3-10-2.1-15.1-2.7c-5.3-0.7-10.7-0.8-16-1.3
	c-1.8-0.2-3.7,0.1-5.5,0.2c-2.1,0.1-4.3,0.1-6.4,0.3c-3.7,0.3-7.5,0.6-11.2,0.9c-1.9,0.1-3.8,0.1-5.7,0.1c-5.5,0-11,0.1-16.5,0.4
	c-5,0.3-10.1,0.4-15.1,0.6c-6.3,0.2-12.6,0.4-18.9,0.6c-4.6,0.2-9.3,0.3-13.9,0.5c-4,0.1-8,0.1-12,0.2c-4.6,0.1-9.1-0.3-13.6-0.3
	c-4.2,0-8.5-0.1-12.7-0.2c-5.5-0.2-11-0.5-16.5-0.5c-8-0.1-16-0.1-24-0.1c-1.8,0-3.7,0.3-5.5,0.2c-2.6-0.3-5.3,0.1-7.9,0.1
	c-9.1,0-18.2,0-27.3,0c-3.9,0-7.8,0.1-11.7-0.2c-3.1-0.3-6.2-0.2-9.3-0.3c-4-0.2-8-0.5-12-0.6c-4.9-0.2-9.8-0.1-14.6-0.3
	c-4.4-0.2-8.8-0.3-13.1-0.8c-4.1-0.5-8.2-1.4-12.3-1.8c-2.6-0.3-4.9-1.4-7.3-2.3c-3-1.2-5.4-3.4-8-5.2c-0.3-0.2-0.5-0.4-0.7-0.7
	c-0.8-1-0.8-1.9,0-2.8c0.8-0.9,1.7-1.7,2.6-2.5c0.5-0.4,1-0.8,1.4-1.3c1.2-1.3,2.7-2,4.3-2.5c2.6-0.8,5.2-1.7,7.7-2.5
	c2.8-0.9,5.6-1.9,8.5-2.3c0.6-0.1,1.3-0.2,1.9-0.1c5.6,0,11.2,0,16.8-0.4c2.3-0.2,4.6-0.1,6.9-0.1c4.1-0.1,8.3-0.2,12.4-0.3
	c2.4-0.1,4.8-0.2,7.2-0.3c2.4-0.1,4.8-0.3,7.2-0.4c0.3,0,0.6,0,1-0.1c3.5-0.1,7-0.2,10.5-0.4c2.5-0.2,4.9-0.1,7.4-0.3
	c2.4-0.2,4.8-0.2,7.2-0.2c2.5,0,5,0,7.4-0.1c3.1-0.1,6.2-0.2,9.3-0.3c2.2,0,4.5,0,6.7,0c6.6,0,13.3,0.1,19.9,0.1
	c2.6,0,5.3-0.1,7.9-0.1c2.8,0,5.6,0.2,8.4,0.2c1.8,0,3.7-0.1,5.5-0.1c1,0,2.1,0.1,3.1,0.1c1.2,0,2.4,0,3.6-0.1c0.2,0,0.3,0,0.5,0
	c3.2,0,6.4,0.1,9.6,0.1c0.3,0,0.6,0,1,0c1.7,0,3.3,0,5,0c0.8,0,1.6,0.1,2.4,0.1c6.7,0,13.4,0.1,20.1,0.3c2.5,0.1,5.1,0,7.6,0.1
	c3.3,0.1,6.5,0,9.8,0.1c4.2,0,8.5,0.1,12.7,0.1c4.5,0,9-0.1,13.4-0.2c4.2-0.1,8.5-0.2,12.7-0.3c3.2,0,6.4,0,9.6,0
	c3,0,5.9-0.1,8.8-0.5c0.6-0.1,1.3,0,1.9,0c3.9-0.1,7.8-0.1,11.8-0.2c3.3-0.1,6.5-0.4,9.8-0.4c3.4,0,6.7,0.2,10.1,0.3
	c1.5,0,3,0.1,4.5,0c4.2-0.3,8.4-0.7,12.7-1.1c2.8-0.3,5.6-0.6,8.3-1c0.7-0.1,1.4-0.3,2.3-0.6c-0.5-0.4-0.7-0.8-1-0.9
	c-2.7-1.3-5.6-2.3-8.7-2.4c-3.2-0.1-6.4-0.3-9.6-0.5c-3.3-0.2-6.7-0.6-10-0.9c-4.9-0.4-9.9-0.7-14.8-1c-3.6-0.3-7.2-0.6-10.7-0.8
	c-1.7-0.1-3.4,0-5-0.2c-4.1-0.5-8.1-0.2-12.2-0.4c-4.3-0.2-8.6-0.4-12.9-0.5c-3.1-0.1-6.2-0.3-9.3-0.2c-2.5,0.1-5.1-0.2-7.7-0.3
	c-5.3-0.2-10.5-0.4-15.8-0.6c-4.2-0.2-8.5-0.4-12.7-0.1c-2.5,0.1-5-0.1-7.4-0.1c-1.8,0-3.7,0.1-5.5,0.1c-2.5,0-4.9,0-7.4,0
	c-0.5,0-1,0-1.4,0c-2.6,0-5.1,0-7.7,0c-1.8,0-3.5,0.1-5.3,0.1c-4.2,0-8.5,0.1-12.7,0c-3.4-0.1-6.9-0.4-10.3-0.4
	c-2.9,0-5.7-0.3-8.6-0.1c-3.5,0.2-7,0.2-10.5,0.3c-3.8,0.1-7.7,0.3-11.5,0.4c-3.4,0.1-6.9,0.3-10.3,0.5c-4.3,0.2-8.6,0.5-12.9,0.7
	c-2.7,0.1-5.4,0.1-8.1,0.1c-1.8,0-3.7,0-5.5,0c-6.8,0-13.6,0-20.4-0.1c-5.3,0-10.5,0-15.8-0.1c-2.4,0-4.8-0.2-7.2-0.4
	c-3.9-0.4-7.8-0.8-11.7-1.2c-5.2-0.6-10.3-1.3-15.4-1.9c-1.3-0.2-2.7-0.3-4-0.6c-3.9-0.7-4.2-0.8-7.7-3c-0.7-0.4-1.3-0.9-2-1.3
	c-1.5-0.7-2.3-1.9-2.9-3.4c-0.7-1.7-1.3-3.4-1.9-5.2c-0.3-0.9-0.3-1.7,0.3-2.5c1.1-1.5,2.1-3.2,3.3-4.7c0.9-1.1,1.9-2.2,3-3.1
	c2.5-2,5.2-3.2,8.5-3.3c2.5,0,5.1-0.5,7.6-0.3c1.2,0.1,2.4-0.4,3.5-0.3c1.7,0.1,3.5,0.4,5.2,0.5c0.5,0.1,1,0.1,1.4,0.1
	c3.3,0,6.5,0.4,9.8,0.6c2.5,0.2,5,0.1,7.4,0.5c3.6,0.6,7.3,0.5,11,0.8c3.8,0.3,7.7,0.1,11.5,0.1c5.9,0,11.8,0,17.8,0
	c5.8,0,11.7-0.1,17.5,0.2c6.7,0.4,13.4,0.1,20.1,0.3c4.5,0.1,9,0.1,13.4,0.2c3.8,0.1,7.5,0.3,11.3,0.4c4.4,0.1,8.8,0.4,13.2,0.3
	c5.6-0.1,11.2-0.5,16.8-0.7c3.4-0.2,6.9-0.3,10.3-0.4c1.8-0.1,3.7-0.3,5.5-0.4c0.6,0,1.1-0.1,1.7-0.1c2.7-0.1,5.4,0,8.1-0.2
	c6-0.5,12-0.4,18-0.5c9.1-0.2,18.2-0.1,27.3-0.2c8.2-0.1,16.5,0,24.7-0.2c5-0.1,10.1-0.2,15.1-0.2c3.8,0,7.7,0.1,11.5,0.1
	c3.3,0,6.5-0.3,9.8-0.3c4.6,0,9.2-0.7,13.8-1.1c4.4-0.3,8.7-1.1,12.9-2.7c1.9-0.7,3.8-1.3,5.7-1.8c1.1-0.3,2.1-0.8,2.8-1.6
	c0.6-0.6,1.2-1.2,1.9-1.9c-0.3-0.2-0.6-0.4-0.8-0.5c-1.8-0.8-3.6-1.7-5.4-2.5c-1.3-0.6-2.6-0.8-4-0.7c-4.5,0.3-8.9,0.6-13.4,0.8
	c-2.8,0.1-5.6,0.1-8.4,0.2c-4.2,0.1-8.3,0.2-12.5,0.3c-3.9,0.1-7.8,0-11.7,0.1c-3.8,0-7.7,0.1-11.5,0.1c-5,0-10.1-0.1-15.1-0.1
	c-3.8,0-7.5,0-11.3-0.1c-3.3-0.1-6.5-0.3-9.8-0.4c-1.3,0-2.6,0-3.8-0.1c-4.2-0.2-8.5-0.5-12.7-0.7c-3-0.1-6.1-0.1-9.1-0.1
	c-5.9,0-11.8-0.1-17.7-0.1c-3.2,0-6.4,0-9.6-0.1c-8.1-0.1-16.1-0.3-24.2-0.4c-5-0.1-9.9,0-14.9-0.1c-3.6-0.1-7.2-0.3-10.8-0.4
	c-4.8-0.1-9.6-0.3-14.4-0.4c-0.6,0-1.2,0.1-1.7-0.1c-1.5-0.7-3.1-0.5-4.7-0.5c-6.4,0-12.8,0.1-19.2,0c-4-0.1-8-0.4-12-0.7
	c-3-0.2-6.1-0.4-9.1-0.6c-4.9-0.4-9.7-0.7-14.6-0.6c-3.8,0.1-7.5,0.3-11.3,0.4c-2.8,0.1-5.6,0.3-8.4-0.3c-0.8-0.2-1.6,0-2.4,0
	c-0.7,0-1.4,0.1-2.2,0.1c-4.7,0.2-9.4,0.3-14.1,0.5c-2.5,0.1-4.9,0.5-7.4,0.6c-2.4,0.1-4.8,0.2-7.2,0.1c-2.7-0.1-5.4-0.4-8.1-0.8
	c-3.6-0.5-6.1-2.5-8-5.6c-2.7-4.5-4-9.4-3.6-14.7c0-0.5,0.2-1.1,0.6-1.5c0.7-0.8,1.5-1.7,2.4-2.3c2.1-1.2,4.2-2.3,6.5-3
	c4.3-1.3,8.7-1.8,13.2-2.3c2.1-0.2,4.3-0.5,6.4-0.9c3.9-0.7,7.9-1,11.9-1c6.1-0.1,12.2,0,18.2-0.1c6.6-0.2,13.1-0.5,19.7-0.4
	c1,0,1.9,0.2,2.9,0.2c1.7,0.1,3.4,0.2,5,0.1c5.4-0.1,10.9,0,16.3,0.4c1.1,0.1,2.2,0,3.4,0.1c6.2,0.2,12.5,0.3,18.7,0.7
	c4.6,0.2,9.3,0.3,13.9,0.5c4.9,0.2,9.7,0.4,14.6,0.4c4.6,0.1,9.3,0.3,13.9,0.4c8.6,0.2,17.1,0.3,25.7,0.6c3.6,0.1,7.2,0,10.8,0
	c5.5,0,11-0.2,16.5-0.2c2.9,0,5.8,0,8.6,0c6.8-0.1,13.6-0.2,20.4-0.4c1.9,0,3.8-0.1,5.8-0.1c3.8-0.1,7.5-0.1,11.3-0.3
	c3.4-0.2,6.9,0,10.3-0.4c2.6-0.3,5.3-0.1,7.9-0.2c4.4-0.2,8.8-0.5,13.1-0.7c2.1-0.1,4.2-0.1,6.2-0.2c3.5-0.2,7-0.3,10.5-0.5
	c3.1-0.2,6.2-0.5,9.3-0.9c3.1-0.3,6.2-0.5,9.3-0.4c2,0.1,4,0.1,6,0c3.8-0.1,7.5-0.5,11-1.9c1.7-0.7,3.3-1.6,4.6-3
	c2-2.3,1.8-5.8-0.5-7.7c-1.2-1-2.5-1.4-4-1.2c-2.1,0.2-4.3,0.6-6.4,0.9c-1.9,0.2-3.8,0.5-5.7,0.6c-3,0.1-5.9,0.2-8.9,0.2
	c-3.8,0.1-7.5,0.1-11.3,0.2c-2.1,0-4.2,0-6.2,0c-6.4,0.1-12.8,0.3-19.2,0.5c-5,0.1-9.9,0.3-14.9,0.5c-3.4,0.2-6.8,0.5-10.3,0.7
	c-1.2,0.1-2.4,0-3.6,0.1c-5.2,0.4-10.4,0.8-15.5,1.1c-4.9,0.3-9.9,0.5-14.8,1c-3.8,0.4-7.5,0.4-11.3,0.4c-4.8,0-9.6,0.1-14.4,0.1
	c-5,0.1-10.1,0.2-15.1,0.2c-8-0.1-16-0.3-24-0.4c-5.7-0.1-11.3-0.2-17-0.3c-5.4-0.1-10.7,0-16.1-0.2c-8-0.4-16-0.2-24-0.3
	c-5.9-0.1-11.8-0.4-17.7-0.5c-6.7-0.1-13.4-0.1-20.2-0.2c-1.1,0-2.2-0.1-3.3-0.2c-1.4,0-2.9-0.1-4.3,0.1c-2.3,0.2-4.6,0.1-7,0
	c-1.4,0-2.9-0.2-4.3-0.2c-8-0.1-16,0-24-0.2c-18.8-0.5-37.6-0.1-56.4-0.3c-4.4-0.5-8.8,0.1-13.1-0.2c-1.9-0.1-3.8-0.2-5.7-0.3
	c-1.8,0-3.7,0.1-5.5,0.1c-2.1-0.1-4.3,0.1-6.4,0.1c-3.8,0-7.7,0-11.5,0c-3.6,0-7.2,0-10.8,0c-2.1,0-4.3,0.2-6.4,0
	c-3.7-0.3-7.3-0.1-11-0.2c-4.8-0.1-9.6-0.1-14.4-0.1c-3.2,0-6.4,0-9.6,0c-5.3,0.1-10.5,0.2-15.8,0.2c-12.3,0-24.6,0-36.9,0
	c-10.2,0-20.3,0.2-30.5,0.2c-8.2,0-16.5-0.2-24.7-0.2c-2.1,0-4.3,0.3-6.4,0c-3.4-0.4-6.8-0.1-10.3-0.3c-2.1-0.1-4.3,0.1-6.4-0.1
	c-2.2-0.2-4.4-0.3-6.7-0.4c-3.1-0.2-6.2-0.3-9.3-0.5c-2.1-0.1-4.1-0.5-6.2-0.7c-1-0.1-1.9-0.2-2.9-0.3c-4.4-0.2-8.8-0.4-13.2-0.6
	c-4.9-0.3-9.9-0.4-14.8-0.5c-1.6,0-3.2-0.2-4.8-0.2c-1.5,0-3,0.1-4.5,0.2c-1.4,0.1-2.8,0.1-4.2,0.1c-2.2,0.1-4.5,0.4-6.6-0.4
	c-0.6-0.2-1.3-0.1-1.9-0.1c-4.2,0-8.3,0-12.5,0.4c-0.6,0.1-1.3,0-1.9,0c-4.2,0-8.3-0.1-12.5,0c-3,0.1-6.1,0.3-9.1,0.4
	c-0.7,0-1.5,0.1-2.2,0c-1.8-0.3-3.5,0-5.3,0.1c-2.2,0.1-3.3,1.6-2.8,3.7c0.6,2.4,1.9,4.2,4.3,5.1c2.3,0.9,4.8,1.3,7.3,1.3
	c8.4,0,16.8,0,25.2-0.1c5-0.1,10.1-0.3,15.1-0.4c5-0.1,9.9-0.2,14.9-0.3c5-0.1,9.9,0,14.9-0.2c9.3-0.4,18.5-0.2,27.8-0.5
	c13.7-0.4,27.5-0.3,41.2-0.2c8.6,0.1,17.1-0.1,25.6-0.1c9.3,0.1,18.5,0,27.8-0.2c3.5,0,7-0.1,10.5,0c3.7,0.1,7.3-0.1,11-0.1
	c3,0,5.9,0.1,8.9,0.1c2.1,0,4.1-0.1,6.2-0.2c2.9-0.2,5.9-0.2,8.9-0.2c4.7,0,9.4,0.1,14.2,0.1c6.4,0,12.8,0,19.2,0.1
	c5.6,0.1,11.2,0.1,16.8,0.4c4.5,0.2,8.9,0.7,13.4,1.1c4.6,0.4,9.2,0.9,13.8,1.3c1.8,0.2,3.5,0.4,5.2,1c2.3,0.8,4.7,1.6,7,2.6
	c6,2.4,9.9,6.9,11.9,13c0.4,1.3,0.7,2.6,1,3.9c0.1,0.5,0.1,1.1,0,1.7c-0.7,2.8-2.1,5.2-4.3,7c-0.7,0.6-1.7,0.8-2.6,1.2
	c-2.2,1.1-4.4,1.5-6.9,1.3c-4.4-0.4-8.8-0.4-13.2-0.6c-4.4-0.2-8.8-0.3-13.2-0.5c-4-0.2-8-0.5-12-0.7c-2.6-0.1-5.1-0.1-7.7-0.2
	c-4.4-0.1-8.8-0.3-13.2-0.5c-2.2-0.1-4.5,0-6.7-0.1c-1.4,0-2.7-0.2-4.1-0.2c-1.7,0-3.3,0.1-5,0.1c-5.3,0.1-10.5,0.1-15.8,0.3
	c-4.5,0.1-9.1,0.3-13.6,0.5c-5.8,0.2-11.7,0.3-17.5,0.5c-4.7,0.1-9.4,0.3-14.1,0.4c-3.4,0.1-6.9,0.3-10.3,0.4
	c-0.5,0-0.9,0.1-1.4,0.2c-1.3,0.2-2.7,0.4-4,0.5c-1.3,0.1-2.7,0.2-4.1,0.3c-0.7,0-1.4,0-2.2-0.1c-0.4,0-0.8-0.2-1.2-0.1
	c-2.3,0.7-4.6,0.3-6.9,0.4c-1.3,0.1-2.7,0.2-4,0.2c-0.6,0-1.3,0-1.9,0c-0.8,0-1.6,0-2.4,0.2c-1.5,0.3-3,0.4-4.5,0
	c-0.2,0-0.3-0.2-0.5-0.1c-1.9,0.3-3.8-0.2-5.7-0.1c-1.8,0-3.7,0-5.5-0.1c-1.4,0-2.7,0.1-4-0.3c-0.3-0.1-0.6-0.1-1-0.1
	c-6,0.1-12-0.2-18,0c-2.3,0.1-4.6,0-6.9,0.1c-3.5,0.1-7,0.4-10.5,0.5c-4.7,0.2-9.4,0.3-14.1,0.5c-15.5,0.7-31,0.4-46.5,0.4
	c-6.1,0-12.1-0.1-18.2-0.3c-5.3-0.1-10.5-0.4-15.8-0.6c-1.2,0-2.4-0.1-3.6-0.2c-2.2-0.1-4.3,0.4-6.2,1.4c-1.5,0.8-3.2,1.4-4.7,2.5
	c1.2,1.5,2.3,2.7,4.1,3.3c3.4,1,6.7,2.1,10.1,2.9c4.1,0.9,8.3,1.4,12.6,1.6c3.1,0.2,6.2,0.4,9.3,0.5c2.6,0.1,5.3,0,7.9,0
	c0.6,0,1.1,0,1.7-0.1c4.7-0.2,9.4-0.4,14.1-0.5c3.4-0.1,6.9-0.2,10.3-0.3c4.3,0,8.6-0.3,12.9-0.5c2.2-0.1,4.3-0.2,6.5-0.3
	c5.2-0.2,10.4-0.3,15.6-0.5c4.2-0.2,8.4-0.5,12.7-0.7c0.3,0,0.6,0,1,0c6.2-0.1,12.3-0.2,18.5-0.3c4.4-0.1,8.8-0.2,13.2-0.2
	c6.2,0,12.3,0,18.5,0c5.4,0,10.7-0.1,16.1-0.2c2.6-0.1,5.2-0.4,7.9-0.7c2.5-0.2,4.9-0.4,7.4-0.6c4.7-0.3,9.4-0.7,14.1-1
	c4.1-0.3,8.1-0.4,12.2-0.6c4.1-0.2,8.3-0.5,12.4-0.8c7.6-0.5,15.2-1,22.7-1.5c4.6-0.3,9.2-0.6,13.9-0.8c5.9-0.2,11.8-0.4,17.7-0.5
	c7.5-0.2,15-0.3,22.5-0.5c2.8-0.1,5.6-0.1,8.4-0.1c1.2,0,2.4,0.2,3.5-0.5c0.2-0.1,0.5-0.1,0.7-0.1c2.4,0.1,4.8,0.3,7.2,0.4
	c0.9,0,1.7,0.5,2.4,1c1.9,1.4,3.9,2.8,5.8,4.3c0.2,0.1,0.4,0.3,0.6,0.4c2.1,2.5,3.9,5.2,5.4,8.2c0.2,0.4,0.2,1.1,0,1.6
	c-0.8,2.1-1.8,4.1-2.7,6.1c-0.4,0.8-0.9,1.5-1.7,1.9c-2,1.2-4,2.4-6,3.5c-1,0.5-2.3,0.7-3.4,0.9c-4.5,0.8-9,1.5-13.5,2.3
	c-0.4,0.1-0.8,0.1-1.2,0.1c-2.5,0-4.9,0.6-7.4,0.9c-2.8,0.4-5.5,0.6-8.3,0.9c-1.7,0.2-3.5,0.4-5.2,0.6c-2.5,0.4-5.1,0.5-7.6,0.5
	c-2,0-4,0.2-6,0.3c-5.1,0.2-10.2,0.5-15.3,0.7c-2,0.1-4-0.1-6,0c-3.4,0.1-6.8,0.2-10.3,0.3c-5.7,0.2-11.3,0.2-17,0
	c-9.3-0.3-18.7-0.3-28-0.4c-3.3,0-6.5-0.2-9.8-0.2c-0.9,0-1.8,0-2.6,0.1c-5.7,0.2-11.5,0.9-17.2,0.9c-8.6,0-17.3,0-25.9,0
	c-3.7,0-7.3-0.1-11-0.1c-7.4,0-14.7,0.1-22.1,0.2c-2.4,0-4.8,0.2-7.2,0.3c-2.5,0.1-5,0.1-7.4,0.2c-5.3,0.2-10.5,0.4-15.8,0.6
	c-4.1,0.1-8.3,0.2-12.4,0.4c-3.6,0.2-7.2,0.6-10.7,1c-4,0.5-8.1,0.7-12.1,0.8c-3.1,0.1-6.2,0.1-9.3,0c-3.2,0-6.4-0.2-9.6-0.2
	c-8.6,0.1-17,1.2-25.4,3.3c-1.1,0.3-2.2,0.5-3.3,0.7c-2,0.3-3.4,1.6-4.7,3c-0.2,0.2-0.1,0.6-0.2,1c0.5,0.1,0.8,0.2,1.2,0.3
	c1.1,0.2,2.2,0.2,3.3,0.4c2.1,0.4,4.3,0.5,6.4,0.4c0.9-0.1,1.8,0,2.6,0c5.8,0.1,11.5-0.1,17.2-0.6c1.4-0.1,2.7-0.2,4.1-0.3
	c2.2-0.2,4.3-0.3,6.5-0.5c0.5,0,1-0.1,1.4-0.1c3.8,0.1,7.5,0.2,11.3,0.3c2.3,0.1,4.6,0.1,6.9,0.1c2.3,0,4.6,0.1,6.9,0.1
	c4.2,0,8.5,0,12.7,0c2.1,0,4.1,0,6.2,0c1.6,0,3.2-0.2,4.8-0.3c4.5-0.1,9-0.1,13.4-0.2c5.8-0.1,11.5-0.2,17.3-0.6
	c4.2-0.3,8.5-0.2,12.7-0.4c3.4-0.2,6.9-0.5,10.3-0.6c2.3-0.1,4.6-0.1,6.9-0.2c5.4-0.2,10.9-0.5,16.3-0.7c2.1-0.1,4.1,0,6.2-0.1
	c7-0.2,14.1-0.5,21.1-0.8c4.8-0.2,9.6-0.6,14.4-0.7c6.4-0.2,12.8-0.4,19.2-0.6c6.9-0.2,13.7-0.4,20.6-0.4c6.6-0.1,13.1,0,19.7,0.1
	c5,0,9.9,0,14.9,0.1c4.5,0.1,8.9,0.3,13.4,0.3c3.7,0,7.3-0.3,11-0.3c5.4,0,10.9,0.2,16.3,0.2c3.3,0,6.6,0.1,9.8,0
	c3-0.1,6.1,0.2,9.1,0.4c0.7,0.1,1.4,0.2,2.1,0.2c2.9,0.1,5.5,1,7.9,2.5c2.3,1.5,4.7,2.8,7,4.2c1.7,1,3.1,2.2,4,4
	c0.6,1.2,1.4,2.3,2.1,3.5c0.2,0.4,0.4,0.9,0.5,1.3c0.1,0.5-0.1,1-0.6,1.2c-0.3,0.2-0.7,0.4-1.1,0.6c-2.1,0.9-4.2,1.9-6.4,2.7
	c-2.3,0.9-4.7,0.9-7.1,0.7c-4.7-0.3-9.4,0.1-14.1,0.7c-2.8,0.4-5.5,0.7-8.3,1c-1,0.1-2.1,0.2-3.1,0c-1.8-0.5-3.5-0.3-5.2-0.1
	c-3.2,0.4-6.3,0.8-9.5,1.1c-3.9,0.4-7.8,0.7-11.7,1c-2.9,0.3-5.7,0.5-8.6,0.7c-3.5,0.3-7,0.4-10.5,0.7c-5.6,0.4-11.1,0.9-16.7,1.3
	c-2.1,0.2-4.1,0.1-6.2,0.2c-4.9,0.2-9.7,0.5-14.6,0.7c-3.3,0.1-6.7,0.1-10,0.2c-5.5,0.1-11,0.2-16.5,0.3c-2.7,0.1-5.4,0.1-8.1,0.2
	c-4.9,0.2-9.7,0.5-14.6,0.7c-1.7,0.1-3.4,0.1-5,0.1c-4.7,0.2-9.4,0.4-14.1,0.6c-5.8,0.3-11.6,0.7-17.5,0.9
	c-3.7,0.2-7.5,0.3-11.2,0.3c-6.2,0-12.5,0.1-18.7,0c-6.7-0.1-13.4-0.3-20.1-0.4c-5.5-0.1-11-0.1-16.5-0.1c-2.6,0-5.2-0.2-7.8-0.1
	c-2.8,0-5.6,0.2-8.4,0.2c-2.8,0-5.6,0-8.4,0c-0.7,0-1.4-0.2-2.1-0.3c-0.5-0.1-0.9-0.2-1.4-0.2c-2.6-0.1-5.3-0.1-7.9-0.1
	c-1.7,0-3.3-0.2-5-0.3c-4.5-0.1-8.9,0-13.4,0.3c-6.1,0.4-12.1,1.2-18.1,2.3c-3.8,0.7-7.5,1.7-11.2,2.7c-1.8,0.5-3.5,1.2-5,2.3
	c-1.1,0.8-2.3,1.4-3.5,2.1c-0.3,0.2-0.6,0.5-0.9,0.8c1.2,0.9,2.5,1.1,3.7,1.3c3.3,0.5,6.3,1.6,9.5,2.5c2.7,0.7,5.4,1.4,8.2,1.8
	c3.3,0.5,6.7,0.6,10,0.8c3.3,0.1,6.7,0.1,10.1,0c4.3,0,8.6-0.1,12.9-0.3c4.7-0.2,9.4-0.4,14.1-0.7c1.9-0.1,3.8-0.3,5.7-0.5
	c0.2,0,0.3-0.1,0.5-0.1c2.9,0.6,5.9-0.1,8.8,0c2.9,0.1,5.8,0,8.6-0.1c4.5-0.2,8.9-0.5,13.4-0.7c4.2-0.2,8.5-0.4,12.7-0.7
	c4.9-0.3,9.7-0.8,14.6-1.1c1.5-0.1,3-0.1,4.5-0.2c4.6-0.3,9.2-0.7,13.9-1c3.5-0.2,7-0.3,10.5-0.5c1.8-0.1,3.5-0.3,5.3-0.5
	c3.2-0.2,6.4-0.3,9.6-0.5c5-0.3,10.1-0.6,15.1-0.8c4.2-0.2,8.5-0.4,12.7-0.7c5-0.4,10-0.9,15-1.3c1.4-0.1,2.9-0.2,4.3-0.3
	c4.9-0.4,9.9-0.8,14.8-1.2c4.9-0.4,9.7-1,14.6-1.3c5.3-0.3,10.7-0.8,16-0.4c1,0.1,1.9,0.1,2.9,0c4.5-0.2,8.9,0.6,13.4,0.4
	c3.3-0.2,6.5-0.3,9.8-0.5c3.1-0.2,6.2-0.4,9.3-0.6c1.8-0.1,3.5-0.3,5.2-0.4c0.6,0,1.3-0.1,1.9,0.1c1.1,0.5,2.3,0.4,3.5,0.6
	c4.7,0.7,9.4,1.5,14,3c1.7,0.5,3.4,0.9,5.2,1c2.9,0.1,5.7,1.1,8.2,2.4c1.5,0.8,2.8,2.1,4.1,3.3c0.3,0.3,0.5,0.8,0.5,1.3
	c0.2,2.5,0.2,5.1,0,7.6c-0.1,0.9-0.5,1.5-1,2.1c-1.8,1.9-3.6,3.8-5.7,5.4c-0.8,0.6-1.7,1.2-2.7,1.4c-2.7,0.7-5.4,1.5-8.1,2.3
	c-0.1,0-0.2,0-0.2,0c-3.9,0.6-7.6,1.9-11.4,2.5c-1.2,0.2-2.3,0.6-3.5,0.8c-2.1,0.3-4.3,0.5-6.4,0.9c-2.9,0.5-5.9,0.6-8.8,0.7
	c-3.3,0.1-6.7,0.1-10,0.2c-4.1,0.2-8.1,0.4-12.2,0.7c-3.6,0.2-7.2,0.4-10.8,0.6c-2.9,0.2-5.7,0.4-8.6,0.5c-4.6,0.1-9.3,0.2-13.9,0.1
	c-6.2-0.1-12.3,0-18.5,0.1c-3.1,0.1-6.2,0-9.3,0.1c-3.2,0.1-6.4,0.2-9.6,0.2c-5.3,0.1-10.7,0.2-16,0.2c-4.4,0-8.8,0-13.2-0.1
	c-3.5-0.1-7-0.2-10.5-0.3c-3-0.1-6.1-0.2-9.1-0.2c-6.1-0.1-12.3-0.2-18.4-0.2c-5.3,0-10.5,0.2-15.8,0.4c-3.7,0.1-7.3,0.2-11,0.3
	c-1.5,0-3,0-4.5-0.3c-0.8-0.2-1.6-0.1-2.4-0.1c-1.8,0.1-3.5,0.3-5.3,0.5c-1.6,0.1-3.1,0.3-4.7,0.4c-5.7,0.2-11.3,0.8-17,1.4
	c-2.5,0.3-5.1,0.4-7.6,0.6c-2.6,0.2-5.2,0.2-7.8,0.6c-3.2,0.5-6.4,0.4-9.5,0.8c-2.4,0.3-4.8,0.5-7.1,0.8c-3.3,0.4-6.7,0.7-10,1.1
	c-6.3,0.7-12.5,1.4-18.8,2.4c-2.2,0.4-4.4,0.6-6.6,1c-2.3,0.5-4.7,0.8-6.9,1.8c-1.2,0.6-1.6,1.3-1.5,2.6c0.3,3,0.2,3,2.5,5.1
	c0.3,0.3,0.7,0.7,1.1,1.1c4,0.3,8.1,0.7,12.1,0.9c1.6,0.1,3.2-0.1,4.8-0.1c3.4,0,6.9,0.1,10.3,0c2.3,0,4.6-0.2,6.9-0.4
	c4.2-0.2,8.5-0.4,12.7-0.7c4.4-0.3,8.8-0.7,13.1-0.9c3-0.1,6.1-0.1,9.1-0.1c0.4,0,0.8,0,1.2,0c3.1-0.2,6.2-0.3,9.3-0.5
	c2.3-0.1,4.6-0.2,6.9-0.4c4-0.3,8-0.7,11.9-1.1c3.7-0.3,7.3-0.5,11-0.8c2.9-0.2,5.7-0.5,8.6-0.8c3.3-0.3,6.5-0.5,9.8-0.7
	c4.4-0.3,8.8-0.5,13.2-0.7c5.6-0.3,11.1-1,16.7-1.4c4.9-0.4,9.9-0.7,14.8-1.3c2.8-0.3,5.5-0.8,8.3-1c2.5-0.2,5.1-0.5,7.6-0.8
	c2.1-0.2,4.3-0.5,6.4-0.7c2.3-0.3,4.6-0.5,6.9-0.8c3.2-0.4,6.3-0.8,9.5-1.1c2.5-0.3,5.1-0.5,7.6-0.7c3.6-0.2,7.2-0.3,10.8-0.5
	c1.5-0.1,3-0.4,4.5-0.4c4.3-0.2,8.6-0.5,12.9-0.7c4.6-0.2,9.2-0.3,13.9-0.3c5.5-0.1,11-0.3,16.5-0.3c2.6,0,5.3,0.2,7.9,0.2
	c1.5,0,3,0,4.6,0.1c4.7,0.3,9.4,0.6,14.1,0.7c2.2,0.1,4.4,0.5,6.7,0.8c0.5,0.1,1,0.2,1.4,0.1c1.9-0.1,3.6,0.3,5.4,0.9
	c3,1,5.9,1.9,8.9,2.9c1.7,0.6,3.2,1.3,4.7,2.3c2.4,1.5,4.8,2.8,7.3,4.2c1,0.6,1.8,1.3,2.4,2.3c0.8,1.2,1.5,2.4,2.4,3.6
	c1,1.4,1.5,3,1.9,4.6c0.3,1.3,0.1,2.4-0.6,3.4c-0.8,1.3-1.7,2.5-2.6,3.8c-0.8,1.2-1.9,1.8-3.3,2.2c-3.8,0.9-7.7,1.6-11.5,2.3
	c-2.8,0.5-5.7,0.6-8.6,0.9c-1.2,0.1-2.4,0.3-3.6,0.4c-0.9,0.1-1.7,0.2-2.6,0.3c-5,0.2-10.1,0.5-15.1,0.7c-2.9,0.1-5.9,0-8.8,0
	c-1.8,0-3.7,0.1-5.5,0.2c-4.5,0.1-8.9,0.1-13.4,0.3c-3,0.1-6,0.6-9.1,0.9c-2.4,0.2-4.8,0.4-7.2,0.5c-4.2,0.2-8.4,0.3-12.7,0.5
	c-3.6,0.2-7.2,0.4-10.8,0.6c-4.5,0.2-9.1,0.3-13.6,0.5c-2.1,0.1-4.1,0.2-6.2,0.3c-4.1,0.2-8.3,0.4-12.4,0.6
	c-4.1,0.2-8.3,0.5-12.4,0.8c-4.7,0.4-9.4,0.8-14.1,1.2c-4.5,0.4-8.9,0.9-13.3,1.4c-2.9,0.3-5.7,0.8-8.5,1.1
	c-2.3,0.3-4.6,0.4-6.9,0.7c-8.4,1.1-16.8,1.8-25.2,3.1c-3.1,0.5-6.3,0.7-9.5,1c-4.4,0.5-8.9,1-13.3,1.8c-4.3,0.7-8.7,1.4-13,2.1
	c-0.9,0.1-1.7,0.3-2.6,0.5c-2.4,0.6-4.9,0.6-7.4,0.7c-7.5,0.4-15,0.5-22.5,1.6c-4.3,0.6-8.6,1.1-12.8,2c-3.8,0.8-7.4,2-10.8,4
	c-2,1.1-3.7,2.4-4.8,4.6c-0.3,0.6-0.7,1-1.1,1.6c2.6,2.8,4.5,3.7,7.6,3.7c0.4,0,0.8,0,1.2-0.1c2.1-0.6,4.2-0.5,6.4-0.5
	c2.2,0,4.5,0,6.7-0.1c2.9-0.2,5.7-0.1,8.6,0c4.8,0.1,9.6,0,14.4-0.1c4.8,0,9.6-0.1,14.4-0.2c5-0.1,10.1-0.1,15.1-0.5
	c4.3-0.3,8.6-0.2,12.9-0.2c2,0,4,0.2,6,0.2c2.8,0,5.6-0.2,8.4-0.2c2.1-0.1,4.1-0.1,6.2-0.2c2.9-0.1,5.9-0.2,8.8-0.4
	c7.1-0.4,14.2-0.5,21.3-0.6c2.9-0.1,5.9-0.3,8.8-0.5c3.3-0.2,6.5-0.5,9.8-0.8c1.7-0.1,3.3-0.3,5-0.4c0.9-0.1,1.7,0,2.6,0
	c0.9,0.1,1.7,0.3,2.6,0.3c2.4,0.2,4.8,0.5,7.1,0.8c2.8,0.3,5.6,0.2,8.4,0.1c4.1-0.2,8.1-0.7,12.2-0.9c2.5-0.1,5.1,0,7.7,0.1
	c3.9,0,7.8,0.1,11.8,0.1c4.6,0,9.2,0.1,13.9,0c2.5-0.1,5,0.2,7.4,0.6c4.8,0.7,9.7,1.1,14.5,1.4c5.8,0.3,11.6,0.8,17.5,0.8
	c4.3,0,8.6,0,12.9-0.1c0.5,0,1-0.1,1.4-0.1c3.3-0.4,6.5-0.2,9.8,0.1c2.9,0.2,5.7,0.1,8.6-0.1c4.1-0.2,8.3-0.5,12.4-0.8
	c2.4-0.1,4.8-0.2,7.2-0.3c3.5-0.1,7,0.4,10.5,0.8c0.9,0.1,1.7,0.5,2.3,1.1c0.6,0.5,1.2,1,1.8,1.6c1.3,1.2,2.4,2.6,2.8,4.4
	c0.3,1.2,1,2.4,1,3.7c0,1.1-0.5,2.3-0.9,3.4c-0.8,2.4-1.6,4.9-2.5,7.2c-0.4,1.1-1.1,2.1-1.8,3.1c-1.2,1.7-2.8,2.6-5,2.9
	c-4.9,0.6-9.8,1.1-14.8,1.4c-5,0.3-10,0.6-15.1,1c-2.5,0.2-5.1,0.5-7.6,0.7c-0.2,0-0.3,0.1-0.5,0c-3.1-0.7-6,0.3-9,0.5
	c-4.5,0.4-8.9,0.8-13.4,1.2c-1.8,0.2-3.7,0.3-5.5,0.5c-4.4,0.7-8.9,0.6-13.4,0.9c-4.2,0.3-8.5,0.5-12.7,0.7c-1.5,0.1-3,0.1-4.5,0.2
	c-4.5,0.3-9.1,0.6-13.6,0.9c-5,0.3-10.1,0.4-15.1,0.7c-4.7,0.2-9.4,0.5-14.1,0.7c-6.8,0.3-13.6,0.7-20.4,0.8
	c-4.2,0-8.3,0.3-12.5,0.4c-3.8,0.1-7.7,0.2-11.5,0.3c-7.5,0.2-15,0.4-22.5,0.7c-5.1,0.2-10.2,0.4-15.3,0.6
	c-4.9,0.2-9.9,0.2-14.8,0.4c-3.7,0.1-7.3,0.4-11,0.6c-2.2,0.1-4.5,0.1-6.7,0.3c-3.9,0.2-7.8,0.5-11.7,0.7c-1.7,0.1-3.3,0.1-5,0.2
	c-4.5,0.2-9.1,0.4-13.6,0.6c-4.1,0.2-8.3,0.4-12.4,0.5c-7.1,0.1-14.2,0.5-21.3,0.8c-5.8,0.2-11.7,0.4-17.5,0.6
	c-4.1,0.2-8.2,0.3-12.2,0.6c-4.4,0.3-8.7,0.8-13.1,1.2c-0.3,0-0.6,0-1,0c-3.7-0.4-7.5-0.3-11.3-0.1c-0.2,0-0.5,0-0.7,0
	c-4.9-0.7-9.7-0.1-14.6,0.3c-0.6,0-1.2,0.1-1.8,0.1c-0.3-1.9-0.4-9.9-0.1-13.4c0.5-0.1,1-0.2,1.5-0.2c3.8,0.1,7.5,0.2,11.3,0.4
	c4.2,0.2,8.5,0.2,12.7,0c2.7-0.1,5.4-0.1,8.2-0.1c7.5-0.1,15-0.1,22.5-0.2c4,0,8,0,12-0.2c6.3-0.4,12.6-1,18.9-1.5
	c0.2,0,0.3-0.1,0.5-0.1c4.2,0,8.3-0.5,12.4-0.8c4-0.2,8-0.4,12-0.6c2.3-0.1,4.6-0.1,7-0.2c3.6-0.1,7.2-0.3,10.8-0.4
	c2-0.1,4-0.1,6-0.3c3.4-0.2,6.8-0.5,10.3-0.7c1.5-0.1,3-0.1,4.6-0.2c4-0.3,8-0.6,11.9-0.8c3.9-0.2,7.8-0.5,11.7-0.7
	c5.8-0.3,11.6-0.7,17.5-0.9c6.1-0.2,12.1-0.6,18.2-0.5c4.1,0.1,8.1-0.2,12.2-0.3c3.4-0.1,6.7-0.1,10.1-0.2c3.9-0.1,7.8-0.2,11.7-0.5
	c5.4-0.4,10.9-0.2,16.3-0.4c4.6-0.3,9.3-0.2,13.9-0.5c3.8-0.3,7.5-0.5,11.3-0.5c0.6,0,1.3-0.1,1.9-0.1c1.1-0.1,2.2-0.2,3.3-0.3
	c4.2-0.2,8.5-0.5,12.7-0.7c3-0.1,5.9-0.1,8.9-0.2c3.5-0.1,7-0.3,10.5-0.5c6.1-0.3,12.1-0.7,18.2-1.1c3.4-0.2,6.7,0.1,10,0.4
	c0.4,0,0.8,0.1,1.2,0c5.4-0.4,10.8-0.8,16.3-1.2c0.1,0,0.2,0,0.2,0c3.2-0.1,6.3-0.4,9.4-1.5c1.5-0.5,3.1-0.7,4.7-0.9
	c1.7-0.2,3.2-1,4.5-2c1.1-0.9,1.7-1.9,1.3-3.3c-0.4-1.4-1.3-2.2-2.7-2.4c-2.5-0.3-5.1-0.6-7.6-0.9c-2.1-0.2-4.1-0.3-6.2-0.5
	c-0.3,0-0.6,0-1,0c-5.7,0.7-11.3,0.2-17,0.2c-4.1,0-8.3,0.1-12.4,0.4c-3.3,0.3-6.7,0.4-10,0.6c-3.6,0.2-7.2,0.3-10.8,0.5
	c-3.8,0.2-7.6,0.6-11.5,0.8c-2.3,0.1-4.6-0.1-6.9-0.2c-4.9-0.3-9.9-0.5-14.8-0.6c-10.5-0.4-20.9,0-31.4-0.5
	c-5.2-0.3-10.4,0-15.6-0.2c-1.2,0-2.4,0.1-3.6,0.2c-3.3,0.3-6.5,0.1-9.8,0.1c-2.3,0-4.6,0.1-6.9,0.5c-2.2,0.4-4.4,0.5-6.7,0.3
	c-1-0.1-1.9,0-2.8,0.1c-2,0.2-4,0.2-6,0.3c-5.9,0.4-11.8,0.2-17.7,0.2c-8.6,0.1-17.3,0.2-25.9,0.3c-6.1,0.1-12.1,0-18.2,0.2
	c-3.5,0.1-7,0-10.5,0c-2.7,0-5.4-0.2-8.1-0.4c-3.9-0.2-7.8,0.2-11.7,0.6c-5.6,0.6-11.2,0.4-16.8,0.2c-5.1-0.2-10.2-0.7-15.3-1.3
	c-6.5-0.8-13-1.6-19.5-2.7c-3.1-0.5-6.3-0.7-9.5-1.1c-2.9-0.3-5.9-0.7-8.8-1c-0.6-0.1-1.2-0.3-1.8-0.5c-0.3-3.5-0.3-6.8-0.1-10.2
	c0-0.3,0.1-0.6,0.2-0.9c0.7-1.7,1.5-3.4,2.3-5c0.6-1.3,1.6-2.4,2.9-3.1c1-0.6,1.8-1.3,2.7-2c2.9-2.2,6.3-3.4,9.8-4.5
	c2.1-0.6,4.1-1.2,6.2-1.8c4.4-1.3,8.8-2.2,13.4-2.8c3.8-0.4,7.6-1,11.4-1.5c2.1-0.3,4.3-0.5,6.4-0.7c6-0.6,11.9-1.1,17.9-1.6
	c5.6-0.5,11.1-1.2,16.7-1.6c5.4-0.5,10.8-0.8,16.2-1.3c3.7-0.3,7.5-0.7,11.2-1c2.5-0.2,4.9-0.5,7.4-0.7c3.4-0.4,6.8-0.8,10.2-1.2
	c1.9-0.2,3.8-0.5,5.7-0.7c6.8-0.6,13.7-1.2,20.5-1.8c6.6-0.5,13.2-0.8,19.8-0.9c1.7,0,3.4-0.2,5-0.2c4,0,8,0.1,12,0.2
	c5.9,0.1,11.8-0.5,17.7-1.1c5.3-0.6,10.6-1.1,16-1.6c5.1-0.5,10.2-1,15.3-1.4c4.1-0.3,8.1-0.5,12.2-0.7c4.1-0.2,8.3-0.5,12.4-0.7
	c2.2-0.1,4.5-0.1,6.7-0.3c11-0.8,22.1-0.4,33.1-0.5c2.7,0,5.2-0.5,7.7-1.4c0.9-0.3,1.8-0.6,2.8-0.8c1.6-0.4,3-1,4-2.4
	c0.5-0.7,1.3-1.2,1.8-1.9c0.3-0.4,0.5-0.9,0.7-1.4c-1.8-2.1-4.2-2.4-6.5-2.8c-3.2-0.5-6.5-1-9.7-1.5c-2.8-0.4-5.5-0.9-8.3-1.3
	c-0.7-0.1-1.4-0.1-2.2-0.1c-4.6-0.1-9.1-0.3-13.7-0.3c-2.1,0-4.1,0.2-6.2,0.2c-0.7,0-1.4-0.1-2.1-0.1c-5.1,0.1-10.2,0.1-15.4,0.2
	c-4.4,0.1-8.8,0.2-13.2,0.4c-4.1,0.2-8.1,0.5-12.2,0.7c-3.3,0.2-6.5,0.4-9.8,0.6c-2.9,0.2-5.7,0.5-8.6,0.7c-5.3,0.4-10.7,0.8-16,1.3
	c-4.1,0.3-8.3,0.8-12.4,1.2c-4.1,0.4-8.1,0.8-12.1,1.2c-3.2,0.3-6.3,0.8-9.5,1.1c-5.1,0.5-10.2,0.9-15.3,1.4
	c-2.1,0.2-4.3,0.5-6.4,0.6c-3.7,0.2-7.3,0.7-10.9,1.2c-4.6,0.6-9.2,1.2-13.8,1.8c-4.3,0.5-8.6,1-12.8,1.6c-2.6,0.3-5.2,0.7-7.8,1.1
	c-2.1,0.3-4.3,0.6-6.4,0.8c-3.2,0.4-6.4,0.7-9.5,1c-5.7,0.7-11.4,1.5-17.1,2.2c-4.9,0.6-9.8,1.2-14.8,1.3c-3.5,0.1-7,0.4-10.5,0.7
	c-0.8,0.1-1.6,0.1-2.4,0.1c-3.7,0.1-7.3,0.3-11,0.3c-2,0-4-0.1-6-0.4c-4.3-0.5-8.5-1.2-12.8-1.7c-2-0.2-3.9-0.5-5.9-0.7
	c-1.9-0.2-3.8-0.5-5.7-0.8c-1.1-0.2-2.2-0.4-3.3-0.6c-1.1-0.2-2.1-0.3-3.3-0.2c-1.4,0.1-2.8-0.3-4.2-0.8c-1.7-0.5-3.3-1.3-4.9-2
	c-0.7-0.3-1.3-0.6-2-0.9c-2.8-1.1-4.4-3.2-5-6c-0.6-2.7-0.6-5.3-0.4-8.1c0.2-3.2,1.5-5.8,3.2-8.4c0.3-0.5,0.6-0.9,0.9-1.4
	c1.8-2.9,4.4-4.9,7.4-6.2c3.7-1.6,7.4-3,11.5-3.1c1.1,0,2.2-0.3,3.3-0.5c4-0.4,8.1-0.9,12.1-1.3c1.9-0.2,3.8-0.5,5.7-0.6
	c4.3-0.2,8.6-0.3,12.9-0.5c0.8,0,1.6-0.1,2.4-0.2c4.5-0.4,9-1,13.6-1.2c2.7-0.1,5.4-0.5,8.1-0.7c0.2,0,0.5-0.1,0.7-0.1
	c3.5,0.4,7-0.3,10.5-0.3c3.5,0,7-0.5,10.5-0.7c0.6,0,1.3-0.1,1.9-0.1c3.6-0.2,7.2-0.3,10.8-0.5c9.3-0.5,18.7-0.7,28-0.4
	c2.2,0.1,4.3,0,6.5-0.2c3.7-0.4,7.3-0.4,11-0.4c3.4,0,6.9-0.2,10.3-0.3c1.1,0,2.2-0.1,3.4-0.1c5.6,0,11.2,0,16.8,0.2
	c12.6,0.5,25.3,0.4,37.9,0.5c2.1,0,4.3-0.1,6.4,0c6,0.4,12,0,18,0.4c3.6,0.2,7.2,0.1,10.8,0.5c3.1,0.3,6.2-0.1,9.3-0.2
	c0.9,0,1.9-0.4,2.8-0.4c5.9-0.5,11.8-0.9,17.7-1.3c3.3-0.2,6.5-0.3,9.8-0.4c2.3-0.1,4.6-0.3,6.9-0.4c2.4-0.1,4.8-0.1,7.2-0.2
	c4.7-0.3,9.4-0.5,14.1-1.3c1.9-0.3,3.8-0.5,5.7-0.6c2-0.1,4-0.4,5.7-1.5c0.7-0.5,1.4-1.1,2.1-1.6c1.8-1.2,1.5-3,1-4.7
	c-0.3-1-1.2-1.7-2.2-2.1c-1.8-0.6-3.6-1.3-5.5-1.6c-3-0.5-6-0.7-9.1-0.8c-3.8-0.2-7.7-0.1-11.5-0.1c-3.7,0-7.4,0.1-11,0.1
	c-1.4,0-2.7,0.1-4,0.4c-1.5,0.4-3,0.4-4.5,0.4c-4.1,0-8.1-0.1-12.2,0c-3.3,0.1-6.5,0.4-9.8,0.5c-8.3,0.3-16.6,0.7-24.9,1.2
	c-4.1,0.3-8.1,0.3-12.2,0.5c-6.2,0.3-12.4,0.5-18.6,0.8c-3.3,0.1-6.5,0.2-9.8,0.5c-2.1,0.2-4.3,0-6.4,0.7c-0.1,0-0.2,0-0.2,0
	c-1.2,0-2.4-0.2-3.5,0.2c-1.2,0.4-2.4,0.3-3.5,0.3c-4.2,0-8.4,0.5-12.6,1.3c-0.9,0.2-1.9,0.4-2.8,0.6c-0.2,0-0.3,0.1-0.5,0
	c-1.8-0.5-3.6,0.2-5.5,0.2c-1.8,0.1-3.5,0.3-5.2,0.5c-5.2,0.6-10.5,1.4-15.7,1.9c-3.7,0.4-7.3,0.5-11,0.7c-2.6,0.1-5.3,0.2-7.9,0.3
	c-0.7,0-1.4,0.1-2.2,0.1c-3.6-0.1-7.2-0.2-10.8-0.2c-0.4,0-0.8,0.1-1.2,0.1c-1.9,0-3.8,0.3-5.7-0.1c-0.3-0.1-0.6-0.1-1,0
	c-2.8,0.3-5.6,0-8.4-0.1c-4.4-0.1-8.8,0.2-13.2,0.7c-1,0.1-2.1,0-3.1,0c-0.8,0-1.6-0.2-2.4-0.2c-3.6,0.1-7.2,0.2-10.8,0.4
	c-5,0.3-10.1,0.4-15.1,0.5c-4.5,0.1-8.9-0.4-13.4-0.6c-5.7-0.3-11.3-0.7-17-0.6c-2.8,0.1-5.6-0.2-8.4-0.4c-2-0.1-3.9-0.7-5.8-1.3
	c-3.6-1.2-7.1-2.5-10.7-3.6c-3.6-1.2-5.8-3.9-7.4-7.1c-0.6-1.3-0.8-2.8-0.8-4.2c0.3-5.3,2.3-9.8,6.5-13.1c0.4-0.3,0.9-0.7,1.4-0.9
	c3.4-1.4,6.7-3.1,10.4-3.5c2-0.2,4-0.3,6-0.3c4.9-0.1,9.7-0.1,14.6-0.2c4.6-0.1,9.1-0.2,13.6-0.5c4.9-0.3,9.9-0.4,14.8-0.5
	c3.4-0.1,6.9-0.3,10.3-0.5c2.6-0.1,5.3-0.3,7.9-0.3c3.9-0.1,7.8-0.1,11.7-0.1c5.4,0,10.7,0.1,16.1,0.1c1.8,0,3.7,0.2,5.5,0.3
	c4.2,0.1,8.3,0.1,12.5,0.2c7,0.1,13.9,0.3,20.9,0.5c2.5,0.1,4.9,0.2,7.4,0.3c1.3,0,2.6-0.1,3.8-0.1c1.7,0,3.5,0,5.2,0
	c2.8,0.1,5.6,0.2,8.4,0.3c3.1,0.1,6.2,0.2,9.3,0.3c1.2,0,2.4-0.1,3.6-0.2c3-0.1,5.9-0.1,8.9-0.1c5,0,10.1,0.1,15.1,0
	c6.7-0.1,13.4-0.4,20.1-0.4c6.5,0,12.9-0.2,19.4,0.2c5,0.3,10.1,0.4,15.1,0.3c3.7-0.1,7.3-0.6,11-0.9c1.6-0.1,3.2-0.3,4.8-0.4
	c3.8-0.2,7.7-0.2,11.5-0.5c6.8-0.7,13.7-0.3,20.6-0.9c3.3-0.3,6.5,0,9.8,0c5.3,0,10.5-0.3,15.8-0.7c1.4-0.1,2.9-0.1,4.3-0.2
	c3.9-0.2,7.8-0.5,11.7-0.8c1.2-0.1,2.4-0.1,3.6-0.1c1.8,0,3.2-0.9,4.5-2c1-0.9,1.1-2.1,0.6-3.3c-0.9-2-2.4-2.9-4.5-3
	c-2.7,0-5.4-0.1-8.2,0.1c-3.4,0.1-6.9,0.4-10.3,0.6c-4,0.3-8,0.5-11.9,0.9c-2.6,0.2-5.2,0.7-7.8,1c-4.4,0.7-8.9,0.9-13.4,0.8
	c-4.6-0.1-9.1,0-13.7,0.2c-5.6,0.2-11.2,0.4-16.8,0.2c-5.1-0.1-10.2-0.2-15.3-0.3c-2,0-4,0-6-0.1c-5.2-0.2-10.4-0.6-15.6-0.7
	c-4.2-0.1-8.5-0.7-12.7-0.1c-2.1,0.3-4.1,0.5-6.1,1c-4.1,0.8-8.2,1.9-12.4,2.6c-3,0.5-6,0.5-9.1,0.1c-3.5-0.4-7-0.7-10.5-1.3
	c-3.8-0.7-7.7-0.3-11.5-0.4c-3.4-0.1-6.7,0-10.1-0.1c-3.2-0.1-6.4-0.4-9.6-0.6c-2-0.2-4-0.4-6-0.1c-0.4,0.1-0.8,0-1.2,0
	c-2.1-0.1-4.1-0.2-6.2-0.3c-1.4-0.1-2.8-0.2-4.2-0.4c-5.3-0.6-10.7-0.3-16-0.6c-4.2-0.2-8.3-0.2-12.5-0.5c-4.5-0.4-9.1-0.5-13.7-0.5
	c-1.7,0-3.3,0.2-5,0.3c-0.6,0-1.3,0.1-1.9,0.2c-1.7,0.2-3.5,0.3-5.2,0.5c-3.2,0.4-6.3,0.4-9.5,0.5c-5.3,0.2-10.5,0.3-15.8,0.5
	c-0.2,0-0.3,0-0.5,0c-5.6,1-11.3,0.4-17,0.4c-5.4,0-10.9-0.3-16.3-0.3c-4.1,0-8.3,0.4-12.4,0.6c-0.5,0-1,0-1.4-0.1
	c-1.2-0.2-2.3-0.5-3.5-0.7c-2.4-0.3-4.3-1.6-6.1-3.1c-0.7-0.6-1-1.3-0.8-2.1c0.3-1.2,0.6-2.5,1-3.7c0.2-0.5,0.7-0.9,1.1-1.2
	c3.4-2.5,7-4.7,11-6.4c1.2-0.5,2.6-0.9,3.9-1.1c4.2-0.4,8.2-1.5,12.1-2.8c4.4-1.4,8.9-2.4,13.5-3.1c3.2-0.4,6.3-0.8,9.5-1.2
	c1-0.1,2.1-0.2,3.1-0.2c4.6-0.1,9.1-0.1,13.7-0.1c3.7,0,7.3,0.2,11,0.3c2.2,0.1,4.5,0.1,6.7,0.2c0.8,0,1.6,0.1,2.4,0.2
	c0.5,0,1.1,0,1.6,0c0.3,0,0.6-0.2,0.9-0.1c2.8,0.5,5.7,0.3,8.6,0.3c0.3,0,0.7,0.1,1,0c2.2-0.4,4.4,0.1,6.6,0.1
	c3,0.1,6.1,0.2,9.1-0.3c1.6-0.3,3.2-0.3,4.8-0.4c4.9-0.6,9.8-1.2,14.7-1.9c3.2-0.4,6.5-0.9,9.7-1.3c2.5-0.3,5.1-0.4,7.6-0.5
	c3-0.1,6.1-0.1,9.1-0.2c4.5,0,8.9-0.1,13.4-0.1c7.6,0.1,15.2,0.4,22.8,0.4c6.5,0,12.9-0.4,19.4-1.1c2.6-0.3,5.2-0.5,7.9-0.5
	c0.7,0,1.5,0,2.1-0.1c1.8-0.5,3.7-0.3,5.5-0.1c2.4,0.3,4.8,0.2,7.2,0.2c2.9-0.1,5.7-0.3,8.6-0.4c3.8-0.2,7.5-0.2,11.2-0.5
	c2.6-0.2,5.1-0.4,7.7-0.2c6.1,0.5,12.2,0,18.2,0.5c5.5,0.5,11,0.5,16.5,0.4c1.8,0,3.7-0.3,5.5-0.5c1.7-0.2,3.3-0.4,5-0.4
	c4.5-0.1,8.9-0.2,13.4-0.2c2.2,0,4.2-0.7,6.2-1.5c2-0.8,4-1.6,6-2.5c1.2-0.5,2.4-1.2,3.5-1.8c0.4-0.8,0.3-1.4,0-2
	c-1.3-2.4-3.6-3.3-6.1-3.8c-0.7-0.1-1.4-0.2-2.2-0.1c-3.9,0.2-7.7-0.3-11.5-0.7c-0.6-0.1-1.3,0-1.9,0c-7.8,0-15.5,0-23.3,0
	c-4.5,0-9.1,0.2-13.6,0.8c-2,0.3-4.1,0.6-6.1,0.9c-1.3,0.2-2.7,0.2-4,0.5c-2.8,0.7-5.6,1.1-8.4,1.7c-0.8,0.2-1.6,0.2-2.4,0.2
	c-8.3,0.1-16.6,0.2-24.9,0.3c-1.4,0-2.9,0.2-4.3,0.3c-0.5,0-1,0-1.4,0.1c-4.9,0.1-9.8,0.1-14.6,0.3c-4.3,0.2-8.6,0.5-12.9,0.8
	c-0.2,0-0.5,0-0.7,0.1c-2.2,0.8-4.4,0.5-6.6,0.4c-2.4-0.1-4.8-0.3-7.2-0.4c-4.5-0.2-8.9,0.5-13.4,1c-3.4,0.4-6.9,0.2-10.3,0.1
	c-1.1,0-2.2-0.1-3.3-0.2c-8.3-0.1-16.6-0.2-24.9-0.3c-2.5,0-5-0.2-7.4-0.2c-1.5,0-3,0.3-4.5,0.2c-3.2-0.2-6.4,0.3-9.5,0.7
	c-0.8,0.1-1.6,0.2-2.4,0.2c-6.5,0.4-12.9,0.8-19.4,1.2c-6.8,0.4-13.6,0.8-20.3,1.3c-3.4,0.2-6.8,0.7-10.3,0.8
	c-4.4,0.2-8.8,0.2-13.2,0.1c-4.9-0.1-9.9-0.6-14.8-0.8c-3.4-0.1-6.7-0.4-10-0.9c-6.7-1-13.5-1.8-20.1-3.5c-2.5-0.6-4.8-1.5-6.8-3.2
	c-1.6-1.4-3.2-2.6-4.7-4.1c-1.2-1.2-1.5-2.6-1.5-4.1c0-0.1,0-0.2,0-0.2c0.4-4.2,0.6-4.5,4.6-6.8c3.7-2.1,7.6-3.6,11.6-5.2
	c3.2-1.3,6.7-1.6,10-2.2c6.3-1,12.7-1.6,19-2.1c5.3-0.4,10.7-0.9,16-0.8c3.2,0.1,6.4,0.2,9.6,0.3c1.7,0.1,3.4,0.1,5,0.2
	c3.7,0.2,7.5,0.5,11.2,0.7c3.3,0.2,6.5,0.3,9.8,0.4c2.3,0.1,4.6,0.3,6.9,0c1.8-0.2,3.7,0.1,5.5,0.1c6.5-0.1,13.1-0.1,19.6-0.4
	c10.2-0.5,20.5-0.4,30.7-0.4c7.7,0,15.4,0,23,0c4.6,0,9.3-0.3,13.9-0.4c4.3-0.2,8.6-0.3,12.9-0.5c3.9-0.2,7.8-0.3,11.7-0.5
	c3.3-0.1,6.5-0.4,9.8-0.5c5.5-0.1,11-0.2,16.5-0.3c6.5-0.1,13.1,0.1,19.6-0.1c4.2-0.1,8.5-0.1,12.7-0.3c3.9-0.2,7.8-0.1,11.7,0.1
	c2.8,0.2,5.6,0.1,8.4,0.2c1.9,0.1,3.8,0.2,5.7,0.3c6.2,0.3,12.3,0.3,18.5,0.2c3.4,0,6.7,0,10.1,0c6.1,0.1,12.1-0.5,18.2-0.7
	c1.3,0,2.6,0.1,3.8-0.4c0.8-0.3,1.7-0.7,2.3-1.2c0.9-0.7,1.6-1.7,0.4-3.2c-1.4-0.7-3.2-1.7-4.9-2.6c-0.6-0.3-1.2-0.4-1.8-0.5
	c-3.6-0.8-7.3-0.7-11-0.7c-5.4,0-10.7,0.2-16.1,0.2c-5,0-10.1,0-15.1,0c-5.2,0-10.4,0.1-15.6,0.1c-2.2,0-4.5-0.1-6.7-0.1
	c-7.4,0-14.7-0.4-22.1,0c-2.4,0.1-4.8,0.2-7.2,0.3c-5.3,0.3-10.7,0.4-16,1c-8,0.8-16,0.4-24,0.3c-1.8,0-3.7,0.1-5.5,0
	c-6.1-0.4-12.3-0.5-18.4-1.5c-2.4-0.4-4.9-0.4-7.4-0.6c-0.7-0.1-1.4-0.2-2.1-0.3c-2-0.2-3.9-0.7-5.9,0c-0.2,0.1-0.5,0-0.7,0
	c-2-0.5-4-0.4-6.1-0.4c-2.4,0-4.7-0.1-7.1-0.4c-1.4-0.2-2.8-0.4-4.2-0.5c-1.4,0-2.9,0-4.3,0.2c-0.8,0.1-1.5,0-2.3-0.1
	c-1.9-0.1-3.8-0.1-5.7-0.2c-3.3,0-6.5-0.1-9.8,0c-5,0.1-9.9,0.3-14.9,0.4c-0.7,0-1.4,0-2.2,0c-2.5-0.1-4.9-0.1-7.4,0.2
	c-3,0.4-6,0.1-9,0.2c-4.1,0.2-8.1,0.1-12.2,0.5c-2.7,0.3-5.4,0.2-8.1,0.3c-3.4,0.1-6.7,0.3-10.1,0.4c-4.1,0.1-8.1,0.5-12.2,0.2
	c-0.6,0-1.3,0.1-1.9,0.1c-1.3,0-2.6,0.1-3.8,0c-3.4-0.3-6.7-0.2-10-0.1c-1.2,0.1-2.4,0.2-3.6,0.3c-4.9,0.3-9.9,0.5-14.8,1
	c-3.2,0.4-6.4,0-9.6,0.1c-2.7,0-5.2-0.8-7.7-1.7c-2.4-0.8-4.2-2.2-5.8-4c-1.9-2.1-3.7-4.2-5.5-6.3c-0.9-1-0.9-2-0.3-3.1
	c0.6-1.1,1.2-2.3,1.8-3.4c0.7-1.3,1.4-2.7,2.1-4c0.7-1.2,1.4-2.5,2.3-3.7c1.9-2.7,4.7-4.1,7.6-5.1c1.4-0.5,2.8-0.8,4.2-0.9
	c4.2-0.5,8.4-1.2,12.5-2.2c1.7-0.4,3.5-0.3,5.1-1.2c0.4-0.2,0.9-0.1,1.4-0.1c3.4,0,6.9,0,10.3-0.1c3,0,6.1-0.1,9.1-0.2
	c0.2,0,0.5-0.1,0.7,0c2.8,0.5,5.6-0.1,8.4,0c2.8,0.1,5.6,0.2,8.4,0.1c7-0.2,13.9,0.3,20.8,0.2c3,0,6.1,0,9.1,0.1
	c7.3,0.2,14.7,0.4,22,0.6c3.7,0.1,7.3,0.2,11,0.4c5.3,0.2,10.5,0.5,15.8,0.6c4.1,0.1,8.3,0.1,12.4,0.2c2.3,0,4.6,0.2,6.9,0.2
	c1.6,0.1,3.2,0.1,4.8,0.1c4.6,0.1,9.1,0.1,13.7,0.2c6.9,0.1,13.7,0.2,20.6,0.3c5,0.1,9.9,0.2,14.9,0.2c9.7,0,19.5,0,29.2,0
	c4.3,0,8.6,0.1,12.9,0.2c6,0.1,12,0.1,17.9,0.1c5.9,0,11.8,0,17.8,0c3.4,0,6.7-0.3,10.1-0.2c3.3,0.1,6.7,0.1,10,0.1
	c7.9,0,15.8-0.2,23.7-0.2c6.7,0,13.4,0,20.1,0.1c7.2,0.1,14.4,0.3,21.6,0.4c5.1,0.1,10.2,0.1,15.3,0.1c7,0,14,0.2,21.1,0.5
	c1.6,0.1,3.2,0,4.8,0c1.7,0.1,3.3,0.2,5,0.3c5.7,0.1,11.4,0,17,0.2c9,0.4,18.1,0.4,27.1,0.5c0.6,0,1.3,0.1,1.9,0.1
	c1.5,0.1,3,0.2,4.5,0c1.5-0.2,3-0.2,4.5,0.5c0.8,0.4,1.7,0.4,2.6,0.4c7.6,0.1,15.2,0.2,22.8,0.3c3.8,0.1,7.7-0.2,11.5-0.8
	c0.8-0.1,1.6-0.1,2.4-0.1c7.6,0,15.2,0.1,22.8,0.1c11.8,0,23.7,0.1,35.5-0.2c12.1-0.3,24.1-0.2,36.2-0.4c6.1-0.1,12.3-0.3,18.4-0.5
	c0.2,0,0.3,0,0.5,0c3-0.9,6-0.3,9.1-0.4c5.1-0.2,10.2-0.4,15.3-0.5c1.8,0,3.7,0,5.5,0c2.7,0,5.4,0,8.1-0.4c0.7-0.1,1.4-0.1,2.2-0.1
	c5.4-0.2,10.9-0.3,16.3-0.5c2.6-0.1,5.1-0.4,7.6-0.6c1.2-0.1,2.4-0.1,3.6-0.1c3.7,0,7.4-0.1,11-0.1c0.6,0,1.3,0,1.9,0.2
	c1.8,0.4,3.6,0.7,5.4,0.8c3.3,0.2,6.5,1,9.7,1.6c2.9,0.5,5.7,1.4,8.4,2.6c2.1,1,4.3,1.8,6.4,2.7c1.4,0.5,2.5,1.4,3.2,2.7
	c0.9,1.6,1.9,3.2,3,4.7c0.9,1.2,1.1,2.4,0.5,3.6c-1.4,3-2.9,6.1-5.3,8.5c-0.7,0.7-1.4,1.3-2.1,2c-2.1,1.7-4.4,2.9-7,3.4
	c-3.4,0.7-6.7,1.7-10,2.5c-0.4,0.1-0.8,0.2-1.2,0.1c-1.5-0.6-3-0.4-4.5-0.4c-3.5,0-7,0-10.5,0.2c-4.3,0.2-8.6,0.4-12.9,0.8
	c-3.4,0.3-6.8,0.8-10.2,1.2c-1.3,0.1-2.5,0.2-3.8,0.3c-2.5,0.2-5.1,0.3-7.7,0.4c-2.8,0.1-5.6,0.1-8.4,0.2
	c-6.2,0.1-12.5,0.2-18.7,0.4c-6.7,0.1-13.4,0.3-20.1,0.4c-4.1,0.1-8.1,0.1-12.2,0.2c-2.5,0.1-4.9,0.3-7.4,0.3
	c-4.1,0.1-8.1,0-12.2,0.1c-3.3,0-6.5-0.1-9.8,0.4c-1.6,0.2-3.2,0.1-4.8,0.2c-3.2,0.3-6.4,0.1-9.6,0c-5.1-0.1-10.2-0.1-15.4,0
	c-6.1,0.1-12.2,0.1-18.2,0.5c-5.9,0.4-11.8,0.2-17.7,0.2c-3,0-6.1-0.2-9.1-0.4c-1.4-0.1-2.8-0.5-4.2-0.7c-0.6-0.1-1.3-0.1-1.9-0.1
	c-5.3-0.1-10.6-0.1-15.8-0.2c-3.5-0.1-7-0.4-10.5-0.8c-3.6-0.4-7.3-0.4-11-0.6c-2.5-0.2-5.1-0.3-7.6-0.6c-5.5-0.7-10.9-1.5-16.4-2.1
	c-5.1-0.6-10.2-0.7-15.3-0.6c-5.8,0-11.5,0-17.3,0.2c-4.1,0.1-8.3,0.3-12.4,1.2c-2.3,0.5-4.6,0.9-6.3,2.6c-0.4,0.4-1,0.5-1.4,0.8
	c-1.6,1-2.2,2.5-2,4.3c0.2,1.8,1.2,3.1,2.9,3.8c0.5,0.2,1.1,0.3,1.6,0.4c5.2,0.4,10.4,0.7,15.5,1.2c6.1,0.6,12.1,0.4,18.2,0.2
	c3.6-0.1,7.2-0.2,10.8-0.5c4.7-0.3,9.4-0.8,14.1-1.1c4-0.2,8-0.2,12-0.2c4.2,0,8.3,0.3,12.4,0.9c0.5,0.1,1,0,1.4,0.2
	c1.8,0.8,3.7,0.7,5.7,0.7c6.2,0.1,12.5,0.2,18.7,0.3c5.8,0.1,11.7,0.3,17.5,0.5c2.6,0.1,5.1,0.2,7.7,0.2c4.2-0.1,8.3-0.2,12.5-0.3
	c4-0.1,8-0.3,12-0.3c3.4,0,6.7,0.2,10.1,0.3c5.9,0.1,11.8,0,17.7,0.1c1.1,0,2.2,0,3.4,0c7.8-0.1,15.5-0.2,23.3-0.2
	c3.8,0,7.7,0.3,11.5,0.4c3.1,0.1,6.2,0.2,9.3,0.4c1.4,0.1,2.9,0.1,4.3,0.2c0.7,0,1.4,0,2.2-0.1c0.4,0,0.8-0.1,1.2-0.1
	c2.8,0.4,5.6-0.2,8.4-0.1c3.4,0.1,6.7-0.1,10.1-0.3c6.1-0.3,12.3-0.7,18.4-1.1c1.2-0.1,2.4-0.1,3.6-0.1c7-0.2,14.1-0.8,21.1-0.5
	c4.5,0.2,8.9,0.6,13.4,1.1c3.7,0.3,7.3,0.7,11,1.2c3.5,0.5,7,0.8,10.3,2c4.8,1.7,9.6,3.5,13.9,6.3c0.6,0.4,1.2,0.8,1.8,1.2
	c0.8,0.5,1.2,1.2,1.3,2.2c0.1,1.5,0.3,3,0.5,4.5c0.1,0.9-0.3,1.7-0.8,2.4c-0.9,1.2-1.9,2.4-3.2,3.2c-3.1,2.1-6.3,4-10.1,4.7
	c-3.9,0.8-7.8,1.9-11.7,2.6c-7.1,1.3-14.3,2.4-21.6,2.7c-3.2,0.1-6.4,0.5-9.6,0.7c-1.8,0.1-3.7,0.2-5.5,0.2c-12.2,0-24.5,0-36.7-0.1
	c-3.8,0-7.5-0.2-11.3-0.3c-3-0.1-5.9-0.1-8.9-0.2c-4.9-0.2-9.9-0.4-14.8-0.6c-1.7-0.1-3.3-0.1-5-0.2c-0.1,0-0.2,0-0.2,0
	c-2.9,0.2-5.9,0.3-8.8,0.6c-4.1,0.4-8.1,0.9-12.2,1.3c-5.4,0.4-10.8,0.7-16.3,0.9c-2.4,0.1-4.8,0-7.2,0c-4.5,0.1-8.9,0.4-13.4,0.4
	c-4.2,0.1-8.5,0-12.7,0c-0.5,0-1-0.2-1.4,0c-1.6,0.6-3.3,0.1-4.9,0.1c-1.6,0-3.2-0.1-4.8-0.1c-0.7,0-1.4,0-2.2,0
	c-5.2,0.1-10.4,0.1-15.6,0.2c-8.5,0.1-16.9,0.3-25.4,0.4c-1.9,0-3.8,0.1-5.8,0c-0.6,0-1.3-0.1-1.9-0.3c-2-0.4-4.1-0.9-6.1-1.3
	c-0.6-0.1-1.3-0.1-1.9-0.1c-2.9,0-5.7,0.1-8.6-0.6c-1.5-0.4-3.2-0.4-4.7-0.6c-1.7-0.2-3.5-0.3-5.3-0.5c-0.2,0-0.5-0.1-0.7,0
	c-3.3,0.6-6.7,0-10-0.1c-3.2,0-6.4-0.4-9.6-0.6c-1.6-0.1-3.2-0.2-4.8-0.4c-3.3-0.3-6.5-0.5-9.8-0.8c-1.4-0.1-2.7-0.2-4.1-0.1
	c-2.1,0.2-4.1,0.1-6.2-0.1c-2.2-0.1-4.3,0.3-6.4,1c-2.8,0.9-3.7,3.1-4.1,5.7c-0.1,0.7,0.2,1.4,0.7,2c0.6,0.8,1.4,1.3,2.3,1.7
	c3.4,1.3,6.7,2.6,10.4,2.2c0.2,0,0.3,0,0.5,0c3.5,0.7,7,0.3,10.5,0.5c2.4,0.1,4.8,0,7.2,0.1c2.6,0.1,5.1,0.2,7.6,0.4
	c2.2,0.2,4.4,0.3,6.7,0.1c3.3-0.2,6.5-0.3,9.8,0.1c1.7,0.2,3.4,0.2,5,0.3c8.1,0.4,16.1,1,24.2,0.9c4.6-0.1,9.3-0.2,13.9-0.3
	c4.6-0.1,9.3-0.1,13.9,0.2c4,0.3,8,0,12-0.1c3.9-0.1,7.8-0.9,11.7-0.7c3.3,0.1,6.5,0.3,9.8,0.3c3.4,0,6.7-0.2,10.1-0.3
	c7.7-0.2,15.3-0.7,23-0.6c4.7,0.1,9.4-0.1,14.1-0.1c3.5,0,7,0.3,10.5,0.8c5.7,0.9,11.4,1.5,17.2,0.8c4.8-0.6,9.5-0.9,14.3-1.4
	c1.7-0.1,3.4-0.1,5-0.2c0.6,0,1.3,0,1.9,0c4.9-0.6,9.7,0.4,14.5,0.8c1.9,0.2,3.8,0.5,5.7,0.6c1.4,0.1,2.8,0.1,4.3-0.2
	c1.4-0.3,2.9-0.4,4.3-0.4c4.8-0.2,9.6-0.2,14.4-0.4c3.1-0.1,6.2-0.3,9.3-0.3c1.1,0,2.2,0,3.4,0.1c7.4,0.7,14.7,1.8,21.9,3.9
	c3.4,1,6.9,1.4,10.4,1.7c2.9,0.3,5.7,0.9,8.5,1.5c2,0.4,4,1.1,6,1.5c2.9,0.7,5.1,2.1,6.7,4.6c1.9,3.2,1.6,7.2-2.3,9.5
	c-1.7,1-3.7,1.6-5.6,2c-1.3,0.3-2.7,0.3-4,0.4c-0.5,0-1,0-1.4,0.1c-2.8,0.8-5.7,0.7-8.6,0.6c-2.1,0-4.2-0.1-6.2-0.1
	c-2.3,0.1-4.6,0.3-6.9,0.6c-6.6,0.7-13.2,1.1-19.9,0.7c-2.9-0.2-5.9-0.5-8.8-0.8c-0.7-0.1-1.4,0-2.2,0.1c-4.4,0.4-8.7,0.9-13.1,1.2
	c-8,0.6-15.9,1.2-23.9,1.2c-3,0-6.1-0.2-9.1,0.4c-0.2,0-0.5,0-0.7,0c-4.8-0.1-9.6,0.3-14.4,0.5c-2.7,0.1-5.4,0.2-8.2,0.2
	c-3.9,0-7.8,0.2-11.7,0.4c-3.1,0.2-6.2,0.1-9.3,0.4c-4.1,0.4-8.3,0.3-12.5,0.5c-2.9,0.1-5.7,0.1-8.6,0.2c-4.1,0.2-8.3,0.4-12.4,0.6
	c-1.1,0.1-2.2,0-3.4,0.1c-4.1,0.3-8.1,0.6-12.2,0.8c-2.1,0.1-4.1,0.5-6.2,0.1c-3.1-0.5-6.3-1-9.4-1.7c-4.1-0.8-8.2-1.3-12.4-1.1
	c-1.8,0.1-3.7,0.4-5.5,0.5c-5.4,0.5-10.8,1-16.2,1.4c-5.3,0.4-10.5,0.6-15.8,1c-3.8,0.3-7.7,0.3-11.5,0.5c-4.8,0.3-9.6,0.2-14.4,0.4
	c-0.6,0-1.1,0-1.7,0c-3.3,0.1-6.5,0-9.8,0.2c-3.1,0.2-6.2-0.1-9.3-0.3c-3.7-0.3-7.3-1-10.9-1.3c-4.8-0.4-9.5-1-14.4-0.4
	c-0.6,1.3-1.3,2.5-1.8,3.8c-0.2,0.6,0,1.1,0.5,1.5c1.4,1.1,2.8,2.1,4.7,2.1c2.3,0,4.6,0.3,6.9,0.4c2.9,0.1,5.7,0.3,8.6,1
	c5.3,1.2,10.6,1.1,16,0.7c2.9-0.2,5.9-0.4,8.8-0.6c3.7-0.3,7.5-0.6,11.2-1.2c4.5-0.6,9-0.9,13.6-0.5c4.6,0.5,9.3,0.1,13.9-0.2
	c2.4-0.2,4.8-0.2,7.2-0.3c3.2-0.1,6.4-0.2,9.6-0.3c3.9,0,7.8,0,11.7,0c2.8,0,5.6,0,8.4,0c6.2,0,12.3,0,18.5,0
	c5.4,0,10.7-0.1,16.1-0.2c1.8,0,3.7-0.2,5.5-0.3c4.9-0.2,9.7-0.3,14.6-0.4c1.7,0,3.4,0,5,0c3.7-0.1,7.3-0.3,11-0.4
	c0.6,0,1.3,0,1.9,0c3.5-0.1,7.1,0.1,10.5-0.2c4.7-0.4,9.4,0,14.1-0.4c3.5-0.3,7-0.5,10.5-0.7c1.4-0.1,2.7-0.1,4.1-0.1
	c4.1,0,8.1-0.2,12.2-0.3c4.5-0.2,8.9-0.2,13.4-0.2c3,0,6.1,0.1,9.1,0.2c0.6,0,1.3,0,1.9,0.3c1.3,0.5,2.6,0.6,4,0.6
	c6.7,0,13.4,0,20.1,0.1c3.1,0,6.2,0.2,9.3,0.2c2.8,0,5.6-0.1,8.4-0.1c1.1,0,2.2,0.2,3.3,0.2c2.2,0.1,4.3,0.2,6.5,0.1
	c3.7-0.1,7.2,0.8,10.5,2.1c2.5,1,4.9,2.3,7.4,3.5c3.1,1.5,5.4,3.9,7.2,6.8c0.3,0.5,0.5,1,0.5,1.5c0.1,2.8,0.1,5.6,0.1,8.4
	c0,0.3,0,0.6-0.1,1c-0.3,2.3-0.8,4.6-3,5.9c-0.3,0.2-0.5,0.4-0.7,0.7c-1,1.1-2.4,1.6-3.9,1.6c-1.3,0-2.6,0.1-3.8,0.1
	c-1.4,0-2.7,0.2-4,0.6c-0.6,0.2-1.2,0.3-1.9,0.4c-2.8,0.4-5.7,0.9-8.5,1c-2.7,0.1-5.4,0.6-8.1,0.7c-3.1,0.2-6.2,0.2-9.3,0.3
	c-3.7,0.1-7.3,0.3-11,0.4c-2.9,0-5.7,0.4-8.6,0.6c-1.1,0.1-2.2,0-3.3,0c-2.3,0-4.6,0-6.9,0c-2.4,0-4.8,0-7.2,0c-6-0.1-12-0.2-18-0.3
	c-2.6,0-5.3-0.2-7.9-0.2c-3,0-5.9,0.2-8.9,0.3c-0.4,0-0.8,0.1-1.2,0.1c-2.9-0.2-5.7,0.2-8.6,0.3c-3.4,0.2-6.9,0.2-10.3,0.5
	c-3.3,0.3-6.5,0-9.8,0.1c-0.7,0-1.4,0-2.2,0.1c-5.2,0.7-10.4,0.3-15.6,0c-2.3-0.1-4.6-0.1-6.9-0.2c-2-0.1-4-0.3-6-0.4
	c-4.2-0.2-8.3-0.5-12.5-0.6c-3.2-0.1-6.4-0.5-9.5-0.7c-2-0.2-4-0.1-6-0.1c-1.4,0-2.9,0-4.3,0c-1.1,0-2.2,0.1-3.3,0.2
	c-1,0-2.1,0-3.1,0c-2.9,0-5.8,0.1-8.6,0.1c-1.2,0-2.4-0.2-3.6-0.2c-1.7,0-3.4-0.1-5,0.1c-6.2,0.6-12.4,0.7-18.7,0.8
	c-2.7,0-5.4-0.1-8.2,0c-4.1,0.2-8.1,0-12.2,0.3c-2.3,0.2-4.6,0.1-6.9,0.2c-3.6,0.1-7.2,0.3-10.8,0.2c-3.2-0.1-6.4,0.1-9.6,0.1
	c-4.9,0.1-9.7,0.4-14.6,0.6c-1.2,0-2.4,0-3.6,0c-3,0.1-5.9,0.2-8.9,0.3c-2.7,0.1-5.4,0-8.1,0.2c-2.7,0.2-5.4,0.5-8.1,0.7
	c-1.5,0.1-3,0.2-4.5,0.4c-3.6,0.5-7.3,1.1-10.9,1.7c-2.1,0.4-3.9,1.4-5.5,2.8c-0.5,0.4-0.8,1-1.1,1.6c-0.4,0.8-0.2,1.6,0.6,2.1
	c1,0.7,1.9,1.4,3.1,1.7c1.8,0.6,3.7,0.9,5.6,0.9c5.7,0.2,11.3,0.5,17,0.9c5,0.3,9.9,0.5,14.9,0.4c5.8-0.1,11.7,0.1,17.5,0.2
	c3.6,0.1,7.2,0.1,10.8,0.4c6.9,0.4,13.7,0.5,20.6,1.3c2,0.2,4,0,6,0c3.8-0.1,7.5-0.7,11.2-0.7c3.5,0,7-0.4,10.5-0.5
	c5.8-0.2,11.7-0.3,17.5-0.5c5.3-0.2,10.5-0.5,15.8-0.8c3-0.2,5.9-0.3,8.9-0.5c3.7-0.2,7.3-0.4,11-0.6c3.7-0.2,7.3-0.6,11-0.8
	c1.8-0.1,3.5-0.1,5.3-0.1c3.8,0,7.7,0,11.5-0.1c3.7-0.1,7.4-0.3,11-0.2c7.3,0.1,14.5-0.4,21.8-0.7c3-0.1,5.9-0.1,8.9-0.2
	c3.4-0.1,6.7-0.2,10.1-0.4c2.4-0.1,4.8-0.1,7.2-0.2c3.4-0.1,6.7-0.1,10.1-0.1c3.7-0.1,7.4-0.1,11-0.2c7.7-0.4,15.5-0.5,23.2-0.4
	c1.2,0,2.4-0.2,3.6-0.2c2.6-0.1,5.3-0.2,7.9-0.4c1.4-0.1,2.7-0.2,4.1-0.2c5,0.1,10,0.2,15.1,0.2c2.6,0,5.3,0.1,7.9,0.2
	c0.9,0,1.7,0.2,2.6,0.4c2.3,0.6,4.7,1.1,6.9,1.8c4.4,1.4,7.8,4.3,10.4,8.1c1.5,2.2,2.4,4.6,2.9,7.3c0.5,2.6,0.4,5.2,0.1,7.8
	c-0.3,2.7-1.7,4.7-4,5.9c-2.5,1.4-5.1,2.6-7.7,3.8c-0.9,0.4-2,0.6-3,0.9c-0.3,0.1-0.7,0.1-0.9,0c-1.1-0.6-2-0.1-3,0.1
	c-3,0.8-6,1.6-9,2.4c-2.9,0.7-5.8,1.3-8.6,2c-1,0.3-1.9,0.8-2.9,1.1c-1,0.2-2,0.1-3,0.3c-2,0.3-3.9,0.7-5.9,1.2
	c-1.6,0.4-3.1,0.7-4.7,0.8c-4,0.3-8,0.5-12,0.7c-4.4,0.2-8.8,0.2-13.2,0.5c-5.8,0.4-11.5,0.1-17.3,0.2c-8.2-0.8-16.5-0.3-24.7-0.5
	c-5.4-0.1-10.9-0.3-16.3-0.5c-5.9-0.2-11.8-0.5-17.7-0.7c-3-0.1-5.9,0-8.9-0.1c-5-0.2-9.9,0.1-14.9,0c-3.3,0-6.6,0-9.8,0.1
	c-6.8,0.1-13.6-0.1-20.4-0.2c-9.5-0.1-19-0.1-28.5-0.2c-0.6,0-1.3-0.1-1.9,0.1c-0.9,0.2-1.7,0.1-2.6,0.1c-2.2-0.1-4.5-0.1-6.7-0.1
	c-7.7-0.1-15.4-0.2-23-0.2c-3.2,0-6.4-0.1-9.6,0.2c-4.2,0.4-8.5,0.1-12.7,0.3c-2.6,0.1-5.3,0.3-7.9,0.4c-2.2,0.1-4.5,0.1-6.7,0.2
	c-3.7,0.2-7.5,0.5-11.2,0.8c-2.3,0.2-4.6,0.3-6.9,0.6c-3.2,0.4-6.3,1-9.4,1.8c-2.9,0.7-5.9,1.3-8.9,1.9c-1.5,0.3-2.8,1-4.2,1.7
	c-2.1,1.1-2.2,4.6-0.6,6c1.2,1,2.5,1.8,4,2c2.5,0.5,5,0.9,7.5,1.4c2.7,0.5,5.4,0.4,8.1,0c4.3-0.6,8.7-0.9,13.1-1.4
	c2.1-0.2,4.3-0.5,6.4-0.7c1.3-0.1,2.7-0.2,4.1-0.3c5.2-0.2,10.4-0.4,15.6-0.6c4.7-0.2,9.4-0.5,14.1-0.7c3-0.1,6.1-0.2,9.1-0.2
	c3-0.1,6.1-0.2,9.1-0.2c3.4,0,6.7,0.1,10.1,0.1c7.9,0,15.8,0.5,23.7,0.1c4.2-0.2,8.4-0.6,12.7-1c3.4-0.3,6.8-0.7,10.3-0.9
	c4.2-0.3,8.5-0.4,12.7-0.6c2.6-0.1,5.3-0.1,7.9-0.4c1.1-0.1,2.3,0.1,3.4-0.5c0.5-0.2,1.1-0.3,1.6-0.3c2.6,0,5.3,0,7.9,0.1
	c4.5,0.2,8.9,0.4,13.4,0.7c3.1,0.2,6.2,0.4,9.3,0.6c1.3,0.1,2.6,0.1,3.8,0.1c3.3,0.1,6.5,0.2,9.8,0.3c2.1,0.1,4.2,0.1,6.2,0.2
	c7.9,0.2,15.8,0.4,23.7,0.7c2.3,0.1,4.6,0.1,7,0.2c5.8,0.2,11.7,0.3,17.5,0.6c5.8,0.3,11.6,0.8,17.5,1.2c2.4,0.1,4.8,0.2,7.2,0.4
	c3,0.3,6,0.8,9,1.6c3.6,0.9,7.3,1.9,10.9,2.9c3.1,0.9,5.8,2.7,8.4,4.6c1,0.7,1.7,1.6,2.2,2.8c0.9,2,1.9,4,2.2,6.3
	c0.2,1.7,0.6,3.5,0.9,5.2c0.3,1.5-0.4,2.6-1.5,3.6c-0.7,0.6-1.5,1.2-2.1,1.9c-0.6,0.7-1.3,1.1-2.2,1.2c-1.7,0.2-3.5,0.5-5.2,0.7
	c-3.2,0.5-6.3,1-9.5,1.5c-1.5,0.2-3,0.3-4.5,0.5c-4.5,0.5-9,1-13.6,1.1c-3.2,0.1-6.3,0.9-9.5,1.4c-1.1,0.2-2.2,0.3-3.3,0.4
	c-1.5,0.1-3,0.2-4.5,0.3c-4.9,0.5-9.7,0.1-14.6,0c-3.7-0.1-7.3-0.4-11,0.1c-1.1,0.1-2.2,0.1-3.4,0.1c-1.1,0-2.2,0-3.3,0.2
	c-2.2,0.3-4.3,0.3-6.4,0.1c-0.2,0-0.5-0.1-0.7,0c-3.5,0.3-7-0.2-10.5-0.1c-3.5,0-7-0.1-10.6-0.2c-3.7-0.1-7.3-0.4-11-0.4
	c-5.3,0-10.5-0.5-15.8-0.5c-2.7,0-5.4,0.3-8.1,0.5c-3.4,0.2-6.7,0.3-10.1,0.5c-3.7,0.3-7.3,0.7-11,1.1c-1.8,0.2-3.7,0.4-5.5,0.4
	c-5.8,0-11.7,0.1-17.5,0c-3.2-0.1-6.4-0.4-9.6-0.6c-2.8-0.2-5.6-0.3-8.4-0.5c-6.4-0.3-12.8,0.2-19.2,0.1c-1.3,0-2.6,0-3.8,0
	c-3.8,0-7.7-0.1-11.5-0.1c-1.7,0-3.4-0.1-5-0.1c-1.4,0-2.9,0.1-4.3,0.1c-4.6,0-9.1,0.1-13.7,0.1c-5.4,0-10.7-0.6-16-1.2
	c-3.3-0.4-6.7-0.6-10-0.9c-1.6-0.1-3.2-0.3-4.8-0.5c-4-0.4-8-0.8-11.9-1.2c-4-0.4-8-0.5-12,0c-1.1,0.1-2.2,0.2-3.3,0.2
	c-1,0.1-2.1,0-3,0.7c-0.4,1.2-0.9,2.5-1.3,3.8c-0.1,0.5-0.4,0.9-0.4,1.4c0.1,1.7,0.2,3.3,0.3,5c1.5,1,3,2.1,4.8,2.5
	c1.4,0.3,2.8,0.4,4.3,0.6c4.1,0.6,8.3,0.3,12.4,0.3c1.1,0,2.2,0,3.4,0c5.1,0,10.2-0.3,15.3-1.2c0.5-0.1,1.1-0.1,1.7-0.1
	c4.7,0.1,9.4,0.2,14.2,0.2c2.1,0,4.1-0.1,6.2-0.1c2.4,0,4.8,0.1,7.2,0.2c0.5,0,1,0,1.4,0c2.6-0.1,5.3-0.2,7.9-0.3c0.3,0,0.6,0,1,0
	c3.4,0.5,6.7-0.2,10-0.1c3.3,0.1,6.6,0,9.8,0c4.8,0,9.6-0.1,14.4-0.2c1.8,0,3.7-0.2,5.5-0.3c4.8-0.1,9.6-0.2,14.4-0.3
	c1.4,0,2.7,0.1,4.1,0.1c3-0.1,6.1-0.3,9.1-0.4c3.3-0.1,6.7-0.3,10-0.4c4.5-0.2,9.1-0.5,13.6-0.5c4.5,0,9,0,13.4-0.1
	c2.2,0,4.5-0.2,6.7-0.3c1.7,0,3.4,0,5,0.1c1.7,0,3.3,0.1,5,0.2c2.3,0,4.6,0,6.9,0c3.8,0,7.7,0.1,11.5,0.2c4.1,0,8.2,0,12.2,0
	c1.8,0,3.5,0.1,5.3,0c4.9-0.1,9.9-0.3,14.8-0.5c3.8-0.1,7.5-0.1,11.3-0.2c1.8,0,3.5-0.1,5.3-0.2c0.7,0,1.4,0.1,2.1,0.1
	c2.6,0,5.3,0,7.9,0.1c2.5,0,5,0.1,7.4,0.1c0.9,0,1.7-0.1,2.6-0.2c0.6-0.1,1.3-0.2,1.9-0.1c5.1,0.8,10.2,1.2,15.2,1.6
	c2.1,0.2,4.3,0.1,6.5,0.1c5.2-0.2,10.4-0.3,15.5-0.7c6.1-0.4,12.3-0.7,18.4-0.6c1.9,0,3.8,0,5.7-0.5c0.3-0.1,0.6-0.1,0.9-0.1
	c3.3-0.1,6.5-0.3,9.8-0.3c1,0,2.1,0.3,3.1,0.5C792.2,584.7,792.2,588.9,792.2,593z"/>
<path class="st2" d="M169.6,403c-0.1,0.1-0.1,0.2-0.2,0.3c-0.1-0.1-0.1-0.2-0.2-0.3c0.1-0.1,0.2-0.1,0.3-0.2
	C169.5,402.9,169.5,403,169.6,403z"/>
<path class="st2" d="M163.6,417.1c0,0,0,0.1-0.1,0.1c0-0.1-0.1-0.1-0.1-0.2C163.5,417,163.6,417,163.6,417.1z"/>
</svg>
